<svg width="32" height="32" viewBox="0 0 32 32" fill="none" xmlns="http://www.w3.org/2000/svg">
<path fill-rule="evenodd" clip-rule="evenodd" d="M29.4493 26.2667C29.1787 26.9573 28.5533 27.928 27.6573 28.6187C27.144 29.0107 26.528 29.3933 25.688 29.6453C24.792 29.916 23.6813 30 22.3 30H9.7C8.31867 30 7.21733 29.9067 6.312 29.6453C5.472 29.3933 4.856 29.02 4.34267 28.6187C3.456 27.9373 2.82133 26.9573 2.55067 26.2667C2.00933 24.876 2 23.2987 2 22.3V9.7C2 8.70133 2.00933 7.124 2.55067 5.73333C2.82133 5.04267 3.44667 4.072 4.34267 3.38133C4.856 2.98933 5.472 2.60667 6.312 2.35467C7.21733 2.09333 8.31867 2 9.7 2H22.3C23.6813 2 24.7827 2.09333 25.688 2.35467C26.528 2.60667 27.144 2.98 27.6573 3.38133C28.544 4.06267 29.1787 5.04267 29.4493 5.73333C30 7.124 30 8.71067 30 9.7V22.3C30 23.2987 29.9907 24.876 29.4493 26.2667ZM18.399 18.9026C18.3617 18.5666 18.2497 18.3239 18.0257 18.0999C17.6057 17.6612 16.8683 17.3719 16.0003 17.3719C15.1323 17.3719 14.395 17.6519 13.975 18.0999C13.7603 18.3332 13.639 18.5666 13.6017 18.9026C13.5273 19.5535 13.5733 20.1117 13.6475 21.0111L13.6483 21.0212C13.723 21.8799 13.863 23.0279 14.0403 24.1852C14.171 25.0159 14.2737 25.4639 14.367 25.7812C14.5257 26.3039 15.095 26.7519 16.0003 26.7519C16.9057 26.7519 17.4843 26.2946 17.6337 25.7812C17.727 25.4639 17.8297 25.0159 17.9603 24.1852C18.1377 23.0186 18.2777 21.8799 18.3523 21.0212C18.4363 20.1159 18.4737 19.5559 18.399 18.9026ZM16 16.4387C17.2693 16.4387 18.296 15.412 18.296 14.1427C18.296 12.8827 17.2693 11.8467 16 11.8467C14.7306 11.8467 13.704 12.8733 13.704 14.1427C13.704 15.412 14.7306 16.4387 16 16.4387ZM15.9723 5.09883C10.615 5.1175 6.22833 9.46683 6.15367 14.8242C6.09767 19.1642 8.86967 22.8788 12.743 24.2415C12.8363 24.2788 12.9297 24.1948 12.9203 24.1015C12.9048 23.9895 12.8882 23.8775 12.8716 23.7655C12.8384 23.5415 12.8052 23.3175 12.7803 23.0935C12.7617 22.9722 12.687 22.8788 12.5843 22.8228C9.523 21.4882 7.38567 18.4175 7.423 14.8615C7.46967 10.1948 11.2777 6.39616 15.935 6.35883C20.7043 6.3215 24.5963 10.1855 24.5963 14.9455C24.5963 18.4642 22.4683 21.4882 19.435 22.8228C19.323 22.8695 19.2483 22.9722 19.239 23.0935L19.099 24.1015C19.0803 24.2042 19.183 24.2788 19.2763 24.2415C23.1123 22.8975 25.8657 19.2388 25.8657 14.9455C25.847 9.5135 21.4137 5.0895 15.9723 5.09883ZM9.41066 14.8707C9.45732 11.38 12.2573 8.496 15.748 8.36533C19.5 8.216 22.608 11.2307 22.5987 14.9453C22.5987 17.204 21.4507 19.2107 19.7147 20.396C19.6213 20.4613 19.5 20.3867 19.5093 20.284C19.528 19.8827 19.5373 19.528 19.5187 19.164C19.5187 19.0427 19.5653 18.9307 19.6493 18.8467C20.6853 17.8667 21.3387 16.4853 21.3387 14.9547C21.3387 11.9493 18.8373 9.504 15.7947 9.62533C12.9947 9.73733 10.7453 12.0147 10.6707 14.8147C10.6333 16.4013 11.2867 17.8387 12.36 18.8467C12.4533 18.9307 12.5 19.0427 12.4907 19.164C12.472 19.5373 12.472 19.892 12.5 20.2933C12.5 20.396 12.3787 20.4613 12.2947 20.4053C10.5307 19.2013 9.38266 17.1667 9.41066 14.8707Z" fill="#1A1C1E"/>
</svg>
