<svg width="20" height="20" viewBox="0 0 20 20" fill="none" xmlns="http://www.w3.org/2000/svg">
<path d="M1.5498 8.5H3.0498C3.3498 8.5 3.5498 8.3 3.5498 8V6.5C3.5498 6.2 3.7498 6 4.0498 6H5.5498C5.8498 6 6.0498 5.8 6.0498 5.5V4C6.0498 3.7 6.2498 3.5 6.5498 3.5H8.0498C8.3498 3.5 8.5498 3.3 8.5498 3V1.5C8.5498 1.2 8.7498 1 9.0498 1H11.0498C11.3498 1 11.5498 1.2 11.5498 1.5V3.5C11.5498 3.8 11.3498 4 11.0498 4H9.5498C9.2498 4 9.0498 4.2 9.0498 4.5V6C9.0498 6.3 8.8498 6.5 8.5498 6.5H7.0498C6.7498 6.5 6.5498 6.7 6.5498 7V8C6.5498 8.3 6.7498 8.5 7.0498 8.5H18.4498C18.7498 8.5 18.9498 8.7 18.9498 9V11C18.9498 11.3 18.7498 11.5 18.4498 11.5H7.0498C6.7498 11.5 6.5498 11.7 6.5498 12V13C6.5498 13.3 6.7498 13.5 7.0498 13.5H8.5498C8.8498 13.5 9.0498 13.7 9.0498 14V15.5C9.0498 15.8 9.2498 16 9.5498 16H11.0498C11.3498 16 11.5498 16.2 11.5498 16.5V18.5C11.5498 18.8 11.3498 19 11.0498 19H9.0498C8.7498 19 8.5498 18.8 8.5498 18.5V17C8.5498 16.7 8.3498 16.5 8.0498 16.5H6.5498C6.2498 16.5 6.0498 16.3 6.0498 16V14.5C6.0498 14.2 5.8498 14 5.5498 14H4.0498C3.7498 14 3.5498 13.8 3.5498 13.5V12C3.5498 11.7 3.3498 11.5 3.0498 11.5H1.5498C1.2498 11.5 1.0498 11.3 1.0498 11V9C1.0498 8.7 1.2498 8.5 1.5498 8.5Z" fill="#1A1C1E"/>
</svg>
