<svg width="18" height="19" viewBox="0 0 18 19" fill="none" xmlns="http://www.w3.org/2000/svg">
<path d="M13.4996 15.8828L12.5096 14.8928C12.3296 14.7128 12.0596 14.7128 11.8796 14.8928L10.8896 15.8828C10.7096 16.0628 10.4396 16.0628 10.2596 15.8828L9.26961 14.8928C9.08961 14.7128 8.81961 14.7128 8.63961 14.8928L7.64961 15.8828C7.46961 16.0628 7.19961 16.0628 7.01961 15.8828L6.11961 14.8928C5.93961 14.7128 5.66961 14.7128 5.48961 14.8928L4.49961 15.8828C4.31961 16.0628 4.04961 16.0628 3.86961 15.8828L2.60961 14.6228C2.42961 14.4428 2.42961 14.1728 2.60961 13.9928L3.86961 12.7328C4.04961 12.5528 4.31961 12.5528 4.49961 12.7328L5.48961 13.7228C5.66961 13.8128 5.93961 13.8128 6.11961 13.6328L7.10961 12.6428C7.28961 12.4628 7.55961 12.4628 7.73961 12.6428L8.72961 13.6328C8.90961 13.8128 9.17961 13.8128 9.35961 13.6328L9.98961 13.0028C10.1696 12.8228 10.1696 12.5528 9.98961 12.3728L2.78961 5.17277C2.51961 4.99277 2.51961 4.63277 2.69961 4.45277L3.95961 3.19277C4.13961 3.01277 4.49961 3.01277 4.67961 3.19277L11.8796 10.3928C12.0596 10.5728 12.3296 10.5728 12.5096 10.3928L13.1396 9.76277C13.3196 9.58277 13.3196 9.31277 13.1396 9.13277L12.1496 8.14277C11.9696 7.96277 11.9696 7.69277 12.1496 7.51277L13.1396 6.61277C13.3196 6.43277 13.3196 6.16277 13.1396 5.98277L12.1496 4.99277C11.9696 4.81277 11.9696 4.54277 12.1496 4.36277L13.4096 3.10277C13.5896 2.92277 13.8596 2.92277 14.0396 3.10277L15.2996 4.36277C15.4796 4.54277 15.4796 4.81277 15.2996 4.99277L14.3096 5.98277C14.2196 6.16277 14.2196 6.43277 14.3996 6.61277L15.3896 7.60277C15.5696 7.78277 15.5696 8.05277 15.3896 8.23277L14.3996 9.22277C14.2196 9.40277 14.2196 9.67277 14.3996 9.85277L15.3896 10.8428C15.5696 11.0228 15.5696 11.2928 15.3896 11.4728L14.3996 12.4628C14.2196 12.6428 14.2196 12.9128 14.3996 13.0928L15.3896 14.0828C15.5696 14.2628 15.5696 14.5328 15.3896 14.7128L14.1296 15.9728C13.9496 16.0628 13.6796 16.0628 13.4996 15.8828Z" fill="#1A1C1E"/>
</svg>
