<svg width="20" height="20" viewBox="0 0 20 20" fill="none" xmlns="http://www.w3.org/2000/svg">
<path d="M11.5 1.54999V3.04999C11.5 3.34999 11.7 3.54999 12 3.54999H13.5C13.8 3.54999 14 3.74999 14 4.04999V5.54999C14 5.84999 14.2 6.04999 14.5 6.04999H16C16.3 6.04999 16.5 6.24999 16.5 6.54999V8.04999C16.5 8.34999 16.7 8.54999 17 8.54999H18.5C18.8 8.54999 19 8.74999 19 9.04999V11.05C19 11.35 18.8 11.55 18.5 11.55H16.5C16.2 11.55 16 11.35 16 11.05V9.54999C16 9.24999 15.8 9.04999 15.5 9.04999H14C13.7 9.04999 13.5 8.84999 13.5 8.54999V7.04999C13.5 6.74999 13.3 6.54999 13 6.54999H12C11.7 6.54999 11.5 6.74999 11.5 7.04999V18.45C11.5 18.75 11.3 18.95 11 18.95H9C8.7 18.95 8.5 18.75 8.5 18.45V7.04999C8.5 6.74999 8.3 6.54999 8 6.54999H7C6.7 6.54999 6.5 6.74999 6.5 7.04999V8.54999C6.5 8.84999 6.3 9.04999 6 9.04999H4.5C4.2 9.04999 4 9.24999 4 9.54999V11.05C4 11.35 3.8 11.55 3.5 11.55H1.5C1.2 11.55 1 11.35 1 11.05V9.04999C1 8.74999 1.2 8.54999 1.5 8.54999H3C3.3 8.54999 3.5 8.34999 3.5 8.04999V6.54999C3.5 6.24999 3.7 6.04999 4 6.04999H5.5C5.8 6.04999 6 5.84999 6 5.54999V4.04999C6 3.74999 6.2 3.54999 6.5 3.54999H8C8.3 3.54999 8.5 3.34999 8.5 3.04999V1.54999C8.5 1.24999 8.7 1.04999 9 1.04999H11C11.3 1.04999 11.5 1.24999 11.5 1.54999Z" fill="#1A1C1E"/>
</svg>
