<svg width="20" height="20" viewBox="0 0 20 20" fill="none" xmlns="http://www.w3.org/2000/svg">
<path d="M15 17.0922L13.9 15.9922C13.7 15.7922 13.4 15.7922 13.2 15.9922L12.1 17.0922C11.9 17.2922 11.6 17.2922 11.4 17.0922L10.3 15.9922C10.1 15.7922 9.8 15.7922 9.6 15.9922L8.5 17.0922C8.3 17.2922 8 17.2922 7.8 17.0922L6.8 15.9922C6.6 15.7922 6.3 15.7922 6.1 15.9922L5 17.0922C4.8 17.2922 4.5 17.2922 4.3 17.0922L2.9 15.6922C2.7 15.4922 2.7 15.1922 2.9 14.9922L4.3 13.5922C4.5 13.3922 4.8 13.3922 5 13.5922L6.1 14.6922C6.3 14.7922 6.6 14.7922 6.8 14.5922L7.9 13.4922C8.1 13.2922 8.4 13.2922 8.6 13.4922L9.7 14.5922C9.9 14.7922 10.2 14.7922 10.4 14.5922L11.1 13.8922C11.3 13.6922 11.3 13.3922 11.1 13.1922L3.1 5.19219C2.8 4.99219 2.8 4.59219 3 4.39219L4.4 2.99219C4.6 2.79219 5 2.79219 5.2 2.99219L13.2 10.9922C13.4 11.1922 13.7 11.1922 13.9 10.9922L14.6 10.2922C14.8 10.0922 14.8 9.79219 14.6 9.59219L13.5 8.49219C13.3 8.29219 13.3 7.99219 13.5 7.79219L14.6 6.79219C14.8 6.59219 14.8 6.29219 14.6 6.09219L13.5 4.99219C13.3 4.79219 13.3 4.49219 13.5 4.29219L14.9 2.89219C15.1 2.69219 15.4 2.69219 15.6 2.89219L17 4.29219C17.2 4.49219 17.2 4.79219 17 4.99219L15.9 6.09219C15.8 6.29219 15.8 6.59219 16 6.79219L17.1 7.89219C17.3 8.09219 17.3 8.39219 17.1 8.59219L16 9.69219C15.8 9.89219 15.8 10.1922 16 10.3922L17.1 11.4922C17.3 11.6922 17.3 11.9922 17.1 12.1922L16 13.2922C15.8 13.4922 15.8 13.7922 16 13.9922L17.1 15.0922C17.3 15.2922 17.3 15.5922 17.1 15.7922L15.7 17.1922C15.5 17.2922 15.2 17.2922 15 17.0922Z" fill="currentColor"/>
</svg>
