<svg width="20" height="20" viewBox="0 0 20 20" fill="none" xmlns="http://www.w3.org/2000/svg">
<path d="M18.4001 8.5H16.9001C16.6001 8.5 16.4001 8.3 16.4001 8V6.5C16.4001 6.2 16.2001 6 15.9001 6H14.4001C14.1001 6 13.9001 5.8 13.9001 5.5V4C13.9001 3.7 13.7001 3.5 13.4001 3.5H11.9001C11.6001 3.5 11.4001 3.3 11.4001 3V1.5C11.4001 1.2 11.2001 1 10.9001 1H8.9001C8.7001 1 8.4001 1.2 8.4001 1.5V3.5C8.4001 3.8 8.7001 4 8.9001 4H10.4001C10.7001 4 10.9001 4.2 10.9001 4.5V6C10.9001 6.3 11.1001 6.5 11.4001 6.5H12.9001C13.2001 6.5 13.4001 6.7 13.4001 7V8C13.4001 8.3 13.2001 8.5 12.9001 8.5H1.6001C1.3001 8.5 1.1001 8.7 1.1001 9V11C1.1001 11.3 1.3001 11.5 1.6001 11.5H13.0001C13.3001 11.5 13.5001 11.7 13.5001 12V13C13.5001 13.3 13.3001 13.5 13.0001 13.5H11.5001C11.2001 13.5 11.0001 13.7 11.0001 14V15.5C11.0001 15.8 10.8001 16 10.5001 16H8.9001C8.6001 16 8.4001 16.2 8.4001 16.5V18.5C8.4001 18.8 8.6001 19 8.9001 19H10.9001C11.2001 19 11.4001 18.8 11.4001 18.5V17C11.4001 16.7 11.6001 16.5 11.9001 16.5H13.4001C13.7001 16.5 13.9001 16.3 13.9001 16V14.5C13.9001 14.2 14.1001 14 14.4001 14H15.9001C16.2001 14 16.4001 13.8 16.4001 13.5V12C16.4001 11.7 16.6001 11.5 16.9001 11.5H18.4001C18.7001 11.5 18.9001 11.3 18.9001 11V9C18.9001 8.7 18.7001 8.5 18.4001 8.5Z" fill="#1A1C1E"/>
</svg>
