<svg width="20" height="20" viewBox="0 0 20 20" fill="none" xmlns="http://www.w3.org/2000/svg">
<path d="M8.5 18.45V16.95C8.5 16.65 8.3 16.45 8 16.45H6.5C6.2 16.45 6 16.25 6 15.95V14.45C6 14.15 5.8 13.95 5.5 13.95H4C3.7 13.95 3.5 13.75 3.5 13.45V11.95C3.5 11.65 3.3 11.45 3 11.45H1.5C1.2 11.45 1 11.25 1 10.95V8.94999C1 8.64999 1.2 8.44999 1.5 8.44999H3.5C3.8 8.44999 4 8.64999 4 8.94999V10.45C4 10.75 4.2 10.95 4.5 10.95H6C6.3 10.95 6.5 11.15 6.5 11.45V12.95C6.5 13.25 6.7 13.45 7 13.45H8C8.3 13.45 8.5 13.25 8.5 12.95V1.54999C8.5 1.24999 8.7 1.04999 9 1.04999H11C11.3 1.04999 11.5 1.24999 11.5 1.54999V12.95C11.5 13.25 11.7 13.45 12 13.45H13C13.3 13.45 13.5 13.25 13.5 12.95V11.45C13.5 11.15 13.7 10.95 14 10.95H15.5C15.8 10.95 16 10.75 16 10.45V8.94999C16 8.64999 16.2 8.44999 16.5 8.44999H18.5C18.8 8.44999 19 8.64999 19 8.94999V10.95C19 11.25 18.8 11.45 18.5 11.45H17C16.7 11.45 16.5 11.65 16.5 11.95V13.45C16.5 13.75 16.3 13.95 16 13.95H14.5C14.2 13.95 14 14.15 14 14.45V15.95C14 16.25 13.8 16.45 13.5 16.45H12C11.7 16.45 11.5 16.65 11.5 16.95V18.45C11.5 18.75 11.3 18.95 11 18.95H9C8.7 18.95 8.5 18.75 8.5 18.45Z" fill="#1A1C1E"/>
</svg>
