<svg width="20" height="20" viewBox="0 0 20 20" fill="none" xmlns="http://www.w3.org/2000/svg">
<path d="M4.5 8.5H6C6.3 8.5 6.5 8.3 6.5 8V6.5C6.5 6.2 6.7 6 7 6H8.5C8.8 6 9 5.8 9 5.5V4C9 3.7 9.2 3.5 9.5 3.5H11C11.3 3.5 11.5 3.3 11.5 3V1.5C11.5 1.2 11.7 1 12 1H14C14.3 1 14.5 1.2 14.5 1.5V3.5C14.5 3.8 14.3 4 14 4H12.5C12.2 4 12 4.2 12 4.5V6C12 6.3 11.8 6.5 11.5 6.5H10C9.7 6.5 9.5 6.7 9.5 7V8C9.5 8.27614 9.27614 8.5 9 8.5H7.4502C7.17405 8.5 6.9502 8.72386 6.9502 9V11C6.9502 11.2761 7.17405 11.5 7.4502 11.5H9C9.27614 11.5 9.5 11.7239 9.5 12V13C9.5 13.3 9.7 13.5 10 13.5H11.5C11.8 13.5 12 13.7 12 14V15.5C12 15.8 12.2 16 12.5 16H14C14.3 16 14.5 16.2 14.5 16.5V18.5C14.5 18.8 14.3 19 14 19H12C11.7 19 11.5 18.8 11.5 18.5V17C11.5 16.7 11.3 16.5 11 16.5H9.5C9.2 16.5 9 16.3 9 16V14.5C9 14.2 8.8 14 8.5 14H7C6.7 14 6.5 13.8 6.5 13.5V12C6.5 11.7 6.3 11.5 6 11.5H4.5C4.2 11.5 4 11.3 4 11V9C4 8.7 4.2 8.5 4.5 8.5Z" fill="currentColor"/>
</svg>
