<svg width="20" height="20" viewBox="0 0 20 20" fill="none" xmlns="http://www.w3.org/2000/svg">
<path d="M11.5 15.5L11.5 14C11.5 13.7 11.7 13.5 12 13.5L13.5 13.5C13.8 13.5 14 13.3 14 13L14 11.5C14 11.2 14.2 11 14.5 11L16 11C16.3 11 16.5 10.8 16.5 10.5L16.5 9C16.5 8.7 16.7 8.5 17 8.5L18.5 8.5C18.8 8.5 19 8.3 19 8L19 6C19 5.7 18.8 5.5 18.5 5.5L16.5 5.5C16.2 5.5 16 5.7 16 6L16 7.5C16 7.8 15.8 8 15.5 8L14 8C13.7 8 13.5 8.2 13.5 8.5L13.5 10C13.5 10.3 13.3 10.5 13 10.5L12 10.5C11.7239 10.5 11.5 10.7239 11.5 11L11.5 12.5498C11.5 12.8259 11.2761 13.0498 11 13.0498L9 13.0498C8.72386 13.0498 8.5 12.8259 8.5 12.5498L8.5 11C8.5 10.7239 8.27614 10.5 8 10.5L7 10.5C6.7 10.5 6.5 10.3 6.5 10L6.5 8.5C6.5 8.2 6.3 8 6 8L4.5 8C4.2 8 4 7.8 4 7.5L4 6C4 5.7 3.8 5.5 3.5 5.5L1.5 5.5C1.2 5.5 1 5.7 1 6L1 8C1 8.3 1.2 8.5 1.5 8.5L3 8.5C3.3 8.5 3.5 8.7 3.5 9L3.5 10.5C3.5 10.8 3.7 11 4 11L5.5 11C5.8 11 6 11.2 6 11.5L6 13C6 13.3 6.2 13.5 6.5 13.5L8 13.5C8.3 13.5 8.5 13.7 8.5 14L8.5 15.5C8.5 15.8 8.7 16 9 16L11 16C11.3 16 11.5 15.8 11.5 15.5Z" fill="#1A1C1E"/>
</svg>
