<svg width="20" height="20" viewBox="0 0 20 20" fill="none" xmlns="http://www.w3.org/2000/svg">
<path d="M15.5 8.5H14C13.7 8.5 13.5 8.3 13.5 8V6.5C13.5 6.2 13.3 6 13 6H11.5C11.2 6 11 5.8 11 5.5V4C11 3.7 10.8 3.5 10.5 3.5H9C8.7 3.5 8.5 3.3 8.5 3V1.5C8.5 1.2 8.3 1 8 1H6C5.7 1 5.5 1.2 5.5 1.5V3.5C5.5 3.8 5.7 4 6 4H7.5C7.8 4 8 4.2 8 4.5V6C8 6.3 8.2 6.5 8.5 6.5H10C10.3 6.5 10.5 6.7 10.5 7V8C10.5 8.27614 10.7239 8.5 11 8.5H12.5498C12.8259 8.5 13.0498 8.72386 13.0498 9V11C13.0498 11.2761 12.8259 11.5 12.5498 11.5H11C10.7239 11.5 10.5 11.7239 10.5 12V13C10.5 13.3 10.3 13.5 10 13.5H8.5C8.2 13.5 8 13.7 8 14V15.5C8 15.8 7.8 16 7.5 16H6C5.7 16 5.5 16.2 5.5 16.5V18.5C5.5 18.8 5.7 19 6 19H8C8.3 19 8.5 18.8 8.5 18.5V17C8.5 16.7 8.7 16.5 9 16.5H10.5C10.8 16.5 11 16.3 11 16V14.5C11 14.2 11.2 14 11.5 14H13C13.3 14 13.5 13.8 13.5 13.5V12C13.5 11.7 13.7 11.5 14 11.5H15.5C15.8 11.5 16 11.3 16 11V9C16 8.7 15.8 8.5 15.5 8.5Z" fill="#1A1C1E"/>
</svg>
