<svg width="20" height="20" viewBox="0 0 20 20" fill="none" xmlns="http://www.w3.org/2000/svg">
<path d="M8.5 5.5L8.5 7C8.5 7.3 8.3 7.5 8 7.5L6.5 7.5C6.2 7.5 6 7.7 6 8L6 9.5C6 9.8 5.8 10 5.5 10L4 10C3.7 10 3.5 10.2 3.5 10.5L3.5 12C3.5 12.3 3.3 12.5 3 12.5L1.5 12.5C1.2 12.5 1 12.7 1 13L1 15C1 15.3 1.2 15.5 1.5 15.5L3.5 15.5C3.8 15.5 4 15.3 4 15L4 13.5C4 13.2 4.2 13 4.5 13L6 13C6.3 13 6.5 12.8 6.5 12.5L6.5 11C6.5 10.7 6.7 10.5 7 10.5L8 10.5C8.27614 10.5 8.5 10.2761 8.5 10L8.5 8.4502C8.5 8.17405 8.72386 7.9502 9 7.9502L11 7.9502C11.2761 7.9502 11.5 8.17405 11.5 8.4502L11.5 10C11.5 10.2761 11.7239 10.5 12 10.5L13 10.5C13.3 10.5 13.5 10.7 13.5 11L13.5 12.5C13.5 12.8 13.7 13 14 13L15.5 13C15.8 13 16 13.2 16 13.5L16 15C16 15.3 16.2 15.5 16.5 15.5L18.5 15.5C18.8 15.5 19 15.3 19 15L19 13C19 12.7 18.8 12.5 18.5 12.5L17 12.5C16.7 12.5 16.5 12.3 16.5 12L16.5 10.5C16.5 10.2 16.3 10 16 10L14.5 10C14.2 10 14 9.8 14 9.5L14 8C14 7.7 13.8 7.5 13.5 7.5L12 7.5C11.7 7.5 11.5 7.3 11.5 7L11.5 5.5C11.5 5.2 11.3 5 11 5L9 5C8.7 5 8.5 5.2 8.5 5.5Z" fill="#1A1C1E"/>
</svg>
