<svg width="20" height="20" viewBox="0 0 20 20" fill="none" xmlns="http://www.w3.org/2000/svg">
<path d="M14.3059 16.4271L15.3725 17.4937C15.5858 17.707 15.8694 17.7078 16.0816 17.4957L17.4958 16.0815C17.7079 15.8693 17.7071 15.5857 17.4938 15.3724L16.4272 14.3058L13.583 11.4616L5.47695 3.35553C5.26364 3.14221 4.98 3.14142 4.76787 3.35355L3.35366 4.76777C3.14153 4.9799 3.14232 5.26353 3.35563 5.47685L11.4617 13.5829L14.3059 16.4271Z" fill="currentColor"/>
<path d="M4.42211 14.3058L3.35553 15.3724C3.14221 15.5857 3.14142 15.8693 3.35355 16.0815L4.76777 17.4957C4.9799 17.7078 5.26353 17.707 5.47685 17.4937L6.54343 16.4271L9.38766 13.5829L17.4937 5.47683C17.707 5.26352 17.7078 4.97988 17.4957 4.76775L16.0815 3.35354C15.8693 3.1414 15.5857 3.14219 15.3724 3.35551L7.26634 11.4616L4.42211 14.3058Z" fill="currentColor"/>
</svg>
