<svg width="20" height="20" viewBox="0 0 20 20" fill="none" xmlns="http://www.w3.org/2000/svg">
<path fill-rule="evenodd" clip-rule="evenodd" d="M2 2.5C2 2.22386 2.22386 2 2.5 2H17.5C17.7761 2 18 2.22386 18 2.5V3.5C18 3.77614 18.2239 4 18.5 4H19.5C19.7761 4 20 4.22386 20 4.5V12.5C20 12.7761 19.7761 13 19.5 13H18.5C18.2239 13 18 13.2239 18 13.5V14.5C18 14.7761 17.7761 15 17.5 15H16.5C16.2239 15 16 15.2239 16 15.5V16.5C16 16.7761 15.7761 17 15.5 17H14.5C14.2239 17 14 17.2239 14 17.5V18.5C14 18.7761 13.7761 19 13.5 19H11.5C11.2239 19 11 18.7761 11 18.5V17.5C11 17.2239 10.7761 17 10.5 17H9.5C9.22386 17 9 16.7761 9 16.5V15.5C9 15.2239 8.77614 15 8.5 15H2.5C2.22386 15 2 14.7761 2 14.5V13.5C2 13.2239 1.77614 13 1.5 13H0.5C0.223858 13 0 12.7761 0 12.5V4.5C0 4.22386 0.223858 4 0.5 4H1.5C1.77614 4 2 3.77614 2 3.5V2.5ZM3 11.5C3 11.7761 3.22386 12 3.5 12H11.5C11.7761 12 12 12.2239 12 12.5V15.5C12 15.7761 12.2239 16 12.5 16C12.7761 16 13 15.7761 13 15.5V14.5C13 14.2239 13.2239 14 13.5 14H14.5C14.7761 14 15 13.7761 15 13.5V12.5C15 12.2239 15.2239 12 15.5 12H16.5C16.7761 12 17 11.7761 17 11.5V5.5C17 5.22386 16.7761 5 16.5 5H3.5C3.22386 5 3 5.22386 3 5.5V11.5Z" fill="currentColor"/>
</svg>
