<svg width="20" height="20" viewBox="0 0 20 20" fill="none" xmlns="http://www.w3.org/2000/svg">
<path d="M3.5142 8.5H2.34101C2.10638 8.5 1.94995 8.7 1.94995 9V11C1.94995 11.3 2.10638 11.5 2.34101 11.5H3.5142H6.64269H15.5589C15.7935 11.5 15.95 11.3 15.95 11V9C15.95 8.7 15.7935 8.5 15.5589 8.5H6.64269H3.5142Z" fill="#1A1C1E"/>
<path d="M3.56425 2.5H2.39106C2.15642 2.5 2 2.7 2 3V5C2 5.3 2.15642 5.5 2.39106 5.5H3.56425H6.69274H15.6089C15.8436 5.5 16 5.3 16 5V3C16 2.7 15.8436 2.5 15.6089 2.5H6.69274H3.56425Z" fill="#1A1C1E"/>
<path d="M3.56425 14.5H2.39106C2.15642 14.5 2 14.7 2 15V17C2 17.3 2.15642 17.5 2.39106 17.5H3.56425H6.69274H8.60894C8.84358 17.5 9 17.3 9 17V15C9 14.7 8.84358 14.5 8.60894 14.5H6.69274H3.56425Z" fill="#1A1C1E"/>
</svg>
