<svg width="20" height="20" viewBox="0 0 20 20" fill="none" xmlns="http://www.w3.org/2000/svg">
<path d="M17.625 6.05001L18.725 4.95001C18.925 4.75001 18.925 4.45001 18.725 4.25001L17.325 2.85001C17.125 2.65001 16.825 2.65001 16.625 2.85001L15.525 3.95001C15.325 4.15001 15.025 4.15001 14.825 3.95001L13.725 2.85001C13.525 2.65001 13.225 2.65001 13.025 2.85001L12.025 3.95001C11.825 4.15001 11.525 4.15001 11.325 3.95001L10.225 2.85001C10.025 2.65001 9.725 2.65001 9.525 2.85001L8.425 3.95001C8.225 4.15001 7.925 4.15001 7.725 3.95001L6.625 2.85001C6.425 2.65001 6.125 2.65001 5.925 2.85001L4.525 4.25001C4.325 4.45001 4.325 4.75001 4.525 4.95001L5.925 6.35001C6.125 6.55001 6.425 6.55001 6.625 6.35001L7.725 5.25001C7.925 5.05001 8.225 5.05001 8.425 5.25001L9.525 6.45001C9.725 6.65001 10.025 6.65001 10.225 6.45001L11.325 5.35001C11.525 5.15001 11.825 5.15001 12.025 5.35001L12.725 6.05001C12.925 6.25001 12.925 6.55001 12.725 6.75001L5.325 14.15C5.225 14.25 5.125 14.25 4.925 14.25H1.625C1.325 14.25 1.125 14.45 1.125 14.75V16.75C1.125 17.05 1.325 17.25 1.625 17.25H6.125C6.225 17.25 6.425 17.15 6.525 17.15L14.725 8.95001C14.925 8.75001 15.225 8.75001 15.425 8.95001L16.125 9.65001C16.325 9.85001 16.325 10.15 16.125 10.35L15.025 11.45C14.825 11.65 14.825 11.95 15.025 12.15L16.125 13.25C16.325 13.45 16.325 13.75 16.125 13.95L15.025 15.05C14.825 15.25 14.825 15.55 15.025 15.75L16.425 17.15C16.625 17.35 16.925 17.35 17.125 17.15L18.525 15.75C18.725 15.55 18.725 15.25 18.525 15.05L17.425 13.95C17.225 13.75 17.225 13.45 17.425 13.25L18.525 12.15C18.725 11.95 18.725 11.65 18.525 11.45L17.425 10.35C17.225 10.15 17.225 9.85001 17.425 9.65001L18.525 8.55001C18.725 8.35001 18.725 8.05001 18.525 7.85001L17.425 6.75001C17.425 6.55001 17.425 6.25001 17.625 6.05001Z" fill="#1A1C1E"/>
</svg>
