<svg width="20" height="20" viewBox="0 0 20 20" fill="none" xmlns="http://www.w3.org/2000/svg">
<path d="M17.0251 4.94995L15.9251 6.04995C15.7251 6.24995 15.7251 6.54995 15.9251 6.74995L17.0251 7.84995C17.2251 8.04995 17.2251 8.34995 17.0251 8.54995L15.9251 9.64995C15.7251 9.84995 15.7251 10.15 15.9251 10.35L17.0251 11.4499C17.2251 11.6499 17.2251 11.95 17.0251 12.15L15.9251 13.25C15.7251 13.45 15.7251 13.7499 15.9251 13.9499L17.0251 15.05C17.2251 15.25 17.2251 15.55 17.0251 15.75L15.6251 17.15C15.4251 17.3499 15.1251 17.3499 14.9251 17.15L13.5251 15.75C13.3251 15.55 13.3251 15.25 13.5251 15.05L14.6251 13.9499C14.8251 13.7499 14.8251 13.45 14.6251 13.25L13.5251 12.15C13.3251 11.95 13.3251 11.6499 13.5251 11.4499L14.6251 10.35C14.8251 10.15 14.8251 9.84995 14.6251 9.64995L13.9251 8.94995C13.7251 8.74995 13.4251 8.74995 13.2251 8.94995L5.22515 16.9499C5.02515 17.1499 4.72515 17.1499 4.52515 16.9499L3.12515 15.55C2.92515 15.35 2.92515 15.05 3.12515 14.85L11.1251 6.84995C11.3251 6.64995 11.3251 6.34995 11.1251 6.14995L10.4251 5.44995C10.2251 5.24995 9.92515 5.24995 9.72515 5.44995L8.52515 6.34995C8.32515 6.54995 8.02515 6.54995 7.82515 6.34995L6.72515 5.24995C6.52515 5.04995 6.22515 5.04995 6.02515 5.24995L5.02515 6.34995C4.82515 6.54995 4.52515 6.54995 4.32515 6.34995L2.92515 4.94995C2.72515 4.74995 2.72515 4.44995 2.92515 4.24995L4.32515 2.84995C4.52515 2.64995 4.82515 2.64995 5.02515 2.84995L6.12515 3.94995C6.32515 4.14995 6.62515 4.14995 6.82515 3.94995L7.92515 2.84995C8.12515 2.64995 8.42515 2.64995 8.62515 2.84995L9.72515 3.94995C9.92515 4.14995 10.2251 4.14995 10.4251 3.94995L11.5251 2.84995C11.7251 2.64995 12.0251 2.64995 12.2251 2.84995L13.3251 3.94995C13.5251 4.14995 13.8251 4.14995 14.0251 3.94995L15.1251 2.84995C15.3251 2.64995 15.6251 2.64995 15.8251 2.84995L17.2251 4.24995C17.2251 4.44995 17.2251 4.74995 17.0251 4.94995Z" fill="currentColor"/>
</svg>
