<svg width="20" height="20" viewBox="0 0 20 20" fill="none" xmlns="http://www.w3.org/2000/svg">
<path d="M2.375 6.1L1.275 5C1.075 4.8 1.075 4.5 1.275 4.3L2.675 2.9C2.875 2.7 3.175 2.7 3.375 2.9L4.475 4C4.675 4.2 4.975 4.2 5.175 4L6.275 2.9C6.475 2.7 6.775 2.7 6.975 2.9L8.075 4C8.275 4.2 8.575 4.2 8.775 4L9.875 2.9C10.075 2.7 10.375 2.7 10.575 2.9L11.675 4C11.875 4.2 12.175 4.2 12.375 4L13.475 2.9C13.675 2.7 13.975 2.7 14.175 2.9L15.575 4.3C15.775 4.5 15.775 4.8 15.575 5L14.175 6.4C13.975 6.6 13.675 6.6 13.475 6.4L12.375 5.3C12.175 5.1 11.875 5.1 11.675 5.3L10.475 6.4C10.275 6.6 9.975 6.6 9.775 6.4L8.675 5.3C8.475 5.1 8.175 5.1 7.975 5.3L7.275 6C7.075 6.2 7.075 6.5 7.275 6.7L14.675 14.1C14.775 14.2 14.875 14.2 15.075 14.2H18.375C18.675 14.2 18.875 14.4 18.875 14.7V16.7C18.875 17 18.675 17.2 18.375 17.2H13.875C13.775 17.2 13.575 17.1 13.475 17.1L5.275 8.9C5.075 8.7 4.775 8.7 4.575 8.9L3.875 9.6C3.675 9.8 3.675 10.1 3.875 10.3L4.975 11.4C5.175 11.6 5.175 11.9 4.975 12.1L3.875 13.2C3.675 13.4 3.675 13.7 3.875 13.9L4.975 15C5.175 15.2 5.175 15.5 4.975 15.7L3.575 17.1C3.375 17.3 3.075 17.3 2.875 17.1L1.475 15.7C1.275 15.5 1.275 15.2 1.475 15L2.575 13.9C2.775 13.7 2.775 13.4 2.575 13.2L1.475 12.1C1.275 11.9 1.275 11.6 1.475 11.4L2.575 10.3C2.775 10.1 2.775 9.8 2.575 9.6L1.475 8.5C1.275 8.3 1.275 8 1.475 7.8L2.575 6.7C2.575 6.6 2.575 6.3 2.375 6.1Z" fill="#1A1C1E"/>
</svg>
