<svg width="20" height="20" viewBox="0 0 20 20" fill="none" xmlns="http://www.w3.org/2000/svg">
<path d="M13 10C13 8.34315 11.6569 7 10 7C8.34315 7 7 8.34315 7 10C7 11.6569 8.34315 13 10 13C11.6569 13 13 11.6569 13 10Z" fill="currentColor"/>
<path fill-rule="evenodd" clip-rule="evenodd" d="M4 2.5C4 2.22386 4.22386 2 4.5 2H15.5C15.7761 2 16 2.22386 16 2.5V3.5C16 3.77614 16.2239 4 16.5 4H17.5C17.7761 4 18 4.22386 18 4.5V5.5C18 5.77614 18.2239 6 18.5 6H19.5C19.7761 6 20 6.22386 20 6.5V13.5C20 13.7761 19.7761 14 19.5 14H18.5C18.2239 14 18 14.2239 18 14.5V15.5C18 15.7761 17.7761 16 17.5 16H16.5C16.2239 16 16 16.2239 16 16.5V17.5C16 17.7761 15.7761 18 15.5 18H4.5C4.22386 18 4 17.7761 4 17.5V16.5C4 16.2239 3.77614 16 3.5 16H2.5C2.22386 16 2 15.7761 2 15.5V14.5C2 14.2239 1.77614 14 1.5 14H0.5C0.223858 14 0 13.7761 0 13.5V6.5C0 6.22386 0.223858 6 0.5 6H1.5C1.77614 6 2 5.77614 2 5.5V4.5C2 4.22386 2.22386 4 2.5 4H3.5C3.77614 4 4 3.77614 4 3.5V2.5ZM5 14.5C5 14.7761 5.22386 15 5.5 15H14.5C14.7761 15 15 14.7761 15 14.5V13.5C15 13.2239 15.2239 13 15.5 13H16.5C16.7761 13 17 12.7761 17 12.5V7.5C17 7.22386 16.7761 7 16.5 7H15.5C15.2239 7 15 6.77614 15 6.5V5.5C15 5.22386 14.7761 5 14.5 5H5.5C5.22386 5 5 5.22386 5 5.5V6.5C5 6.77614 4.77614 7 4.5 7H3.5C3.22386 7 3 7.22386 3 7.5V12.5C3 12.7761 3.22386 13 3.5 13H4.5C4.77614 13 5 13.2239 5 13.5V14.5Z" fill="currentColor"/>
</svg>
