<svg width="32" height="32" viewBox="0 0 32 32" fill="none" xmlns="http://www.w3.org/2000/svg">
<path d="M15.5 2C23.5081 2 30 8.49188 30 16.5C30 23.9134 24.4362 30.0266 17.2566 30.8938V20.931H21.1788L21.9929 16.5H17.2566V14.933C17.2566 12.7127 18.0826 11.7879 20.1952 11.6981C20.3104 11.6932 20.4295 11.6908 20.5525 11.6908C20.8296 11.6908 21.0864 11.6933 21.3172 11.6984C21.7015 11.7068 22.0137 11.7223 22.2276 11.7448L22.2281 7.72808C21.7493 7.59507 20.76 7.4621 19.9052 7.40161C19.6022 7.38015 19.316 7.3678 19.0755 7.3678C14.2302 7.3678 11.9967 9.65538 11.9967 14.5907V16.5H9.00713L9.00669 20.931H11.9967V30.5729C5.68125 29.0058 1 23.3001 1 16.5C1 8.49188 7.49188 2 15.5 2Z" fill="currentColor"/>
</svg>
