<svg width="32" height="32" viewBox="0 0 32 32" fill="none" xmlns="http://www.w3.org/2000/svg">
<path fill-rule="evenodd" clip-rule="evenodd" d="M15.512 2C7.48724 2 1 8.64581 1 16.8676C1 23.4397 5.1566 29.0028 10.9229 30.9718C11.6438 31.1198 11.9079 30.6519 11.9079 30.2583C11.9079 29.9136 11.8841 28.7322 11.8841 27.5012C7.84726 28.3875 7.00661 25.7289 7.00661 25.7289C6.35786 24.0058 5.39661 23.5629 5.39661 23.5629C4.07534 22.6521 5.49286 22.6521 5.49286 22.6521C6.95849 22.7506 7.72755 24.1783 7.72755 24.1783C9.02476 26.4427 11.1151 25.8029 11.956 25.4089C12.076 24.4489 12.4607 23.7843 12.8692 23.4152C9.64945 23.0705 6.26191 21.7906 6.26191 16.0797C6.26191 14.4551 6.83819 13.126 7.75131 12.0923C7.60725 11.7231 7.10256 10.1967 7.89568 8.15371C7.89568 8.15371 9.121 7.7598 11.8838 9.67983C13.0667 9.35439 14.2866 9.18883 15.512 9.18744C16.7373 9.18744 17.9864 9.35993 19.1398 9.67983C21.903 7.7598 23.1283 8.15371 23.1283 8.15371C23.9214 10.1967 23.4165 11.7231 23.2724 12.0923C24.2096 13.126 24.7621 14.4551 24.7621 16.0797C24.7621 21.7906 21.3745 23.0458 18.1308 23.4152C18.6595 23.8828 19.1158 24.7688 19.1158 26.172C19.1158 28.1657 19.092 29.7659 19.092 30.258C19.092 30.6519 19.3564 31.1198 20.077 30.9721C25.8433 29.0025 29.9999 23.4397 29.9999 16.8676C30.0237 8.64581 23.5127 2 15.512 2Z" fill="currentColor"/>
</svg>
