<svg width="32" height="32" viewBox="0 0 32 32" fill="none" xmlns="http://www.w3.org/2000/svg">
<path d="M3.99644 14.9121V17.0952C3.99644 18.1975 3.10044 19.0935 1.99822 19.0935C0.896 19.0935 0 18.1975 0 17.0881V14.905C0 13.8028 0.896 12.9068 1.99822 12.9068C3.10044 12.9068 3.99644 13.8028 3.99644 14.9121Z" fill="currentColor"/>
<path d="M28.002 14.9693C28.002 14.948 28.002 14.9337 28.002 14.9124C28.002 13.8102 28.898 12.9142 30.0002 12.9142C31.1024 12.9142 31.9984 13.8102 31.9984 14.9124C31.9984 14.9337 31.9984 14.948 31.9984 14.9693V17.1524C31.97 18.2333 31.0882 19.0937 30.0002 19.0937C28.9122 19.0937 28.0304 18.2262 28.002 17.1524V14.9693Z" fill="currentColor"/>
<path d="M10.9076 21.4545V23.6376C10.9076 24.7399 10.0116 25.6359 8.90936 25.6359C7.80713 25.6359 6.91113 24.7399 6.91113 23.6376V21.4545C6.91113 20.3523 7.80713 19.4563 8.90936 19.4563C10.0116 19.4563 10.9076 20.3523 10.9076 21.4545ZM10.9076 8.36297V15.5025C10.8862 16.5834 9.99736 17.4581 8.90936 17.4581C7.82136 17.4581 6.93247 16.5905 6.91113 15.5025V8.36297C6.91113 7.26075 7.80713 6.36475 8.90936 6.36475C10.0116 6.36475 10.9076 7.26075 10.9076 8.36297Z" fill="currentColor"/>
<path d="M21.0928 10.5461C21.0928 11.6483 21.9888 12.5443 23.091 12.5443C24.1932 12.5443 25.0892 11.6483 25.0892 10.5461V8.36297C25.0892 7.26075 24.1932 6.36475 23.091 6.36475C21.9888 6.36475 21.0928 7.26075 21.0928 8.36297V10.5461Z" fill="currentColor"/>
<path d="M14.002 4.18133C14.002 5.28356 14.898 6.17956 16.0002 6.17956C17.1024 6.17956 17.9984 5.28356 17.9984 4.18133V1.99822C17.9984 0.896 17.1024 0 16.0002 0C14.898 0 14.002 0.896 14.002 1.99822V4.18133ZM14.002 27.8187C14.002 26.7164 14.898 25.8204 16.0002 25.8204C17.1024 25.8204 17.9984 26.7164 17.9984 27.8187V30.0018C17.9984 31.104 17.1024 32 16.0002 32C14.898 32 14.002 31.104 14.002 30.0018V27.8187Z" fill="currentColor"/>
<path d="M21.0928 16.548C21.0928 15.4458 21.9888 14.5498 23.091 14.5498C24.1932 14.5498 25.0892 15.4458 25.0892 16.548V23.6378C25.0892 24.74 24.1932 25.636 23.091 25.636C21.9888 25.636 21.0928 24.74 21.0928 23.6378V16.548Z" fill="currentColor"/>
<path d="M17.9984 10.1837V21.8175C17.9984 22.9197 17.1024 23.8157 16.0002 23.8157C14.898 23.8157 14.002 22.9197 14.002 21.8175V10.1837C14.002 9.08152 14.898 8.18552 16.0002 8.18552C17.1024 8.18552 17.9984 9.0744 17.9984 10.1837Z" fill="currentColor"/>
</svg>
