<svg width="20" height="20" viewBox="0 0 20 20" fill="none" xmlns="http://www.w3.org/2000/svg">
<path d="M14 2.5C14 2.22386 13.7761 2 13.5 2H6.5C6.22386 2 6 2.22386 6 2.5V3.5C6 3.77614 5.77614 4 5.5 4H4.5C4.22386 4 4 4.22386 4 4.5V5.5C4 5.77614 3.77614 6 3.5 6H2.5C2.22386 6 2 6.22386 2 6.5V11.5C2 11.7761 1.77614 12 1.5 12C1.22386 12 1 12.2239 1 12.5V17.5C1 17.7761 1.22386 18 1.5 18H6.5C6.77614 18 7 17.7761 7 17.5V12.5C7 12.2239 6.77614 12 6.5 12H5.5C5.22386 12 5 11.7761 5 11.5V7.5C5 7.22386 5.22386 7 5.5 7H6.5C6.77614 7 7 6.77614 7 6.5V5.5C7 5.22386 7.22386 5 7.5 5H12.5C12.7761 5 13 5.22386 13 5.5V6.5C13 6.77614 13.2239 7 13.5 7H14.5C14.7761 7 15 7.22386 15 7.5V11.5C15 11.7761 14.7761 12 14.5 12H13.5C13.2239 12 13 12.2239 13 12.5V17.5C13 17.7761 13.2239 18 13.5 18H18.5C18.7761 18 19 17.7761 19 17.5V12.5C19 12.2239 18.7761 12 18.5 12C18.2239 12 18 11.7761 18 11.5V6.5C18 6.22386 17.7761 6 17.5 6H16.5C16.2239 6 16 5.77614 16 5.5V4.5C16 4.22386 15.7761 4 15.5 4H14.5C14.2239 4 14 3.77614 14 3.5V2.5Z" fill="#1A1C1E"/>
</svg>
