<svg width="32" height="32" viewBox="0 0 32 32" fill="none" xmlns="http://www.w3.org/2000/svg">
<rect width="32" height="32" fill="#1E1E1E"/>
<rect x="-932" y="-305" width="2704" height="1390" rx="12" fill="#F2F4F7"/>
<rect x="-204" y="-269" width="480" height="831" rx="16" fill="#FAFBFD"/>
<rect x="-187.5" y="-7.5" width="447" height="107" rx="4.5" stroke="#9747FF" stroke-dasharray="10 5"/>
<path d="M23.994 9.77765C23.0006 9.7796 22.1929 8.97525 22.1909 7.98185C22.189 6.98845 22.9933 6.18071 23.9872 6.17877C24.9811 6.17683 25.7888 6.98164 25.7907 7.97505C25.7922 8.96845 24.9879 9.77571 23.994 9.77765Z" fill="#1A1C1E"/>
<path fill-rule="evenodd" clip-rule="evenodd" d="M16.0143 23.7013C11.7614 23.7095 8.30638 20.2686 8.29813 16.0146C8.28985 11.7615 11.7317 8.30602 15.9847 8.29775C20.2387 8.28949 23.6941 11.7324 23.7024 15.9849C23.7107 20.239 20.2678 23.693 16.0143 23.7013ZM15.99 11.0004C13.2296 11.0053 10.9949 13.2482 10.9998 16.0092C11.0051 18.7707 13.2485 21.0049 16.009 20.9996C18.7705 20.9942 21.0051 18.7518 20.9997 15.9903C20.9944 13.2288 18.751 10.9951 15.99 11.0004Z" fill="#1A1C1E"/>
<path fill-rule="evenodd" clip-rule="evenodd" d="M6.149 1.8081C7.10158 1.43484 8.19167 1.1792 9.78769 1.10387C11.3876 1.02709 11.8984 1.00959 15.9711 1.00182C20.0448 0.994043 20.5555 1.00959 22.1554 1.08054C23.752 1.14955 24.8426 1.40131 25.7971 1.77068C26.7846 2.15122 27.6225 2.66348 28.4574 3.49503C29.2924 4.32756 29.8066 5.16253 30.192 6.14863C30.5647 7.10218 30.8204 8.19132 30.8962 9.78834C30.972 11.3878 30.9905 11.8981 30.9982 15.9713C31.006 20.0441 30.9895 20.5553 30.9195 22.1563C30.85 23.7518 30.5988 24.8429 30.2294 25.7969C29.8479 26.7845 29.3366 27.6224 28.505 28.4573C27.6735 29.2928 26.8376 29.8065 25.8515 30.1924C24.8979 30.5647 23.8088 30.8203 22.2128 30.8966C20.6129 30.9724 20.1021 30.9904 16.028 30.9982C11.9557 31.006 11.445 30.9904 9.84506 30.9199C8.24853 30.85 7.15746 30.5987 6.20344 30.2298C5.21589 29.8478 4.37803 29.337 3.54307 28.505C2.70764 27.6729 2.19298 26.8375 1.80807 25.8514C1.43482 24.8983 1.18013 23.8087 1.10384 22.2131C1.02754 20.6127 1.00957 20.1014 1.0018 16.0287C0.993999 11.9554 1.01005 11.4451 1.08002 9.84519C1.1505 8.24819 1.4008 7.15758 1.77016 6.20257C2.15166 5.21549 2.66293 4.3781 3.49546 3.54266C4.327 2.70771 5.16291 2.19252 6.149 1.8081ZM7.17692 27.7099C7.70617 27.9135 8.50028 28.1565 9.96268 28.2202C11.5451 28.2887 12.0189 28.3038 16.0231 28.296C20.0287 28.2887 20.5026 28.2717 22.0845 28.1973C23.5454 28.1278 24.3395 27.8819 24.8673 27.6758C25.5677 27.4022 26.0663 27.0751 26.5902 26.5507C27.1141 26.0244 27.4383 25.5243 27.7095 24.8239C27.9136 24.2942 28.1561 23.4996 28.2198 22.0372C28.2893 20.4557 28.3038 19.9814 28.2961 15.9762C28.2888 11.972 28.2718 11.4976 28.1965 9.91567C28.1274 8.45424 27.882 7.6601 27.6754 7.13279C27.4018 6.43149 27.0757 5.93382 26.5499 5.40941C26.024 4.88501 25.5239 4.56181 24.8226 4.29062C24.2943 4.08602 23.4992 3.84398 22.0378 3.78032C20.4554 3.71082 19.9811 3.69671 15.976 3.7045C11.9718 3.71227 11.4979 3.72831 9.91601 3.80316C8.45412 3.87265 7.66096 4.11808 7.13218 4.32465C6.43234 4.59826 5.93371 4.9234 5.40932 5.44975C4.88588 5.97609 4.56172 6.47522 4.29055 7.17702C4.08741 7.7058 3.84293 8.5009 3.78025 9.96233C3.71122 11.5448 3.69666 12.0191 3.70443 16.0233C3.71173 20.0285 3.72873 20.5029 3.80309 22.0838C3.87162 23.5462 4.11898 24.3394 4.32457 24.8687C4.59818 25.568 4.9243 26.0667 5.44966 26.5911C5.97601 27.1135 6.4761 27.4387 7.17692 27.7099Z" fill="#1A1C1E"/>
</svg>
