<svg width="32" height="32" viewBox="0 0 32 32" fill="none" xmlns="http://www.w3.org/2000/svg">
<path d="M27.0069 3H3.99313C3.46452 3 2.95756 3.20999 2.58377 3.58377C2.20999 3.95756 2 4.46452 2 4.99313V28.0069C2 28.5355 2.20999 29.0424 2.58377 29.4162C2.95756 29.79 3.46452 30 3.99313 30H27.0069C27.5355 30 28.0424 29.79 28.4162 29.4162C28.79 29.0424 29 28.5355 29 28.0069V4.99313C29 4.46452 28.79 3.95756 28.4162 3.58377C28.0424 3.20999 27.5355 3 27.0069 3ZM10.0475 26.0006H5.98813V13.1063H10.0475V26.0006ZM8.015 11.3194C7.55453 11.3168 7.10515 11.1778 6.72358 10.9201C6.342 10.6624 6.04532 10.2973 5.87099 9.87115C5.69665 9.44495 5.65248 8.97667 5.74404 8.52539C5.83559 8.07411 6.05878 7.66006 6.38542 7.3355C6.71207 7.01095 7.12754 6.79043 7.5794 6.70177C8.03126 6.61311 8.49925 6.66029 8.92432 6.83736C9.34939 7.01442 9.71248 7.31344 9.96777 7.69666C10.2231 8.07989 10.3591 8.53015 10.3588 8.99063C10.3631 9.29891 10.3053 9.60492 10.1889 9.89041C10.0725 10.1759 9.89973 10.435 9.68102 10.6523C9.46231 10.8696 9.20208 11.0407 8.91585 11.1553C8.62962 11.2699 8.32325 11.3257 8.015 11.3194ZM25.01 26.0119H20.9525V18.9675C20.9525 16.89 20.0694 16.2488 18.9294 16.2488C17.7256 16.2488 16.5444 17.1563 16.5444 19.02V26.0119H12.485V13.1156H16.3888V14.9025H16.4413C16.8331 14.1094 18.2056 12.7538 20.3 12.7538C22.565 12.7538 25.0119 14.0981 25.0119 18.0356L25.01 26.0119Z" fill="currentColor"/>
</svg>
