<svg width="20" height="20" viewBox="0 0 20 20" fill="none" xmlns="http://www.w3.org/2000/svg">
<path d="M8.5142 8.5H7.34101C7.10638 8.5 6.94995 8.7 6.94995 9V11C6.94995 11.3 7.10638 11.5 7.34101 11.5H8.5142H14.6427H15.5589C15.7935 11.5 15.95 11.3 15.95 11V9C15.95 8.7 15.7935 8.5 15.5589 8.5H14.6427H8.5142Z" fill="currentColor"/>
<path d="M11.5642 2.5H10.3911C10.1564 2.5 10 2.7 10 3V5C10 5.3 10.1564 5.5 10.3911 5.5H11.5642H14.6927H15.6089C15.8436 5.5 16 5.3 16 5V3C16 2.7 15.8436 2.5 15.6089 2.5H14.6927H11.5642Z" fill="currentColor"/>
<path d="M3.56425 14.5H2.39106C2.15642 14.5 2 14.7 2 15V17C2 17.3 2.15642 17.5 2.39106 17.5H3.56425H6.69274H15.6089C15.8436 17.5 16 17.3 16 17V15C16 14.7 15.8436 14.5 15.6089 14.5H6.69274H3.56425Z" fill="currentColor"/>
<path d="M7.56809 6.82803C8.19475 6.43636 8.19475 5.5237 7.56808 5.13203L3.53 2.60823C2.86395 2.19194 2 2.67079 2 3.45622V8.50383C2 9.28927 2.86395 9.76811 3.53 9.35183L7.56809 6.82803Z" fill="currentColor"/>
</svg>
