<svg width="20" height="20" viewBox="0 0 20 20" fill="none" xmlns="http://www.w3.org/2000/svg">
<path d="M18.9053 6.85L13.2053 1.15C13.0053 0.95 12.7053 0.95 12.5053 1.15L11.4053 2.25C11.2053 2.45 10.9053 2.45 10.7053 2.25L9.60532 1.15C9.40532 0.95 9.10533 0.95 8.90533 1.15L3.20532 6.85C3.00532 7.05 3.00532 7.35 3.20532 7.55L4.30532 8.65C4.50532 8.85 4.50532 9.15 4.30532 9.35L3.20532 10.45C3.00532 10.65 3.00532 10.95 3.20532 11.15L4.60532 12.55C4.80532 12.75 4.80532 13.05 4.60532 13.25L1.10532 16.75C0.905322 16.95 0.905322 17.25 1.10532 17.45L2.50532 18.85C2.70532 19.05 3.00532 19.05 3.20532 18.85L6.70532 15.35C6.90532 15.15 7.20533 15.15 7.40533 15.35L8.80532 16.75C9.00532 16.95 9.30532 16.95 9.50532 16.75L10.6053 15.65C10.8053 15.45 11.1053 15.45 11.3053 15.65L12.4053 16.75C12.6053 16.95 12.9053 16.95 13.1053 16.75L18.8053 11.05C19.0053 10.85 19.0053 10.55 18.8053 10.35L17.7053 9.25C17.5053 9.05 17.5053 8.75 17.7053 8.55L18.8053 7.45C19.1053 7.35 19.1053 7.05 18.9053 6.85ZM10.7053 14.25L5.80532 9.35C5.60532 9.15 5.60532 8.85 5.80532 8.65L10.7053 3.75C10.9053 3.55 11.2053 3.55 11.4053 3.75L16.3053 8.65C16.5053 8.85 16.5053 9.15 16.3053 9.35L11.4053 14.25C11.3053 14.45 10.9053 14.45 10.7053 14.25Z" fill="currentColor"/>
</svg>
