<svg width="32" height="32" viewBox="0 0 32 32" fill="none" xmlns="http://www.w3.org/2000/svg">
<path d="M15.4999 2C7.492 2 1 8.49198 1 16.5001C1 24.5085 7.492 31 15.4999 31C23.5087 31 30 24.5085 30 16.5001C30 8.4925 23.5087 2.00069 15.4997 2.00069L15.4999 2ZM22.1495 22.9133C21.8898 23.3392 21.3322 23.4743 20.9063 23.2128C17.5018 21.1333 13.2161 20.6623 8.16884 21.8155C7.68247 21.9263 7.19765 21.6216 7.08684 21.135C6.9755 20.6485 7.27903 20.1636 7.76661 20.0528C13.29 18.7904 18.0279 19.3342 21.8499 21.6701C22.2759 21.9315 22.4109 22.4873 22.1495 22.9133ZM23.9242 18.9646C23.597 19.497 22.9009 19.665 22.3694 19.3377C18.4718 16.9415 12.5306 16.2476 7.92054 17.647C7.32266 17.8276 6.69119 17.4907 6.50974 16.8938C6.32966 16.2959 6.66678 15.6657 7.26362 15.4839C12.5296 13.886 19.0761 14.66 23.552 17.4105C24.0835 17.7378 24.2515 18.4337 23.9242 18.9646ZM24.0766 14.8532C19.4034 12.0774 11.6931 11.8222 7.23124 13.1764C6.51476 13.3937 5.75706 12.9893 5.53993 12.2728C5.32281 11.5559 5.72693 10.7987 6.44394 10.5809C11.5658 9.02598 20.0804 9.3264 25.4608 12.5205C26.1066 12.903 26.3178 13.7354 25.9352 14.379C25.5543 15.0234 24.7197 15.2359 24.0773 14.8532H24.0766Z" fill="currentColor"/>
</svg>
