<svg width="32" height="32" viewBox="0 0 32 32" fill="none" xmlns="http://www.w3.org/2000/svg">
<path d="M22.3686 11.2711C24.427 12.7472 26.9475 13.6158 29.67 13.6158V9.47706C28.1503 9.1522 26.805 8.35522 25.7935 7.24668C24.0621 6.1624 22.8147 4.37362 22.4489 2.27997H18.6321V23.2808C18.6235 25.7291 16.6437 27.7115 14.2022 27.7115C12.7634 27.7115 11.4853 27.0232 10.6758 25.9571C9.23025 25.2249 8.23897 23.7218 8.23897 21.9859C8.23897 19.5308 10.2221 17.5403 12.6688 17.5403C13.1376 17.5403 13.5894 17.6136 14.0133 17.7485V13.5645C8.75895 13.6735 4.5332 17.982 4.5332 23.2809C4.5332 25.9261 5.58551 28.3241 7.29342 30.0762C8.8342 31.1145 10.689 31.72 12.6846 31.72C18.0329 31.72 22.3687 27.3687 22.3687 22.0012V11.2711H22.3686Z" fill="currentColor"/>
<path d="M29.6701 9.47707V8.35798C28.2997 8.36007 26.9562 7.97492 25.7935 7.24658C26.8228 8.37742 28.1781 9.15716 29.6701 9.47707ZM22.4489 2.27998C22.414 2.07988 22.3872 1.87847 22.3686 1.67629V1H17.0987V22.0011C17.0903 24.449 15.1106 26.4314 12.6688 26.4314C11.952 26.4314 11.2752 26.2606 10.6758 25.9572C11.4853 27.0233 12.7635 27.7114 14.2022 27.7114C16.6435 27.7114 18.6236 25.7292 18.6321 23.281V2.27998H22.4489ZM14.0135 13.5645V12.3732C13.5732 12.3128 13.1292 12.2825 12.6847 12.2827C7.33589 12.2826 3 16.6339 3 22.0011C3 25.366 4.70408 28.3316 7.29356 30.076C5.58565 28.324 4.53334 25.9259 4.53334 23.2808C4.53334 17.982 8.75898 13.6735 14.0135 13.5645Z" fill="currentColor"/>
</svg>
