<svg width="32" height="32" viewBox="0 0 32 32" fill="none" xmlns="http://www.w3.org/2000/svg">
<g clip-path="url(#clip0_2014_16817)">
<path fill-rule="evenodd" clip-rule="evenodd" d="M30.3282 6.44526C30.8247 6.94494 31.1812 7.56627 31.3622 8.24705C32.0313 10.7598 32.0312 15.9998 32.0312 15.9998C32.0312 15.9998 32.0313 21.2398 31.3622 23.7525C31.1812 24.4333 30.8247 25.0546 30.3282 25.5543C29.8317 26.054 29.2127 26.4145 28.5331 26.5998C26.0312 27.2725 16.0312 27.2725 16.0312 27.2725C16.0312 27.2725 6.03125 27.2725 3.52943 26.5998C2.84982 26.4145 2.2308 26.054 1.7343 25.5543C1.2378 25.0546 0.881257 24.4333 0.700341 23.7525C0.03125 21.2398 0.03125 15.9998 0.03125 15.9998C0.03125 15.9998 0.03125 10.7598 0.700341 8.24705C0.881257 7.56627 1.2378 6.94494 1.7343 6.44526C2.2308 5.94557 2.84982 5.58505 3.52943 5.39978C6.03125 4.72705 16.0312 4.72705 16.0312 4.72705C16.0312 4.72705 26.0312 4.72705 28.5331 5.39978C29.2127 5.58505 29.8317 5.94557 30.3282 6.44526ZM21.1234 15.9999L12.7598 11.2417V20.7581L21.1234 15.9999Z" fill="currentColor"/>
</g>
<defs>
<clipPath id="clip0_2014_16817">
<rect width="32" height="32" fill="white"/>
</clipPath>
</defs>
</svg>
