<svg width="425" height="400" viewBox="0 0 425 400" fill="none" xmlns="http://www.w3.org/2000/svg">
<g clip-path="url(#clip0_2692_18457)">
<path d="M410.264 166.69H404.341C403.418 166.69 402.669 165.942 402.669 165.018V126.287C402.669 125.364 401.921 124.615 400.998 124.615H395.075C394.152 124.615 393.404 123.867 393.404 122.944V106.088C393.404 105.164 392.655 104.416 391.732 104.416H385.809C384.886 104.416 384.138 103.668 384.138 102.744V85.8883C384.138 84.9647 383.39 84.2165 382.466 84.2165H376.544C375.62 84.2165 374.872 83.4684 374.872 82.5447V74.9506C374.872 74.027 374.124 73.2788 373.2 73.2788H367.278C366.354 73.2788 365.606 72.5307 365.606 71.607V65.6847C365.606 64.7611 364.858 64.0129 363.934 64.0129H358.012C357.088 64.0129 356.34 63.2648 356.34 62.3411V56.4188C356.34 55.4951 355.592 54.747 354.668 54.747H349.582C348.658 54.747 347.91 53.9989 347.91 53.0752V47.9888C347.91 47.0651 347.162 46.317 346.238 46.317H340.316C339.392 46.317 338.644 45.5689 338.644 44.6452V38.7229C338.644 37.7992 337.896 37.0511 336.972 37.0511H329.378C328.454 37.0511 327.706 36.303 327.706 35.3793V29.457C327.706 28.5333 326.958 27.7852 326.035 27.7852H309.179C308.255 27.7852 307.507 27.0371 307.507 26.1134V20.1911C307.507 19.2674 306.759 18.5193 305.835 18.5193H288.979C288.056 18.5193 287.307 17.7712 287.307 16.8475V10.9252C287.307 10.0015 286.559 9.25337 285.636 9.25337H246.904C245.981 9.25337 245.233 8.50524 245.233 7.58158V1.67179C245.233 0.748127 244.484 0 243.561 0H181.287C180.363 0 179.615 0.748127 179.615 1.67179V7.59412C179.615 8.51778 178.867 9.26591 177.943 9.26591H139.212C138.288 9.26591 137.54 10.014 137.54 10.9377V16.86C137.54 17.7837 136.792 18.5318 135.868 18.5318H119.012C118.089 18.5318 117.34 19.2799 117.34 20.2036V26.1259C117.34 27.0496 116.592 27.7977 115.669 27.7977H98.8128C97.8892 27.7977 97.141 28.5459 97.141 29.4695V35.3918C97.141 36.3155 96.3929 37.0636 95.4693 37.0636H87.8751C86.9515 37.0636 86.2033 37.8118 86.2033 38.7354V44.6577C86.2033 45.5814 85.4552 46.3295 84.5316 46.3295H78.6092C77.6856 46.3295 76.9374 47.0777 76.9374 48.0013V53.0878C76.9374 54.0114 76.1893 54.7596 75.2656 54.7596H70.1792C69.2555 54.7596 68.5074 55.5077 68.5074 56.4314V62.3537C68.5074 63.2773 67.7593 64.0255 66.8356 64.0255H60.9133C59.9896 64.0255 59.2415 64.7736 59.2415 65.6973V71.6196C59.2415 72.5433 58.4934 73.2914 57.5697 73.2914H51.6474C50.7237 73.2914 49.9756 74.0395 49.9756 74.9632V82.5573C49.9756 83.4809 49.2275 84.2291 48.3038 84.2291H42.3815C41.4578 84.2291 40.7097 84.9772 40.7097 85.9009V102.757C40.7097 103.68 39.9616 104.429 39.0379 104.429H33.1156C32.1919 104.429 31.4438 105.177 31.4438 106.1V122.956C31.4438 123.88 30.6957 124.628 29.772 124.628H23.8497C22.926 124.628 22.1779 125.376 22.1779 126.3V165.031C22.1779 165.955 21.4297 166.703 20.5061 166.703H14.6047C13.681 166.703 12.9329 167.451 12.9329 168.375V230.649C12.9329 231.572 13.681 232.321 14.6047 232.321H20.527C21.4506 232.321 22.1988 233.069 22.1988 233.992V272.724C22.1988 273.647 22.9469 274.395 23.8706 274.395H29.7929C30.7166 274.395 31.4647 275.144 31.4647 276.067V292.923C31.4647 293.847 32.2128 294.595 33.1365 294.595H39.0588C39.9825 294.595 40.7306 295.343 40.7306 296.267V313.122C40.7306 314.046 41.4787 314.794 42.4024 314.794H48.3247C49.2484 314.794 49.9965 315.542 49.9965 316.466V324.06C49.9965 324.984 50.7446 325.732 51.6683 325.732H57.5906C58.5143 325.732 59.2624 326.48 59.2624 327.404V333.326C59.2624 334.25 60.0105 334.998 60.9342 334.998H66.8565C67.7802 334.998 68.5283 335.746 68.5283 336.67V342.592C68.5283 343.516 69.2764 344.264 70.2001 344.264H75.2865C76.2102 344.264 76.9583 345.012 76.9583 345.936V351.022C76.9583 351.946 77.7065 352.694 78.6301 352.694H84.5525C85.4761 352.694 86.2242 353.442 86.2242 354.366V360.288C86.2242 361.212 86.9724 361.96 87.896 361.96H95.4902C96.4138 361.96 97.1619 362.708 97.1619 363.632V369.554C97.1619 370.478 97.9101 371.226 98.8337 371.226H115.69C116.613 371.226 117.361 371.974 117.361 372.897V378.82C117.361 379.743 118.109 380.492 119.033 380.492H135.889C136.813 380.492 137.561 381.24 137.561 382.163V388.086C137.561 389.009 138.309 389.757 139.233 389.757H177.964C178.888 389.757 179.636 390.506 179.636 391.429V397.352C179.636 398.275 180.384 399.023 181.307 399.023H243.582C244.505 399.023 245.253 398.275 245.253 397.352V391.429C245.253 390.506 246.002 389.757 246.925 389.757H285.657C286.58 389.757 287.328 389.009 287.328 388.086V382.163C287.328 381.24 288.076 380.492 289 380.492H305.856C306.78 380.492 307.528 379.743 307.528 378.82V372.897C307.528 371.974 308.276 371.226 309.2 371.226H326.055C326.979 371.226 327.727 370.478 327.727 369.554V363.632C327.727 362.708 328.475 361.96 329.399 361.96H336.993C337.917 361.96 338.665 361.212 338.665 360.288V354.366C338.665 353.442 339.413 352.694 340.337 352.694H346.259C347.183 352.694 347.931 351.946 347.931 351.022V345.936C347.931 345.012 348.679 344.264 349.603 344.264H354.689C355.613 344.264 356.361 343.516 356.361 342.592V336.67C356.361 335.746 357.109 334.998 358.033 334.998H363.955C364.879 334.998 365.627 334.25 365.627 333.326V327.404C365.627 326.48 366.375 325.732 367.299 325.732H373.221C374.145 325.732 374.893 324.984 374.893 324.06V316.466C374.893 315.542 375.641 314.794 376.564 314.794H382.487C383.41 314.794 384.159 314.046 384.159 313.122V296.267C384.159 295.343 384.907 294.595 385.83 294.595H391.753C392.676 294.595 393.424 293.847 393.424 292.923V276.067C393.424 275.144 394.173 274.395 395.096 274.395H401.019C401.942 274.395 402.69 273.647 402.69 272.724V233.992C402.69 233.069 403.439 232.321 404.362 232.321H410.284C411.208 232.321 411.956 231.572 411.956 230.649V168.375C411.956 167.451 411.208 166.703 410.284 166.703L410.264 166.69Z" fill="#F2F4F7"/>
<path d="M212.572 164.163C131.626 164.163 95.3863 170.173 83.0667 171.471C82.5274 171.528 82.4441 172.282 82.9571 172.453C122.13 185.369 173.956 186.825 212.567 186.825C251.179 186.825 303.004 185.369 342.177 172.453C342.695 172.282 342.607 171.528 342.068 171.471C329.752 170.173 293.508 164.163 212.563 164.163H212.572Z" fill="#F2F4F7" stroke="#1A1C1E" stroke-linecap="round" stroke-linejoin="round"/>
<path d="M342.186 172.453C336.789 174.233 331.156 175.79 325.351 177.158C323.83 177.522 322.304 177.868 320.756 178.201C313.312 179.806 305.622 181.117 297.822 182.186C296.297 182.397 294.767 182.594 293.237 182.783C291.781 182.971 290.317 183.147 288.852 183.309C262.359 186.321 235.203 186.821 212.576 186.821C189.949 186.821 162.794 186.325 136.3 183.309C132.012 182.822 127.738 182.265 123.507 181.643C121.972 181.415 120.442 181.182 118.921 180.928C106.308 178.881 94.1239 176.127 82.9661 172.453C82.4531 172.283 82.532 171.528 83.0713 171.471C86.6839 171.09 92.3395 170.305 100.573 169.389C102.02 169.227 103.545 169.06 105.154 168.894C110.376 168.35 116.461 167.776 123.507 167.219C124.993 167.1 126.519 166.986 128.093 166.872C138.229 166.136 150.185 165.456 164.201 164.965C164.394 164.961 164.591 164.952 164.793 164.943C166.297 164.891 167.822 164.843 169.379 164.799C170.882 164.75 172.408 164.707 173.96 164.663C178.362 164.544 182.948 164.448 187.722 164.365C189.23 164.343 190.76 164.316 192.308 164.299C195.294 164.259 198.354 164.224 201.484 164.207C202.992 164.194 204.522 164.185 206.066 164.176C207.583 164.172 209.108 164.172 210.651 164.172C211.287 164.167 211.927 164.167 212.563 164.167C215.027 164.167 217.451 164.172 219.823 164.185C224.576 164.202 229.162 164.251 233.585 164.312C235.137 164.33 236.663 164.351 238.167 164.378C239.719 164.408 241.244 164.435 242.753 164.465C245.896 164.531 248.956 164.606 251.929 164.689C253.481 164.729 255.006 164.777 256.515 164.825C258.005 164.873 259.474 164.917 260.925 164.97C265.818 165.141 270.465 165.338 274.867 165.548C276.428 165.623 277.958 165.702 279.453 165.776C286.147 166.131 292.25 166.526 297.801 166.929C299.374 167.048 300.9 167.162 302.386 167.28C323.501 168.959 335.829 170.823 342.05 171.476C342.594 171.533 342.677 172.291 342.16 172.458L342.186 172.453Z" fill="#1A1C1E"/>
<path d="M255.76 155.785H251.192V164.917H255.76V155.785Z" fill="#1A1C1E"/>
<path d="M173.556 155.785H168.988V160.353H173.556V155.785Z" fill="#1A1C1E"/>
<path d="M219.222 155.785H214.654V160.353H219.222V155.785Z" fill="#1A1C1E"/>
<path d="M182.688 151.216H178.12V155.785H182.688V151.216Z" fill="#1A1C1E"/>
<path d="M191.825 151.216H187.257V155.785H191.825V151.216Z" fill="#1A1C1E"/>
<path d="M200.957 155.785V160.353H205.521V151.216H196.389V155.785H200.957Z" fill="#1A1C1E"/>
<path d="M214.658 151.216H210.09V155.785H214.658V151.216Z" fill="#1A1C1E"/>
<path d="M223.791 151.216H219.222V155.785H223.791V151.216Z" fill="#1A1C1E"/>
<path d="M251.192 151.216H246.624V155.785H251.192V151.216Z" fill="#1A1C1E"/>
<path d="M196.389 146.652H191.821V151.221H196.389V146.652Z" fill="#1A1C1E"/>
<path d="M228.359 146.652H223.79V151.221H228.359V146.652Z" fill="#1A1C1E"/>
<path d="M251.192 169.485V164.917H242.055V160.348H246.623V155.784H242.055V151.216H237.487V146.648H232.927V151.216H228.359V155.784H223.791V160.348H219.222V164.917H214.654V169.485H210.086V160.348H205.517V164.917H200.958V160.348H196.389V155.784H191.821V164.912H187.253V155.784H182.684V160.348H173.548V164.917H168.988V183.186H255.756V169.485H251.187H251.192ZM182.689 169.485H178.12V164.917H182.689V169.485ZM237.487 174.053H232.927V169.485H237.487V174.053ZM237.487 164.917H232.927V155.789H237.487V164.917Z" fill="#1A1C1E"/>
<path d="M187.257 137.516H182.689V146.648H187.257V137.516Z" fill="#1A1C1E"/>
<path d="M205.526 142.084H200.957V146.652H205.526V142.084Z" fill="#1A1C1E"/>
<path d="M278.593 142.084H274.025V146.652H278.593V142.084Z" fill="#1A1C1E"/>
<path d="M191.861 137.516H187.292V142.084H191.861V137.516Z" fill="#1A1C1E"/>
<path d="M237.487 126.099H232.918V130.667H237.487V126.099Z" fill="#1A1C1E"/>
<path d="M274.025 137.516H269.457V142.084H274.025V137.516Z" fill="#1A1C1E"/>
<path d="M246.624 116.967H242.055V121.535H246.624V116.967Z" fill="#1A1C1E"/>
<path d="M168.988 155.785H164.42V164.917H168.988V155.785Z" fill="#1A1C1E"/>
<path d="M86.7885 160.353H82.2202V164.921H86.7885V160.353Z" fill="#1A1C1E"/>
<path d="M95.9209 164.921H91.3525V169.49H95.9209V164.921Z" fill="#1A1C1E"/>
<path d="M132.454 155.785H127.886V160.353H132.454V155.785Z" fill="#1A1C1E"/>
<path d="M95.9209 155.789H91.3525V160.357H95.9209V155.789Z" fill="#1A1C1E"/>
<path d="M105.053 151.221H100.489V155.789H105.053V151.221Z" fill="#1A1C1E"/>
<path d="M114.185 155.785V160.353H118.754V151.216H109.621V155.785H114.185Z" fill="#1A1C1E"/>
<path d="M100.485 164.921V169.49H105.049V160.357H95.9165V164.921H100.485Z" fill="#1A1C1E"/>
<path d="M127.891 151.216H123.322V155.785H127.891V151.216Z" fill="#1A1C1E"/>
<path d="M137.023 151.216H132.455V155.785H137.023V151.216Z" fill="#1A1C1E"/>
<path d="M164.424 151.216H159.856V155.785H164.424V151.216Z" fill="#1A1C1E"/>
<path d="M109.622 146.652H105.053V151.221H109.622V146.652Z" fill="#1A1C1E"/>
<path d="M123.322 146.652H118.754V151.221H123.322V146.652Z" fill="#1A1C1E"/>
<path d="M141.587 146.652H137.019V151.221H141.587V146.652Z" fill="#1A1C1E"/>
<path d="M164.424 169.49V164.921H155.296V160.349H159.851V155.78H155.296V151.212H150.728V146.648H146.155V151.212H141.587V155.78H137.018V160.349H132.45V164.921H127.886V169.49H132.45V174.058H127.886V169.49H123.318V160.349H118.749V164.921H114.181V160.349H109.613V155.78H105.044V169.49H100.48V169.328C92.2819 170.244 86.6482 171.024 83.0532 171.401C82.5183 171.458 82.435 172.212 82.948 172.379C94.0575 176.04 106.189 178.775 118.745 180.814V178.613H123.313V183.186H168.983V169.49H164.415H164.424ZM146.155 155.78H150.728V160.349H146.155V155.78ZM150.728 178.613H146.155V174.058H150.728V178.613Z" fill="#1A1C1E"/>
<path d="M118.754 142.084H114.186V146.652H118.754V142.084Z" fill="#1A1C1E"/>
<path d="M137.018 142.084H127.886V146.652H137.018V142.084Z" fill="#1A1C1E"/>
<path d="M164.424 142.084H159.856V146.652H164.424V142.084Z" fill="#1A1C1E"/>
<path d="M146.155 137.516H141.587V142.084H146.155V137.516Z" fill="#1A1C1E"/>
<path d="M159.856 137.516H155.288V142.084H159.856V137.516Z" fill="#1A1C1E"/>
<path d="M127.891 137.516H123.322V142.084H127.891V137.516Z" fill="#1A1C1E"/>
<path d="M105.053 132.952H100.485V137.52H105.053V132.952Z" fill="#1A1C1E"/>
<path d="M155.287 128.383H150.719V132.952H155.287V128.383Z" fill="#1A1C1E"/>
<path d="M260.329 155.785H255.76V160.353H260.329V155.785Z" fill="#1A1C1E"/>
<path d="M305.995 155.785H301.426V160.353H305.995V155.785Z" fill="#1A1C1E"/>
<path d="M278.593 151.216H274.025V155.785H278.593V151.216Z" fill="#1A1C1E"/>
<path d="M287.726 155.785V160.353H292.294V151.216H283.157V155.785H287.726Z" fill="#1A1C1E"/>
<path d="M301.426 151.216H296.858V155.785H301.426V151.216Z" fill="#1A1C1E"/>
<path d="M310.563 151.216H305.995V155.785H310.563V151.216Z" fill="#1A1C1E"/>
<path d="M337.964 151.216H333.396V155.785H337.964V151.216Z" fill="#1A1C1E"/>
<path d="M283.162 146.652H278.593V151.221H283.162V146.652Z" fill="#1A1C1E"/>
<path d="M296.862 146.652H292.294V151.221H296.862V146.652Z" fill="#1A1C1E"/>
<path d="M315.127 146.652H310.559V151.221H315.127V146.652Z" fill="#1A1C1E"/>
<path d="M337.964 171.471V166.903H328.836V162.33H333.391V157.762H328.836V153.194H324.268V148.63H319.695V153.194H315.127V157.762H310.558V162.33H305.99V166.903H301.43V171.471H305.99V176.04H301.43V171.471H296.862V162.33H292.294V166.903H287.725V162.33H283.157V157.762H278.593V171.471H274.025V157.762H269.456V162.33H260.32V166.903H255.747V185.168H292.289V180.595H296.858V185.168H307.077C326.21 182.349 339.13 177.21 342.55 173.133L342.528 171.471H337.96H337.964ZM319.695 157.762H324.268V162.33H319.695V157.762ZM324.268 180.595H319.695V176.04H324.268V180.595Z" fill="#1A1C1E"/>
<path d="M292.294 142.084H287.726V146.652H292.294V142.084Z" fill="#1A1C1E"/>
<path d="M310.559 142.084H301.426V146.652H310.559V142.084Z" fill="#1A1C1E"/>
<path d="M337.964 142.084H333.396V146.652H337.964V142.084Z" fill="#1A1C1E"/>
<path d="M260.101 142.084H255.532V146.652H260.101V142.084Z" fill="#1A1C1E"/>
<path d="M319.695 137.516H315.127V142.084H319.695V137.516Z" fill="#1A1C1E"/>
<path d="M333.396 137.516H328.828V142.084H333.396V137.516Z" fill="#1A1C1E"/>
<path d="M301.426 137.516H296.858V142.084H301.426V137.516Z" fill="#1A1C1E"/>
<path d="M305.995 128.383H301.426V132.952H305.995V128.383Z" fill="#1A1C1E"/>
<path d="M338.591 177.763L342.55 173.133C343.155 172.427 342.559 171.344 341.638 171.48C331.488 172.975 315.947 177.811 212.571 178.096C109.196 177.811 93.6545 172.975 83.5051 171.48C82.5844 171.344 81.9881 172.423 82.5932 173.133L86.5521 177.763C89.8227 181.586 69.4932 204.226 69.4932 204.226L77.8845 337.273C77.8845 353.937 89.5553 368.304 105.851 371.763C132.634 377.445 137.492 380.681 212.571 380.681C287.651 380.681 292.509 377.45 319.292 371.763C335.592 368.304 347.258 353.937 347.258 337.273L355.65 204.226C355.65 204.226 335.32 181.586 338.591 177.763Z" fill="#FAFBFD" stroke="#1A1C1E" stroke-linecap="round" stroke-linejoin="round"/>
<path d="M60.8875 218.729C60.8875 218.729 105.676 232.758 212.572 232.758C319.467 232.758 364.256 218.729 364.256 218.729" fill="#FAFBFD"/>
<path d="M355.65 204.226L353.011 246.069C330.011 250.549 284.744 256.871 212.572 256.871C140.399 256.871 95.1322 250.545 72.1327 246.069L69.4934 204.226C69.4934 204.226 72.0757 201.345 75.2586 197.47C91.4056 201.025 135.068 208.645 212.572 208.645C290.076 208.645 333.738 201.025 349.885 197.47C353.068 201.345 355.65 204.226 355.65 204.226Z" fill="#E2E7EE"/>
<path d="M89.2134 139.857C89.871 139.782 90.4015 139.291 90.5243 138.638C90.8005 137.178 90.7391 134.841 87.4378 134.96C82.6547 135.126 72.08 135.297 69.2259 136.972C66.3717 138.651 61.9262 140.835 63.0134 164.163C64.1051 187.496 67.3757 211.162 67.3757 211.162C67.3757 211.162 64.2279 246.371 72.9568 253.311L77.5953 208.772C77.775 204.397 77.4375 200.013 76.5606 195.725C75.1358 188.754 73.3119 177.026 75.0963 169.117C77.7838 157.223 84.8336 140.997 86.3988 140.44C87.2975 140.12 88.4199 139.945 89.209 139.857H89.2134Z" fill="#FAFBFD" stroke="#1A1C1E" stroke-linecap="round" stroke-linejoin="round"/>
<path d="M89.5247 218.768C90.7391 218.597 91.7606 219.68 91.5019 220.877C91.3441 221.618 91.0723 222.534 90.6251 223.626C89.1958 227.107 85.2544 232.311 85.2939 238.102C85.3377 243.894 85.1273 255.718 84.873 257.231C84.6231 258.743 83.5709 259.287 81.4753 259.537C79.3752 259.787 51.8512 260.878 51.8512 260.878C51.8512 260.878 48.6201 260.834 47.4013 255.885C46.1825 250.935 44.8847 237.572 44.8847 237.572C44.8847 237.572 37.778 231.531 33.3017 226.883C28.8254 222.24 17.9702 225.094 17.9702 225.094C17.9702 225.094 16.291 229.908 12.5995 230.855C8.90802 231.807 3.70397 230.798 1.85823 222.745C0.0124776 214.686 2.13881 213.121 7.73305 210.771C13.3273 208.421 23.3452 205.734 23.3452 205.734C23.3452 205.734 28.4352 202.88 35.0948 204.673C41.7544 206.462 41.3598 209.316 50.593 210.491C59.8261 211.666 67.3801 211.162 67.3801 211.162L84.724 219.443L89.529 218.768H89.5247Z" fill="#292D33" stroke="#1A1C1E" stroke-linejoin="round"/>
<path d="M335.864 139.857C335.206 139.782 334.676 139.291 334.553 138.638C334.277 137.178 334.338 134.841 337.639 134.96C342.423 135.126 352.997 135.297 355.851 136.972C358.705 138.651 363.151 140.835 362.064 164.163C360.972 187.496 357.702 211.162 357.702 211.162C357.702 211.162 360.849 246.371 352.12 253.311L347.482 208.772C347.302 204.397 347.64 200.013 348.517 195.725C349.941 188.754 351.765 177.026 349.981 169.117C347.293 157.223 340.244 140.997 338.678 140.44C337.78 140.12 336.657 139.945 335.868 139.857H335.864Z" fill="#FAFBFD" stroke="#1A1C1E" stroke-linecap="round" stroke-linejoin="round"/>
<path d="M335.548 218.768C334.334 218.597 333.312 219.68 333.571 220.877C333.729 221.618 334.001 222.534 334.448 223.626C335.877 227.107 339.819 232.311 339.779 238.102C339.735 243.894 339.946 255.718 340.2 257.231C340.45 258.743 341.502 259.287 343.598 259.537C345.698 259.787 373.222 260.878 373.222 260.878C373.222 260.878 376.453 260.834 377.672 255.885C378.891 250.935 380.188 237.572 380.188 237.572C380.188 237.572 387.295 231.531 391.771 226.883C396.248 222.24 407.103 225.094 407.103 225.094C407.103 225.094 408.782 229.908 412.474 230.855C416.165 231.807 421.369 230.798 423.215 222.745C425.061 214.686 422.934 213.121 417.34 210.771C411.746 208.421 401.728 205.734 401.728 205.734C401.728 205.734 396.638 202.88 389.978 204.673C383.319 206.462 383.713 209.316 374.48 210.491C365.247 211.666 357.693 211.162 357.693 211.162L340.349 219.443L335.544 218.768H335.548Z" fill="#292D33" stroke="#1A1C1E" stroke-linejoin="round"/>
<path d="M396.48 379.44H142.073C137.268 379.44 133.371 383.338 133.371 388.143V394.149C133.371 395.193 134.164 396.065 135.208 396.157C142.648 396.806 174.81 399.003 269.277 399.003C363.743 399.003 395.91 396.806 403.345 396.157C404.384 396.065 405.182 395.197 405.182 394.149V388.143C405.182 383.338 401.285 379.44 396.48 379.44Z" fill="#E2E7EE" stroke="#1A1C1E" stroke-linecap="round" stroke-linejoin="round"/>
<path d="M327.328 365.227H211.23L165.283 379.44H373.274L327.328 365.227Z" fill="#FAFBFD" stroke="#1A1C1E" stroke-linecap="round" stroke-linejoin="round"/>
<path d="M320.625 354.104H217.934C216.733 354.104 215.759 355.078 215.759 356.279V363.048C215.759 364.249 216.733 365.222 217.934 365.222H320.625C321.826 365.222 322.799 364.249 322.799 363.048V356.279C322.799 355.078 321.826 354.104 320.625 354.104Z" fill="#F2F4F7" stroke="#1A1C1E" stroke-linecap="round" stroke-linejoin="round"/>
<path d="M422.517 365.227C420.851 365.516 411.855 365.446 411.057 365.227C410.259 365.008 349.389 330.127 269.277 330.127C189.164 330.127 128.294 365.012 127.496 365.227C126.698 365.446 117.706 365.516 116.036 365.227C114.37 364.937 114.659 368.633 114.804 369.65C114.948 370.668 118.938 371.61 125.172 372.334C131.411 373.057 131.626 372.478 183.649 361.456C235.672 350.434 247.79 355.415 269.272 355.415C290.755 355.415 302.873 350.434 354.896 361.456C406.918 372.478 407.138 373.061 413.372 372.334C419.611 371.61 423.596 370.668 423.741 369.65C423.885 368.633 424.175 364.937 422.509 365.227H422.517Z" fill="#FAFBFD" stroke="#1A1C1E" stroke-linecap="round" stroke-linejoin="round"/>
<path d="M277.471 326.208H261.083V330.123H277.471V326.208Z" fill="#F2F4F7" stroke="#1A1C1E" stroke-linecap="round" stroke-linejoin="round"/>
<path d="M256.225 307.645L257.676 326.207H280.882L282.333 307.645H256.225Z" fill="#292D33"/>
<path d="M304.526 291.905C296.985 290.165 293.903 291.761 290.001 291.542C286.103 291.322 282.043 289.292 269.277 289.292C256.51 289.292 252.45 291.322 248.553 291.542C244.655 291.761 241.573 290.165 234.028 291.905C223.282 294.387 229.968 309.021 229.968 309.021H308.581C308.581 309.021 315.267 294.387 304.521 291.905H304.526Z" fill="#292D33"/>
<path d="M214.453 374.122H206.666C206.187 374.122 205.798 374.511 205.798 374.99V375.525C205.798 376.005 206.187 376.393 206.666 376.393H214.453C214.932 376.393 215.321 376.005 215.321 375.525V374.99C215.321 374.511 214.932 374.122 214.453 374.122Z" fill="#F2F4F7" stroke="#1A1C1E" stroke-linecap="round" stroke-linejoin="round"/>
<path d="M212.466 371.851H208.647V374.122H212.466V371.851Z" fill="#F2F4F7" stroke="#1A1C1E" stroke-linecap="round" stroke-linejoin="round"/>
<path d="M193.93 366.555L194.561 370.391C194.702 371.233 195.425 371.851 196.28 371.851H224.22C225.071 371.851 225.799 371.233 225.939 370.391L226.57 366.555H193.934H193.93Z" fill="#F2F4F7" stroke="#1A1C1E" stroke-linecap="round" stroke-linejoin="round"/>
<path d="M216.408 332.591H204.079L193.93 366.555H226.562L216.408 332.591Z" fill="#FAFBFD" stroke="#1A1C1E" stroke-linecap="round" stroke-linejoin="round"/>
<path d="M219.385 330.561H201.111C200.55 330.561 200.094 331.015 200.094 331.576C200.094 332.136 200.55 332.591 201.111 332.591H219.385C219.946 332.591 220.402 332.136 220.402 331.576C220.402 331.015 219.946 330.561 219.385 330.561Z" fill="#292D33"/>
<path d="M216.408 332.591H204.079L199.853 346.734H220.639L216.408 332.591Z" fill="#292D33"/>
<path d="M208.846 70.5982L211.024 67.8859L210.702 64.2077L208.223 61.9812L204.887 62.2724L202.585 65.0749L202.889 68.5433L205.537 70.8872L208.846 70.5982Z" fill="#1A1C1E" stroke="#1A1C1E" stroke-linecap="round" stroke-linejoin="round"/>
<path d="M200.326 71.3962L202.504 68.6838L202.181 65.0057L199.702 62.7791L196.366 63.0704L194.064 65.8728L194.368 69.3413L197.016 71.6852L200.326 71.3962Z" fill="#1A1C1E" stroke="#1A1C1E" stroke-linecap="round" stroke-linejoin="round"/>
<path d="M195.726 78.5972L189.06 96.7219L192.162 99.3257L218.852 96.9953L217.542 82.0543L211.757 77.1976L195.726 78.5972Z" fill="#1A1C1E" stroke="#1A1C1E" stroke-linecap="round" stroke-linejoin="round"/>
<path d="M257.692 93.5906L273.723 92.191L272.413 77.2499L266.601 72.3954L250.596 73.7928L245.718 79.5806L246.374 87.0643L240.273 87.5969L239.151 74.7921L236.049 72.1883L230.712 101.356L221.891 106.793L224.46 109.443L236.709 108.374L241.585 102.56L240.927 95.05L254.896 93.8303L257.216 88.2131L257.687 93.5866L257.692 93.5906Z" fill="#1A1C1E" stroke="#1A1C1E" stroke-linecap="round" stroke-linejoin="round"/>
<path d="M319.816 88.1602L319.162 80.7035L316.061 78.1043L305.268 81.9166L304.799 76.5741L315.484 75.6412L314.831 68.1845L311.733 65.5805L293.953 75.3642L294.609 82.8472L288.928 83.3432L286.029 50.2836L282.928 47.6801L278.43 86.4166L284.237 91.2666L319.816 88.1602Z" fill="#1A1C1E" stroke="#1A1C1E" stroke-linecap="round" stroke-linejoin="round"/>
<path d="M205.745 67.9956L207.923 65.2832L207.601 61.6094L205.122 59.3785L201.786 59.6698L199.484 62.4722L199.788 65.9406L202.435 68.2845L205.745 67.9956Z" fill="#FAFBFD" stroke="#1A1C1E" stroke-linecap="round" stroke-linejoin="round"/>
<path d="M197.224 68.7939L199.406 66.0812L199.084 62.403L196.601 60.1768L193.265 60.4681L190.963 63.2705L191.267 66.739L193.914 69.0829L197.224 68.7939Z" fill="#FAFBFD" stroke="#1A1C1E" stroke-linecap="round" stroke-linejoin="round"/>
<path d="M192.629 75.9943L187.751 81.7819L189.061 96.7226L215.751 94.3923L214.441 79.4516L208.656 74.595L192.625 75.9946L192.629 75.9943ZM204.438 87.8657L199.093 88.3324L198.624 82.9852L203.969 82.5186L204.438 87.8657Z" fill="#FAFBFD" stroke="#1A1C1E" stroke-linecap="round" stroke-linejoin="round"/>
<path d="M254.59 90.992L270.621 89.5923L269.312 74.6511L263.5 69.7966L247.495 71.194L242.617 76.9818L243.273 84.4656L237.172 84.9982L236.049 72.1933L225.364 73.1263L227.611 98.7579L220.702 99.3611L221.358 106.845L233.607 105.775L238.484 99.9613L237.825 92.4513L251.795 91.2316L254.115 85.6144L254.586 90.988L254.59 90.992ZM253.468 78.1871L258.813 77.7204L259.282 83.0678L253.937 83.5345L253.468 78.1871Z" fill="#FAFBFD" stroke="#1A1C1E" stroke-linecap="round" stroke-linejoin="round"/>
<path d="M316.715 85.5621L316.061 78.1053L302.171 79.3181L301.702 73.9711L312.387 73.0382L311.733 65.5814L295.73 66.9787L290.851 72.766L291.507 80.2491L285.826 80.7451L282.928 47.6807L272.242 48.6136L275.328 83.8141L281.14 88.6682L316.715 85.5621Z" fill="#FAFBFD" stroke="#1A1C1E" stroke-linecap="round" stroke-linejoin="round"/>
<path d="M145.173 112.282L148.15 110.48L149.105 106.916L147.536 103.974L144.3 103.106L141.179 104.952L140.276 108.314L141.964 111.423L145.173 112.282Z" fill="#1A1C1E" stroke="#1A1C1E" stroke-linecap="round" stroke-linejoin="round"/>
<path d="M136.019 100.945L132.897 102.79L131.998 106.153L133.686 109.257L136.895 110.116L139.868 108.314L140.824 104.75L139.254 101.813L136.019 100.945Z" fill="#1A1C1E" stroke="#1A1C1E" stroke-linecap="round" stroke-linejoin="round"/>
<path d="M144.857 128.723L126.255 123.738L129.582 111.326L127.557 107.823L115.338 123.037L119.135 129.578L148.101 137.342L154.664 133.572L158.549 119.091L156.523 115.583L144.857 128.723Z" fill="#1A1C1E" stroke="#1A1C1E" stroke-linecap="round" stroke-linejoin="round"/>
<path d="M160.505 135.137L164.306 141.682L169.488 143.072L180.014 103.79L177.989 100.287L160.505 135.137Z" fill="#1A1C1E" stroke="#1A1C1E" stroke-linecap="round" stroke-linejoin="round"/>
<path d="M179.036 151.209L168.37 153.165L170.395 156.668L182.276 159.855L188.844 156.058L196.056 129.139L194.035 125.636L179.036 151.209Z" fill="#1A1C1E" stroke="#1A1C1E" stroke-linecap="round" stroke-linejoin="round"/>
<path d="M200.462 135.106L202.487 138.609L213.027 141.437L211.637 146.619L194.03 146.685L196.051 150.188L220.064 156.624L223.944 142.139L220.147 135.593L200.462 135.106Z" fill="#1A1C1E" stroke="#1A1C1E" stroke-linecap="round" stroke-linejoin="round"/>
<path d="M242.406 165.752L239.284 167.598L238.385 170.96L240.073 174.064L243.282 174.928L246.255 173.122L247.211 169.557L245.641 166.62L242.406 165.752Z" fill="#1A1C1E" stroke="#1A1C1E" stroke-linecap="round" stroke-linejoin="round"/>
<path d="M267.312 148.232L260.749 151.998L258.807 159.254L253.094 157.724L256.422 145.313L254.396 141.81L242.756 154.953L237.272 153.485L245.86 121.436L243.835 117.933L226.351 152.783L230.152 159.329L264.502 168.531L268.601 164.051L267.207 169.259L282.753 173.424L286.633 158.939L282.832 152.393L267.312 148.232Z" fill="#1A1C1E" stroke="#1A1C1E" stroke-linecap="round" stroke-linejoin="round"/>
<path d="M143.152 108.779L146.124 106.973L147.08 103.408L145.51 100.471L142.275 99.6029L139.153 101.449L138.255 104.811L139.938 107.915L143.152 108.779Z" fill="#FAFBFD" stroke="#1A1C1E" stroke-linecap="round" stroke-linejoin="round"/>
<path d="M133.998 97.4371L130.876 99.2829L129.973 102.646L131.661 105.754L134.87 106.613L137.847 104.811L138.803 101.247L137.233 98.3052L133.998 97.4371Z" fill="#FAFBFD" stroke="#1A1C1E" stroke-linecap="round" stroke-linejoin="round"/>
<path d="M142.836 125.22L124.23 120.235L127.557 107.823L117.193 105.048L113.313 119.529L117.114 126.075L146.08 133.835L152.644 130.069L156.524 115.583L146.159 112.808L142.836 125.22Z" fill="#FAFBFD" stroke="#1A1C1E" stroke-linecap="round" stroke-linejoin="round"/>
<path d="M158.483 131.634L162.28 138.18L167.462 139.565L177.989 100.287L167.624 97.5117L158.483 131.634Z" fill="#FAFBFD" stroke="#1A1C1E" stroke-linecap="round" stroke-linejoin="round"/>
<path d="M177.011 147.706L170.316 145.909L168.37 153.165L180.251 156.348L186.823 152.555L194.035 125.636L183.67 122.857L177.011 147.706Z" fill="#FAFBFD" stroke="#1A1C1E" stroke-linecap="round" stroke-linejoin="round"/>
<path d="M202.4 127.876L200.462 135.106L211.002 137.929L209.616 143.112L195.968 139.455L194.03 146.685L218.043 153.116L221.923 138.635L218.121 132.09L202.4 127.876Z" fill="#FAFBFD" stroke="#1A1C1E" stroke-linecap="round" stroke-linejoin="round"/>
<path d="M240.385 162.249L237.263 164.094L236.36 167.453L238.048 170.561L241.257 171.42L244.234 169.618L245.19 166.054L243.62 163.112L240.385 162.249Z" fill="#FAFBFD" stroke="#1A1C1E" stroke-linecap="round" stroke-linejoin="round"/>
<path d="M265.287 144.729L258.724 148.496L256.781 155.751L251.069 154.221L254.396 141.81L244.058 139.039L240.731 151.45L235.246 149.982L243.835 117.933L233.471 115.158L224.325 149.28L228.126 155.826L262.476 165.028L266.576 160.548L265.182 165.756L280.728 169.921L284.608 155.436L280.807 148.89L265.287 144.729ZM272.301 159.912L267.119 158.522L268.509 153.34L273.691 154.73L272.301 159.912Z" fill="#FAFBFD" stroke="#1A1C1E" stroke-linecap="round" stroke-linejoin="round"/>
<path d="M202.149 38.3649L199.2 40.4757L198.598 43.8996L200.546 46.8494L203.822 47.4254L206.626 45.3712L207.268 41.7372L205.448 38.9433L202.149 38.3649Z" fill="#1A1C1E" stroke="#1A1C1E" stroke-linecap="round" stroke-linejoin="round"/>
<path d="M215.652 40.7438L212.704 42.8546L212.101 46.2828L214.049 49.2283L217.326 49.8086L220.129 47.7501L220.771 44.1161L218.951 41.3266L215.652 40.7438Z" fill="#1A1C1E" stroke="#1A1C1E" stroke-linecap="round" stroke-linejoin="round"/>
<path d="M224.092 42.1796L221.138 44.2908L220.536 47.7146L222.488 50.6641L225.76 51.2404L228.569 49.1859L229.206 45.5522L227.39 42.758L224.092 42.1796Z" fill="#1A1C1E" stroke="#1A1C1E" stroke-linecap="round" stroke-linejoin="round"/>
<path d="M223.228 31.3981L212.093 29.4368L214.327 16.7823L211.476 13.3745L201.558 27.5771L196.248 26.6422L197.55 19.2447L193.22 13.0617L177.37 10.2675L166.234 26.0466L168.557 29.3597L184.407 32.1539L183.472 37.464L163.996 38.7498L166.319 42.0629L192.71 46.7164L194.952 34.0127L227.189 39.6994L233.399 35.3757L236.001 20.6072L233.678 17.2941L223.228 31.4024L223.228 31.3981Z" fill="#1A1C1E" stroke="#1A1C1E" stroke-linecap="round" stroke-linejoin="round"/>
<path d="M254.579 20.971L241.867 47.7583L231.411 50.6359L233.734 53.949L245.843 56.0847L252.06 51.734L256.898 24.2889L254.579 20.971Z" fill="#1A1C1E" stroke="#1A1C1E" stroke-linecap="round" stroke-linejoin="round"/>
<path d="M199.832 35.072L196.883 37.1827L196.277 40.6113L198.229 43.5608L201.501 44.1371L204.309 42.0783L204.951 38.4442L203.131 35.6547L199.832 35.072Z" fill="#FAFBFD" stroke="#1A1C1E" stroke-linecap="round" stroke-linejoin="round"/>
<path d="M213.336 37.4554L210.387 39.5662L209.78 42.9904L211.733 45.9399L215.005 46.5162L217.813 44.4617L218.455 40.8276L216.635 38.0338L213.336 37.4554Z" fill="#FAFBFD" stroke="#1A1C1E" stroke-linecap="round" stroke-linejoin="round"/>
<path d="M221.77 38.887L218.822 40.9978L218.215 44.4264L220.167 47.3759L223.439 47.9522L226.247 45.8933L226.889 42.2636L225.069 39.4698L221.77 38.887Z" fill="#FAFBFD" stroke="#1A1C1E" stroke-linecap="round" stroke-linejoin="round"/>
<path d="M220.906 28.1056L209.772 26.1443L212.005 13.4898L201.465 11.6306L199.232 24.285L193.921 23.3501L195.224 15.9526L190.894 9.76961L175.044 6.97543L168.834 11.2991L166.231 26.0676L182.081 28.8618L181.146 34.1719L165.296 31.3777L163.993 38.7752L190.384 43.4286L192.626 30.725L224.863 36.4116L231.073 32.0879L233.676 17.3195L223.136 15.4602L220.902 28.1147L220.906 28.1056ZM183.386 21.4904L178.102 20.5576L179.035 15.2741L184.319 16.2069L183.386 21.4904Z" fill="#FAFBFD" stroke="#1A1C1E" stroke-linecap="round" stroke-linejoin="round"/>
<path d="M244.014 19.1347L239.545 44.4658L232.715 43.2634L231.413 50.6609L243.526 52.7962L249.738 48.4415L254.581 20.996L244.014 19.1347Z" fill="#FAFBFD" stroke="#1A1C1E" stroke-linecap="round" stroke-linejoin="round"/>
<path d="M153.098 87.3896C163.483 87.3896 171.901 78.9709 171.901 68.5858C171.901 58.2007 163.483 49.782 153.098 49.782C142.712 49.782 134.294 58.2007 134.294 68.5858C134.294 78.9709 142.712 87.3896 153.098 87.3896Z" fill="#1A1C1E" stroke="#1A1C1E" stroke-linecap="round" stroke-linejoin="round"/>
<path d="M149.91 85.5483C160.295 85.5483 168.714 77.1296 168.714 66.7445C168.714 56.3594 160.295 47.9407 149.91 47.9407C139.525 47.9407 131.106 56.3594 131.106 66.7445C131.106 77.1296 139.525 85.5483 149.91 85.5483Z" fill="#1A1C1E" stroke="#1A1C1E" stroke-linecap="round" stroke-linejoin="round"/>
<path d="M145.044 48.5764C155.079 45.8889 165.387 51.8382 168.074 61.8737C170.161 69.6775 167.044 77.9461 160.318 82.4224C159.459 82.8477 158.968 82.3698 158.837 81.8963C158.674 81.2825 158.17 79.3228 157.521 76.8939C157.065 75.1929 156.206 74.2546 155.395 73.8645C159.314 72.3256 163.146 69.6469 161.279 62.676C160.744 60.6768 159.608 59.2563 158.109 58.2918C158.17 57.7876 158.306 55.7577 156.636 53.5262C156.636 53.5262 154.983 53.4341 152.142 56.7266C150.581 56.7091 148.981 56.9151 147.438 57.3316C145.894 57.7481 144.404 58.3619 143.062 59.1599C138.963 57.7525 137.569 58.6381 137.569 58.6381C137.24 61.4046 138.375 63.0925 138.678 63.5002C137.863 65.0829 137.595 66.9067 138.126 68.8796C139.989 75.8286 144.632 76.2626 148.792 75.6313C148.393 76.2231 148.126 77.1482 148.284 78.3714C147.367 79.1299 144.965 80.5986 142.593 78.2925C142.106 77.8409 140.725 76.7712 139.301 77.1789C137.784 77.6086 138.919 78.2048 139.647 78.3758C140.533 78.5994 141.852 79.976 142.194 80.4407C142.83 81.3658 144.535 83.0011 148.871 80.9405C149.279 82.4619 149.687 83.8867 149.801 84.3164C149.928 84.7943 149.735 85.43 148.784 85.5133C140.703 85.031 133.838 79.428 131.747 71.611C129.059 61.5755 135.008 51.2683 145.044 48.5808V48.5764Z" fill="#FAFBFD" stroke="#1A1C1E" stroke-linecap="round" stroke-linejoin="round"/>
<path d="M101.883 291.619L166.229 214.934C167.785 213.081 170.552 212.838 172.406 214.394C174.26 215.95 174.502 218.717 172.946 220.571L107.473 298.598L102.099 294.09C101.357 293.467 101.261 292.361 101.883 291.619Z" fill="#1A1C1E"/>
<path d="M245.613 214.031L214.52 245.124C206.848 252.796 194.41 252.796 186.737 245.124L177.478 235.865C176.386 234.764 174.611 234.764 173.51 235.865L169.017 240.358C167.925 241.45 167.925 243.226 169.017 244.326L178.276 253.586C185.948 261.258 185.948 273.696 178.276 281.368L147.192 312.461C139.52 320.133 127.082 320.133 119.409 312.461L101.881 294.933C100.965 294.017 100.965 292.535 101.881 291.623L215.204 178.3L146.273 177.157L225.27 167.239C225.998 167.138 226.73 167.383 227.247 167.901L245.608 186.262C253.281 193.934 253.281 206.372 245.608 214.036L245.613 214.031Z" fill="#3B4149" stroke="#1A1C1E" stroke-miterlimit="10" stroke-linejoin="round"/>
<path d="M194.367 200.153L226.886 168.159" stroke="#1A1C1E"/>
<path d="M217.122 228.572L217.122 228.572C216.459 228.675 215.804 228.347 215.499 227.743C215.499 227.743 215.498 227.743 215.498 227.742L211.547 219.992L202.953 221.351L202.952 221.351C202.29 221.454 201.634 221.126 201.329 220.522C201.025 219.921 201.142 219.198 201.612 218.722L201.614 218.719L201.614 218.719L207.767 212.567L203.819 204.815L203.819 204.813C203.515 204.212 203.632 203.489 204.102 203.013C204.579 202.53 205.311 202.424 205.907 202.725L205.908 202.726L213.66 206.674L219.813 200.521C220.287 200.047 221.016 199.932 221.615 200.235L221.617 200.236C222.213 200.54 222.549 201.198 222.445 201.859L222.445 201.86L221.085 210.454L228.838 214.406L228.838 214.406C229.434 214.71 229.769 215.368 229.666 216.029C229.614 216.359 229.459 216.656 229.231 216.884L229.231 216.884L229.218 216.897C228.991 217.124 228.694 217.279 228.364 217.331L217.122 228.572ZM217.122 228.572L217.126 228.571C217.785 228.463 218.311 227.949 218.416 227.279C218.416 227.279 218.416 227.279 218.416 227.278L219.775 218.69L228.364 217.331L217.122 228.572ZM220.566 213.693L223.158 215.014L220.286 215.468L220.566 213.693ZM214.767 219.481L216.545 219.201L216.09 222.078L214.767 219.481ZM217.059 215.979L213.294 216.575L211.557 213.172L214.257 210.472L217.656 212.207L217.059 215.979ZM218.621 206.108L218.167 208.986L216.561 208.168L218.621 206.108ZM209.244 215.485L210.061 217.091L207.184 217.546L209.244 215.485ZM208.75 207.674L211.343 208.995L210.071 210.267L208.75 207.674Z" fill="#FAFBFD" stroke="#1A1C1E" stroke-miterlimit="10" stroke-linejoin="round"/>
<path d="M149.789 295.905L149.789 295.905C149.127 296.008 148.472 295.68 148.166 295.076C148.166 295.076 148.166 295.076 148.166 295.075L144.215 287.325L135.621 288.684L135.62 288.684C134.957 288.787 134.302 288.458 133.996 287.854C133.693 287.254 133.81 286.531 134.279 286.055L134.282 286.052L134.282 286.052L140.435 279.899L136.487 272.147L136.487 272.146C136.183 271.545 136.3 270.822 136.77 270.346L136.772 270.344L136.772 270.344C137.246 269.87 137.975 269.755 138.574 270.058L138.576 270.059L146.328 274.006L152.481 267.853C152.955 267.38 153.684 267.265 154.283 267.568L154.285 267.569C154.881 267.873 155.216 268.531 155.113 269.192L155.112 269.193L153.753 277.786L161.505 281.738L161.506 281.739C162.101 282.043 162.437 282.701 162.333 283.362C162.282 283.691 162.126 283.989 161.899 284.216L161.899 284.217L161.886 284.23C161.659 284.457 161.361 284.612 161.032 284.664L149.789 295.905ZM149.789 295.905L149.794 295.904C150.453 295.795 150.979 295.282 151.083 294.612C151.083 294.612 151.084 294.611 151.084 294.611L152.443 286.023L161.031 284.664L149.789 295.905ZM153.234 281.026L155.826 282.347L152.954 282.801L153.234 281.026ZM147.435 286.814L149.212 286.533L148.758 289.41L147.435 286.814ZM149.727 283.312L145.961 283.908L144.225 280.505L146.924 277.805L150.324 279.54L149.727 283.312ZM151.289 273.44L150.834 276.318L149.229 275.501L151.289 273.44ZM141.912 282.818L142.729 284.423L139.851 284.878L141.912 282.818ZM141.418 275.007L144.01 276.328L142.739 277.6L141.418 275.007Z" fill="#FAFBFD" stroke="#1A1C1E" stroke-miterlimit="10" stroke-linejoin="round"/>
</g>
<defs>
<clipPath id="clip0_2692_18457">
<rect width="424.938" height="400" fill="white"/>
</clipPath>
</defs>
</svg>
