<svg width="452" height="400" viewBox="0 0 452 400" fill="none" xmlns="http://www.w3.org/2000/svg">
<g clip-path="url(#clip0_2692_18368)">
<path d="M408.442 178.879H402.99C402.139 178.879 401.45 178.19 401.45 177.34V141.684C401.45 140.833 400.762 140.144 399.911 140.144H394.459C393.609 140.144 392.92 139.456 392.92 138.605V123.088C392.92 122.237 392.231 121.549 391.381 121.549H385.929C385.079 121.549 384.39 120.86 384.39 120.009V104.492C384.39 103.641 383.701 102.953 382.851 102.953H377.399C376.548 102.953 375.859 102.264 375.859 101.414V94.4223C375.859 93.572 375.171 92.8833 374.32 92.8833H368.868C368.018 92.8833 367.329 92.1945 367.329 91.3442V85.892C367.329 85.0417 366.64 84.3529 365.79 84.3529H360.338C359.488 84.3529 358.799 83.6642 358.799 82.8139V77.3617C358.799 76.5113 358.11 75.8226 357.26 75.8226H352.577C351.727 75.8226 351.038 75.1339 351.038 74.2835V69.6009C351.038 68.7505 350.349 68.0618 349.499 68.0618H344.047C343.196 68.0618 342.508 67.3731 342.508 66.5227V61.0705C342.508 60.2202 341.819 59.5315 340.969 59.5315H333.977C333.127 59.5315 332.438 58.8427 332.438 57.9924V52.5402C332.438 51.6899 331.75 51.0011 330.899 51.0011H315.381C314.531 51.0011 313.842 50.3124 313.842 49.4621V44.0099C313.842 43.1596 313.154 42.4708 312.303 42.4708H296.786C295.935 42.4708 295.247 41.7821 295.247 40.9317V35.4796C295.247 34.6292 294.558 33.9405 293.707 33.9405H258.051C257.201 33.9405 256.512 33.2518 256.512 32.4014V26.9492C256.512 26.0989 255.823 25.4102 254.973 25.4102H197.642C196.792 25.4102 196.103 26.0989 196.103 26.9492V32.4014C196.103 33.2518 195.414 33.9405 194.564 33.9405H158.907C158.057 33.9405 157.368 34.6292 157.368 35.4796V40.9317C157.368 41.7821 156.68 42.4708 155.829 42.4708H140.312C139.461 42.4708 138.772 43.1596 138.772 44.0099V49.4621C138.772 50.3124 138.084 51.0011 137.233 51.0011H121.716C120.865 51.0011 120.177 51.6899 120.177 52.5402V57.9924C120.177 58.8427 119.488 59.5315 118.638 59.5315H111.646C110.796 59.5315 110.107 60.2202 110.107 61.0705V66.5227C110.107 67.3731 109.418 68.0618 108.568 68.0618H103.116C102.266 68.0618 101.577 68.7505 101.577 69.6009V74.2835C101.577 75.1339 100.888 75.8226 100.038 75.8226H95.3551C94.5048 75.8226 93.8161 76.5113 93.8161 77.3617V82.8139C93.8161 83.6642 93.1273 84.3529 92.277 84.3529H86.8248C85.9745 84.3529 85.2857 85.0417 85.2857 85.892V91.3442C85.2857 92.1945 84.597 92.8833 83.7467 92.8833H78.2945C77.4441 92.8833 76.7554 93.572 76.7554 94.4223V101.414C76.7554 102.264 76.0667 102.953 75.2163 102.953H69.7641C68.9138 102.953 68.2251 103.641 68.2251 104.492V120.009C68.2251 120.86 67.5363 121.549 66.686 121.549H61.2338C60.3835 121.549 59.6947 122.237 59.6947 123.088V138.605C59.6947 139.456 59.006 140.144 58.1557 140.144H52.7035C51.8531 140.144 51.1644 140.833 51.1644 141.684V177.34C51.1644 178.19 50.4757 178.879 49.6253 178.879H44.1924C43.3421 178.879 42.6533 179.568 42.6533 180.418V237.749C42.6533 238.599 43.3421 239.288 44.1924 239.288H49.6446C50.4949 239.288 51.1837 239.977 51.1837 240.827V276.483C51.1837 277.334 51.8724 278.023 52.7227 278.023H58.1749C59.0252 278.023 59.714 278.711 59.714 279.562V295.079C59.714 295.93 60.4027 296.618 61.2531 296.618H66.7052C67.5556 296.618 68.2443 297.307 68.2443 298.158V313.675C68.2443 314.526 68.933 315.214 69.7834 315.214H75.2356C76.0859 315.214 76.7746 315.903 76.7746 316.753V323.745C76.7746 324.595 77.4634 325.284 78.3137 325.284H83.7659C84.6162 325.284 85.305 325.973 85.305 326.823V332.275C85.305 333.125 85.9937 333.814 86.844 333.814H92.2962C93.1466 333.814 93.8353 334.503 93.8353 335.353V340.805C93.8353 341.656 94.524 342.344 95.3744 342.344H100.057C100.907 342.344 101.596 343.033 101.596 343.884V348.566C101.596 349.416 102.285 350.105 103.135 350.105H108.587C109.438 350.105 110.126 350.794 110.126 351.644V357.096C110.126 357.947 110.815 358.636 111.665 358.636H118.657C119.507 358.636 120.196 359.324 120.196 360.175V365.627C120.196 366.477 120.885 367.166 121.735 367.166H137.253C138.103 367.166 138.792 367.855 138.792 368.705V374.157C138.792 375.007 139.48 375.696 140.331 375.696H155.849C156.699 375.696 157.388 376.385 157.388 377.235V382.687C157.388 383.538 158.076 384.227 158.927 384.227H194.583C195.434 384.227 196.122 384.915 196.122 385.766V391.218C196.122 392.068 196.811 392.757 197.661 392.757H254.992C255.842 392.757 256.531 392.068 256.531 391.218V385.766C256.531 384.915 257.22 384.227 258.07 384.227H293.727C294.577 384.227 295.266 383.538 295.266 382.687V377.235C295.266 376.385 295.954 375.696 296.805 375.696H312.323C313.173 375.696 313.862 375.007 313.862 374.157V368.705C313.862 367.855 314.55 367.166 315.401 367.166H330.918C331.769 367.166 332.458 366.477 332.458 365.627V360.175C332.458 359.324 333.146 358.636 333.997 358.636H340.988C341.838 358.636 342.527 357.947 342.527 357.096V351.644C342.527 350.794 343.216 350.105 344.066 350.105H349.518C350.369 350.105 351.057 349.416 351.057 348.566V343.884C351.057 343.033 351.746 342.344 352.596 342.344H357.279C358.129 342.344 358.818 341.656 358.818 340.805V335.353C358.818 334.503 359.507 333.814 360.357 333.814H365.809C366.66 333.814 367.348 333.125 367.348 332.275V326.823C367.348 325.973 368.037 325.284 368.887 325.284H374.34C375.19 325.284 375.879 324.595 375.879 323.745V316.753C375.879 315.903 376.567 315.214 377.418 315.214H382.87C383.72 315.214 384.409 314.526 384.409 313.675V298.158C384.409 297.307 385.098 296.618 385.948 296.618H391.4C392.251 296.618 392.939 295.93 392.939 295.079V279.562C392.939 278.711 393.628 278.023 394.478 278.023H399.931C400.781 278.023 401.47 277.334 401.47 276.483V240.827C401.47 239.977 402.158 239.288 403.009 239.288H408.461C409.311 239.288 410 238.599 410 237.749V180.418C410 179.568 409.311 178.879 408.461 178.879H408.442Z" fill="#F2F4F7"/>
<path d="M110.112 66.2864H343.1C344.11 66.2864 344.927 67.1038 344.927 68.1129V83.5383H108.286V68.1129C108.286 67.1038 109.103 66.2864 110.112 66.2864Z" fill="#FAFBFD" stroke="#1A1C1E" stroke-linecap="round" stroke-linejoin="round"/>
<path d="M325.042 382.89H128.178L151.011 346.057H302.209L325.042 382.89Z" fill="#E2E7EE" stroke="#1A1C1E" stroke-linecap="round" stroke-linejoin="round"/>
<path d="M299.063 349.811H154.156L166.394 331.545H286.825L299.063 349.811Z" fill="#E2E7EE" stroke="#1A1C1E" stroke-linecap="round" stroke-linejoin="round"/>
<path d="M322.319 110.43H130.894L108.286 83.5381H344.927L322.319 110.43Z" fill="#C3CAD4" stroke="#1A1C1E" stroke-linecap="round" stroke-linejoin="round"/>
<path d="M322.2 89.6252H131.017V123.517H322.2V89.6252Z" fill="#FAFBFD" stroke="#1A1C1E" stroke-linecap="round" stroke-linejoin="round"/>
<path d="M303.934 144.016H149.283L131.017 123.517H322.2L303.934 144.016Z" fill="#C3CAD4" stroke="#1A1C1E" stroke-linecap="round" stroke-linejoin="round"/>
<path d="M299.063 349.811H154.156V375.283H299.063V349.811Z" fill="#C3CAD4" stroke="#1A1C1E" stroke-linecap="round" stroke-linejoin="round"/>
<path d="M128.178 382.89H325.042V396.79C325.042 397.8 324.224 398.617 323.215 398.617H130.005C128.996 398.617 128.178 397.8 128.178 396.79V382.89Z" fill="#C3CAD4" stroke="#1A1C1E" stroke-linecap="round" stroke-linejoin="round"/>
<path d="M279.173 346.058H174.045L155.779 128.39H297.438L279.173 346.058Z" fill="#FAFBFD" stroke="#1A1C1E" stroke-linecap="round" stroke-linejoin="round"/>
<path d="M293.707 55.5278H298.333C299.224 55.5278 299.986 56.1717 300.132 57.0485L301.699 66.2863H290.333L291.899 57.0485C292.05 56.1717 292.808 55.5278 293.698 55.5278H293.707Z" fill="#E2E7EE" stroke="#1A1C1E" stroke-linecap="round" stroke-linejoin="round"/>
<path d="M296.016 55.5277V51.3585C296.016 47.7237 294.573 44.2395 292.002 41.6731L268.056 17.7268" stroke="#1A1C1E" stroke-linecap="round" stroke-linejoin="round"/>
<path d="M263.405 19.2788L263.405 19.2791C265.156 20.7388 267.732 20.6202 269.344 19.0082C270.955 17.3967 271.071 14.821 269.614 13.0694L263.405 19.2788ZM263.405 19.2788L253.08 10.6848L253.08 10.6846C251.088 9.02832 250.952 6.01392 252.785 4.18029L252.432 3.82673L252.785 4.18029L254.516 2.44961C256.35 0.61598 259.364 0.752021 261.02 2.74447L261.021 2.74471L269.614 13.0692L263.405 19.2788Z" fill="#2980FA" stroke="#1A1C1E"/>
<path d="M100.816 170.629C184.678 95.6666 268.541 245.591 352.399 170.629C352.399 220.604 352.399 242.559 352.399 292.534C268.536 367.497 184.674 217.572 100.816 292.534C100.816 242.559 100.816 220.604 100.816 170.629Z" fill="#2980FA" stroke="#1A1C1E" stroke-miterlimit="10" stroke-linejoin="round"/>
<path d="M146.559 201.74C146.294 201.475 146.162 201.16 146.162 200.786V172.423C146.162 172.081 146.294 171.77 146.559 171.492C146.824 171.213 147.139 171.072 147.514 171.072H165.537C165.88 171.072 166.19 171.213 166.469 171.492C166.747 171.77 166.889 172.081 166.889 172.423V174.94C166.889 175.282 167.021 175.583 167.286 175.848C167.551 176.113 167.852 176.246 168.195 176.246H170.711C171.053 176.246 171.364 176.387 171.643 176.661C171.921 176.94 172.063 177.246 172.063 177.584V180.077C172.063 180.415 171.921 180.725 171.643 180.999C171.364 181.278 171.053 181.415 170.711 181.415H168.195C167.852 181.415 167.551 181.547 167.286 181.812C167.021 182.077 166.889 182.383 166.889 182.73V185.269C166.889 185.611 167.021 185.926 167.286 186.209C167.551 186.493 167.852 186.634 168.195 186.634H170.711C171.053 186.634 171.364 186.767 171.643 187.031C171.921 187.296 172.063 187.611 172.063 187.986V195.621C172.063 195.995 171.921 196.31 171.643 196.575C171.364 196.84 171.053 196.973 170.711 196.973H168.195C167.852 196.973 167.551 197.105 167.286 197.37C167.021 197.635 166.889 197.95 166.889 198.324V200.795C166.889 201.169 166.747 201.484 166.469 201.749C166.19 202.014 165.88 202.146 165.537 202.146H147.514C147.139 202.146 146.824 202.014 146.559 201.749V201.74ZM160.4 181.415C160.742 181.415 161.048 181.278 161.318 180.999C161.587 180.721 161.715 180.415 161.715 180.077V177.584C161.715 177.246 161.583 176.94 161.318 176.661C161.053 176.387 160.747 176.246 160.4 176.246H157.861C157.514 176.246 157.203 176.387 156.92 176.661C156.637 176.94 156.496 177.246 156.496 177.584V180.077C156.496 180.415 156.637 180.725 156.92 180.999C157.203 181.278 157.514 181.415 157.861 181.415H160.4ZM160.4 196.968C160.742 196.968 161.048 196.836 161.318 196.571C161.583 196.306 161.715 195.991 161.715 195.616V187.981C161.715 187.607 161.583 187.292 161.318 187.027C161.053 186.762 160.747 186.63 160.4 186.63H157.861C157.514 186.63 157.203 186.762 156.92 187.027C156.637 187.292 156.496 187.607 156.496 187.981V195.616C156.496 195.991 156.637 196.306 156.92 196.571C157.203 196.836 157.514 196.968 157.861 196.968H160.4Z" fill="#FAFBFD"/>
<path d="M179.741 210.64C179.476 210.375 179.344 210.06 179.344 209.685V176.154C179.344 175.812 179.476 175.501 179.741 175.223C180.006 174.944 180.321 174.802 180.696 174.802H188.331C188.705 174.802 189.02 174.944 189.285 175.223C189.55 175.501 189.682 175.812 189.682 176.154V209.685C189.682 210.06 189.55 210.375 189.285 210.64C189.02 210.905 188.705 211.037 188.331 211.037H180.696C180.321 211.037 180.006 210.905 179.741 210.64Z" fill="#FAFBFD"/>
<path d="M202.584 216.49C202.301 216.225 202.164 215.91 202.164 215.535V213.065C202.164 212.69 202.032 212.375 201.767 212.11C201.502 211.846 201.182 211.713 200.808 211.713H198.333C197.959 211.713 197.639 211.581 197.374 211.316C197.109 211.051 196.977 210.731 196.977 210.357V197.466C196.977 197.123 197.109 196.822 197.374 196.557C197.639 196.292 197.959 196.16 198.333 196.16H200.808C201.182 196.16 201.502 196.023 201.767 195.744C202.032 195.466 202.164 195.16 202.164 194.822V192.329C202.164 191.991 202.306 191.685 202.584 191.406C202.863 191.132 203.178 190.991 203.52 190.991H211.229C211.571 190.991 211.873 191.132 212.137 191.406C212.402 191.685 212.535 191.991 212.535 192.329V194.822C212.535 195.16 212.672 195.47 212.95 195.744C213.229 196.018 213.539 196.16 213.877 196.16H216.38C216.717 196.16 217.028 196.023 217.307 195.744C217.585 195.466 217.722 195.16 217.722 194.822V192.329C217.722 191.991 217.855 191.685 218.115 191.406C218.38 191.132 218.681 190.991 219.019 190.991H221.521C221.859 190.991 222.17 191.132 222.448 191.411C222.727 191.689 222.864 192 222.864 192.342V215.535C222.864 215.91 222.722 216.225 222.448 216.49C222.17 216.755 221.859 216.887 221.521 216.887H219.019C218.676 216.887 218.375 216.755 218.115 216.49C217.85 216.225 217.722 215.91 217.722 215.535V213.065C217.722 212.69 217.581 212.375 217.307 212.11C217.028 211.846 216.717 211.713 216.38 211.713H213.877C213.535 211.713 213.229 211.846 212.95 212.11C212.672 212.375 212.535 212.69 212.535 213.065V215.535C212.535 215.91 212.402 216.225 212.137 216.49C211.873 216.755 211.571 216.887 211.229 216.887H203.52C203.178 216.887 202.867 216.755 202.584 216.49ZM211.219 211.718C211.562 211.718 211.868 211.585 212.137 211.32C212.407 211.056 212.535 210.736 212.535 210.362V197.47C212.535 197.128 212.402 196.827 212.137 196.562C211.873 196.297 211.567 196.164 211.219 196.164H208.681C208.334 196.164 208.023 196.297 207.74 196.562C207.457 196.827 207.315 197.128 207.315 197.47V210.362C207.315 210.736 207.457 211.056 207.74 211.32C208.023 211.585 208.334 211.718 208.681 211.718H211.219Z" fill="#FAFBFD"/>
<path d="M230.556 225.385C230.291 225.12 230.158 224.805 230.158 224.431V196.068C230.158 195.726 230.291 195.415 230.556 195.137C230.821 194.858 231.136 194.717 231.51 194.717H249.534C249.876 194.717 250.187 194.858 250.465 195.137C250.744 195.415 250.885 195.726 250.885 196.068V198.585C250.885 198.927 251.018 199.228 251.283 199.493C251.548 199.758 251.849 199.891 252.191 199.891H254.708C255.05 199.891 255.361 200.032 255.639 200.306C255.918 200.585 256.059 200.891 256.059 201.229V203.722C256.059 204.06 255.918 204.37 255.639 204.644C255.361 204.923 255.05 205.06 254.708 205.06H252.191C251.849 205.06 251.548 205.192 251.283 205.457C251.018 205.722 250.885 206.028 250.885 206.375V208.914C250.885 209.256 251.018 209.571 251.283 209.854C251.548 210.138 251.849 210.279 252.191 210.279H254.708C255.05 210.279 255.361 210.412 255.639 210.676C255.918 210.941 256.059 211.256 256.059 211.631V219.266C256.059 219.64 255.918 219.955 255.639 220.22C255.361 220.485 255.05 220.618 254.708 220.618H252.191C251.849 220.618 251.548 220.75 251.283 221.015C251.018 221.28 250.885 221.595 250.885 221.969V224.44C250.885 224.814 250.744 225.129 250.465 225.394C250.187 225.659 249.876 225.791 249.534 225.791H231.51C231.136 225.791 230.821 225.659 230.556 225.394V225.385ZM244.397 205.06C244.739 205.06 245.045 204.923 245.314 204.644C245.584 204.366 245.712 204.06 245.712 203.722V201.229C245.712 200.891 245.579 200.585 245.314 200.306C245.05 200.032 244.744 199.891 244.397 199.891H241.858C241.511 199.891 241.2 200.032 240.917 200.306C240.634 200.585 240.492 200.891 240.492 201.229V203.722C240.492 204.06 240.634 204.37 240.917 204.644C241.2 204.923 241.511 205.06 241.858 205.06H244.397ZM244.397 220.613C244.739 220.613 245.045 220.481 245.314 220.216C245.579 219.951 245.712 219.636 245.712 219.261V211.626C245.712 211.252 245.579 210.937 245.314 210.672C245.05 210.407 244.744 210.275 244.397 210.275H241.858C241.511 210.275 241.2 210.407 240.917 210.672C240.634 210.937 240.492 211.252 240.492 211.626V219.261C240.492 219.636 240.634 219.951 240.917 220.216C241.2 220.481 241.511 220.613 241.858 220.613H244.397Z" fill="#FAFBFD"/>
<path d="M263.735 231.481C263.471 231.216 263.338 230.901 263.338 230.527V196.995C263.338 196.653 263.471 196.342 263.735 196.064C264 195.785 264.315 195.644 264.69 195.644H272.325C272.699 195.644 273.014 195.785 273.279 196.064C273.544 196.342 273.677 196.653 273.677 196.995V230.527C273.677 230.901 273.544 231.216 273.279 231.481C273.014 231.746 272.699 231.878 272.325 231.878H264.69C264.315 231.878 264 231.746 263.735 231.481Z" fill="#FAFBFD"/>
<path d="M286.579 234.527C286.296 234.262 286.159 233.947 286.159 233.573V231.102C286.159 230.728 286.027 230.413 285.762 230.148C285.497 229.883 285.177 229.751 284.803 229.751H282.328C281.953 229.751 281.634 229.618 281.369 229.353C281.104 229.088 280.972 228.769 280.972 228.394V215.503C280.972 215.161 281.104 214.859 281.369 214.595C281.634 214.33 281.953 214.197 282.328 214.197H284.803C285.177 214.197 285.497 214.06 285.762 213.782C286.027 213.503 286.159 213.197 286.159 212.859V210.366C286.159 210.028 286.301 209.722 286.579 209.444C286.858 209.17 287.173 209.028 287.515 209.028H295.224C295.566 209.028 295.867 209.17 296.132 209.444C296.397 209.722 296.53 210.028 296.53 210.366V212.859C296.53 213.197 296.666 213.508 296.945 213.782C297.224 214.056 297.534 214.197 297.872 214.197H300.374C300.712 214.197 301.023 214.06 301.301 213.782C301.58 213.503 301.717 213.197 301.717 212.859V210.366C301.717 210.028 301.849 209.722 302.11 209.444C302.375 209.17 302.676 209.028 303.014 209.028H305.516C305.854 209.028 306.165 209.17 306.443 209.448C306.722 209.727 306.859 210.037 306.859 210.38V233.573C306.859 233.947 306.717 234.262 306.443 234.527C306.165 234.792 305.854 234.924 305.516 234.924H303.014C302.671 234.924 302.37 234.792 302.11 234.527C301.845 234.262 301.717 233.947 301.717 233.573V231.102C301.717 230.728 301.575 230.413 301.301 230.148C301.023 229.883 300.712 229.751 300.374 229.751H297.872C297.53 229.751 297.224 229.883 296.945 230.148C296.666 230.413 296.53 230.728 296.53 231.102V233.573C296.53 233.947 296.397 234.262 296.132 234.527C295.867 234.792 295.566 234.924 295.224 234.924H287.515C287.173 234.924 286.862 234.792 286.579 234.527ZM295.214 229.755C295.557 229.755 295.863 229.623 296.132 229.358C296.402 229.093 296.53 228.773 296.53 228.399V215.508C296.53 215.165 296.397 214.864 296.132 214.599C295.867 214.334 295.561 214.202 295.214 214.202H292.675C292.328 214.202 292.018 214.334 291.735 214.599C291.452 214.864 291.31 215.165 291.31 215.508V228.399C291.31 228.773 291.452 229.093 291.735 229.358C292.018 229.623 292.328 229.755 292.675 229.755H295.214Z" fill="#FAFBFD"/>
<path d="M146.352 255.966C145.978 255.61 145.786 255.181 145.786 254.678V251.35C145.786 250.847 145.608 250.418 145.252 250.062C144.896 249.706 144.466 249.528 143.964 249.528H140.635C140.133 249.528 139.704 249.349 139.347 248.993C138.991 248.637 138.813 248.208 138.813 247.706V223.408C138.813 222.946 138.991 222.526 139.347 222.152C139.704 221.773 140.133 221.586 140.635 221.586H143.964C144.466 221.586 144.896 221.407 145.252 221.051C145.608 220.695 145.786 220.289 145.786 219.827V216.439C145.786 215.978 145.973 215.558 146.352 215.183C146.731 214.809 147.147 214.617 147.608 214.617H171.902C172.363 214.617 172.778 214.804 173.157 215.183C173.536 215.562 173.724 215.978 173.724 216.439V226.796C173.724 227.257 173.536 227.677 173.157 228.052C172.783 228.431 172.363 228.618 171.902 228.618H168.513C168.052 228.618 167.646 228.431 167.289 228.052C166.933 227.673 166.755 227.257 166.755 226.796V223.408C166.755 222.946 166.568 222.526 166.189 222.152C165.81 221.773 165.394 221.586 164.933 221.586H154.577C154.115 221.586 153.7 221.773 153.321 222.152C152.942 222.526 152.755 222.946 152.755 223.408V247.706C152.755 248.208 152.942 248.637 153.321 248.993C153.695 249.349 154.115 249.528 154.577 249.528H164.933C165.394 249.528 165.81 249.349 166.189 248.993C166.563 248.637 166.755 248.208 166.755 247.706V244.377C166.755 243.874 166.933 243.445 167.289 243.089C167.646 242.733 168.052 242.555 168.513 242.555H171.902C172.363 242.555 172.778 242.733 173.157 243.089C173.536 243.445 173.724 243.874 173.724 244.377V247.706C173.724 248.208 173.536 248.637 173.157 248.993C172.783 249.349 172.363 249.528 171.902 249.528H168.513C168.052 249.528 167.646 249.706 167.289 250.062C166.933 250.418 166.755 250.847 166.755 251.35V254.678C166.755 255.181 166.568 255.61 166.189 255.966C165.81 256.322 165.394 256.5 164.933 256.5H147.608C147.147 256.5 146.731 256.322 146.352 255.966Z" fill="#FAFBFD"/>
<path d="M195.193 268.159C194.819 267.802 194.627 267.373 194.627 266.871V263.542C194.627 263.04 194.449 262.61 194.093 262.254C193.737 261.898 193.307 261.72 192.805 261.72H189.476C188.974 261.72 188.545 261.542 188.188 261.186C187.832 260.829 187.654 260.4 187.654 259.898V235.6C187.654 235.139 187.832 234.719 188.188 234.344C188.545 233.965 188.974 233.778 189.476 233.778H192.805C193.307 233.778 193.737 233.6 194.093 233.244C194.449 232.887 194.627 232.481 194.627 232.02V228.632C194.627 228.17 194.814 227.75 195.193 227.376C195.572 227.001 195.988 226.81 196.449 226.81H213.774C214.235 226.81 214.651 226.997 215.03 227.376C215.404 227.755 215.596 228.17 215.596 228.632V232.02C215.596 232.481 215.774 232.887 216.13 233.244C216.486 233.6 216.893 233.778 217.354 233.778H220.742C221.204 233.778 221.619 233.965 221.998 234.344C222.377 234.719 222.564 235.139 222.564 235.6V259.898C222.564 260.4 222.377 260.829 221.998 261.186C221.624 261.542 221.204 261.72 220.742 261.72H217.354C216.893 261.72 216.486 261.898 216.13 262.254C215.774 262.61 215.596 263.04 215.596 263.542V266.871C215.596 267.373 215.409 267.802 215.03 268.159C214.651 268.515 214.235 268.693 213.774 268.693H196.449C195.988 268.693 195.572 268.515 195.193 268.159ZM206.856 261.724C207.322 261.724 207.733 261.546 208.089 261.19C208.45 260.834 208.628 260.405 208.628 259.902V235.605C208.628 235.143 208.45 234.723 208.089 234.349C207.728 233.97 207.317 233.783 206.856 233.783H203.436C202.97 233.783 202.55 233.97 202.166 234.349C201.787 234.723 201.595 235.143 201.595 235.605V259.902C201.595 260.405 201.783 260.834 202.166 261.19C202.545 261.546 202.97 261.724 203.436 261.724H206.856Z" fill="#FAFBFD"/>
<path d="M237.037 282.904C236.681 282.547 236.503 282.118 236.503 281.616V243.386C236.503 242.925 236.681 242.504 237.037 242.13C237.394 241.751 237.823 241.564 238.325 241.564H248.622C249.125 241.564 249.554 241.751 249.91 242.13C250.266 242.509 250.444 242.925 250.444 243.386V246.774C250.444 247.235 250.632 247.642 251.015 247.998C251.394 248.354 251.819 248.532 252.285 248.532H255.705C256.171 248.532 256.582 248.719 256.938 249.098C257.299 249.473 257.477 249.893 257.477 250.354V253.742C257.477 254.204 257.664 254.624 258.038 254.998C258.413 255.377 258.828 255.564 259.29 255.564H262.664C263.121 255.564 263.541 255.377 263.915 254.998C264.29 254.619 264.477 254.204 264.477 253.742V243.386C264.477 242.925 264.655 242.504 265.007 242.13C265.358 241.756 265.765 241.564 266.226 241.564H269.601C270.057 241.564 270.477 241.751 270.852 242.13C271.226 242.509 271.413 242.925 271.413 243.386V281.616C271.413 282.118 271.226 282.547 270.852 282.904C270.477 283.26 270.062 283.438 269.601 283.438H259.29C258.828 283.438 258.413 283.26 258.038 282.904C257.664 282.547 257.477 282.118 257.477 281.616V271.319C257.477 270.816 257.299 270.387 256.938 270.031C256.577 269.675 256.166 269.497 255.705 269.497H252.285C251.819 269.497 251.399 269.309 251.015 268.93C250.636 268.551 250.444 268.136 250.444 267.675V264.346C250.444 263.843 250.266 263.414 249.91 263.058C249.554 262.702 249.125 262.524 248.622 262.524H245.294C244.832 262.524 244.417 262.702 244.038 263.058C243.663 263.414 243.472 263.843 243.472 264.346V281.611C243.472 282.114 243.293 282.543 242.937 282.899C242.581 283.255 242.152 283.433 241.65 283.433H238.321C237.818 283.433 237.389 283.255 237.033 282.899L237.037 282.904Z" fill="#FAFBFD"/>
<path d="M285.879 288.753C285.523 288.397 285.345 287.968 285.345 287.465V249.235C285.345 248.774 285.523 248.354 285.879 247.98C286.235 247.601 286.664 247.413 287.167 247.413H311.46C311.921 247.413 312.337 247.601 312.716 247.98C313.09 248.359 313.282 248.774 313.282 249.235V252.624C313.282 253.085 313.095 253.491 312.716 253.847C312.337 254.204 311.921 254.382 311.46 254.382H301.103C300.642 254.382 300.227 254.569 299.848 254.948C299.469 255.322 299.281 255.742 299.281 256.204V259.592C299.281 260.053 299.469 260.473 299.848 260.848C300.222 261.227 300.642 261.414 301.103 261.414H311.46C311.921 261.414 312.337 261.592 312.716 261.948C313.09 262.304 313.282 262.711 313.282 263.172V266.56C313.282 267.022 313.095 267.437 312.716 267.816C312.337 268.195 311.921 268.382 311.46 268.382H301.103C300.642 268.382 300.227 268.56 299.848 268.917C299.469 269.273 299.281 269.702 299.281 270.204V287.47C299.281 287.972 299.103 288.402 298.747 288.758C298.391 289.114 297.962 289.292 297.459 289.292H287.162C286.66 289.292 286.231 289.114 285.874 288.758L285.879 288.753Z" fill="#FAFBFD"/>
<path d="M352.403 170.629L338.224 83.5381" stroke="#1A1C1E" stroke-miterlimit="10" stroke-linecap="round" stroke-linejoin="round"/>
<path d="M100.816 170.629L114.995 83.5381" stroke="#1A1C1E" stroke-miterlimit="10" stroke-linecap="round" stroke-linejoin="round"/>
<path d="M321.962 164.045L325.552 170.231L330.447 171.542L340.39 134.436L337.578 129.606L321.962 164.045Z" fill="#1A1C1E" stroke="#1A1C1E" stroke-linecap="round" stroke-linejoin="round"/>
<path d="M263.336 156.478L260.388 158.221L258.342 159.508L261.127 164.33L264.159 165.143L266.974 163.439L267.876 160.07L265.092 155.248L263.336 156.478Z" fill="#1A1C1E" stroke="#1A1C1E" stroke-linecap="round" stroke-linejoin="round"/>
<path d="M255.516 154.429L252.568 156.172L250.521 157.464L253.305 162.287L256.337 163.099L259.152 161.396L260.055 158.027L257.603 153.398L255.516 154.429Z" fill="#1A1C1E" stroke="#1A1C1E" stroke-linecap="round" stroke-linejoin="round"/>
<path d="M296.455 135.459L299.265 133.754L300.167 130.385L297.383 125.562L295.627 126.792L292.679 128.536L290.639 129.824L293.423 134.646L296.455 135.459Z" fill="#1A1C1E" stroke="#1A1C1E" stroke-linecap="round" stroke-linejoin="round"/>
<path d="M307.848 158.166L299.991 156.061L301.827 149.209L298.237 143.024L277.007 140.579L279.791 145.402L291.517 148.543L290.205 153.439L273.176 148.876L276.318 137.151L273.561 132.335L263.412 146.26L252.903 143.444L256.045 131.718L253.261 126.896L239.97 152.569L229.019 152.902L231.804 157.725L243.024 160.732L249.231 157.148L251.073 150.274L310.913 166.308L317.094 162.717L325.732 130.48L322.947 125.657L307.848 158.166Z" fill="#1A1C1E" stroke="#1A1C1E" stroke-linecap="round" stroke-linejoin="round"/>
<path d="M252.731 149.606L249.783 151.349L248.931 154.528L250.521 157.464L253.553 158.276L256.368 156.573L257.27 153.204L255.785 150.424L252.731 149.606Z" fill="#FAFBFD" stroke="#1A1C1E" stroke-linecap="round" stroke-linejoin="round"/>
<path d="M260.551 151.655L257.603 153.398L256.753 156.572L258.342 159.507L261.374 160.32L264.189 158.616L265.092 155.248L263.605 152.473L260.551 151.655Z" fill="#FAFBFD" stroke="#1A1C1E" stroke-linecap="round" stroke-linejoin="round"/>
<path d="M293.671 130.636L296.481 128.931L297.383 125.563L295.902 122.79L292.843 121.97L289.895 123.713L289.044 126.886L290.639 129.824L293.671 130.636Z" fill="#FAFBFD" stroke="#1A1C1E" stroke-linecap="round" stroke-linejoin="round"/>
<path d="M305.063 153.344L297.206 151.239L299.042 144.387L295.453 138.201L278.837 133.749L277.007 140.579L288.732 143.721L287.421 148.616L270.392 144.054L273.534 132.328L263.769 129.712L260.627 141.437L250.119 138.621L253.261 126.896L243.475 124.274L237.185 147.747L230.855 146.051L229.019 152.902L240.24 155.909L246.447 152.325L248.289 145.452L308.129 161.486L314.309 157.894L322.947 125.657L313.183 123.041L305.063 153.344Z" fill="#FAFBFD" stroke="#1A1C1E" stroke-linecap="round" stroke-linejoin="round"/>
<path d="M319.177 159.222L322.767 165.408L327.663 166.72L337.605 129.614L327.814 126.99L319.177 159.222Z" fill="#FAFBFD" stroke="#1A1C1E" stroke-linecap="round" stroke-linejoin="round"/>
<path d="M206.347 111.439L203.399 113.183L201.359 114.471L204.143 119.293L207.175 120.106L209.985 118.401L210.886 115.038L208.436 110.403L206.347 111.439Z" fill="#1A1C1E" stroke="#1A1C1E" stroke-linecap="round" stroke-linejoin="round"/>
<path d="M214.168 113.483L211.22 115.226L209.18 116.514L211.965 121.337L214.997 122.149L217.806 120.444L218.707 117.081L216.038 112.417L214.168 113.483Z" fill="#1A1C1E" stroke="#1A1C1E" stroke-linecap="round" stroke-linejoin="round"/>
<path d="M259.499 85.0147L262.309 83.3099L263.211 79.941L260.427 75.1184L258.671 76.3483L255.722 78.0917L253.677 79.3781L256.462 84.2008L259.499 85.0147Z" fill="#1A1C1E" stroke="#1A1C1E" stroke-linecap="round" stroke-linejoin="round"/>
<path d="M249.576 85.8383L243.376 89.3951L241.514 96.3446L243.594 99.9479L211.355 94.5533L214.14 99.3759L223.904 101.992L222.586 106.91L207.926 102.982L212.386 86.3384L209.601 81.5158L197.611 102.314L201.195 108.522L225.646 115.073L231.853 111.489L233.689 104.638L258.521 111.291L264.728 107.707L267.876 95.9598L264.285 89.7795L249.576 85.8383Z" fill="#1A1C1E" stroke="#1A1C1E" stroke-linecap="round" stroke-linejoin="round"/>
<path d="M203.563 106.617L200.615 108.36L199.764 111.533L201.359 114.471L204.391 115.283L207.201 113.578L208.102 110.215L206.622 107.436L203.563 106.617Z" fill="#FAFBFD" stroke="#1A1C1E" stroke-linecap="round" stroke-linejoin="round"/>
<path d="M211.384 108.66L208.436 110.404L207.584 113.582L209.18 116.514L212.212 117.327L215.022 115.622L215.923 112.258L214.443 109.48L211.384 108.66Z" fill="#FAFBFD" stroke="#1A1C1E" stroke-linecap="round" stroke-linejoin="round"/>
<path d="M246.792 81.0156L240.591 84.5723L238.729 91.5219L240.81 95.1251L213.185 87.7232L211.355 94.5532L221.119 97.1695L219.802 102.087L205.142 98.1588L209.601 81.5157L199.81 78.8921L194.826 97.4913L198.41 103.699L222.861 110.25L229.069 106.667L230.905 99.8148L255.736 106.468L261.944 102.885L265.092 91.1371L261.5 84.9568L246.792 81.0156ZM252.655 98.299L250.601 97.7487L248.499 94.1396L249.83 89.1733L254.747 90.4909L252.655 98.299Z" fill="#FAFBFD" stroke="#1A1C1E" stroke-linecap="round" stroke-linejoin="round"/>
<path d="M256.715 80.1919L259.524 78.4871L260.427 75.1183L258.94 72.3437L255.886 71.5255L252.938 73.2689L252.088 76.4421L253.677 79.378L256.715 80.1919Z" fill="#FAFBFD" stroke="#1A1C1E" stroke-linecap="round" stroke-linejoin="round"/>
<path d="M147.336 52.1777L144.388 53.9211L142.348 55.209L145.132 60.0317L148.164 60.8441L150.974 59.1393L151.876 55.7705L149.207 51.1067L147.336 52.1777Z" fill="#1A1C1E" stroke="#1A1C1E" stroke-linecap="round" stroke-linejoin="round"/>
<path d="M139.516 50.129L136.568 51.8724L134.526 53.1657L137.311 57.9884L140.343 58.8008L143.152 57.096L144.055 53.7272L141.271 48.9045L139.516 50.129Z" fill="#1A1C1E" stroke="#1A1C1E" stroke-linecap="round" stroke-linejoin="round"/>
<path d="M184.514 32.2467L187.324 30.5419L188.227 27.173L186.745 24.4L183.691 23.5817L180.738 25.3237L178.698 26.6116L181.482 31.4342L184.514 32.2467Z" fill="#1A1C1E" stroke="#1A1C1E" stroke-linecap="round" stroke-linejoin="round"/>
<path d="M188.559 27.3668L186.519 28.6547L189.303 33.4773L192.335 34.2897L195.145 32.585L196.046 29.2216L193.262 24.3989L191.512 25.6248L188.559 27.3668Z" fill="#1A1C1E" stroke="#1A1C1E" stroke-linecap="round" stroke-linejoin="round"/>
<path d="M190.567 25.5231L193.377 23.8184L194.278 20.455L191.494 15.6323L189.739 16.8568L186.791 18.6002L184.751 19.8881L187.535 24.7107L190.567 25.5231Z" fill="#1A1C1E" stroke="#1A1C1E" stroke-linecap="round" stroke-linejoin="round"/>
<path d="M206.921 57.9054L201.596 56.4785L204.738 44.7528L201.975 39.936L191.826 53.8608L186.931 52.549L190.072 40.8233L187.288 36.0006L177.145 49.9269L172.249 48.6151L175.391 36.8894L172.628 32.0725L162.479 45.9973L157.182 44.5778L160.323 32.8521L157.561 28.0352L147.412 41.96L136.909 39.1457L140.051 27.42L137.266 22.5973L123.97 48.2696L113 48.615L115.804 53.4252L127.029 56.4331L133.237 52.8493L135.079 45.9757L209.981 66.0457L216.167 62.456L224.805 30.2185L222.02 25.3958L206.921 57.9054Z" fill="#1A1C1E" stroke="#1A1C1E" stroke-linecap="round" stroke-linejoin="round"/>
<path d="M236.651 29.3454L221.029 63.7825L224.619 69.9682L229.515 71.28L239.457 34.1739L236.651 29.3454Z" fill="#1A1C1E" stroke="#1A1C1E" stroke-linecap="round" stroke-linejoin="round"/>
<path d="M144.551 47.3551L141.603 49.0985L140.753 52.2717L142.348 55.2091L145.38 56.0215L148.189 54.3167L149.092 50.9478L147.61 48.1748L144.551 47.3551Z" fill="#FAFBFD" stroke="#1A1C1E" stroke-linecap="round" stroke-linejoin="round"/>
<path d="M136.731 45.3063L133.783 47.0497L132.932 50.2283L134.527 53.1657L137.558 53.9781L140.368 52.2733L141.271 48.9045L139.791 46.126L136.731 45.3063Z" fill="#FAFBFD" stroke="#1A1C1E" stroke-linecap="round" stroke-linejoin="round"/>
<path d="M185.775 22.5443L184.924 25.7175L186.519 28.6549L189.551 29.4673L192.361 27.7625L193.262 24.3991L191.782 21.6206L188.728 20.8023L185.775 22.5443Z" fill="#FAFBFD" stroke="#1A1C1E" stroke-linecap="round" stroke-linejoin="round"/>
<path d="M187.783 20.7004L190.592 18.9956L191.494 15.6322L190.013 12.8537L186.954 12.034L184.006 13.7774L183.155 16.9561L184.751 19.888L187.783 20.7004Z" fill="#FAFBFD" stroke="#1A1C1E" stroke-linecap="round" stroke-linejoin="round"/>
<path d="M181.73 27.4238L184.539 25.719L185.442 22.3502L183.961 19.5771L180.907 18.7589L177.953 20.5008L177.103 23.674L178.698 26.6114L181.73 27.4238Z" fill="#FAFBFD" stroke="#1A1C1E" stroke-linecap="round" stroke-linejoin="round"/>
<path d="M204.136 53.0828L198.811 51.656L201.953 39.9302L192.184 37.3125L189.042 49.0382L184.146 47.7264L187.288 36.0007L177.502 33.3786L174.36 45.1043L169.464 43.7925L172.606 32.0668L162.837 29.449L159.695 41.1747L154.397 39.7552L157.539 28.0295L147.769 25.4117L144.627 37.1374L134.124 34.3231L137.266 22.5974L127.475 19.9738L121.185 43.447L114.855 41.7508L113.019 48.6026L124.245 51.6105L130.452 48.0267L132.294 41.1532L207.196 61.2231L213.382 57.6334L222.02 25.3959L212.256 22.7796L204.136 53.0828Z" fill="#FAFBFD" stroke="#1A1C1E" stroke-linecap="round" stroke-linejoin="round"/>
<path d="M226.882 26.7275L218.245 58.9597L221.835 65.1454L226.73 66.4572L236.673 29.3511L226.882 26.7275Z" fill="#FAFBFD" stroke="#1A1C1E" stroke-linecap="round" stroke-linejoin="round"/>
</g>
<defs>
<clipPath id="clip0_2692_18368">
<rect width="452" height="400" fill="white"/>
</clipPath>
</defs>
</svg>
