<svg width="492" height="400" viewBox="0 0 492 400" fill="none" xmlns="http://www.w3.org/2000/svg">
<path d="M424.574 159.477H419.231C418.397 159.477 417.722 158.802 417.722 157.969V123.025C417.722 122.192 417.047 121.517 416.214 121.517H410.871C410.037 121.517 409.362 120.842 409.362 120.008V104.801C409.362 103.967 408.687 103.292 407.854 103.292H402.511C401.677 103.292 401.003 102.617 401.003 101.784V86.5763C401.003 85.743 400.328 85.068 399.494 85.068H394.151C393.318 85.068 392.643 84.393 392.643 83.5597V76.7081C392.643 75.8748 391.968 75.1998 391.134 75.1998H385.791C384.958 75.1998 384.283 74.5248 384.283 73.6915V68.3482C384.283 67.5149 383.608 66.8399 382.774 66.8399H377.431C376.598 66.8399 375.923 66.1649 375.923 65.3316V59.9884C375.923 59.155 375.248 58.48 374.415 58.48H369.826C368.992 58.48 368.317 57.8051 368.317 56.9717V52.3826C368.317 51.5493 367.642 50.8743 366.809 50.8743H361.466C360.632 50.8743 359.957 50.1993 359.957 49.366V44.0228C359.957 43.1894 359.282 42.5144 358.449 42.5144H351.597C350.764 42.5144 350.089 41.8395 350.089 41.0061V35.6629C350.089 34.8295 349.414 34.1546 348.581 34.1546H333.373C332.54 34.1546 331.865 33.4796 331.865 32.6463V27.303C331.865 26.4697 331.19 25.7947 330.356 25.7947H315.149C314.315 25.7947 313.641 25.1197 313.641 24.2864V18.9431C313.641 18.1098 312.966 17.4348 312.132 17.4348H277.188C276.355 17.4348 275.68 16.7599 275.68 15.9265V10.5833C275.68 9.74993 275.005 9.07495 274.171 9.07495H217.986C217.153 9.07495 216.478 9.74993 216.478 10.5833V15.9265C216.478 16.7599 215.803 17.4348 214.97 17.4348H180.026C179.192 17.4348 178.518 18.1098 178.518 18.9431V24.2864C178.518 25.1197 177.843 25.7947 177.009 25.7947H161.802C160.968 25.7947 160.293 26.4697 160.293 27.303V32.6463C160.293 33.4796 159.618 34.1546 158.785 34.1546H143.577C142.744 34.1546 142.069 34.8295 142.069 35.6629V41.0061C142.069 41.8395 141.394 42.5144 140.561 42.5144H133.709C132.876 42.5144 132.201 43.1894 132.201 44.0228V49.366C132.201 50.1993 131.526 50.8743 130.692 50.8743H125.349C124.516 50.8743 123.841 51.5493 123.841 52.3826V56.9717C123.841 57.8051 123.166 58.48 122.333 58.48H117.743C116.91 58.48 116.235 59.155 116.235 59.9884V65.3316C116.235 66.1649 115.56 66.8399 114.727 66.8399H109.384C108.55 66.8399 107.875 67.5149 107.875 68.3482V73.6915C107.875 74.5248 107.2 75.1998 106.367 75.1998H101.024C100.19 75.1998 99.5154 75.8748 99.5154 76.7081V83.5597C99.5154 84.393 98.8404 85.068 98.007 85.068H92.6638C91.8305 85.068 91.1555 85.743 91.1555 86.5763V101.784C91.1555 102.617 90.4805 103.292 89.6472 103.292H84.3039C83.4706 103.292 82.7956 103.967 82.7956 104.801V120.008C82.7956 120.842 82.1206 121.517 81.2873 121.517H75.9441C75.1107 121.517 74.4357 122.192 74.4357 123.025V157.969C74.4357 158.802 73.7608 159.477 72.9274 159.477H67.603C66.7697 159.477 66.0947 160.152 66.0947 160.986V217.171C66.0947 218.004 66.7697 218.679 67.603 218.679H72.9463C73.7796 218.679 74.4546 219.354 74.4546 220.187V255.131C74.4546 255.965 75.1296 256.64 75.9629 256.64H81.3062C82.1395 256.64 82.8145 257.315 82.8145 258.148V273.356C82.8145 274.189 83.4894 274.864 84.3228 274.864H89.666C90.4994 274.864 91.1743 275.539 91.1743 276.372V291.58C91.1743 292.413 91.8493 293.088 92.6827 293.088H98.0259C98.8592 293.088 99.5342 293.763 99.5342 294.597V301.448C99.5342 302.281 100.209 302.956 101.043 302.956H106.386C107.219 302.956 107.894 303.631 107.894 304.465V309.808C107.894 310.641 108.569 311.316 109.402 311.316H114.746C115.579 311.316 116.254 311.991 116.254 312.825V318.168C116.254 319.001 116.929 319.676 117.762 319.676H122.351C123.185 319.676 123.86 320.351 123.86 321.184V325.774C123.86 326.607 124.535 327.282 125.368 327.282H130.711C131.545 327.282 132.22 327.957 132.22 328.79V334.133C132.22 334.967 132.895 335.642 133.728 335.642H140.579C141.413 335.642 142.088 336.317 142.088 337.15V342.493C142.088 343.327 142.763 344.002 143.596 344.002H158.804C159.637 344.002 160.312 344.677 160.312 345.51V350.853C160.312 351.687 160.987 352.361 161.82 352.361H177.028C177.861 352.361 178.536 353.036 178.536 353.87V359.213C178.536 360.046 179.211 360.721 180.045 360.721H214.989C215.822 360.721 216.497 361.396 216.497 362.23V367.573C216.497 368.406 217.172 369.081 218.005 369.081H274.19C275.024 369.081 275.699 368.406 275.699 367.573V362.23C275.699 361.396 276.374 360.721 277.207 360.721H312.151C312.984 360.721 313.659 360.046 313.659 359.213V353.87C313.659 353.036 314.334 352.361 315.168 352.361H330.375C331.209 352.361 331.884 351.687 331.884 350.853V345.51C331.884 344.677 332.559 344.002 333.392 344.002H348.6C349.433 344.002 350.108 343.327 350.108 342.493V337.15C350.108 336.317 350.783 335.642 351.616 335.642H358.468C359.301 335.642 359.976 334.967 359.976 334.133V328.79C359.976 327.957 360.651 327.282 361.484 327.282H366.828C367.661 327.282 368.336 326.607 368.336 325.774V321.184C368.336 320.351 369.011 319.676 369.844 319.676H374.433C375.267 319.676 375.942 319.001 375.942 318.168V312.825C375.942 311.991 376.617 311.316 377.45 311.316H382.793C383.627 311.316 384.302 310.641 384.302 309.808V304.465C384.302 303.631 384.977 302.956 385.81 302.956H391.153C391.987 302.956 392.661 302.281 392.661 301.448V294.597C392.661 293.763 393.336 293.088 394.17 293.088H399.513C400.346 293.088 401.021 292.413 401.021 291.58V276.372C401.021 275.539 401.696 274.864 402.53 274.864H407.873C408.706 274.864 409.381 274.189 409.381 273.356V258.148C409.381 257.315 410.056 256.64 410.89 256.64H416.233C417.066 256.64 417.741 255.965 417.741 255.131V220.187C417.741 219.354 418.416 218.679 419.249 218.679H424.593C425.426 218.679 426.101 218.004 426.101 217.171V160.986C426.101 160.152 425.426 159.477 424.593 159.477H424.574Z" fill="#F2F4F7"/>
<path d="M244.611 25.2747L221.249 57.6049" stroke="#1A1C1E" stroke-linecap="round" stroke-linejoin="round"/>
<path d="M244.612 30.4658C241.75 30.4658 239.417 28.1373 239.417 25.2704C239.417 22.4035 241.745 20.075 244.612 20.075C247.479 20.075 249.807 22.4035 249.807 25.2704C249.807 28.1373 247.479 30.4658 244.612 30.4658Z" fill="#1A1C1E"/>
<path d="M199.794 36.1509L221.248 57.6057" stroke="#1A1C1E" stroke-linecap="round" stroke-linejoin="round"/>
<path d="M199.796 41.346C196.934 41.346 194.601 39.0174 194.601 36.1505C194.601 33.2836 196.929 30.9551 199.796 30.9551C202.663 30.9551 204.992 33.2836 204.992 36.1505C204.992 39.0174 202.663 41.346 199.796 41.346Z" fill="#1A1C1E"/>
<path d="M421.243 230.746H385.265V89.7469H421.243C434.461 89.7469 445.197 100.479 445.197 113.701V206.797C445.197 220.014 434.465 230.751 421.243 230.751V230.746Z" fill="#C3CAD4" stroke="#1A1C1E" stroke-miterlimit="10" stroke-linejoin="round"/>
<path d="M322.546 265.176H395.681C411.819 265.176 424.902 252.094 424.902 235.955V84.5382C424.902 68.4 411.819 55.3171 395.681 55.3171H322.546V265.181V265.176Z" fill="#E2E7EE" stroke="#1A1C1E" stroke-miterlimit="10" stroke-linejoin="round"/>
<path d="M103.53 265.181L349.847 265.181C365.985 265.181 379.068 252.098 379.068 235.96V84.5379C379.068 68.3996 365.985 55.3169 349.847 55.3169L103.53 55.3169C87.3914 55.3169 74.3087 68.3996 74.3087 84.5379V235.96C74.3087 252.098 87.3914 265.181 103.53 265.181Z" fill="#FAFBFD" stroke="#1A1C1E" stroke-miterlimit="10" stroke-linejoin="round"/>
<path d="M368.427 235.96V84.5379C368.427 74.277 360.109 65.959 349.849 65.959L103.531 65.959C93.2707 65.959 84.9526 74.277 84.9526 84.5379V235.96C84.9526 246.22 93.2707 254.538 103.531 254.538L349.849 254.538C360.109 254.538 368.427 246.22 368.427 235.96Z" fill="#E2E7EE" stroke="#1A1C1E" stroke-miterlimit="10" stroke-linejoin="round"/>
<path d="M274.064 224.021L274.782 216.264C278.147 179.9 278.21 143.303 274.961 106.926L274.037 96.5668C273.557 91.1739 269.25 86.9117 263.848 86.4899L235.21 84.2511C203.912 81.8059 172.475 81.8059 141.181 84.2511L112.525 86.4899C107.132 86.9117 102.83 91.1604 102.341 96.5488L101.515 105.625C98.2085 141.984 98.2085 178.568 101.515 214.927L102.341 224.003C102.83 229.392 107.132 233.64 112.525 234.062L141.181 236.301C172.479 238.746 203.917 238.746 235.21 236.301L263.88 234.062C269.263 233.64 273.566 229.401 274.064 224.021Z" fill="#292D33" stroke="#1A1C1E" stroke-linejoin="round"/>
<path d="M136.577 176.881C136.577 175.776 137.472 174.881 138.577 174.881H144.34C145.445 174.881 146.34 175.776 146.34 176.881V180.643C146.34 181.748 147.235 182.643 148.34 182.643H228.046C229.15 182.643 230.046 181.748 230.046 180.643V176.881C230.046 175.776 230.941 174.881 232.046 174.881H237.809C238.913 174.881 239.809 175.776 239.809 176.881V182.644C239.809 183.748 238.913 184.644 237.809 184.644H234.046C232.942 184.644 232.046 185.539 232.046 186.644V190.406C232.046 191.511 231.151 192.406 230.046 192.406H146.34C145.235 192.406 144.34 191.511 144.34 190.406V186.644C144.34 185.539 143.444 184.644 142.34 184.644H138.577C137.472 184.644 136.577 183.748 136.577 182.644V176.881Z" fill="#FAFBFD"/>
<path d="M143.38 130.146C143.38 129.042 144.275 128.146 145.38 128.146H151.143C152.247 128.146 153.143 129.042 153.143 130.146V133.909C153.143 135.013 154.038 135.909 155.143 135.909H158.985C160.089 135.909 160.985 136.804 160.985 137.909V141.671C160.985 142.776 161.88 143.671 162.985 143.671H166.747C167.852 143.671 168.747 144.566 168.747 145.671V151.434C168.747 152.539 167.852 153.434 166.747 153.434H160.984C159.88 153.434 158.984 152.539 158.984 151.434V147.672C158.984 146.567 158.089 145.672 156.984 145.672H153.222C152.117 145.672 151.222 144.776 151.222 143.672V139.909C151.222 138.805 150.326 137.909 149.222 137.909H147.38C146.275 137.909 145.38 138.805 145.38 139.909V143.672C145.38 144.776 144.484 145.672 143.38 145.672H139.618C138.513 145.672 137.618 146.567 137.618 147.672V151.434C137.618 152.539 136.722 153.434 135.618 153.434H129.855C128.75 153.434 127.855 152.539 127.855 151.434V145.671C127.855 144.566 128.75 143.671 129.855 143.671H133.617C134.721 143.671 135.617 142.776 135.617 141.671V137.909C135.617 136.804 136.512 135.909 137.617 135.909H141.38C142.484 135.909 143.38 135.013 143.38 133.909V130.146Z" fill="#FAFBFD"/>
<path d="M223.244 130.146C223.244 129.042 224.14 128.146 225.244 128.146H231.007C232.112 128.146 233.007 129.042 233.007 130.146V133.909C233.007 135.013 233.903 135.909 235.007 135.909H238.77C239.874 135.909 240.77 136.804 240.77 137.909V141.671C240.77 142.776 241.665 143.671 242.77 143.671H246.532C247.637 143.671 248.532 144.566 248.532 145.671V151.434C248.532 152.539 247.637 153.434 246.532 153.434H240.769C239.664 153.434 238.769 152.539 238.769 151.434V147.672C238.769 146.567 237.874 145.672 236.769 145.672H233.007C231.902 145.672 231.007 144.776 231.007 143.672V139.909C231.007 138.805 230.111 137.909 229.007 137.909H227.245C226.14 137.909 225.245 138.805 225.245 139.909V143.672C225.245 144.776 224.349 145.672 223.245 145.672H219.402C218.297 145.672 217.402 146.567 217.402 147.672V151.434C217.402 152.539 216.506 153.434 215.402 153.434H209.639C208.534 153.434 207.639 152.539 207.639 151.434V145.671C207.639 144.566 208.534 143.671 209.639 143.671H213.482C214.586 143.671 215.482 142.776 215.482 141.671V137.909C215.482 136.804 216.377 135.909 217.482 135.909H221.244C222.349 135.909 223.244 135.013 223.244 133.909V130.146Z" fill="#FAFBFD"/>
<path d="M302.912 239.342H345.889C350.151 239.342 353.606 235.888 353.606 231.625L353.642 88.8583C353.642 84.596 350.187 81.1414 345.925 81.1369L302.939 81.1279C298.677 81.1279 295.222 84.5826 295.217 88.8448L295.195 231.621C295.195 235.883 298.65 239.338 302.912 239.338V239.342Z" fill="#E2E7EE" stroke="#1A1C1E" stroke-miterlimit="10" stroke-linejoin="round"/>
<path d="M299.112 239.342H342.089C346.351 239.342 349.806 235.888 349.806 231.625L349.842 88.8583C349.842 84.596 346.387 81.1414 342.125 81.1369L299.139 81.1279C294.877 81.1279 291.422 84.5826 291.417 88.8448L291.395 231.621C291.395 235.883 294.85 239.338 299.112 239.338V239.342Z" fill="#FAFBFD" stroke="#1A1C1E" stroke-miterlimit="10" stroke-linejoin="round"/>
<path d="M299.386 141.607C299.386 143.76 301.136 145.51 303.289 145.51C305.443 145.51 307.193 143.76 307.193 141.607C307.193 139.453 305.443 137.704 303.289 137.704C301.136 137.704 299.386 139.453 299.386 141.607Z" fill="#1A1C1E" stroke="#1A1C1E" stroke-miterlimit="10" stroke-linejoin="round"/>
<path d="M332.288 141.607C332.288 143.76 334.038 145.51 336.192 145.51C338.345 145.51 340.095 143.76 340.095 141.607C340.095 139.453 338.345 137.704 336.192 137.704C334.038 137.704 332.288 139.453 332.288 141.607Z" fill="#1A1C1E" stroke="#1A1C1E" stroke-miterlimit="10" stroke-linejoin="round"/>
<path d="M315.837 141.607C315.837 143.76 317.587 145.51 319.74 145.51C321.894 145.51 323.644 143.76 323.644 141.607C323.644 139.453 321.894 137.704 319.74 137.704C317.587 137.704 315.837 139.453 315.837 141.607Z" fill="#1A1C1E" stroke="#1A1C1E" stroke-miterlimit="10" stroke-linejoin="round"/>
<path d="M297.554 141.607C297.554 143.76 299.304 145.51 301.458 145.51C303.611 145.51 305.361 143.76 305.361 141.607C305.361 139.453 303.611 137.704 301.458 137.704C299.304 137.704 297.554 139.453 297.554 141.607Z" fill="#FAFBFD" stroke="#1A1C1E" stroke-miterlimit="10" stroke-linejoin="round"/>
<path d="M330.452 141.607C330.452 143.76 332.202 145.51 334.355 145.51C336.509 145.51 338.259 143.76 338.259 141.607C338.259 139.453 336.509 137.704 334.355 137.704C332.202 137.704 330.452 139.453 330.452 141.607Z" fill="#FAFBFD" stroke="#1A1C1E" stroke-miterlimit="10" stroke-linejoin="round"/>
<path d="M314.006 141.607C314.006 143.76 315.756 145.51 317.909 145.51C320.063 145.51 321.812 143.76 321.812 141.607C321.812 139.453 320.063 137.704 317.909 137.704C315.756 137.704 314.006 139.453 314.006 141.607Z" fill="#FAFBFD" stroke="#1A1C1E" stroke-miterlimit="10" stroke-linejoin="round"/>
<path d="M319.242 91.3125C319.242 92.1784 319.946 92.8828 320.812 92.8828C321.678 92.8828 322.383 92.1784 322.383 91.3125C322.383 90.4466 321.678 89.7422 320.812 89.7422C319.946 89.7422 319.242 90.4466 319.242 91.3125Z" fill="#1A1C1E"/>
<path d="M308.685 93.6902C308.685 94.5561 309.389 95.2605 310.255 95.2605C311.121 95.2605 311.826 94.5561 311.826 93.6902C311.826 92.8243 311.121 92.1199 310.255 92.1199C309.389 92.1199 308.685 92.8243 308.685 93.6902Z" fill="#1A1C1E"/>
<path d="M301.273 103.238C302.14 103.238 302.843 102.535 302.843 101.667C302.843 100.8 302.14 100.097 301.273 100.097C300.406 100.097 299.703 100.8 299.703 101.667C299.703 102.535 300.406 103.238 301.273 103.238Z" fill="#1A1C1E"/>
<path d="M298.894 113.749C299.761 113.749 300.464 113.046 300.464 112.179C300.464 111.312 299.761 110.609 298.894 110.609C298.026 110.609 297.323 111.312 297.323 112.179C297.323 113.046 298.026 113.749 298.894 113.749Z" fill="#1A1C1E"/>
<path d="M301.223 122.826C301.223 123.692 301.927 124.396 302.793 124.396C303.659 124.396 304.363 123.692 304.363 122.826C304.363 121.96 303.659 121.256 302.793 121.256C301.927 121.256 301.223 121.96 301.223 122.826Z" fill="#1A1C1E"/>
<path d="M330.605 96.0234C331.472 96.0234 332.175 95.3204 332.175 94.4531C332.175 93.5859 331.472 92.8828 330.605 92.8828C329.738 92.8828 329.035 93.5859 329.035 94.4531C329.035 95.3204 329.738 96.0234 330.605 96.0234Z" fill="#1A1C1E"/>
<path d="M339.637 101.667C339.637 102.533 338.932 103.238 338.066 103.238C337.2 103.238 336.496 102.533 336.496 101.667C336.496 100.802 337.2 100.097 338.066 100.097C338.932 100.097 339.637 100.802 339.637 101.667Z" fill="#1A1C1E"/>
<path d="M342.772 112.179C342.772 113.045 342.068 113.749 341.202 113.749C340.336 113.749 339.632 113.045 339.632 112.179C339.632 111.313 340.336 110.609 341.202 110.609C342.068 110.609 342.772 111.313 342.772 112.179Z" fill="#1A1C1E"/>
<path d="M339.637 122.063C339.637 122.929 338.932 123.634 338.066 123.634C337.2 123.634 336.496 122.929 336.496 122.063C336.496 121.198 337.2 120.493 338.066 120.493C338.932 120.493 339.637 121.198 339.637 122.063Z" fill="#1A1C1E"/>
<path d="M320.813 123.275C327.196 123.275 332.37 118.211 332.37 111.964C332.37 105.718 327.196 100.654 320.813 100.654C314.43 100.654 309.255 105.718 309.255 111.964C309.255 118.211 314.43 123.275 320.813 123.275Z" fill="#E2E7EE" stroke="#1A1C1E" stroke-miterlimit="10" stroke-linejoin="round"/>
<path d="M318.528 123.275C324.911 123.275 330.086 118.211 330.086 111.964C330.086 105.718 324.911 100.654 318.528 100.654C312.145 100.654 306.971 105.718 306.971 111.964C306.971 118.211 312.145 123.275 318.528 123.275Z" fill="#FAFBFD" stroke="#1A1C1E" stroke-miterlimit="10" stroke-linejoin="round"/>
<path d="M324.576 124.787C325.343 124.423 325.675 123.508 325.312 122.741L314.535 99.8818C314.172 99.1146 313.256 98.7826 312.489 99.146C311.722 99.5094 311.39 100.425 311.753 101.192L322.53 124.051C322.894 124.818 323.809 125.15 324.576 124.787Z" fill="#1A1C1E"/>
<path d="M343.475 158.485H341.752V226.031H343.475V158.485Z" fill="#1A1C1E"/>
<path d="M339.812 158.485H338.089V226.031H339.812V158.485Z" fill="#1A1C1E"/>
<path d="M336.149 158.485H334.426V226.031H336.149V158.485Z" fill="#1A1C1E"/>
<path d="M332.492 158.485H330.769V226.031H332.492V158.485Z" fill="#1A1C1E"/>
<path d="M328.829 158.485H327.111V226.031H328.829V158.485Z" fill="#1A1C1E"/>
<path d="M325.162 158.485H323.439V226.031H325.162V158.485Z" fill="#1A1C1E"/>
<path d="M321.508 158.485H319.785V226.031H321.508V158.485Z" fill="#1A1C1E"/>
<path d="M317.845 158.485H316.122V226.031H317.845V158.485Z" fill="#1A1C1E"/>
<path d="M314.182 158.485H312.459V226.031H314.182V158.485Z" fill="#1A1C1E"/>
<path d="M310.523 158.485H308.796V226.031H310.523V158.485Z" fill="#1A1C1E"/>
<path d="M306.856 158.485H305.134V226.031H306.856V158.485Z" fill="#1A1C1E"/>
<path d="M303.198 158.485H301.475V226.031H303.198V158.485Z" fill="#1A1C1E"/>
<path d="M297.812 226.031H299.531V158.485H297.812V226.031Z" fill="#1A1C1E"/>
<path d="M444.53 260.824H428.571L438.293 285.131H444.53C450.116 285.131 454.661 289.676 454.661 295.262C454.661 297.279 454.068 299.156 453.052 300.731C451.249 303.536 448.103 305.393 444.53 305.393H391.464V329.7H444.53C444.681 329.7 444.827 329.7 444.973 329.695C463.757 329.461 478.968 314.104 478.968 295.262C478.968 276.42 463.519 260.824 444.53 260.824Z" fill="#FAFBFD" stroke="#1A1C1E" stroke-miterlimit="10" stroke-linejoin="round"/>
<path d="M415.95 254.699H418.366C430.301 254.699 439.989 264.388 439.989 276.322C439.989 288.257 430.301 297.945 418.366 297.945H415.95V254.699Z" fill="#C3CAD4" stroke="#1A1C1E" stroke-miterlimit="10" stroke-linejoin="round"/>
<path d="M220.124 234.626L215.371 236.474C213.539 237.187 212.632 239.249 213.344 241.081C214.056 242.912 216.119 243.82 217.95 243.107L222.703 241.259C224.535 240.547 225.442 238.485 224.73 236.653C224.018 234.821 221.955 233.914 220.124 234.626Z" fill="#83ADA0" stroke="#1A1C1E" stroke-miterlimit="10" stroke-linejoin="round"/>
<path d="M204.803 297.941H204.434C192.499 297.941 182.811 288.252 182.811 276.318C182.811 264.383 192.499 254.695 204.434 254.695H204.803V297.941Z" fill="#E2E7EE" stroke="#1A1C1E" stroke-miterlimit="10" stroke-linejoin="round"/>
<path d="M405.824 245.516C368.552 222.736 264.466 222.683 227.039 245.516C200.312 263.255 202.499 299.939 210.763 317.435C219.023 334.926 229.713 345.859 255.468 347.803C281.223 349.748 303.838 323.02 316.448 323.02C329.059 323.02 351.644 349.748 377.4 347.803C403.155 345.859 413.845 334.926 422.104 317.435C430.364 299.944 432.551 263.255 405.829 245.521L405.824 245.516Z" fill="#29AE86" stroke="#1A1C1E" stroke-miterlimit="10" stroke-linejoin="round"/>
<path d="M388.863 245.516C351.592 222.736 247.506 222.683 210.079 245.516C183.351 263.255 185.539 299.939 193.803 317.435C202.062 334.926 212.752 345.859 238.508 347.803C264.263 349.748 286.878 323.02 299.488 323.02C312.098 323.02 334.684 349.748 360.439 347.803C386.194 345.859 396.884 334.926 405.144 317.435C413.403 299.944 415.591 263.255 388.868 245.521L388.863 245.516Z" fill="#83ADA0" stroke="#1A1C1E" stroke-miterlimit="10" stroke-linejoin="round"/>
<path d="M355.466 342.796C342.073 342.796 329.04 334.43 318.569 327.711C310.042 322.238 303.309 317.916 297.218 317.916C291.127 317.916 284.389 322.238 275.857 327.711C265.376 334.435 252.333 342.801 238.936 342.801C238.124 342.801 237.307 342.772 236.51 342.709C212.052 340.861 202.427 330.516 194.829 314.416C191.397 307.143 188.368 294.436 190.167 280.576C191.489 270.392 195.962 256.328 209.768 247.13C226.544 236.931 260.029 230.597 297.194 230.597C334.397 230.597 367.892 236.931 384.634 247.135C398.44 256.328 402.917 270.392 404.235 280.576C406.034 294.441 403.005 307.148 399.573 314.416C391.97 330.512 382.344 340.861 357.892 342.709C357.095 342.767 356.278 342.801 355.466 342.801V342.796Z" fill="#FAFBFD"/>
<path d="M253.932 292.549V287.314C253.932 286.385 253.179 285.632 252.25 285.632H247.015C246.086 285.632 245.333 284.878 245.333 283.95V280.396C245.333 279.468 246.086 278.714 247.015 278.714H252.25C253.179 278.714 253.932 277.961 253.932 277.032V271.796C253.932 270.868 254.686 270.114 255.614 270.114H260.85C261.779 270.114 262.532 269.361 262.532 268.432V261.51C262.532 260.581 261.779 259.828 260.85 259.828H253.928C252.999 259.828 252.246 260.581 252.246 261.51V266.746C252.246 267.674 251.492 268.428 250.564 268.428H245.328C244.399 268.428 243.646 269.181 243.646 270.11V275.345C243.646 276.274 242.892 277.027 241.964 277.027H238.41C237.482 277.027 236.728 276.274 236.728 275.345V270.11C236.728 269.181 235.975 268.428 235.046 268.428H229.811C228.882 268.428 228.129 267.674 228.129 266.746V261.51C228.129 260.581 227.375 259.828 226.447 259.828H219.529C218.6 259.828 217.847 260.581 217.847 261.51V268.432C217.847 269.361 218.6 270.114 219.529 270.114H224.765C225.693 270.114 226.447 270.868 226.447 271.796V277.032C226.447 277.961 227.2 278.714 228.129 278.714H233.364C234.293 278.714 235.046 279.468 235.046 280.396V283.95C235.046 284.878 234.293 285.632 233.364 285.632H228.129C227.2 285.632 226.447 286.385 226.447 287.314V292.549C226.447 293.478 225.693 294.231 224.765 294.231H219.529C218.6 294.231 217.847 294.985 217.847 295.913V302.831C217.847 303.76 218.6 304.513 219.529 304.513H226.451C227.38 304.513 228.133 303.76 228.133 302.831V297.595C228.133 296.667 228.887 295.913 229.815 295.913H235.051C235.98 295.913 236.733 295.16 236.733 294.231V288.996C236.733 288.067 237.487 287.314 238.415 287.314H241.969C242.897 287.314 243.651 288.067 243.651 288.996V294.231C243.651 295.16 244.404 295.913 245.333 295.913H250.568C251.497 295.913 252.25 296.667 252.25 297.595V302.831C252.25 303.76 253.004 304.513 253.932 304.513H260.85C261.779 304.513 262.532 303.76 262.532 302.831V295.909C262.532 294.98 261.779 294.227 260.85 294.227H255.614C254.686 294.227 253.932 293.473 253.932 292.545V292.549Z" fill="#292D33"/>
<path d="M348.509 292.549V287.314C348.509 286.385 347.756 285.632 346.827 285.632H341.592C340.663 285.632 339.91 284.878 339.91 283.95V280.396C339.91 279.468 340.663 278.714 341.592 278.714H346.827C347.756 278.714 348.509 277.961 348.509 277.032V271.796C348.509 270.868 349.263 270.114 350.191 270.114H355.427C356.356 270.114 357.109 269.361 357.109 268.432V261.51C357.109 260.581 356.356 259.828 355.427 259.828H348.505C347.576 259.828 346.823 260.581 346.823 261.51V266.746C346.823 267.674 346.069 268.428 345.14 268.428H339.905C338.976 268.428 338.223 269.181 338.223 270.11V275.345C338.223 276.274 337.469 277.027 336.541 277.027H332.987C332.059 277.027 331.305 276.274 331.305 275.345V270.11C331.305 269.181 330.552 268.428 329.623 268.428H324.388C323.459 268.428 322.705 267.674 322.705 266.746V261.51C322.705 260.581 321.952 259.828 321.023 259.828H314.106C313.177 259.828 312.424 260.581 312.424 261.51V268.432C312.424 269.361 313.177 270.114 314.106 270.114H319.341C320.27 270.114 321.023 270.868 321.023 271.796V277.032C321.023 277.961 321.777 278.714 322.705 278.714H327.941C328.87 278.714 329.623 279.468 329.623 280.396V283.95C329.623 284.878 328.87 285.632 327.941 285.632H322.705C321.777 285.632 321.023 286.385 321.023 287.314V292.549C321.023 293.478 320.27 294.231 319.341 294.231H314.106C313.177 294.231 312.424 294.985 312.424 295.913V302.831C312.424 303.76 313.177 304.513 314.106 304.513H321.028C321.957 304.513 322.71 303.76 322.71 302.831V297.595C322.71 296.667 323.464 295.913 324.392 295.913H329.628C330.557 295.913 331.31 295.16 331.31 294.231V288.996C331.31 288.067 332.064 287.314 332.992 287.314H336.546C337.474 287.314 338.228 288.067 338.228 288.996V294.231C338.228 295.16 338.981 295.913 339.91 295.913H345.145C346.074 295.913 346.827 296.667 346.827 297.595V302.831C346.827 303.76 347.581 304.513 348.509 304.513H355.427C356.356 304.513 357.109 303.76 357.109 302.831V295.909C357.109 294.98 356.356 294.227 355.427 294.227H350.191C349.263 294.227 348.509 293.473 348.509 292.545V292.549Z" fill="#292D33"/>
<path d="M203.825 270.448C203.069 268.353 201.064 266.847 198.711 266.841L46.3002 266.46C43.9473 266.454 41.9368 267.948 41.1708 270.04C40.9595 270.62 40.8461 271.244 40.8469 271.891L40.614 362.68C40.6088 365.679 43.0395 368.129 46.0458 368.138L198.458 368.523C201.459 368.533 203.906 366.093 203.916 363.091L204.143 272.299C204.142 271.652 204.034 271.028 203.825 270.448Z" fill="#F2F4F7"/>
<path d="M210.485 268.82C209.705 266.651 207.626 265.093 205.193 265.088L194.745 265.061C192.311 265.055 190.228 266.6 189.433 268.766C189.215 269.363 189.097 270.01 189.094 270.68L188.856 364.63C188.846 367.733 191.364 370.268 194.473 370.276L204.92 370.302C208.029 370.311 210.562 367.788 210.567 364.685L210.804 270.735C210.808 270.065 210.69 269.423 210.475 268.822L210.485 268.82Z" fill="#C3CAD4" stroke="#1A1C1E" stroke-miterlimit="10" stroke-linejoin="round"/>
<path d="M206.655 268.816C205.874 266.647 203.796 265.09 201.362 265.084L43.6553 264.683C41.2215 264.677 39.1386 266.222 38.3435 268.387C38.1262 268.985 38.0081 269.631 38.0042 270.301L37.7714 364.25C37.7617 367.354 40.2797 369.888 43.3883 369.896L201.099 370.291C204.208 370.299 206.74 367.776 206.745 364.674L206.983 270.724C206.987 270.054 206.869 269.411 206.654 268.811L206.655 268.816ZM157.444 317.585C151.579 317.571 146.832 312.797 146.846 306.932C146.858 301.061 151.632 296.314 157.497 296.328C163.368 296.34 168.115 301.114 168.096 306.981C168.084 312.852 163.31 317.599 157.443 317.58L157.444 317.585ZM87.3039 317.406C81.4329 317.394 76.6862 312.62 76.705 306.753C76.7174 300.882 81.4911 296.135 87.3583 296.154C93.2242 296.168 97.971 300.942 97.9572 306.808C97.9447 312.678 93.1711 317.425 87.3052 317.411L87.3039 317.406ZM81.8625 367.342C80.1035 367.339 78.6794 365.908 78.6827 364.149C78.6859 362.39 80.115 360.961 81.8754 360.969C83.6343 360.973 85.0598 362.408 85.0566 364.167C85.0533 365.926 83.6178 367.352 81.8575 367.343L81.8625 367.342ZM122.288 353.172C120.524 353.17 119.1 351.739 119.108 349.979C119.112 348.22 120.541 346.791 122.306 346.798C124.065 346.801 125.49 348.237 125.482 349.997C125.479 351.756 124.048 353.18 122.29 353.177L122.288 353.172ZM100.694 319.778L100.733 303.944L144.089 304.051L144.05 319.885L100.694 319.778ZM162.639 367.545C160.88 367.542 159.451 366.113 159.459 364.352C159.463 362.593 160.898 361.168 162.657 361.171C164.416 361.174 165.842 362.61 165.833 364.37C165.825 366.131 164.4 367.553 162.641 367.55L162.639 367.545Z" fill="#E2E7EE" stroke="#1A1C1E" stroke-miterlimit="10" stroke-linejoin="round"/>
<path d="M169.702 370.215L179.33 370.24L179.209 369.706L173.873 346.312L173.768 345.839C173.48 344.562 172.346 343.653 171.035 343.648L162.103 343.625L169.712 370.212L169.702 370.215Z" fill="#1A1C1E" stroke="#1A1C1E" stroke-miterlimit="10" stroke-linejoin="round"/>
<path d="M176.72 369.699L171.38 346.306L171.274 345.832C170.982 344.541 169.858 343.645 168.536 343.643L76.0919 343.412C74.7702 343.41 73.6391 344.301 73.3423 345.588L73.2315 346.06L67.7778 369.422L67.6502 369.953L176.84 370.227L176.719 369.694L176.72 369.699ZM81.866 367.336C80.107 367.332 78.6828 365.902 78.6861 364.143C78.6894 362.384 80.1185 360.955 81.8788 360.963C83.6378 360.966 85.0633 362.402 85.06 364.161C85.0568 365.92 83.6213 367.345 81.8609 367.337L81.866 367.336ZM122.292 353.165C120.528 353.163 119.103 351.733 119.112 349.973C119.115 348.214 120.544 346.784 122.309 346.791C124.075 346.798 125.494 348.23 125.486 349.99C125.482 351.749 124.052 353.174 122.293 353.17L122.292 353.165ZM162.638 367.54C160.879 367.537 159.449 366.107 159.458 364.347C159.461 362.588 160.897 361.163 162.656 361.166C164.415 361.169 165.84 362.605 165.832 364.365C165.828 366.124 164.398 367.548 162.639 367.545L162.638 367.54Z" fill="#FAFBFD" stroke="#1A1C1E" stroke-miterlimit="10" stroke-linejoin="round"/>
<path d="M80.586 364.152C80.5896 365.587 81.5422 366.802 82.8497 367.196C82.5563 367.285 82.2459 367.336 81.9224 367.336C80.1634 367.339 78.7329 365.915 78.7246 364.155C78.7214 362.396 80.1455 360.965 81.9059 360.957C82.2293 360.957 82.5407 361.003 82.8348 361.093C81.5304 361.493 80.5786 362.71 80.5823 364.145L80.586 364.152Z" fill="#1A1C1E" stroke="#1A1C1E" stroke-miterlimit="10" stroke-linejoin="round"/>
<path d="M161.312 364.357C161.316 365.793 162.268 367.008 163.576 367.402C163.283 367.49 162.972 367.542 162.649 367.541C160.89 367.545 159.459 366.121 159.451 364.36C159.448 362.601 160.872 361.171 162.632 361.162C162.956 361.163 163.267 361.208 163.561 361.298C162.257 361.698 161.305 362.915 161.309 364.351L161.312 364.357Z" fill="#1A1C1E" stroke="#1A1C1E" stroke-miterlimit="10" stroke-linejoin="round"/>
<path d="M121.006 349.983C121.009 351.418 121.962 352.634 123.269 353.027C122.976 353.116 122.666 353.167 122.342 353.167C120.583 353.17 119.153 351.746 119.144 349.986C119.141 348.227 120.565 346.796 122.326 346.788C122.649 346.788 122.96 346.834 123.255 346.924C121.95 347.324 120.998 348.541 121.002 349.976L121.006 349.983Z" fill="#1A1C1E" stroke="#1A1C1E" stroke-miterlimit="10" stroke-linejoin="round"/>
<path d="M157.506 293.985L87.3654 293.806C80.2143 293.786 74.3856 299.587 74.3656 306.738C74.3456 313.889 80.1463 319.718 87.2974 319.738L100.687 319.774L100.727 303.94L144.083 304.048L144.043 319.881L157.433 319.918C164.584 319.938 170.413 314.137 170.433 306.986C170.453 299.835 164.652 294.006 157.501 293.986L157.506 293.985ZM87.314 315.915C82.2732 315.901 78.1846 311.793 78.1984 306.752C78.2135 301.716 82.3208 297.623 87.3616 297.636C92.3973 297.651 96.4909 301.759 96.4772 306.799C96.4634 311.84 92.3547 315.929 87.314 315.915ZM157.455 316.094C152.419 316.078 148.325 311.971 148.339 306.93C148.354 301.895 152.461 297.801 157.502 297.815C162.543 297.828 166.638 301.941 166.623 306.977C166.609 312.017 162.5 316.106 157.455 316.094Z" fill="#83ADA0" stroke="#1A1C1E" stroke-miterlimit="10" stroke-linejoin="round"/>
<path d="M119.064 303.984L100.731 303.934L100.691 319.768L116.574 319.81C118.265 315.938 119.202 311.664 119.216 307.168C119.219 306.094 119.166 305.029 119.067 303.977L119.064 303.984Z" fill="#292D33"/>
<path d="M133.246 304.018C133.105 305.064 133.033 306.124 133.031 307.203C133.021 311.833 134.294 316.162 136.519 319.859L144.048 319.88L144.088 304.046L133.24 304.019L133.246 304.018Z" fill="#292D33"/>
<path d="M87.3546 297.207C82.0712 297.193 77.7799 301.466 77.7664 306.749C77.7529 312.033 82.0253 316.324 87.3087 316.337C92.592 316.351 96.8834 312.078 96.8969 306.795C96.9103 301.512 92.6379 297.22 87.3546 297.207ZM94.2265 309.549L92.9478 308.802L91.8819 310.641L93.1592 311.383C91.9973 312.843 90.3073 313.862 88.3735 314.132L88.375 312.649L86.2483 312.642L86.2467 314.125C84.3162 313.844 82.6285 312.819 81.4741 311.348L82.7544 310.612L81.6948 308.771L80.4095 309.509C80.0666 308.651 79.8816 307.719 79.8854 306.748C79.888 305.771 80.0808 304.84 80.4241 303.988L81.7028 304.735L82.7686 302.896L81.4913 302.154C82.6532 300.694 84.3432 299.675 86.2771 299.405L86.2755 300.888L88.4022 300.895L88.4038 299.412C90.3343 299.693 92.022 300.718 93.1764 302.189L91.8961 302.925L92.9557 304.766L94.241 304.028C94.5826 304.881 94.7689 305.818 94.7651 306.789C94.7625 307.766 94.5697 308.697 94.2265 309.549Z" fill="#1A1C1E"/>
<path d="M157.5 297.384C152.217 297.37 147.925 301.643 147.912 306.926C147.898 312.21 152.171 316.501 157.454 316.514C162.738 316.528 167.029 312.255 167.042 306.972C167.056 301.689 162.783 297.397 157.5 297.384ZM164.372 309.726L163.093 308.979L162.027 310.818L163.305 311.56C162.143 313.02 160.453 314.039 158.519 314.309L158.521 312.826L156.394 312.819L156.392 314.302C154.462 314.021 152.774 312.996 151.62 311.525L152.9 310.789L151.84 308.948L150.555 309.686C150.212 308.828 150.027 307.896 150.031 306.925C150.033 305.948 150.226 305.017 150.57 304.165L151.848 304.912L152.914 303.073L151.637 302.331C152.799 300.871 154.489 299.852 156.423 299.582L156.421 301.065L158.548 301.072L158.549 299.589C160.48 299.87 162.168 300.895 163.322 302.366L162.042 303.102L163.101 304.943L164.386 304.205C164.728 305.058 164.914 305.995 164.911 306.966C164.908 307.943 164.715 308.874 164.372 309.726Z" fill="#1A1C1E"/>
<path d="M199.756 270.923L45.2334 270.532C44.4727 270.531 43.85 271.145 43.8502 271.911L43.6206 362.672C43.6195 363.433 44.239 364.054 44.9997 364.055L61.934 364.096C62.8779 364.097 63.7036 363.455 63.9384 362.54L69.0185 342.433C69.7435 339.563 72.3279 337.555 75.2862 337.566L169.365 337.802C172.322 337.807 174.898 339.83 175.608 342.703L180.588 362.838C180.813 363.759 181.638 364.401 182.583 364.407L199.517 364.448C200.278 364.449 200.901 363.834 200.9 363.069L201.13 272.308C201.131 271.547 200.517 270.924 199.751 270.925L199.756 270.923ZM170.155 299.165C170.68 300.017 171.122 300.923 171.464 301.877C172.043 303.475 172.352 305.193 172.354 306.989C172.353 307.189 172.346 307.384 172.34 307.58C172.316 308.196 172.25 308.796 172.155 309.388C171.917 310.833 171.472 312.214 170.848 313.486C170.574 314.034 170.275 314.568 169.942 315.077C169.464 315.809 168.925 316.493 168.329 317.127C167.793 317.703 167.207 318.232 166.582 318.717C166.104 319.088 165.603 319.433 165.076 319.741C163.918 320.429 162.659 320.966 161.326 321.323C160.088 321.655 158.782 321.832 157.437 321.826L87.2969 321.647C85.9536 321.646 84.6478 321.462 83.4088 321.125C82.0772 320.764 80.8209 320.222 79.6681 319.522C79.1473 319.209 78.6449 318.864 78.1686 318.495C77.5476 318.009 76.9624 317.475 76.4295 316.896C75.8375 316.256 75.2978 315.57 74.8268 314.839C74.496 314.329 74.1964 313.794 73.9293 313.24C73.3113 311.961 72.8674 310.586 72.6409 309.136C72.5476 308.547 72.4881 307.942 72.4639 307.329C72.4543 307.132 72.4497 306.933 72.4501 306.734C72.4553 304.942 72.7764 303.222 73.3637 301.63C73.7129 300.679 74.1551 299.773 74.688 298.924C75.2982 297.94 76.0209 297.035 76.8336 296.224C79.533 293.537 83.258 291.881 87.3649 291.892L157.505 292.07C162.853 292.083 167.54 294.92 170.15 299.166L170.155 299.165Z" fill="#FAFBFD"/>
<path d="M201.005 324.815L200.91 363.066C200.909 363.827 200.288 364.446 199.527 364.445L182.593 364.404C181.649 364.404 180.823 363.757 180.598 362.835L175.618 342.7C174.908 339.827 172.334 337.81 169.375 337.799L75.2963 337.563C72.3394 337.557 69.7536 339.561 69.0285 342.43L63.9485 362.537C63.715 363.457 62.8893 364.099 61.944 364.094L45.0098 364.052C44.2491 364.051 43.6296 363.43 43.6307 362.669L43.7252 324.418L201.015 324.813L201.005 324.815Z" fill="#29AE86"/>
<path d="M43.8 291.787L87.3721 291.896C83.2653 291.885 79.5402 293.541 76.8409 296.228C76.0231 297.04 75.3054 297.944 74.6952 298.927L43.7837 298.851L43.8 291.787Z" fill="#83ADA0"/>
<path d="M201.084 292.183L201.068 299.247L170.156 299.17C167.546 294.924 162.861 292.092 157.512 292.074L201.084 292.183Z" fill="#83ADA0"/>
<path d="M73.3687 301.628C72.7814 303.22 72.4603 304.941 72.4551 306.732C72.4546 306.932 72.4592 307.13 72.4689 307.327L43.7636 307.253L43.7789 301.554L73.3737 301.627L73.3687 301.628Z" fill="#83ADA0"/>
<path d="M201.059 301.951L201.043 307.65L172.338 307.576C172.345 307.38 172.35 307.179 172.352 306.984C172.357 305.192 172.042 303.47 171.463 301.873L201.057 301.946L201.059 301.951Z" fill="#83ADA0"/>
<path d="M72.6406 309.137C72.8722 310.585 73.3124 311.966 73.929 313.241L43.7402 313.165L43.7521 309.063L72.6406 309.137Z" fill="#83ADA0"/>
<path d="M201.044 309.462L201.033 313.564L170.844 313.488C171.468 312.215 171.912 310.834 172.151 309.39L201.039 309.463L201.044 309.462Z" fill="#83ADA0"/>
<path d="M74.8265 314.839C75.2975 315.571 75.8322 316.258 76.4292 316.896L43.7308 316.813L43.7368 314.762L74.8265 314.839Z" fill="#83ADA0"/>
<path d="M201.027 315.156L201.021 317.207L168.322 317.124C168.918 316.49 169.457 315.806 169.935 315.074L201.025 315.151L201.027 315.156Z" fill="#83ADA0"/>
<path d="M78.1687 318.495C78.6463 318.869 79.1437 319.216 79.6682 319.523L43.7274 319.435L43.7278 318.41L78.1687 318.495Z" fill="#83ADA0"/>
<path d="M201.018 318.804L201.017 319.829L165.076 319.741C165.598 319.434 166.099 319.089 166.582 318.717L201.023 318.803L201.018 318.804Z" fill="#83ADA0"/>
<path d="M83.4103 321.13C84.6492 321.467 85.9501 321.652 87.2984 321.652L43.7262 321.544L43.729 321.031L83.4153 321.129L83.4103 321.13Z" fill="#83ADA0"/>
<path d="M201.014 321.426L201.011 321.939L157.439 321.831C158.782 321.832 160.09 321.66 161.327 321.328L201.014 321.426Z" fill="#83ADA0"/>
<path d="M175.762 315.141L175.76 315.697L173.197 315.694L173.199 315.359L174.384 314.205C174.859 313.744 175.046 313.494 175.047 313.159C175.05 312.846 174.873 312.629 174.545 312.631C174.193 312.628 174.026 312.851 173.978 313.273L173.97 313.324L173.274 313.322L173.282 313.271C173.355 312.518 173.827 312.106 174.614 312.105C175.401 312.105 175.794 312.523 175.792 313.122C175.792 313.564 175.57 313.882 174.929 314.507L174.273 315.141L175.763 315.146L175.762 315.141Z" fill="#1A1C1E"/>
<path d="M177.847 314.372L177.022 315.699L176.185 315.696L177.448 313.929L176.279 312.182L177.094 312.185L177.874 313.486L178.703 312.191L179.513 312.195L178.282 313.921L179.533 315.711L178.713 315.71L177.849 314.377L177.847 314.372Z" fill="#1A1C1E"/>
<path d="M182.462 314.705C182.461 315.369 181.888 315.786 181.101 315.787C180.314 315.788 179.814 315.409 179.738 314.685L179.735 314.632L180.436 314.633L180.45 314.683C180.497 315.043 180.738 315.258 181.095 315.26C181.451 315.262 181.718 315.05 181.718 314.726C181.721 314.375 181.481 314.186 181.02 314.175L180.901 314.174L180.904 313.683L181.021 313.678C181.395 313.664 181.636 313.454 181.639 313.124C181.638 312.839 181.453 312.651 181.139 312.649C180.826 312.646 180.628 312.872 180.593 313.205L180.585 313.256L179.888 313.254L179.896 313.203C179.959 312.593 180.4 312.124 181.22 312.125C181.986 312.125 182.386 312.53 182.383 313.044C182.385 313.453 182.15 313.742 181.731 313.849C182.208 313.959 182.466 314.24 182.46 314.7L182.462 314.705Z" fill="#1A1C1E"/>
<path d="M185.687 313.965C185.686 315.065 185.309 315.792 184.317 315.794C183.319 315.791 182.95 315.06 182.952 313.959C182.953 312.858 183.33 312.132 184.329 312.134C185.327 312.136 185.693 312.858 185.687 313.965ZM184.943 313.965C184.946 313.069 184.751 312.663 184.323 312.658C183.896 312.654 183.698 313.063 183.696 313.959C183.693 314.855 183.883 315.263 184.321 315.264C184.758 315.266 184.943 314.849 184.948 313.963L184.943 313.965Z" fill="#1A1C1E"/>
<path d="M191.146 315.738L190.444 315.737L190.446 314.113C190.445 313.747 190.449 313.277 190.459 312.913C190.374 313.281 190.245 313.746 190.131 314.106L189.634 315.733L188.869 315.733L188.371 314.098C188.265 313.743 188.139 313.27 188.053 312.91C188.065 313.279 188.061 313.744 188.062 314.11L188.06 315.734L187.359 315.733L187.367 312.22L188.479 312.225L189.264 315.094L190.064 312.226L191.155 312.23L191.147 315.743L191.146 315.738Z" fill="#1A1C1E"/>
<path d="M191.929 315.739L191.937 312.226L192.643 312.225L192.635 315.738L191.929 315.739Z" fill="#1A1C1E"/>
<path d="M195.545 315.751L194.107 313.079C194.128 313.462 194.129 313.866 194.131 314.156L194.126 315.749L193.425 315.748L193.433 312.235L194.367 312.238L195.835 314.962C195.815 314.584 195.814 314.158 195.814 313.856L195.819 312.243L196.515 312.245L196.514 315.762L195.548 315.761L195.545 315.751Z" fill="#1A1C1E"/>
<path d="M184.149 305.441C184.142 307.891 182.3 309.291 180.131 309.284C177.486 309.276 176.082 307.7 176.087 304.117C176.095 300.2 177.967 298.291 180.461 298.302C182.56 298.306 183.824 299.461 184.037 301.281L184.051 301.433L181.909 301.43L181.879 301.277C181.652 300.329 181.165 299.882 180.324 299.881C179.114 299.876 178.36 300.947 178.265 303.55L178.805 302.586C179.372 302.126 179.936 301.975 180.686 301.979C182.996 301.986 184.158 303.503 184.15 305.446L184.149 305.441ZM181.914 305.695C181.916 304.454 181.323 303.55 180.115 303.55C179.165 303.546 178.353 304.281 178.352 305.625C178.347 306.834 179.034 307.707 180.119 307.713C181.22 307.714 181.91 306.828 181.915 305.7L181.914 305.695Z" fill="#1A1C1E"/>
<path d="M193.791 303.829C193.78 307.132 192.657 309.32 189.672 309.311C186.673 309.306 185.562 307.112 185.572 303.809C185.579 300.474 186.7 298.318 189.701 298.329C192.686 298.338 193.799 300.499 193.792 303.834L193.791 303.829ZM191.556 303.823C191.563 301.13 190.986 299.904 189.701 299.898C188.401 299.896 187.816 301.115 187.811 303.813C187.801 306.474 188.381 307.732 189.681 307.734C190.967 307.74 191.552 306.483 191.556 303.823Z" fill="#1A1C1E"/>
<path d="M54.8754 281.458L54.1656 283.579L52.6656 283.576L55.2235 276.538L56.9889 276.545L59.4603 283.595L57.9275 283.59L57.2398 281.466L54.8704 281.459L54.8754 281.458ZM55.2358 280.348L56.8925 280.351L56.0817 277.748L55.2358 280.348Z" fill="#1A1C1E"/>
<path d="M49.4649 288.861L49.4727 285.348L50.1741 285.349L50.1662 288.862L49.4649 288.861Z" fill="#1A1C1E"/>
<path d="M53.0798 288.869L51.6411 286.197C51.6627 286.579 51.6632 286.983 51.6605 287.275L51.6557 288.868L50.9544 288.867L50.9622 285.354L51.8961 285.357L53.3647 288.081C53.3445 287.703 53.3436 287.277 53.3436 286.975L53.3481 285.362L54.0443 285.364L54.0428 288.88L53.0825 288.879L53.0798 288.869Z" fill="#1A1C1E"/>
<path d="M57.9444 287.075C57.941 288.149 57.3005 288.757 56.4845 288.852C56.3067 288.873 56.2258 288.873 56.0362 288.87L54.8333 288.868L54.8412 285.355L56.0505 285.36C56.2387 285.359 56.321 285.363 56.4982 285.381C57.3123 285.481 57.9428 286.002 57.9394 287.076L57.9444 287.075ZM57.2029 287.085C57.2064 286.394 56.8687 285.999 56.3495 285.933C56.2317 285.916 56.128 285.911 55.9713 285.91L55.5455 285.911L55.5393 288.323L55.9601 288.324C56.1118 288.326 56.2191 288.325 56.3339 288.31C56.861 288.244 57.2074 287.806 57.2092 287.088L57.2029 287.085Z" fill="#1A1C1E"/>
<path d="M61.0996 288.888L58.5635 288.882L58.5714 285.369L61.0595 285.377L61.0562 285.928L59.2707 285.926L59.2711 286.854L60.9278 286.857L60.9257 287.413L59.2691 287.41L59.2645 288.339L61.0993 288.343L61.0973 288.899L61.0996 288.888Z" fill="#1A1C1E"/>
<path d="M63.0106 287.567L62.1801 288.895L61.3435 288.893L62.6064 287.125L61.4373 285.378L62.2524 285.381L63.0324 286.682L63.861 285.387L64.6711 285.391L63.4389 287.112L64.6897 288.902L63.8696 288.901L63.0056 287.568L63.0106 287.567Z" fill="#1A1C1E"/>
<path d="M56.9847 305.954L56.9896 303.315L57.4104 303.316L57.4055 305.954L56.9847 305.954Z" fill="#1A1C1E"/>
<path d="M59.6178 305.96L58.4528 303.786C58.4629 304.085 58.4687 304.429 58.4656 304.699L58.4641 305.962L58.0433 305.961L58.0482 303.323L58.6422 303.325L59.8176 305.518C59.8075 305.219 59.8054 304.869 59.8084 304.598L59.8136 303.33L60.2293 303.332L60.2245 305.97L59.6205 305.97L59.6178 305.96Z" fill="#1A1C1E"/>
<path d="M53.5379 302.597L51.0583 302.591C50.598 302.59 50.2239 302.962 50.2228 303.422L50.2168 305.902C50.2156 306.362 50.5879 306.736 51.0482 306.737L53.5278 306.743C53.9881 306.744 54.3622 306.372 54.3633 305.912L54.3694 303.432C54.3705 302.972 53.9982 302.598 53.5379 302.597Z" fill="#FAFBFD" stroke="#1A1C1E" stroke-miterlimit="10" stroke-linejoin="round"/>
<path d="M59.3339 312.508C59.3311 313.323 58.8654 313.879 58.0604 313.874C57.2554 313.868 56.7886 313.314 56.7913 312.499C56.7927 311.679 57.2598 311.128 58.0698 311.132C58.8799 311.136 59.3352 311.688 59.3339 312.508ZM58.8852 312.504C58.8868 311.846 58.5819 311.453 58.0689 311.45C57.5558 311.447 57.2466 311.843 57.245 312.501C57.2434 313.16 57.5483 313.553 58.0613 313.555C58.5744 313.558 58.8823 313.157 58.8802 312.505L58.8852 312.504Z" fill="#1A1C1E"/>
<path d="M61.8804 312.813C61.8795 312.91 61.8783 312.986 61.8723 313.084C61.8343 313.526 61.532 313.888 60.8408 313.884C60.1495 313.88 59.8528 313.518 59.8214 313.079C59.8109 312.979 59.8121 312.903 59.813 312.806L59.8161 311.187L60.2319 311.189L60.2301 312.813C60.2302 312.894 60.2276 312.964 60.2388 313.026C60.2643 313.343 60.4676 313.558 60.8454 313.559C61.2233 313.56 61.4307 313.348 61.4582 313.028C61.4685 312.966 61.4648 312.892 61.466 312.816L61.4677 311.192L61.8835 311.194L61.8804 312.813Z" fill="#1A1C1E"/>
<path d="M63.571 311.534L63.563 313.839L63.1472 313.838L63.1552 311.533L62.2328 311.532L62.2347 311.197L64.4954 311.2L64.4934 311.535L63.571 311.534Z" fill="#1A1C1E"/>
<path d="M53.5159 310.467L51.0364 310.461C50.576 310.46 50.202 310.832 50.2008 311.292L50.1948 313.772C50.1937 314.232 50.5659 314.606 51.0262 314.607L53.5058 314.613C53.9661 314.614 54.3402 314.242 54.3413 313.782L54.3474 311.302C54.3485 310.842 53.9763 310.468 53.5159 310.467Z" fill="#FAFBFD" stroke="#1A1C1E" stroke-miterlimit="10" stroke-linejoin="round"/>
<path opacity="0.2" d="M66.3899 277.256L196.001 277.582" stroke="#1A1C1E" stroke-linecap="round" stroke-linejoin="round"/>
<path opacity="0.2" d="M66.3708 285.173L195.983 285.504" stroke="#1A1C1E" stroke-linecap="round" stroke-linejoin="round"/>
<path d="M165.508 278.218C164.168 279.256 162.915 280.557 162.608 282.29C162.301 284.022 162.994 285.401 164.313 286.417C165.632 287.434 167.263 288.07 168.911 288.302C170.396 288.509 172.409 288.535 173.752 287.75C174.437 287.35 174.694 286.618 174.55 285.858C174.367 284.915 173.619 284.236 173.206 283.398L172.595 283.875C173.267 284.611 174.371 285.491 175.418 285.556C176.794 285.64 176.037 283.901 175.646 283.327L175.035 283.803C175.666 284.346 176.355 284.765 177.125 285.082C177.41 285.2 177.67 284.861 177.606 284.603C177.51 284.246 177.424 283.886 177.329 283.528L176.574 283.731C177.117 285.413 179.56 285.557 181.023 285.461C181.919 285.405 184.99 285.213 184.507 283.67C184.371 283.243 183.976 282.917 183.685 282.596C183.285 282.148 182.889 281.699 182.468 281.272C182.364 281.165 181.186 280.03 181.12 280.269C181.148 280.17 181.592 280.078 181.671 280.051C182.804 279.71 183.995 279.585 185.158 279.376C185.651 279.287 185.449 278.532 184.955 278.621C183.926 278.805 182.892 278.931 181.877 279.187C181.027 279.399 179.701 279.905 180.849 280.848C181.661 281.521 182.361 282.282 183.061 283.065C183.224 283.248 183.457 283.434 183.583 283.643C183.848 284.068 183.748 284.079 183.43 284.218C183.111 284.357 182.769 284.411 182.441 284.472C181.456 284.661 180.501 284.76 179.495 284.63C178.741 284.531 177.597 284.368 177.329 283.528C177.174 283.052 176.448 283.241 176.574 283.731C176.67 284.088 176.755 284.448 176.851 284.805L177.332 284.326C176.694 284.06 176.111 283.693 175.586 283.246C175.271 282.974 174.71 283.335 174.975 283.722C175.065 283.854 175.567 284.583 175.449 284.706C175.298 284.865 174.704 284.501 174.578 284.433C174.032 284.147 173.565 283.771 173.146 283.317C172.834 282.975 172.347 283.412 172.535 283.793C172.895 284.533 173.601 285.153 173.782 285.972C174.026 287.083 172.84 287.325 172.007 287.478C170.348 287.788 168.606 287.607 167.026 287.022C165.445 286.437 163.628 285.371 163.351 283.612C163.046 281.65 164.473 280.011 165.91 278.892C166.303 278.587 165.911 277.91 165.513 278.216L165.508 278.218Z" fill="#1A1C1E"/>
<path d="M193.342 278.305C192.561 278.449 191.783 278.604 191.007 278.768C190.431 278.891 189.587 278.922 189.089 279.256C188.791 279.454 188.674 279.803 188.853 280.128C189 280.396 189.31 280.604 189.522 280.811C189.799 281.082 190.078 281.358 190.35 281.63C190.868 282.155 191.398 282.682 191.881 283.237C191.951 283.315 192.168 283.521 192.151 283.639C192.121 283.831 191.665 283.899 191.53 283.919C191.188 283.973 190.845 283.978 190.503 283.951C189.914 283.904 189.188 283.872 188.769 283.418C188.52 283.151 188.107 282.657 188.142 282.265L187.376 282.363C187.58 282.923 187.86 283.446 188.108 283.989C188.161 284.104 188.236 284.224 188.263 284.347C188.285 284.47 188.313 284.452 188.342 284.299C188.266 284.297 188.19 284.296 188.116 284.3C187.799 284.223 187.33 284.305 187.003 284.312C185.392 284.339 183.777 284.389 182.173 284.522C181.677 284.564 181.665 285.343 182.167 285.306C184.089 285.152 186.027 285.097 187.955 285.087C188.612 285.084 189.297 284.986 189.024 284.148C188.797 283.459 188.379 282.849 188.137 282.164C187.986 281.741 187.413 281.819 187.37 282.262C187.292 283.037 188.167 284.189 188.873 284.448C189.578 284.706 190.44 284.783 191.158 284.746C191.749 284.718 192.621 284.63 192.878 284C193.085 283.502 192.761 283.039 192.439 282.683C191.84 282.018 191.21 281.378 190.577 280.744C190.409 280.579 190.247 280.418 190.078 280.252C190.027 280.201 189.572 279.832 189.571 279.768C189.578 279.976 189.91 279.807 190.053 279.774C190.287 279.722 190.516 279.671 190.75 279.619C191.677 279.414 192.614 279.228 193.548 279.053C194.042 278.964 193.838 278.204 193.346 278.298L193.342 278.305Z" fill="#1A1C1E"/>
<path d="M180.32 287.807L180.393 287.82C180.447 287.822 180.499 287.813 180.545 287.785C180.596 287.771 180.637 287.744 180.674 287.702C180.713 287.664 180.74 287.625 180.754 287.578C180.78 287.533 180.788 287.482 180.785 287.429L180.773 287.325C180.754 287.254 180.722 287.198 180.671 287.147L180.59 287.088C180.533 287.054 180.468 287.034 180.399 287.036L180.325 287.024C180.271 287.022 180.219 287.031 180.173 287.059C180.123 287.073 180.081 287.1 180.044 287.142C180.006 287.18 179.979 287.219 179.964 287.266C179.938 287.311 179.93 287.361 179.934 287.414L179.946 287.519C179.965 287.59 179.996 287.646 180.047 287.697L180.128 287.756C180.185 287.789 180.25 287.81 180.32 287.807Z" fill="#1A1C1E"/>
<path d="M182.854 287.743C183.342 287.612 183.14 286.858 182.651 286.988C182.163 287.119 182.366 287.874 182.854 287.743Z" fill="#1A1C1E"/>
<path d="M156.621 282.568C156.885 282.869 157.12 283.184 157.331 283.526C157.444 283.706 157.812 284.174 157.633 284.351C157.44 284.538 156.88 284.521 156.637 284.559C156.216 284.618 155.793 284.672 155.373 284.714C153.765 284.892 152.143 284.976 150.524 284.973C150.022 284.972 150.017 285.756 150.518 285.756C152.562 285.753 154.601 285.617 156.625 285.339C157.27 285.252 158.441 285.213 158.483 284.323C158.502 283.913 158.247 283.523 158.043 283.184C157.791 282.767 157.497 282.376 157.178 282.009C156.858 281.641 156.297 282.185 156.626 282.566L156.621 282.568Z" fill="#1A1C1E"/>
<path d="M149.426 279.987C150.046 280.792 150.704 281.576 151.278 282.409C151.525 282.769 151.722 283.163 151.648 283.609C151.586 283.982 151.386 284.321 151.129 284.59C149.777 286.025 147.493 285.575 145.845 285.04C145.366 284.883 145.164 285.638 145.638 285.797C147.582 286.43 150.223 286.806 151.748 285.071C152.372 284.359 152.634 283.426 152.244 282.533C152.013 282.012 151.614 281.569 151.271 281.116L150.097 279.592C149.797 279.198 149.115 279.591 149.421 279.989L149.426 279.987Z" fill="#1A1C1E"/>
<path d="M146.43 282.235C148.054 283.143 149.566 284.237 150.926 285.507C151.293 285.851 151.845 285.293 151.477 284.949C150.069 283.638 148.501 282.495 146.819 281.554C146.382 281.31 145.992 281.986 146.429 282.23L146.43 282.235Z" fill="#1A1C1E"/>
<path d="M156.965 288.036C157.453 287.905 157.25 287.15 156.762 287.281C156.274 287.412 156.476 288.167 156.965 288.036Z" fill="#1A1C1E"/>
<path d="M140.698 282.854C140.954 283.147 141.189 283.462 141.392 283.796C141.499 283.972 141.891 284.471 141.699 284.641C141.508 284.811 141.003 284.8 140.759 284.834C140.369 284.889 139.982 284.934 139.593 284.973C138.159 285.115 136.718 285.129 135.277 285.127C134.775 285.126 134.77 285.91 135.271 285.91C137.073 285.913 138.863 285.87 140.65 285.634C141.296 285.552 142.44 285.532 142.543 284.668C142.594 284.256 142.329 283.852 142.13 283.511C141.875 283.084 141.573 282.679 141.246 282.303C140.918 281.927 140.365 282.48 140.694 282.861L140.698 282.854Z" fill="#1A1C1E"/>
<path d="M133.497 280.275C134.117 281.08 134.775 281.864 135.348 282.697C135.596 283.057 135.793 283.451 135.719 283.897C135.657 284.27 135.456 284.609 135.199 284.878C133.847 286.313 131.564 285.863 129.916 285.328C129.437 285.171 129.235 285.926 129.709 286.085C131.653 286.718 134.294 287.094 135.819 285.359C136.443 284.647 136.705 283.714 136.315 282.821C136.083 282.3 135.684 281.857 135.342 281.404L134.168 279.88C133.868 279.486 133.186 279.879 133.492 280.277L133.497 280.275Z" fill="#1A1C1E"/>
<path d="M130.501 282.523C132.125 283.431 133.637 284.525 134.997 285.795C135.364 286.139 135.916 285.581 135.548 285.237C134.14 283.926 132.572 282.783 130.891 281.842C130.453 281.598 130.063 282.274 130.5 282.518L130.501 282.523Z" fill="#1A1C1E"/>
<path d="M141.04 288.323C141.528 288.192 141.326 287.437 140.838 287.568C140.35 287.699 140.552 288.454 141.04 288.323Z" fill="#1A1C1E"/>
<path d="M189.303 277.904C189.791 277.773 189.589 277.018 189.101 277.149C188.613 277.28 188.815 278.035 189.303 277.904Z" fill="#1A1C1E"/>
<path d="M191.644 277.12C192.132 276.99 191.93 276.235 191.441 276.366C190.953 276.496 191.156 277.251 191.644 277.12Z" fill="#1A1C1E"/>
<path d="M189.898 276.218C190.386 276.087 190.184 275.333 189.696 275.463C189.208 275.594 189.41 276.349 189.898 276.218Z" fill="#1A1C1E"/>
<path d="M76.7222 282.221C75.7266 282.229 74.6787 282.283 73.893 282.974C73.1945 283.587 72.9961 284.638 73.5449 285.418C73.8078 285.796 74.2128 286.059 74.6853 286.051C75.1577 286.043 75.5641 285.789 75.8798 285.478C76.5223 284.836 76.8326 283.901 76.9631 283.02C77.1365 281.835 76.9837 280.641 77.0041 279.449L76.2375 279.547C76.4858 281.238 76.8109 282.915 77.2079 284.577C77.3236 285.069 78.077 284.862 77.9626 284.375C77.5657 282.712 77.2406 281.036 76.9922 279.344C76.9266 278.898 76.2298 279.015 76.2256 279.442C76.2108 280.514 76.3362 281.586 76.2291 282.655C76.1482 283.481 75.8847 284.49 75.2052 285.033C74.8897 285.285 74.5019 285.367 74.2243 285.015C73.9622 284.681 73.9492 284.21 74.1605 283.851C74.6705 282.997 75.8534 283.004 76.7188 282.993C77.2241 282.987 77.2262 282.21 76.7245 282.21L76.7222 282.221Z" fill="#1A1C1E"/>
<path d="M80.2577 283.258C81.2202 283.308 82.3956 283.327 83.1676 282.646C83.5249 282.329 83.6834 281.834 83.4738 281.394C83.2642 280.954 82.7613 280.727 82.2956 280.76C81.3719 280.835 80.5487 281.627 80.0862 282.377C79.8575 282.751 79.6852 283.175 79.6028 283.612C79.5051 284.113 79.498 284.67 79.8636 285.068C80.2292 285.466 80.8027 285.534 81.3063 285.501C81.9224 285.466 82.5181 285.274 83.0459 284.949C83.471 284.684 83.0793 284.007 82.6491 284.273C82.3165 284.481 81.965 284.618 81.5795 284.689C81.2709 284.745 80.8897 284.772 80.5969 284.645C80.0433 284.411 80.4163 283.448 80.5994 283.064C80.8742 282.5 81.3132 282.005 81.8679 281.7C82.0932 281.575 82.431 281.447 82.665 281.616C82.8736 281.77 82.7792 281.941 82.6287 282.084C82.3699 282.326 81.9607 282.408 81.6242 282.461C81.1779 282.526 80.7138 282.505 80.2598 282.481C79.7564 282.454 79.7557 283.237 80.254 283.265L80.2577 283.258Z" fill="#1A1C1E"/>
<path d="M84.1745 282.721C84.8175 283.692 85.467 284.667 86.2237 285.559C86.3346 285.691 86.5585 285.701 86.6973 285.615C86.8512 285.526 86.9114 285.348 86.877 285.179C86.6075 283.811 87.3528 282.366 88.5818 281.74C89.0278 281.512 88.6311 280.837 88.1851 281.064C86.6327 281.852 85.7866 283.686 86.1222 285.381L86.7754 285.001C86.065 284.162 85.4569 283.241 84.8501 282.325C84.5765 281.907 83.8995 282.299 84.1745 282.721Z" fill="#1A1C1E"/>
<path d="M92.1765 281.149C91.3568 281.773 91.059 282.775 91.0075 283.77C90.9743 284.351 91.0968 284.949 91.5905 285.302C91.964 285.569 92.4536 285.605 92.8894 285.52C93.8341 285.343 94.5774 284.534 94.8874 283.658C95.0503 283.199 95.1201 282.614 94.9581 282.151C94.7669 281.598 94.2477 281.311 93.7167 281.14C92.6459 280.807 91.4462 281.08 90.6018 281.813C90.445 281.952 90.4648 282.228 90.6049 282.368C90.7654 282.524 90.9976 282.505 91.1595 282.365C91.6838 281.906 92.4298 281.712 93.1188 281.808C93.438 281.852 93.7962 281.96 94.0548 282.161C94.3289 282.379 94.2922 282.825 94.2291 283.133C94.0937 283.795 93.6501 284.394 93.0293 284.674C92.7835 284.783 92.4607 284.826 92.1915 284.747C92.0861 284.716 92.0018 284.663 91.9269 284.565C91.8093 284.407 91.7892 284.192 91.7836 284.01C91.7737 283.268 91.9484 282.31 92.5746 281.829C92.7405 281.704 92.8292 281.492 92.7122 281.296C92.6147 281.134 92.3438 281.028 92.1792 281.159L92.1765 281.149Z" fill="#1A1C1E"/>
<path d="M96.8853 282.519C97.4148 284.173 97.7631 285.875 97.9135 287.604L98.6801 287.507C98.4383 286.504 98.2734 285.485 98.208 284.457C98.18 283.989 98.1479 283.507 98.1792 283.041C98.2066 282.64 98.3229 282.269 98.6793 282.049C99.0907 281.793 100.487 281.511 100.303 282.412C100.219 282.823 99.797 283.141 99.4812 283.371C99.0879 283.655 98.6584 283.883 98.2012 284.049C97.744 284.214 97.9312 284.973 98.4034 284.803C99.2701 284.496 100.192 283.99 100.755 283.235C101.319 282.48 101.184 281.453 100.268 281.116C99.5258 280.841 98.5355 281.09 97.9657 281.62C97.2877 282.249 97.3657 283.285 97.4077 284.126C97.4622 285.336 97.6391 286.54 97.9267 287.714C98.0286 288.134 98.7325 288.064 98.6934 287.616C98.5355 285.82 98.1898 284.046 97.6414 282.322C97.4868 281.845 96.7307 282.043 96.8867 282.524L96.8853 282.519Z" fill="#1A1C1E"/>
<path d="M103.844 280.531C103.216 280.806 102.639 281.43 102.568 282.129C102.528 282.485 102.679 282.827 102.937 283.065C103.195 283.304 103.536 283.428 103.867 283.577C104.002 283.638 104.128 283.706 104.246 283.804C104.28 283.87 104.287 283.874 104.272 283.819C104.274 283.867 104.278 283.882 104.266 283.858C104.296 283.829 104.197 283.941 104.209 283.927C104.015 284.13 103.684 284.241 103.431 284.346C102.7 284.655 101.912 284.834 101.124 284.894C100.912 284.908 100.732 285.059 100.732 285.28C100.731 285.479 100.905 285.686 101.117 285.673C101.769 285.627 102.407 285.516 103.028 285.317C103.575 285.143 104.188 284.936 104.642 284.577C105.122 284.195 105.178 283.56 104.678 283.16C104.445 282.974 104.175 282.874 103.901 282.759C103.713 282.68 103.439 282.564 103.358 282.36C103.276 282.155 103.447 281.867 103.575 281.703C103.747 281.479 103.979 281.319 104.235 281.208C104.429 281.123 104.472 280.842 104.373 280.675C104.255 280.474 104.032 280.448 103.84 280.537L103.844 280.531Z" fill="#1A1C1E"/>
<path d="M109.104 283.575C110.462 282.543 111.405 281.034 111.675 279.343L111.021 279.519C111.288 279.792 111.301 280.242 111.344 280.602C111.397 281.063 111.434 281.522 111.459 281.979C111.513 282.903 111.528 283.827 111.549 284.749C111.56 285.253 112.338 285.26 112.332 284.754C112.315 283.724 112.298 282.693 112.222 281.667C112.187 281.175 112.141 280.68 112.078 280.184C112.015 279.727 111.907 279.303 111.578 278.96C111.391 278.767 110.974 278.841 110.924 279.135C110.689 280.616 109.909 281.99 108.712 282.898C108.541 283.025 108.458 283.236 108.575 283.431C108.669 283.6 108.943 283.699 109.108 283.569L109.104 283.575Z" fill="#1A1C1E"/>
<path d="M113.412 282.809C113.259 283.244 113.433 283.774 113.782 284.069C114.189 284.419 114.757 284.466 115.209 284.162C115.694 283.838 115.979 283.27 116.045 282.692C116.105 282.153 115.876 281.578 115.387 281.304C114.748 280.952 114.083 281.33 113.639 281.805C113.501 281.955 113.484 282.213 113.642 282.36C113.8 282.506 114.045 282.516 114.197 282.357C114.264 282.285 114.336 282.211 114.411 282.148C114.428 282.133 114.451 282.116 114.468 282.1C114.458 282.103 114.427 282.128 114.463 282.102C114.509 282.073 114.554 282.04 114.605 282.01C114.629 281.998 114.648 281.988 114.672 281.976C114.601 281.995 114.657 281.98 114.672 281.976C114.717 281.964 114.762 281.951 114.808 281.939C114.798 281.942 114.748 281.939 114.793 281.943C114.814 281.943 114.841 281.941 114.862 281.941C114.872 281.938 114.946 281.951 114.9 281.942C114.854 281.932 114.936 281.954 114.947 281.956C115.01 281.971 114.957 281.953 114.946 281.951C114.963 281.957 114.983 281.968 115.002 281.979C115.027 281.994 115.11 282.063 115.053 282.009C115.081 282.033 115.109 282.058 115.132 282.084C115.14 282.093 115.186 282.145 115.154 282.105C115.122 282.065 115.172 282.133 115.18 282.142C115.201 282.179 115.222 282.217 115.243 282.254C115.202 282.184 115.243 282.254 115.252 282.289C115.259 282.315 115.264 282.335 115.271 282.36C115.274 282.37 115.289 282.447 115.282 282.4C115.275 282.354 115.285 282.432 115.282 282.443C115.285 282.475 115.284 282.508 115.285 282.534C115.282 282.583 115.279 282.633 115.276 282.682C115.285 282.615 115.263 282.734 115.262 282.751C115.249 282.803 115.24 282.848 115.221 282.897C115.211 282.921 115.206 282.944 115.196 282.968C115.194 282.979 115.161 283.058 115.188 282.997C115.15 283.077 115.112 283.157 115.062 283.23C115.051 283.249 115.035 283.27 115.024 283.289C114.994 283.34 115.062 283.252 115.019 283.29C114.981 283.333 114.948 283.369 114.909 283.406C114.892 283.421 114.875 283.437 114.857 283.452C114.798 283.495 114.845 283.466 114.857 283.452C114.825 283.472 114.793 283.496 114.756 283.517C114.737 283.528 114.713 283.539 114.695 283.55C114.642 283.575 114.755 283.534 114.695 283.55C114.679 283.554 114.659 283.559 114.644 283.563C114.629 283.567 114.529 283.578 114.614 283.571C114.582 283.574 114.545 283.574 114.512 283.572C114.419 283.57 114.566 283.595 114.482 283.563C114.465 283.557 114.447 283.551 114.43 283.55C114.386 283.546 114.466 283.563 114.461 283.564C114.431 283.572 114.373 283.517 114.347 283.503C114.296 283.473 114.341 283.499 114.347 283.503C114.399 283.532 114.34 283.494 114.326 283.481C114.31 283.464 114.236 283.408 114.236 283.387C114.236 283.387 114.281 283.456 114.259 283.413C114.253 283.393 114.233 283.377 114.222 283.358C114.218 283.343 114.203 283.326 114.194 283.312C114.189 283.292 114.174 283.236 114.182 283.288C114.192 283.345 114.182 283.288 114.178 283.273C114.173 283.253 114.167 283.233 114.161 283.208L114.147 283.157C114.147 283.157 114.153 283.258 114.151 283.172C114.147 283.157 114.153 283.139 114.148 283.119C114.144 283.045 114.135 283.112 114.139 283.127C114.129 283.108 114.164 283.018 114.175 282.999C114.242 282.808 114.095 282.562 113.9 282.517C113.682 282.468 113.492 282.583 113.418 282.792L113.412 282.809Z" fill="#1A1C1E"/>
<path d="M117.759 282.108C118.135 281.738 118.496 281.355 118.856 280.968C119.036 280.774 119.209 280.576 119.383 280.379C119.47 280.28 119.557 280.181 119.643 280.083C119.681 280.04 119.801 279.846 119.841 279.835L119.637 279.836C119.523 279.635 119.475 279.615 119.502 279.775C119.504 279.823 119.502 279.878 119.504 279.926C119.509 280.043 119.508 280.162 119.511 280.274C119.516 280.473 119.517 280.677 119.522 280.876C119.525 281.312 119.527 281.742 119.526 282.18C119.521 283.049 119.501 283.918 119.475 284.787C119.459 285.293 120.237 285.295 120.258 284.793C120.316 283.138 120.332 281.484 120.294 279.833C120.287 279.484 120.196 279.066 119.755 279.071C119.374 279.076 119.123 279.51 118.905 279.763C118.365 280.382 117.797 280.982 117.219 281.563C116.861 281.917 117.419 282.469 117.777 282.114L117.759 282.108Z" fill="#1A1C1E"/>
<path d="M125.936 286.136C126.424 286.005 126.222 285.25 125.734 285.381C125.246 285.512 125.448 286.266 125.936 286.136Z" fill="#1A1C1E"/>
<path d="M125.338 283.502C125.826 283.371 125.623 282.617 125.135 282.747C124.647 282.878 124.85 283.633 125.338 283.502Z" fill="#1A1C1E"/>
<path d="M199.756 270.923L45.2334 270.532C44.4727 270.531 43.85 271.145 43.8502 271.911L43.6206 362.672C43.6195 363.433 44.239 364.054 44.9997 364.055L61.934 364.096C62.8779 364.097 63.7036 363.455 63.9384 362.54L69.0185 342.433C69.7435 339.563 72.3279 337.555 75.2862 337.566L169.365 337.802C172.322 337.807 174.898 339.83 175.608 342.703L180.588 362.838C180.813 363.759 181.638 364.401 182.583 364.407L199.517 364.448C200.278 364.449 200.901 363.834 200.9 363.069L201.13 272.308C201.131 271.547 200.517 270.924 199.751 270.925L199.756 270.923Z" stroke="#1A1C1E" stroke-miterlimit="10" stroke-linejoin="round"/>
</svg>
