<svg width="516" height="401" viewBox="0 0 516 401" fill="none" xmlns="http://www.w3.org/2000/svg">
<path d="M390.057 15H126.159C124.051 15 122.295 16.9129 122.295 19.2084V381.127C122.295 383.422 124.051 385.335 126.159 385.335H390.057C392.164 385.335 393.92 383.422 393.92 381.127V19.2084C393.92 16.9129 392.164 15 390.057 15ZM383.149 373.603H133.183V26.7324H383.149V373.603Z" fill="#F2F4F7" stroke="#1A1C1E" stroke-miterlimit="10" stroke-linecap="round" stroke-linejoin="round"/>
<path d="M383.149 26.8589H133.184V373.729H383.149V26.8589Z" fill="#2980FA" stroke="#1A1C1E" stroke-miterlimit="10" stroke-linecap="round" stroke-linejoin="round"/>
<path d="M105.085 43.1643H13.9971V357.29H105.085V43.1643Z" fill="#E2E7EE" stroke="#1A1C1E" stroke-miterlimit="10" stroke-linecap="round" stroke-linejoin="round"/>
<path d="M113.748 30.1675H5.33196C2.99036 30.1675 1 32.1578 1 34.4994V365.836C1 368.177 2.99036 370.167 5.33196 370.167H113.748C116.09 370.167 118.08 368.177 118.08 365.836V34.4994C118.08 32.1578 116.09 30.1675 113.748 30.1675ZM105.084 357.289H13.9959V213.163H105.084V357.289ZM105.084 187.289H13.9959V43.1634H105.084V187.289Z" fill="#F2F4F7" stroke="#1A1C1E" stroke-miterlimit="10" stroke-linecap="round" stroke-linejoin="round"/>
<path d="M13.9961 43.1636L2.28809 31.4556" stroke="#1A1C1E" stroke-miterlimit="10" stroke-linecap="round" stroke-linejoin="round"/>
<path d="M116.79 31.4556L105.082 43.1636" stroke="#1A1C1E" stroke-miterlimit="10" stroke-linecap="round" stroke-linejoin="round"/>
<path d="M13.9959 187.29L1 200.169" stroke="#1A1C1E" stroke-miterlimit="10" stroke-linecap="round" stroke-linejoin="round"/>
<path d="M118.078 200.169L105.082 187.29" stroke="#1A1C1E" stroke-miterlimit="10" stroke-linecap="round" stroke-linejoin="round"/>
<path d="M13.9961 357.29L2.28809 368.998" stroke="#1A1C1E" stroke-miterlimit="10" stroke-linecap="round" stroke-linejoin="round"/>
<path d="M116.79 368.998L105.082 357.29" stroke="#1A1C1E" stroke-miterlimit="10" stroke-linecap="round" stroke-linejoin="round"/>
<path d="M13.9959 213.163L1 200.167" stroke="#1A1C1E" stroke-miterlimit="10" stroke-linecap="round" stroke-linejoin="round"/>
<path d="M118.078 200.167L105.082 213.163" stroke="#1A1C1E" stroke-miterlimit="10" stroke-linecap="round" stroke-linejoin="round"/>
<path d="M1 200.167H118.08" stroke="#1A1C1E" stroke-miterlimit="10" stroke-linecap="round" stroke-linejoin="round"/>
<path d="M28.7451 61.8959C33.8966 61.4276 38.9311 61.1934 44.0826 60.9593C49.2341 60.7251 54.2685 60.7251 59.42 60.7251C64.5716 60.7251 69.606 60.8422 74.7575 60.9593C79.909 61.0763 84.9435 61.4276 90.095 61.8959C84.9435 62.3642 79.909 62.5984 74.7575 62.8325C69.606 63.0667 64.5716 63.0667 59.42 63.0667C54.2685 63.0667 49.2341 62.9496 44.0826 62.8325C39.0481 62.5984 33.8966 62.3642 28.7451 61.8959Z" fill="#1A1C1E"/>
<path d="M28.7451 79.4578C33.8966 78.9895 38.9311 78.7553 44.0826 78.5211C49.2341 78.287 54.2685 78.287 59.42 78.287C64.5716 78.287 69.606 78.4041 74.7575 78.5211C79.909 78.6382 84.9435 78.9895 90.095 79.4578C84.9435 79.9261 79.909 80.1603 74.7575 80.3944C69.606 80.6286 64.5716 80.6286 59.42 80.6286C54.2685 80.6286 49.2341 80.5115 44.0826 80.3944C39.0481 80.2773 33.8966 80.0432 28.7451 79.4578Z" fill="#1A1C1E"/>
<path d="M28.7451 97.1369C33.8966 96.6685 38.9311 96.4344 44.0826 96.2002C49.2341 95.9661 54.2685 95.9661 59.42 95.9661C64.5716 95.9661 69.606 96.0832 74.7575 96.2002C79.909 96.3173 84.9435 96.6685 90.095 97.1369C84.9435 97.6052 79.909 97.8393 74.7575 98.0735C69.606 98.3077 64.5716 98.3077 59.42 98.3077C54.2685 98.3077 49.2341 98.1906 44.0826 98.0735C39.0481 97.8393 33.8966 97.6052 28.7451 97.1369Z" fill="#1A1C1E"/>
<path d="M28.7451 114.816C33.8966 114.347 38.9311 114.113 44.0826 113.879C49.2341 113.645 54.2685 113.645 59.42 113.645C64.5716 113.645 69.606 113.762 74.7575 113.879C79.909 113.996 84.9435 114.347 90.095 114.816C84.9435 115.284 79.909 115.518 74.7575 115.752C69.606 115.986 64.5716 115.986 59.42 115.986C54.2685 115.986 49.2341 115.869 44.0826 115.752C39.0481 115.518 33.8966 115.284 28.7451 114.816Z" fill="#1A1C1E"/>
<path d="M28.7451 132.378C33.8966 131.91 38.9311 131.676 44.0826 131.442C49.2341 131.208 54.2685 131.208 59.42 131.208C64.5716 131.208 69.606 131.325 74.7575 131.442C79.909 131.559 84.9435 131.91 90.095 132.378C84.9435 132.847 79.909 133.081 74.7575 133.315C69.606 133.549 64.5716 133.549 59.42 133.549C54.2685 133.549 49.2341 133.432 44.0826 133.315C39.0481 133.198 33.8966 132.964 28.7451 132.378Z" fill="#1A1C1E"/>
<path d="M28.7451 150.057C33.8966 149.589 38.9311 149.355 44.0826 149.121C49.2341 148.887 54.2685 148.887 59.42 148.887C64.5716 148.887 69.606 149.004 74.7575 149.121C79.909 149.238 84.9435 149.589 90.095 150.057C84.9435 150.526 79.909 150.76 74.7575 150.994C69.606 151.228 64.5716 151.228 59.42 151.228C54.2685 151.228 49.2341 151.111 44.0826 150.994C39.0481 150.76 33.8966 150.526 28.7451 150.057Z" fill="#1A1C1E"/>
<path d="M28.7451 167.736C33.8966 167.268 38.9311 167.034 44.0826 166.799C49.2341 166.565 54.2685 166.565 59.42 166.565C64.5716 166.565 69.606 166.682 74.7575 166.799C79.909 166.917 84.9435 167.268 90.095 167.736C84.9435 168.204 79.909 168.439 74.7575 168.673C69.606 168.907 64.5716 168.907 59.42 168.907C54.2685 168.907 49.2341 168.79 44.0826 168.673C39.0481 168.439 33.8966 168.204 28.7451 167.736Z" fill="#1A1C1E"/>
<path d="M28.7451 231.896C33.8966 231.427 38.9311 231.193 44.0826 230.959C49.2341 230.725 54.2685 230.725 59.42 230.725C64.5716 230.725 69.606 230.842 74.7575 230.959C79.909 231.076 84.9435 231.427 90.095 231.896C84.9435 232.364 79.909 232.598 74.7575 232.832C69.606 233.067 64.5716 233.067 59.42 233.067C54.2685 233.067 49.2341 232.949 44.0826 232.832C39.0481 232.598 33.8966 232.364 28.7451 231.896Z" fill="#1A1C1E"/>
<path d="M28.7451 249.576C33.8966 249.108 38.9311 248.874 44.0826 248.64C49.2341 248.406 54.2685 248.406 59.42 248.406C64.5716 248.406 69.606 248.523 74.7575 248.64C79.909 248.757 84.9435 249.108 90.095 249.576C84.9435 250.045 79.909 250.279 74.7575 250.513C69.606 250.747 64.5716 250.747 59.42 250.747C54.2685 250.747 49.2341 250.63 44.0826 250.513C39.0481 250.279 33.8966 250.045 28.7451 249.576Z" fill="#1A1C1E"/>
<path d="M28.7451 267.137C33.8966 266.668 38.9311 266.434 44.0826 266.2C49.2341 265.966 54.2685 265.966 59.42 265.966C64.5716 265.966 69.606 266.083 74.7575 266.2C79.909 266.317 84.9435 266.668 90.095 267.137C84.9435 267.605 79.909 267.839 74.7575 268.073C69.606 268.308 64.5716 268.308 59.42 268.308C54.2685 268.308 49.2341 268.19 44.0826 268.073C39.0481 267.839 33.8966 267.605 28.7451 267.137Z" fill="#1A1C1E"/>
<path d="M28.7451 284.815C33.8966 284.347 38.9311 284.113 44.0826 283.879C49.2341 283.645 54.2685 283.645 59.42 283.645C64.5716 283.645 69.606 283.762 74.7575 283.879C79.909 283.996 84.9435 284.347 90.095 284.815C84.9435 285.284 79.909 285.518 74.7575 285.752C69.606 285.986 64.5716 285.986 59.42 285.986C54.2685 285.986 49.2341 285.869 44.0826 285.752C39.0481 285.518 33.8966 285.284 28.7451 284.815Z" fill="#1A1C1E"/>
<path d="M28.7451 302.494C33.8966 302.025 38.9311 301.791 44.0826 301.557C49.2341 301.323 54.2685 301.323 59.42 301.323C64.5716 301.323 69.606 301.44 74.7575 301.557C79.909 301.674 84.9435 302.025 90.095 302.494C84.9435 302.962 79.909 303.196 74.7575 303.43C69.606 303.665 64.5716 303.665 59.42 303.665C54.2685 303.665 49.2341 303.548 44.0826 303.43C39.0481 303.196 33.8966 302.962 28.7451 302.494Z" fill="#1A1C1E"/>
<path d="M28.7451 320.057C33.8966 319.589 38.9311 319.355 44.0826 319.121C49.2341 318.886 54.2685 318.886 59.42 318.886C64.5716 318.886 69.606 319.003 74.7575 319.121C79.909 319.238 84.9435 319.589 90.095 320.057C84.9435 320.525 79.909 320.76 74.7575 320.994C69.606 321.228 64.5716 321.228 59.42 321.228C54.2685 321.228 49.2341 321.111 44.0826 320.994C39.0481 320.76 33.8966 320.525 28.7451 320.057Z" fill="#1A1C1E"/>
<path d="M28.7451 337.736C33.8966 337.268 38.9311 337.034 44.0826 336.799C49.2341 336.565 54.2685 336.565 59.42 336.565C64.5716 336.565 69.606 336.682 74.7575 336.799C79.909 336.916 84.9435 337.268 90.095 337.736C84.9435 338.204 79.909 338.438 74.7575 338.673C69.606 338.907 64.5716 338.907 59.42 338.907C54.2685 338.907 49.2341 338.79 44.0826 338.673C39.0481 338.438 33.8966 338.204 28.7451 337.736Z" fill="#1A1C1E"/>
<path d="M115.271 78.2867V118.211C115.271 120.904 117.496 123.128 120.189 123.128C122.882 123.128 125.106 120.904 125.106 118.211V78.2867C125.106 75.5939 122.882 73.3694 120.189 73.3694C117.496 73.4865 115.271 75.5939 115.271 78.2867Z" fill="#C3CAD4" stroke="#1A1C1E" stroke-miterlimit="10" stroke-linecap="round" stroke-linejoin="round"/>
<path d="M115.271 282.124V322.049C115.271 324.742 117.496 326.966 120.189 326.966C122.882 326.966 125.106 324.742 125.106 322.049V282.124C125.106 279.432 122.882 277.207 120.189 277.207C117.496 277.324 115.271 279.432 115.271 282.124Z" fill="#C3CAD4" stroke="#1A1C1E" stroke-miterlimit="10" stroke-linecap="round" stroke-linejoin="round"/>
<path d="M502.334 43.1643H411.246V357.29H502.334V43.1643Z" fill="#E2E7EE" stroke="#1A1C1E" stroke-miterlimit="10" stroke-linecap="round" stroke-linejoin="round"/>
<path d="M398.255 34.4994V365.836C398.255 368.177 400.245 370.167 402.587 370.167H511.003C513.344 370.167 515.335 368.177 515.335 365.836V34.4994C515.335 32.1578 513.344 30.1675 511.003 30.1675H402.587C400.245 30.1675 398.255 32.1578 398.255 34.4994ZM411.251 213.163H502.339V357.289H411.251V213.163ZM411.251 43.1634H502.339V187.289H411.251V43.1634Z" fill="#F2F4F7" stroke="#1A1C1E" stroke-miterlimit="10" stroke-linecap="round" stroke-linejoin="round"/>
<path d="M502.337 43.1636L514.045 31.4556" stroke="#1A1C1E" stroke-miterlimit="10" stroke-linecap="round" stroke-linejoin="round"/>
<path d="M399.542 31.4556L411.25 43.1636" stroke="#1A1C1E" stroke-miterlimit="10" stroke-linecap="round" stroke-linejoin="round"/>
<path d="M502.337 187.29L515.333 200.169" stroke="#1A1C1E" stroke-miterlimit="10" stroke-linecap="round" stroke-linejoin="round"/>
<path d="M398.255 200.169L411.251 187.29" stroke="#1A1C1E" stroke-miterlimit="10" stroke-linecap="round" stroke-linejoin="round"/>
<path d="M502.337 357.29L514.045 368.998" stroke="#1A1C1E" stroke-miterlimit="10" stroke-linecap="round" stroke-linejoin="round"/>
<path d="M399.542 368.998L411.25 357.29" stroke="#1A1C1E" stroke-miterlimit="10" stroke-linecap="round" stroke-linejoin="round"/>
<path d="M502.337 213.163L515.333 200.167" stroke="#1A1C1E" stroke-miterlimit="10" stroke-linecap="round" stroke-linejoin="round"/>
<path d="M398.255 200.167L411.251 213.163" stroke="#1A1C1E" stroke-miterlimit="10" stroke-linecap="round" stroke-linejoin="round"/>
<path d="M515.335 200.167H398.255" stroke="#1A1C1E" stroke-miterlimit="10" stroke-linecap="round" stroke-linejoin="round"/>
<path d="M487.466 61.8954C482.315 62.3637 477.28 62.5979 472.129 62.832C466.977 63.0662 461.943 63.0662 456.791 63.0662C451.64 63.0662 446.605 62.9491 441.454 62.832C436.302 62.715 431.268 62.3637 426.116 61.8954C431.268 61.4271 436.302 61.1929 441.454 60.9588C446.605 60.7246 451.64 60.7246 456.791 60.7246C461.943 60.7246 466.977 60.8417 472.129 60.9588C477.28 61.0758 482.315 61.4271 487.466 61.8954Z" fill="#1A1C1E"/>
<path d="M487.466 79.4573C482.315 79.9256 477.28 80.1598 472.129 80.3939C466.977 80.6281 461.943 80.6281 456.791 80.6281C451.64 80.6281 446.605 80.511 441.454 80.3939C436.302 80.2769 431.268 79.9256 426.116 79.4573C431.268 78.989 436.302 78.7548 441.454 78.5207C446.605 78.2865 451.64 78.2865 456.791 78.2865C461.943 78.2865 466.977 78.4036 472.129 78.5207C477.28 78.7548 482.315 78.989 487.466 79.4573Z" fill="#1A1C1E"/>
<path d="M487.466 97.1364C482.315 97.6047 477.28 97.8389 472.129 98.073C466.977 98.3072 461.943 98.3072 456.791 98.3072C451.64 98.3072 446.605 98.1901 441.454 98.073C436.302 97.9559 431.268 97.6047 426.116 97.1364C431.268 96.6681 436.302 96.4339 441.454 96.1998C446.605 95.9656 451.64 95.9656 456.791 95.9656C461.943 95.9656 466.977 96.0827 472.129 96.1998C477.28 96.4339 482.315 96.6681 487.466 97.1364Z" fill="#1A1C1E"/>
<path d="M487.466 114.815C482.315 115.283 477.28 115.518 472.129 115.752C466.977 115.986 461.943 115.986 456.791 115.986C451.64 115.986 446.605 115.869 441.454 115.752C436.302 115.635 431.268 115.283 426.116 114.815C431.268 114.347 436.302 114.113 441.454 113.878C446.605 113.644 451.64 113.644 456.791 113.644C461.943 113.644 466.977 113.761 472.129 113.878C477.28 113.996 482.315 114.347 487.466 114.815Z" fill="#1A1C1E"/>
<path d="M487.466 132.378C482.315 132.846 477.28 133.08 472.129 133.314C466.977 133.549 461.943 133.549 456.791 133.549C451.64 133.549 446.605 133.432 441.454 133.314C436.302 133.197 431.268 132.846 426.116 132.378C431.268 131.91 436.302 131.675 441.454 131.441C446.605 131.207 451.64 131.207 456.791 131.207C461.943 131.207 466.977 131.324 472.129 131.441C477.28 131.675 482.315 131.91 487.466 132.378Z" fill="#1A1C1E"/>
<path d="M487.466 150.057C482.315 150.525 477.28 150.759 472.129 150.994C466.977 151.228 461.943 151.228 456.791 151.228C451.64 151.228 446.605 151.111 441.454 150.994C436.302 150.876 431.268 150.525 426.116 150.057C431.268 149.589 436.302 149.354 441.454 149.12C446.605 148.886 451.64 148.886 456.791 148.886C461.943 148.886 466.977 149.003 472.129 149.12C477.28 149.354 482.315 149.589 487.466 150.057Z" fill="#1A1C1E"/>
<path d="M487.466 167.736C482.315 168.204 477.28 168.438 472.129 168.672C466.977 168.906 461.943 168.906 456.791 168.906C451.64 168.906 446.605 168.789 441.454 168.672C436.302 168.555 431.268 168.204 426.116 167.736C431.268 167.267 436.302 167.033 441.454 166.799C446.605 166.565 451.64 166.565 456.791 166.565C461.943 166.565 466.977 166.682 472.129 166.799C477.28 166.916 482.315 167.267 487.466 167.736Z" fill="#1A1C1E"/>
<path d="M487.466 231.896C482.315 232.365 477.28 232.599 472.129 232.833C466.977 233.067 461.943 233.067 456.791 233.067C451.64 233.067 446.605 232.95 441.454 232.833C436.302 232.716 431.268 232.365 426.116 231.896C431.268 231.428 436.302 231.194 441.454 230.96C446.605 230.725 451.64 230.725 456.791 230.725C461.943 230.725 466.977 230.843 472.129 230.96C477.28 231.194 482.315 231.428 487.466 231.896Z" fill="#1A1C1E"/>
<path d="M487.466 249.576C482.315 250.045 477.28 250.279 472.129 250.513C466.977 250.747 461.943 250.747 456.791 250.747C451.64 250.747 446.605 250.63 441.454 250.513C436.302 250.396 431.268 250.045 426.116 249.576C431.268 249.108 436.302 248.874 441.454 248.64C446.605 248.406 451.64 248.406 456.791 248.406C461.943 248.406 466.977 248.523 472.129 248.64C477.28 248.757 482.315 248.991 487.466 249.576Z" fill="#1A1C1E"/>
<path d="M487.466 267.137C482.315 267.605 477.28 267.839 472.129 268.073C466.977 268.307 461.943 268.307 456.791 268.307C451.64 268.307 446.605 268.19 441.454 268.073C436.302 267.956 431.268 267.605 426.116 267.137C431.268 266.668 436.302 266.434 441.454 266.2C446.605 265.966 451.64 265.966 456.791 265.966C461.943 265.966 466.977 266.083 472.129 266.2C477.28 266.434 482.315 266.668 487.466 267.137Z" fill="#1A1C1E"/>
<path d="M487.466 284.815C482.315 285.284 477.28 285.518 472.129 285.752C466.977 285.986 461.943 285.986 456.791 285.986C451.64 285.986 446.605 285.869 441.454 285.752C436.302 285.635 431.268 285.284 426.116 284.815C431.268 284.347 436.302 284.113 441.454 283.879C446.605 283.644 451.64 283.644 456.791 283.644C461.943 283.644 466.977 283.761 472.129 283.879C477.28 284.113 482.315 284.347 487.466 284.815Z" fill="#1A1C1E"/>
<path d="M487.466 302.494C482.315 302.962 477.28 303.196 472.129 303.43C466.977 303.665 461.943 303.665 456.791 303.665C451.64 303.665 446.605 303.548 441.454 303.43C436.302 303.313 431.268 302.962 426.116 302.494C431.268 302.025 436.302 301.791 441.454 301.557C446.605 301.323 451.64 301.323 456.791 301.323C461.943 301.323 466.977 301.44 472.129 301.557C477.28 301.674 482.315 301.908 487.466 302.494Z" fill="#1A1C1E"/>
<path d="M487.466 320.057C482.315 320.525 477.28 320.759 472.129 320.994C466.977 321.228 461.943 321.228 456.791 321.228C451.64 321.228 446.605 321.111 441.454 320.994C436.302 320.876 431.268 320.525 426.116 320.057C431.268 319.589 436.302 319.354 441.454 319.12C446.605 318.886 451.64 318.886 456.791 318.886C461.943 318.886 466.977 319.003 472.129 319.12C477.28 319.354 482.315 319.589 487.466 320.057Z" fill="#1A1C1E"/>
<path d="M487.466 337.736C482.315 338.204 477.28 338.438 472.129 338.672C466.977 338.907 461.943 338.907 456.791 338.907C451.64 338.907 446.605 338.789 441.454 338.672C436.302 338.555 431.268 338.204 426.116 337.736C431.268 337.267 436.302 337.033 441.454 336.799C446.605 336.565 451.64 336.565 456.791 336.565C461.943 336.565 466.977 336.682 472.129 336.799C477.28 337.033 482.315 337.267 487.466 337.736Z" fill="#1A1C1E"/>
<path d="M401.063 78.2867V118.211C401.063 120.904 398.839 123.128 396.146 123.128C393.453 123.128 391.229 120.904 391.229 118.211V78.2867C391.229 75.5939 393.453 73.3694 396.146 73.3694C398.839 73.4865 401.063 75.5939 401.063 78.2867Z" fill="#C3CAD4" stroke="#1A1C1E" stroke-miterlimit="10" stroke-linecap="round" stroke-linejoin="round"/>
<path d="M401.063 282.124V322.049C401.063 324.742 398.839 326.966 396.146 326.966C393.453 326.966 391.229 324.742 391.229 322.049V282.124C391.229 279.432 393.453 277.207 396.146 277.207C398.839 277.324 401.063 279.432 401.063 282.124Z" fill="#C3CAD4" stroke="#1A1C1E" stroke-miterlimit="10" stroke-linecap="round" stroke-linejoin="round"/>
<path d="M221.461 349.961C215.256 349.961 210.222 338.721 210.222 324.906C210.222 311.09 215.256 299.851 221.461 299.851H239.257V349.961H221.461Z" fill="#F2F4F7" stroke="#1A1C1E" stroke-miterlimit="10" stroke-linecap="round" stroke-linejoin="round"/>
<path d="M239.14 349.961C245.348 349.961 250.38 338.743 250.38 324.906C250.38 311.068 245.348 299.851 239.14 299.851C232.933 299.851 227.9 311.068 227.9 324.906C227.9 338.743 232.933 349.961 239.14 349.961Z" fill="#C3CAD4" stroke="#1A1C1E" stroke-miterlimit="10" stroke-linecap="round" stroke-linejoin="round"/>
<path d="M273.208 335.678L311.142 373.729H329.406L291.355 335.678H273.208Z" fill="#E2E7EE" stroke="#1A1C1E" stroke-miterlimit="10" stroke-linecap="round" stroke-linejoin="round"/>
<path d="M291.472 242.131H273.208V335.678H291.472V242.131Z" fill="#E2E7EE" stroke="#1A1C1E" stroke-miterlimit="10" stroke-linecap="round" stroke-linejoin="round"/>
<path d="M273.212 242.13H231.648V335.677H273.212V242.13Z" fill="#F2F4F7" stroke="#1A1C1E" stroke-miterlimit="10" stroke-linecap="round" stroke-linejoin="round"/>
<path d="M311.146 373.729H269.699L231.648 335.678H273.212L311.146 373.729Z" fill="#F2F4F7" stroke="#1A1C1E" stroke-miterlimit="10" stroke-linecap="round" stroke-linejoin="round"/>
<path d="M243.47 275.965L383.147 202.673V94.6086L247.1 124.581L214.317 279.244H229.889C234.689 279.244 239.255 278.19 243.47 275.965Z" fill="#E2E7EE" stroke="#1A1C1E" stroke-miterlimit="10" stroke-linecap="round" stroke-linejoin="round"/>
<path d="M113.164 114.863L256.821 94.6086H383.15L247.103 124.581L91.7383 139.567C91.7383 127.157 100.871 116.62 113.164 114.863Z" fill="#F2F4F7" stroke="#1A1C1E" stroke-miterlimit="10" stroke-linecap="round" stroke-linejoin="round"/>
<path d="M91.7383 257.703V139.569C91.7383 127.627 101.456 117.91 113.398 117.91H231.532C243.474 117.91 253.191 127.627 253.191 139.569V257.703C253.191 269.645 243.474 279.363 231.532 279.363H113.398C101.456 279.246 91.7383 269.645 91.7383 257.703Z" fill="#F2F4F7" stroke="#1A1C1E" stroke-miterlimit="10" stroke-linecap="round" stroke-linejoin="round"/>
<path d="M230.825 267.772H113.979C108.008 267.772 103.208 262.972 103.208 257.001V140.155C103.208 134.184 108.008 129.384 113.979 129.384H230.825C236.796 129.384 241.596 134.184 241.596 140.155V257.001C241.596 262.972 236.796 267.772 230.825 267.772Z" fill="#1A1C1E" stroke="#1A1C1E" stroke-miterlimit="10" stroke-linecap="round" stroke-linejoin="round"/>
<path d="M172.404 228.081C141.144 228.081 114.449 206.889 107.073 200.45C106.488 199.981 106.254 199.279 106.254 198.577C106.254 197.874 106.605 197.289 107.073 196.703C114.449 190.264 141.027 169.072 172.404 169.072C203.664 169.072 230.359 190.264 237.735 196.703C238.32 197.172 238.554 197.874 238.554 198.577C238.554 199.279 238.203 199.864 237.735 200.45C230.359 206.889 203.781 228.081 172.404 228.081Z" fill="#FAFBFD"/>
<path d="M172.403 169.657C203.547 169.657 230.007 190.731 237.383 197.171C237.851 197.522 238.085 197.99 238.085 198.576C238.085 199.044 237.851 199.629 237.383 199.981C230.007 206.42 203.547 227.494 172.403 227.494C141.26 227.494 114.8 206.42 107.424 199.981C106.956 199.629 106.722 199.161 106.722 198.576C106.722 198.107 106.956 197.522 107.424 197.171C114.917 190.731 141.377 169.657 172.403 169.657ZM172.403 168.486C141.026 168.486 114.683 189.326 106.722 196.351C105.317 197.639 105.317 199.629 106.722 200.917C114.683 207.942 141.143 228.782 172.403 228.782C203.781 228.782 230.124 207.942 238.085 200.917C239.49 199.629 239.49 197.639 238.085 196.351C230.124 189.326 203.781 168.486 172.403 168.486Z" fill="#1A1C1E"/>
<path d="M172.052 221.172C184.532 221.172 194.649 211.056 194.649 198.576C194.649 186.096 184.532 175.98 172.052 175.98C159.573 175.98 149.456 186.096 149.456 198.576C149.456 211.056 159.573 221.172 172.052 221.172Z" fill="#1A1C1E"/>
<path d="M225.327 154.439C230.176 154.439 234.108 150.507 234.108 145.658C234.108 140.808 230.176 136.877 225.327 136.877C220.477 136.877 216.546 140.808 216.546 145.658C216.546 150.507 220.477 154.439 225.327 154.439Z" fill="#FAFBFD"/>
<path d="M282.576 349.961C276.37 349.961 271.336 338.721 271.336 324.906C271.336 311.09 276.37 299.851 282.576 299.851H300.372V349.961H282.576Z" fill="#F2F4F7" stroke="#1A1C1E" stroke-miterlimit="10" stroke-linecap="round" stroke-linejoin="round"/>
<path d="M300.374 349.961C306.582 349.961 311.614 338.743 311.614 324.906C311.614 311.068 306.582 299.851 300.374 299.851C294.167 299.851 289.135 311.068 289.135 324.906C289.135 338.743 294.167 349.961 300.374 349.961Z" fill="#E2E7EE" stroke="#1A1C1E" stroke-miterlimit="10" stroke-linecap="round" stroke-linejoin="round"/>
<path d="M300.373 332.633C301.795 332.633 302.948 329.173 302.948 324.906C302.948 320.638 301.795 317.178 300.373 317.178C298.95 317.178 297.797 320.638 297.797 324.906C297.797 329.173 298.95 332.633 300.373 332.633Z" fill="#C3CAD4" stroke="#1A1C1E" stroke-miterlimit="10" stroke-linecap="round" stroke-linejoin="round"/>
</svg>
