<svg width="429" height="401" viewBox="0 0 429 401" fill="none" xmlns="http://www.w3.org/2000/svg">
<path d="M163.911 395.4H14.9987C9.18935 395.4 4.6387 390.268 5.41328 384.459L51.307 23.5056C51.888 18.6645 56.0513 15.082 60.8924 15.082H209.805C215.614 15.082 220.165 20.2136 219.39 26.0229L173.4 386.976C172.916 391.721 168.752 395.4 163.911 395.4Z" fill="#29AE86" stroke="#1A1C1E" stroke-miterlimit="10" stroke-linecap="round" stroke-linejoin="round"/>
<path d="M16.2575 381.651L63.894 26.701C64.3781 22.8281 67.6701 20.0203 71.543 20.0203H208.643C213.291 20.0203 216.97 24.1836 216.292 28.8311L168.656 383.878C168.172 387.751 164.88 390.559 161.007 390.559H23.9065C19.259 390.462 15.5797 386.299 16.2575 381.651Z" fill="#FAFBFD" stroke="#1A1C1E" stroke-miterlimit="10" stroke-linecap="round" stroke-linejoin="round"/>
<path d="M89.5517 35.4149L73.6729 154.022" stroke="#1A1C1E" stroke-miterlimit="10" stroke-linecap="round" stroke-linejoin="round"/>
<path d="M57.3105 174.936L41.4316 293.543" stroke="#1A1C1E" stroke-miterlimit="10" stroke-linecap="round" stroke-linejoin="round"/>
<path d="M57.0188 323.848L48.208 389.494" stroke="#1A1C1E" stroke-miterlimit="10" stroke-linecap="round" stroke-linejoin="round"/>
<path d="M209.418 395.4H70.1872C64.3778 395.4 59.8272 390.268 60.6018 384.459L106.495 23.5057C107.076 18.6646 111.24 15.0822 116.081 15.0822H255.311C261.121 15.0822 265.671 20.2137 264.897 26.0231L218.906 386.976C218.422 391.721 214.259 395.4 209.418 395.4Z" fill="#29AE86" stroke="#1A1C1E" stroke-miterlimit="10" stroke-linecap="round" stroke-linejoin="round"/>
<path d="M371.886 395.4H118.212C115.017 395.4 112.402 392.786 112.402 389.59V11.2091C112.402 8.01398 115.017 5.39978 118.212 5.39978H371.886C375.081 5.39978 377.695 8.01398 377.695 11.2091V389.59C377.695 392.786 375.081 395.4 371.886 395.4Z" fill="#915EDF" stroke="#1A1C1E" stroke-miterlimit="10" stroke-linecap="round" stroke-linejoin="round"/>
<path d="M122.085 381.845V18.9549C122.085 16.8248 123.828 15.082 125.958 15.082H364.141C366.271 15.082 368.013 16.8248 368.013 18.9549V381.845C368.013 383.975 366.271 385.718 364.141 385.718H125.958C123.828 385.718 122.085 383.975 122.085 381.845Z" fill="#FAFBFD" stroke="#1A1C1E" stroke-miterlimit="10" stroke-linecap="round" stroke-linejoin="round"/>
<path d="M419.328 395.4H161.781C159.651 395.4 157.908 393.657 157.908 391.527V9.27267C157.908 7.14258 159.651 5.39978 161.781 5.39978H419.328C421.458 5.39978 423.201 7.14258 423.201 9.27267V391.527C423.201 393.657 421.458 395.4 419.328 395.4Z" fill="#AE8DF0" stroke="#1A1C1E" stroke-miterlimit="10" stroke-linecap="round" stroke-linejoin="round"/>
<path d="M415.453 5.39978H345.063V395.4H415.453V5.39978Z" fill="#FAFBFD" stroke="#1A1C1E" stroke-miterlimit="10"/>
<path d="M402.866 49.938H357.553C356.778 49.938 356.197 49.357 356.197 48.5825V11.0154C356.197 10.2408 356.778 9.65991 357.553 9.65991H402.866C403.64 9.65991 404.221 10.2408 404.221 11.0154V48.5825C404.318 49.357 403.64 49.938 402.866 49.938Z" fill="#1A1C1E" stroke="#1A1C1E" stroke-miterlimit="10" stroke-linecap="round" stroke-linejoin="round"/>
<path d="M347.859 18.2533V21.5453H353.281V18.2533H347.859Z" fill="#1A1C1E" stroke="#1A1C1E" stroke-miterlimit="10" stroke-linecap="round" stroke-linejoin="round"/>
<path d="M347.945 8.485V11.777H353.367V8.485H347.945Z" fill="#1A1C1E" stroke="#1A1C1E" stroke-miterlimit="10" stroke-linecap="round" stroke-linejoin="round"/>
<path d="M347.87 28.0215V31.3135H353.292V28.0215H347.87Z" fill="#1A1C1E" stroke="#1A1C1E" stroke-miterlimit="10" stroke-linecap="round" stroke-linejoin="round"/>
<path d="M347.881 37.7897V41.0817H353.303V37.7897H347.881Z" fill="#1A1C1E" stroke="#1A1C1E" stroke-miterlimit="10" stroke-linecap="round" stroke-linejoin="round"/>
<path d="M347.892 47.5579V50.8499H353.314V47.5579H347.892Z" fill="#1A1C1E" stroke="#1A1C1E" stroke-miterlimit="10" stroke-linecap="round" stroke-linejoin="round"/>
<path d="M407.116 18.2547V21.5466H412.538V18.2547H407.116Z" fill="#1A1C1E" stroke="#1A1C1E" stroke-miterlimit="10" stroke-linecap="round" stroke-linejoin="round"/>
<path d="M407.202 8.48637V11.7783H412.624V8.48637H407.202Z" fill="#1A1C1E" stroke="#1A1C1E" stroke-miterlimit="10" stroke-linecap="round" stroke-linejoin="round"/>
<path d="M407.127 28.0226V31.3146H412.549V28.0226H407.127Z" fill="#1A1C1E" stroke="#1A1C1E" stroke-miterlimit="10" stroke-linecap="round" stroke-linejoin="round"/>
<path d="M407.138 37.7908V41.0828H412.56V37.7908H407.138Z" fill="#1A1C1E" stroke="#1A1C1E" stroke-miterlimit="10" stroke-linecap="round" stroke-linejoin="round"/>
<path d="M407.148 47.5592V50.8512H412.57V47.5592H407.148Z" fill="#1A1C1E" stroke="#1A1C1E" stroke-miterlimit="10" stroke-linecap="round" stroke-linejoin="round"/>
<path d="M402.866 98.7363H357.553C356.778 98.7363 356.197 98.1554 356.197 97.3808V59.717C356.197 58.9424 356.778 58.3615 357.553 58.3615H402.866C403.64 58.3615 404.221 58.9424 404.221 59.717V97.284C404.318 98.0586 403.64 98.7363 402.866 98.7363Z" fill="#1A1C1E" stroke="#1A1C1E" stroke-miterlimit="10" stroke-linecap="round" stroke-linejoin="round"/>
<path d="M347.913 66.9978V70.2898H353.335V66.9978H347.913Z" fill="#1A1C1E" stroke="#1A1C1E" stroke-miterlimit="10" stroke-linecap="round" stroke-linejoin="round"/>
<path d="M347.902 57.2296V60.5216H353.324V57.2296H347.902Z" fill="#1A1C1E" stroke="#1A1C1E" stroke-miterlimit="10" stroke-linecap="round" stroke-linejoin="round"/>
<path d="M347.925 76.766V80.058H353.347V76.766H347.925Z" fill="#1A1C1E" stroke="#1A1C1E" stroke-miterlimit="10" stroke-linecap="round" stroke-linejoin="round"/>
<path d="M347.936 86.5342V89.8262H353.358V86.5342H347.936Z" fill="#1A1C1E" stroke="#1A1C1E" stroke-miterlimit="10" stroke-linecap="round" stroke-linejoin="round"/>
<path d="M347.945 96.3023V99.5942H353.367V96.3023H347.945Z" fill="#1A1C1E" stroke="#1A1C1E" stroke-miterlimit="10" stroke-linecap="round" stroke-linejoin="round"/>
<path d="M407.171 66.9988V70.2908H412.593V66.9988H407.171Z" fill="#1A1C1E" stroke="#1A1C1E" stroke-miterlimit="10" stroke-linecap="round" stroke-linejoin="round"/>
<path d="M407.159 57.2306V60.5226H412.581V57.2306H407.159Z" fill="#1A1C1E" stroke="#1A1C1E" stroke-miterlimit="10" stroke-linecap="round" stroke-linejoin="round"/>
<path d="M407.182 76.7673V80.0592H412.604V76.7673H407.182Z" fill="#1A1C1E" stroke="#1A1C1E" stroke-miterlimit="10" stroke-linecap="round" stroke-linejoin="round"/>
<path d="M407.192 86.5352V89.8271H412.614V86.5352H407.192Z" fill="#1A1C1E" stroke="#1A1C1E" stroke-miterlimit="10" stroke-linecap="round" stroke-linejoin="round"/>
<path d="M407.203 96.3033V99.5952H412.625V96.3033H407.203Z" fill="#1A1C1E" stroke="#1A1C1E" stroke-miterlimit="10" stroke-linecap="round" stroke-linejoin="round"/>
<path d="M402.866 147.438H357.553C356.778 147.438 356.197 146.857 356.197 146.082V108.515C356.197 107.741 356.778 107.16 357.553 107.16H402.866C403.64 107.16 404.221 107.741 404.221 108.515V146.082C404.318 146.857 403.64 147.438 402.866 147.438Z" fill="#1A1C1E" stroke="#1A1C1E" stroke-miterlimit="10" stroke-linecap="round" stroke-linejoin="round"/>
<path d="M347.87 115.742V119.034H353.292V115.742H347.87Z" fill="#1A1C1E" stroke="#1A1C1E" stroke-miterlimit="10" stroke-linecap="round" stroke-linejoin="round"/>
<path d="M347.859 105.974V109.266H353.281V105.974H347.859Z" fill="#1A1C1E" stroke="#1A1C1E" stroke-miterlimit="10" stroke-linecap="round" stroke-linejoin="round"/>
<path d="M347.882 125.511V128.803H353.304V125.511H347.882Z" fill="#1A1C1E" stroke="#1A1C1E" stroke-miterlimit="10" stroke-linecap="round" stroke-linejoin="round"/>
<path d="M347.892 135.279V138.571H353.314V135.279H347.892Z" fill="#1A1C1E" stroke="#1A1C1E" stroke-miterlimit="10" stroke-linecap="round" stroke-linejoin="round"/>
<path d="M347.902 145.047V148.339H353.324V145.047H347.902Z" fill="#1A1C1E" stroke="#1A1C1E" stroke-miterlimit="10" stroke-linecap="round" stroke-linejoin="round"/>
<path d="M407.127 115.743V119.035H412.549V115.743H407.127Z" fill="#1A1C1E" stroke="#1A1C1E" stroke-miterlimit="10" stroke-linecap="round" stroke-linejoin="round"/>
<path d="M407.116 105.975V109.267H412.538V105.975H407.116Z" fill="#1A1C1E" stroke="#1A1C1E" stroke-miterlimit="10" stroke-linecap="round" stroke-linejoin="round"/>
<path d="M407.138 125.512V128.804H412.56V125.512H407.138Z" fill="#1A1C1E" stroke="#1A1C1E" stroke-miterlimit="10" stroke-linecap="round" stroke-linejoin="round"/>
<path d="M407.148 135.28V138.572H412.57V135.28H407.148Z" fill="#1A1C1E" stroke="#1A1C1E" stroke-miterlimit="10" stroke-linecap="round" stroke-linejoin="round"/>
<path d="M407.159 145.048V148.34H412.581V145.048H407.159Z" fill="#1A1C1E" stroke="#1A1C1E" stroke-miterlimit="10" stroke-linecap="round" stroke-linejoin="round"/>
<path d="M402.866 196.236H357.553C356.778 196.236 356.197 195.655 356.197 194.881V157.314C356.197 156.539 356.778 155.958 357.553 155.958H402.866C403.64 155.958 404.221 156.539 404.221 157.314V194.881C404.318 195.559 403.64 196.236 402.866 196.236Z" fill="#1A1C1E" stroke="#1A1C1E" stroke-miterlimit="10" stroke-linecap="round" stroke-linejoin="round"/>
<path d="M347.925 164.487V167.779H353.347V164.487H347.925Z" fill="#1A1C1E" stroke="#1A1C1E" stroke-miterlimit="10" stroke-linecap="round" stroke-linejoin="round"/>
<path d="M347.914 154.719V158.011H353.336V154.719H347.914Z" fill="#1A1C1E" stroke="#1A1C1E" stroke-miterlimit="10" stroke-linecap="round" stroke-linejoin="round"/>
<path d="M347.936 174.255V177.547H353.358V174.255H347.936Z" fill="#1A1C1E" stroke="#1A1C1E" stroke-miterlimit="10" stroke-linecap="round" stroke-linejoin="round"/>
<path d="M347.946 184.023V187.315H353.368V184.023H347.946Z" fill="#1A1C1E" stroke="#1A1C1E" stroke-miterlimit="10" stroke-linecap="round" stroke-linejoin="round"/>
<path d="M347.86 193.791V197.083H353.282V193.791H347.86Z" fill="#1A1C1E" stroke="#1A1C1E" stroke-miterlimit="10" stroke-linecap="round" stroke-linejoin="round"/>
<path d="M407.181 164.488V167.78H412.603V164.488H407.181Z" fill="#1A1C1E" stroke="#1A1C1E" stroke-miterlimit="10" stroke-linecap="round" stroke-linejoin="round"/>
<path d="M407.171 154.72V158.012H412.593V154.72H407.171Z" fill="#1A1C1E" stroke="#1A1C1E" stroke-miterlimit="10" stroke-linecap="round" stroke-linejoin="round"/>
<path d="M407.192 174.256V177.548H412.614V174.256H407.192Z" fill="#1A1C1E" stroke="#1A1C1E" stroke-miterlimit="10" stroke-linecap="round" stroke-linejoin="round"/>
<path d="M407.203 184.024V187.316H412.625V184.024H407.203Z" fill="#1A1C1E" stroke="#1A1C1E" stroke-miterlimit="10" stroke-linecap="round" stroke-linejoin="round"/>
<path d="M407.117 193.793V197.084H412.539V193.793H407.117Z" fill="#1A1C1E" stroke="#1A1C1E" stroke-miterlimit="10" stroke-linecap="round" stroke-linejoin="round"/>
<path d="M402.866 244.938H357.553C356.778 244.938 356.197 244.357 356.197 243.582V206.015C356.197 205.241 356.778 204.66 357.553 204.66H402.866C403.64 204.66 404.221 205.241 404.221 206.015V243.582C404.318 244.357 403.64 244.938 402.866 244.938Z" fill="#1A1C1E" stroke="#1A1C1E" stroke-miterlimit="10" stroke-linecap="round" stroke-linejoin="round"/>
<path d="M347.882 213.231V216.523H353.304V213.231H347.882Z" fill="#1A1C1E" stroke="#1A1C1E" stroke-miterlimit="10" stroke-linecap="round" stroke-linejoin="round"/>
<path d="M347.871 203.463V206.755H353.293V203.463H347.871Z" fill="#1A1C1E" stroke="#1A1C1E" stroke-miterlimit="10" stroke-linecap="round" stroke-linejoin="round"/>
<path d="M347.892 223V226.292H353.314V223H347.892Z" fill="#1A1C1E" stroke="#1A1C1E" stroke-miterlimit="10" stroke-linecap="round" stroke-linejoin="round"/>
<path d="M347.903 232.768V236.06H353.325V232.768H347.903Z" fill="#1A1C1E" stroke="#1A1C1E" stroke-miterlimit="10" stroke-linecap="round" stroke-linejoin="round"/>
<path d="M347.914 242.536V245.828H353.336V242.536H347.914Z" fill="#1A1C1E" stroke="#1A1C1E" stroke-miterlimit="10" stroke-linecap="round" stroke-linejoin="round"/>
<path d="M407.138 213.233V216.525H412.56V213.233H407.138Z" fill="#1A1C1E" stroke="#1A1C1E" stroke-miterlimit="10" stroke-linecap="round" stroke-linejoin="round"/>
<path d="M407.127 203.464V206.756H412.549V203.464H407.127Z" fill="#1A1C1E" stroke="#1A1C1E" stroke-miterlimit="10" stroke-linecap="round" stroke-linejoin="round"/>
<path d="M407.149 223.001V226.293H412.571V223.001H407.149Z" fill="#1A1C1E" stroke="#1A1C1E" stroke-miterlimit="10" stroke-linecap="round" stroke-linejoin="round"/>
<path d="M407.159 232.769V236.061H412.581V232.769H407.159Z" fill="#1A1C1E" stroke="#1A1C1E" stroke-miterlimit="10" stroke-linecap="round" stroke-linejoin="round"/>
<path d="M407.171 242.537V245.829H412.593V242.537H407.171Z" fill="#1A1C1E" stroke="#1A1C1E" stroke-miterlimit="10" stroke-linecap="round" stroke-linejoin="round"/>
<path d="M402.866 293.736H357.553C356.778 293.736 356.197 293.155 356.197 292.381V254.717C356.197 253.942 356.778 253.361 357.553 253.361H402.866C403.64 253.361 404.221 253.942 404.221 254.717V292.284C404.318 293.059 403.64 293.736 402.866 293.736Z" fill="#1A1C1E" stroke="#1A1C1E" stroke-miterlimit="10" stroke-linecap="round" stroke-linejoin="round"/>
<path d="M347.936 261.976V265.268H353.358V261.976H347.936Z" fill="#1A1C1E" stroke="#1A1C1E" stroke-miterlimit="10" stroke-linecap="round" stroke-linejoin="round"/>
<path d="M347.925 252.207V255.499H353.347V252.207H347.925Z" fill="#1A1C1E" stroke="#1A1C1E" stroke-miterlimit="10" stroke-linecap="round" stroke-linejoin="round"/>
<path d="M347.946 271.744V275.036H353.368V271.744H347.946Z" fill="#1A1C1E" stroke="#1A1C1E" stroke-miterlimit="10" stroke-linecap="round" stroke-linejoin="round"/>
<path d="M347.86 281.512V284.804H353.282V281.512H347.86Z" fill="#1A1C1E" stroke="#1A1C1E" stroke-miterlimit="10" stroke-linecap="round" stroke-linejoin="round"/>
<path d="M347.871 291.28V294.572H353.293V291.28H347.871Z" fill="#1A1C1E" stroke="#1A1C1E" stroke-miterlimit="10" stroke-linecap="round" stroke-linejoin="round"/>
<path d="M407.192 261.977V265.269H412.614V261.977H407.192Z" fill="#1A1C1E" stroke="#1A1C1E" stroke-miterlimit="10" stroke-linecap="round" stroke-linejoin="round"/>
<path d="M407.181 252.209V255.5H412.603V252.209H407.181Z" fill="#1A1C1E" stroke="#1A1C1E" stroke-miterlimit="10" stroke-linecap="round" stroke-linejoin="round"/>
<path d="M407.203 271.745V275.037H412.625V271.745H407.203Z" fill="#1A1C1E" stroke="#1A1C1E" stroke-miterlimit="10" stroke-linecap="round" stroke-linejoin="round"/>
<path d="M407.117 281.513V284.805H412.539V281.513H407.117Z" fill="#1A1C1E" stroke="#1A1C1E" stroke-miterlimit="10" stroke-linecap="round" stroke-linejoin="round"/>
<path d="M407.128 291.281V294.573H412.55V291.281H407.128Z" fill="#1A1C1E" stroke="#1A1C1E" stroke-miterlimit="10" stroke-linecap="round" stroke-linejoin="round"/>
<path d="M402.866 342.438H357.553C356.778 342.438 356.197 341.857 356.197 341.082V303.515C356.197 302.741 356.778 302.16 357.553 302.16H402.866C403.64 302.16 404.221 302.741 404.221 303.515V341.082C404.318 341.857 403.64 342.438 402.866 342.438Z" fill="#1A1C1E" stroke="#1A1C1E" stroke-miterlimit="10" stroke-linecap="round" stroke-linejoin="round"/>
<path d="M347.893 310.72V314.012H353.315V310.72H347.893Z" fill="#1A1C1E" stroke="#1A1C1E" stroke-miterlimit="10" stroke-linecap="round" stroke-linejoin="round"/>
<path d="M347.882 300.952V304.244H353.304V300.952H347.882Z" fill="#1A1C1E" stroke="#1A1C1E" stroke-miterlimit="10" stroke-linecap="round" stroke-linejoin="round"/>
<path d="M347.903 320.488V323.78H353.325V320.488H347.903Z" fill="#1A1C1E" stroke="#1A1C1E" stroke-miterlimit="10" stroke-linecap="round" stroke-linejoin="round"/>
<path d="M347.914 330.256V333.548H353.336V330.256H347.914Z" fill="#1A1C1E" stroke="#1A1C1E" stroke-miterlimit="10" stroke-linecap="round" stroke-linejoin="round"/>
<path d="M347.925 340.024V343.316H353.347V340.024H347.925Z" fill="#1A1C1E" stroke="#1A1C1E" stroke-miterlimit="10" stroke-linecap="round" stroke-linejoin="round"/>
<path d="M407.148 310.721V314.013H412.57V310.721H407.148Z" fill="#1A1C1E" stroke="#1A1C1E" stroke-miterlimit="10" stroke-linecap="round" stroke-linejoin="round"/>
<path d="M407.138 300.953V304.245H412.56V300.953H407.138Z" fill="#1A1C1E" stroke="#1A1C1E" stroke-miterlimit="10" stroke-linecap="round" stroke-linejoin="round"/>
<path d="M407.16 320.489V323.781H412.582V320.489H407.16Z" fill="#1A1C1E" stroke="#1A1C1E" stroke-miterlimit="10" stroke-linecap="round" stroke-linejoin="round"/>
<path d="M407.17 330.257V333.549H412.592V330.257H407.17Z" fill="#1A1C1E" stroke="#1A1C1E" stroke-miterlimit="10" stroke-linecap="round" stroke-linejoin="round"/>
<path d="M407.181 340.025V343.317H412.603V340.025H407.181Z" fill="#1A1C1E" stroke="#1A1C1E" stroke-miterlimit="10" stroke-linecap="round" stroke-linejoin="round"/>
<path d="M402.866 391.139H357.553C356.778 391.139 356.197 390.558 356.197 389.784V352.217C356.197 351.442 356.778 350.861 357.553 350.861H402.866C403.64 350.861 404.221 351.442 404.221 352.217V389.784C404.318 390.558 403.64 391.139 402.866 391.139Z" fill="#1A1C1E" stroke="#1A1C1E" stroke-miterlimit="10" stroke-linecap="round" stroke-linejoin="round"/>
<path d="M347.946 359.465V362.757H353.368V359.465H347.946Z" fill="#1A1C1E" stroke="#1A1C1E" stroke-miterlimit="10" stroke-linecap="round" stroke-linejoin="round"/>
<path d="M347.936 349.696V352.988H353.358V349.696H347.936Z" fill="#1A1C1E" stroke="#1A1C1E" stroke-miterlimit="10" stroke-linecap="round" stroke-linejoin="round"/>
<path d="M347.86 369.233V372.525H353.282V369.233H347.86Z" fill="#1A1C1E" stroke="#1A1C1E" stroke-miterlimit="10" stroke-linecap="round" stroke-linejoin="round"/>
<path d="M347.871 379.001V382.293H353.293V379.001H347.871Z" fill="#1A1C1E" stroke="#1A1C1E" stroke-miterlimit="10" stroke-linecap="round" stroke-linejoin="round"/>
<path d="M347.883 388.769V392.061H353.305V388.769H347.883Z" fill="#1A1C1E" stroke="#1A1C1E" stroke-miterlimit="10" stroke-linecap="round" stroke-linejoin="round"/>
<path d="M407.203 359.466V362.758H412.625V359.466H407.203Z" fill="#1A1C1E" stroke="#1A1C1E" stroke-miterlimit="10" stroke-linecap="round" stroke-linejoin="round"/>
<path d="M407.192 349.698V352.99H412.614V349.698H407.192Z" fill="#1A1C1E" stroke="#1A1C1E" stroke-miterlimit="10" stroke-linecap="round" stroke-linejoin="round"/>
<path d="M407.117 369.234V372.526H412.539V369.234H407.117Z" fill="#1A1C1E" stroke="#1A1C1E" stroke-miterlimit="10" stroke-linecap="round" stroke-linejoin="round"/>
<path d="M407.128 379.002V382.294H412.55V379.002H407.128Z" fill="#1A1C1E" stroke="#1A1C1E" stroke-miterlimit="10" stroke-linecap="round" stroke-linejoin="round"/>
<path d="M407.139 388.77V392.062H412.561V388.77H407.139Z" fill="#1A1C1E" stroke="#1A1C1E" stroke-miterlimit="10" stroke-linecap="round" stroke-linejoin="round"/>
<path d="M140.481 109.677V255.588" stroke="#1A1C1E" stroke-miterlimit="10" stroke-linecap="round" stroke-linejoin="round"/>
<path d="M132.154 39.481V99.6076" stroke="#1A1C1E" stroke-miterlimit="10" stroke-linecap="round" stroke-linejoin="round"/>
<path d="M149.582 331.981V385.717" stroke="#1A1C1E" stroke-miterlimit="10" stroke-linecap="round" stroke-linejoin="round"/>
<g filter="url(#filter0_d_2545_38697)">
<path d="M181.391 289.817V256.658H192.779V289.817H181.391Z" fill="#FAFBFD" stroke="#1A1C1E"/>
<path d="M218.678 312.608V309.047L221.392 306.333H224.807L227.059 308.908V312.728L224.58 315.316H221.277L218.678 312.608Z" fill="#FAFBFD" stroke="#1A1C1E"/>
<path d="M218.176 294.425H218.676V293.925V279.631H229.944V296.244L224.103 302.085H211.681H181.391V294.425H199.413H199.913V293.925V256.538H211.181V293.925V294.425H211.681H218.176Z" fill="#FAFBFD" stroke="#1A1C1E"/>
<path d="M237.079 289.817V256.658H248.468V289.817H237.079Z" fill="#FAFBFD" stroke="#1A1C1E"/>
<path d="M274.485 312.849V309.168L277.079 306.574H280.507L282.867 309.041V312.849L280.387 315.437H276.965L274.485 312.849Z" fill="#FAFBFD" stroke="#1A1C1E"/>
<path d="M293.109 294.425H293.609V293.925V256.298H304.877V296.126L299.033 302.085H267.49H237.079V294.425H255.102H255.602V293.925V256.538H266.99V293.925V294.425H267.49H273.985H274.485V293.925V279.631H285.874V293.925V294.425H286.374H293.109Z" fill="#FAFBFD" stroke="#1A1C1E"/>
<path d="M317.971 302.085L312.013 296.241V256.298H323.401V302.085H317.971Z" fill="#FAFBFD" stroke="#1A1C1E"/>
<path d="M201.717 141.823V138.25L204.317 135.542H207.739L210.098 138.009V141.938L207.619 144.525H204.203L201.717 141.823Z" fill="#FAFBFD" stroke="#1A1C1E"/>
<path d="M211.46 141.811V138.142L214.168 135.542H217.595L219.842 138.003V141.817L217.362 144.405H214.054L211.46 141.811Z" fill="#FAFBFD" stroke="#1A1C1E"/>
<path d="M249.55 97.3147L247.07 99.9022H243.648L241.168 97.3147V93.6333L243.762 91.0396H247.19L249.55 93.5065V97.3147Z" fill="#FAFBFD" stroke="#1A1C1E"/>
<path d="M297.541 123.014V123.514H298.041H304.656H304.776H305.276V123.014V85.266H316.545V125.333L310.703 131.174H280.138V125.42L279.194 125.189L276.087 131.174H260.514H222.627H169.844V123.514H185.581H186.081V123.014V116.88V116.38H185.581H173.572V108.72H191.629L197.47 114.561V123.014V123.514H197.97H210.839H211.339V123.014V108.72H222.608V123.014V123.514H223.108H233.331H234.538L233.685 122.661L230.223 119.199V110.833L236.064 104.992H254.173L260.014 110.833V123.014V123.514H260.514H267.25H267.75V123.014V114.561L273.591 108.72H291.699L297.541 114.561V123.014ZM248.246 123.514H248.746V123.014V113.151V112.651H248.246H241.991H241.491V113.151V119.406V119.613L241.638 119.759L245.246 123.368L245.393 123.514H245.6H248.246ZM285.772 123.514H286.272V123.014V116.88V116.38H285.772H279.638H279.138V116.88V123.014V123.514H279.638H285.772Z" fill="#FAFBFD" stroke="#1A1C1E"/>
<path d="M329.519 131.054L323.678 125.212V85.3864H334.946V131.054H329.519Z" fill="#FAFBFD" stroke="#1A1C1E"/>
<path d="M232.629 222.456V218.787L235.337 216.187H238.764L241.01 218.647V222.462L238.531 225.05H235.223L232.629 222.456Z" fill="#FAFBFD" stroke="#1A1C1E"/>
<path d="M222.886 222.468V218.895L225.485 216.187H228.908L231.267 218.654V222.582L228.788 225.17H225.372L222.886 222.468Z" fill="#FAFBFD" stroke="#1A1C1E"/>
<path d="M281.664 164.849L279.184 167.437H275.768L273.282 164.735V161.162L275.882 158.454H279.298L281.664 161.035V164.849Z" fill="#FAFBFD" stroke="#1A1C1E"/>
<path d="M212.542 207.541V185.035H223.93V205.463V205.963H224.43H242.953H243.453V205.463V199.208V198.708H242.953H231.185V191.048H265.445H266.652L265.798 190.195L262.336 186.733V178.367L268.178 172.526H286.283L292.007 178.364V192.747L286.166 198.588H255.101H254.601V199.088V207.541L248.76 213.382H218.383L212.542 207.541ZM280.359 190.928H280.859V190.428V180.565V180.065H280.359H274.105H273.605V180.565V186.82V187.027L273.751 187.173L277.359 190.782L277.506 190.928H277.713H280.359Z" fill="#FAFBFD" stroke="#1A1C1E"/>
</g>
<defs>
<filter id="filter0_d_2545_38697" x="166.344" y="84.766" width="169.103" height="234.171" filterUnits="userSpaceOnUse" color-interpolation-filters="sRGB">
<feFlood flood-opacity="0" result="BackgroundImageFix"/>
<feColorMatrix in="SourceAlpha" type="matrix" values="0 0 0 0 0 0 0 0 0 0 0 0 0 0 0 0 0 0 127 0" result="hardAlpha"/>
<feOffset dx="-3" dy="3"/>
<feComposite in2="hardAlpha" operator="out"/>
<feColorMatrix type="matrix" values="0 0 0 0 0.103529 0 0 0 0 0.109412 0 0 0 0 0.117647 0 0 0 1 0"/>
<feBlend mode="normal" in2="BackgroundImageFix" result="effect1_dropShadow_2545_38697"/>
<feBlend mode="normal" in="SourceGraphic" in2="effect1_dropShadow_2545_38697" result="shape"/>
</filter>
</defs>
</svg>
