<svg width="492" height="400" viewBox="0 0 492 400" fill="none" xmlns="http://www.w3.org/2000/svg">
<path d="M441.628 112.952H67.4985C65.6592 112.952 64.1543 111.447 64.1543 109.607V4.18231C64.1543 2.34301 65.6592 0.838135 67.4985 0.838135H441.628C443.467 0.838135 444.972 2.34301 444.972 4.18231V109.607C444.972 111.447 443.467 112.952 441.628 112.952Z" fill="#1A1C1E" stroke="#1A1C1E" stroke-miterlimit="10" stroke-linecap="round" stroke-linejoin="round"/>
<path d="M438.45 7.6936H432.347V13.7967H438.45V7.6936Z" stroke="#FAFBFD" stroke-miterlimit="10" stroke-linecap="round" stroke-linejoin="round"/>
<path d="M426.16 13.8804H432.347V19.9835" stroke="#FAFBFD" stroke-miterlimit="10" stroke-linecap="round" stroke-linejoin="round"/>
<path d="M70.6723 13.9019L76.7754 13.9019L76.7754 7.79874L70.6723 7.79874L70.6723 13.9019Z" stroke="#FAFBFD" stroke-miterlimit="10" stroke-linecap="round" stroke-linejoin="round"/>
<path d="M82.965 13.8804H76.7783V19.9835" stroke="#FAFBFD" stroke-miterlimit="10" stroke-linecap="round" stroke-linejoin="round"/>
<path d="M438.45 99.9092H432.347V106.012H438.45V99.9092Z" stroke="#FAFBFD" stroke-miterlimit="10" stroke-linecap="round" stroke-linejoin="round"/>
<path d="M426.16 99.9093H432.347V93.8062" stroke="#FAFBFD" stroke-miterlimit="10" stroke-linecap="round" stroke-linejoin="round"/>
<path d="M70.6723 106.109L76.7754 106.109L76.7754 100.006L70.6723 100.006L70.6723 106.109Z" stroke="#FAFBFD" stroke-miterlimit="10" stroke-linecap="round" stroke-linejoin="round"/>
<path d="M82.965 99.9095H76.7783V93.8064" stroke="#FAFBFD" stroke-miterlimit="10" stroke-linecap="round" stroke-linejoin="round"/>
<path d="M99.1006 11.3726H410.109" stroke="#FAFBFD" stroke-miterlimit="10" stroke-linecap="round" stroke-linejoin="round"/>
<path d="M434.854 82.0178V31.8552" stroke="#FAFBFD" stroke-miterlimit="10" stroke-linecap="round" stroke-linejoin="round"/>
<path d="M74.2715 82.0178V31.8552" stroke="#FAFBFD" stroke-miterlimit="10" stroke-linecap="round" stroke-linejoin="round"/>
<path d="M99.1006 102.418H410.109" stroke="#FAFBFD" stroke-miterlimit="10" stroke-linecap="round" stroke-linejoin="round"/>
<path d="M120.252 76.4161H107.21V58.4412H96.4248V78.5898L101.859 84.0241H125.686L131.121 78.5898V29.7649H120.252V76.4161Z" fill="#FAFBFD" stroke="#1A1C1E" stroke-miterlimit="10" stroke-linecap="round" stroke-linejoin="round"/>
<path d="M142.074 50.4154L136.64 55.8497V71.0657H152.942V76.4999H136.64V84.1079H163.811V55.7661L158.377 50.3318H142.074V50.4154ZM152.942 63.3741H147.508V57.9398H152.942V63.3741Z" fill="#FAFBFD" stroke="#1A1C1E" stroke-miterlimit="10" stroke-linecap="round" stroke-linejoin="round"/>
<path d="M231.112 63.3738H219.909L225.343 57.9396V50.3316H205.78L200.345 55.7658V63.3738H194.493V55.7658L189.059 50.3316H172.589V57.9396H183.624V63.3738H169.328V70.9818H236.546L241.98 65.5476V29.7649H231.112V63.3738ZM211.297 63.3738V57.9396H216.732L211.297 63.3738Z" fill="#FAFBFD" stroke="#1A1C1E" stroke-miterlimit="10" stroke-linecap="round" stroke-linejoin="round"/>
<path d="M247.33 65.5476L252.764 70.9818H258.199V29.7649H247.33V65.5476Z" fill="#FAFBFD" stroke="#1A1C1E" stroke-miterlimit="10" stroke-linecap="round" stroke-linejoin="round"/>
<path d="M296.155 74.0757L293.563 76.6674V80.1788L296.072 82.7705H299.416L301.84 80.2624V76.5002L299.583 74.0757H296.155Z" fill="#FAFBFD" stroke="#1A1C1E" stroke-miterlimit="10" stroke-linecap="round" stroke-linejoin="round"/>
<path d="M341.719 47.2384L344.144 44.7303V40.9681L341.887 38.46H338.459L335.867 41.1353V44.6467L338.375 47.2384H341.719Z" fill="#FAFBFD" stroke="#1A1C1E" stroke-miterlimit="10" stroke-linecap="round" stroke-linejoin="round"/>
<path d="M333.106 47.3226L335.531 44.7309V40.9687L333.19 38.5442H329.846L327.254 41.1359V44.7309L329.678 47.3226H333.106Z" fill="#FAFBFD" stroke="#1A1C1E" stroke-miterlimit="10" stroke-linecap="round" stroke-linejoin="round"/>
<path d="M407.266 50.4152H390.963L385.528 55.8495V63.4575H379.342V55.8495L373.907 50.4152H357.772V46.0678H379.843V39.5466H352.338L346.903 44.9809V58.0232H368.64V63.4575H341.051V50.4152H330.182V63.4575H318.812V50.4152H307.944V63.4575H288.38V50.4152H277.512V65.6312L282.946 71.0655H340.633H379.425H393.638L396.481 65.6312V71.0655H412.783V55.7659L407.266 50.4152ZM401.915 63.3739H396.481V57.9396H401.915V63.3739Z" fill="#FAFBFD" stroke="#1A1C1E" stroke-miterlimit="10" stroke-linecap="round" stroke-linejoin="round"/>
<path d="M288.01 128.308H251.016L263.905 317.607C263.905 319.378 270.103 320.854 277.876 320.854C285.648 320.854 291.847 319.378 291.847 317.607L288.01 128.308Z" fill="#C3CAD4" stroke="#1A1C1E" stroke-miterlimit="10" stroke-linecap="round" stroke-linejoin="round"/>
<path d="M269.513 132.637C279.728 132.637 288.01 130.699 288.01 128.308C288.01 125.917 279.728 123.979 269.513 123.979C259.297 123.979 251.016 125.917 251.016 128.308C251.016 130.699 259.297 132.637 269.513 132.637Z" fill="#FAFBFD" stroke="#1A1C1E" stroke-miterlimit="10" stroke-linecap="round" stroke-linejoin="round"/>
<path d="M444.447 128.308H481.441L468.552 317.607C468.552 319.378 462.353 320.854 454.581 320.854C446.906 320.854 440.609 319.378 440.609 317.607L444.447 128.308Z" fill="#C3CAD4" stroke="#1A1C1E" stroke-miterlimit="10" stroke-linecap="round" stroke-linejoin="round"/>
<path d="M462.944 132.637C473.16 132.637 481.441 130.699 481.441 128.308C481.441 125.917 473.16 123.979 462.944 123.979C452.729 123.979 444.447 125.917 444.447 128.308C444.447 130.699 452.729 132.637 462.944 132.637Z" fill="#FAFBFD" stroke="#1A1C1E" stroke-miterlimit="10" stroke-linecap="round" stroke-linejoin="round"/>
<path d="M289.681 278.941C291.257 278.941 292.535 276.078 292.535 272.546C292.535 269.014 291.257 266.15 289.681 266.15C288.106 266.15 286.828 269.014 286.828 272.546C286.828 276.078 288.106 278.941 289.681 278.941Z" fill="#1A1C1E" stroke="#1A1C1E" stroke-miterlimit="10"/>
<path d="M442.875 278.941C444.451 278.941 445.728 276.078 445.728 272.546C445.728 269.014 444.451 266.15 442.875 266.15C441.299 266.15 440.021 269.014 440.021 272.546C440.021 276.078 441.299 278.941 442.875 278.941Z" fill="#1A1C1E" stroke="#1A1C1E" stroke-miterlimit="10"/>
<path d="M443.069 266.741H289.386C288.403 267.725 287.714 269.988 287.714 272.546C287.714 275.104 288.403 277.269 289.386 278.351H443.069C444.053 277.367 444.742 275.104 444.742 272.546C444.742 269.988 444.053 267.823 443.069 266.741Z" fill="#C3CAD4" stroke="#1A1C1E" stroke-miterlimit="10" stroke-linecap="round" stroke-linejoin="round"/>
<path d="M444.84 139.426H287.714C285.648 141.591 284.172 146.313 284.172 151.823C284.172 157.333 285.648 162.056 287.714 164.22H444.84C446.906 162.056 448.382 157.333 448.382 151.823C448.382 146.313 446.906 141.591 444.84 139.426Z" fill="#F2F4F7" stroke="#1A1C1E" stroke-miterlimit="10" stroke-linecap="round" stroke-linejoin="round"/>
<path d="M366.229 158.71L271.383 142.673V142.771C270.989 142.771 270.497 142.673 270.104 142.673C264.299 142.673 259.478 146.707 258.1 152.02L247.376 182.816L271.383 188.817L275.023 173.862L366.229 158.71Z" fill="#F2F4F7" stroke="#1A1C1E" stroke-miterlimit="10" stroke-linecap="round" stroke-linejoin="round"/>
<path d="M366.227 158.71L278.169 172.977H454.284L366.227 158.71Z" fill="#F2F4F7" stroke="#1A1C1E" stroke-miterlimit="10" stroke-linecap="round" stroke-linejoin="round"/>
<path d="M366.229 158.71L461.076 142.673V142.771C461.47 142.771 461.961 142.673 462.355 142.673C468.16 142.673 472.981 146.707 474.358 152.02L485.083 182.816L461.076 188.817L457.436 173.862L366.229 158.71Z" fill="#F2F4F7" stroke="#1A1C1E" stroke-miterlimit="10" stroke-linecap="round" stroke-linejoin="round"/>
<path d="M278.663 165.106H241.57L254.558 367.983C254.558 369.754 260.756 371.23 268.529 371.23C276.203 371.23 282.5 369.754 282.5 367.983L278.663 165.106Z" fill="#E2E7EE" stroke="#1A1C1E" stroke-miterlimit="10" stroke-linecap="round" stroke-linejoin="round"/>
<path d="M260.168 169.434C270.384 169.434 278.665 167.496 278.665 165.105C278.665 162.714 270.384 160.776 260.168 160.776C249.952 160.776 241.671 162.714 241.671 165.105C241.671 167.496 249.952 169.434 260.168 169.434Z" fill="#FAFBFD" stroke="#1A1C1E" stroke-miterlimit="10" stroke-linecap="round" stroke-linejoin="round"/>
<path d="M453.894 165.106H490.888L477.9 367.983C477.9 369.754 471.702 371.23 463.929 371.23C456.156 371.23 449.958 369.754 449.958 367.983L453.894 165.106Z" fill="#E2E7EE" stroke="#1A1C1E" stroke-miterlimit="10" stroke-linecap="round" stroke-linejoin="round"/>
<path d="M472.39 169.434C482.605 169.434 490.887 167.496 490.887 165.105C490.887 162.714 482.605 160.776 472.39 160.776C462.174 160.776 453.893 162.714 453.893 165.105C453.893 167.496 462.174 169.434 472.39 169.434Z" fill="#FAFBFD" stroke="#1A1C1E" stroke-miterlimit="10" stroke-linecap="round" stroke-linejoin="round"/>
<path d="M277.778 343.582C280.169 343.582 282.107 339.309 282.107 334.039C282.107 328.768 280.169 324.495 277.778 324.495C275.387 324.495 273.449 328.768 273.449 334.039C273.449 339.309 275.387 343.582 277.778 343.582Z" fill="#1A1C1E"/>
<path d="M454.682 343.582C457.073 343.582 459.011 339.309 459.011 334.039C459.011 328.768 457.073 324.495 454.682 324.495C452.291 324.495 450.353 328.768 450.353 334.039C450.353 339.309 452.291 343.582 454.682 343.582Z" fill="#1A1C1E"/>
<path d="M455.074 325.38H277.385C275.909 326.856 274.925 330.201 274.925 334.038C274.925 337.875 275.909 341.22 277.385 342.696H455.074C456.55 341.22 457.534 337.875 457.534 334.038C457.534 330.201 456.55 326.856 455.074 325.38Z" fill="#E2E7EE" stroke="#1A1C1E" stroke-miterlimit="10" stroke-linecap="round" stroke-linejoin="round"/>
<path d="M277.778 312.787C280.169 312.787 282.107 308.514 282.107 303.243C282.107 297.972 280.169 293.699 277.778 293.699C275.387 293.699 273.449 297.972 273.449 303.243C273.449 308.514 275.387 312.787 277.778 312.787Z" fill="#1A1C1E"/>
<path d="M454.682 312.787C457.073 312.787 459.011 308.514 459.011 303.243C459.011 297.972 457.073 293.699 454.682 293.699C452.291 293.699 450.353 297.972 450.353 303.243C450.353 308.514 452.291 312.787 454.682 312.787Z" fill="#1A1C1E"/>
<path d="M455.074 294.585H277.385C275.909 296.061 274.925 299.406 274.925 303.243C274.925 307.08 275.909 310.426 277.385 311.901H455.074C456.55 310.426 457.534 307.08 457.534 303.243C457.534 299.406 456.55 296.061 455.074 294.585Z" fill="#E2E7EE" stroke="#1A1C1E" stroke-miterlimit="10" stroke-linecap="round" stroke-linejoin="round"/>
<path d="M454.287 172.976H278.172C276.106 175.141 274.63 179.864 274.63 185.373C274.63 190.883 276.106 195.606 278.172 197.77H454.287C456.353 195.606 457.829 190.883 457.829 185.373C457.829 179.864 456.353 175.141 454.287 172.976Z" fill="#F2F4F7" stroke="#1A1C1E" stroke-miterlimit="10" stroke-linecap="round" stroke-linejoin="round"/>
<path d="M47.2438 155.865H10.1514L23.0403 345.164C23.0403 346.935 29.2387 348.411 37.0114 348.411C44.7841 348.411 50.9826 346.935 50.9826 345.164L47.2438 155.865Z" fill="#C3CAD4" stroke="#1A1C1E" stroke-miterlimit="10" stroke-linecap="round" stroke-linejoin="round"/>
<path d="M28.749 160.194C38.9646 160.194 47.246 158.256 47.246 155.865C47.246 153.474 38.9646 151.536 28.749 151.536C18.5334 151.536 10.252 153.474 10.252 155.865C10.252 158.256 18.5334 160.194 28.749 160.194Z" fill="#FAFBFD" stroke="#1A1C1E" stroke-miterlimit="10" stroke-linecap="round" stroke-linejoin="round"/>
<path d="M203.681 155.865H240.675L227.786 345.164C227.786 346.935 221.588 348.411 213.815 348.411C206.042 348.411 199.844 346.935 199.844 345.164L203.681 155.865Z" fill="#C3CAD4" stroke="#1A1C1E" stroke-miterlimit="10" stroke-linecap="round" stroke-linejoin="round"/>
<path d="M222.179 160.194C232.394 160.194 240.676 158.256 240.676 155.865C240.676 153.474 232.394 151.536 222.179 151.536C211.963 151.536 203.682 153.474 203.682 155.865C203.682 158.256 211.963 160.194 222.179 160.194Z" fill="#FAFBFD" stroke="#1A1C1E" stroke-miterlimit="10" stroke-linecap="round" stroke-linejoin="round"/>
<path d="M48.8201 306.498C50.3959 306.498 51.6733 303.635 51.6733 300.103C51.6733 296.571 50.3959 293.707 48.8201 293.707C47.2442 293.707 45.9668 296.571 45.9668 300.103C45.9668 303.635 47.2442 306.498 48.8201 306.498Z" fill="#1A1C1E" stroke="#1A1C1E" stroke-miterlimit="10"/>
<path d="M202.009 306.498C203.584 306.498 204.862 303.635 204.862 300.103C204.862 296.571 203.584 293.707 202.009 293.707C200.433 293.707 199.155 296.571 199.155 300.103C199.155 303.635 200.433 306.498 202.009 306.498Z" fill="#1A1C1E" stroke="#1A1C1E" stroke-miterlimit="10"/>
<path d="M202.304 294.298H48.6208C47.637 295.282 46.9482 297.545 46.9482 300.103C46.9482 302.661 47.637 304.825 48.6208 305.908H202.304C203.288 304.924 203.976 302.661 203.976 300.103C203.976 297.545 203.288 295.38 202.304 294.298Z" fill="#C3CAD4" stroke="#1A1C1E" stroke-miterlimit="10" stroke-linecap="round" stroke-linejoin="round"/>
<path d="M203.978 166.983H46.8516C44.7854 169.147 43.3096 173.87 43.3096 179.38C43.3096 184.89 44.7854 189.612 46.8516 191.777H203.978C206.044 189.612 207.52 184.89 207.52 179.38C207.52 173.87 206.143 169.147 203.978 166.983Z" fill="#F2F4F7" stroke="#1A1C1E" stroke-miterlimit="10" stroke-linecap="round" stroke-linejoin="round"/>
<path d="M125.464 186.267L30.6171 170.23V170.328C30.2236 170.328 29.7316 170.23 29.3381 170.23C23.5332 170.23 18.7121 174.264 17.3347 179.577L6.61035 210.372L30.6171 216.374L34.2575 201.419L125.464 186.267Z" fill="#F2F4F7" stroke="#1A1C1E" stroke-miterlimit="10" stroke-linecap="round" stroke-linejoin="round"/>
<path d="M37.7988 192.662H0.804688L13.6936 395.539C13.6936 397.31 19.8921 398.786 27.6648 398.786C35.4374 398.786 41.6359 397.31 41.6359 395.539L37.7988 192.662Z" fill="#E2E7EE" stroke="#1A1C1E" stroke-miterlimit="10" stroke-linecap="round" stroke-linejoin="round"/>
<path d="M19.3017 196.991C29.5173 196.991 37.7988 195.053 37.7988 192.662C37.7988 190.271 29.5173 188.333 19.3017 188.333C9.08609 188.333 0.804688 190.271 0.804688 192.662C0.804688 195.053 9.08609 196.991 19.3017 196.991Z" fill="#FAFBFD" stroke="#1A1C1E" stroke-miterlimit="10" stroke-linecap="round" stroke-linejoin="round"/>
<path d="M125.461 186.267L37.4033 200.533H213.519L125.461 186.267Z" fill="#F2F4F7" stroke="#1A1C1E" stroke-miterlimit="10" stroke-linecap="round" stroke-linejoin="round"/>
<path d="M125.464 186.267L220.31 170.23V170.328C220.704 170.328 221.196 170.23 221.589 170.23C227.394 170.23 232.215 174.264 233.593 179.577L244.317 210.372L220.31 216.374L216.67 201.419L125.464 186.267Z" fill="#F2F4F7" stroke="#1A1C1E" stroke-miterlimit="10" stroke-linecap="round" stroke-linejoin="round"/>
<path d="M213.03 192.662H250.024L237.135 395.539C237.135 397.31 230.936 398.786 223.164 398.786C215.391 398.786 209.192 397.31 209.192 395.539L213.03 192.662Z" fill="#E2E7EE" stroke="#1A1C1E" stroke-miterlimit="10" stroke-linecap="round" stroke-linejoin="round"/>
<path d="M231.526 196.991C241.742 196.991 250.023 195.053 250.023 192.662C250.023 190.271 241.742 188.333 231.526 188.333C221.311 188.333 213.029 190.271 213.029 192.662C213.029 195.053 221.311 196.991 231.526 196.991Z" fill="#FAFBFD" stroke="#1A1C1E" stroke-miterlimit="10" stroke-linecap="round" stroke-linejoin="round"/>
<path d="M37.0127 371.139C39.4036 371.139 41.3418 366.866 41.3418 361.595C41.3418 356.324 39.4036 352.052 37.0127 352.052C34.6218 352.052 32.6836 356.324 32.6836 361.595C32.6836 366.866 34.6218 371.139 37.0127 371.139Z" fill="#1A1C1E"/>
<path d="M213.914 371.139C216.305 371.139 218.243 366.866 218.243 361.595C218.243 356.325 216.305 352.052 213.914 352.052C211.523 352.052 209.585 356.325 209.585 361.595C209.585 366.866 211.523 371.139 213.914 371.139Z" fill="#1A1C1E"/>
<path d="M214.309 352.937H36.6189C35.1431 354.413 34.1592 357.758 34.1592 361.595C34.1592 365.432 35.1431 368.777 36.6189 370.253H214.309C215.784 368.777 216.768 365.432 216.768 361.595C216.768 357.758 215.784 354.413 214.309 352.937Z" fill="#E2E7EE" stroke="#1A1C1E" stroke-miterlimit="10" stroke-linecap="round" stroke-linejoin="round"/>
<path d="M37.0127 340.343C39.4036 340.343 41.3418 336.07 41.3418 330.8C41.3418 325.529 39.4036 321.256 37.0127 321.256C34.6218 321.256 32.6836 325.529 32.6836 330.8C32.6836 336.07 34.6218 340.343 37.0127 340.343Z" fill="#1A1C1E"/>
<path d="M213.914 340.343C216.305 340.343 218.243 336.07 218.243 330.8C218.243 325.529 216.305 321.256 213.914 321.256C211.523 321.256 209.585 325.529 209.585 330.8C209.585 336.07 211.523 340.343 213.914 340.343Z" fill="#1A1C1E"/>
<path d="M214.309 322.142H36.6189C35.1431 323.617 34.1592 326.963 34.1592 330.8C34.1592 334.637 35.1431 337.982 36.6189 339.458H214.309C215.784 337.982 216.768 334.637 216.768 330.8C216.768 326.963 215.784 323.617 214.309 322.142Z" fill="#E2E7EE" stroke="#1A1C1E" stroke-miterlimit="10" stroke-linecap="round" stroke-linejoin="round"/>
<path d="M213.522 200.533H37.4062C35.3401 202.698 33.8643 207.42 33.8643 212.93C33.8643 218.44 35.3401 223.163 37.4062 225.327H213.522C215.588 223.163 217.064 218.44 217.064 212.93C217.064 207.42 215.588 202.698 213.522 200.533Z" fill="#F2F4F7" stroke="#1A1C1E" stroke-miterlimit="10" stroke-linecap="round" stroke-linejoin="round"/>
<path d="M396.599 382.539H253.306C250.571 382.539 248.361 380.33 248.361 377.594V275.648C248.361 272.913 250.571 270.704 253.306 270.704H396.599C399.334 270.704 401.543 272.913 401.543 275.648V377.489C401.543 380.33 399.334 382.539 396.599 382.539Z" fill="#FAFBFD" stroke="#1A1C1E" stroke-miterlimit="10" stroke-linecap="round" stroke-linejoin="round"/>
<path d="M253.969 373.337V279.899C253.969 277.809 255.5 276.088 257.359 276.088H392.546C394.405 276.088 395.936 277.809 395.936 279.899V373.337C395.936 375.428 394.405 377.149 392.546 377.149H257.359C255.5 377.272 253.969 375.55 253.969 373.337Z" fill="#29AE86" stroke="#1A1C1E" stroke-miterlimit="10" stroke-linecap="round" stroke-linejoin="round"/>
<g clip-path="url(#clip0_2545_38445)">
<path d="M343.928 325.41H341.449C341.139 325.41 340.932 325.151 340.932 324.892V323.857C340.932 323.547 340.674 323.34 340.416 323.34H337.936C337.627 323.34 337.42 323.081 337.42 322.822V321.787C337.42 321.477 337.162 321.27 336.903 321.27H334.424C334.114 321.27 333.907 321.011 333.907 320.753V319.718C333.907 319.407 333.649 319.2 333.391 319.2H330.808C330.498 319.2 330.292 318.941 330.292 318.683V317.648C330.292 317.337 330.034 317.13 329.775 317.13H327.296C326.986 317.13 326.779 316.872 326.779 316.613V315.578C326.779 315.267 326.521 315.06 326.263 315.06H323.784C323.474 315.06 323.267 314.802 323.267 314.543V313.508C323.267 313.198 323.009 312.991 322.75 312.991H320.271C319.961 312.991 319.755 312.732 319.755 312.473V311.386C319.755 311.076 319.496 310.869 319.238 310.869H316.759C316.449 310.869 316.242 310.61 316.242 310.351V309.317C316.242 309.006 315.984 308.799 315.726 308.799H313.04C312.73 308.799 312.523 308.54 312.523 308.282V307.247C312.523 306.936 312.265 306.729 312.007 306.729H308.598C308.339 306.729 308.081 306.988 308.081 307.247V346.419V346.729H312.007C312.317 346.729 312.523 346.471 312.523 346.212V345.177C312.523 344.866 312.781 344.659 313.04 344.659H315.519C315.829 344.659 316.036 344.401 316.036 344.142V343.107C316.036 342.797 316.294 342.59 316.552 342.59H319.031C319.341 342.59 319.548 342.331 319.548 342.072V341.037C319.548 340.727 319.806 340.52 320.065 340.52H322.544C322.854 340.52 323.06 340.261 323.06 340.002V338.967C323.06 338.657 323.319 338.45 323.577 338.45H326.056C326.366 338.45 326.573 338.191 326.573 337.932V336.897C326.573 336.587 326.831 336.38 327.089 336.38H329.569C329.879 336.38 330.085 336.121 330.085 335.862V334.828C330.085 334.517 330.343 334.31 330.602 334.31H333.081C333.391 334.31 333.598 334.051 333.598 333.793V332.758C333.598 332.447 333.856 332.24 334.114 332.24H336.593C336.903 332.24 337.11 331.982 337.11 331.723V330.688C337.11 330.377 337.368 330.17 337.627 330.17H340.106C340.416 330.17 340.622 329.912 340.622 329.653V328.618C340.622 328.308 340.881 328.101 341.139 328.101H343.618C343.928 328.101 344.135 327.842 344.135 327.583V326.031C344.445 325.668 344.238 325.41 343.928 325.41Z" fill="black"/>
</g>
<path d="M263.427 286.505C264.938 286.505 266.162 285.281 266.162 283.77C266.162 282.259 264.938 281.035 263.427 281.035C261.916 281.035 260.691 282.259 260.691 283.77C260.691 285.281 261.916 286.505 263.427 286.505Z" fill="#1A1C1E"/>
<path d="M270.897 286.505C272.407 286.505 273.632 285.281 273.632 283.77C273.632 282.259 272.407 281.035 270.897 281.035C269.386 281.035 268.161 282.259 268.161 283.77C268.161 285.281 269.386 286.505 270.897 286.505Z" fill="#1A1C1E"/>
<path d="M278.366 286.505C279.877 286.505 281.102 285.281 281.102 283.77C281.102 282.259 279.877 281.035 278.366 281.035C276.856 281.035 275.631 282.259 275.631 283.77C275.631 285.281 276.856 286.505 278.366 286.505Z" fill="#1A1C1E"/>
<defs>
<clipPath id="clip0_2545_38445">
<rect width="40" height="40" fill="white" transform="translate(304.209 306.565)"/>
</clipPath>
</defs>
</svg>
