<svg width="182" height="190" viewBox="0 0 182 190" fill="none" xmlns="http://www.w3.org/2000/svg">
<g clip-path="url(#clip0_2545_38014)">
<path d="M107.904 94.9156L103.001 99.9023V106.917H95.9863L90.9996 111.82L86.0975 106.917H79.0824V99.9023L74.0957 94.9156L79.0824 90.0135V82.9984H86.0975L90.9996 78.0117L95.9863 82.9984H103.001V90.0135L107.904 94.9156Z" fill="#292D33"/>
<path d="M48.4024 158.474L27.2725 158.728L27.526 137.598L33.6114 143.683H42.2324V152.304L48.4024 158.474Z" fill="#292D33"/>
<path d="M105.79 169.969L90.9994 185.182L76.293 169.969H84.914L90.9994 163.884L97.0848 169.969H105.79Z" fill="#292D33"/>
<path d="M154.559 137.598L154.813 158.728L133.683 158.474L139.768 152.304V143.683H148.389L154.559 137.598Z" fill="#292D33"/>
<path d="M166.053 80.2092L181.182 94.9156L166.053 109.707V101.086L159.968 94.9156L166.053 88.8302V80.2092Z" fill="#292D33"/>
<path d="M133.683 31.4413L154.813 31.1877L154.559 52.3176L148.389 46.2322H139.768V37.5267L133.683 31.4413Z" fill="#292D33"/>
<path d="M76.293 19.8622L90.9994 4.73315L105.79 19.8622H97.1693L90.9994 26.0321L84.914 19.8622H76.293Z" fill="#292D33"/>
<path d="M27.526 52.3176L27.2725 31.1877L48.4024 31.4413L42.2324 37.5267V46.2322H33.6114L27.526 52.3176Z" fill="#292D33"/>
<path d="M15.9464 109.707L0.817383 94.9156L15.9464 80.2092V88.8302L22.1163 94.9156L15.9464 101.086V109.707Z" fill="#292D33"/>
<path d="M101.987 45.6406V66.2634L90.9997 77.42L80.0967 66.517V45.6406L90.9997 56.5437L101.987 45.6406Z" fill="#292D33"/>
<path d="M78.6604 82.5756H63.1087L48.4023 67.7847H63.8694V52.3176L78.4913 66.9395L78.6604 82.5756Z" fill="#292D33"/>
<path d="M73.5045 94.9155L62.6015 105.903H41.6406L52.6282 94.9155L41.6406 84.0125H62.3479L73.5045 94.9155Z" fill="#292D33"/>
<path d="M78.6604 107.34V122.807L63.8694 137.598V122.131H48.4023L63.0242 107.509L78.6604 107.34Z" fill="#292D33"/>
<path d="M101.987 123.399V144.275L90.9997 133.372L80.0967 144.275V123.652L90.9997 112.411L101.987 123.399Z" fill="#292D33"/>
<path d="M90.9994 34.653L80.0964 45.6406L65.4745 31.0187L63.0234 17.5801L76.2085 19.8621L90.9994 34.653Z" fill="#292D33"/>
<path d="M118.976 17.5801L116.609 31.0187L101.988 45.6406L91 34.653L105.791 19.8621L118.976 17.5801Z" fill="#292D33"/>
<path d="M48.402 52.3176V67.7847H27.6947L16.5381 60.0934L27.5256 52.3176H48.402Z" fill="#292D33"/>
<path d="M63.8694 31.6104V52.3177H48.4023V31.4414L56.0936 20.4539L63.8694 31.6104Z" fill="#292D33"/>
<path d="M41.64 105.903L27.1027 120.525L13.6641 122.976L15.9461 109.706L30.737 94.9155L41.64 105.903Z" fill="#292D33"/>
<path d="M41.64 84.0124L30.737 94.9154L15.9461 80.209L13.6641 66.9395L27.1027 69.3905L41.64 84.0124Z" fill="#292D33"/>
<path d="M63.8694 137.598V158.221L56.0936 169.462L48.4023 158.474V137.598H63.8694Z" fill="#292D33"/>
<path d="M48.402 122.131V137.598H27.5256L16.5381 129.822L27.6947 122.131H48.402Z" fill="#292D33"/>
<path d="M118.976 172.251L105.791 170.053L91 155.262L101.988 144.275L116.609 158.897L118.976 172.251Z" fill="#292D33"/>
<path d="M90.9994 155.262L76.2085 170.053L63.0234 172.251L65.4745 158.897L80.0964 144.275L90.9994 155.262Z" fill="#292D33"/>
<path d="M165.462 129.822L154.559 137.598H133.683V122.131H154.305L165.462 129.822Z" fill="#292D33"/>
<path d="M133.682 137.598V158.474L125.907 169.462L118.131 158.221V137.598H133.682Z" fill="#292D33"/>
<path d="M168.335 66.9395L168.251 67.7001L166.053 80.209L151.347 94.9154L140.359 84.0124L154.981 69.3905L168.251 66.9395H168.335Z" fill="#292D33"/>
<path d="M168.335 122.976L168.251 122.891L154.981 120.525L140.359 105.903L151.347 94.9155L166.053 109.706L168.251 122.131L168.335 122.976Z" fill="#292D33"/>
<path d="M133.682 31.4414V52.3177H118.131V31.6104L125.907 20.4539L133.682 31.4414Z" fill="#292D33"/>
<path d="M165.462 60.0934L154.305 67.7847H133.683V52.3176H154.559L165.462 60.0934Z" fill="#292D33"/>
<path d="M133.682 122.131H118.13V137.598L103.593 122.976L103.424 107.34H118.891L133.682 122.131Z" fill="#292D33"/>
<path d="M129.371 94.9155L140.359 105.903H119.736L108.495 94.9155L119.483 84.0125H140.359L129.371 94.9155Z" fill="#292D33"/>
<path d="M133.682 67.7847L119.06 82.4066L103.424 82.5756V67.1086L118.13 52.3176V67.7847H133.682Z" fill="#292D33"/>
<path d="M108.242 20.7919C107.65 19.2705 107.058 18.9325 106.551 18.2563C106.044 17.6647 103.001 7.0152 98.6064 3.71894C95.5637 1.43691 93.1127 1.18335 91.9294 1.18335C91.3378 1.18335 90.7461 1.18335 90.1545 1.18335C88.8867 1.18335 86.5201 1.43691 83.4774 3.71894C79.0824 7.0152 76.0397 17.5801 75.5326 18.2563C75.0255 18.8479 74.4338 19.2705 73.8422 20.7919C73.2506 22.3132 73.6732 38.6255 76.9694 55.2759C79.1669 66.1789 84.4917 72.6024 87.8725 75.6451C89.6474 77.251 92.352 77.251 94.1269 75.6451C97.5922 72.5179 102.917 66.1789 105.03 55.2759C108.326 38.6255 108.749 22.3132 108.242 20.7919Z" fill="#FAFBFD" stroke="#292D33" stroke-width="2" stroke-miterlimit="10"/>
<path d="M105.875 19.6931C105.875 19.6931 105.452 19.8622 103.847 20.9609C102.241 22.0597 99.6206 22.6513 98.2683 22.6513C96.916 22.6513 85.1677 22.6513 83.8154 22.6513C82.4631 22.6513 79.7585 22.0597 78.2371 20.9609C76.6312 19.8622 76.2086 19.6931 76.2086 19.6931C73.2505 22.3132 77.6455 25.7785 78.8288 26.2856C80.012 26.7928 84.4071 28.4832 86.0974 29.1593C87.7033 29.8355 91.0841 30.1735 91.0841 30.1735C91.0841 30.1735 94.4649 29.8355 96.0707 29.1593C97.6766 28.4832 102.156 26.7928 103.339 26.2856C104.523 25.7785 108.918 22.3977 105.875 19.6931Z" fill="#C3CAD4" stroke="#292D33" stroke-width="2" stroke-miterlimit="10"/>
<path d="M83.3429 23.0079L83.3672 28.4592" stroke="#292D33" stroke-width="2" stroke-miterlimit="10"/>
<path d="M99.0762 28.4937L99.1251 23.0001" stroke="#292D33" stroke-width="2" stroke-miterlimit="10"/>
<path d="M17.975 117.567C16.9608 118.835 16.8763 119.511 16.6227 120.272C16.3692 121.032 8.67789 128.977 8.00174 134.386C7.57914 138.105 8.50885 140.387 9.18501 141.401C9.52309 141.909 9.77665 142.416 10.0302 142.923C10.6218 144.022 12.0587 145.965 15.524 147.487C20.5952 149.684 31.2446 146.98 32.0898 147.149C32.935 147.318 33.5266 147.656 35.1325 147.318C36.7384 147.064 50.5996 138.528 63.4466 127.371C71.814 120.018 74.6877 112.242 75.6174 107.763C76.1245 105.396 74.7722 103.114 72.4902 102.353C68.0952 100.917 59.8968 99.4797 49.4163 103.114C33.3576 108.523 18.9893 116.299 17.975 117.567Z" fill="#FAFBFD" stroke="#292D33" stroke-width="2" stroke-miterlimit="10"/>
<path d="M18.1445 120.102C18.1445 120.102 18.5671 120.356 20.2575 121.201C21.9479 122.046 23.8073 123.99 24.568 125.174C25.2442 126.357 31.076 136.499 31.8367 137.682C32.5129 138.866 33.2735 141.486 33.189 143.43C33.02 145.374 33.1045 145.796 33.1045 145.796C36.9079 147.064 37.584 141.486 37.584 140.218C37.4995 138.95 36.6543 134.217 36.4853 132.442C36.2317 130.667 34.8794 127.625 34.8794 127.625C34.8794 127.625 32.9355 124.836 31.4986 123.821C30.0618 122.723 26.4274 119.68 25.3287 119.004C24.1454 118.328 18.9897 116.215 18.1445 120.102Z" fill="#C3CAD4" stroke="#292D33" stroke-width="2" stroke-miterlimit="10"/>
<path d="M32.0898 138.443L36.8229 135.654" stroke="#292D33" stroke-width="2" stroke-miterlimit="10"/>
<path d="M28.8776 121.962L24.1445 124.667" stroke="#292D33" stroke-width="2" stroke-miterlimit="10"/>
<path d="M146.867 147.318C148.473 147.571 149.065 147.233 149.91 147.149C150.755 146.98 161.405 149.684 166.476 147.487C169.941 145.965 171.378 144.021 171.97 142.923C172.223 142.416 172.561 141.908 172.815 141.401C173.491 140.387 174.421 138.105 173.998 134.386C173.322 128.892 165.715 121.032 165.377 120.271C165.124 119.511 165.039 118.75 164.025 117.567C163.011 116.299 148.642 108.523 132.584 103.029C122.103 99.4796 113.905 100.916 109.51 102.269C107.228 103.029 105.875 105.311 106.383 107.678C107.312 112.242 110.186 120.018 118.553 127.287C131.4 138.528 145.262 147.064 146.867 147.318Z" fill="#FAFBFD" stroke="#292D33" stroke-width="2" stroke-miterlimit="10"/>
<path d="M148.98 145.881C148.98 145.881 149.065 145.374 148.895 143.514C148.726 141.57 149.572 139.035 150.248 137.767C150.924 136.584 156.756 126.441 157.516 125.258C158.193 124.075 160.052 122.046 161.827 121.286C163.517 120.44 163.94 120.187 163.94 120.187C163.095 116.299 157.939 118.412 156.925 119.088C155.826 119.764 152.192 122.892 150.755 123.906C149.318 125.005 147.374 127.709 147.374 127.709C147.374 127.709 145.937 130.752 145.768 132.527C145.515 134.302 144.754 139.035 144.67 140.303C144.585 141.57 145.177 147.149 148.98 145.881Z" fill="#C3CAD4" stroke="#292D33" stroke-width="2" stroke-miterlimit="10"/>
<path d="M157.855 124.667L153.122 121.962" stroke="#292D33" stroke-width="2" stroke-miterlimit="10"/>
<path d="M145.177 135.654L149.91 138.443" stroke="#292D33" stroke-width="2" stroke-miterlimit="10"/>
<path d="M49.5009 52.3176L48.8247 53.4164C48.7402 53.5854 48.7402 53.839 48.9938 54.008L61.0801 60.9386C61.2491 61.0232 61.3336 61.2767 61.2491 61.5303L60.573 62.629C60.4884 62.7981 60.4884 63.0516 60.742 63.2207L68.4333 67.6157C68.6023 67.7002 68.6868 67.9538 68.6023 68.2073L68.0107 69.3061C67.9262 69.4751 67.9262 69.7287 68.1797 69.8977L71.476 71.7571C71.645 71.8417 71.7295 72.0952 71.645 72.3488L70.9689 73.4475C70.8843 73.6166 70.8843 73.8701 71.1379 74.0392L74.4342 75.8986C74.6032 75.9831 74.6877 76.2367 74.6032 76.4902L73.927 77.589C73.8425 77.758 73.8425 78.0116 74.0961 78.1806L75.1948 78.8568C75.3639 78.9413 75.4484 79.1949 75.3639 79.4484L74.6877 80.5472C74.6032 80.7162 74.6032 80.9698 74.8568 81.1388L75.9555 81.815C76.1246 81.8995 76.2091 82.1531 76.1246 82.4066L72.7438 88.2385C72.6593 88.4075 72.4057 88.492 72.1521 88.4075L71.0534 87.7313C70.8843 87.6468 70.6308 87.6468 70.4617 87.9004L69.7856 88.9991C69.7011 89.1682 69.4475 89.2527 69.194 89.1682L68.0952 88.492C67.9262 88.4075 67.6726 88.4075 67.5036 88.6611L66.8274 89.7598C66.7429 89.9289 66.4893 90.0134 66.2358 89.9289L62.9395 88.0694C62.7705 87.9849 62.5169 87.9849 62.3479 88.2385L61.6717 89.3372C61.5872 89.5063 61.3336 89.5908 61.0801 89.5063L57.7838 87.6468C57.6148 87.5623 57.3612 87.5623 57.1922 87.8159L56.516 88.9146C56.4315 89.0837 56.1779 89.1682 55.9244 89.0837L48.2331 84.6886C48.0641 84.6041 47.8105 84.6041 47.6415 84.8577L46.9653 85.9564C46.8808 86.1255 46.6272 86.21 46.3737 86.1255L34.6255 78.8568C34.4564 78.7723 34.2029 78.7723 34.0338 79.0258L33.3577 80.1246C33.2731 80.2936 33.0196 80.3781 32.766 80.2936L16.7918 70.9965C16.6228 70.912 16.5383 70.6584 16.6228 70.4048L17.2989 69.3061C17.3835 69.137 17.3835 68.8835 17.1299 68.7144L16.0311 68.0383C15.8621 67.9538 15.7776 67.7002 15.8621 67.4467L16.5383 66.3479C16.6228 66.1789 16.6228 65.9253 16.3692 65.7563L13.073 63.8968C12.9039 63.8123 12.8194 63.5587 12.9039 63.3052L13.5801 62.2064C13.6646 62.0374 13.6646 61.7838 13.411 61.6148L10.1148 59.7554C9.94574 59.6708 9.86122 59.4173 9.94574 59.1637L10.6219 58.065C10.7064 57.8959 10.7064 57.6424 10.4529 57.4733L9.26958 56.8817C9.10054 56.7972 9.01602 56.5436 9.10054 56.2901L10.96 52.9938C11.0445 52.8248 11.0445 52.5712 10.7909 52.4022L9.69218 51.726C9.52314 51.6415 9.43862 51.3879 9.52314 51.1344L12.4813 45.9787C12.5658 45.8096 12.8194 45.7251 13.073 45.8096L14.1717 46.4858C14.3408 46.5703 14.5943 46.5703 14.7634 46.3168L16.6228 43.0205C16.7073 42.8515 16.9609 42.7669 17.2144 42.8515L18.3132 43.5276C18.4822 43.6121 18.7358 43.6121 18.9048 43.3586L19.581 42.2598C19.6655 42.0908 19.919 42.0063 20.1726 42.0908L23.4689 43.9502C23.6379 44.0347 23.8915 44.0347 24.0605 43.7812L24.7367 42.6824C24.8212 42.5134 25.0747 42.4289 25.3283 42.5134L28.6246 44.3728C28.7936 44.4573 29.0472 44.4573 29.2162 44.2038L29.8924 43.105C29.9769 42.936 30.2304 42.8515 30.484 42.936L31.5827 43.6121C31.7518 43.6966 32.0053 43.6966 32.1744 43.4431L32.8505 42.3443C32.9351 42.1753 33.1886 42.0908 33.4422 42.1753L49.5854 51.4724C49.5009 51.8105 49.5854 52.0641 49.5009 52.3176Z" fill="#FAFBFD"/>
<path d="M32.3436 41.4147L31.2448 40.8231C31.0758 40.7386 30.8222 40.7386 30.6532 40.9921L29.977 42.0909C29.8925 42.2599 29.6389 42.3444 29.3854 42.2599L26.1736 40.316C26.0046 40.2314 25.751 40.2315 25.582 40.485L24.9059 41.5838C24.8213 41.7528 24.5678 41.8373 24.3142 41.7528L21.1025 39.8088C20.9334 39.7243 20.6799 39.7243 20.5108 39.9779L19.8347 41.0766C19.7502 41.2457 19.4966 41.3302 19.243 41.2457L18.2288 40.5695C18.0598 40.485 17.8062 40.485 17.6372 40.7386L16.961 41.8373C16.8765 42.0064 16.6229 42.0909 16.3694 42.0064L15.2706 41.3302C15.1016 41.2457 14.848 41.2457 14.679 41.4992L12.8196 44.7955C12.735 44.9645 12.4815 45.0491 12.2279 44.9645L11.1292 44.2884C10.9601 44.2039 10.7066 44.2039 10.5375 44.4574L7.15674 50.2893C7.07222 50.4583 7.07222 50.7119 7.32578 50.8809L8.42453 51.5571C8.59357 51.6416 8.67809 51.8952 8.59357 52.1487L6.73414 55.445C6.64962 55.614 6.64962 55.8676 6.90318 56.0366L8.00194 56.6282C8.17098 56.7128 8.2555 56.9663 8.17098 57.2199L7.49482 58.3186C7.4103 58.4877 7.4103 58.7412 7.66386 58.9103L8.76261 59.5864C8.93165 59.6709 9.01617 59.9245 8.93165 60.1781L8.2555 61.2768C8.17098 61.4459 8.17098 61.6994 8.42453 61.8685L11.7208 63.7279C11.8898 63.8124 11.9744 64.066 11.8898 64.3195L11.2137 65.4183C11.1292 65.5873 11.1292 65.8409 11.3827 66.0099L14.679 67.8694C14.848 67.9539 14.9325 68.2074 14.848 68.461L14.2564 69.5597C14.1719 69.7288 14.1719 69.9823 14.4254 70.1514L15.5242 70.8275C15.6932 70.9121 15.7777 71.1656 15.6932 71.4192L15.0171 72.5179C14.9325 72.687 14.9325 72.9405 15.1861 73.1096L32.0055 82.8293C32.1745 82.9138 32.4281 82.9138 32.5971 82.6603L33.2733 81.5615C33.3578 81.3925 33.6114 81.308 33.8649 81.3925L45.9512 88.3231C46.1203 88.4076 46.3738 88.4076 46.5429 88.154L47.219 87.0553C47.3035 86.8863 47.5571 86.8017 47.8107 86.8863L55.5019 91.2813C55.671 91.3658 55.9245 91.3658 56.0936 91.1122L56.7697 90.0135C56.8542 89.8444 57.1078 89.7599 57.3614 89.8444L60.6576 91.7039C60.8267 91.7884 61.0802 91.7884 61.2493 91.5348L61.9254 90.4361C62.0099 90.267 62.2635 90.1825 62.5171 90.267L65.8133 92.1265C65.9824 92.211 66.2359 92.211 66.405 91.9574L67.0811 90.8587C67.1656 90.6896 67.4192 90.6051 67.6728 90.6896L68.7715 91.3658C68.9406 91.4503 69.1941 91.4503 69.3631 91.1968L70.0393 90.098C70.1238 89.929 70.3774 89.8444 70.6309 89.929L71.7297 90.6051C71.8987 90.6896 72.1523 90.6896 72.3213 90.4361L72.9975 89.3373C73.082 89.1683 73.3356 89.0838 73.5891 89.1683L74.6879 89.8444C74.8569 89.929 75.1105 89.929 75.2795 89.6754L79.0829 83.0829C79.1674 82.9138 79.1674 82.6603 78.9139 82.4912L77.2235 81.9841C77.0544 81.8996 76.9699 81.646 77.0544 81.3925L77.7306 80.2937C77.8151 80.1247 77.8151 79.8711 77.5616 79.7021L76.4628 79.0259C76.2938 78.9414 76.2092 78.6879 76.2938 78.4343L76.9699 77.3355C77.0544 77.1665 77.0544 76.9129 76.8009 76.7439L75.7021 76.0677C75.5331 75.9832 75.4486 75.7297 75.5331 75.4761L76.2092 74.3774C76.2938 74.2083 76.2938 73.9548 76.0402 73.7857L72.7439 71.9263C72.5749 71.8418 72.4904 71.5882 72.5749 71.3347L73.251 70.2359C73.3356 70.0669 73.3356 69.8133 73.082 69.6443L69.7857 67.7848C69.6167 67.7003 69.5322 67.4468 69.6167 67.1932L70.2929 66.0944C70.3774 65.9254 70.3774 65.6718 70.1238 65.5028L62.4325 61.1078C62.2635 61.0233 62.179 60.7697 62.2635 60.5161L62.9397 59.4174C63.0242 59.2484 63.0242 58.9948 62.7706 58.8258L50.6843 51.9797C50.5153 51.8952 50.4308 51.6416 50.5153 51.388L51.1914 50.2893C51.276 50.1202 51.276 49.8667 51.0224 49.6976L34.1185 40.0624C33.9494 39.9779 33.6959 39.9779 33.5268 40.2314L32.9352 41.2457C32.8507 41.4992 32.5126 41.5838 32.3436 41.4147ZM49.501 52.3177L48.8249 53.4165C48.7404 53.5855 48.7404 53.8391 48.9939 54.0081L61.0802 60.9387C61.2493 61.0233 61.3338 61.2768 61.2493 61.5304L60.5731 62.6291C60.4886 62.7982 60.4886 63.0517 60.7422 63.2208L68.4334 67.6158C68.6025 67.7003 68.687 67.9539 68.6025 68.2074L68.0108 69.3062C67.9263 69.4752 67.9263 69.7288 68.1799 69.8978L71.4761 71.7572C71.6452 71.8418 71.7297 72.0953 71.6452 72.3489L70.969 73.4476C70.8845 73.6167 70.8845 73.8702 71.1381 74.0393L74.4343 75.8987C74.6034 75.9832 74.6879 76.2368 74.6034 76.4903L73.9272 77.5891C73.8427 77.7581 73.8427 78.0117 74.0962 78.1807L75.195 78.8569C75.364 78.9414 75.4486 79.195 75.364 79.4485L74.6879 80.5473C74.6034 80.7163 74.6034 80.9699 74.8569 81.1389L75.9557 81.8151C76.1247 81.8996 76.2092 82.1532 76.1247 82.4067L72.7439 88.2386C72.6594 88.4076 72.4059 88.4921 72.1523 88.4076L71.0535 87.7314C70.8845 87.6469 70.6309 87.6469 70.4619 87.9005L69.7857 88.9992C69.7012 89.1683 69.4477 89.2528 69.1941 89.1683L68.0954 88.4921C67.9263 88.4076 67.6728 88.4076 67.5037 88.6612L66.8276 89.7599C66.743 89.929 66.4895 90.0135 66.2359 89.929L62.9397 88.0695C62.7706 87.985 62.5171 87.985 62.348 88.2386L61.6719 89.3373C61.5873 89.5064 61.3338 89.5909 61.0802 89.5064L57.784 87.6469C57.6149 87.5624 57.3614 87.5624 57.1923 87.816L56.5162 88.9147C56.4317 89.0838 56.1781 89.1683 55.9245 89.0838L48.2333 84.6887C48.0642 84.6042 47.8107 84.6042 47.6416 84.8578L46.9655 85.9565C46.8809 86.1256 46.6274 86.2101 46.3738 86.1256L34.6256 78.8569C34.4566 78.7724 34.203 78.7724 34.034 79.0259L33.3578 80.1247C33.2733 80.2937 33.0197 80.3782 32.7662 80.2937L16.792 70.9966C16.6229 70.9121 16.5384 70.6585 16.6229 70.4049L17.2991 69.3062C17.3836 69.1371 17.3836 68.8836 17.1301 68.7145L16.0313 68.0384C15.8623 67.9539 15.7777 67.7003 15.8623 67.4468L16.5384 66.348C16.6229 66.179 16.6229 65.9254 16.3694 65.7564L13.0731 63.8969C12.9041 63.8124 12.8196 63.5589 12.9041 63.3053L13.5802 62.2065C13.6647 62.0375 13.6647 61.7839 13.4112 61.6149L10.1149 59.7555C9.94589 59.6709 9.86137 59.4174 9.94589 59.1638L10.622 58.0651C10.7066 57.896 10.7066 57.6425 10.453 57.4734L9.26973 56.8818C9.10069 56.7973 9.01617 56.5437 9.10069 56.2902L10.9601 52.9939C11.0446 52.8249 11.0446 52.5713 10.7911 52.4023L9.69233 51.7261C9.52329 51.6416 9.43877 51.388 9.52329 51.1345L12.4815 45.9788C12.566 45.8097 12.8196 45.7252 13.0731 45.8097L14.1719 46.4859C14.3409 46.5704 14.5945 46.5704 14.7635 46.3169L16.6229 43.0206C16.7075 42.8516 16.961 42.767 17.2146 42.8516L18.3133 43.5277C18.4824 43.6122 18.7359 43.6122 18.905 43.3587L19.5811 42.2599C19.6656 42.0909 19.9192 42.0064 20.1728 42.0909L23.469 43.9503C23.6381 44.0348 23.8916 44.0348 24.0607 43.7813L24.7368 42.6825C24.8213 42.5135 25.0749 42.429 25.3284 42.5135L28.6247 44.3729C28.7938 44.4574 29.0473 44.4574 29.2163 44.2039L29.8925 43.1051C29.977 42.9361 30.2306 42.8516 30.4841 42.9361L31.5829 43.6122C31.7519 43.6967 32.0055 43.6968 32.1745 43.4432L32.8507 42.3444C32.9352 42.1754 33.1888 42.0909 33.4423 42.1754L49.5856 51.4726C49.501 51.8106 49.5856 52.0642 49.501 52.3177Z" fill="#292D33"/>
<path d="M32.0896 45.7251L31.2444 47.162C31.1598 47.331 31.1598 47.5846 31.4134 47.7536L32.5122 48.4298C32.6812 48.5143 32.7657 48.7678 32.6812 49.0214L22.1163 67.2776C22.0317 67.4467 21.7782 67.5312 21.5246 67.4467L20.4259 66.7705C20.2568 66.686 20.0033 66.686 19.8342 66.9395L18.989 68.3764C18.9045 68.5454 18.9045 68.799 19.1581 68.968L20.2568 69.6442C20.4259 69.7287 20.5104 69.9823 20.4259 70.2358L19.7497 71.3346C19.6652 71.5036 19.6652 71.7572 19.9187 71.9262L23.5531 74.0392C23.7221 74.1237 23.9757 74.1237 24.1447 73.8702L24.8209 72.7714C24.9054 72.6024 25.159 72.5178 25.4125 72.6024L26.5113 73.2785C26.6803 73.363 26.9339 73.363 27.1029 73.1095L30.3146 67.6157C30.3992 67.4467 30.6527 67.3622 30.9063 67.4467L32.005 68.1228C32.1741 68.2073 32.4276 68.2073 32.5967 67.9538L38.513 57.7269C38.5976 57.5579 38.5976 57.3043 38.344 57.1353L37.1607 56.3746C36.9917 56.2901 36.9072 56.0365 36.9917 55.783L40.2034 50.2892C40.288 50.1202 40.288 49.8666 40.0344 49.6976L38.9356 49.0214C38.7666 48.9369 38.6821 48.6833 38.7666 48.4298L39.4428 47.331C39.5273 47.162 39.5273 46.9084 39.2737 46.7394L35.5549 44.7954C35.3858 44.7109 35.1323 44.7109 34.9632 44.9645L34.2871 46.0632C34.2025 46.2323 33.949 46.3168 33.6954 46.2323L32.5967 45.5561C32.5122 45.3871 32.2586 45.4716 32.0896 45.7251ZM37.7524 49.444L34.6251 54.9378C34.5406 55.1068 34.5406 55.3604 34.7942 55.5294L35.8929 56.2056C36.062 56.2901 36.1465 56.5436 36.062 56.7972L30.5682 66.3479C30.4837 66.517 30.2301 66.6015 29.9766 66.517L28.8778 65.8408C28.7088 65.7563 28.4552 65.7563 28.2862 66.0098L25.0744 71.5036C24.9899 71.6726 24.7364 71.7572 24.4828 71.6726L21.5246 69.9823C21.3556 69.8977 21.2711 69.6442 21.3556 69.3906L21.7782 68.6299C21.8627 68.4609 22.1162 68.3764 22.3698 68.4609L23.4686 69.1371C23.6376 69.2216 23.8912 69.2216 24.0602 68.968L35.0477 49.9511C35.1323 49.7821 35.1323 49.5285 34.8787 49.3595L33.78 48.6833C33.6109 48.5988 33.5264 48.3452 33.6109 48.0917L34.0335 47.331C34.118 47.162 34.3716 47.0774 34.6251 47.162L37.5833 48.8524C37.8369 48.9369 37.9214 49.275 37.7524 49.444Z" fill="#292D33"/>
<path d="M37.7532 49.4441L34.626 54.9379C34.5415 55.1069 34.5415 55.3605 34.795 55.5295L35.8938 56.2057C36.0628 56.2902 36.1473 56.5437 36.0628 56.7973L30.569 66.348C30.4845 66.517 30.231 66.6016 29.9774 66.517L28.8786 65.8409C28.7096 65.7564 28.456 65.7564 28.287 66.0099L25.0753 71.5037C24.9907 71.6727 24.7372 71.7573 24.4836 71.6727L21.5254 69.9824C21.3564 69.8978 21.2719 69.6443 21.3564 69.3907L21.779 68.63C21.8635 68.461 22.1171 68.3765 22.3706 68.461L23.4694 69.1372C23.6384 69.2217 23.892 69.2217 24.061 68.9681L35.0486 49.9512C35.1331 49.7822 35.1331 49.5286 34.8795 49.3596L33.7808 48.6834C33.6117 48.5989 33.5272 48.3453 33.6117 48.0918L34.0343 47.3311C34.1189 47.1621 34.3724 47.0775 34.626 47.1621L37.5842 48.8525C37.8377 48.937 37.9222 49.2751 37.7532 49.4441Z" fill="#C3CAD4"/>
<path d="M75.1941 152.389H76.4619C76.7154 152.389 76.8845 152.22 76.8845 151.966V138.021C76.8845 137.767 77.0535 137.598 77.3071 137.598H78.5749C78.8284 137.598 78.9975 137.429 78.9975 137.176V128.301C78.9975 128.047 79.1665 127.878 79.4201 127.878H80.6879C80.9414 127.878 81.1105 127.709 81.1105 127.456V123.652C81.1105 123.399 81.2795 123.23 81.533 123.23H82.8008C83.0544 123.23 83.2234 123.061 83.2234 122.807V119.004C83.2234 118.75 83.3925 118.581 83.646 118.581H84.9138C85.1674 118.581 85.3364 118.412 85.3364 118.159V116.891C85.3364 116.637 85.5055 116.468 85.759 116.468H87.0268C87.2804 116.468 87.4494 116.299 87.4494 116.046V114.778C87.4494 114.524 87.6185 114.355 87.872 114.355H94.6336C94.8871 114.355 95.0562 114.524 95.0562 114.778V116.046C95.0562 116.299 95.2252 116.468 95.4788 116.468H96.7466C97.0001 116.468 97.1692 116.637 97.1692 116.891V118.159C97.1692 118.412 97.3382 118.581 97.5918 118.581H98.8596C99.1131 118.581 99.2822 118.75 99.2822 119.004V122.807C99.2822 123.061 99.4512 123.23 99.7048 123.23H100.973C101.226 123.23 101.395 123.399 101.395 123.652V127.456C101.395 127.709 101.564 127.878 101.818 127.878H103.086C103.339 127.878 103.508 128.047 103.508 128.301V137.176C103.508 137.429 103.677 137.598 103.931 137.598H105.199C105.452 137.598 105.621 137.767 105.621 138.021V151.966C105.621 152.22 105.79 152.389 106.044 152.389H107.312C107.565 152.389 107.734 152.558 107.734 152.812V171.406C107.734 171.659 107.565 171.829 107.312 171.829H106.044C105.79 171.829 105.621 171.998 105.621 172.251V173.519C105.621 173.772 105.452 173.942 105.199 173.942H103.931C103.677 173.942 103.508 174.111 103.508 174.364V178.167C103.508 178.421 103.339 178.59 103.086 178.59H101.818C101.564 178.59 101.395 178.759 101.395 179.013V182.816C101.395 183.07 101.226 183.239 100.973 183.239H99.7048C99.4512 183.239 99.2822 183.408 99.2822 183.661V184.929C99.2822 185.183 99.1131 185.352 98.8596 185.352H95.0562C94.8026 185.352 94.6336 185.521 94.6336 185.774V187.042C94.6336 187.296 94.4645 187.465 94.211 187.465H88.2946C88.0411 187.465 87.872 187.296 87.872 187.042V185.774C87.872 185.521 87.703 185.352 87.4494 185.352H83.646C83.3925 185.352 83.2234 185.183 83.2234 184.929V183.661C83.2234 183.408 83.0544 183.239 82.8008 183.239H81.533C81.2795 183.239 81.1105 183.07 81.1105 182.816V179.013C81.1105 178.759 80.9414 178.59 80.6879 178.59H79.4201C79.1665 178.59 78.9975 178.421 78.9975 178.167V174.364C78.9975 174.111 78.8284 173.942 78.5749 173.942H77.3071C77.0535 173.942 76.8845 173.772 76.8845 173.519V172.251C76.8845 171.998 76.7154 171.829 76.4619 171.829H75.1941C74.9405 171.829 74.7715 171.659 74.7715 171.406V152.812C74.7715 152.643 74.9405 152.389 75.1941 152.389Z" fill="#FAFBFD"/>
<path d="M74.3493 172.674V173.941C74.3493 174.195 74.5184 174.364 74.7719 174.364H76.0397C76.2933 174.364 76.4623 174.533 76.4623 174.787V178.59C76.4623 178.844 76.6313 179.013 76.8849 179.013H78.1527C78.4063 179.013 78.5753 179.182 78.5753 179.435V183.239C78.5753 183.492 78.7443 183.661 78.9979 183.661H80.2657C80.5192 183.661 80.6883 183.83 80.6883 184.084V185.352C80.6883 185.605 80.8573 185.774 81.1109 185.774H82.3787C82.6322 185.774 82.8013 185.943 82.8013 186.197V187.465C82.8013 187.718 82.9703 187.887 83.2239 187.887H87.0273C87.2808 187.887 87.4499 188.056 87.4499 188.31V189.578C87.4499 189.831 87.6189 190 87.8724 190H94.634C94.8876 190 95.0566 189.831 95.0566 189.578V188.31C95.0566 188.056 95.2257 187.887 95.4792 187.887H99.2826C99.5361 187.887 99.7052 187.718 99.7052 187.465V186.197C99.7052 185.943 99.8742 185.774 100.128 185.774H101.396C101.649 185.774 101.818 185.605 101.818 185.352V184.084C101.818 183.83 101.987 183.661 102.241 183.661H103.509C103.762 183.661 103.931 183.492 103.931 183.239V179.435C103.931 179.182 104.1 179.013 104.354 179.013H105.622C105.875 179.013 106.044 178.844 106.044 178.59V174.787C106.044 174.533 106.213 174.364 106.467 174.364H107.735C107.988 174.364 108.157 174.195 108.157 173.941V172.674C108.157 172.42 108.326 172.251 108.58 172.251H109.848C110.101 172.251 110.27 172.082 110.27 171.828V152.389C110.27 152.135 110.101 151.966 109.848 151.966H108.58C108.326 151.966 108.157 151.797 108.157 151.544V137.598C108.157 137.344 107.988 137.175 107.735 137.175H106.467C106.213 137.175 106.044 137.006 106.044 136.753V127.878C106.044 127.625 105.875 127.456 105.622 127.456H104.354C104.1 127.456 103.931 127.287 103.931 127.033V123.23C103.931 122.976 103.762 122.807 103.509 122.807H102.241C101.987 122.807 101.818 122.638 101.818 122.385V118.581C101.818 118.328 101.649 118.159 101.396 118.159H100.128C99.8742 118.159 99.7052 117.99 99.7052 117.736V116.468C99.7052 116.215 99.5361 116.046 99.2826 116.046H98.0148C97.7612 116.046 97.5922 115.877 97.5922 115.623V114.355C97.5922 114.102 97.4232 113.933 97.1696 113.933H95.9018C95.6482 113.933 95.4792 113.764 95.4792 113.51V112.242C95.4792 111.989 95.3102 111.82 95.0566 111.82H87.4499C87.1963 111.82 87.0273 111.989 87.0273 112.242V113.51C87.0273 113.764 86.8582 113.933 86.6047 113.933H85.3369C85.0833 113.933 84.9143 114.102 84.9143 114.355V115.623C84.9143 115.877 84.7452 116.046 84.4917 116.046H83.2239C82.9703 116.046 82.8013 116.215 82.8013 116.468V117.736C82.8013 117.99 82.6322 118.159 82.3787 118.159H81.1109C80.8573 118.159 80.6883 118.328 80.6883 118.581V122.385C80.6883 122.638 80.5192 122.807 80.2657 122.807H78.9979C78.7443 122.807 78.5753 122.976 78.5753 123.23V127.033C78.5753 127.287 78.4063 127.456 78.1527 127.456H76.8849C76.6313 127.456 76.4623 127.625 76.4623 127.878V136.753C76.4623 137.006 76.2933 137.175 76.0397 137.175H74.7719C74.5184 137.175 74.3493 137.344 74.3493 137.598V151.544C74.3493 151.797 74.1803 151.966 73.9267 151.966H72.6589C72.4054 151.966 72.2363 152.135 72.2363 152.389V171.828C72.2363 172.082 72.4054 172.251 72.6589 172.251H73.9267C74.1803 172.251 74.3493 172.505 74.3493 172.674ZM75.1945 152.389H76.4623C76.7159 152.389 76.8849 152.22 76.8849 151.966V138.021C76.8849 137.767 77.0539 137.598 77.3075 137.598H78.5753C78.8289 137.598 78.9979 137.429 78.9979 137.175V128.301C78.9979 128.047 79.1669 127.878 79.4205 127.878H80.6883C80.9418 127.878 81.1109 127.709 81.1109 127.456V123.652C81.1109 123.399 81.2799 123.23 81.5335 123.23H82.8013C83.0548 123.23 83.2239 123.061 83.2239 122.807V119.004C83.2239 118.75 83.3929 118.581 83.6465 118.581H84.9143C85.1678 118.581 85.3369 118.412 85.3369 118.159V116.891C85.3369 116.637 85.5059 116.468 85.7595 116.468H87.0273C87.2808 116.468 87.4499 116.299 87.4499 116.046V114.778C87.4499 114.524 87.6189 114.355 87.8724 114.355H94.634C94.8876 114.355 95.0566 114.524 95.0566 114.778V116.046C95.0566 116.299 95.2257 116.468 95.4792 116.468H96.747C97.0006 116.468 97.1696 116.637 97.1696 116.891V118.159C97.1696 118.412 97.3386 118.581 97.5922 118.581H98.86C99.1136 118.581 99.2826 118.75 99.2826 119.004V122.807C99.2826 123.061 99.4516 123.23 99.7052 123.23H100.973C101.227 123.23 101.396 123.399 101.396 123.652V127.456C101.396 127.709 101.565 127.878 101.818 127.878H103.086C103.34 127.878 103.509 128.047 103.509 128.301V137.175C103.509 137.429 103.678 137.598 103.931 137.598H105.199C105.453 137.598 105.622 137.767 105.622 138.021V151.966C105.622 152.22 105.791 152.389 106.044 152.389H107.312C107.566 152.389 107.735 152.558 107.735 152.812V171.406C107.735 171.659 107.566 171.828 107.312 171.828H106.044C105.791 171.828 105.622 171.998 105.622 172.251V173.519C105.622 173.772 105.453 173.941 105.199 173.941H103.931C103.678 173.941 103.509 174.111 103.509 174.364V178.167C103.509 178.421 103.34 178.59 103.086 178.59H101.818C101.565 178.59 101.396 178.759 101.396 179.013V182.816C101.396 183.07 101.227 183.239 100.973 183.239H99.7052C99.4516 183.239 99.2826 183.408 99.2826 183.661V184.929C99.2826 185.183 99.1136 185.352 98.86 185.352H95.0566C94.8031 185.352 94.634 185.521 94.634 185.774V187.042C94.634 187.296 94.465 187.465 94.2114 187.465H88.295C88.0415 187.465 87.8724 187.296 87.8724 187.042V185.774C87.8724 185.521 87.7034 185.352 87.4499 185.352H83.6465C83.3929 185.352 83.2239 185.183 83.2239 184.929V183.661C83.2239 183.408 83.0548 183.239 82.8013 183.239H81.5335C81.2799 183.239 81.1109 183.07 81.1109 182.816V179.013C81.1109 178.759 80.9418 178.59 80.6883 178.59H79.4205C79.1669 178.59 78.9979 178.421 78.9979 178.167V174.364C78.9979 174.111 78.8289 173.941 78.5753 173.941H77.3075C77.0539 173.941 76.8849 173.772 76.8849 173.519V172.251C76.8849 171.998 76.7159 171.828 76.4623 171.828H75.1945C74.941 171.828 74.7719 171.659 74.7719 171.406V152.812C74.7719 152.643 74.941 152.389 75.1945 152.389Z" fill="#292D33"/>
<path d="M78.1528 170.73H79.8432C80.0967 170.73 80.2658 170.561 80.2658 170.307V169.039C80.2658 168.786 80.4348 168.617 80.6884 168.617H101.818C102.072 168.617 102.241 168.786 102.241 169.039V170.307C102.241 170.561 102.41 170.73 102.663 170.73H104.354C104.607 170.73 104.776 170.561 104.776 170.307V169.039C104.776 168.786 104.945 168.617 105.199 168.617H106.467C106.72 168.617 106.889 168.448 106.889 168.194V163.968C106.889 163.715 106.72 163.546 106.467 163.546H105.199C104.945 163.546 104.776 163.377 104.776 163.123V161.855C104.776 161.602 104.607 161.433 104.354 161.433H98.0149C97.7613 161.433 97.5923 161.264 97.5923 161.01V159.742C97.5923 159.489 97.4232 159.32 97.1697 159.32H85.3369C85.0834 159.32 84.9143 159.489 84.9143 159.742V161.01C84.9143 161.264 84.7453 161.433 84.4917 161.433H78.1528C77.8992 161.433 77.7302 161.602 77.7302 161.855V163.123C77.7302 163.377 77.5611 163.546 77.3076 163.546H76.0398C75.7862 163.546 75.6172 163.715 75.6172 163.968V168.194C75.6172 168.448 75.7862 168.617 76.0398 168.617H77.3076C77.5611 168.617 77.7302 168.786 77.7302 169.039V170.307C77.7302 170.561 77.8992 170.73 78.1528 170.73ZM78.5754 163.968H84.9143C85.1679 163.968 85.3369 163.799 85.3369 163.546V162.278C85.3369 162.024 85.506 161.855 85.7595 161.855H96.7471C97.0006 161.855 97.1697 162.024 97.1697 162.278V163.546C97.1697 163.799 97.3387 163.968 97.5923 163.968H103.931C104.185 163.968 104.354 164.137 104.354 164.391V167.772C104.354 168.025 104.185 168.194 103.931 168.194H103.086C102.832 168.194 102.663 168.025 102.663 167.772V166.504C102.663 166.25 102.494 166.081 102.241 166.081H80.2658C80.0122 166.081 79.8432 166.25 79.8432 166.504V167.772C79.8432 168.025 79.6741 168.194 79.4206 168.194H78.5754C78.3218 168.194 78.1528 168.025 78.1528 167.772V164.391C78.1528 164.222 78.3218 163.968 78.5754 163.968Z" fill="#292D33"/>
<path d="M78.5749 163.968H84.9139C85.1675 163.968 85.3365 163.799 85.3365 163.546V162.278C85.3365 162.024 85.5055 161.855 85.7591 161.855H96.7466C97.0002 161.855 97.1692 162.024 97.1692 162.278V163.546C97.1692 163.799 97.3383 163.968 97.5918 163.968H103.931C104.184 163.968 104.353 164.137 104.353 164.391V167.772C104.353 168.025 104.184 168.194 103.931 168.194H103.086C102.832 168.194 102.663 168.025 102.663 167.772V166.504C102.663 166.25 102.494 166.081 102.24 166.081H80.2653C80.0118 166.081 79.8427 166.25 79.8427 166.504V167.772C79.8427 168.025 79.6737 168.194 79.4201 168.194H78.5749C78.3214 168.194 78.1523 168.025 78.1523 167.772V164.391C78.1523 164.222 78.3214 163.968 78.5749 163.968Z" fill="#C3CAD4"/>
<path d="M149.065 80.1247L148.389 79.0259C148.304 78.8569 148.05 78.7724 147.797 78.8569L135.711 85.7875C135.542 85.872 135.288 85.872 135.119 85.6185L134.443 84.5197C134.358 84.3507 134.105 84.2661 133.851 84.3507L126.16 88.7457C125.991 88.8302 125.737 88.8302 125.568 88.5766L124.892 87.4779C124.808 87.3088 124.554 87.2243 124.3 87.3088L121.004 89.1683C120.835 89.2528 120.582 89.2528 120.413 88.9992L119.736 87.9005C119.652 87.7314 119.398 87.6469 119.145 87.7314L115.849 89.5909C115.679 89.6754 115.426 89.6754 115.257 89.4218L114.581 88.3231C114.496 88.154 114.243 88.0695 113.989 88.154L112.89 88.8302C112.721 88.9147 112.468 88.9147 112.299 88.6612L111.623 87.5624C111.538 87.3934 111.284 87.3088 111.031 87.3934L109.932 88.0695C109.763 88.154 109.51 88.154 109.341 87.9005L105.96 82.0686C105.875 81.8996 105.875 81.646 106.129 81.477L107.228 80.8008C107.397 80.7163 107.481 80.4628 107.397 80.2092L106.72 79.1104C106.636 78.9414 106.636 78.6879 106.889 78.5188L107.988 77.8427C108.157 77.7581 108.242 77.5046 108.157 77.251L107.481 76.1523C107.397 75.9832 107.397 75.7297 107.65 75.5606L110.946 73.7012C111.115 73.6167 111.2 73.3631 111.115 73.1096L110.439 72.0108C110.355 71.8418 110.355 71.5882 110.608 71.4192L113.905 69.5597C114.074 69.4752 114.158 69.2217 114.074 68.9681L113.397 67.8694C113.313 67.7003 113.313 67.4467 113.566 67.2777L121.258 62.8827C121.427 62.7982 121.511 62.5446 121.427 62.2911L120.751 61.1923C120.666 61.0233 120.666 60.7697 120.92 60.6007L133.006 53.6701C133.175 53.5855 133.26 53.332 133.175 53.0784L132.499 51.9797C132.414 51.8106 132.414 51.5571 132.668 51.388L148.811 42.0909C148.98 42.0064 149.234 42.0064 149.403 42.2599L150.079 43.3587C150.163 43.5277 150.417 43.6122 150.671 43.5277L151.769 42.8516C151.938 42.767 152.192 42.767 152.361 43.0206L153.037 44.1193C153.122 44.2884 153.375 44.3729 153.629 44.2884L156.925 42.429C157.094 42.3444 157.348 42.3444 157.517 42.598L158.193 43.6968C158.277 43.8658 158.531 43.9503 158.784 43.8658L162.081 42.0064C162.25 41.9218 162.503 41.9218 162.672 42.1754L163.349 43.2742C163.433 43.4432 163.687 43.5277 163.94 43.4432L165.039 42.767C165.208 42.6825 165.462 42.6825 165.631 42.9361L167.49 46.2323C167.574 46.4014 167.828 46.4859 168.082 46.4014L169.18 45.7252C169.349 45.6407 169.603 45.6407 169.772 45.8943L172.73 51.05C172.815 51.219 172.815 51.4725 172.561 51.6416L171.462 52.3177C171.293 52.4023 171.209 52.6558 171.293 52.9094L173.153 56.2056C173.237 56.3747 173.237 56.6282 172.984 56.7973L171.885 57.4734C171.716 57.558 171.631 57.8115 171.716 58.0651L172.392 59.1638C172.477 59.3329 172.477 59.5864 172.223 59.7555L168.927 61.6149C168.758 61.6994 168.673 61.953 168.758 62.2065L169.434 63.3053C169.518 63.4743 169.518 63.7279 169.265 63.8969L165.969 65.7564C165.8 65.8409 165.715 66.0944 165.8 66.348L166.476 67.4468C166.56 67.6158 166.56 67.8693 166.307 68.0384L165.208 68.7145C165.039 68.7991 164.954 69.0526 165.039 69.3062L165.715 70.4049C165.8 70.574 165.8 70.8275 165.546 70.9966L149.403 80.2937C149.403 80.3782 149.149 80.2937 149.065 80.1247Z" fill="#FAFBFD"/>
<path d="M167.068 70.743L168.167 70.0669C168.336 69.9824 168.42 69.7288 168.336 69.4753L167.659 68.3765C167.575 68.2075 167.575 67.9539 167.828 67.7849L171.125 65.9254C171.294 65.8409 171.378 65.5874 171.294 65.3338L170.618 64.235C170.533 64.066 170.533 63.8124 170.787 63.6434L174.083 61.784C174.252 61.6995 174.336 61.4459 174.252 61.1923L173.576 60.0936C173.491 59.9245 173.491 59.671 173.745 59.5019L174.844 58.8258C175.013 58.7413 175.097 58.4877 175.013 58.2342L174.336 57.1354C174.252 56.9664 174.252 56.7128 174.506 56.5438L175.604 55.8676C175.773 55.7831 175.858 55.5295 175.773 55.276L173.914 51.9797C173.829 51.8107 173.829 51.5571 174.083 51.3881L175.182 50.7119C175.351 50.6274 175.435 50.3738 175.351 50.1203L171.97 44.2884C171.885 44.1194 171.632 44.0349 171.378 44.1194L170.28 44.7955C170.111 44.8801 169.857 44.8801 169.688 44.6265L167.828 41.3302C167.744 41.1612 167.49 41.0767 167.237 41.1612L166.138 41.8374C165.969 41.9219 165.715 41.9219 165.546 41.6683L164.87 40.5696C164.786 40.4005 164.532 40.316 164.279 40.4005L163.18 41.0767C163.011 41.1612 162.757 41.1612 162.588 40.9076L161.912 39.8089C161.828 39.6398 161.574 39.5553 161.32 39.6398L158.024 41.4993C157.855 41.5838 157.602 41.5838 157.433 41.3302L156.756 40.2315C156.672 40.0624 156.418 39.9779 156.165 40.0624L152.869 41.9219C152.699 42.0064 152.446 42.0064 152.277 41.7528L151.601 40.6541C151.516 40.485 151.263 40.4005 151.009 40.485L149.91 41.1612C149.741 41.2457 149.488 41.2457 149.319 40.9922L148.643 39.8934C148.558 39.7244 148.304 39.6398 148.051 39.7244L131.232 49.4441C131.062 49.5286 130.978 49.7822 131.062 50.0358L131.739 51.1345C131.823 51.3035 131.823 51.5571 131.57 51.7261L119.483 58.6567C119.314 58.7413 119.23 58.9948 119.314 59.2484L119.99 60.3471C120.075 60.5162 120.075 60.7697 119.821 60.9388L112.13 65.3338C111.961 65.4183 111.877 65.6719 111.961 65.9254L112.637 67.0242C112.722 67.1932 112.722 67.4468 112.468 67.6158L109.172 69.4753C109.003 69.5598 108.918 69.8133 109.003 70.0669L109.679 71.1656C109.764 71.3347 109.764 71.5882 109.51 71.7573L106.214 73.6167C106.045 73.7012 105.96 73.9548 106.045 74.2084L106.721 75.3071C106.805 75.4761 106.805 75.7297 106.552 75.8987L105.453 76.5749C105.284 76.6594 105.199 76.913 105.284 77.1665L105.96 78.2653C106.045 78.4343 106.045 78.6879 105.791 78.8569L104.692 79.5331C104.523 79.6176 104.439 79.8712 104.523 80.1247L105.199 81.2235C105.284 81.3925 105.284 81.6461 105.03 81.8151L103.932 82.4913C103.763 82.5758 103.678 82.8293 103.763 83.0829L107.566 89.6754C107.651 89.8445 107.904 89.929 108.158 89.8445L109.256 89.1683C109.425 89.0838 109.679 89.0838 109.848 89.3373L110.524 90.4361C110.609 90.6051 110.862 90.6897 111.116 90.6051L112.215 89.929C112.384 89.8445 112.637 89.8445 112.806 90.098L113.482 91.1968C113.567 91.3658 113.82 91.4503 114.074 91.3658L115.173 90.6897C115.342 90.6051 115.595 90.6051 115.764 90.8587L116.441 91.9575C116.525 92.1265 116.779 92.211 117.032 92.1265L120.328 90.2671C120.498 90.1826 120.751 90.1825 120.92 90.4361L121.596 91.5349C121.681 91.7039 121.934 91.7884 122.188 91.7039L125.484 89.8445C125.653 89.76 125.907 89.76 126.076 90.0135L126.752 91.1123C126.836 91.2813 127.09 91.3658 127.344 91.2813L135.035 86.8863C135.204 86.8018 135.457 86.8018 135.627 87.0553L136.303 88.1541C136.387 88.3231 136.641 88.4076 136.894 88.3231L148.981 81.3925C149.15 81.308 149.403 81.308 149.572 81.5616L150.248 82.6603C150.333 82.8293 150.586 82.9139 150.84 82.8293L167.321 72.9406C167.49 72.856 167.575 72.6025 167.49 72.3489L166.814 71.2502C166.73 71.0811 166.814 70.8276 167.068 70.743ZM149.065 80.1247L148.389 79.026C148.304 78.8569 148.051 78.7724 147.797 78.8569L135.711 85.7875C135.542 85.8721 135.288 85.8721 135.119 85.6185L134.443 84.5197C134.359 84.3507 134.105 84.2662 133.852 84.3507L126.16 88.7457C125.991 88.8302 125.738 88.8302 125.569 88.5767L124.893 87.4779C124.808 87.3089 124.554 87.2244 124.301 87.3089L121.005 89.1683C120.836 89.2528 120.582 89.2528 120.413 88.9993L119.737 87.9005C119.652 87.7315 119.399 87.647 119.145 87.7315L115.849 89.5909C115.68 89.6754 115.426 89.6754 115.257 89.4219L114.581 88.3231C114.497 88.1541 114.243 88.0696 113.99 88.1541L112.891 88.8302C112.722 88.9148 112.468 88.9148 112.299 88.6612L111.623 87.5624C111.538 87.3934 111.285 87.3089 111.031 87.3934L109.933 88.0696C109.764 88.1541 109.51 88.1541 109.341 87.9005L105.96 82.0687C105.876 81.8996 105.876 81.6461 106.129 81.477L107.228 80.8009C107.397 80.7164 107.482 80.4628 107.397 80.2092L106.721 79.1105C106.636 78.9414 106.636 78.6879 106.89 78.5188L107.989 77.8427C108.158 77.7582 108.242 77.5046 108.158 77.2511L107.482 76.1523C107.397 75.9833 107.397 75.7297 107.651 75.5607L110.947 73.7012C111.116 73.6167 111.2 73.3632 111.116 73.1096L110.44 72.0108C110.355 71.8418 110.355 71.5882 110.609 71.4192L113.905 69.5598C114.074 69.4753 114.159 69.2217 114.074 68.9681L113.398 67.8694C113.313 67.7003 113.313 67.4468 113.567 67.2777L121.258 62.8827C121.427 62.7982 121.512 62.5446 121.427 62.2911L120.751 61.1923C120.667 61.0233 120.667 60.7697 120.92 60.6007L133.006 53.6701C133.175 53.5856 133.26 53.332 133.175 53.0785L132.499 51.9797C132.415 51.8107 132.415 51.5571 132.668 51.3881L148.812 42.0909C148.981 42.0064 149.234 42.0064 149.403 42.26L150.079 43.3587C150.164 43.5277 150.417 43.6123 150.671 43.5277L151.77 42.8516C151.939 42.7671 152.192 42.7671 152.361 43.0206L153.038 44.1194C153.122 44.2884 153.376 44.3729 153.629 44.2884L156.925 42.429C157.094 42.3445 157.348 42.3445 157.517 42.598L158.193 43.6968C158.278 43.8658 158.531 43.9503 158.785 43.8658L162.081 42.0064C162.25 41.9219 162.504 41.9219 162.673 42.1754L163.349 43.2742C163.433 43.4432 163.687 43.5277 163.941 43.4432L165.039 42.7671C165.208 42.6825 165.462 42.6825 165.631 42.9361L167.49 46.2324C167.575 46.4014 167.828 46.4859 168.082 46.4014L169.181 45.7253C169.35 45.6407 169.603 45.6407 169.772 45.8943L172.731 51.05C172.815 51.219 172.815 51.4726 172.562 51.6416L171.463 52.3178C171.294 52.4023 171.209 52.6559 171.294 52.9094L173.153 56.2057C173.238 56.3747 173.238 56.6283 172.984 56.7973L171.885 57.4735C171.716 57.558 171.632 57.8116 171.716 58.0651L172.393 59.1639C172.477 59.3329 172.477 59.5865 172.224 59.7555L168.927 61.6149C168.758 61.6995 168.674 61.953 168.758 62.2066L169.434 63.3053C169.519 63.4744 169.519 63.7279 169.265 63.897L165.969 65.7564C165.8 65.8409 165.715 66.0945 165.8 66.348L166.476 67.4468C166.561 67.6158 166.561 67.8694 166.307 68.0384L165.208 68.7146C165.039 68.7991 164.955 69.0527 165.039 69.3062L165.715 70.405C165.8 70.574 165.8 70.8276 165.546 70.9966L149.403 80.2938C149.403 80.3783 149.15 80.2938 149.065 80.1247Z" fill="#292D33"/>
<path d="M163.433 68.3766L162.588 66.9398C162.503 66.7707 162.25 66.6862 161.996 66.7707L160.898 67.4469C160.728 67.5314 160.475 67.5314 160.306 67.2779L149.741 48.9371C149.656 48.7681 149.656 48.5145 149.91 48.3455L151.009 47.6693C151.178 47.5848 151.262 47.3312 151.178 47.0777L150.333 45.6409C150.248 45.4718 149.995 45.3873 149.741 45.4718L148.642 46.148C148.473 46.2325 148.22 46.2325 148.051 45.9789L147.374 44.8802C147.29 44.7111 147.036 44.6266 146.783 44.7111L143.148 46.8241C142.979 46.9086 142.895 47.1622 142.979 47.4158L143.656 48.5145C143.74 48.6836 143.74 48.9371 143.486 49.1062L142.388 49.7823C142.219 49.8668 142.134 50.1204 142.219 50.3739L145.43 55.8677C145.515 56.0368 145.515 56.2903 145.261 56.4594L144.163 57.1355C143.994 57.22 143.909 57.4736 143.994 57.7272L149.91 67.954C149.994 68.1231 150.248 68.2076 150.502 68.1231L151.6 67.4469C151.769 67.3624 152.023 67.3624 152.192 67.6159L155.404 73.1097C155.488 73.2787 155.742 73.3633 155.995 73.2787L157.094 72.6026C157.263 72.5181 157.517 72.5181 157.686 72.7716L158.362 73.8704C158.446 74.0394 158.7 74.1239 158.954 74.0394L162.588 71.9264C162.757 71.8419 162.841 71.5884 162.757 71.3348L162.081 70.236C161.996 70.067 161.996 69.8134 162.25 69.6444L163.349 68.9683C163.518 68.7992 163.602 68.5457 163.433 68.3766ZM157.348 71.4193L154.136 65.9255C154.051 65.7565 153.798 65.672 153.544 65.7565L152.446 66.4327C152.277 66.5172 152.023 66.5172 151.854 66.2636L146.36 56.7129C146.276 56.5439 146.276 56.2903 146.529 56.1213L147.628 55.4451C147.797 55.3606 147.882 55.107 147.797 54.8535L144.585 49.3597C144.501 49.1907 144.501 48.9371 144.754 48.7681L147.712 47.0777C147.882 46.9932 148.135 46.9932 148.304 47.2467L148.727 48.0074C148.811 48.1764 148.811 48.43 148.558 48.599L147.459 49.2752C147.29 49.3597 147.205 49.6133 147.29 49.8668L158.277 68.8837C158.362 69.0528 158.615 69.1373 158.869 69.0528L159.968 68.3766C160.137 68.2921 160.39 68.2921 160.559 68.5457L160.982 69.3063C161.067 69.4754 161.067 69.7289 160.813 69.898L157.855 71.5884C157.77 71.6729 157.517 71.5884 157.348 71.4193Z" fill="#292D33"/>
<path d="M157.348 71.4193L154.136 65.9255C154.052 65.7565 153.798 65.672 153.545 65.7565L152.446 66.4326C152.277 66.5171 152.023 66.5172 151.854 66.2636L146.361 56.7129C146.276 56.5438 146.276 56.2903 146.53 56.1212L147.628 55.4451C147.797 55.3606 147.882 55.107 147.797 54.8535L144.586 49.3597C144.501 49.1906 144.501 48.9371 144.755 48.768L147.713 47.0776C147.882 46.9931 148.136 46.9931 148.305 47.2467L148.727 48.0074C148.812 48.1764 148.812 48.43 148.558 48.599L147.459 49.2752C147.29 49.3597 147.206 49.6132 147.29 49.8668L158.278 68.8837C158.362 69.0527 158.616 69.1373 158.87 69.0527L159.968 68.3766C160.137 68.2921 160.391 68.2921 160.56 68.5456L160.982 69.3063C161.067 69.4753 161.067 69.7289 160.813 69.8979L157.855 71.5883C157.771 71.6728 157.517 71.5883 157.348 71.4193Z" fill="#C3CAD4"/>
</g>
<defs>
<clipPath id="clip0_2545_38014">
<rect width="180.365" height="190" fill="white" transform="translate(0.817383)"/>
</clipPath>
</defs>
</svg>
