<svg width="178" height="192" viewBox="0 0 178 192" fill="none" xmlns="http://www.w3.org/2000/svg">
<g clip-path="url(#clip0_2545_38142)">
<path d="M87.6772 14.9615C84.0772 14.9615 81.0771 12.0615 81.0771 8.36147C81.0771 4.76148 83.9772 1.76147 87.6772 1.76147C91.2772 1.76147 94.2772 4.66147 94.2772 8.36147C94.2772 11.9615 91.2772 14.9615 87.6772 14.9615Z" fill="#1A1C1E" stroke="#1A1C1E" stroke-width="3" stroke-miterlimit="10"/>
<path d="M169.656 129.11C188.108 84.5644 166.955 33.4952 122.409 15.0436C77.8641 -3.40812 26.795 17.745 8.3433 62.2903C-10.1084 106.836 11.0447 157.905 55.5901 176.356C100.135 194.808 151.205 173.655 169.656 129.11Z" fill="#FAFBFD" stroke="#1A1C1E" stroke-width="2.6" stroke-miterlimit="10"/>
<path d="M89.0766 101.362C91.8932 101.362 94.1766 99.0783 94.1766 96.2616C94.1766 93.445 91.8932 91.1616 89.0766 91.1616C86.2599 91.1616 83.9766 93.445 83.9766 96.2616C83.9766 99.0783 86.2599 101.362 89.0766 101.362Z" fill="#1A1C1E"/>
<path d="M37.8764 146.361L34.7764 150.661L39.0764 147.561C40.8764 148.361 43.8764 147.261 46.2764 144.761L89.1764 97.6615C89.4764 97.2615 89.4764 96.7615 89.1764 96.3615C88.8764 96.0615 88.2764 95.9615 87.8764 96.3615L40.7764 139.261C38.1764 141.461 37.0764 144.461 37.8764 146.361ZM65.9764 118.761L66.5764 119.361L44.8764 143.661C44.1764 144.461 43.2764 145.061 42.3764 145.261C41.4764 145.561 40.7764 145.461 40.2764 144.961C39.7764 144.461 39.6764 143.761 39.9764 142.861C40.2764 141.961 40.7764 141.061 41.5764 140.361L65.9764 118.761Z" fill="#1A1C1E"/>
<path d="M69.5762 75.1615C65.5762 73.9615 61.4762 76.2615 59.4762 77.5615L49.0762 73.2615L58.0762 80.0615C57.8762 82.4615 57.8762 87.1615 60.9762 90.0615C61.8762 90.8615 63.1762 91.0615 64.2762 90.6615C65.3762 90.1615 67.1762 88.5615 68.3762 87.1615L87.5762 96.7615C88.0762 96.9615 88.6762 96.8615 88.8762 96.3615C89.1762 95.8615 88.9762 95.2615 88.5762 95.0615L70.5762 83.2615C71.1762 81.4615 71.6762 79.1615 71.5762 77.9615C71.6762 76.5615 70.7762 75.5615 69.5762 75.1615ZM68.0762 77.6615C68.0762 78.3615 67.5762 80.2615 66.8762 82.3615C66.7762 82.6615 66.6762 82.8615 66.5762 83.1615C66.5762 83.2615 66.5762 83.2615 66.4762 83.3615C66.3762 83.4615 66.3762 83.4615 66.2762 83.5615C66.0762 83.7615 65.9762 83.9615 65.7762 84.1615C64.3762 85.7615 62.8762 87.2615 62.3762 87.5615C62.2762 87.5615 62.1762 87.5615 62.1762 87.5615C60.4762 85.9615 60.0762 83.2615 60.0762 81.1615C60.0762 80.6615 60.0762 80.1615 60.1762 79.7615C60.1762 79.7615 60.2762 79.7615 60.2762 79.6615C60.3762 79.5615 60.4762 79.4615 60.5762 79.4615C60.6762 79.4615 60.6762 79.3615 60.7762 79.3615C60.9762 79.2615 61.0762 79.1615 61.2762 79.0615C63.0762 77.9615 65.6762 76.9615 67.8762 77.6615C67.9762 77.4615 68.0762 77.5615 68.0762 77.6615Z" fill="#1A1C1E"/>
<path d="M82.9764 36.6614V22.6614H82.5764L80.3764 27.7614H77.2764L80.5764 20.4614H85.8764V36.6614H82.9764Z" fill="#1A1C1E"/>
<path d="M88.376 36.6615V34.7615C88.376 33.6615 88.576 32.6615 88.976 31.9615C89.376 31.2615 89.876 30.5615 90.576 30.0615C91.276 29.5615 92.176 29.1615 93.176 28.8615L94.776 28.3615C95.376 28.1615 95.776 27.9615 96.176 27.6615C96.576 27.3615 96.876 27.0615 97.076 26.6615C97.276 26.2615 97.376 25.8615 97.376 25.3615V25.2615C97.376 24.4615 97.076 23.8615 96.576 23.4615C96.076 23.0615 95.376 22.7615 94.376 22.7615C93.476 22.7615 92.776 22.9615 92.176 23.4615C91.676 23.9615 91.376 24.6615 91.376 25.5615V25.9615H88.376V25.5615C88.376 24.3615 88.676 23.3615 89.176 22.5615C89.676 21.7615 90.376 21.1615 91.276 20.6615C92.176 20.2615 93.176 20.0615 94.276 20.0615C95.376 20.0615 96.376 20.2615 97.276 20.6615C98.176 21.0615 98.876 21.6615 99.376 22.4615C99.876 23.2615 100.176 24.1615 100.176 25.1615V25.3615C100.176 26.3615 99.976 27.2615 99.576 27.9615C99.176 28.6615 98.576 29.2615 97.876 29.7615C97.176 30.2615 96.276 30.5615 95.376 30.8615L93.876 31.3615C93.176 31.5615 92.676 31.7615 92.276 32.0615C91.876 32.2615 91.676 32.5615 91.476 32.8615C91.376 33.1615 91.276 33.4615 91.276 33.8615V33.9615H99.976V36.5615H88.376V36.6615Z" fill="#1A1C1E"/>
<path d="M52.0762 161.962V161.362C52.0762 160.762 52.0762 160.262 52.1762 159.862C52.2762 159.462 52.4762 158.962 52.7762 158.462L58.1762 148.862V148.462H49.5762V145.862H61.2762V149.362L55.5762 159.662C55.3762 160.062 55.2762 160.362 55.1762 160.562C55.0762 160.862 55.0762 161.162 55.0762 161.562V162.062H52.0762V161.962Z" fill="#1A1C1E"/>
<path d="M30.4768 137.561C29.2768 137.561 28.1768 137.361 27.1768 136.961C26.2768 136.561 25.4768 136.061 24.9768 135.361C24.4768 134.661 24.1768 133.861 24.1768 132.861V132.561C24.1768 131.861 24.2768 131.161 24.5768 130.761C24.8768 130.261 25.1768 129.861 25.5768 129.661C25.9768 129.461 26.3768 129.161 26.6768 129.061V128.661C26.2768 128.561 25.9768 128.361 25.5768 128.061C25.1768 127.761 24.9768 127.461 24.6768 126.961C24.3768 126.461 24.3768 125.961 24.3768 125.261V124.961C24.3768 124.161 24.6768 123.361 25.1768 122.761C25.6768 122.161 26.3768 121.661 27.2768 121.261C28.1768 120.861 29.2768 120.761 30.4768 120.761C31.6768 120.761 32.7768 120.961 33.6768 121.261C34.5768 121.661 35.2768 122.161 35.7768 122.761C36.2768 123.361 36.5768 124.161 36.5768 124.961V125.261C36.5768 125.861 36.4768 126.461 36.2768 126.961C36.0768 127.461 35.7768 127.761 35.3768 128.061C35.0768 128.361 34.6768 128.561 34.2768 128.661V129.061C34.6768 129.161 34.9768 129.361 35.3768 129.661C35.7768 129.961 36.0768 130.361 36.3768 130.761C36.6768 131.161 36.7768 131.861 36.7768 132.561V132.861C36.7768 133.861 36.4768 134.661 35.9768 135.361C35.4768 136.061 34.6768 136.561 33.7768 136.961C32.7768 137.361 31.6768 137.561 30.4768 137.561ZM30.4768 134.961C31.5768 134.961 32.3768 134.761 32.9768 134.361C33.5768 133.961 33.8768 133.361 33.8768 132.761V132.561C33.8768 131.861 33.5768 131.361 33.0768 130.961C32.4768 130.561 31.6768 130.361 30.5768 130.361C29.4768 130.361 28.6768 130.561 28.0768 130.961C27.4768 131.361 27.1768 131.961 27.1768 132.561V132.761C27.1768 133.461 27.4768 133.961 28.0768 134.361C28.5768 134.761 29.3768 134.961 30.4768 134.961ZM30.4768 127.661C31.4768 127.661 32.2768 127.461 32.7768 127.161C33.2768 126.861 33.5768 126.261 33.5768 125.661V125.461C33.5768 124.861 33.2768 124.361 32.7768 123.961C32.2768 123.561 31.4768 123.461 30.4768 123.461C29.4768 123.461 28.7768 123.661 28.1768 123.961C27.5768 124.361 27.3768 124.861 27.3768 125.461V125.661C27.3768 126.261 27.6768 126.761 28.1768 127.161C28.6768 127.461 29.4768 127.661 30.4768 127.661Z" fill="#1A1C1E"/>
<path d="M20.9766 103.661C19.7766 103.661 18.7766 103.461 17.8766 103.061C16.9766 102.661 16.2766 102.061 15.7766 101.361C15.2766 100.561 15.0766 99.6615 15.0766 98.6615H18.0766C18.0766 99.2615 18.2766 99.8615 18.7766 100.361C19.2766 100.861 19.9766 101.061 20.9766 101.061C21.9766 101.061 22.8766 100.761 23.3766 100.261C23.9766 99.7615 24.1766 98.9615 24.1766 98.0615V96.2615H23.7766C23.4766 96.5615 23.0766 96.8615 22.5766 97.1615C22.0766 97.4615 21.2766 97.5615 20.1766 97.5615C19.2766 97.5615 18.3766 97.3615 17.5766 96.9615C16.7766 96.5615 16.0766 95.9615 15.6766 95.2615C15.1766 94.4615 14.9766 93.5615 14.9766 92.4615V92.1615C14.9766 91.0615 15.2766 90.1615 15.7766 89.3615C16.2766 88.5615 16.9766 87.9615 17.9766 87.4615C18.9766 86.9615 19.9766 86.7615 21.1766 86.7615C22.3766 86.7615 23.4766 86.9615 24.3766 87.4615C25.2766 87.9615 25.9766 88.5615 26.4766 89.3615C26.9766 90.1615 27.1766 91.1615 27.1766 92.1615V97.6615C27.1766 98.9615 26.8766 100.061 26.3766 100.961C25.8766 101.861 25.0766 102.461 24.1766 102.961C23.1766 103.461 22.1766 103.661 20.9766 103.661ZM21.0766 95.2615C21.6766 95.2615 22.2766 95.1615 22.7766 94.9615C23.2766 94.7615 23.5766 94.3615 23.8766 93.9615C24.1766 93.5615 24.2766 93.0615 24.2766 92.4615V92.2615C24.2766 91.3615 23.9766 90.7615 23.4766 90.2615C22.8766 89.7615 22.1766 89.4615 21.1766 89.4615C20.1766 89.4615 19.4766 89.7615 18.8766 90.2615C18.2766 90.7615 18.0766 91.4615 18.0766 92.2615V92.4615C18.0766 93.0615 18.1766 93.5615 18.4766 93.9615C18.7766 94.3615 19.0766 94.6615 19.5766 94.9615C19.8766 95.1615 20.3766 95.2615 21.0766 95.2615Z" fill="#1A1C1E"/>
<path d="M24.077 69.3615V55.2615H23.677L21.477 60.3615H18.377L21.677 53.0615H26.977V69.2615H24.077V69.3615Z" fill="#1A1C1E"/>
<path d="M36.0773 69.6615C34.1773 69.6615 32.6773 69.1615 31.4773 68.0615C30.2773 66.9615 29.7773 65.3615 29.7773 63.2615V59.1615C29.7773 57.0615 30.3773 55.4615 31.4773 54.3615C32.6773 53.2615 34.1773 52.7615 36.0773 52.7615C37.9773 52.7615 39.5773 53.2615 40.6773 54.3615C41.7773 55.4615 42.3773 57.0615 42.3773 59.1615V63.2615C42.3773 65.3615 41.7773 66.9615 40.6773 68.0615C39.5773 69.1615 37.9773 69.6615 36.0773 69.6615ZM36.0773 67.0615C37.2773 67.0615 38.0773 66.7615 38.6773 66.1615C39.1773 65.5615 39.4773 64.6615 39.4773 63.4615V59.1615C39.4773 57.9615 39.1773 57.0615 38.5773 56.4615C37.9773 55.8615 37.1773 55.5615 36.0773 55.5615C34.9773 55.5615 34.1773 55.8615 33.5773 56.4615C32.9773 57.0615 32.6773 57.9615 32.6773 59.1615V63.4615C32.6773 64.6615 32.9773 65.5615 33.4773 66.1615C34.0773 66.7615 34.9773 67.0615 36.0773 67.0615Z" fill="#1A1C1E"/>
<path d="M51.077 44.3616V30.3616H50.677L48.477 35.4616H45.377L48.677 28.1616H53.977V44.3616H51.077Z" fill="#1A1C1E"/>
<path d="M61.577 44.3616V30.3616H61.177L58.977 35.4616H55.877L59.177 28.1616H64.477V44.3616H61.577Z" fill="#1A1C1E"/>
<path d="M89.4766 171.162C88.2766 171.162 87.1766 170.962 86.2766 170.462C85.3766 169.962 84.6766 169.362 84.1766 168.562C83.6766 167.762 83.4766 166.762 83.4766 165.762V160.262C83.4766 158.962 83.7766 157.862 84.2766 156.962C84.7766 156.062 85.5766 155.462 86.4766 154.962C87.3766 154.562 88.4766 154.362 89.6766 154.362C90.8766 154.362 91.8766 154.562 92.7766 154.962C93.6766 155.362 94.3766 155.962 94.8766 156.662C95.3766 157.362 95.5766 158.362 95.5766 159.362H92.5766C92.5766 158.762 92.3766 158.162 91.8766 157.662C91.4766 157.162 90.6766 156.962 89.6766 156.962C88.6766 156.962 87.8766 157.262 87.2766 157.762C86.6766 158.262 86.4766 159.062 86.4766 159.962V161.662H86.8766C87.1766 161.362 87.5766 161.062 88.0766 160.762C88.5766 160.462 89.3766 160.362 90.4766 160.362C91.3766 160.362 92.2766 160.562 93.0766 160.962C93.8766 161.362 94.4766 161.962 94.9766 162.662C95.4766 163.462 95.6766 164.362 95.6766 165.462V165.762C95.6766 166.862 95.3766 167.762 94.8766 168.562C94.3766 169.362 93.6766 169.962 92.6766 170.462C91.8766 170.962 90.7766 171.162 89.4766 171.162ZM89.5766 168.562C90.5766 168.562 91.2766 168.262 91.8766 167.762C92.4766 167.262 92.6766 166.562 92.6766 165.762V165.562C92.6766 164.962 92.5766 164.462 92.2766 164.062C91.9766 163.662 91.6766 163.362 91.1766 163.062C90.6766 162.862 90.1766 162.762 89.4766 162.762C88.8766 162.762 88.2766 162.862 87.7766 163.062C87.2766 163.262 86.9766 163.662 86.6766 164.062C86.3766 164.462 86.2766 164.962 86.2766 165.562V165.762C86.2766 166.562 86.5766 167.262 87.0766 167.762C87.7766 168.362 88.5766 168.562 89.5766 168.562Z" fill="#1A1C1E"/>
<path d="M123.376 161.961C122.076 161.961 120.976 161.761 120.076 161.261C119.176 160.861 118.476 160.161 117.976 159.361C117.476 158.561 117.276 157.561 117.276 156.561V156.261H120.276V156.461C120.276 157.261 120.576 157.861 121.076 158.461C121.576 159.061 122.376 159.261 123.376 159.261C124.376 159.261 125.176 158.961 125.676 158.461C126.176 157.961 126.476 157.161 126.476 156.361V156.161C126.476 155.261 126.176 154.561 125.676 154.061C125.176 153.561 124.476 153.261 123.676 153.261C123.276 153.261 122.876 153.361 122.576 153.461C122.276 153.561 122.076 153.761 121.876 153.961C121.676 154.161 121.576 154.361 121.376 154.561H117.776V145.461H128.876V148.161H120.776V152.161H121.176C121.376 151.961 121.576 151.761 121.776 151.561C121.976 151.361 122.376 151.261 122.776 151.061C123.176 150.961 123.676 150.861 124.276 150.861C125.276 150.861 126.076 151.061 126.876 151.461C127.676 151.861 128.276 152.461 128.776 153.261C129.276 154.061 129.476 154.961 129.476 156.161V156.461C129.476 157.561 129.276 158.561 128.776 159.461C128.276 160.261 127.576 160.961 126.676 161.361C125.776 161.661 124.676 161.961 123.376 161.961Z" fill="#1A1C1E"/>
<path d="M149.276 136.562V133.262H141.276V129.862L146.876 120.362H152.176V130.662H154.876V133.262H152.176V136.562H149.276ZM144.176 130.662H149.276V122.262H148.876L144.176 130.262V130.662Z" fill="#1A1C1E"/>
<path d="M156.976 104.462C155.776 104.462 154.676 104.262 153.776 103.862C152.876 103.462 152.076 102.762 151.576 101.962C151.076 101.162 150.776 100.162 150.776 99.0615V98.6615H153.776V98.9615C153.776 99.8615 154.076 100.562 154.676 101.062C155.276 101.562 156.076 101.862 157.076 101.862C158.076 101.862 158.876 101.662 159.376 101.162C159.876 100.662 160.176 100.062 160.176 99.3615V99.1615C160.176 98.6615 160.076 98.2615 159.776 97.9615C159.576 97.6615 159.176 97.4615 158.776 97.2615C158.376 97.1615 157.876 97.0615 157.376 97.0615H154.176V93.8615L159.376 91.0615V90.6615H151.176V88.0615H162.676V91.9615L157.776 94.5615V94.9615H158.676C159.376 94.9615 160.076 95.0615 160.776 95.3615C161.476 95.6615 162.076 96.0615 162.476 96.7615C162.876 97.3615 163.176 98.1615 163.176 99.1615V99.2615C163.176 100.262 162.876 101.262 162.376 101.962C161.876 102.762 161.176 103.362 160.276 103.762C159.376 104.162 158.176 104.462 156.976 104.462Z" fill="#1A1C1E"/>
<path d="M141.776 68.6615V66.7615C141.776 65.6615 141.976 64.6615 142.376 63.9615C142.776 63.2615 143.276 62.5615 143.976 62.0615C144.676 61.5615 145.576 61.1615 146.576 60.8615L148.176 60.3615C148.776 60.1615 149.176 59.9615 149.576 59.6615C149.976 59.3615 150.276 59.0615 150.476 58.6615C150.676 58.2615 150.776 57.8615 150.776 57.3615V57.2615C150.776 56.4615 150.476 55.8615 149.976 55.4615C149.476 55.0615 148.776 54.7615 147.776 54.7615C146.876 54.7615 146.176 54.9615 145.576 55.4615C145.076 55.9615 144.776 56.6615 144.776 57.5615V57.9615H141.776V57.5615C141.776 56.3615 142.076 55.3615 142.576 54.5615C143.076 53.7615 143.776 53.1615 144.676 52.6615C145.576 52.2615 146.576 52.0615 147.676 52.0615C148.776 52.0615 149.776 52.2615 150.676 52.6615C151.576 53.0615 152.276 53.6615 152.776 54.4615C153.276 55.2615 153.576 56.1615 153.576 57.1615V57.3615C153.576 58.3615 153.376 59.2615 152.976 59.9615C152.576 60.6615 151.976 61.2615 151.276 61.7615C150.576 62.2615 149.676 62.5615 148.776 62.8615L147.276 63.3615C146.576 63.5615 146.076 63.7615 145.676 64.0615C145.276 64.2615 145.076 64.5615 144.876 64.8615C144.776 65.1615 144.676 65.4615 144.676 65.8615V65.9615H153.376V68.5615H141.776V68.6615Z" fill="#1A1C1E"/>
<path d="M123.476 43.9615V29.9615H123.076L120.876 35.0615H117.776L121.076 27.7615H126.376V43.9615H123.476Z" fill="#1A1C1E"/>
<path d="M175.177 190.162H11.877C11.877 183.762 14.477 177.862 18.677 173.662C22.877 169.462 28.677 166.862 35.177 166.862H38.377C52.677 177.062 70.177 183.062 88.977 183.062C107.777 183.062 125.277 177.062 139.577 166.862H151.877C164.777 166.862 175.177 177.262 175.177 190.162Z" fill="#1A1C1E" stroke="#1A1C1E" stroke-width="3" stroke-miterlimit="10"/>
<path d="M100.477 86.3616H103.277V83.5616H100.477V80.7616H103.277V77.9616H100.477V75.1616H94.8772V77.9616H92.0771V83.5616H94.8772V80.7616H97.6772V83.5616H94.8772V86.3616H92.0771V89.1616H94.8772V91.9616H97.6772V89.1616H100.477V86.3616Z" fill="#C3CAD4"/>
<path d="M108.877 103.162H111.677V105.962H114.477V108.762H125.677V105.962H128.477V103.162H131.277V100.362H117.277V97.5617H111.677V94.7617H106.077V100.362H108.877V103.162Z" fill="#C3CAD4"/>
<path d="M142.378 97.5616V86.3616H139.578V91.9616H136.778V94.7616H133.978V103.162H131.278V105.962H128.478V108.762H125.678V111.462H114.478V108.762H111.678V105.962H108.878V103.162H106.078V100.362H103.278V91.9616H100.478V108.762H103.278V114.262H106.078V117.062H108.878V119.862H111.678V125.462H114.478V122.662H120.078V125.462H122.878V122.662H125.678V119.862H128.478V117.062H131.278V114.262H136.778V111.462H139.578V108.762H142.378V105.962H145.178V97.5616H142.378Z" fill="#C3CAD4"/>
<path d="M89.2773 83.6615V86.2615C89.2773 86.3615 89.2773 86.3615 89.3773 86.3615H94.7773C94.8773 86.3615 94.8773 86.3615 94.8773 86.2615V83.6615C94.8773 83.5615 94.8773 83.5615 94.7773 83.5615H89.3773C89.2773 83.5615 89.2773 83.5615 89.2773 83.6615Z" fill="#1A1C1E"/>
<path d="M97.577 80.7617H94.977C94.877 80.7617 94.877 80.7617 94.877 80.8617V83.4617C94.877 83.5617 94.877 83.5617 94.977 83.5617H97.577C97.6769 83.5617 97.677 83.5617 97.677 83.4617V80.8617C97.677 80.7617 97.577 80.7617 97.577 80.7617Z" fill="#1A1C1E"/>
<path d="M100.477 100.262L100.377 94.8617C100.377 94.7617 100.377 94.7617 100.277 94.7617H97.6772C97.5772 94.7617 97.5771 94.7617 97.5771 94.8617V97.5617H97.6772V108.562C97.6772 108.662 97.6772 108.662 97.7772 108.662H100.377C100.477 108.662 100.477 108.662 100.477 108.562V100.262Z" fill="#1A1C1E"/>
<path d="M103.178 108.662H100.578C100.478 108.662 100.478 108.662 100.478 108.762V114.162C100.478 114.262 100.478 114.262 100.578 114.262H103.178C103.278 114.262 103.278 114.262 103.278 114.162V108.762C103.278 108.662 103.278 108.662 103.178 108.662Z" fill="#1A1C1E"/>
<path d="M103.277 114.362V116.962C103.277 117.062 103.277 117.062 103.377 117.062H105.977C106.077 117.062 106.077 117.062 106.077 116.962V114.362C106.077 114.262 106.077 114.262 105.977 114.262H103.377C103.377 114.262 103.277 114.262 103.277 114.362Z" fill="#1A1C1E"/>
<path d="M106.077 91.9617L106.177 94.5617C106.177 94.6617 106.177 94.6617 106.277 94.6617H111.677C111.777 94.6617 111.777 94.6617 111.777 94.5617V91.9617C111.777 91.8617 111.777 91.8617 111.677 91.8617H109.077C108.977 91.8617 108.977 91.8617 108.977 91.7617V89.1617C108.977 89.0617 108.977 89.0617 108.877 89.0617L106.277 89.1617C106.177 89.1617 106.177 89.1617 106.177 89.0617V86.4617C106.177 86.3617 106.177 86.3617 106.077 86.3617H103.477V86.2617H100.777C100.677 86.2617 100.677 86.2617 100.677 86.3617V88.9617C100.677 89.0617 100.677 89.0617 100.777 89.0617H103.377V89.1617H100.677V89.0617H97.977C97.877 89.0617 97.877 89.0617 97.877 89.1617V94.5617C97.877 94.6617 97.877 94.6617 97.977 94.6617H100.377C100.477 94.6617 100.477 94.6617 100.477 94.5617V92.0617C100.477 91.9617 100.477 91.9617 100.577 91.9617H103.077C103.177 91.9617 103.177 91.9617 103.177 92.0617V100.262C103.177 100.362 103.177 100.362 103.277 100.362H105.877C105.977 100.362 105.977 100.362 105.977 100.262V91.9617H106.077Z" fill="#1A1C1E"/>
<path d="M108.877 119.762V117.162C108.877 117.062 108.877 117.062 108.777 117.062H106.177C106.077 117.062 106.077 117.062 106.077 117.162V119.762C106.077 119.862 106.077 119.862 106.177 119.862H108.777C108.877 119.862 108.877 119.762 108.877 119.762Z" fill="#1A1C1E"/>
<path d="M106.077 100.462V103.062C106.077 103.162 106.077 103.162 106.177 103.162H108.777C108.877 103.162 108.877 103.162 108.877 103.062V100.462C108.877 100.362 108.877 100.362 108.777 100.362H106.177C106.077 100.362 106.077 100.362 106.077 100.462Z" fill="#1A1C1E"/>
<path d="M106.177 89.0616H108.777C108.877 89.0616 108.877 89.0616 108.877 88.9616V83.5616C108.877 83.4616 108.877 83.4616 108.777 83.4616H106.177C106.077 83.4616 106.077 83.4616 106.077 83.3616V80.8616C106.077 80.7616 106.077 80.7616 105.977 80.7616L103.377 80.6616H100.677C100.577 80.6616 100.577 80.6616 100.577 80.7616V83.3616C100.577 83.4616 100.577 83.4616 100.677 83.4616H103.277C103.377 83.4616 103.377 83.4616 103.377 83.5616V86.1616C103.377 86.2616 103.377 86.2616 103.477 86.2616H106.077C106.177 86.2616 106.177 86.2616 106.177 86.3616V88.9616C106.077 89.0616 106.177 89.0616 106.177 89.0616Z" fill="#1A1C1E"/>
<path d="M108.977 136.662H111.577C111.677 136.662 111.677 136.662 111.677 136.562V133.962C111.677 133.862 111.677 133.862 111.577 133.862H108.977C108.877 133.862 108.877 133.862 108.877 133.962V136.562C108.877 136.662 108.877 136.662 108.977 136.662Z" fill="#1A1C1E"/>
<path d="M108.977 125.462H111.577C111.677 125.462 111.677 125.462 111.677 125.362V119.962C111.677 119.862 111.677 119.862 111.577 119.862H108.977C108.877 119.862 108.877 119.862 108.877 119.962V125.362L108.977 125.462Z" fill="#1A1C1E"/>
<path d="M108.877 103.262V105.862C108.877 105.962 108.877 105.962 108.977 105.962H111.577C111.677 105.962 111.677 105.962 111.677 105.862V103.262C111.677 103.162 111.677 103.162 111.577 103.162H108.977C108.877 103.162 108.877 103.162 108.877 103.262Z" fill="#1A1C1E"/>
<path d="M114.378 128.262H111.778C111.678 128.262 111.678 128.262 111.678 128.362V133.762C111.678 133.862 111.678 133.862 111.778 133.862H114.378C114.478 133.862 114.478 133.862 114.478 133.762V128.362L114.378 128.262Z" fill="#1A1C1E"/>
<path d="M114.478 128.162V125.562C114.478 125.462 114.478 125.462 114.378 125.462H111.778C111.678 125.462 111.678 125.462 111.678 125.562V128.162C111.678 128.262 111.678 128.262 111.778 128.262H114.378C114.478 128.262 114.478 128.162 114.478 128.162Z" fill="#1A1C1E"/>
<path d="M111.678 106.062V108.662C111.678 108.762 111.678 108.762 111.778 108.762H114.378C114.478 108.762 114.478 108.762 114.478 108.662V106.062C114.478 105.962 114.478 105.962 114.378 105.962H111.778C111.678 105.962 111.678 105.962 111.678 106.062Z" fill="#1A1C1E"/>
<path d="M114.477 97.5616L117.177 97.4616C117.277 97.4616 117.277 97.4616 117.277 97.3616V94.7616C117.277 94.6616 117.277 94.6616 117.177 94.6616L114.477 94.7616V94.6616H111.777C111.677 94.6616 111.677 94.6616 111.677 94.7616L111.577 97.3616C111.577 97.4616 111.577 97.4616 111.677 97.4616H114.477V97.5616Z" fill="#1A1C1E"/>
<path d="M114.478 133.962V136.562C114.478 136.662 114.478 136.662 114.578 136.662H119.978C120.078 136.662 120.078 136.662 120.078 136.562V133.962C120.078 133.862 120.078 133.862 119.978 133.862H114.578C114.478 133.862 114.478 133.962 114.478 133.962Z" fill="#1A1C1E"/>
<path d="M117.177 122.662L114.677 122.562C114.577 122.562 114.577 122.562 114.577 122.662V125.262C114.577 125.362 114.577 125.362 114.677 125.362L117.177 125.462C117.277 125.462 117.277 125.462 117.277 125.362V122.762L117.177 122.662Z" fill="#1A1C1E"/>
<path d="M117.277 122.762V125.362C117.277 125.462 117.277 125.462 117.377 125.462H119.977C120.077 125.462 120.077 125.462 120.077 125.362V122.762C120.077 122.662 120.077 122.662 119.977 122.662H117.377C117.377 122.662 117.277 122.662 117.277 122.762Z" fill="#1A1C1E"/>
<path d="M120.077 100.262L122.677 100.362C122.777 100.362 122.777 100.362 122.777 100.262V97.6617C122.777 97.5617 122.777 97.5617 122.677 97.5617L120.077 97.4617H117.377C117.277 97.4617 117.277 97.4617 117.277 97.5617V100.162C117.277 100.262 117.277 100.262 117.377 100.262H120.077Z" fill="#1A1C1E"/>
<path d="M122.777 128.262H120.177C120.077 128.262 120.077 128.262 120.077 128.362V133.762C120.077 133.862 120.077 133.862 120.177 133.862H122.777C122.877 133.862 122.877 133.862 122.877 133.762V128.362L122.777 128.262Z" fill="#1A1C1E"/>
<path d="M120.177 128.262H122.777C122.877 128.262 122.877 128.262 122.877 128.162V125.562C122.877 125.462 122.877 125.462 122.777 125.462H120.177C120.077 125.462 120.077 125.462 120.077 125.562V128.162L120.177 128.262Z" fill="#1A1C1E"/>
<path d="M114.478 108.862V111.462C114.478 111.562 114.478 111.562 114.578 111.562H125.578C125.678 111.562 125.678 111.562 125.678 111.462V108.862C125.678 108.762 125.678 108.762 125.578 108.762H114.578C114.478 108.762 114.478 108.762 114.478 108.862Z" fill="#1A1C1E"/>
<path d="M122.977 136.662H125.577C125.677 136.662 125.677 136.662 125.677 136.562V133.962C125.677 133.862 125.677 133.862 125.577 133.862H122.977C122.877 133.862 122.877 133.862 122.877 133.962V136.562C122.877 136.662 122.877 136.662 122.977 136.662Z" fill="#1A1C1E"/>
<path d="M122.977 125.462H125.577C125.677 125.462 125.677 125.462 125.677 125.362V122.762C125.677 122.662 125.677 122.662 125.577 122.662H122.977C122.877 122.662 122.877 122.662 122.877 122.762V125.362L122.977 125.462Z" fill="#1A1C1E"/>
<path d="M125.778 122.662H128.378C128.478 122.662 128.478 122.662 128.478 122.562V119.962C128.478 119.862 128.478 119.862 128.378 119.862H125.778C125.678 119.862 125.678 119.862 125.678 119.962V122.562L125.778 122.662Z" fill="#1A1C1E"/>
<path d="M125.778 108.762H128.378C128.478 108.762 128.478 108.762 128.478 108.662V106.062C128.478 105.962 128.478 105.962 128.378 105.962H125.778C125.678 105.962 125.678 105.962 125.678 106.062V108.662C125.678 108.662 125.678 108.762 125.778 108.762Z" fill="#1A1C1E"/>
<path d="M128.578 119.862L131.078 119.962C131.178 119.962 131.178 119.962 131.178 119.862V117.262C131.178 117.162 131.178 117.162 131.078 117.162L128.578 117.062C128.478 117.062 128.478 117.062 128.478 117.162V119.762L128.578 119.862Z" fill="#1A1C1E"/>
<path d="M128.578 105.962H131.178C131.278 105.962 131.278 105.962 131.278 105.862V103.262C131.278 103.162 131.278 103.162 131.178 103.162H128.578C128.478 103.162 128.478 103.162 128.478 103.262V105.862C128.478 105.862 128.478 105.962 128.578 105.962Z" fill="#1A1C1E"/>
<path d="M131.277 97.4617H122.977C122.877 97.4617 122.877 97.4617 122.877 97.5617V100.162C122.877 100.262 122.877 100.262 122.977 100.262H131.077C131.177 100.262 131.177 100.262 131.177 100.362V102.962C131.177 103.062 131.177 103.062 131.277 103.062H133.877C133.977 103.062 133.977 103.062 133.977 102.962V97.5617C133.977 97.4617 133.977 97.4617 133.877 97.4617H131.277Z" fill="#1A1C1E"/>
<path d="M131.377 117.062L133.877 117.162C133.977 117.162 133.977 117.162 133.977 117.062V114.462C133.977 114.362 133.977 114.362 133.877 114.362L131.377 114.262C131.277 114.262 131.277 114.262 131.277 114.362V116.962L131.377 117.062Z" fill="#1A1C1E"/>
<path d="M133.977 94.6616H131.377C131.277 94.6616 131.277 94.6616 131.277 94.7616V97.3616C131.277 97.4616 131.277 97.4616 131.377 97.4616H133.977C134.077 97.4616 134.077 97.4616 134.077 97.3616V94.7616C134.077 94.7616 134.077 94.6616 133.977 94.6616Z" fill="#1A1C1E"/>
<path d="M134.177 117.062H136.777C136.877 117.062 136.877 117.062 136.877 116.962V114.362C136.877 114.262 136.877 114.262 136.777 114.262H134.177C134.077 114.262 134.077 114.262 134.077 114.362V116.962C134.077 116.962 134.077 117.062 134.177 117.062Z" fill="#1A1C1E"/>
<path d="M136.877 91.8615L136.777 89.2615C136.777 89.1615 136.777 89.1615 136.677 89.1615L134.177 89.0615C134.077 89.0615 134.077 89.0615 134.077 89.1615V94.5615C134.077 94.6615 134.077 94.6615 134.177 94.6615H136.777C136.877 94.6615 136.877 94.6615 136.877 94.5615V91.8615Z" fill="#1A1C1E"/>
<path d="M136.977 114.262H139.577C139.677 114.262 139.677 114.262 139.677 114.162V111.562C139.677 111.462 139.677 111.462 139.577 111.462H136.977C136.877 111.462 136.877 111.462 136.877 111.562V114.162C136.877 114.162 136.877 114.262 136.977 114.262Z" fill="#1A1C1E"/>
<path d="M139.777 86.3615H142.377C142.477 86.3615 142.477 86.3615 142.477 86.2615V83.6615C142.477 83.5615 142.477 83.5615 142.377 83.5615L139.677 83.6615V83.5615H136.977C136.877 83.5615 136.877 83.5615 136.877 83.6615V91.8615C136.877 91.9615 136.877 91.9615 136.977 91.9615H139.577C139.677 91.9615 139.677 91.9615 139.677 91.8615V86.5615C139.677 86.3615 139.677 86.3615 139.777 86.3615Z" fill="#1A1C1E"/>
<path d="M139.778 111.462H142.378C142.478 111.462 142.478 111.462 142.478 111.362V108.762C142.478 108.662 142.478 108.662 142.378 108.662H139.778C139.678 108.662 139.678 108.662 139.678 108.762V111.362C139.678 111.362 139.678 111.462 139.778 111.462Z" fill="#1A1C1E"/>
<path d="M142.378 80.6616H139.778C139.678 80.6616 139.678 80.6616 139.678 80.7616V83.3616C139.678 83.4616 139.678 83.4616 139.778 83.4616H142.378C142.478 83.4616 142.478 83.4616 142.478 83.3616V80.7616L142.378 80.6616Z" fill="#1A1C1E"/>
<path d="M142.578 108.662H145.178C145.278 108.662 145.278 108.662 145.278 108.562V105.962C145.278 105.862 145.278 105.862 145.178 105.862H142.578C142.478 105.862 142.478 105.862 142.478 105.962V108.562C142.478 108.662 142.478 108.662 142.578 108.662Z" fill="#1A1C1E"/>
<path d="M145.077 91.9617H142.477C142.377 91.9617 142.377 91.9617 142.377 92.0617L142.477 94.6617V97.3617C142.477 97.4617 142.477 97.4617 142.577 97.4617H145.177C145.277 97.4617 145.277 97.4617 145.277 97.3617V94.6617L145.177 92.0617C145.177 91.9617 145.177 91.9617 145.077 91.9617Z" fill="#1A1C1E"/>
<path d="M142.578 91.8617H145.178C145.278 91.8617 145.278 91.8617 145.278 91.7617V89.0617H145.178V86.4617C145.178 86.3617 145.178 86.3617 145.078 86.3617L142.578 86.2617C142.478 86.2617 142.478 86.2617 142.478 86.3617V91.7617C142.478 91.8617 142.478 91.8617 142.578 91.8617Z" fill="#1A1C1E"/>
<path d="M147.977 100.262V97.6617C147.977 97.5617 147.977 97.5617 147.877 97.5617L145.377 97.4617C145.277 97.4617 145.277 97.4617 145.277 97.5617V105.762C145.277 105.862 145.277 105.862 145.377 105.862H147.977C148.077 105.862 148.077 105.862 148.077 105.762L147.977 100.262Z" fill="#1A1C1E"/>
</g>
<defs>
<clipPath id="clip0_2545_38142">
<rect width="177.3" height="191.4" fill="white" transform="translate(0.349609)"/>
</clipPath>
</defs>
</svg>
