<svg width="401" height="401" viewBox="0 0 401 401" fill="none" xmlns="http://www.w3.org/2000/svg">
<g clip-path="url(#clip0_2545_38374)">
<path d="M312.55 248.86L194.698 182.991C192.424 181.691 191.751 178.9 192.996 176.591L242.949 92.7779C244.331 90.5031 247.186 89.7634 249.499 90.9269L367.351 156.796C369.625 158.095 370.299 160.887 369.053 163.196L319.101 247.009C317.767 249.369 314.824 250.159 312.55 248.86Z" fill="#1A1C1E"/>
<path d="M316.921 247.7L199.019 181.745C196.745 180.446 196.072 177.655 197.317 175.346L247.319 91.6177C248.702 89.343 251.557 88.6033 253.869 89.7668L371.683 155.772C373.957 157.071 374.63 159.862 373.385 162.172L323.432 245.985C322.088 248.123 319.145 248.914 316.921 247.7Z" fill="#FAFBFD" stroke="#1A1C1E" stroke-miterlimit="10" stroke-linecap="round" stroke-linejoin="round"/>
<path d="M207.45 173.812L246.606 108.045C247.482 106.517 249.398 105.978 250.976 106.884L357.929 166.666C359.458 167.487 359.953 169.359 358.989 170.938L319.833 236.705C318.957 238.233 317.041 238.771 315.463 237.865L208.51 178.084C207.069 177.212 206.525 175.255 207.45 173.812Z" fill="#1A1C1E" stroke="#1A1C1E" stroke-miterlimit="10" stroke-linecap="round" stroke-linejoin="round"/>
<path d="M252.065 101.258C252.771 102.481 254.367 102.882 255.629 102.153C256.892 101.424 257.342 99.8421 256.636 98.6189C255.93 97.3957 254.334 96.9949 253.072 97.7237C251.809 98.4525 251.359 100.035 252.065 101.258Z" fill="#1A1C1E"/>
<path d="M258.23 104.627C258.936 105.85 260.532 106.251 261.794 105.522C263.057 104.794 263.507 103.211 262.801 101.988C262.095 100.765 260.499 100.364 259.237 101.093C257.974 101.822 257.524 103.404 258.23 104.627Z" fill="#1A1C1E"/>
<path d="M264.307 108.047C265.013 109.27 266.609 109.671 267.871 108.942C269.134 108.214 269.585 106.631 268.878 105.408C268.172 104.185 266.576 103.784 265.314 104.513C264.052 105.242 263.601 106.824 264.307 108.047Z" fill="#1A1C1E"/>
<path d="M52.0134 242.424L83.4047 273.816H212.046H264.877V395.4C264.877 397.391 266.505 399.019 268.496 399.019H292.65C294.64 399.019 296.268 397.391 296.268 395.4V169.058C296.268 160.282 289.122 153.226 280.437 153.226H230.772C230.772 153.226 219.464 156.031 197.39 109.351C197.028 108.718 196.757 107.994 196.395 107.27C196.033 106.456 195.671 105.642 195.219 104.918C174.322 63.4851 128.275 56.6098 112.444 55.4338C111.901 55.4338 111.449 55.3433 110.996 55.3433C110.906 55.3433 110.906 55.3433 110.815 55.3433C110.273 55.3433 109.82 55.2529 109.459 55.2529C107.921 55.1624 107.016 55.1624 107.016 55.1624C107.016 55.1624 1.26264 45.6636 1.26264 137.304C1.26264 137.304 -6.87918 176.928 40.7053 176.928H51.8325L52.0134 242.424ZM40.7053 164.534C40.7053 164.534 25.5072 159.921 25.5072 147.256C25.5072 134.59 31.4779 121.835 31.4779 121.835C31.4779 121.835 45.4999 136.4 50.385 164.534H40.7053ZM264.967 242.424H159.395C159.395 242.424 159.395 196.559 159.395 166.977C159.395 137.395 172.603 122.559 172.603 122.559C172.603 122.559 185.268 142.642 196.395 155.307C207.522 167.972 230.772 165.71 230.772 165.71H257.007C261.349 165.71 264.967 169.238 264.967 173.671V242.424Z" fill="#E2E7EE"/>
<path d="M51.832 177.019L52.013 242.425" stroke="#1A1C1E" stroke-miterlimit="10" stroke-linecap="round" stroke-linejoin="round"/>
<path d="M296.359 242.424V169.058C296.359 160.282 289.212 153.226 280.527 153.226H230.862C230.862 153.226 218.559 154.312 196.486 107.361C171.517 54.5291 107.016 55.1624 107.016 55.1624C107.016 55.1624 1.26264 45.6636 1.26264 137.304C1.26264 137.304 -6.87918 176.928 40.7053 176.928H51.8324" stroke="#1A1C1E" stroke-miterlimit="10" stroke-linecap="round" stroke-linejoin="round"/>
<path d="M141.212 242.424H159.395C159.395 242.424 159.395 196.559 159.395 166.977C159.395 137.395 172.603 122.559 172.603 122.559C172.603 122.559 185.268 142.642 196.395 155.307C207.523 167.972 230.772 165.71 230.772 165.71H257.007C261.349 165.71 264.968 169.238 264.968 173.671V242.424" stroke="#1A1C1E" stroke-miterlimit="10" stroke-linecap="round" stroke-linejoin="round"/>
<path d="M50.3847 164.534H40.7049C40.7049 164.534 25.5068 159.921 25.5068 147.256C25.5068 134.59 31.4775 121.835 31.4775 121.835C31.4775 121.835 45.4996 136.4 50.3847 164.534Z" stroke="#1A1C1E" stroke-miterlimit="10" stroke-linecap="round" stroke-linejoin="round"/>
<path d="M264.968 242.424H141.212" stroke="#1A1C1E" stroke-miterlimit="10" stroke-linecap="round" stroke-linejoin="round"/>
<path d="M140.85 273.816H180.654H212.045H264.967V395.4C264.967 397.39 266.596 399.019 268.586 399.019H292.74C294.73 399.019 296.359 397.39 296.359 395.4V242.424" stroke="#1A1C1E" stroke-miterlimit="10" stroke-linecap="round" stroke-linejoin="round"/>
<path d="M184.273 389.973H208.427C210.417 389.973 212.046 388.344 212.046 386.354V273.816H180.654V386.354C180.654 388.344 182.283 389.973 184.273 389.973Z" fill="#E2E7EE" stroke="#1A1C1E" stroke-miterlimit="10" stroke-linecap="round" stroke-linejoin="round"/>
<path d="M83.405 273.816V386.354C83.405 388.344 81.7766 389.973 79.7864 389.973H55.6323C53.642 389.973 52.0137 388.344 52.0137 386.354V273.816H83.405Z" fill="#E2E7EE" stroke="#1A1C1E" stroke-miterlimit="10" stroke-linecap="round" stroke-linejoin="round"/>
<path d="M109.187 242.424H51.832V273.816H109.187V242.424Z" fill="#E2E7EE" stroke="#1A1C1E" stroke-miterlimit="10" stroke-linecap="round" stroke-linejoin="round"/>
<path d="M140.217 174.757C140.217 167.972 140.217 159.83 140.217 153.769C140.217 114.598 157.677 94.9668 157.677 94.9668" stroke="#1A1C1E" stroke-miterlimit="10" stroke-linecap="round" stroke-linejoin="round"/>
<path d="M86.9324 164.263C86.9324 157.478 86.9324 159.83 86.9324 153.769C86.9324 114.598 69.4727 94.9668 69.4727 94.9668" stroke="#1A1C1E" stroke-miterlimit="10" stroke-linecap="round" stroke-linejoin="round"/>
<path d="M86.9326 219.899C86.9326 219.899 86.9326 208.41 86.9326 177.019" stroke="#1A1C1E" stroke-miterlimit="10" stroke-linecap="round" stroke-linejoin="round"/>
<path d="M113.529 164.263V84.5635" stroke="#1A1C1E" stroke-miterlimit="10" stroke-linecap="round" stroke-linejoin="round"/>
<path d="M225.115 242.346L203.71 31.0229C202.032 14.1297 187.761 1.32861 170.763 1.32861C153.765 1.32861 139.6 14.1297 137.816 31.0229L116.411 242.346C116.516 242.451 225.115 242.451 225.115 242.346Z" fill="#2980FA" stroke="#1A1C1E" stroke-miterlimit="10" stroke-linecap="round" stroke-linejoin="round"/>
<path d="M170.868 152.109C187.558 152.109 201.087 138.579 201.087 121.89C201.087 105.2 187.558 91.6707 170.868 91.6707C154.179 91.6707 140.649 105.2 140.649 121.89C140.649 138.579 154.179 152.109 170.868 152.109Z" fill="#69A6FC"/>
<path d="M187.239 144.133V141.261H180.753V138.388H174.174V135.423H167.41V138.388H160.924V141.261H154.345V144.133H144.895V138.296H147.767V131.81H150.639V128.937H153.512V121.618H150.639V118.745H147.767V116.614H150.639V113.742H161.665V110.777H164.352V104.476H167.039V98.0828H169.726V95.3958H171.858V98.0828H174.545V104.476H177.232V110.777H180.011V113.742H190.945V116.614H193.817V118.745H190.945V121.618H188.072V128.937H190.945V131.81H193.817V138.296H196.689V144.133H187.239Z" fill="#FAFBFD"/>
<path d="M194.558 137.184V131.346C194.558 131.161 194.372 130.976 194.187 130.976H191.963C191.778 130.976 191.593 130.79 191.593 130.605V128.381C191.593 128.196 191.407 128.011 191.222 128.011H188.998C188.813 128.011 188.628 127.825 188.628 127.64V122.544C188.628 122.359 188.813 122.173 188.998 122.173H191.222C191.407 122.173 191.593 121.988 191.593 121.803V119.579C191.593 119.394 191.778 119.208 191.963 119.208H194.187C194.372 119.208 194.558 119.023 194.558 118.838V115.873C194.558 115.687 194.372 115.502 194.187 115.502H191.963C191.778 115.502 191.593 115.317 191.593 115.132V112.908C191.593 112.722 191.407 112.537 191.222 112.537H180.937C180.752 112.537 180.567 112.352 180.567 112.167V109.943C180.567 109.757 180.381 109.572 180.196 109.572H178.158C177.972 109.572 177.787 109.387 177.787 109.202V103.549C177.787 103.364 177.602 103.179 177.416 103.179H175.378C175.193 103.179 175.007 102.994 175.007 102.808V97.1562C175.007 96.9709 174.822 96.7856 174.637 96.7856H172.598C172.413 96.7856 172.228 96.6002 172.228 96.4149V94.3765C172.228 94.1912 172.042 94.0059 171.857 94.0059H168.892C168.707 94.0059 168.521 94.1912 168.521 94.3765V96.4149C168.521 96.6002 168.336 96.7856 168.151 96.7856H166.576C166.39 96.7856 166.205 96.9709 166.205 97.1562V102.808C166.205 102.994 166.02 103.179 165.834 103.179H163.796C163.611 103.179 163.425 103.364 163.425 103.549V109.202C163.425 109.387 163.24 109.572 163.055 109.572H161.016C160.831 109.572 160.646 109.757 160.646 109.943V112.167C160.646 112.352 160.46 112.537 160.275 112.537H149.99C149.805 112.537 149.619 112.722 149.619 112.908V115.132C149.619 115.317 149.434 115.502 149.249 115.502H147.025C146.84 115.502 146.654 115.687 146.654 115.873V118.838C146.654 119.023 146.84 119.208 147.025 119.208H149.249C149.434 119.208 149.619 119.394 149.619 119.579V121.803C149.619 121.988 149.805 122.173 149.99 122.173H152.214C152.399 122.173 152.584 122.359 152.584 122.544V127.64C152.584 127.825 152.399 128.011 152.214 128.011H149.99C149.805 128.011 149.619 128.196 149.619 128.381V130.605C149.619 130.79 149.434 130.976 149.249 130.976H147.025C146.84 130.976 146.654 131.161 146.654 131.346V137.184C146.654 137.369 146.469 137.554 146.284 137.554H144.06C143.875 137.554 143.689 137.74 143.689 137.925V144.596C143.689 144.782 143.875 144.967 144.06 144.967H154.345C154.53 144.967 154.716 144.782 154.716 144.596V142.373C154.716 142.187 154.901 142.002 155.086 142.002H160.924C161.109 142.002 161.294 141.817 161.294 141.631V139.408C161.294 139.222 161.479 139.037 161.665 139.037H167.502C167.687 139.037 167.873 138.852 167.873 138.666V136.442C167.873 136.257 168.058 136.072 168.243 136.072H172.784C172.969 136.072 173.154 136.257 173.154 136.442V138.666C173.154 138.852 173.339 139.037 173.525 139.037H179.362C179.547 139.037 179.733 139.222 179.733 139.408V141.631C179.733 141.817 179.918 142.002 180.103 142.002H185.941C186.126 142.002 186.311 142.187 186.311 142.373V144.596C186.311 144.782 186.497 144.967 186.682 144.967H197.152C197.337 144.967 197.523 144.782 197.523 144.596V137.925C197.523 137.74 197.337 137.554 197.152 137.554H194.928C194.743 137.554 194.558 137.369 194.558 137.184ZM187.238 140.89V138.666C187.238 138.481 187.053 138.296 186.867 138.296H181.03C180.845 138.296 180.659 138.11 180.659 137.925V135.701C180.659 135.516 180.474 135.331 180.289 135.331H174.173C173.988 135.331 173.803 135.145 173.803 134.96V132.736C173.803 132.551 173.617 132.366 173.432 132.366H167.595C167.409 132.366 167.224 132.551 167.224 132.736V134.96C167.224 135.145 167.039 135.331 166.854 135.331H161.016C160.831 135.331 160.646 135.516 160.646 135.701V137.925C160.646 138.11 160.46 138.296 160.275 138.296H154.438C154.252 138.296 154.067 138.481 154.067 138.666V140.89C154.067 141.075 153.882 141.261 153.696 141.261H147.859C147.674 141.261 147.488 141.075 147.488 140.89V138.666C147.488 138.481 147.674 138.296 147.859 138.296H150.083C150.268 138.296 150.453 138.11 150.453 137.925V132.088C150.453 131.902 150.639 131.717 150.824 131.717H153.048C153.233 131.717 153.418 131.532 153.418 131.346V129.123C153.418 128.937 153.604 128.752 153.789 128.752H156.013C156.198 128.752 156.383 128.567 156.383 128.381V121.71C156.383 121.525 156.198 121.339 156.013 121.339H153.789C153.604 121.339 153.418 121.154 153.418 120.969V118.745C153.418 118.56 153.233 118.374 153.048 118.374H150.824C150.639 118.374 150.453 118.189 150.453 118.004V116.614C150.453 116.429 150.639 116.243 150.824 116.243H161.109C161.294 116.243 161.479 116.058 161.479 115.873V113.649C161.479 113.464 161.665 113.278 161.85 113.278H164.074C164.259 113.278 164.444 113.093 164.444 112.908V110.869C164.444 110.684 164.63 110.499 164.815 110.499H166.854C167.039 110.499 167.224 110.313 167.224 110.128V104.476C167.224 104.291 167.409 104.105 167.595 104.105H169.633C169.819 104.105 170.004 103.92 170.004 103.735V98.0827C170.004 97.8974 170.189 97.7121 170.374 97.7121H171.394C171.579 97.7121 171.764 97.8974 171.764 98.0827V103.735C171.764 103.92 171.95 104.105 172.135 104.105H174.173C174.359 104.105 174.544 104.291 174.544 104.476V110.128C174.544 110.313 174.729 110.499 174.915 110.499H176.953C177.138 110.499 177.324 110.684 177.324 110.869V112.908C177.324 113.093 177.509 113.278 177.694 113.278H179.918C180.103 113.278 180.289 113.464 180.289 113.649V115.873C180.289 116.058 180.474 116.243 180.659 116.243H190.944C191.13 116.243 191.315 116.429 191.315 116.614V118.004C191.315 118.189 191.13 118.374 190.944 118.374H188.72C188.535 118.374 188.35 118.56 188.35 118.745V120.969C188.35 121.154 188.165 121.339 187.979 121.339H185.755C185.57 121.339 185.385 121.525 185.385 121.71V128.381C185.385 128.567 185.57 128.752 185.755 128.752H187.979C188.165 128.752 188.35 128.937 188.35 129.123V131.346C188.35 131.532 188.535 131.717 188.72 131.717H190.944C191.13 131.717 191.315 131.902 191.315 132.088V137.925C191.315 138.11 191.5 138.296 191.685 138.296H193.909C194.095 138.296 194.28 138.481 194.28 138.666V140.89C194.28 141.075 194.095 141.261 193.909 141.261H188.072C187.423 141.261 187.238 141.075 187.238 140.89Z" fill="#2980FA"/>
<path d="M51.8322 177.019H102.583C106.202 177.019 109.096 179.913 109.096 183.532V395.31C109.096 397.3 110.725 398.929 112.715 398.929H137.231C139.221 398.929 140.85 397.3 140.85 395.31V180.456C140.85 171.591 133.612 164.354 124.747 164.354L50.3848 164.534" fill="#E2E7EE"/>
<path d="M51.8322 177.019H102.583C106.202 177.019 109.096 179.913 109.096 183.532V395.31C109.096 397.3 110.725 398.929 112.715 398.929H137.231C139.221 398.929 140.85 397.3 140.85 395.31V180.456C140.85 171.591 133.612 164.354 124.747 164.354L50.3848 164.534" stroke="#1A1C1E" stroke-miterlimit="10" stroke-linecap="round" stroke-linejoin="round"/>
<path d="M382.156 297.726L285.603 355.28C283.719 356.379 281.426 355.703 280.28 353.843L240.643 282.936C239.578 280.992 240.233 278.626 242.035 277.442L338.589 219.888C340.472 218.789 342.765 219.465 343.912 221.325L383.549 292.232C384.695 294.176 384.04 296.627 382.156 297.726Z" fill="#1A1C1E"/>
<path d="M383.139 294.092L286.503 351.646C284.62 352.745 282.327 352.069 281.18 350.209L241.625 279.302C240.56 277.358 241.216 274.992 243.017 273.808L339.653 216.338C341.536 215.24 343.829 215.916 344.976 217.775L384.613 288.683C385.596 290.542 384.941 292.993 383.139 294.092Z" fill="#FAFBFD" stroke="#1A1C1E" stroke-miterlimit="10" stroke-linecap="round" stroke-linejoin="round"/>
<path d="M284.292 342.265L253.173 286.654C252.436 285.387 252.845 283.781 254.155 283.02L341.782 230.79C343.011 230.03 344.567 230.452 345.304 231.805L376.424 287.415C377.161 288.683 376.751 290.289 375.441 291.049L287.814 343.279C286.586 343.955 284.948 343.533 284.292 342.265Z" fill="#E2E7EE" stroke="#1A1C1E" stroke-miterlimit="10" stroke-linecap="round" stroke-linejoin="round"/>
<path d="M250.552 279.893C251.728 279.893 252.681 278.909 252.681 277.696C252.681 276.482 251.728 275.499 250.552 275.499C249.376 275.499 248.423 276.482 248.423 277.696C248.423 278.909 249.376 279.893 250.552 279.893Z" fill="#1A1C1E"/>
<path d="M255.546 276.851C256.722 276.851 257.676 275.867 257.676 274.653C257.676 273.44 256.722 272.456 255.546 272.456C254.37 272.456 253.417 273.44 253.417 274.653C253.417 275.867 254.37 276.851 255.546 276.851Z" fill="#1A1C1E"/>
<path d="M260.542 273.893C261.718 273.893 262.672 272.909 262.672 271.695C262.672 270.482 261.718 269.498 260.542 269.498C259.366 269.498 258.413 270.482 258.413 271.695C258.413 272.909 259.366 273.893 260.542 273.893Z" fill="#1A1C1E"/>
<path d="M244.014 377.85C243.652 377.85 243.561 377.85 243.29 377.85H242.747H241.843C241.209 377.85 240.666 377.85 240.124 377.76C238.948 377.669 237.862 377.579 236.776 377.489C234.605 377.217 232.434 376.855 230.263 376.403C225.921 375.408 221.669 373.87 217.507 371.699C213.437 369.437 209.547 366.542 206.38 362.833C203.305 359.215 200.952 354.963 199.595 350.711C198.148 346.459 197.605 342.207 197.424 338.136C197.424 335.061 197.153 332.075 196.52 329.271C195.886 326.557 194.982 324.024 193.534 322.215C192.177 320.315 190.278 319.139 187.835 318.686L188.016 310.092C190.278 310.002 192.63 310.273 194.891 310.997C197.153 311.721 199.234 312.987 201.043 314.435C204.752 317.42 207.014 321.219 208.823 324.928C210.542 328.728 211.718 332.527 212.532 336.327C213.256 339.131 214.251 341.755 215.608 343.836C218.231 348.087 221.85 350.44 226.283 351.616C228.544 352.158 230.987 352.43 233.52 352.43C234.786 352.43 236.053 352.339 237.319 352.158C237.953 352.068 238.586 351.977 239.129 351.887C239.4 351.797 239.671 351.796 239.943 351.706C240.033 351.706 240.214 351.616 240.305 351.616C240.395 351.616 240.395 351.616 240.486 351.525C240.486 351.525 240.576 351.525 240.395 351.525L244.014 377.85Z" fill="#FAFBFD" stroke="#1A1C1E" stroke-miterlimit="10" stroke-linecap="round" stroke-linejoin="round"/>
<path d="M346.058 384.183C341.535 384.183 336.469 383.278 331.041 381.469L334.931 370.885C339.092 372.241 342.801 372.875 345.968 372.875C349.858 372.875 353.114 371.88 355.647 369.889C362.975 364.1 365.87 348.721 363.427 327.642C362.432 319.048 359.628 313.258 355.738 312.173C355.285 312.082 354.743 311.992 354.29 311.992C351.124 311.992 347.234 314.434 343.887 318.596C339.273 324.386 332.669 328.728 329.232 330.809L323.985 320.767C326.789 319.048 331.855 315.611 335.112 311.54C340.721 304.574 347.505 300.684 354.29 300.684C355.919 300.684 357.457 300.865 358.994 301.317C363.97 302.765 372.655 307.921 374.735 326.376C376.816 344.378 376.364 368.08 362.704 378.845C357.999 382.374 352.481 384.183 346.058 384.183Z" fill="#FAFBFD" stroke="#1A1C1E" stroke-miterlimit="10" stroke-linecap="round" stroke-linejoin="round"/>
<path d="M312.315 399.471H265.816C264.278 399.471 263.011 398.205 263.011 396.667V389.52H315.119V396.667C315.119 398.205 313.853 399.471 312.315 399.471Z" fill="#1A1C1E" stroke="#1A1C1E" stroke-miterlimit="10" stroke-linecap="round" stroke-linejoin="round"/>
<path d="M335.021 331.08C332.759 329.09 330.588 326.919 328.779 324.657C324.527 319.41 323.441 312.263 325.703 305.931C326.155 304.755 325.251 303.488 323.984 303.488H254.236C252.969 303.488 252.065 304.755 252.517 305.931C254.779 312.263 253.603 319.41 249.441 324.657C247.632 326.919 245.461 329.09 243.199 331.08C222.483 349.535 232.072 383.821 259.302 389.249C274.681 392.325 303.63 392.325 319.009 389.249C346.148 383.821 355.737 349.535 335.021 331.08Z" fill="#FAFBFD" stroke="#1A1C1E" stroke-miterlimit="10" stroke-linecap="round" stroke-linejoin="round"/>
<path d="M282.732 276.982C282.732 276.982 281.466 275.716 281.466 274.811C281.466 273.273 283.004 272.006 284.813 272.006H286.26V270.378C286.26 268.659 287.255 267.302 289.065 266.579C289.336 266.488 289.607 266.488 289.879 266.579C291.688 267.302 292.683 268.659 292.683 270.378V272.006H294.221C296.03 272.006 297.568 273.273 297.568 274.811C297.568 275.716 296.302 276.982 296.302 276.982H282.732Z" fill="#2980FA" stroke="#1A1C1E" stroke-miterlimit="10" stroke-linecap="round" stroke-linejoin="round"/>
<path d="M323.17 301.408C321.723 301.408 320.366 301.136 319.1 300.412C313.672 297.427 306.887 288.833 302.454 282.591C299.288 278.249 294.403 275.716 289.246 275.716H288.975C283.818 275.716 278.933 278.249 275.767 282.591C271.334 288.833 264.459 297.427 259.121 300.412C257.855 301.136 256.498 301.408 255.05 301.408C252.427 301.408 250.075 303.488 249.804 306.202C249.532 309.368 251.884 312.082 254.87 312.082H323.532C326.699 312.082 329.141 309.097 328.508 305.659C327.875 303.217 325.613 301.408 323.17 301.408Z" fill="#FAFBFD" stroke="#1A1C1E" stroke-miterlimit="10" stroke-linecap="round" stroke-linejoin="round"/>
</g>
<defs>
<clipPath id="clip0_2545_38374">
<rect width="400.24" height="400" fill="white" transform="translate(0 0.399902)"/>
</clipPath>
</defs>
</svg>
