<svg width="148" height="190" viewBox="0 0 148 190" fill="none" xmlns="http://www.w3.org/2000/svg">
<g clip-path="url(#clip0_2545_38089)">
<path d="M1.59277 185.521V4.47878C1.59277 2.78679 2.88664 1.49292 4.57863 1.49292H143.421C145.113 1.49292 146.407 2.78679 146.407 4.47878V185.521C146.407 187.213 145.113 188.507 143.421 188.507H4.57863C2.88664 188.507 1.59277 187.213 1.59277 185.521Z" fill="#E2E7EE" stroke="#1A1C1E" stroke-width="3" stroke-miterlimit="10"/>
<path d="M139.938 7.96216H8.0625V182.038H139.938V7.96216Z" fill="#1A1C1E"/>
<path d="M138.445 9.4551V180.545H9.55519V9.4551H138.445ZM141.431 6.46924H138.445H9.55519H6.56934V9.4551V180.545V183.531H9.55519H138.445H141.431V180.545V9.4551V6.46924Z" fill="#C3CAD4"/>
<path d="M73.9502 179.052C46.4803 179.052 23.0911 160.44 16.6217 154.767C16.3232 154.468 16.2236 154.17 16.2236 153.871C16.2236 153.573 16.4227 153.274 16.6217 152.975C23.0911 147.302 46.4803 128.69 73.9502 128.69C101.42 128.69 124.809 147.302 131.279 152.975C131.577 153.274 131.677 153.573 131.677 153.871C131.677 154.17 131.478 154.468 131.279 154.767C124.809 160.44 101.42 179.052 73.9502 179.052Z" fill="#FAFBFD"/>
<path d="M73.6517 170.99C84.7003 170.99 93.657 162.033 93.657 150.985C93.657 139.936 84.7003 130.979 73.6517 130.979C62.6031 130.979 53.6465 139.936 53.6465 150.985C53.6465 162.033 62.6031 170.99 73.6517 170.99Z" fill="#1A1C1E"/>
<path d="M73.9502 61.4092C46.4803 61.4092 23.0911 42.7974 16.6217 37.1243C16.3232 36.8257 16.2236 36.5271 16.2236 36.2285C16.2236 35.9299 16.4227 35.6313 16.6217 35.3327C23.1906 29.5601 46.5798 10.9482 73.9502 10.9482C101.321 10.9482 124.809 29.5601 131.279 35.2332C131.577 35.5318 131.677 35.8304 131.677 36.129C131.677 36.4276 131.478 36.7261 131.279 37.0247C124.809 42.7974 101.42 61.4092 73.9502 61.4092Z" fill="#FAFBFD"/>
<path d="M73.6517 54.2431C84.7003 54.2431 93.657 45.2865 93.657 34.2379C93.657 23.1893 84.7003 14.2327 73.6517 14.2327C62.6031 14.2327 53.6465 23.1893 53.6465 34.2379C53.6465 45.2865 62.6031 54.2431 73.6517 54.2431Z" fill="#1A1C1E"/>
<path d="M62.9021 121.624C43.0959 121.624 25.4794 114.06 18.8109 110.775C18.5124 110.576 18.2138 110.377 18.1142 110.079C18.0147 109.78 18.1142 109.382 18.3133 109.083C23.1902 101.818 40.9063 77.7317 67.4804 70.6652C72.9545 69.1723 78.9262 68.4756 85.097 68.4756C104.903 68.4756 122.52 76.0397 129.188 79.3242C129.487 79.5232 129.785 79.7223 129.885 80.0209C129.984 80.3195 129.885 80.7176 129.686 81.0162C124.908 88.1822 107.093 112.268 80.5186 119.335C75.0446 120.828 69.0729 121.624 62.9021 121.624Z" fill="#FAFBFD"/>
<path d="M73.6507 115.155C84.6993 115.155 93.656 106.198 93.656 95.1493C93.656 84.1007 84.6993 75.144 73.6507 75.144C62.6022 75.144 53.6455 84.1007 53.6455 95.1493C53.6455 106.198 62.6022 115.155 73.6507 115.155Z" fill="#1A1C1E"/>
<path d="M52.1533 20.2043V26.6737V33.1431" stroke="#C3CAD4" stroke-width="3" stroke-miterlimit="10"/>
<path d="M95.4482 20.2043V26.6737V33.1431" stroke="#C3CAD4" stroke-width="3" stroke-miterlimit="10"/>
<path d="M52.1533 157.355V163.824V170.293" stroke="#C3CAD4" stroke-width="3" stroke-miterlimit="10"/>
<path d="M95.4482 157.355V163.824V170.293" stroke="#C3CAD4" stroke-width="3" stroke-miterlimit="10"/>
<path d="M20.3037 52.0535H26.7731H33.2424" stroke="#C3CAD4" stroke-width="3" stroke-miterlimit="10"/>
<path d="M20.3037 139.24H26.7731H33.2424" stroke="#C3CAD4" stroke-width="3" stroke-miterlimit="10"/>
<path d="M114.458 52.0535H120.927H127.397" stroke="#C3CAD4" stroke-width="3" stroke-miterlimit="10"/>
<path d="M114.458 139.24H120.927H127.397" stroke="#C3CAD4" stroke-width="3" stroke-miterlimit="10"/>
<path d="M67.3809 95.647H73.8502H80.3196" stroke="#C3CAD4" stroke-width="3" stroke-miterlimit="10"/>
<path d="M43.892 48.172C48.0722 48.172 51.3566 52.2527 49.8637 56.7314C49.0675 59.3192 46.5793 60.9116 43.892 60.9116C36.8255 60.9116 31.1523 55.2385 31.1523 48.172C31.1523 37.622 39.7118 29.0625 50.2618 29.0625C67.8784 29.0625 71.2623 42.4989 71.2623 52.1531C71.2623 52.1531 71.2624 57.2291 68.0774 59.9164C65.0916 62.4046 57.5274 68.6749 53.6458 71.9593C50.9585 74.2485 49.3661 77.732 49.7642 81.315C49.9632 83.4051 50.859 85.7938 53.0486 87.8839C54.8401 89.6754 57.2288 90.0735 59.518 89.7749C66.2859 88.8792 71.2623 82.7084 71.2623 75.8409V71.9593V95.6471" stroke="#C3CAD4" stroke-width="3" stroke-miterlimit="10"/>
<path d="M67.3809 52.0537H73.8502H80.3196" stroke="#C3CAD4" stroke-width="3" stroke-miterlimit="10"/>
<path d="M103.808 48.172C99.6277 48.172 96.3432 52.2527 97.8361 56.7314C98.6324 59.3192 101.121 60.9116 103.808 60.9116C110.874 60.9116 116.548 55.2385 116.548 48.172C116.548 37.622 107.988 29.0625 97.438 29.0625C79.8215 29.0625 76.4375 42.4989 76.4375 52.1531C76.4375 52.1531 76.4375 57.2291 79.6224 59.9164C82.6083 62.4046 90.1724 68.6749 94.0541 71.9593C96.7413 74.2485 98.3338 77.732 97.9357 81.315C97.7366 83.4051 96.8409 85.7938 94.6512 87.8839C92.8597 89.6754 90.471 90.0735 88.1819 89.7749C81.4139 88.8792 76.4375 82.7084 76.4375 75.8409V71.9593V95.6471" stroke="#C3CAD4" stroke-width="3" stroke-miterlimit="10"/>
<path d="M43.892 143.122C48.0722 143.122 51.3566 139.041 49.8637 134.563C49.0675 131.975 46.5793 130.382 43.892 130.382C36.8255 130.382 31.1523 136.056 31.1523 143.122C31.1523 153.672 39.7118 162.232 50.2618 162.232C67.8784 162.232 71.2623 148.795 71.2623 139.141C71.2623 139.141 71.2624 134.065 68.0774 131.378C65.0916 128.89 57.5274 122.619 53.6458 119.335C50.9585 117.046 49.3661 113.562 49.7642 109.979C49.9632 107.889 50.859 105.5 53.0486 103.41C54.8401 101.619 57.2288 101.221 59.518 101.519C66.2859 102.415 71.2623 108.586 71.2623 115.453V119.335V95.647" stroke="#C3CAD4" stroke-width="3" stroke-miterlimit="10"/>
<path d="M67.3809 139.24H73.8502H80.3196" stroke="#C3CAD4" stroke-width="3" stroke-miterlimit="10"/>
<path d="M103.808 143.122C99.6277 143.122 96.3432 139.041 97.8361 134.563C98.6324 131.975 101.121 130.382 103.808 130.382C110.874 130.382 116.548 136.056 116.548 143.122C116.548 153.672 107.988 162.232 97.438 162.232C79.8215 162.232 76.4375 148.795 76.4375 139.141C76.4375 139.141 76.4375 134.065 79.6224 131.378C82.6083 128.89 90.1724 122.619 94.0541 119.335C96.7413 117.046 98.3338 113.562 97.9357 109.979C97.7366 107.889 96.8409 105.5 94.6512 103.41C92.8597 101.619 90.471 101.221 88.1819 101.519C81.4139 102.415 76.4375 108.586 76.4375 115.453V119.335V95.647" stroke="#C3CAD4" stroke-width="3" stroke-miterlimit="10"/>
<path d="M26.7734 9.45532V180.545" stroke="#C3CAD4" stroke-width="3" stroke-miterlimit="10"/>
<path d="M120.927 9.45532V180.545" stroke="#C3CAD4" stroke-width="3" stroke-miterlimit="10"/>
<path d="M138.146 26.6738H9.55469" stroke="#C3CAD4" stroke-width="3" stroke-miterlimit="10"/>
<path d="M138.146 163.824H9.55469" stroke="#C3CAD4" stroke-width="3" stroke-miterlimit="10"/>
</g>
<defs>
<clipPath id="clip0_2545_38089">
<rect width="147.8" height="190" fill="white" transform="translate(0.0996094)"/>
</clipPath>
</defs>
</svg>
