<svg width="104" height="105" viewBox="0 0 104 105" fill="none" xmlns="http://www.w3.org/2000/svg">
<path d="M30.1699 97.2144C18.0465 97.2144 9.90479 89.4194 9.90479 77.8209C9.90479 66.2224 17.888 58.3481 29.7737 58.3481C40.3817 58.3481 48.6918 65.8559 48.6918 75.4437V75.8399C48.6918 78.6232 46.8595 80.4159 44.0366 80.4159H18.0069L18.1158 81.0003C19.1955 86.8243 23.8111 90.4395 30.1699 90.4395C34.0427 90.4395 37.5292 88.9637 39.7379 86.3885C40.5699 85.4079 41.4614 84.9721 42.6103 84.9721C44.8488 84.9721 46.2355 86.3291 46.2355 88.518C46.2355 89.3599 45.9581 90.1127 45.3935 90.8258C41.9764 94.9462 36.5684 97.2144 30.1699 97.2144ZM29.7737 65.1131C23.9299 65.1131 19.3539 68.5302 18.1158 73.8194L17.9772 74.4235H41.3425L41.2038 73.8194C39.9459 68.451 35.568 65.1131 29.7836 65.1131H29.7737Z" fill="black"/>
<path d="M73.8102 97.2144C67.4118 97.2144 62.0038 94.9462 58.5767 90.8159C58.0122 90.1127 57.7447 89.3599 57.7447 88.518C57.7447 86.3291 59.1314 84.9721 61.3699 84.9721C62.5188 84.9721 63.4103 85.4079 64.2423 86.3885C66.451 88.9637 69.9375 90.4395 73.8102 90.4395C80.1691 90.4395 84.7847 86.8243 85.8643 81.0003L85.9733 80.4159H59.9337C57.1009 80.4159 55.2784 78.6232 55.2784 75.8399V75.4437C55.2784 65.8559 63.5885 58.3481 74.1965 58.3481C86.0823 58.3481 94.0655 66.1729 94.0655 77.8209C94.0655 89.4689 85.9238 97.2144 73.8003 97.2144H73.8102ZM74.2064 65.1131C68.4221 65.1131 64.0442 68.451 62.7863 73.8194L62.6476 74.4235H86.0129L85.8742 73.8194C84.6362 68.5302 80.0602 65.1131 74.2163 65.1131H74.2064Z" fill="black"/>
<path d="M38.1333 51.1672C37.7074 51.1672 37.2914 51.0582 36.9051 50.8403C36.1127 50.3847 35.6274 49.5428 35.6571 48.6315L35.7363 45.2243H27.0697C22.4243 45.2243 18.6506 41.4506 18.6506 36.8052V21.6609C18.6506 17.0155 22.4243 13.2418 27.0697 13.2418H69.5413C74.1866 13.2418 77.9603 17.0155 77.9603 21.6609V36.8052C77.9603 41.4506 74.1866 45.2243 69.5413 45.2243H48.2659L39.4506 50.7908C39.0445 51.0384 38.5889 51.1672 38.1333 51.1672Z" fill="#006BFF"/>
<path d="M64.1432 45.2243C63.6876 45.2243 63.232 45.0956 62.8358 44.8479L54.0007 39.2716H30.7444C27.1985 39.2716 24.3063 36.3794 24.3063 32.8335V17.6792C24.3063 14.1333 27.1985 11.2411 30.7444 11.2411H77.1779C80.7238 11.2411 83.616 14.1333 83.616 17.6792V32.8335C83.616 36.3794 80.7238 39.2716 77.1779 39.2716H66.5303L66.6095 42.6788C66.6293 43.3523 66.3817 43.9862 65.9063 44.4617C65.4408 44.9371 64.787 45.2144 64.1234 45.2144L64.1432 45.2243Z" fill="white"/>
<path d="M77.1878 12.7367C79.9215 12.7367 82.1402 14.9554 82.1402 17.6891V32.8434C82.1402 35.5771 79.9215 37.7957 77.1878 37.7957H65.0148L65.1337 42.7283C65.1436 43.3127 64.6682 43.7386 64.1432 43.7386C63.9649 43.7386 63.7866 43.6891 63.6183 43.59L54.4365 37.7957H30.7543C28.0205 37.7957 25.8019 35.5771 25.8019 32.8434V17.6891C25.8019 14.9554 28.0205 12.7367 30.7543 12.7367H77.1878ZM77.1878 9.76526H30.7543C26.3863 9.76526 22.8304 13.3211 22.8304 17.6891V32.8434C22.8304 37.2114 26.3863 40.7672 30.7543 40.7672H53.5748L62.0335 46.1058C62.6872 46.5119 63.4103 46.7199 64.1432 46.7199C65.203 46.7199 66.243 46.2841 66.9859 45.5214C67.7386 44.7489 68.1348 43.7386 68.1051 42.659L68.0556 40.7771H77.1878C81.5558 40.7771 85.1116 37.2213 85.1116 32.8533V17.699C85.1116 13.331 81.5558 9.77516 77.1878 9.77516V9.76526Z" fill="black"/>
<path d="M40.3619 29.6144C37.955 29.6144 36.0137 27.6632 36.0137 25.2662C36.0137 22.8693 37.955 20.918 40.3619 20.918C42.7687 20.918 44.7101 22.8594 44.7101 25.2662C44.7101 27.6731 42.7687 29.6144 40.3619 29.6144Z" fill="black"/>
<path d="M54.0107 29.6144C51.6137 29.6144 49.6625 27.6632 49.6625 25.2662C49.6625 22.8693 51.6038 20.918 54.0107 20.918C56.4175 20.918 58.3589 22.8594 58.3589 25.2662C58.3589 27.6731 56.4076 29.6144 54.0107 29.6144Z" fill="black"/>
<path d="M67.6495 29.6144C65.2525 29.6144 63.3013 27.6632 63.3013 25.2662C63.3013 22.8693 65.2525 20.918 67.6495 20.918C70.0464 20.918 71.9976 22.8594 71.9976 25.2662C71.9976 27.6731 70.0563 29.6144 67.6495 29.6144Z" fill="black"/>
</svg>
