<svg width="16" height="16" viewBox="0 0 16 16" fill="none" xmlns="http://www.w3.org/2000/svg">
<rect width="16" height="16" rx="8" fill="#066CF9"/>
<path d="M6.22729 7.03265C6.17243 7.03265 6.11884 7.01862 6.06908 6.99055C5.96701 6.93186 5.90449 6.82341 5.90832 6.70602L5.91852 6.26711H4.80211C4.20371 6.26711 3.71759 5.78099 3.71759 5.18259V3.23174C3.71759 2.63334 4.20371 2.14722 4.80211 2.14722H10.2732C10.8716 2.14722 11.3577 2.63334 11.3577 3.23174V5.18259C11.3577 5.78099 10.8716 6.26711 10.2732 6.26711H7.53254L6.39699 6.98417C6.34468 7.01607 6.28599 7.03265 6.22729 7.03265Z" fill="black"/>
<path d="M9.57785 6.26715C9.51916 6.26715 9.46047 6.25057 9.40943 6.21867L8.27133 5.50033H5.2755C4.81873 5.50033 4.44617 5.12777 4.44617 4.671V2.71886C4.44617 2.26209 4.81873 1.88953 5.2755 1.88953H11.2569C11.7137 1.88953 12.0863 2.26209 12.0863 2.71886V4.671C12.0863 5.12777 11.7137 5.50033 11.2569 5.50033H9.88535L9.89555 5.93925C9.8981 6.02601 9.86621 6.10766 9.80496 6.16891C9.745 6.23015 9.66079 6.26588 9.5753 6.26588L9.57785 6.26715Z" fill="white"/>
<path d="M11.2582 2.08217C11.6104 2.08217 11.8962 2.36798 11.8962 2.72013V4.67226C11.8962 5.02441 11.6104 5.31021 11.2582 5.31021H9.69012L9.70543 5.94561C9.70671 6.02089 9.64546 6.07575 9.57784 6.07575C9.55487 6.07575 9.53191 6.06937 9.51022 6.05661L8.32745 5.31021H5.27677C4.92462 5.31021 4.63881 5.02441 4.63881 4.67226V2.72013C4.63881 2.36798 4.92462 2.08217 5.27677 2.08217H11.2582ZM11.2582 1.6994H5.27677C4.71409 1.6994 4.25604 2.15745 4.25604 2.72013V4.67226C4.25604 5.23493 4.71409 5.69298 5.27677 5.69298H8.21645L9.30607 6.38069C9.39028 6.43301 9.48342 6.4598 9.57784 6.4598C9.71436 6.4598 9.84833 6.40366 9.94402 6.30542C10.041 6.20589 10.092 6.07575 10.0882 5.93668L10.0818 5.69426H11.2582C11.8209 5.69426 12.2789 5.23621 12.2789 4.67353V2.7214C12.2789 2.15873 11.8209 1.70068 11.2582 1.70068V1.6994Z" fill="black"/>
<path d="M6.51435 4.25635C6.2043 4.25635 5.95422 4.005 5.95422 3.69623C5.95422 3.38746 6.2043 3.13611 6.51435 3.13611C6.82439 3.13611 7.07447 3.38619 7.07447 3.69623C7.07447 4.00627 6.82439 4.25635 6.51435 4.25635Z" fill="black"/>
<path d="M8.27252 4.25635C7.96376 4.25635 7.7124 4.005 7.7124 3.69623C7.7124 3.38746 7.96248 3.13611 8.27252 3.13611C8.58257 3.13611 8.83265 3.38619 8.83265 3.69623C8.83265 4.00627 8.58129 4.25635 8.27252 4.25635Z" fill="black"/>
<path d="M10.0295 4.25635C9.72071 4.25635 9.46936 4.005 9.46936 3.69623C9.46936 3.38746 9.72071 3.13611 10.0295 3.13611C10.3383 3.13611 10.5896 3.38619 10.5896 3.69623C10.5896 4.00627 10.3395 4.25635 10.0295 4.25635Z" fill="black"/>
<path d="M5.18808 11.6933C4.6909 11.6933 4.32756 11.4904 4.13541 11.1521H6.294C6.23719 11.1948 6.18441 11.2453 6.13542 11.303C5.93262 11.539 5.59447 11.6933 5.18808 11.6933ZM7.26265 11.1154C7.41594 11.0744 7.55702 10.9985 7.67324 10.8844C7.86038 10.7007 7.94902 10.4513 7.94902 10.1876V10.1366C7.94902 8.65956 6.67397 7.55939 5.13704 7.55939C4.28715 7.55939 3.54837 7.84237 3.02042 8.36074C2.49195 8.87963 2.20258 9.6072 2.20258 10.4428C2.20258 11.2809 2.49881 12.0072 3.03789 12.5231C3.57554 13.0377 4.3261 13.316 5.18808 13.316C6.09972 13.316 6.91224 12.9912 7.43779 12.3575L7.43787 12.3575L7.44316 12.3508C7.56303 12.1994 7.63259 12.0219 7.63259 11.8208C7.63259 11.5991 7.56055 11.3811 7.39447 11.2186C7.35355 11.1786 7.30935 11.1443 7.26265 11.1154ZM6.07854 9.63018H4.17301C4.37362 9.35257 4.71114 9.18083 5.13704 9.18083H5.13832C5.55758 9.18083 5.88382 9.34709 6.07854 9.63018Z" fill="white" stroke="black" stroke-width="0.75"/>
<path d="M8.5549 12.3516L8.55494 12.3516C8.43134 12.1976 8.36519 12.0186 8.36519 11.8208C8.36519 11.5991 8.43723 11.3811 8.60331 11.2186C8.64407 11.1787 8.68809 11.1445 8.73459 11.1157C8.58071 11.0748 8.43913 10.9988 8.32257 10.8842C8.13543 10.7002 8.04749 10.4507 8.04749 10.1876V10.1366C8.04749 8.65956 9.32253 7.55939 10.8595 7.55939C11.7087 7.55939 12.4476 7.84036 12.9758 8.35811C13.5048 8.8765 13.7939 9.60435 13.7939 10.4428C13.7939 11.2838 13.4979 12.0103 12.9584 12.5257C12.4207 13.0394 11.6705 13.3158 10.8097 13.316L8.5549 12.3516ZM8.5549 12.3516L8.55877 12.3563C9.08524 12.9908 9.89712 13.3157 10.8084 13.316L8.5549 12.3516ZM9.70378 11.1521H11.8624C11.6702 11.4904 11.3069 11.6933 10.8097 11.6933C10.4033 11.6933 10.0652 11.539 9.86235 11.3029C9.81336 11.2453 9.76059 11.1948 9.70378 11.1521ZM11.826 9.63018H9.92052C10.1152 9.34709 10.4415 9.18083 10.8607 9.18083H10.862C11.2879 9.18083 11.6254 9.35257 11.826 9.63018Z" fill="white" stroke="black" stroke-width="0.75"/>
</svg>
