<?xml version="1.0" standalone="no"?>
<!DOCTYPE svg PUBLIC "-//W3C//DTD SVG 20010904//EN"
 "http://www.w3.org/TR/2001/REC-SVG-20010904/DTD/svg10.dtd">
<svg version="1.0" xmlns="http://www.w3.org/2000/svg"
 width="512.000000pt" height="512.000000pt" viewBox="0 0 512.000000 512.000000"
 preserveAspectRatio="xMidYMid meet">
<metadata>
Created by potrace 1.11, written by Peter Selinger 2001-2013
</metadata>
<g transform="translate(0.000000,512.000000) scale(0.100000,-0.100000)"
fill="#000000" stroke="none">
<path d="M2128 3715 c-2 -2 -25 -6 -53 -9 -84 -12 -119 -17 -145 -21 -14 -3
-43 -7 -65 -10 -93 -11 -113 -18 -221 -71 -50 -24 -98 -52 -106 -62 -36 -40
-89 -161 -92 -208 -1 -28 -14 -71 -29 -101 -15 -29 -27 -59 -27 -68 0 -27 61
-138 91 -166 16 -15 29 -31 29 -36 0 -5 -38 -27 -85 -51 -46 -23 -102 -57
-123 -76 l-39 -35 -16 38 c-26 58 -45 75 -137 121 -100 51 -127 52 -212 9
l-61 -31 -56 26 c-137 61 -236 53 -420 -37 -134 -64 -206 -133 -271 -257 l-44
-85 -2 -250 -1 -250 40 -84 c22 -46 51 -96 64 -111 l23 -28 -40 -83 c-22 -46
-40 -92 -40 -102 0 -26 77 -181 99 -201 9 -9 55 -34 101 -57 l83 -41 263 0
264 1 92 46 c126 65 168 107 232 236 29 58 56 118 60 133 l7 27 32 -24 c42
-32 210 -113 267 -130 25 -7 77 -15 115 -16 48 -2 76 -8 89 -19 18 -16 19 -16
13 1 -4 10 -3 16 2 12 5 -3 12 -1 16 5 12 20 33 9 37 -19 2 -17 1 -28 -4 -25
-4 3 -8 0 -8 -5 0 -6 6 -11 13 -11 9 0 9 -2 1 -8 -18 -11 21 -85 54 -100 15
-7 47 -16 72 -19 39 -4 71 -1 175 20 36 8 89 17 130 22 22 3 51 8 65 10 23 4
57 8 165 19 185 20 1097 27 1475 13 561 -21 530 -19 624 -42 101 -24 169 -18
225 19 73 49 106 146 71 210 -12 24 -11 27 36 70 28 24 62 68 77 98 26 52 27
57 27 232 l0 179 -30 53 c-16 29 -26 55 -21 58 5 3 18 26 30 51 17 36 21 64
21 140 0 85 -3 101 -27 146 -37 67 -82 105 -195 161 -185 92 -303 104 -447 44
-73 -31 -172 -84 -192 -102 -14 -13 -18 -12 -32 9 -16 25 -158 103 -203 111
-21 4 -52 -6 -114 -37 -47 -23 -94 -50 -104 -59 -11 -10 -22 -16 -24 -13 -3 2
-4 42 -3 88 2 80 0 89 -38 168 -23 46 -47 91 -53 100 -18 23 -170 99 -207 104
-22 2 -57 -9 -119 -40 -49 -24 -93 -50 -99 -57 -6 -7 -30 -50 -53 -96 -40 -80
-42 -87 -42 -175 0 -51 -3 -96 -5 -100 -3 -5 -12 -2 -21 6 -10 8 -47 29 -84
47 -38 18 -68 37 -69 44 0 6 -2 20 -4 31 -2 10 9 48 26 83 16 36 29 78 29 96
0 17 2 83 4 146 4 118 -9 180 -39 180 -7 0 -31 38 -54 85 -68 137 -45 130
-433 132 -180 0 -328 0 -330 -2z"/>
</g>
</svg>
