<svg width="22" height="22" viewBox="0 0 22 22" fill="none" xmlns="http://www.w3.org/2000/svg">
<path d="M4.89427 0H17.1057C19.8088 0 22 2.19124 22 4.89427V17.1057C22 19.8088 19.8088 22 17.1057 22H4.89427C2.19124 22 0 19.8088 0 17.1057V4.89427C0 2.19124 2.19124 0 4.89427 0Z" fill="currentColor"/>
<path d="M11.6716 19.2598C12.3279 19.0251 12.4687 18.7061 12.7379 16.8368C13.051 14.664 13.1192 13.319 12.9381 12.893C12.6975 12.3283 12.0449 12.0078 11.1319 12.0042C10.2262 12.0005 9.56766 12.3239 9.32566 12.893C9.1438 13.3183 9.212 14.664 9.52513 16.8368C9.7378 18.3548 9.85513 18.7384 10.1485 18.9965C10.5518 19.3536 11.1238 19.4526 11.6665 19.2605L11.6716 19.2598ZM14.4751 17.0304C16.7411 15.9158 18.1931 14.0296 18.7211 11.5202C18.8531 10.8726 18.8751 9.32751 18.7505 8.73351C18.4205 7.13851 17.7898 5.89111 16.7411 4.78818C15.2305 3.19538 13.2871 2.35352 11.1238 2.35352C8.98247 2.35352 7.04646 3.17998 5.57246 4.72512C4.45046 5.89111 3.8198 7.12531 3.49713 8.75111C3.38713 9.29231 3.38713 10.7678 3.4898 11.3764C3.82713 13.3007 4.8978 15.0534 6.4598 16.2311C7.01713 16.652 8.38113 17.3868 8.60113 17.3868C8.6818 17.3868 8.68913 17.3032 8.65246 16.9652C8.58646 16.4225 8.52046 16.3096 8.21247 16.1805C7.72113 15.9752 6.88513 15.3797 6.3718 14.8649C5.48446 13.9849 4.8318 12.8336 4.53113 11.6236C4.34046 10.8682 4.36246 9.18891 4.57513 8.41158C5.24246 5.94025 7.25913 4.01892 9.73047 3.50558C10.4491 3.35892 11.7545 3.35892 12.4805 3.50558C14.9811 4.01892 17.0491 6.03558 17.6798 8.57291C17.8485 9.26225 17.8485 10.9416 17.6798 11.6309C17.2618 13.3102 16.1765 14.8502 14.7538 15.7669C14.4751 15.9502 14.1378 16.1409 13.9985 16.1996C13.6905 16.3316 13.6245 16.4416 13.5658 16.9842C13.5291 17.3142 13.5365 17.4096 13.6171 17.4096C13.6685 17.4096 14.0425 17.2482 14.4385 17.0576L14.4751 17.0304ZM14.4458 14.0472C15.2085 13.4386 15.8831 12.3591 16.1618 11.3002C16.3305 10.6607 16.3305 9.44485 16.1545 8.80685C15.6925 7.08498 14.4238 5.75031 12.6638 5.12332C12.0625 4.91065 10.7278 4.86298 9.98713 5.02652C7.43513 5.59485 5.6238 8.15051 5.9758 10.6856C6.11513 11.7072 6.46713 12.5461 7.09046 13.3256C7.39846 13.7194 8.14646 14.3802 8.27846 14.3802C8.30046 14.3802 8.32246 14.1308 8.32246 13.8272V13.2728L7.94113 12.8182C6.5038 11.0963 6.60646 8.69098 8.1758 7.11285C8.78446 6.49831 9.48846 6.13751 10.3978 5.97105C10.9845 5.86251 11.1091 5.86251 11.7251 5.96371C12.6601 6.11625 13.3847 6.47851 14.0278 7.11505C15.6045 8.67705 15.7071 11.0948 14.2698 12.8182L13.8914 13.2728V13.8302C13.8914 14.1382 13.9156 14.3875 13.9457 14.3875C13.975 14.3875 14.1877 14.2408 14.415 14.0575L14.4458 14.0472ZM11.9011 11.053C12.5538 10.7494 12.9058 10.1767 12.9131 9.43018C12.9131 8.75918 12.5391 8.17398 11.8938 7.83151C11.4831 7.61591 10.7571 7.61591 10.3465 7.83298C9.89913 8.06545 9.53246 8.51645 9.39313 8.98725C8.9678 10.4334 10.5005 11.7006 11.8865 11.053H11.9011Z" fill="#1C1D31"/>
<path d="M11.008 11.3376C9.99789 11.3376 9.17905 10.5187 9.17905 9.50862C9.17905 8.49853 9.99789 7.67969 11.008 7.67969C12.0181 7.67969 12.8369 8.49853 12.8369 9.50862C12.8369 10.5187 12.0181 11.3376 11.008 11.3376Z" fill="#1C1D31"/>
<path d="M10.8327 12.0469C10.7058 12.0637 10.4535 12.0967 10.2203 12.1715C9.98568 12.2449 9.77301 12.36 9.60728 12.4781C9.44595 12.5954 9.32861 12.7171 9.25528 12.8653C9.18195 13.0134 9.14528 13.1894 9.12328 13.4776C9.10861 13.7665 9.10861 14.1669 9.17461 14.9149C9.24061 15.6607 9.37262 16.7541 9.47528 17.4545C9.57795 18.1585 9.65128 18.4665 9.74662 18.6938C9.84195 18.9285 9.96661 19.0825 10.1059 19.1925C10.2453 19.3025 10.4066 19.3685 10.5606 19.4051C10.7146 19.4418 10.8539 19.4418 10.9859 19.4418C11.1179 19.4418 11.2426 19.4418 11.4113 19.4051C11.5799 19.3685 11.7999 19.3025 11.9613 19.1705C12.13 19.0385 12.24 18.8478 12.328 18.5985C12.416 18.3491 12.482 18.0485 12.57 17.4471C12.658 16.8458 12.7753 15.9511 12.8486 15.2691C12.922 14.5871 12.9513 14.1178 12.9572 13.8025C12.9645 13.4871 12.9498 13.3309 12.9132 13.1791C12.8765 13.0325 12.8178 12.8931 12.7372 12.7758C12.6565 12.6585 12.5509 12.5558 12.4438 12.4751C12.339 12.3945 12.2312 12.3358 12.1021 12.2903C11.9745 12.239 11.8212 12.195 11.6328 12.1583C11.4421 12.1217 11.2221 12.085 11.1091 12.0703C10.9962 12.0535 10.9962 12.0535 10.8701 12.0703L10.8327 12.0469Z" fill="#1C1D31"/>
</svg>
