<svg width="24" height="24" viewBox="0 0 24 24" fill="none" xmlns="http://www.w3.org/2000/svg">
<path d="M18.4659 19.4154L15.9969 11.9996L22.4601 7.4177H14.4708L12.0016 0.00209641L12.0008 8.38566e-05H19.9913L22.4612 7.41686L22.4613 7.41669L22.4634 7.4156C23.8977 11.7183 22.4204 16.6122 18.4659 19.4153V19.4154ZM5.53658 19.4154L5.5346 19.4168L11.9995 24L18.4659 19.4156L12.0016 14.8323L5.53667 19.4154H5.53658ZM1.5409 7.41577C0.0309772 11.9514 1.78368 16.7574 5.53538 19.4163L5.53598 19.414L8.0054 11.9986L1.54357 7.41753H9.53097L12.0003 0.00201256L12.0008 0H4.0099L1.54082 7.41577H1.5409Z" fill="#EB5424"/>
</svg>
