<svg width="375" height="177" viewBox="0 0 375 177" fill="none" xmlns="http://www.w3.org/2000/svg">
<g clip-path="url(#clip0)">
<path d="M138.625 101.93C136.433 105.045 133.61 109.581 130.743 114.998C133.167 112.723 136.933 110.282 141.336 110.239C149.097 110.164 148.426 118.742 141.336 121.075C135.192 123.096 129.513 122.575 127.953 120.539C125.839 124.966 123.805 129.786 122.096 134.776C121.998 135.062 121.901 135.35 121.804 135.638C121.684 135.997 121.565 136.356 121.448 136.716C123.156 134.464 125.798 131.561 128.486 130.255C132.977 128.073 138.798 130.105 137.529 134.545C136.261 138.984 130.514 142.37 126.484 142.521C123.362 142.638 120.868 142.69 119.902 141.771C118.377 147.119 117.175 152.562 116.354 158.057C117.857 155.133 120.441 151.426 123.573 150.497C128.648 148.992 131.634 150.046 131.857 154.335C132.081 158.624 125.066 163.741 121.334 163.967C118.831 164.118 116.727 164.072 115.622 163.956C115.197 168.279 115.016 171.654 115.108 176L113.68 176.03C113.546 169.66 113.988 164.267 114.921 157.976C113.983 158.344 112.31 158.356 109.766 156.969C105.214 154.486 102.602 147.036 103.05 143.048C103.497 139.06 108.199 137.705 111.334 140.188C113.463 141.875 115.091 148.092 115.897 152.311C116.954 146.914 118.359 141.585 120.059 136.367C119.136 136.477 117.78 135.54 115.737 134.018C112.304 131.459 110.363 125.515 110.438 121.376C110.513 117.237 115.662 112.722 119.469 117.538C121.909 120.626 122.37 126.27 122.253 130.16C124.321 124.763 126.701 119.648 129.071 115.108C125.641 116.454 121.7 106.31 121.633 101.36C121.558 95.8666 127.902 91.2011 131.26 95.7913C133.55 98.9202 132.931 105.452 132.082 109.618C134.173 105.992 136.143 102.943 137.752 100.689C137.633 97.0544 138.506 90.6304 142.903 87.0625C149.023 82.0961 154.545 83.1495 152.605 90.3735C150.82 97.0185 142.152 101.944 138.625 101.93Z" fill="#9EA1E7"/>
<path d="M14.3752 101.93C16.5669 105.045 19.3897 109.581 22.2572 114.998C19.8333 112.723 16.0667 110.282 11.6644 110.239C3.9027 110.164 4.57438 118.742 11.6644 121.075C17.8081 123.096 23.4873 122.575 25.0466 120.539C27.1611 124.966 29.1946 129.786 30.9036 134.776C31.0015 135.062 31.0988 135.35 31.1955 135.638C31.3158 135.997 31.4346 136.356 31.5521 136.716C29.8442 134.464 27.202 131.561 24.5144 130.255C20.0231 128.073 14.2019 130.105 15.4706 134.545C16.7393 138.984 22.486 142.37 26.5161 142.521C29.6375 142.638 32.1322 142.69 33.0984 141.771C34.6235 147.119 35.8249 152.562 36.6465 158.057C35.1426 155.133 32.5595 151.426 29.4267 150.497C24.3518 148.992 21.3665 150.046 21.1426 154.335C20.9187 158.624 27.9341 163.741 31.6657 163.967C34.1694 164.118 36.2727 164.072 37.3783 163.956C37.8033 168.279 37.9836 171.624 37.8922 175.97L39.3205 176C39.4544 169.63 39.0125 164.267 38.0788 157.976C39.0171 158.344 40.6896 158.356 43.2336 156.969C47.7861 154.486 50.3982 147.036 49.9504 143.048C49.5026 139.06 44.8008 137.705 41.6663 140.188C39.5373 141.875 37.9092 148.092 37.1033 152.311C36.0464 146.914 34.6409 141.585 32.9411 136.367C33.8639 136.477 35.22 135.54 37.263 134.018C40.6961 131.459 42.6365 125.515 42.5619 121.376C42.4872 117.237 37.3377 112.722 33.5315 117.538C31.0915 120.626 30.6295 126.27 30.7473 130.16C28.6787 124.763 26.2993 119.648 23.9293 115.108C27.3587 116.454 31.2999 106.31 31.3671 101.36C31.4418 95.8666 25.0981 91.2011 21.7397 95.7913C19.4504 98.9202 20.069 105.452 20.9176 109.618C18.8271 105.992 16.8573 102.943 15.2476 100.689C15.3673 97.0544 14.4936 90.6304 10.0971 87.0625C3.97733 82.0961 -1.54541 83.1495 0.395008 90.3735C2.17993 97.0185 10.8481 101.944 14.3752 101.93Z" fill="#9EA1E7"/>
<path fill-rule="evenodd" clip-rule="evenodd" d="M49.7338 64.9957C44.2281 54.6855 38.8084 46.0542 34.6004 40.1244C27.8283 40.1522 11.1855 30.7771 7.75842 18.1301C4.03281 4.3814 14.6365 2.37638 26.3865 11.8286C34.8277 18.6191 36.5052 30.8454 36.2754 37.763C39.3659 42.0523 43.148 47.856 47.1619 54.7573C45.5324 46.8286 44.3448 34.3965 48.7401 28.4416C55.1883 19.7054 67.3682 28.5848 67.2249 39.0395C67.0958 48.4605 59.5287 67.7665 52.9443 65.2047C57.4946 73.846 62.063 83.5811 66.0348 93.8526C65.8087 86.4503 66.6956 75.7067 71.3804 69.831C78.6883 60.6651 88.5755 69.2581 88.7188 77.135C88.8621 85.0119 85.1365 96.3259 78.545 101.195C74.6224 104.093 72.0187 105.875 70.2469 105.666C73.5105 115.598 76.2091 125.74 78.2383 136.011C79.7857 127.982 82.9116 116.149 86.9993 112.939C93.0176 108.213 102.045 110.791 102.905 118.381C103.765 125.972 98.7493 140.15 90.0084 144.876C85.124 147.517 81.9129 147.494 80.1113 146.793C81.5588 156.461 82.3907 166.219 82.522 176H79.7789C79.6979 170.047 79.3539 164.1 78.7662 158.175C76.6437 158.395 72.6052 158.483 67.7981 158.195C60.6334 157.766 47.1639 148.027 47.5938 139.864C48.0237 131.7 53.7554 129.695 63.4993 132.56C69.5142 134.328 74.4738 141.383 77.3613 146.947C75.7838 136.489 73.477 126.129 70.5489 115.952C68.6937 117.701 63.904 117.601 57.9109 117.379C50.1731 117.092 39.1395 110.648 36.7036 102.198C34.2676 93.748 45.4444 89.8812 54.0677 94.0345C59.2279 96.5198 64.3008 102.045 67.58 106.33C67.3545 105.645 67.1263 104.961 66.8954 104.279C66.7098 103.73 66.5229 103.183 66.3348 102.639C63.0536 93.1407 59.1494 83.9671 55.0894 75.5428C52.0957 79.4172 41.1916 80.4093 29.3956 76.5621C15.7828 72.1224 14.4932 55.7958 29.3956 55.939C37.8481 56.0203 45.08 60.6656 49.7338 64.9957Z" fill="#9EA1E7"/>
<path fill-rule="evenodd" clip-rule="evenodd" d="M320.893 2.8723C341.719 -3.99218 358.925 3.04274 364.925 7.41827C312.345 55.18 277.139 130.806 261.29 176H243.114C234.584 159.509 233.386 147.177 234.225 142.104C239.562 141.538 255.546 135.913 262.871 133.172C258.156 133.93 243.741 129.76 237.122 127.581C236.556 126.889 237.138 124.058 237.5 122.729C239.543 123.409 250.946 124.508 257.792 125.095C252.934 124.342 242.997 120.971 238.056 119.159C256.496 56.1151 289.303 20.9586 303.402 11.2609C308.776 14.991 316.281 24.1562 319.362 28.2725C324.788 17.6168 322.643 6.89914 320.893 2.8723Z" fill="#8C8FDD"/>
<path fill-rule="evenodd" clip-rule="evenodd" d="M261.076 176C276.946 130.71 312.219 54.8832 364.908 7C369.132 13.9357 376.973 31.2532 374.543 45.0374C368.681 43.6729 356.555 41.0906 354.944 41.6775C361.15 44.2914 373.713 49.9146 374.31 51.4968C372.725 59.4986 367.228 78.4798 357.919 90.3901C351.101 88.449 336.816 84.9084 334.216 86.2753C339.856 88.6705 351.76 93.9387 354.254 95.85C352.575 98.8864 348.829 105.266 347.276 106.491C341.106 104.514 327.516 101.09 322.514 103.212C326.824 106.467 336.076 114.246 338.606 119.324C329.838 134.518 316.514 155.954 290.005 176H261.076Z" fill="#9EA1E7"/>
<path d="M203.144 105.321C201.828 107.485 199.386 112.891 200.142 117.193C201.969 116.767 205.746 115.961 206.248 116.144C204.315 116.96 200.401 118.715 200.215 119.209C200.709 121.707 202.421 127.631 205.321 131.349C207.445 130.743 211.895 129.638 212.705 130.064C210.948 130.812 207.24 132.456 206.463 133.053C206.986 134.001 208.153 135.992 208.636 136.374C210.558 135.757 214.792 134.688 216.35 135.351C215.008 136.367 212.125 138.795 211.337 140.38C214.256 145.448 218.796 152.741 228.237 159.352C228.983 159.14 230.706 158.811 231.148 158.448C230.562 159.053 229.304 160.017 228.864 160.025C230.426 160.993 234.298 163.343 237.381 164C243.472 155.924 244.285 149.604 243.93 147.453C242.264 147.276 237.277 145.516 234.991 144.659C236.462 144.896 240.96 143.592 243.026 142.91C243.202 142.693 243.021 141.808 242.908 141.392C242.27 141.605 238.712 141.949 236.575 142.132C238.091 141.897 241.192 140.842 242.734 140.275C236.98 120.554 226.742 109.556 222.343 106.523C220.666 107.689 218.324 110.557 217.362 111.844C215.669 108.511 216.338 105.158 216.885 103.899C210.385 101.751 205.016 103.952 203.144 105.321Z" fill="#9EA1E7"/>
<path d="M203.112 105C221.932 122.409 233.546 151.587 237 164C233.948 163.339 230.115 160.977 228.569 160.003C229.005 159.996 230.251 159.026 230.83 158.417C230.393 158.783 228.688 159.114 227.949 159.326C218.604 152.68 214.111 145.346 211.222 140.251C212.002 138.657 214.855 136.216 216.183 135.194C214.641 134.528 210.451 135.603 208.548 136.223C208.069 135.839 206.915 133.837 206.397 132.884C207.166 132.284 210.836 130.631 212.575 129.879C211.774 129.45 207.369 130.561 205.267 131.17C202.396 127.432 200.702 121.476 200.213 118.964C200.397 118.468 204.271 116.703 206.184 115.883C205.687 115.699 201.948 116.509 200.141 116.937C199.392 112.611 201.809 107.177 203.112 105Z" fill="#8A8DD9"/>
<path fill-rule="evenodd" clip-rule="evenodd" d="M259.018 54.9225C258.729 50.476 257.593 47.4016 255.809 45.5324C253.982 43.6183 251.615 43.1103 249.252 43.5177C246.923 43.9192 244.569 45.2045 242.553 46.9187C240.531 48.6381 238.782 50.8452 237.691 53.1841C235.607 57.6537 233.606 63.7155 233.033 70.0648C232.473 76.2662 233.27 82.8227 236.777 88.4202C235.587 92.4463 234.301 97.4074 233.084 102.982C232.378 98.9065 231.203 94.2968 229.42 90.1287C226.69 83.7461 222.364 78.0233 215.768 77.3749C211.765 76.9814 208.839 78.0851 206.931 80.2787C205.066 82.4238 204.319 85.4484 204.27 88.6277C204.173 94.9735 206.851 102.541 210.261 106.886C213.582 111.116 217.903 115.212 221.882 117.611C223.862 118.805 225.845 119.632 227.629 119.778C228.487 119.848 229.309 119.759 230.054 119.478C229.716 121.746 229.405 124.054 229.128 126.388C228.261 133.693 227.726 141.265 227.747 148.669C226.027 144.373 223.741 139.571 221.072 135.49C219.084 132.449 216.845 129.747 214.419 127.963C211.983 126.172 209.26 125.242 206.407 125.981C203.05 126.85 200.68 128.864 199.269 131.535C197.871 134.182 197.44 137.419 197.818 140.752C198.572 147.405 202.576 154.698 209.192 159.062C214.366 162.475 218.873 164.273 222.431 165.125C225.192 165.786 227.419 165.886 228.95 165.7C229.326 168.186 229.799 170.608 230.379 172.945C230.636 173.98 230.914 174.999 231.215 176H233.306C233.062 175.216 232.832 174.418 232.615 173.608C233.083 173.456 233.62 173.208 234.197 172.899C235.469 172.218 237.099 171.153 238.928 169.826C242.594 167.166 247.155 163.388 251.424 159.341C256.873 154.177 260.713 149.202 262.176 145.099C262.91 143.038 263.089 141.072 262.423 139.388C261.742 137.668 260.265 136.454 258.14 135.751C253.58 134.242 249.516 134.727 245.99 136.477C242.495 138.21 239.58 141.158 237.208 144.505C233.936 149.122 231.613 154.617 230.188 159.095C230.065 157.662 229.969 156.213 229.898 154.75C229.523 146.952 229.868 138.793 230.656 130.824C231.089 131.29 231.608 131.677 232.206 131.979C234.064 132.917 236.515 132.949 239.128 132.357C244.382 131.168 250.87 127.335 256.25 121.521C258.802 118.763 260.662 115.493 261.765 112.284C262.864 109.087 263.235 105.879 262.722 103.256C262.204 100.614 260.746 98.4359 258.129 97.703C255.599 96.9943 252.289 97.7342 248.252 100.108C240.384 104.733 235.384 111.339 232.45 117.074C232.879 114.405 233.343 111.802 233.828 109.29C235.339 101.472 237.063 94.5391 238.623 89.2317C238.709 89.2138 238.791 89.1928 238.87 89.1703C239.258 89.0596 239.675 88.8773 240.105 88.6484C240.965 88.1896 241.975 87.4892 243.064 86.6C245.245 84.8174 247.83 82.2026 250.276 79.0235C255.147 72.6922 259.604 63.9423 259.018 54.9225ZM239.163 86.8837C238.847 87.0525 238.589 87.1627 238.39 87.2262C235.258 82.1451 234.494 76.1248 235.025 70.2446C235.572 64.175 237.494 58.3392 239.504 54.0294C240.46 51.9785 242.021 49.9961 243.849 48.4424C245.682 46.8834 247.717 45.8119 249.591 45.4887C251.431 45.1715 253.081 45.5713 254.362 46.9132C255.686 48.3001 256.748 50.83 257.022 55.0522C257.563 63.3697 253.433 71.6398 248.691 77.8039C246.33 80.8725 243.851 83.3743 241.798 85.0512C240.769 85.8918 239.87 86.5069 239.163 86.8837ZM227.581 90.9152C230.203 97.0444 231.474 104.24 231.839 109.042C231.359 111.531 230.901 114.108 230.477 116.75C229.863 117.553 228.99 117.883 227.792 117.785C226.454 117.675 224.782 117.024 222.915 115.899C219.198 113.658 215.05 109.747 211.834 105.651C208.709 101.67 206.18 94.5495 206.27 88.6581C206.315 85.7188 207.009 83.2375 208.441 81.5912C209.83 79.9933 212.058 79.0199 215.572 79.3653C221.003 79.8992 224.908 84.666 227.581 90.9152ZM233.107 130.193C231.948 129.608 231.172 128.506 231.123 126.585C232.074 121.326 237.013 109.034 249.265 101.832C253.128 99.5615 255.839 99.1385 257.589 99.6289C259.253 100.095 260.336 101.478 260.759 103.64C261.186 105.82 260.896 108.66 259.874 111.634C258.856 114.595 257.134 117.62 254.782 120.162C249.611 125.75 243.462 129.326 238.687 130.407C236.286 130.95 234.374 130.833 233.107 130.193ZM219.398 136.584C223.217 142.424 226.261 149.86 227.907 154.978C228.053 157.949 228.303 160.872 228.672 163.719C227.462 163.86 225.501 163.804 222.897 163.18C219.585 162.387 215.291 160.689 210.293 157.392C204.195 153.37 200.495 146.618 199.805 140.526C199.461 137.486 199.872 134.676 201.038 132.469C202.19 130.287 204.105 128.643 206.908 127.917C208.984 127.38 211.093 128 213.234 129.575C215.386 131.157 217.471 133.637 219.398 136.584ZM232.126 171.661C231.587 169.373 231.149 166.998 230.803 164.553C231.714 160.085 234.367 151.973 238.84 145.661C241.101 142.471 243.784 139.804 246.879 138.268C249.944 136.748 253.463 136.31 257.512 137.649C259.24 138.221 260.158 139.1 260.563 140.124C260.983 141.184 260.939 142.611 260.292 144.427C258.991 148.076 255.434 152.785 250.048 157.89C245.836 161.882 241.342 165.604 237.754 168.207C235.956 169.511 234.41 170.517 233.253 171.136C232.79 171.383 232.415 171.556 232.126 171.661Z" fill="#D7D9FA"/>
<path fill-rule="evenodd" clip-rule="evenodd" d="M180.266 138.996C185.772 128.685 191.192 120.054 195.4 114.124C202.172 114.152 218.815 104.777 222.242 92.1301C225.967 78.3814 215.364 76.3764 203.614 85.8286C195.172 92.6191 193.495 104.845 193.725 111.763C190.634 116.052 186.852 121.856 182.838 128.757C184.468 120.829 185.655 108.397 181.26 102.442C174.812 93.7054 162.632 102.585 162.775 113.04C162.904 122.461 170.471 141.766 177.056 139.205C172.506 147.846 167.937 157.581 163.965 167.853C164.191 160.45 163.305 149.707 158.62 143.831C151.312 134.665 141.425 143.258 141.281 151.135C141.138 159.012 144.864 170.326 151.455 175.195C151.93 175.546 152.386 175.881 152.824 176.198H163.818C167.068 166.857 170.914 157.837 174.911 149.543C177.904 153.417 188.809 154.409 200.605 150.562C214.217 146.122 215.507 129.796 200.605 129.939C192.152 130.02 184.92 134.666 180.266 138.996ZM165.861 176.198H193.297C195.733 167.748 184.556 163.881 175.932 168.034C172.341 169.764 168.792 172.966 165.861 176.198Z" fill="#9EA1E7"/>
<path fill-rule="evenodd" clip-rule="evenodd" d="M79.8721 12.7865C77.1813 13.2895 75.4078 15.8786 75.9108 18.5694L79.8574 39.6819C80.3604 42.3727 82.9495 44.1463 85.6403 43.6433L127.865 35.7501C130.556 35.2471 132.33 32.658 131.827 29.9672L127.88 8.85462C127.377 6.16382 124.788 4.39026 122.097 4.89325L79.8721 12.7865ZM90.5125 42.733L91.7269 49.2292C91.977 50.5675 93.6477 51.0458 94.5682 50.0427L103.505 40.3043L90.5125 42.733Z" fill="black" fill-opacity="0.11"/>
<path fill-rule="evenodd" clip-rule="evenodd" d="M73.8721 9.78651C71.1813 10.2895 69.4078 12.8786 69.9108 15.5694L73.8574 36.6819C74.3604 39.3727 76.9495 41.1463 79.6403 40.6433L121.865 32.7501C124.556 32.2471 126.33 29.658 125.827 26.9672L121.88 5.85462C121.377 3.16382 118.788 1.39026 116.097 1.89325L73.8721 9.78651ZM84.5125 39.733L85.7269 46.2292C85.977 47.5675 87.6477 48.0458 88.5682 47.0427L97.5049 37.3043L84.5125 39.733Z" fill="url(#paint0_linear)"/>
<path d="M98.6699 22.9365L95.8636 27.0333L99.9603 29.8396L102.767 25.7429L98.6699 22.9365ZM97.06 15.8146C94.7974 14.2647 91.7068 14.8424 90.1569 17.105C88.607 19.3676 89.1847 22.4582 91.4473 24.0081L97.06 15.8146ZM105.792 21.3266C107.342 19.064 106.764 15.9734 104.501 14.4235C102.239 12.8736 99.1483 13.4513 97.5984 15.7139L105.792 21.3266ZM101.476 18.8398L97.06 15.8146L91.4473 24.0081L95.8636 27.0333L101.476 18.8398ZM97.5984 15.7139L94.5732 20.1302L102.767 25.7429L105.792 21.3266L97.5984 15.7139Z" fill="white"/>
<g filter="url(#filter0_d)">
<path fill-rule="evenodd" clip-rule="evenodd" d="M221.131 94.5254C218.431 94.0729 215.875 95.8946 215.423 98.5944L212.87 113.823C212.418 116.523 214.239 119.079 216.939 119.531L225.842 121.023C232.268 122.101 238.172 125.233 242.666 129.95C243.605 130.936 245.267 130.427 245.492 129.084L246.269 124.446C246.269 124.446 246.269 124.446 246.269 124.446C246.269 124.446 246.269 124.446 246.269 124.446L249.641 104.33C250.094 101.63 248.272 99.0749 245.572 98.6224L221.131 94.5254Z" fill="black" fill-opacity="0.11"/>
</g>
<path fill-rule="evenodd" clip-rule="evenodd" d="M226.131 90.5254C223.431 90.0729 220.875 91.8946 220.423 94.5944L217.87 109.823C217.418 112.523 219.239 115.079 221.939 115.531L240.742 118.683L247.666 125.95C248.605 126.936 250.267 126.427 250.492 125.084L251.269 120.446L251.269 120.446L254.641 100.33C255.094 97.6303 253.272 95.0749 250.572 94.6224L226.131 90.5254Z" fill="#F97C80"/>
<rect x="226.719" y="97.3887" width="22.6856" height="4.00334" rx="2.00167" transform="rotate(9.51549 226.719 97.3887)" fill="#FFFEFE"/>
<rect x="225.396" y="105.285" width="22.6856" height="4.00334" rx="2.00167" transform="rotate(9.51549 225.396 105.285)" fill="#FFFEFE"/>
<path d="M99 112.155C105.544 111.93 121.745 107.687 134.2 92.5244" stroke="#CA40CB" stroke-width="1.24103" stroke-linecap="round" stroke-linejoin="round"/>
<path d="M125.4 112.829C129.236 111.701 139.074 107.007 147.739 97.2598" stroke="#CA40CB" stroke-width="1.24103" stroke-linecap="round" stroke-linejoin="round"/>
<path d="M231 14L123.369 55.9692L150.409 74.2462L214.754 30.2462L164.43 83.7231L196.477 105.385L231 14Z" fill="#DB43CE"/>
<path d="M214.754 30.2462L150.409 74.2462L164.43 83.7231L214.754 30.2462Z" fill="#882E84"/>
<path d="M150.409 74.2462L159.923 106.739L164.43 83.7231L150.409 74.2462Z" fill="#882E84"/>
<path fill-rule="evenodd" clip-rule="evenodd" d="M293.84 106.337C297.854 98.7634 301.806 92.423 304.875 88.0671C309.813 88.0876 321.948 81.2008 324.447 71.9106C327.164 61.811 319.432 60.3382 310.864 67.2816C304.709 72.2698 303.486 81.251 303.653 86.3325C301.4 89.4834 298.642 93.7467 295.715 98.8162C296.903 92.9919 297.769 83.8596 294.564 79.4851C289.863 73.0677 280.982 79.5903 281.086 87.2702C281.18 94.1907 286.698 108.373 291.499 106.491C288.181 112.838 284.85 119.99 281.954 127.535C282.119 122.097 281.472 114.205 278.056 109.889C272.727 103.156 265.518 109.468 265.413 115.254C265.309 121.041 268.025 129.352 272.832 132.929C275.692 135.057 277.591 136.366 278.882 136.213C276.503 143.508 274.535 150.958 273.055 158.504C271.927 152.606 269.648 143.913 266.667 141.555C262.279 138.084 255.696 139.977 255.069 145.553C254.443 151.129 258.099 161.544 264.473 165.016C268.035 166.956 270.376 166.939 271.69 166.424C271.217 169.604 270.834 172.798 270.547 176H272.555C272.592 175.595 272.631 175.19 272.67 174.785C274.218 174.946 277.163 175.012 280.668 174.8C285.892 174.484 295.714 167.33 295.4 161.334C295.087 155.337 290.908 153.864 283.803 155.968C279.417 157.267 275.8 162.45 273.695 166.537C274.845 158.855 276.527 151.245 278.662 143.769C280.015 145.053 283.507 144.98 287.877 144.817C293.52 144.606 301.565 139.872 303.341 133.665C305.117 127.458 296.968 124.618 290.68 127.668C286.917 129.494 283.218 133.553 280.827 136.7C280.992 136.197 281.158 135.695 281.326 135.194C281.462 134.791 281.598 134.389 281.735 133.989C284.128 127.012 286.974 120.273 289.935 114.085C292.118 116.931 300.069 117.66 308.67 114.834C318.596 111.572 319.536 99.5791 308.67 99.6843C302.507 99.7439 297.233 103.156 293.84 106.337Z" fill="#D3D7F8"/>
</g>
<defs>
<filter id="filter0_d" x="137" y="23.7061" width="187.461" height="185.01" filterUnits="userSpaceOnUse" color-interpolation-filters="sRGB">
<feFlood flood-opacity="0" result="BackgroundImageFix"/>
<feColorMatrix in="SourceAlpha" type="matrix" values="0 0 0 0 0 0 0 0 0 0 0 0 0 0 0 0 0 0 127 0"/>
<feOffset dy="4"/>
<feGaussianBlur stdDeviation="37"/>
<feColorMatrix type="matrix" values="0 0 0 0 0 0 0 0 0 0 0 0 0 0 0 0 0 0 0.25 0"/>
<feBlend mode="normal" in2="BackgroundImageFix" result="effect1_dropShadow"/>
<feBlend mode="normal" in="SourceGraphic" in2="effect1_dropShadow" result="shape"/>
</filter>
<linearGradient id="paint0_linear" x1="124.348" y1="22.4609" x2="69" y2="9.24355" gradientUnits="userSpaceOnUse">
<stop stop-color="#FF855E"/>
<stop offset="0.0001" stop-color="#FF8960"/>
<stop offset="1" stop-color="#FFC77E"/>
</linearGradient>
<clipPath id="clip0">
<rect width="375" height="176.198" fill="white"/>
</clipPath>
</defs>
</svg>
