<svg width="685" height="297" viewBox="0 0 685 297" fill="none" xmlns="http://www.w3.org/2000/svg">
<path d="M290.625 180.93C288.433 184.045 285.61 188.581 282.743 193.998C285.167 191.723 288.933 189.282 293.336 189.239C301.097 189.164 300.426 197.742 293.336 200.075C287.192 202.096 281.513 201.575 279.953 199.539C277.839 203.966 275.805 208.786 274.096 213.776C273.998 214.062 273.901 214.35 273.804 214.638C273.684 214.997 273.565 215.356 273.448 215.716C275.156 213.464 277.798 210.561 280.486 209.255C284.977 207.073 290.798 209.105 289.529 213.545C288.261 217.984 282.514 221.37 278.484 221.521C275.362 221.638 272.868 221.69 271.902 220.771C270.377 226.119 269.175 231.562 268.354 237.057C269.857 234.133 272.441 230.426 275.573 229.497C280.648 227.992 283.634 229.046 283.857 233.335C284.081 237.624 277.066 242.741 273.334 242.967C270.831 243.118 268.727 243.072 267.622 242.956C267.197 247.279 267.016 251.624 267.108 255.97L265.68 256C265.546 249.63 265.988 243.267 266.921 236.976C265.983 237.344 264.31 237.356 261.766 235.969C257.214 233.486 254.602 226.036 255.05 222.048C255.497 218.06 260.199 216.705 263.334 219.188C265.463 220.875 267.091 227.092 267.897 231.311C268.954 225.914 270.359 220.585 272.059 215.367C271.136 215.477 269.78 214.54 267.737 213.018C264.304 210.459 262.363 204.515 262.438 200.376C262.513 196.237 267.662 191.722 271.469 196.538C273.909 199.626 274.37 205.27 274.253 209.16C276.321 203.763 278.701 198.648 281.071 194.108C277.641 195.454 273.7 185.31 273.633 180.36C273.558 174.867 279.902 170.201 283.26 174.791C285.55 177.92 284.931 184.452 284.082 188.618C286.173 184.992 288.143 181.943 289.752 179.689C289.633 176.054 290.506 169.63 294.903 166.063C301.023 161.096 306.545 162.15 304.605 169.373C302.82 176.018 294.152 180.944 290.625 180.93Z" fill="#121334"/>
<path d="M184.375 180.93C186.567 184.045 189.39 188.581 192.257 193.998C189.833 191.723 186.067 189.282 181.664 189.239C173.903 189.164 174.574 197.742 181.664 200.075C187.808 202.096 193.487 201.575 195.047 199.539C197.161 203.966 199.195 208.786 200.904 213.776C201.002 214.062 201.099 214.35 201.196 214.638C201.316 214.997 201.435 215.356 201.552 215.716C199.844 213.464 197.202 210.561 194.514 209.255C190.023 207.073 184.202 209.105 185.471 213.545C186.739 217.984 192.486 221.37 196.516 221.521C199.638 221.638 202.132 221.69 203.098 220.771C204.623 226.119 205.825 231.562 206.646 237.057C205.143 234.133 202.559 230.426 199.427 229.497C194.352 227.992 191.366 229.046 191.143 233.335C190.919 237.624 197.934 242.741 201.666 242.967C204.169 243.118 206.273 243.072 207.378 242.956C207.803 247.279 207.984 251.624 207.892 255.97L209.32 256C209.454 249.63 209.012 243.267 208.079 236.976C209.017 237.344 210.69 237.356 213.234 235.969C217.786 233.486 220.398 226.036 219.95 222.048C219.503 218.06 214.801 216.705 211.666 219.188C209.537 220.875 207.909 227.092 207.103 231.311C206.046 225.914 204.641 220.585 202.941 215.367C203.864 215.477 205.22 214.54 207.263 213.018C210.696 210.459 212.637 204.515 212.562 200.376C212.487 196.237 207.338 191.722 203.531 196.538C201.091 199.626 200.63 205.27 200.747 209.16C198.679 203.763 196.299 198.648 193.929 194.108C197.359 195.454 201.3 185.31 201.367 180.36C201.442 174.867 195.098 170.201 191.74 174.791C189.45 177.92 190.069 184.452 190.918 188.618C188.827 184.992 186.857 181.943 185.248 179.689C185.367 176.054 184.494 169.63 180.097 166.063C173.977 161.096 168.455 162.15 170.395 169.373C172.18 176.018 180.848 180.944 184.375 180.93Z" fill="#121334"/>
<path d="M186.6 129.124C190.808 135.054 196.228 143.685 201.734 153.996C197.08 149.666 189.848 145.02 181.396 144.939C166.493 144.796 167.783 161.122 181.396 165.562C193.192 169.409 204.096 168.417 207.089 164.543C211.149 172.967 215.054 182.141 218.335 191.639C218.523 192.183 218.71 192.73 218.895 193.279C219.126 193.961 219.354 194.645 219.58 195.33C216.301 191.045 211.228 185.52 206.068 183.034C197.444 178.881 186.268 182.748 188.704 191.198C191.14 199.648 202.173 206.092 209.911 206.379C215.904 206.601 220.694 206.701 222.549 204.952C225.477 215.129 227.784 225.489 229.361 235.947C226.474 230.383 221.514 223.328 215.499 221.56C205.755 218.695 200.024 220.7 199.594 228.864C199.164 237.027 212.633 246.766 219.798 247.195C224.605 247.484 228.644 247.395 230.766 247.175C231.582 255.403 231.928 263.672 231.753 271.943L234.495 272C234.752 259.877 233.904 247.767 232.111 235.793C233.913 236.494 237.124 236.517 242.008 233.876C250.749 229.15 255.765 214.972 254.905 207.381C254.045 199.791 245.018 197.213 238.999 201.939C234.912 205.149 231.786 216.982 230.238 225.011C228.209 214.74 225.511 204.598 222.247 194.666C224.019 194.875 226.622 193.093 230.545 190.195C237.136 185.326 240.862 174.012 240.719 166.135C240.576 158.258 230.688 149.665 223.38 158.831C218.696 164.707 217.809 175.45 218.035 182.853C214.063 172.581 209.495 162.846 204.944 154.205C211.529 156.766 219.096 137.461 219.225 128.04C219.368 117.585 207.188 108.705 200.74 117.442C196.345 123.397 197.532 135.829 199.162 143.757C195.148 136.856 191.366 131.052 188.275 126.763C188.505 119.845 186.828 107.619 178.386 100.829C166.636 91.3764 156.033 93.3814 159.758 107.13C163.185 119.777 179.828 129.152 186.6 129.124Z" fill="#24255C"/>
<path d="M516.925 94.4183C521.142 101.339 528.969 118.618 526.543 132.371C520.692 131.01 508.587 128.433 506.978 129.019C513.174 131.627 525.714 137.237 526.311 138.816C524.729 146.8 519.241 165.739 509.949 177.623C503.143 175.686 488.882 172.153 486.287 173.517C491.917 175.907 503.8 181.164 506.29 183.071C504.614 186.1 500.874 192.465 499.324 193.688C493.165 191.715 479.599 188.299 474.605 190.416C478.907 193.664 488.144 201.425 490.669 206.492C481.315 222.693 466.768 246.009 436.512 267.141C434.122 266.465 428.601 265.412 427.186 264.251C429.061 266.187 433.093 269.269 434.505 269.294C429.499 272.388 417.09 279.899 407.21 282C387.692 256.182 385.088 235.979 386.225 229.104C391.562 228.538 407.546 222.913 414.871 220.172C410.156 220.93 395.741 216.76 389.122 214.581C388.556 213.889 389.138 211.058 389.5 209.729C391.543 210.409 402.946 211.508 409.792 212.095C404.934 211.342 394.997 207.971 390.056 206.159C408.496 143.115 441.303 107.959 455.402 98.2609C460.776 101.991 468.281 111.156 471.362 115.272C476.788 104.617 474.643 93.8991 472.893 89.8723C493.719 83.0078 510.925 90.0427 516.925 94.4183Z" fill="#2F3175"/>
<path d="M516.907 94C455.868 149.472 418.203 242.447 407 282C416.897 279.895 429.328 272.367 434.343 269.265C432.928 269.241 428.89 266.152 427.011 264.211C428.428 265.375 433.959 266.43 436.354 267.108C466.662 245.928 481.235 222.561 490.605 206.324C488.076 201.246 478.823 193.467 474.513 190.212C479.516 188.09 493.106 191.514 499.276 193.491C500.829 192.266 504.575 185.886 506.253 182.85C503.759 180.939 491.855 175.67 486.215 173.275C488.815 171.908 503.101 175.449 509.919 177.39C519.228 165.48 524.725 146.499 526.31 138.497C525.712 136.915 513.15 131.291 506.943 128.677C508.554 128.091 520.681 130.673 526.543 132.037C528.972 118.253 521.132 100.936 516.907 94Z" fill="#24255C"/>
<path d="M355.144 194.321C353.828 196.485 351.386 201.891 352.142 206.193C353.969 205.767 357.746 204.961 358.248 205.144C356.315 205.96 352.401 207.715 352.215 208.209C352.709 210.707 354.421 216.631 357.321 220.349C359.445 219.743 363.895 218.638 364.705 219.064C362.948 219.812 359.24 221.456 358.463 222.053C358.986 223.001 360.153 224.992 360.636 225.374C362.558 224.757 366.792 223.688 368.35 224.351C367.008 225.367 364.125 227.795 363.337 229.38C366.256 234.448 370.796 241.741 380.237 248.352C380.983 248.14 382.706 247.811 383.148 247.448C382.562 248.053 381.304 249.017 380.864 249.025C382.426 249.993 386.298 252.343 389.381 253C395.472 244.924 396.285 238.604 395.93 236.453C394.264 236.276 389.277 234.516 386.991 233.659C388.462 233.896 392.96 232.592 395.026 231.91C395.202 231.693 395.021 230.808 394.908 230.392C394.27 230.605 390.712 230.949 388.575 231.132C390.091 230.897 393.192 229.842 394.734 229.275C388.98 209.554 378.742 198.556 374.343 195.523C372.666 196.689 370.324 199.557 369.362 200.844C367.669 197.511 368.338 194.158 368.885 192.899C362.385 190.751 357.016 192.952 355.144 194.321Z" fill="#24255C"/>
<path d="M355.112 194C373.932 211.409 385.546 240.587 389 253C385.948 252.339 382.115 249.977 380.569 249.003C381.005 248.996 382.251 248.026 382.83 247.417C382.393 247.783 380.688 248.114 379.949 248.326C370.604 241.68 366.111 234.346 363.222 229.251C364.002 227.657 366.855 225.216 368.183 224.194C366.641 223.528 362.451 224.603 360.548 225.223C360.069 224.839 358.915 222.837 358.397 221.884C359.166 221.284 362.836 219.631 364.575 218.879C363.774 218.45 359.369 219.561 357.267 220.17C354.396 216.432 352.702 210.476 352.213 207.964C352.397 207.468 356.271 205.703 358.184 204.883C357.687 204.699 353.948 205.509 352.141 205.937C351.392 201.611 353.809 196.177 355.112 194Z" fill="#2F3175"/>
<path d="M389.866 177.267C392.845 178.028 411.147 161.325 410.02 143.988C408.893 126.65 394.691 133.828 390.597 142.607C386.503 151.387 382.751 166.402 389.866 177.267ZM389.866 177.267C388.244 182.69 386.428 189.915 384.846 198.101M382.12 215.507C383.067 210.09 388.119 197.4 400.758 189.97C416.558 180.683 417.324 199.242 407.515 209.842C396.965 221.244 382.242 224.66 382.12 215.507ZM382.12 215.507C382.498 212.323 382.94 209.189 383.427 206.14M382.12 215.507C381.015 224.821 380.454 234.554 380.899 243.799M384.846 198.101C384.345 200.693 383.867 203.382 383.427 206.14M384.846 198.101C384.132 188.35 379.697 168.553 367.669 167.371C352.635 165.893 356.511 186.943 363.048 195.269C369.584 203.595 379.986 211.283 383.427 206.14M380.899 243.799C377.593 233.452 368.515 213.398 358.657 215.949C346.336 219.139 349.027 238.841 361.742 247.228C371.914 253.937 379.345 254.221 381.789 253.524M380.899 243.799C381.059 247.117 381.348 250.373 381.789 253.524M381.789 253.524C383.582 244.476 392.61 220.005 409.825 225.7C417.532 228.25 413.57 237.347 402.735 247.616C394.254 255.655 384.626 262.616 383.349 261.704M381.789 253.524C382.183 256.345 382.698 259.081 383.349 261.704M383.349 261.704C384.408 265.967 385.826 269.929 387.67 273.46" stroke="#D7D9FA" stroke-width="2" stroke-linecap="round" stroke-linejoin="round"/>
<path d="M456.875 184.067C453.806 188.423 449.854 194.763 445.84 202.337C449.233 199.156 454.507 195.744 460.67 195.684C471.536 195.579 470.596 207.572 460.67 210.834C452.069 213.66 444.118 212.931 441.935 210.085C438.974 216.273 436.128 223.012 433.735 229.989C433.598 230.389 433.462 230.791 433.326 231.194C433.158 231.695 432.992 232.197 432.827 232.7C435.218 229.553 438.917 225.494 442.68 223.668C448.968 220.618 457.117 223.458 455.341 229.665C453.565 235.872 445.52 240.606 439.877 240.817C435.507 240.98 432.015 241.053 430.662 239.769C428.527 247.245 426.845 254.855 425.695 262.537C427.8 258.45 431.417 253.267 435.803 251.968C442.908 249.864 447.087 251.337 447.4 257.334C447.714 263.33 437.892 270.484 432.668 270.8C429.163 271.012 426.218 270.946 424.67 270.785C424.075 276.829 423.823 282.903 423.951 288.979L421.951 289.021C421.764 280.115 422.383 271.219 423.69 262.424C422.376 262.939 420.035 262.956 416.473 261.016C410.099 257.544 406.443 247.129 407.069 241.553C407.696 235.977 414.279 234.084 418.667 237.555C421.648 239.913 423.927 248.606 425.055 254.504C426.535 246.958 428.503 239.508 430.882 232.213C429.591 232.366 427.692 231.057 424.832 228.929C420.025 225.352 417.309 217.041 417.413 211.254C417.518 205.468 424.727 199.156 430.056 205.889C433.472 210.205 434.119 218.097 433.954 223.535C436.85 215.99 440.181 208.838 443.499 202.491C438.698 204.373 433.18 190.191 433.086 183.27C432.982 175.59 441.863 169.068 446.564 175.485C449.769 179.86 448.903 188.992 447.715 194.816C450.642 189.747 453.4 185.483 455.653 182.332C455.486 177.251 456.709 168.27 462.864 163.282C471.432 156.338 479.164 157.811 476.447 167.911C473.948 177.201 461.813 184.088 456.875 184.067Z" fill="#121334"/>
<path fill-rule="evenodd" clip-rule="evenodd" d="M253.872 157.787C251.181 158.29 249.408 160.879 249.911 163.569L253.857 184.682C254.36 187.373 256.949 189.146 259.64 188.643L301.865 180.75C304.556 180.247 306.33 177.658 305.827 174.967L301.88 153.855C301.377 151.164 298.788 149.39 296.097 149.893L253.872 157.787ZM264.513 187.733L265.727 194.229C265.977 195.567 267.648 196.046 268.568 195.043L277.505 185.304L264.513 187.733Z" fill="black" fill-opacity="0.11"/>
<path fill-rule="evenodd" clip-rule="evenodd" d="M247.872 154.787C245.181 155.29 243.408 157.879 243.911 160.569L247.857 181.682C248.36 184.373 250.949 186.146 253.64 185.643L295.865 177.75C298.556 177.247 300.33 174.658 299.827 171.967L295.88 150.855C295.377 148.164 292.788 146.39 290.097 146.893L247.872 154.787ZM258.513 184.733L259.727 191.229C259.977 192.567 261.648 193.046 262.568 192.043L271.505 182.304L258.513 184.733Z" fill="url(#paint001_linear)"/>
<path d="M272.67 167.937L269.864 172.033L273.96 174.84L276.767 170.743L272.67 167.937ZM271.06 160.815C268.797 159.265 265.707 159.842 264.157 162.105C262.607 164.368 263.185 167.458 265.447 169.008L271.06 160.815ZM279.792 166.327C281.342 164.064 280.764 160.973 278.501 159.424C276.239 157.874 273.148 158.451 271.598 160.714L279.792 166.327ZM275.476 163.84L271.06 160.815L265.447 169.008L269.864 172.033L275.476 163.84ZM271.598 160.714L268.573 165.13L276.767 170.743L279.792 166.327L271.598 160.714Z" fill="white"/>
<g filter="url(#filter0_d)">
<path fill-rule="evenodd" clip-rule="evenodd" d="M377.131 173.525C374.431 173.073 371.875 174.895 371.423 177.594L368.87 192.823C368.418 195.523 370.239 198.079 372.939 198.531L381.842 200.023C388.268 201.101 394.172 204.233 398.666 208.95V208.95C399.605 209.936 401.267 209.427 401.492 208.084L402.269 203.446C402.269 203.446 402.269 203.446 402.269 203.446V203.446C402.269 203.446 402.269 203.446 402.269 203.446L405.641 183.33C406.094 180.63 404.272 178.075 401.572 177.622L377.131 173.525Z" fill="black" fill-opacity="0.11"/>
</g>
<path fill-rule="evenodd" clip-rule="evenodd" d="M382.13 169.525C379.43 169.073 376.875 170.895 376.422 173.594L373.87 188.823C373.417 191.523 375.239 194.079 377.939 194.531L396.741 197.683L403.666 204.95C404.605 205.936 406.266 205.427 406.491 204.084L407.269 199.446L407.269 199.446L410.641 179.33C411.093 176.63 409.271 174.075 406.572 173.622L382.13 169.525Z" fill="#F97C80"/>
<rect x="382.719" y="176.389" width="22.6856" height="4.00334" rx="2.00167" transform="rotate(9.51549 382.719 176.389)" fill="#FFFEFE"/>
<rect x="381.395" y="184.285" width="22.6856" height="4.00334" rx="2.00167" transform="rotate(9.51549 381.395 184.285)" fill="#FFFEFE"/>
<path d="M254 231.155C260.544 230.93 276.745 226.687 289.2 211.524" stroke="#CA40CB" stroke-width="1.24103" stroke-linecap="round" stroke-linejoin="round"/>
<path d="M280.4 231.829C284.236 230.701 294.074 226.007 302.739 216.26" stroke="#CA40CB" stroke-width="1.24103" stroke-linecap="round" stroke-linejoin="round"/>
<path d="M386 133L278.369 174.969L305.409 193.246L369.754 149.246L319.43 202.723L351.477 224.385L386 133Z" fill="#DB43CE"/>
<path d="M369.754 149.246L305.409 193.246L319.43 202.723L369.754 149.246Z" fill="#882E84"/>
<path d="M305.409 193.246L314.923 225.739L319.43 202.723L305.409 193.246Z" fill="#882E84"/>
<g filter="url(#filter1_d)">
<rect x="4" y="256" width="677" height="33" rx="16" fill="#121334"/>
</g>
<g filter="url(#filter2_f)">
<path d="M666 256.376H19" stroke="url(#paint0001_linear)" stroke-width="3"/>
</g>
<defs>
<filter id="filter0_d" x="293" y="102.706" width="187.461" height="185.01" filterUnits="userSpaceOnUse" color-interpolation-filters="sRGB">
<feFlood flood-opacity="0" result="BackgroundImageFix"/>
<feColorMatrix in="SourceAlpha" type="matrix" values="0 0 0 0 0 0 0 0 0 0 0 0 0 0 0 0 0 0 127 0"/>
<feOffset dy="4"/>
<feGaussianBlur stdDeviation="37"/>
<feColorMatrix type="matrix" values="0 0 0 0 0 0 0 0 0 0 0 0 0 0 0 0 0 0 0.25 0"/>
<feBlend mode="normal" in2="BackgroundImageFix" result="effect1_dropShadow"/>
<feBlend mode="normal" in="SourceGraphic" in2="effect1_dropShadow" result="shape"/>
</filter>
<filter id="filter1_d" x="0" y="256" width="685" height="41" filterUnits="userSpaceOnUse" color-interpolation-filters="sRGB">
<feFlood flood-opacity="0" result="BackgroundImageFix"/>
<feColorMatrix in="SourceAlpha" type="matrix" values="0 0 0 0 0 0 0 0 0 0 0 0 0 0 0 0 0 0 127 0"/>
<feOffset dy="4"/>
<feGaussianBlur stdDeviation="2"/>
<feColorMatrix type="matrix" values="0 0 0 0 0 0 0 0 0 0 0 0 0 0 0 0 0 0 0.25 0"/>
<feBlend mode="normal" in2="BackgroundImageFix" result="effect1_dropShadow"/>
<feBlend mode="normal" in="SourceGraphic" in2="effect1_dropShadow" result="shape"/>
</filter>
<filter id="filter2_f" x="18" y="253.876" width="649" height="5" filterUnits="userSpaceOnUse" color-interpolation-filters="sRGB">
<feFlood flood-opacity="0" result="BackgroundImageFix"/>
<feBlend mode="normal" in="SourceGraphic" in2="BackgroundImageFix" result="shape"/>
<feGaussianBlur stdDeviation="0.5" result="effect1_foregroundBlur"/>
</filter>
<linearGradient id="paint001_linear" x1="298.348" y1="167.461" x2="243" y2="154.244" gradientUnits="userSpaceOnUse">
<stop stop-color="#FF855E"/>
<stop offset="0.0001" stop-color="#FF8960"/>
<stop offset="1" stop-color="#FFC77E"/>
</linearGradient>
<linearGradient id="paint0001_linear" x1="40.5988" y1="257.952" x2="643.9" y2="259.162" gradientUnits="userSpaceOnUse">
<stop stop-color="#A109D5" stop-opacity="0"/>
<stop offset="0.38159" stop-color="#C33EEE"/>
<stop offset="0.635417" stop-color="#F549AB"/>
<stop offset="0.985404" stop-color="#D8147F" stop-opacity="0"/>
</linearGradient>
</defs>
</svg>
