<svg width="143" height="116" fill="none" xmlns="http://www.w3.org/2000/svg">
  <path d="M138 8c2 3 6 12 5 19l-10-2 10 5c-1 4-4 14-9 20l-12-3 10 5-3 6c-3-1-10-3-12-2l8 8c-5 8-12 20-28 31l-4-2 3 3c-2 1-8 5-13 6-10-13-11-23-11-27l15-4-13-3v-2l10 1-10-3c9-32 26-49 33-54l8 8c3-5 2-11 1-13 10-3 19 1 22 3z" fill="#2F3175"/>
  <path d="M44 20c-2 3-5 9-4 15l8-2-8 4c1 3 3 11 7 15 2 0 8-2 9-1l-8 3 3 5c2-1 7-3 9-2l-6 7c4 6 9 15 21 23l4-1-3 2 11 5c7-10 8-18 8-21l-11-3 10-2v-2l-8 1 7-3c-7-24-20-38-25-42l-6 7c-2-4-2-8-1-10-8-3-15 0-17 2z" fill="#2F3175"/>
  <path d="M138 8c-31 27-50 74-55 94 5-1 11-5 13-6l-3-3 4 2c16-11 23-23 28-31l-9-8c3-1 10 1 13 2l3-6-10-5 12 2c5-6 8-15 9-19l-10-5 10 2c1-7-3-16-5-19z" fill="#24255C"/>
  <path d="M44 20c24 22 39 58 43 73l-11-5 3-2-3 1c-12-8-18-17-22-23l7-7-10 2-3-4 8-4c-1-1-7 1-9 1-4-4-6-12-7-15l8-4-8 2c-1-6 2-12 4-15z" fill="#24255C"/>
  <path d="M118 53l-5 9c1-2 4-4 7-4 5 0 5 6 0 8h-9a94 94 0 00-5 11c1-2 3-4 5-4 3-2 7-1 6 3-1 3-5 5-7 5h-5l-3 11c1-2 3-5 5-5 4-1 6-1 6 2s-4 7-7 7h-4v9h-1V92l-3-1c-3-1-5-7-5-9 0-3 4-4 6-3l3 9 3-11-3-2c-2-2-4-6-4-9s4-6 7-2l2 8 4-10c-2 1-5-6-5-10s5-7 7-4c2 2 1 7 0 10l4-6c0-3 1-7 4-10 4-3 8-3 7 2s-7 9-10 9z" fill="#121334"/>
  <rect x="30" y="48" width="70" height="33" rx="8" fill="#45479D"/>
  <rect x="28" y="58" width="74" height="44" rx="6" fill="#6264C4"/>
  <circle cx="65.5" cy="80.5" r="12.5" fill="#37398D"/>
  <path d="M71 81c1 0 1 0 0 0l-7-5-1 1v8l1 1 7-5z" fill="#F9F9FF"/>
  <path d="M12 40l7 11c-2-2-6-4-9-4-7 0-6 7 0 9 5 1 10 1 11-1a110 110 0 016 14l-6-6c-4-2-9 0-8 4s6 6 9 6h6l3 13-6-6c-5-1-7 0-7 3 0 4 5 8 9 8h4l1 11h1l-1-16c1 1 2 1 4-1 4-2 6-8 6-11s-4-5-7-2c-2 1-3 6-4 10l-3-14s2 0 3-2c3-2 5-7 5-10s-5-7-8-3c-2 2-2 7-2 10l-6-12c3 1 6-8 6-12s-5-8-8-4c-2 2-1 8 0 11l-5-7c0-3-1-9-5-11-5-5-9-4-8 2 2 6 9 10 12 10z" fill="#24255C"/>
</svg>
