<svg width="143" height="116" viewBox="0 0 143 116" fill="none" xmlns="http://www.w3.org/2000/svg">
<path d="M137.818 7.72929C139.938 11.2082 143.873 19.8947 142.654 26.8088C139.712 26.1244 133.626 24.8291 132.818 25.1235C135.932 26.4346 142.237 29.2552 142.537 30.0488C141.741 34.0625 138.983 43.5835 134.311 49.5577C130.89 48.584 123.72 46.808 122.416 47.4937C125.246 48.6951 131.22 51.3377 132.472 52.2964C131.629 53.8194 129.749 57.0192 128.97 57.634C125.874 56.6422 119.054 54.9247 116.543 55.9892C118.706 57.6217 123.349 61.5236 124.619 64.0708C119.917 72.2154 112.603 83.9364 97.3934 94.56C96.1917 94.2201 93.416 93.6909 92.7048 93.1072C93.6476 94.0805 95.6743 95.6298 96.3843 95.6421C93.8677 97.1979 87.6294 100.974 82.6626 102.03C72.8507 89.0506 71.5415 78.8942 72.1133 75.4383C74.7961 75.1538 82.8314 72.326 86.5137 70.9477C84.1436 71.3291 76.8968 69.2328 73.5697 68.137C73.2849 67.7892 73.5775 66.3661 73.7593 65.698C74.7865 66.0401 80.5191 66.5925 83.9608 66.8875C81.5186 66.5088 76.523 64.8144 74.0392 63.9034C83.3089 32.21 99.8018 14.5363 106.889 9.66103C109.591 11.5362 113.364 16.1437 114.913 18.2131C117.641 12.8562 116.563 7.46832 115.682 5.44395C126.152 1.99306 134.802 5.52964 137.818 7.72929Z" fill="#2F3175"/>
<path d="M43.9299 19.8912C42.2851 22.5884 39.2319 29.3227 40.1781 34.6831C42.4606 34.1525 47.1825 33.1482 47.8099 33.3765C45.3932 34.393 40.5015 36.5797 40.2688 37.195C40.8859 40.3067 43.0264 47.688 46.6512 52.3197C49.3061 51.5648 54.8688 50.188 55.8811 50.7195C53.6849 51.651 49.0497 53.6996 48.0785 54.4429C48.7322 55.6237 50.1908 58.1044 50.7956 58.581C53.198 57.8121 58.4898 56.4806 60.4378 57.3059C58.7595 58.5715 55.1567 61.5965 54.1717 63.5713C57.8202 69.8856 63.4949 78.9726 75.2966 87.2088C76.229 86.9453 78.3828 86.535 78.9346 86.0825C78.2031 86.8371 76.6305 88.0381 76.0796 88.0477C78.0323 89.2539 82.8728 92.1813 86.7266 93C94.3399 82.9375 95.3558 75.0635 94.9121 72.3843C92.8305 72.1636 86.5956 69.9713 83.7384 68.9028C85.5775 69.1985 91.2004 67.5733 93.782 66.7237C94.003 66.4541 93.776 65.3508 93.6349 64.8329C92.8379 65.098 88.3898 65.5263 85.7193 65.755C87.6143 65.4614 91.4905 64.1479 93.4177 63.4415C86.2251 38.8705 73.4279 25.1685 67.9284 21.3889C65.8319 22.8427 62.9045 26.4147 61.7028 28.019C59.5861 23.866 60.4228 19.6889 61.1057 18.1195C52.9818 15.4441 46.2702 18.1859 43.9299 19.8912Z" fill="#2F3175"/>
<path d="M137.809 7.51953C107.123 35.4063 88.1884 82.1463 82.5566 102.03C87.5321 100.972 93.7814 97.1876 96.3024 95.6284C95.5912 95.616 93.561 94.0633 92.6165 93.0878C93.3289 93.6728 96.1095 94.2032 97.3133 94.5439C112.55 83.8966 119.876 72.1494 124.586 63.9867C123.315 61.4338 118.663 57.5232 116.497 55.887C119.012 54.8201 125.844 56.5415 128.945 57.5355C129.726 56.9193 131.609 53.7124 132.453 52.186C131.199 51.2251 125.215 48.5767 122.38 47.3726C123.686 46.6854 130.868 48.4654 134.296 49.4412C138.975 43.4537 141.739 33.9115 142.536 29.8888C142.235 29.0935 135.92 26.2665 132.8 24.9525C133.61 24.6575 139.706 25.9556 142.653 26.6416C143.874 19.712 139.933 11.0062 137.809 7.51953Z" fill="#24255C"/>
<path d="M43.9529 20C67.86 41.5397 82.6123 77.6415 87 93C83.1236 92.1825 78.2548 89.2594 76.2907 88.0551C76.8448 88.0455 78.4266 86.8462 79.1624 86.0928C78.6073 86.5446 76.441 86.9543 75.5031 87.2174C63.6324 78.9935 57.9245 69.92 54.2546 63.6151C55.2454 61.6433 58.8693 58.6227 60.5574 57.359C58.598 56.5349 53.2752 57.8644 50.8588 58.6322C50.2504 58.1563 48.7833 55.6793 48.1258 54.5003C49.1026 53.7581 53.7649 51.7125 55.974 50.7824C54.9558 50.2516 49.3605 51.6265 46.6902 52.3802C43.0441 47.7555 40.8911 40.3851 40.2704 37.278C40.5045 36.6637 45.4247 34.4802 47.8556 33.4652C47.2245 33.2373 42.475 34.24 40.1792 34.7698C39.2275 29.4175 42.2985 22.6931 43.9529 20Z" fill="#24255C"/>
<path d="M118.073 52.6017C116.53 54.7915 114.544 57.9789 112.525 61.7863C114.231 60.1873 116.882 58.4718 119.981 58.4418C125.443 58.3889 124.971 64.4181 119.981 66.0577C115.657 67.4784 111.66 67.112 110.562 65.6812C109.074 68.7922 107.643 72.1799 106.44 75.6875C106.371 75.8886 106.303 76.0904 106.235 76.2931C106.15 76.5452 106.066 76.7976 105.984 77.0504C107.186 75.468 109.045 73.4278 110.937 72.51C114.098 70.9762 118.195 72.4042 117.302 75.5246C116.409 78.6449 112.364 81.0249 109.528 81.1307C107.331 81.2126 105.575 81.2497 104.895 80.6039C103.822 84.3622 102.976 88.188 102.398 92.05C103.457 89.995 105.275 87.3897 107.48 86.7368C111.051 85.679 113.152 86.4194 113.31 89.434C113.468 92.4486 108.53 96.045 105.904 96.2037C104.142 96.3101 102.661 96.2773 101.883 96.1963C101.584 99.2346 101.457 102.288 101.522 105.343L100.516 105.364C100.422 100.887 100.733 96.4147 101.39 91.993C100.73 92.2519 99.5527 92.2604 97.7622 91.2851C94.5582 89.5398 92.7197 84.3039 93.0349 81.5009C93.3501 78.6978 96.6592 77.7458 98.8653 79.4911C100.364 80.6766 101.51 85.0465 102.077 88.0114C102.821 84.2182 103.81 80.473 105.006 76.8052C104.357 76.8825 103.402 76.2245 101.964 75.1543C99.5481 73.3562 98.1825 69.178 98.235 66.2692C98.2875 63.3604 101.912 60.1871 104.591 63.5719C106.308 65.7418 106.633 69.7092 106.55 72.4428C108.006 68.6497 109.681 65.0546 111.349 61.8635C108.935 62.8095 106.161 55.6801 106.114 52.2011C106.061 48.3403 110.526 45.0612 112.89 48.2874C114.501 50.4865 114.066 55.0774 113.468 58.0054C114.94 55.4569 116.326 53.3137 117.459 51.7296C117.375 49.1751 117.99 44.6601 121.084 42.1524C125.391 38.6618 129.278 39.4023 127.912 44.4795C126.656 49.1498 120.555 52.612 118.073 52.6017Z" fill="#121334"/>
<rect x="30" y="48" width="70" height="33" rx="8" fill="#45479D"/>
<rect x="28" y="58" width="74" height="44" rx="6" fill="#6264C4"/>
<circle cx="65.5" cy="80.5" r="12.5" fill="#37398D"/>
<path d="M71.25 81.433C71.5833 81.2406 71.5833 80.7594 71.25 80.567L63.75 76.2369C63.4167 76.0444 63 76.285 63 76.6699V85.3301C63 85.715 63.4167 85.9556 63.75 85.7631L71.25 81.433Z" fill="#F9F9FF"/>
<path d="M12.0752 39.8451C13.9162 42.4247 16.2873 46.1796 18.6961 50.6648C16.66 48.7811 13.4961 46.7602 9.79808 46.7249C3.27827 46.6626 3.84248 53.7651 9.79808 55.6965C14.9588 57.3701 19.7294 56.9386 21.0391 55.2531C22.8154 58.9179 24.5235 62.9087 25.959 67.0407C26.0413 67.2775 26.123 67.5153 26.2042 67.7541C26.3052 68.051 26.4051 68.3484 26.5037 68.6463C25.0691 66.7822 22.8497 64.3787 20.5921 63.2975C16.8194 61.4907 11.9296 63.1729 12.9953 66.8488C14.061 70.5246 18.8882 73.3283 22.2735 73.4529C24.8955 73.5494 26.991 73.5931 27.8027 72.8323C29.0837 77.2597 30.0929 81.7665 30.7831 86.3161C29.5198 83.8953 27.35 80.8262 24.7184 80.057C20.4555 78.8109 17.9479 79.6832 17.7598 83.2344C17.5717 86.7857 23.4646 91.0223 26.5992 91.2092C28.7023 91.3346 30.4691 91.296 31.3977 91.2005C31.7548 94.7797 31.9062 98.377 31.8295 101.975L33.0292 102C33.1417 96.726 32.7705 91.4578 31.9862 86.2489C32.7744 86.5539 34.1793 86.5639 36.3162 85.415C40.1403 83.359 42.3345 77.1911 41.9583 73.889C41.5822 70.5869 37.6327 69.4655 34.9997 71.5215C33.2113 72.9179 31.8437 78.0658 31.1667 81.5585C30.279 77.0901 29.0984 72.6782 27.6705 68.3574C28.4457 68.4485 29.5848 67.6733 31.3009 66.4126C34.1847 64.2943 35.8147 59.3724 35.752 55.9457C35.6893 52.5191 31.3636 48.7809 28.1664 52.7683C26.1168 55.3244 25.7288 59.9981 25.8277 63.2184C24.0901 58.75 22.0914 54.5149 20.1006 50.7557C22.9813 51.8702 26.2919 43.4715 26.3484 39.3731C26.4111 34.825 21.0824 30.9622 18.2613 34.7627C16.3383 37.3533 16.8579 42.7616 17.5708 46.2108C15.8148 43.2086 14.1601 40.6838 12.808 38.8178C12.9085 35.8084 12.1746 30.4897 8.48158 27.5356C3.34095 23.4236 -1.29815 24.2959 0.331802 30.277C1.83113 35.7787 9.1124 39.8572 12.0752 39.8451Z" fill="#24255C"/>
</svg>
