<svg width="24" height="24" viewBox="0 0 24 24" fill="none" xmlns="http://www.w3.org/2000/svg">
<path d="M7.96679 23.8008C10.1576 23.8008 11.9336 22.0248 11.9336 19.834V15.8672H7.96679C5.77596 15.8672 4 17.6432 4 19.834C4 22.0248 5.77596 23.8008 7.96679 23.8008Z" fill="#0ACF83"/>
<path d="M4 11.9023C4 9.71151 5.77596 7.93555 7.96679 7.93555H11.9336V15.8691H7.96679C5.77596 15.8691 4 14.0931 4 11.9023Z" fill="#A259FF"/>
<path d="M4 3.9668C4 1.77598 5.77596 0 7.96679 0H11.9336V7.93359H7.96679C5.77596 7.93359 4 6.15755 4 3.9668Z" fill="#F24E1E"/>
<path d="M11.9297 0H15.8965C18.0873 0 19.8633 1.77598 19.8633 3.9668C19.8633 6.15755 18.0873 7.93359 15.8965 7.93359H11.9297V0Z" fill="#FF7262"/>
<path d="M19.8633 11.9023C19.8633 14.0931 18.0873 15.8691 15.8965 15.8691C13.7057 15.8691 11.9297 14.0931 11.9297 11.9023C11.9297 9.71151 13.7057 7.93555 15.8965 7.93555C18.0873 7.93555 19.8633 9.71151 19.8633 11.9023Z" fill="#1ABCFE"/>
</svg>
