<svg id="svg" version="1.1" xmlns="http://www.w3.org/2000/svg" xmlns:xlink="http://www.w3.org/1999/xlink" width="400" height="400" viewBox="0, 0, 400,400"><g id="svgg"><path id="path0" d="M0.149 6.032 C 0.302 9.417,0.601 12.361,0.813 12.573 C 1.026 12.786,1.200 14.066,1.200 15.418 C 1.200 17.368,1.365 18.026,2.000 18.600 C 2.611 19.153,2.800 19.832,2.800 21.476 C 2.800 22.660,3.045 24.027,3.344 24.514 C 3.644 25.001,4.110 26.705,4.381 28.300 C 4.651 29.895,5.036 31.200,5.236 31.200 C 5.436 31.200,5.600 32.628,5.600 34.373 C 5.600 37.195,5.689 37.574,6.400 37.800 C 7.099 38.022,7.200 38.405,7.200 40.827 C 7.200 42.409,7.372 43.600,7.600 43.600 C 7.829 43.600,8.000 44.812,8.000 46.437 C 8.000 48.938,8.095 49.300,8.800 49.484 C 9.508 49.669,9.600 50.030,9.600 52.633 C 9.600 55.162,9.711 55.631,10.400 56.000 C 11.072 56.360,11.200 56.838,11.200 58.990 C 11.200 60.400,11.380 61.664,11.600 61.800 C 11.820 61.936,12.000 63.038,12.000 64.250 C 12.000 66.687,12.506 68.000,13.446 68.000 C 13.968 68.000,14.021 68.402,13.786 70.595 C 13.552 72.782,13.610 73.229,14.154 73.438 C 14.647 73.627,14.800 74.240,14.800 76.019 C 14.800 77.303,14.980 78.464,15.200 78.600 C 15.420 78.736,15.600 79.197,15.600 79.624 C 15.600 80.051,15.780 80.400,16.000 80.400 C 16.233 80.400,16.400 81.724,16.400 83.573 C 16.400 86.395,16.489 86.774,17.200 87.000 C 17.890 87.219,18.000 87.605,18.000 89.803 C 18.000 91.206,18.180 92.464,18.400 92.600 C 18.620 92.736,18.800 94.084,18.800 95.597 C 18.800 97.995,18.902 98.379,19.600 98.600 C 20.293 98.820,20.400 99.205,20.400 101.480 C 20.400 103.565,20.557 104.242,21.162 104.767 C 21.709 105.242,21.984 106.158,22.138 108.014 C 22.598 113.594,23.096 116.436,23.695 116.914 C 24.093 117.231,24.395 118.444,24.564 120.400 C 24.706 122.050,24.997 123.460,25.211 123.533 C 25.425 123.607,25.600 124.552,25.600 125.633 C 25.600 126.715,25.780 127.600,26.000 127.600 C 26.220 127.600,26.400 128.050,26.400 128.600 C 26.400 129.150,26.580 129.600,26.800 129.600 C 27.027 129.600,27.200 130.771,27.200 132.312 C 27.200 134.565,27.335 135.121,28.000 135.600 C 28.654 136.071,28.800 136.635,28.800 138.688 C 28.800 140.096,28.976 141.200,29.200 141.200 C 29.431 141.200,29.600 142.466,29.600 144.197 C 29.600 146.760,29.716 147.265,30.400 147.693 C 30.840 147.968,31.200 148.509,31.200 148.896 C 31.200 149.362,31.508 149.600,32.112 149.600 C 32.613 149.600,33.283 149.960,33.600 150.400 C 33.917 150.840,34.389 151.200,34.648 151.200 C 34.907 151.200,36.145 151.740,37.400 152.400 C 38.655 153.060,40.191 153.600,40.814 153.600 C 41.595 153.600,42.025 153.848,42.200 154.400 C 42.340 154.840,42.719 155.200,43.043 155.200 C 43.777 155.200,46.759 156.702,47.503 157.446 C 47.808 157.751,48.541 158.000,49.132 158.000 C 49.774 158.000,50.409 158.322,50.707 158.800 C 50.982 159.240,51.555 159.600,51.980 159.600 C 52.405 159.600,52.864 159.780,53.000 160.000 C 53.136 160.220,53.756 160.400,54.377 160.400 C 55.170 160.400,55.569 160.638,55.716 161.200 C 55.853 161.724,56.262 162.000,56.901 162.000 C 57.437 162.000,58.202 162.360,58.600 162.800 C 58.998 163.240,59.746 163.600,60.262 163.600 C 60.778 163.600,61.200 163.780,61.200 164.000 C 61.200 164.220,61.757 164.400,62.437 164.400 C 63.326 164.400,63.732 164.619,63.878 165.177 C 63.996 165.628,64.566 166.061,65.236 166.208 C 65.871 166.347,66.494 166.628,66.619 166.831 C 66.745 167.034,67.288 167.200,67.828 167.200 C 68.367 167.200,69.116 167.560,69.493 168.000 C 69.870 168.440,70.544 168.800,70.993 168.800 C 71.441 168.800,72.032 169.160,72.307 169.600 C 72.590 170.052,73.240 170.400,73.803 170.400 C 74.352 170.400,74.800 170.580,74.800 170.800 C 74.800 171.020,75.300 171.200,75.912 171.200 C 76.565 171.200,77.261 171.530,77.600 172.000 C 77.917 172.440,78.486 172.800,78.865 172.800 C 79.243 172.800,79.664 172.980,79.800 173.200 C 79.936 173.420,80.533 173.600,81.127 173.600 C 81.757 173.600,82.406 173.918,82.685 174.364 C 82.947 174.784,83.710 175.249,84.381 175.396 C 85.051 175.543,85.600 175.877,85.600 176.138 C 85.600 176.617,88.971 178.000,90.140 178.000 C 90.487 178.000,90.965 178.360,91.200 178.800 C 91.472 179.309,92.038 179.600,92.752 179.600 C 93.370 179.600,94.202 179.960,94.600 180.400 C 94.998 180.840,95.746 181.200,96.262 181.200 C 96.778 181.200,97.200 181.380,97.200 181.600 C 97.200 181.820,97.532 182.000,97.938 182.000 C 98.344 182.000,99.002 182.360,99.400 182.800 C 99.801 183.243,100.632 183.600,101.262 183.600 C 101.888 183.600,102.400 183.780,102.400 184.000 C 102.400 184.220,102.760 184.400,103.200 184.400 C 103.640 184.400,104.000 184.580,104.000 184.800 C 104.000 185.020,104.341 185.200,104.757 185.200 C 105.174 185.200,105.618 185.470,105.745 185.800 C 105.871 186.130,106.223 186.400,106.526 186.400 C 106.829 186.400,107.493 186.760,108.000 187.200 C 108.507 187.640,109.435 188.000,110.061 188.000 C 110.688 188.000,111.200 188.180,111.200 188.400 C 111.200 188.620,111.610 188.800,112.112 188.800 C 112.613 188.800,113.283 189.160,113.600 189.600 C 113.939 190.070,114.635 190.400,115.288 190.400 C 115.900 190.400,116.400 190.547,116.400 190.726 C 116.400 191.175,119.515 192.800,120.376 192.800 C 120.761 192.800,121.402 193.160,121.800 193.600 C 122.198 194.040,123.017 194.400,123.619 194.400 C 124.224 194.400,124.818 194.669,124.945 195.000 C 125.071 195.330,125.631 195.600,126.187 195.600 C 126.786 195.600,127.200 195.828,127.200 196.157 C 127.200 196.757,128.037 197.200,129.171 197.200 C 129.559 197.200,130.202 197.560,130.600 198.000 C 130.998 198.440,131.645 198.800,132.038 198.800 C 132.431 198.800,132.864 198.980,133.000 199.200 C 133.136 199.420,133.777 199.600,134.424 199.600 C 135.333 199.600,135.600 199.781,135.600 200.400 C 135.600 200.844,135.333 201.200,135.000 201.200 C 134.670 201.200,134.400 201.020,134.400 200.800 C 134.400 200.580,133.528 200.400,132.462 200.400 C 131.032 200.400,130.334 200.190,129.800 199.600 C 129.275 199.020,128.568 198.800,127.226 198.800 C 125.835 198.800,125.234 198.602,124.800 198.000 C 124.338 197.359,123.765 197.200,121.912 197.200 C 120.637 197.200,119.600 197.021,119.600 196.800 C 119.600 196.580,118.830 196.400,117.888 196.400 C 116.635 196.400,116.022 196.186,115.600 195.600 C 115.161 194.991,114.565 194.800,113.098 194.800 C 112.020 194.800,110.749 194.523,110.212 194.171 C 109.684 193.825,108.745 193.582,108.126 193.631 C 106.104 193.792,105.200 193.610,105.200 193.043 C 105.200 192.352,104.332 192.000,102.628 192.000 C 101.897 192.000,100.917 191.648,100.400 191.200 C 99.725 190.615,98.903 190.400,97.339 190.400 C 96.162 190.400,95.200 190.220,95.200 190.000 C 95.200 189.779,94.149 189.600,92.847 189.600 C 90.830 189.600,90.463 189.486,90.284 188.800 C 90.109 188.132,89.738 188.000,88.037 188.000 C 86.917 188.000,86.000 187.820,86.000 187.600 C 86.000 187.380,85.640 187.200,85.200 187.200 C 84.760 187.200,84.400 187.020,84.400 186.800 C 84.400 186.580,83.500 186.400,82.400 186.400 C 81.300 186.400,80.400 186.220,80.400 186.000 C 80.400 185.774,79.267 185.600,77.800 185.600 C 75.494 185.600,75.200 185.512,75.200 184.825 C 75.200 183.979,72.141 183.218,71.167 183.821 C 70.872 184.003,70.779 183.958,70.934 183.707 C 71.256 183.186,69.917 182.813,67.703 182.805 C 66.444 182.801,65.878 182.594,65.507 182.000 C 65.103 181.354,64.574 181.200,62.750 181.200 C 60.830 181.200,60.462 181.081,60.284 180.400 C 60.110 179.734,59.738 179.600,58.061 179.600 C 56.953 179.600,55.936 179.420,55.800 179.200 C 55.664 178.980,54.613 178.800,53.465 178.800 C 51.835 178.800,51.250 178.624,50.800 178.000 C 50.329 177.346,49.765 177.200,47.712 177.200 C 46.209 177.200,45.200 177.030,45.200 176.776 C 45.200 176.530,44.568 176.404,43.700 176.476 C 41.495 176.658,41.359 178.535,43.373 180.993 C 44.158 181.951,44.800 183.109,44.800 183.567 C 44.800 184.133,45.056 184.400,45.600 184.400 C 46.168 184.400,46.400 184.667,46.400 185.320 C 46.400 186.643,47.284 188.364,48.100 188.628 C 48.556 188.775,48.800 189.263,48.800 190.027 C 48.800 190.933,48.982 191.200,49.600 191.200 C 50.222 191.200,50.400 191.467,50.400 192.400 C 50.400 193.060,50.580 193.600,50.800 193.600 C 51.020 193.600,51.200 193.917,51.200 194.304 C 51.200 194.691,51.560 195.232,52.000 195.507 C 52.440 195.782,52.800 196.371,52.800 196.816 C 52.800 197.261,53.054 197.722,53.363 197.841 C 53.673 197.960,54.145 198.585,54.412 199.229 C 54.679 199.873,55.055 200.400,55.249 200.400 C 55.442 200.400,55.600 200.940,55.600 201.600 C 55.600 202.533,55.778 202.800,56.400 202.800 C 56.933 202.800,57.200 203.067,57.200 203.600 C 57.200 204.040,57.380 204.400,57.600 204.400 C 57.820 204.400,58.000 204.928,58.000 205.573 C 58.000 206.395,58.240 206.822,58.800 207.000 C 59.292 207.156,59.600 207.605,59.600 208.165 C 59.600 208.666,59.960 209.402,60.400 209.800 C 60.840 210.198,61.200 210.856,61.200 211.262 C 61.200 211.668,61.357 212.000,61.550 212.000 C 61.742 212.000,62.008 212.540,62.140 213.200 C 62.272 213.860,62.612 214.400,62.895 214.400 C 63.384 214.400,64.046 215.355,64.629 216.900 C 64.774 217.285,65.052 217.600,65.247 217.600 C 65.441 217.600,65.600 217.870,65.600 218.200 C 65.600 218.530,65.780 218.800,66.000 218.800 C 66.220 218.800,66.400 219.267,66.400 219.837 C 66.400 220.538,66.659 220.943,67.200 221.084 C 67.640 221.199,68.000 221.605,68.000 221.985 C 68.000 222.995,69.125 225.086,69.810 225.348 C 70.134 225.473,70.400 226.047,70.400 226.625 C 70.400 227.338,70.656 227.742,71.200 227.884 C 71.640 227.999,72.000 228.418,72.000 228.814 C 72.000 229.796,73.290 231.994,73.868 231.997 C 74.126 231.999,74.455 232.540,74.600 233.200 C 74.745 233.860,75.029 234.400,75.232 234.400 C 75.434 234.400,75.600 234.760,75.600 235.200 C 75.600 235.640,75.780 236.000,76.000 236.000 C 76.220 236.000,76.400 236.270,76.400 236.600 C 76.400 236.930,76.580 237.200,76.800 237.200 C 77.020 237.200,77.200 237.667,77.200 238.237 C 77.200 238.938,77.459 239.343,78.000 239.484 C 78.443 239.600,78.800 240.030,78.800 240.447 C 78.800 240.861,78.980 241.200,79.200 241.200 C 79.420 241.200,79.600 241.667,79.600 242.237 C 79.600 242.938,79.859 243.343,80.400 243.484 C 80.902 243.615,81.200 244.030,81.200 244.598 C 81.200 245.095,81.472 245.728,81.805 246.004 C 82.137 246.280,82.771 247.322,83.212 248.320 C 83.654 249.318,84.371 250.385,84.807 250.690 C 85.243 250.996,85.600 251.595,85.600 252.023 C 85.600 252.450,85.780 252.800,86.000 252.800 C 86.220 252.800,86.400 253.120,86.400 253.512 C 86.400 253.903,86.760 254.483,87.200 254.800 C 87.662 255.133,88.000 255.835,88.000 256.461 C 88.000 257.195,88.259 257.628,88.800 257.800 C 89.240 257.940,89.600 258.374,89.600 258.765 C 89.600 259.882,90.798 262.000,91.429 262.000 C 91.773 262.000,92.000 262.402,92.000 263.010 C 92.000 263.725,92.299 264.133,93.024 264.409 C 93.587 264.623,93.932 264.987,93.790 265.217 C 93.647 265.447,93.817 266.071,94.166 266.604 C 94.514 267.136,94.800 267.808,94.800 268.098 C 94.800 268.387,95.160 268.883,95.600 269.200 C 96.040 269.517,96.400 270.097,96.400 270.488 C 96.400 270.880,96.536 271.200,96.702 271.200 C 96.869 271.200,97.244 271.740,97.536 272.400 C 98.083 273.636,100.400 274.171,101.000 273.200 C 101.136 272.980,102.414 272.800,103.840 272.800 C 105.881 272.800,106.617 272.629,107.292 272.000 C 107.925 271.411,108.704 271.200,110.252 271.200 C 111.407 271.200,112.464 271.020,112.600 270.800 C 112.736 270.580,113.782 270.396,114.924 270.391 C 116.366 270.385,117.305 270.144,118.000 269.600 C 118.703 269.050,119.634 268.815,121.137 268.809 C 122.905 268.802,123.310 268.667,123.476 268.031 C 123.642 267.398,124.145 267.228,126.338 267.065 C 131.418 266.687,133.994 266.129,134.764 265.242 C 135.368 264.546,135.948 264.400,138.123 264.400 C 139.570 264.400,140.864 264.220,141.000 264.000 C 141.136 263.780,142.137 263.600,143.224 263.600 C 144.311 263.600,145.200 263.420,145.200 263.200 C 145.200 262.980,145.549 262.800,145.976 262.800 C 146.403 262.800,146.864 262.620,147.000 262.400 C 147.136 262.180,147.822 262.014,148.524 262.032 C 149.226 262.049,149.575 262.154,149.300 262.265 C 149.025 262.376,148.800 262.707,148.800 263.002 C 148.800 263.296,148.260 263.655,147.600 263.800 C 146.775 263.981,146.400 264.303,146.400 264.832 C 146.400 265.333,146.122 265.600,145.600 265.600 C 145.160 265.600,144.800 265.780,144.800 266.000 C 144.800 266.220,144.272 266.400,143.627 266.400 C 142.805 266.400,142.378 266.640,142.200 267.200 C 142.034 267.722,141.595 268.000,140.934 268.000 C 140.324 268.000,139.475 268.478,138.800 269.200 C 138.111 269.938,137.279 270.400,136.640 270.400 C 135.867 270.400,135.600 270.605,135.600 271.200 C 135.600 271.738,135.333 272.000,134.786 272.000 C 133.896 272.000,132.209 272.948,131.084 274.080 C 130.691 274.476,130.059 274.800,129.681 274.800 C 129.302 274.800,128.768 275.160,128.493 275.600 C 128.218 276.040,127.635 276.400,127.197 276.400 C 126.758 276.400,126.400 276.580,126.400 276.800 C 126.400 277.020,126.080 277.200,125.688 277.200 C 125.297 277.200,124.717 277.560,124.400 278.000 C 124.083 278.440,123.591 278.800,123.306 278.800 C 122.678 278.800,121.321 279.553,120.245 280.500 C 119.807 280.885,119.123 281.200,118.725 281.200 C 118.267 281.200,118.000 281.494,118.000 282.000 C 118.000 282.522,117.733 282.800,117.232 282.800 C 116.138 282.800,114.039 284.074,113.772 284.900 C 113.631 285.337,113.142 285.600,112.469 285.600 C 111.826 285.600,111.191 285.922,110.893 286.400 C 110.618 286.840,110.035 287.200,109.597 287.200 C 109.158 287.200,108.800 287.380,108.800 287.600 C 108.800 287.820,108.483 288.000,108.096 288.000 C 107.709 288.000,107.168 288.360,106.893 288.800 C 106.618 289.240,106.035 289.600,105.597 289.600 C 105.158 289.600,104.800 289.780,104.800 290.000 C 104.800 290.220,104.430 290.400,103.979 290.400 C 103.025 290.400,100.400 292.370,100.400 293.086 C 100.400 293.353,100.040 293.765,99.600 294.000 C 99.160 294.235,98.800 294.832,98.800 295.326 C 98.800 295.819,98.440 296.483,98.000 296.800 C 97.560 297.117,97.200 297.697,97.200 298.088 C 97.200 298.480,97.020 298.800,96.800 298.800 C 96.580 298.800,96.400 299.139,96.400 299.553 C 96.400 299.970,96.043 300.400,95.600 300.516 C 95.071 300.654,94.800 301.062,94.800 301.720 C 94.800 302.267,94.510 302.826,94.155 302.962 C 93.745 303.119,93.585 303.501,93.717 304.005 C 93.872 304.596,93.727 304.800,93.153 304.800 C 92.619 304.800,92.308 305.161,92.147 305.965 C 92.011 306.643,91.598 307.212,91.157 307.327 C 90.660 307.457,90.400 307.881,90.400 308.563 C 90.400 309.133,90.220 309.600,90.000 309.600 C 89.780 309.600,89.600 309.948,89.600 310.373 C 89.600 310.798,89.240 311.260,88.800 311.400 C 88.289 311.562,88.000 312.005,88.000 312.627 C 88.000 313.162,87.820 313.600,87.600 313.600 C 87.380 313.600,87.200 313.830,87.200 314.112 C 87.200 314.393,86.840 314.883,86.400 315.200 C 85.930 315.539,85.600 316.235,85.600 316.888 C 85.600 317.718,85.405 318.000,84.832 318.000 C 84.303 318.000,83.981 318.375,83.800 319.200 C 83.655 319.860,83.371 320.400,83.168 320.400 C 82.966 320.400,82.800 320.739,82.800 321.153 C 82.800 321.570,82.443 322.000,82.000 322.116 C 81.417 322.268,81.200 322.662,81.200 323.563 C 81.200 324.368,81.001 324.800,80.629 324.800 C 79.991 324.800,78.800 326.923,78.800 328.061 C 78.800 328.533,78.511 328.800,78.000 328.800 C 77.475 328.800,77.200 329.067,77.200 329.576 C 77.200 330.003,77.020 330.464,76.800 330.600 C 76.580 330.736,76.400 331.153,76.400 331.527 C 76.400 331.901,76.056 332.422,75.636 332.685 C 75.216 332.947,74.755 333.692,74.613 334.340 C 74.471 334.988,74.032 335.603,73.637 335.706 C 73.198 335.821,72.710 336.603,72.380 337.721 C 72.049 338.843,71.563 339.621,71.120 339.737 C 70.724 339.840,70.400 340.262,70.400 340.674 C 70.400 341.086,70.040 341.683,69.600 342.000 C 69.160 342.317,68.800 342.897,68.800 343.288 C 68.800 343.680,68.620 344.000,68.400 344.000 C 68.180 344.000,68.000 344.320,68.000 344.712 C 68.000 345.103,67.640 345.683,67.200 346.000 C 66.760 346.317,66.400 346.897,66.400 347.288 C 66.400 347.680,66.220 348.000,66.000 348.000 C 65.780 348.000,65.600 348.328,65.600 348.728 C 65.600 349.128,65.138 349.857,64.573 350.348 C 64.009 350.839,63.618 351.455,63.705 351.716 C 63.793 351.978,63.445 352.522,62.932 352.925 C 62.419 353.328,62.000 353.915,62.000 354.229 C 62.000 354.543,61.820 354.800,61.600 354.800 C 61.380 354.800,61.200 355.120,61.200 355.512 C 61.200 355.903,60.840 356.483,60.400 356.800 C 59.960 357.117,59.600 357.614,59.600 357.905 C 59.600 358.196,59.240 358.820,58.800 359.292 C 58.360 359.764,58.000 360.387,58.000 360.675 C 58.000 360.964,57.820 361.200,57.600 361.200 C 57.380 361.200,57.200 361.577,57.200 362.037 C 57.200 362.538,56.879 362.959,56.400 363.084 C 55.867 363.223,55.600 363.630,55.600 364.300 C 55.600 364.853,55.285 365.600,54.900 365.959 C 54.063 366.739,53.265 367.938,52.942 368.900 C 52.812 369.285,52.453 369.600,52.143 369.600 C 51.834 369.600,51.471 370.144,51.338 370.808 C 51.205 371.473,50.940 372.114,50.748 372.232 C 50.557 372.350,50.400 372.776,50.400 373.177 C 50.400 373.578,50.040 374.001,49.600 374.116 C 49.084 374.251,48.800 374.662,48.800 375.274 C 48.800 375.796,48.440 376.483,48.000 376.800 C 47.560 377.117,47.200 377.697,47.200 378.088 C 47.200 378.480,47.020 378.800,46.800 378.800 C 46.580 378.800,46.400 379.139,46.400 379.553 C 46.400 379.970,46.043 380.400,45.600 380.516 C 45.121 380.641,44.800 381.062,44.800 381.563 C 44.800 382.023,44.485 382.739,44.100 383.153 C 42.739 384.616,42.000 385.771,42.000 386.435 C 42.000 386.804,41.640 387.201,41.200 387.316 C 40.659 387.457,40.400 387.862,40.400 388.563 C 40.400 389.133,40.220 389.600,40.000 389.600 C 39.780 389.600,39.600 389.948,39.600 390.373 C 39.600 390.798,39.240 391.260,38.800 391.400 C 38.289 391.562,38.000 392.005,38.000 392.627 C 38.000 393.162,37.820 393.600,37.600 393.600 C 37.380 393.600,37.200 393.830,37.200 394.112 C 37.200 394.393,36.840 394.883,36.400 395.200 C 35.960 395.517,35.600 396.194,35.600 396.705 C 35.600 397.216,35.240 398.020,34.800 398.492 C 34.360 398.964,34.000 399.521,34.000 399.728 C 34.000 400.226,40.000 399.839,40.341 399.319 C 40.483 399.101,41.095 398.802,41.700 398.654 C 42.305 398.506,42.800 398.118,42.800 397.792 C 42.800 397.405,43.203 397.200,43.967 397.200 C 44.608 397.200,45.193 397.056,45.267 396.880 C 45.443 396.456,49.171 394.400,49.762 394.400 C 50.016 394.400,50.483 394.040,50.800 393.600 C 51.117 393.160,51.776 392.800,52.265 392.800 C 52.753 392.800,53.264 392.620,53.400 392.400 C 53.536 392.180,53.953 392.000,54.327 392.000 C 54.701 392.000,55.232 391.640,55.507 391.200 C 55.782 390.760,56.359 390.400,56.789 390.400 C 57.220 390.400,57.765 390.040,58.000 389.600 C 58.250 389.132,58.838 388.800,59.414 388.800 C 59.956 388.800,60.400 388.643,60.400 388.450 C 60.400 388.257,60.940 387.992,61.600 387.860 C 62.304 387.719,62.800 387.368,62.800 387.010 C 62.800 386.637,63.164 386.400,63.738 386.400 C 64.254 386.400,65.003 386.039,65.403 385.597 C 66.300 384.605,68.262 383.600,69.299 383.600 C 69.738 383.600,70.166 383.253,70.284 382.800 C 70.432 382.233,70.830 382.000,71.647 382.000 C 72.281 382.000,72.800 381.820,72.800 381.600 C 72.800 381.380,73.120 381.200,73.512 381.200 C 73.903 381.200,74.483 380.840,74.800 380.400 C 75.117 379.960,75.785 379.600,76.285 379.600 C 76.784 379.600,77.418 379.240,77.693 378.800 C 77.968 378.360,78.359 378.000,78.562 378.000 C 79.437 378.000,82.000 376.601,82.000 376.123 C 82.000 375.835,82.425 375.600,82.944 375.600 C 83.484 375.600,84.209 375.172,84.639 374.600 C 85.123 373.956,85.783 373.600,86.495 373.600 C 87.103 373.600,87.600 373.420,87.600 373.200 C 87.600 372.980,88.157 372.800,88.837 372.800 C 89.738 372.800,90.132 372.583,90.284 372.000 C 90.400 371.557,90.830 371.200,91.247 371.200 C 91.661 371.200,92.000 371.020,92.000 370.800 C 92.000 370.580,92.467 370.400,93.037 370.400 C 93.738 370.400,94.143 370.141,94.284 369.600 C 94.432 369.033,94.830 368.800,95.647 368.800 C 96.281 368.800,96.800 368.655,96.800 368.479 C 96.800 368.058,100.617 366.000,101.397 366.000 C 101.733 366.000,102.000 365.646,102.000 365.200 C 102.000 364.592,102.267 364.400,103.112 364.400 C 103.765 364.400,104.461 364.070,104.800 363.600 C 105.117 363.160,105.686 362.800,106.065 362.800 C 106.443 362.800,106.864 362.620,107.000 362.400 C 107.136 362.180,107.703 362.000,108.261 362.000 C 108.938 362.000,109.344 361.735,109.484 361.200 C 109.632 360.633,110.030 360.400,110.847 360.400 C 111.481 360.400,112.000 360.220,112.000 360.000 C 112.000 359.780,112.467 359.600,113.037 359.600 C 113.738 359.600,114.143 359.341,114.284 358.800 C 114.418 358.289,114.830 358.000,115.424 358.000 C 115.936 358.000,116.593 357.685,116.884 357.300 C 117.463 356.535,119.784 355.200,120.536 355.200 C 120.795 355.200,121.232 354.840,121.507 354.400 C 121.782 353.960,122.365 353.600,122.803 353.600 C 123.242 353.600,123.600 353.420,123.600 353.200 C 123.600 352.980,124.100 352.800,124.712 352.800 C 125.365 352.800,126.061 352.470,126.400 352.000 C 126.746 351.519,127.435 351.200,128.126 351.200 C 128.938 351.200,129.336 350.966,129.484 350.400 C 129.600 349.957,130.030 349.600,130.447 349.600 C 130.861 349.600,131.200 349.442,131.200 349.250 C 131.200 349.058,131.740 348.792,132.400 348.660 C 133.104 348.519,133.600 348.168,133.600 347.810 C 133.600 347.428,133.969 347.200,134.586 347.200 C 135.162 347.200,135.750 346.868,136.000 346.400 C 136.235 345.960,136.769 345.600,137.186 345.600 C 137.602 345.600,138.213 345.330,138.543 345.000 C 138.873 344.670,139.494 344.400,139.922 344.400 C 140.351 344.400,140.923 344.134,141.193 343.808 C 141.741 343.148,143.882 342.000,144.565 342.000 C 144.809 342.000,145.232 341.640,145.507 341.200 C 145.810 340.715,146.440 340.400,147.107 340.400 C 147.774 340.400,148.404 340.085,148.707 339.600 C 148.982 339.160,149.555 338.800,149.980 338.800 C 150.405 338.800,150.850 338.643,150.968 338.452 C 151.086 338.260,151.727 337.995,152.392 337.862 C 153.067 337.727,153.600 337.365,153.600 337.042 C 153.600 336.724,154.105 336.353,154.722 336.217 C 155.340 336.081,156.099 335.617,156.411 335.185 C 156.722 334.753,157.286 334.400,157.665 334.400 C 158.043 334.400,158.464 334.220,158.600 334.000 C 158.736 333.780,159.153 333.600,159.527 333.600 C 159.901 333.600,160.432 333.240,160.707 332.800 C 160.982 332.360,161.565 332.000,162.003 332.000 C 162.442 332.000,162.800 331.820,162.800 331.600 C 162.800 331.380,163.222 331.200,163.738 331.200 C 164.254 331.200,165.002 330.840,165.400 330.400 C 165.798 329.960,166.536 329.600,167.039 329.600 C 167.543 329.600,168.190 329.285,168.477 328.900 C 169.021 328.172,170.354 327.431,171.900 326.998 C 172.395 326.860,172.800 326.488,172.800 326.173 C 172.800 325.858,173.147 325.600,173.571 325.600 C 173.996 325.600,174.613 325.330,174.943 325.000 C 175.273 324.670,175.826 324.400,176.171 324.400 C 176.517 324.400,176.800 324.220,176.800 324.000 C 176.800 323.780,177.070 323.600,177.400 323.600 C 177.730 323.600,178.000 323.420,178.000 323.200 C 178.000 322.980,178.521 322.800,179.157 322.800 C 179.800 322.800,180.414 322.542,180.537 322.219 C 180.660 321.900,181.550 321.278,182.515 320.839 C 183.480 320.399,184.501 319.761,184.784 319.420 C 185.066 319.079,185.724 318.800,186.246 318.800 C 186.767 318.800,187.418 318.440,187.693 318.000 C 187.968 317.560,188.475 317.200,188.820 317.200 C 189.165 317.200,189.796 316.936,190.224 316.613 C 190.651 316.290,191.405 316.020,191.900 316.013 C 192.529 316.004,192.800 315.759,192.800 315.200 C 192.800 314.667,193.067 314.400,193.600 314.400 C 194.040 314.400,194.400 314.220,194.400 314.000 C 194.400 313.780,194.760 313.600,195.200 313.600 C 195.640 313.600,196.000 313.420,196.000 313.200 C 196.000 312.980,196.270 312.800,196.600 312.800 C 196.930 312.800,197.200 312.620,197.200 312.400 C 197.200 312.180,197.697 312.000,198.304 312.000 C 198.974 312.000,199.604 311.686,199.907 311.200 C 200.182 310.760,200.765 310.400,201.203 310.400 C 201.642 310.400,202.000 310.220,202.000 310.000 C 202.000 309.780,202.422 309.600,202.938 309.600 C 203.454 309.600,204.202 309.240,204.600 308.800 C 204.998 308.360,205.538 308.000,205.800 308.000 C 206.062 308.000,206.602 307.640,207.000 307.200 C 207.398 306.760,208.034 306.400,208.413 306.400 C 208.792 306.400,209.326 306.130,209.600 305.800 C 209.874 305.470,210.526 305.200,211.049 305.200 C 211.733 305.200,212.000 304.976,212.000 304.400 C 212.000 303.778,212.267 303.600,213.200 303.600 C 213.860 303.600,214.400 303.420,214.400 303.200 C 214.400 302.980,214.678 302.800,215.017 302.800 C 215.356 302.800,216.020 302.440,216.492 302.000 C 216.964 301.560,217.745 301.200,218.226 301.200 C 218.708 301.200,219.334 300.921,219.616 300.580 C 219.899 300.239,220.882 299.618,221.800 299.200 C 222.718 298.782,223.701 298.161,223.984 297.820 C 224.266 297.479,224.829 297.200,225.233 297.200 C 225.638 297.200,226.291 296.855,226.684 296.432 C 227.078 296.010,227.895 295.541,228.500 295.389 C 229.105 295.237,229.600 294.953,229.600 294.757 C 229.600 294.560,230.067 294.400,230.637 294.400 C 231.338 294.400,231.743 294.141,231.884 293.600 C 232.000 293.157,232.430 292.800,232.847 292.800 C 233.261 292.800,233.600 292.620,233.600 292.400 C 233.600 292.180,234.128 292.000,234.773 292.000 C 235.595 292.000,236.022 291.760,236.200 291.200 C 236.366 290.678,236.805 290.400,237.464 290.400 C 238.138 290.400,238.545 290.134,238.684 289.600 C 238.821 289.077,239.230 288.800,239.867 288.800 C 241.126 288.800,245.095 286.694,246.000 285.546 C 246.464 284.958,249.289 283.600,250.050 283.600 C 250.538 283.600,250.960 283.274,251.084 282.800 C 251.232 282.233,251.630 282.000,252.447 282.000 C 253.081 282.000,253.600 281.841,253.600 281.647 C 253.600 281.452,253.915 281.190,254.300 281.064 C 254.685 280.938,255.900 280.279,257.000 279.600 C 258.100 278.921,259.315 278.262,259.700 278.136 C 260.085 278.010,260.400 277.748,260.400 277.553 C 260.400 277.359,260.856 277.200,261.413 277.200 C 261.969 277.200,262.528 276.932,262.654 276.604 C 262.780 276.276,263.569 275.802,264.409 275.550 C 265.310 275.280,266.015 274.787,266.130 274.346 C 266.256 273.866,266.686 273.600,267.339 273.600 C 267.897 273.600,268.464 273.420,268.600 273.200 C 268.736 272.980,269.303 272.800,269.861 272.800 C 270.538 272.800,270.944 272.535,271.084 272.000 C 271.199 271.560,271.605 271.200,271.985 271.200 C 272.995 271.200,275.086 270.075,275.348 269.390 C 275.473 269.066,275.905 268.800,276.307 268.800 C 278.046 268.800,278.000 270.139,278.000 219.174 C 278.000 171.114,278.010 170.495,278.800 169.491 C 279.240 168.931,279.600 168.199,279.600 167.864 C 279.600 167.528,279.960 167.140,280.400 167.000 C 280.840 166.860,281.200 166.398,281.200 165.973 C 281.200 165.548,281.380 165.200,281.600 165.200 C 281.820 165.200,282.000 164.660,282.000 164.000 C 282.000 163.067,282.178 162.800,282.800 162.800 C 283.254 162.800,283.600 162.533,283.600 162.183 C 283.600 161.844,283.960 161.180,284.400 160.708 C 284.840 160.236,285.200 159.632,285.200 159.367 C 285.200 159.102,285.470 158.782,285.800 158.655 C 286.130 158.529,286.400 158.189,286.400 157.901 C 286.400 157.613,286.760 157.070,287.200 156.693 C 287.640 156.316,288.000 155.646,288.000 155.204 C 288.000 154.762,288.180 154.400,288.400 154.400 C 288.620 154.400,288.800 154.040,288.800 153.600 C 288.800 153.150,289.067 152.800,289.410 152.800 C 289.745 152.800,290.177 152.388,290.368 151.884 C 290.560 151.380,291.005 150.727,291.358 150.435 C 291.711 150.142,292.000 149.564,292.000 149.151 C 292.000 148.738,292.180 148.400,292.400 148.400 C 292.620 148.400,292.800 148.164,292.800 147.875 C 292.800 147.587,293.160 146.964,293.600 146.492 C 294.040 146.020,294.400 145.356,294.400 145.017 C 294.400 144.678,294.568 144.400,294.773 144.400 C 294.978 144.400,295.260 144.040,295.400 143.600 C 295.540 143.160,295.916 142.800,296.237 142.800 C 296.565 142.800,296.925 142.275,297.060 141.600 C 297.192 140.940,297.552 140.400,297.860 140.400 C 298.168 140.400,298.528 139.860,298.660 139.200 C 298.792 138.540,299.058 138.000,299.250 138.000 C 299.442 138.000,299.600 137.652,299.600 137.227 C 299.600 136.802,299.960 136.340,300.400 136.200 C 300.960 136.022,301.200 135.595,301.200 134.773 C 301.200 133.966,301.399 133.600,301.837 133.600 C 302.188 133.600,302.569 133.240,302.684 132.800 C 302.799 132.360,303.052 132.000,303.247 132.000 C 303.441 132.000,303.600 131.680,303.600 131.288 C 303.600 130.897,303.960 130.317,304.400 130.000 C 304.840 129.683,305.200 129.103,305.200 128.712 C 305.200 128.320,305.359 128.000,305.554 128.000 C 305.749 128.000,306.208 127.370,306.573 126.600 C 306.939 125.830,307.409 125.200,307.619 125.200 C 307.828 125.200,308.000 124.861,308.000 124.447 C 308.000 124.030,308.357 123.600,308.800 123.484 C 309.341 123.343,309.600 122.938,309.600 122.237 C 309.600 121.667,309.780 121.200,310.000 121.200 C 310.220 121.200,310.400 120.861,310.400 120.447 C 310.400 120.030,310.757 119.600,311.200 119.484 C 311.734 119.345,312.000 118.938,312.000 118.264 C 312.000 117.605,312.278 117.166,312.800 117.000 C 313.240 116.860,313.600 116.398,313.600 115.973 C 313.600 115.548,313.780 115.200,314.000 115.200 C 314.220 115.200,314.400 114.660,314.400 114.000 C 314.400 113.106,314.586 112.800,315.129 112.800 C 315.591 112.800,316.180 112.156,316.735 111.044 C 317.218 110.078,317.880 109.066,318.206 108.795 C 318.533 108.524,318.800 108.060,318.800 107.765 C 318.800 107.470,319.160 107.035,319.600 106.800 C 320.040 106.565,320.400 106.008,320.400 105.564 C 320.400 105.120,320.939 104.181,321.598 103.478 C 322.257 102.775,322.797 102.057,322.798 101.883 C 322.799 101.709,323.160 101.180,323.600 100.708 C 324.532 99.707,324.649 97.792,323.829 96.971 C 323.164 96.307,318.591 96.168,318.200 96.800 C 318.064 97.020,316.703 97.200,315.176 97.200 C 313.592 97.200,312.400 97.372,312.400 97.600 C 312.400 97.820,312.130 98.000,311.800 98.000 C 311.470 98.000,311.200 98.180,311.200 98.400 C 311.200 98.633,309.867 98.800,308.000 98.800 C 305.067 98.800,304.800 98.867,304.800 99.600 C 304.800 100.337,304.533 100.400,301.400 100.400 C 299.400 100.400,298.000 100.565,298.000 100.800 C 298.000 101.030,296.754 101.200,295.062 101.200 C 292.632 101.200,291.999 101.338,291.400 102.000 C 290.808 102.654,290.168 102.800,287.900 102.800 C 286.277 102.800,284.682 103.035,284.062 103.365 C 283.478 103.675,281.695 104.154,280.100 104.429 C 278.505 104.704,277.200 105.079,277.200 105.264 C 277.200 105.449,275.788 105.600,274.062 105.600 C 271.432 105.600,270.807 105.730,270.200 106.400 C 269.593 107.070,268.968 107.200,266.338 107.200 C 264.513 107.200,263.200 107.367,263.200 107.600 C 263.200 107.828,262.025 108.000,260.475 108.000 C 258.304 108.000,257.577 108.162,256.892 108.800 C 256.194 109.450,255.481 109.600,253.079 109.600 C 250.632 109.600,250.000 109.738,249.400 110.400 C 248.802 111.061,248.168 111.200,245.762 111.200 C 244.159 111.200,242.736 111.380,242.600 111.600 C 242.464 111.820,241.185 112.000,239.758 112.000 C 237.506 112.000,237.028 112.135,236.136 113.027 C 235.271 113.892,234.874 114.015,233.622 113.804 C 232.096 113.546,229.600 115.157,229.600 116.400 C 229.600 116.663,229.060 117.383,228.400 118.000 C 227.740 118.617,227.200 119.344,227.200 119.617 C 227.200 119.890,226.660 120.629,226.000 121.260 C 225.340 121.891,224.800 122.575,224.800 122.781 C 224.800 122.986,224.456 123.396,224.035 123.691 C 223.614 123.985,222.951 124.895,222.561 125.713 C 222.171 126.531,221.611 127.200,221.316 127.200 C 221.021 127.200,220.623 127.612,220.432 128.116 C 220.240 128.620,219.795 129.273,219.442 129.565 C 219.089 129.858,218.800 130.346,218.800 130.649 C 218.800 130.952,218.620 131.200,218.400 131.200 C 218.180 131.200,218.000 131.539,218.000 131.953 C 218.000 132.370,217.643 132.800,217.200 132.916 C 216.760 133.031,216.400 133.418,216.400 133.776 C 216.400 134.134,215.770 135.057,215.000 135.827 C 214.230 136.597,213.600 137.401,213.600 137.613 C 213.600 137.826,213.375 138.001,213.100 138.003 C 212.825 138.005,212.184 138.735,211.675 139.625 C 211.167 140.515,210.492 141.343,210.175 141.465 C 209.859 141.586,209.600 141.987,209.600 142.354 C 209.600 142.722,209.240 143.283,208.800 143.600 C 208.360 143.917,208.000 144.425,208.000 144.728 C 208.000 145.031,207.460 145.783,206.800 146.400 C 206.140 147.017,205.600 147.765,205.600 148.064 C 205.600 148.363,204.974 149.146,204.209 149.804 C 203.443 150.462,202.813 151.182,202.809 151.404 C 202.804 151.626,202.440 152.032,202.000 152.307 C 201.560 152.582,201.200 153.120,201.200 153.503 C 201.198 154.997,199.432 156.434,198.264 155.891 C 197.682 155.621,197.205 155.265,197.203 155.100 C 197.201 154.935,196.823 154.800,196.363 154.800 C 195.855 154.800,195.441 154.477,195.311 153.980 C 195.179 153.477,194.651 153.070,193.948 152.930 C 193.317 152.803,192.800 152.545,192.800 152.355 C 192.800 151.786,191.461 150.400,190.911 150.400 C 190.630 150.400,190.400 150.138,190.400 149.819 C 190.400 149.499,189.770 148.939,189.000 148.573 C 188.230 148.208,187.600 147.749,187.600 147.554 C 187.600 147.359,187.359 147.200,187.064 147.200 C 186.769 147.200,185.670 146.390,184.622 145.400 C 183.574 144.410,182.555 143.600,182.358 143.600 C 182.161 143.600,182.000 143.333,182.000 143.008 C 182.000 142.682,181.528 142.297,180.950 142.152 C 180.373 142.007,179.408 141.373,178.807 140.744 C 178.205 140.115,177.584 139.600,177.425 139.600 C 177.267 139.600,176.446 138.880,175.600 138.000 C 174.754 137.120,173.779 136.400,173.431 136.400 C 173.084 136.400,172.800 136.220,172.800 136.000 C 172.800 135.780,172.440 135.600,172.000 135.600 C 171.560 135.600,171.200 135.347,171.200 135.037 C 171.200 134.422,167.554 131.200,166.859 131.200 C 166.622 131.200,166.235 130.840,166.000 130.400 C 165.765 129.960,165.353 129.591,165.086 129.580 C 164.819 129.570,163.880 128.851,163.000 127.983 C 162.120 127.116,161.203 126.404,160.962 126.403 C 160.721 126.401,160.198 126.040,159.800 125.600 C 159.402 125.160,158.834 124.800,158.538 124.800 C 158.242 124.800,158.000 124.536,158.000 124.214 C 158.000 123.892,157.595 123.415,157.100 123.155 C 156.605 122.895,155.703 122.168,155.097 121.541 C 154.490 120.913,153.725 120.400,153.397 120.400 C 153.068 120.400,152.800 120.220,152.800 120.000 C 152.800 119.780,152.440 119.600,152.000 119.600 C 151.467 119.600,151.200 119.333,151.200 118.800 C 151.200 118.283,150.933 118.000,150.447 118.000 C 150.030 118.000,149.600 117.643,149.484 117.200 C 149.369 116.760,148.988 116.400,148.637 116.400 C 148.287 116.400,148.000 116.220,148.000 116.000 C 148.000 115.780,147.730 115.600,147.400 115.600 C 147.070 115.600,146.800 115.420,146.800 115.200 C 146.800 114.980,146.575 114.794,146.300 114.787 C 146.025 114.780,144.992 113.970,144.005 112.987 C 143.018 112.004,142.023 111.200,141.794 111.200 C 141.564 111.200,141.117 110.840,140.800 110.400 C 140.483 109.960,139.969 109.600,139.659 109.600 C 139.070 109.600,137.600 108.128,137.600 107.539 C 137.600 107.352,137.364 107.200,137.075 107.200 C 136.787 107.200,136.164 106.840,135.692 106.400 C 135.220 105.960,134.556 105.600,134.217 105.600 C 133.867 105.600,133.600 105.254,133.600 104.800 C 133.600 104.360,133.375 103.999,133.100 103.998 C 132.825 103.997,132.059 103.502,131.398 102.898 C 129.255 100.939,126.475 98.800,126.073 98.800 C 125.858 98.800,124.762 97.900,123.639 96.800 C 122.515 95.700,121.327 94.800,120.998 94.800 C 120.669 94.800,120.400 94.632,120.400 94.427 C 120.400 94.222,120.040 93.940,119.600 93.800 C 119.160 93.660,118.800 93.284,118.800 92.963 C 118.800 92.643,118.370 92.217,117.845 92.017 C 117.320 91.818,116.428 91.192,115.863 90.627 C 115.299 90.062,114.558 89.600,114.218 89.600 C 113.878 89.600,113.600 89.324,113.600 88.987 C 113.600 88.651,113.285 88.256,112.900 88.110 C 112.515 87.965,111.397 87.068,110.415 86.117 C 109.433 85.167,107.858 84.015,106.915 83.559 C 105.972 83.102,105.200 82.469,105.200 82.152 C 105.200 81.834,104.894 81.457,104.519 81.314 C 104.145 81.170,103.308 80.546,102.660 79.926 C 102.012 79.307,101.326 78.800,101.137 78.800 C 100.948 78.800,100.228 78.260,99.537 77.600 C 98.846 76.940,98.038 76.400,97.741 76.400 C 97.443 76.400,97.200 76.126,97.200 75.790 C 97.200 75.455,96.795 75.025,96.300 74.836 C 95.805 74.647,95.057 74.111,94.638 73.646 C 94.219 73.181,93.704 72.800,93.494 72.800 C 93.284 72.800,92.344 72.035,91.405 71.100 C 88.911 68.615,88.081 68.000,87.222 68.000 C 86.800 68.000,86.340 67.640,86.200 67.200 C 86.060 66.760,85.675 66.400,85.344 66.400 C 84.579 66.400,83.600 65.433,83.600 64.677 C 83.600 64.358,83.073 63.879,82.429 63.612 C 81.785 63.345,81.160 62.873,81.041 62.563 C 80.922 62.254,80.549 62.000,80.213 62.000 C 79.876 62.000,79.600 61.820,79.600 61.600 C 79.600 61.380,79.240 61.200,78.800 61.200 C 78.360 61.200,78.000 60.970,78.000 60.689 C 78.000 60.029,76.566 58.800,75.795 58.800 C 75.467 58.800,75.200 58.442,75.200 58.000 C 75.200 57.378,74.933 57.200,74.000 57.200 C 73.067 57.200,72.800 57.022,72.800 56.400 C 72.800 55.960,72.538 55.600,72.218 55.600 C 71.898 55.600,70.606 54.610,69.347 53.400 C 68.087 52.190,66.819 51.200,66.529 51.200 C 66.238 51.200,66.000 51.020,66.000 50.800 C 66.000 50.580,65.640 50.400,65.200 50.400 C 64.667 50.400,64.400 50.133,64.400 49.600 C 64.400 49.134,64.133 48.800,63.760 48.800 C 63.409 48.800,62.617 48.260,62.000 47.600 C 61.383 46.940,60.591 46.400,60.240 46.400 C 59.888 46.400,59.600 46.113,59.600 45.763 C 59.600 45.412,59.252 45.034,58.828 44.923 C 58.403 44.812,57.959 44.469,57.840 44.161 C 57.722 43.852,57.410 43.600,57.146 43.600 C 56.883 43.600,56.382 43.338,56.034 43.017 C 53.312 40.515,52.168 39.600,51.763 39.600 C 51.505 39.600,51.199 39.240,51.084 38.800 C 50.969 38.360,50.588 38.000,50.237 38.000 C 49.887 38.000,49.600 37.820,49.600 37.600 C 49.600 37.380,49.330 37.200,49.000 37.200 C 48.670 37.200,48.400 37.020,48.400 36.800 C 48.400 36.580,48.130 36.400,47.800 36.400 C 47.470 36.400,47.200 36.220,47.200 36.000 C 47.200 35.780,46.975 35.596,46.700 35.591 C 46.425 35.587,45.662 34.957,45.004 34.191 C 44.346 33.426,43.581 32.800,43.304 32.800 C 43.027 32.800,42.799 32.575,42.797 32.300 C 42.796 32.025,42.301 31.490,41.697 31.111 C 39.114 29.491,37.667 28.367,35.757 26.500 C 35.251 26.005,34.558 25.600,34.218 25.600 C 33.878 25.600,33.600 25.441,33.600 25.247 C 33.600 25.052,33.240 24.799,32.800 24.684 C 32.360 24.569,32.000 24.228,32.000 23.926 C 32.000 23.624,31.615 23.112,31.144 22.788 C 30.674 22.465,29.793 21.795,29.187 21.300 C 28.580 20.805,27.898 20.400,27.669 20.400 C 27.441 20.400,27.140 20.040,27.000 19.600 C 26.860 19.160,26.474 18.800,26.142 18.800 C 25.809 18.800,24.846 18.080,24.000 17.200 C 23.154 16.320,22.222 15.600,21.927 15.600 C 21.633 15.600,20.674 14.903,19.796 14.052 C 17.799 12.116,14.523 9.600,13.997 9.600 C 13.778 9.600,13.600 9.420,13.600 9.200 C 13.600 8.980,13.240 8.800,12.800 8.800 C 12.267 8.800,12.000 8.533,12.000 8.000 C 12.000 7.467,11.733 7.200,11.200 7.200 C 10.748 7.200,10.400 6.933,10.400 6.587 C 10.400 6.251,10.085 5.859,9.700 5.717 C 9.315 5.575,8.910 5.354,8.800 5.227 C 8.690 5.100,7.880 4.468,7.000 3.823 C 6.120 3.178,4.906 2.147,4.301 1.530 C 3.609 0.825,2.586 0.311,1.537 0.144 L -0.129 -0.123 0.149 6.032 " stroke="none" fill="#343ccc" fill-rule="evenodd"></path><path id="path1" d="M13.693 69.200 C 13.693 69.970,13.775 70.285,13.876 69.900 C 13.976 69.515,13.976 68.885,13.876 68.500 C 13.775 68.115,13.693 68.430,13.693 69.200 " stroke="none" fill="#383ccc" fill-rule="evenodd"></path><path id="path2" d="M13.693 69.200 C 13.693 69.970,13.775 70.285,13.876 69.900 C 13.976 69.515,13.976 68.885,13.876 68.500 C 13.775 68.115,13.693 68.430,13.693 69.200 " stroke="none" fill="#383ccc" fill-rule="evenodd"></path><path id="path3" d="M13.693 69.200 C 13.693 69.970,13.775 70.285,13.876 69.900 C 13.976 69.515,13.976 68.885,13.876 68.500 C 13.775 68.115,13.693 68.430,13.693 69.200 " stroke="none" fill="#383ccc" fill-rule="evenodd"></path><path id="path4" d="M13.693 69.200 C 13.693 69.970,13.775 70.285,13.876 69.900 C 13.976 69.515,13.976 68.885,13.876 68.500 C 13.775 68.115,13.693 68.430,13.693 69.200 " stroke="none" fill="#383ccc" fill-rule="evenodd"></path></g></svg>