<svg width="24" height="24" viewBox="0 0 24 24" fill="none" xmlns="http://www.w3.org/2000/svg">
<path d="M12 0C5.37259 0 0 5.37257 0 12C0 18.6275 5.37261 24 12 24C18.6275 24 24 18.6274 24 12C24 5.37257 18.6275 0 12 0ZM2.5785 12.1251L11.8749 21.4215C6.77011 21.355 2.64501 17.2299 2.5785 12.1251ZM14.109 21.1859L2.81406 9.89098C3.77183 5.70218 7.52084 2.57692 12 2.57692C15.131 2.57692 17.9048 4.10438 19.6184 6.45435L18.3137 7.60555C16.9237 5.61223 14.6144 4.30769 12 4.30769C8.67139 4.30769 5.83683 6.42199 4.76542 9.38078L14.6192 19.2346C17.0122 18.368 18.8527 16.348 19.4691 13.8462H15.3846V12H19.6923V12H21.4231V12C21.4231 16.4792 18.2978 20.2282 14.109 21.1859Z" fill="#744C9E"/>
</svg>
