<svg width="22" height="22" viewBox="0 0 22 22" fill="none" xmlns="http://www.w3.org/2000/svg">
<path d="M19.25 10.25V11.75C19.25 12.5094 19.8656 13.125 20.625 13.125C21.3844 13.125 22 12.5094 22 11.75V10.25C22 9.49061 21.3844 8.875 20.625 8.875C19.8656 8.875 19.25 9.49061 19.25 10.25Z" fill="currentColor"/>
<path d="M2.74944 10.2891C2.74981 10.2761 2.75 10.263 2.75 10.25C2.75 9.49061 2.13439 8.875 1.375 8.875C0.615613 8.875 0 9.49061 0 10.25C0 10.2631 0.0001719 10.2761 0.000558615 10.2891H0V11.7891H0.000558615C0.0211837 12.5304 0.628676 13.125 1.375 13.125C2.12132 13.125 2.72877 12.5304 2.74944 11.7891H2.75V10.2891H2.74944V10.2891Z" fill="currentColor"/>
<path d="M14.5 14.75V16.25C14.5 17.0094 15.1156 17.625 15.875 17.625C16.6344 17.625 17.25 17.0094 17.25 16.25V14.75C17.25 13.9906 16.6344 13.375 15.875 13.375C15.1156 13.375 14.5 13.9906 14.5 14.75V14.75ZM14.5 5.75V10.6563H14.5003C14.5169 11.4012 15.1261 12 15.875 12C16.6239 12 17.233 11.4012 17.2496 10.6563H17.25V5.75C17.25 4.99061 16.6344 4.375 15.875 4.375C15.1156 4.375 14.5 4.99061 14.5 5.75Z" fill="currentColor"/>
<path d="M7.5 7.25C7.5 8.00938 6.88443 8.625 6.125 8.625C5.36557 8.625 4.75 8.00938 4.75 7.25V5.75C4.75 4.99061 5.36562 4.375 6.125 4.375C6.88439 4.375 7.5 4.99061 7.5 5.75V7.25Z" fill="currentColor"/>
<path d="M12.375 2.87504C12.375 3.63438 11.7594 4.25004 11 4.25004C10.2406 4.25004 9.625 3.63438 9.625 2.87504V1.375C9.625 0.615613 10.2406 0 11 0C11.7594 0 12.375 0.615613 12.375 1.375V2.87504ZM12.375 19.125C12.375 18.3656 11.7594 17.75 11 17.75C10.2406 17.75 9.625 18.3656 9.625 19.125V20.625C9.625 21.3844 10.2406 22 11 22C11.7594 22 12.375 21.3844 12.375 20.625V19.125Z" fill="currentColor"/>
<path d="M7.5 11.375C7.5 10.6156 6.88443 10 6.125 10C5.36557 10 4.75 10.6156 4.75 11.375V16.25C4.75 17.0094 5.36562 17.625 6.125 17.625C6.88439 17.625 7.5 17.0094 7.5 16.25V11.375Z" fill="currentColor"/>
<path d="M9.625 7V14.9999C9.625 15.7594 10.2406 16.3749 11 16.3749C11.7594 16.3749 12.375 15.7594 12.375 14.9999V7C12.375 6.24057 11.7594 5.625 11 5.625C10.2406 5.625 9.625 6.24057 9.625 7Z" fill="currentColor"/>
</svg>
