<svg width="158" height="116" fill="none" xmlns="http://www.w3.org/2000/svg">
  <g clip-path="url(#clip_guest)">
    <path d="M66 60l-4 7c2-1 3-3 6-3 4 0 3 5 0 6s-6 1-7-1a67 67 0 00-3 9c0-2 2-3 3-4 2-1 5 0 5 3-1 2-4 3-6 4l-3-1-2 8c1-1 2-3 4-3 2-1 4-1 4 1 0 3-4 5-5 5h-3l-1 7V88h-2c-3-1-4-5-4-7 1-2 3-3 5-2l2 6 2-8c-1 1-1 0-2-1-2-1-3-4-3-6s3-4 5-2l1 6 3-7-3-7c0-3 3-5 5-3v7l3-4c0-2 0-6 2-7 3-3 6-2 5 1-1 4-5 6-7 6z" fill="#121334"/>
    <path d="M13 60l4 7c-1-1-3-3-6-3s-3 5 0 6c4 1 6 1 7-1a67 67 0 013 9c0-2-2-3-3-4-2-1-5 0-5 3 1 2 4 3 6 4l3-1 2 8c-1-1-2-3-4-3-2-1-4-1-4 1 0 3 4 5 6 5h2l1 7V88h2c3-1 4-5 4-7-1-2-3-3-4-2-2 1-2 4-3 6l-2-8c1 1 1 0 2-1 2-1 3-4 3-6s-3-4-5-2l-1 6-3-7 3-7c0-3-3-5-4-3-2 2-1 5-1 7l-3-4c0-2 0-6-2-7-3-3-6-2-5 1 1 4 5 6 7 6z" fill="#5155AA"/>
    <path d="M59 67l-2 6 3-1-3 2 3 6 3-1-3 2 1 1h4l-2 2c1 3 4 7 8 10h2-1l4 2c3-4 3-7 3-8l-4-1 4-1v-1h-4l4-1c-3-9-8-15-11-17l-2 3v-4c-4-1-6 0-7 1z" fill="#24255C"/>
    <path d="M59 67c9 8 15 23 17 29l-5-2h2-2c-5-3-7-7-8-10l2-2h-4l-1-1 3-2-3 1-3-6 3-2-3 1 2-6z" fill="#2F3175"/>
    <path d="M154 23c1 3 5 11 4 17-3 0-8-2-9-1l9 4c-1 4-3 12-8 17-3 0-9-2-10-1l9 4-3 5c-3-1-9-3-11-2l7 7c-4 8-11 18-24 27l-5-1 4 2c-3 2-8 5-13 6-8-12-9-21-9-24 2 0 10-2 13-4-2 1-9-1-12-2l1-2 9 1-9-3c8-28 23-44 29-48l7 8c3-5 2-10 1-12 9-3 17 0 20 2z" fill="#6F73C7"/>
    <path d="M154 24c-27 24-44 66-49 83l12-6-3-2 4 1c13-9 20-19 24-26-1-3-5-6-7-8l11 2 3-5-9-4c1-1 7 1 10 2 5-5 7-14 8-17l-9-5 9 2c1-6-3-14-4-17z" fill="#7C80D3"/>
    <path d="M76 58c2 1 11-8 10-16 0-9-7-6-9-1-3 4-4 12-1 17zm0 0l-2 11m-2 9c1-3 3-10 10-13 8-5 8 4 3 10-5 5-13 7-13 3zm0 0l1-5m-1 5v14m2-23l-1 4m1-4c-1-5-3-15-9-16-8 0-6 10-2 14 3 5 8 8 10 6m-1 19c-2-5-7-16-12-14-6 1-4 11 2 15 5 4 9 4 10 4m0-5v5m0 0c1-5 6-17 14-14 4 1 2 6-3 11l-10 7m-1-4l1 4m0 0l2 6" stroke="#D7D9FA" stroke-width="2" stroke-linecap="round" stroke-linejoin="round"/>
    <rect x="40.9" width="75.2" height="84" rx="9" transform="rotate(17 41 0)" fill="#AFB2FE"/>
    <rect x="44.4" y="5.6" width="65.9" height="56.2" rx="4" transform="rotate(17 44 6)" fill="#FCFCFF"/>
    <path d="M59 52c-1 2-4 8-2 8l15-8 1-3 2-6-12 1-4 8z" fill="#E6836E"/>
    <path d="M62 46c6 3 11 1 13-1 2 1 3-1 4-3l3-9-18-12c1 1 2 5 0 10-3 7-5 14-2 15z" fill="#F4A392"/>
    <path d="M63 28l1 4 2-5c1 3 6 5 8 6-2 3 0 6 1 6v3l3-2c2 0 2 1 1 2 8-4 7-9 5-12 2-7-7-11-13-9-5 1-8-1-9-3-2 3-1 5 0 6l-2-1c0 2 2 5 3 5z" fill="#363983"/>
    <path d="M73 53c3 1 6 5 8 7l3 16-47-14c3-4 7-10 10-11 8-3 15-2 18-1l8 3z" fill="#22256A"/>
    <path d="M58 51c1 2 6 3 8 4 1-1 2-2-1-3l-5-2c-1 0-3 0-2 1z" fill="#363983"/>
    <path d="M64 52l1 6c5-1 9-5 8-6 0-2-1-2-2-1l-7 1zM57 55l4-4v-3c-1-1-4 0-5 1l1 6z" fill="#fff"/>
    <rect x="48" y="26" width="75.2" height="84" rx="9" fill="#AFB2FE"/>
    <rect x="52.9" y="30.4" width="65.9" height="56.2" rx="4" fill="#FCFCFF"/>
    <path d="M80 71c0 2-2 8 0 8l12-12 1-3v-7l-11 5-2 9z" fill="#F6B9AD"/>
    <path d="M81 64c6 1 11-2 13-4 2-1 3-2 3-4V46l-21-6c1 1 3 3 2 9 0 7 0 15 3 15z" fill="#FFCBC0"/>
    <path d="M78 47c-1 2 0 3 1 3l1-5c1 3 7 3 9 3-1 4 2 6 3 6l1 2 2-2 2 1c6-5 3-11 1-12 0-8-10-9-15-6-4 3-8 1-10 1-1 2 1 4 2 5h-2c0 2 3 3 5 4z" fill="#363983"/>
    <path d="M94 67c3 0 7 4 9 5s5 9 7 15H62c1-5 4-12 6-14 8-5 15-6 17-6h9z" fill="#6F73C7"/>
    <path d="M79 70l8 1c1 0 2-2-1-2-2 1-5 0-5-1-1 0-3 1-2 2z" fill="#5155AA"/>
    <path d="M84 69l4 6c4-3 7-7 6-9h-3c-1 2-7 3-7 3zM79 74l3-5-1-3c-2-1-4 1-4 3l2 5z" fill="#fff"/>
    <path d="M144 56l-5 9c1-2 4-4 7-4 5 0 5 6 0 8h-9a94 94 0 00-5 11c1-2 3-4 5-4 3-2 7-1 6 3-1 3-5 5-7 5h-5l-3 11c2-2 3-5 6-5 3-1 5-1 5 2 1 3-4 7-7 7h-4v9h-1V95l-3-1c-3-1-5-7-5-9 0-3 4-4 6-3l3 9 3-11-3-2c-2-2-4-6-4-9s4-6 7-2l2 8 4-10c-2 1-5-6-5-10s5-7 7-4c2 2 1 7 1 10 1-3 2-5 4-6-1-3 0-7 3-10 4-3 8-3 7 2s-7 9-10 9z" fill="#5155AA"/>
    <path d="M14 38c2 3 5 7 7 13-2-3-5-5-10-5-7 0-7 8 0 10 6 2 12 2 13 0a128 128 0 016 15l-6-6c-5-2-10 0-9 4 1 5 7 8 11 8l6-1 3 16c-1-3-4-6-7-7-4-2-7-1-8 3 0 4 7 9 11 10h5l1 12h1l-1-18 5-1c4-3 7-10 6-14 0-3-5-5-8-2-2 1-3 7-4 11l-4-15 4-2c3-3 5-8 5-12s-5-9-9-4c-2 3-2 8-2 12l-7-14c3 1 7-9 7-13 0-6-6-10-9-6-2 3-2 10-1 14l-5-9c0-4-1-10-5-13-6-5-11-4-10 3 2 6 10 11 14 11z" fill="#7C80D3"/>
  </g>
  <defs>
    <clipPath id="clip_guest">
      <path fill="#fff" d="M0 0h158v116H0z"/>
    </clipPath>
  </defs>
</svg>