<svg width="158" height="116" viewBox="0 0 158 116" fill="none" xmlns="http://www.w3.org/2000/svg">
<g clip-path="url(#guests0)">
<path d="M66.2471 60.1406C65.1453 61.7068 63.7262 63.9867 62.2847 66.7101C63.5032 65.5663 65.3967 64.3393 67.6099 64.3178C71.5118 64.28 71.1741 68.5925 67.6099 69.7652C64.5213 70.7814 61.6663 70.5193 60.8824 69.496C59.8194 71.7211 58.7971 74.1443 57.938 76.6532C57.8888 76.797 57.8398 76.9413 57.7912 77.0863C57.7308 77.2666 57.671 77.4472 57.612 77.628C58.4706 76.4962 59.7988 75.0368 61.1499 74.3803C63.4078 73.2833 66.3342 74.3047 65.6964 76.5366C65.0586 78.7685 62.1697 80.4708 60.1437 80.5465C58.5745 80.6051 57.3204 80.6316 56.8346 80.1697C56.0679 82.8579 55.464 85.5943 55.0509 88.3567C55.807 86.8869 57.1055 85.0234 58.6804 84.5564C61.2317 83.7998 62.7325 84.3294 62.845 86.4856C62.9576 88.6419 59.4308 91.2143 57.5549 91.3277C56.2962 91.4039 55.2388 91.3804 54.6831 91.3225C54.4694 93.4957 54.3788 95.6799 54.4247 97.8645L53.7067 97.8797C53.6393 94.6774 53.8615 91.4787 54.3309 88.316C53.8592 88.5012 53.0184 88.5072 51.7395 87.8096C49.4509 86.5613 48.1377 82.8162 48.3628 80.8113C48.5879 78.8063 50.9516 78.1254 52.5274 79.3738C53.5977 80.2217 54.4161 83.3474 54.8213 85.468C55.3526 82.7549 56.0592 80.0761 56.9137 77.4526C56.4498 77.5079 55.7681 77.0372 54.741 76.2718C53.0151 74.9856 52.0396 71.9971 52.0772 69.9165C52.1147 67.8359 54.7035 65.5662 56.6169 67.9872C57.8435 69.5393 58.0758 72.3771 58.0166 74.3323C59.0565 71.6192 60.2527 69.0478 61.4441 66.7653C59.7201 67.4419 57.7388 62.3425 57.705 59.854C57.6674 57.0925 60.8565 54.7471 62.5449 57.0547C63.6957 58.6276 63.3848 61.9114 62.9581 64.0057C64.009 62.1828 64.9993 60.6498 65.8085 59.5168C65.7483 57.6896 66.1876 54.4602 68.3978 52.6665C71.4743 50.1698 74.2507 50.6994 73.2752 54.331C72.3779 57.6716 68.0202 60.1479 66.2471 60.1406Z" fill="#121334"/>
<path d="M12.8349 60.1406C13.9367 61.7068 15.3558 63.9867 16.7974 66.7101C15.5788 65.5663 13.6853 64.3393 11.4722 64.3178C7.57023 64.28 7.90789 68.5925 11.4722 69.7652C14.5607 70.7814 17.4158 70.5193 18.1996 69.496C19.2626 71.7211 20.2849 74.1443 21.144 76.6532C21.1933 76.797 21.2422 76.9413 21.2908 77.0863C21.3513 77.2666 21.411 77.4472 21.47 77.628C20.6115 76.4962 19.2832 75.0368 17.9321 74.3803C15.6742 73.2833 12.7478 74.3047 13.3856 76.5366C14.0234 78.7685 16.9124 80.4708 18.9384 80.5465C20.5076 80.6051 21.7617 80.6316 22.2474 80.1697C23.0141 82.8579 23.6181 85.5943 24.0311 88.3567C23.2751 86.8869 21.9765 85.0234 20.4016 84.5564C17.8503 83.7998 16.3496 84.3294 16.237 86.4856C16.1245 88.6419 19.6512 91.2143 21.5271 91.3277C22.7858 91.4039 23.8432 91.3804 24.399 91.3225C24.6126 93.4957 24.7033 95.6799 24.6573 97.8645L25.3753 97.8797C25.4427 94.6774 25.2205 91.4787 24.7511 88.316C25.2229 88.5012 26.0636 88.5072 27.3425 87.8096C29.6312 86.5613 30.9443 82.8162 30.7192 80.8113C30.4941 78.8063 28.1304 78.1254 26.5546 79.3738C25.4844 80.2217 24.6659 83.3474 24.2607 85.468C23.7294 82.7549 23.0229 80.0761 22.1683 77.4526C22.6323 77.5079 23.314 77.0372 24.341 76.2718C26.0669 74.9856 27.0424 71.9971 27.0049 69.9165C26.9673 67.8359 24.3786 65.5662 22.4651 67.9872C21.2385 69.5393 21.0063 72.3771 21.0655 74.3323C20.0255 71.6192 18.8294 69.0478 17.638 66.7653C19.362 67.4419 21.3433 62.3425 21.3771 59.854C21.4146 57.0925 18.2255 54.7471 16.5372 57.0547C15.3863 58.6276 15.6973 61.9114 16.1239 64.0057C15.073 62.1828 14.0827 60.6498 13.2735 59.5168C13.3337 57.6896 12.8944 54.4602 10.6843 52.6665C7.60774 50.1698 4.83136 50.6994 5.80685 54.331C6.70416 57.6716 11.0618 60.1479 12.8349 60.1406Z" fill="#121334"/>
<path d="M58.6817 66.8717C58.0201 67.96 56.7922 70.6773 57.1728 72.8401C58.0907 72.626 59.9898 72.2208 60.2421 72.3129C59.2701 72.7231 57.3028 73.6054 57.2092 73.8537C57.4574 75.1093 58.3183 78.0876 59.7761 79.9565C60.8438 79.6519 63.081 79.0963 63.4881 79.3108C62.6048 79.6866 60.7407 80.5133 60.3501 80.8132C60.613 81.2896 61.1996 82.2906 61.4428 82.4829C62.409 82.1726 64.5373 81.6354 65.3207 81.9684C64.6457 82.4791 63.1968 83.6996 62.8006 84.4965C64.268 87.0442 66.5502 90.7108 71.2965 94.0341C71.6715 93.9278 72.5377 93.7622 72.7596 93.5796C72.4654 93.8841 71.833 94.3687 71.6114 94.3726C72.3967 94.8593 74.3435 96.0405 75.8934 96.3708C78.9552 92.3107 79.3638 89.1335 79.1853 88.0525C78.3482 87.9634 75.8407 87.0788 74.6916 86.6477C75.4312 86.767 77.6926 86.1112 78.7309 85.7684C78.8197 85.6597 78.7284 85.2145 78.6717 85.0055C78.3512 85.1125 76.5622 85.2853 75.4882 85.3776C76.2504 85.2591 77.8093 84.7291 78.5844 84.4441C75.6917 74.5298 70.545 69.001 68.3332 67.476C67.4901 68.0626 66.3127 69.5039 65.8294 70.1512C64.9782 68.4755 65.3146 66.79 65.5893 66.1568C62.3221 65.0773 59.6229 66.1836 58.6817 66.8717Z" fill="#24255C"/>
<path d="M58.667 66.7109C68.1284 75.4626 73.9667 90.131 75.7031 96.3713C74.169 96.0391 72.2422 94.8514 71.4649 94.3621C71.6841 94.3582 72.3101 93.871 72.6013 93.5648C72.3817 93.7484 71.5243 93.9149 71.1532 94.0218C66.4552 90.6803 64.1963 86.9937 62.7439 84.432C63.136 83.6308 64.5702 82.4036 65.2383 81.8901C64.4628 81.5553 62.3563 82.0955 61.4 82.4074C61.1592 82.2141 60.5786 81.2076 60.3184 80.7286C60.705 80.4271 62.5501 79.5959 63.4244 79.218C63.0214 79.0024 60.8071 79.561 59.7503 79.8672C58.3073 77.9881 57.4552 74.9935 57.2096 73.7311C57.3022 73.4815 59.2495 72.5943 60.2115 72.1819C59.9617 72.0893 58.0821 72.4967 57.1735 72.712C56.7968 70.5373 58.0122 67.8052 58.667 66.7109Z" fill="#2F3175"/>
<path d="M153.5 23.3097C155.384 26.3972 158.882 34.1063 157.798 40.2425C155.183 39.635 149.775 38.4855 149.056 38.7468C151.824 39.9104 157.427 42.4136 157.694 43.1179C156.987 46.68 154.535 55.1297 150.383 60.4318C147.342 59.5676 140.97 57.9915 139.811 58.6C142.327 59.6662 147.636 62.0114 148.748 62.8623C148 64.214 146.329 67.0537 145.636 67.5993C142.884 66.7191 136.823 65.1948 134.591 66.1396C136.514 67.5885 140.641 71.0513 141.769 73.3119C137.59 80.5401 131.09 90.9423 117.571 100.371C116.503 100.069 114.036 99.5993 113.404 99.0812C114.242 99.9451 116.043 101.32 116.674 101.331C114.438 102.712 108.893 106.063 104.479 107C95.7581 95.4811 94.5944 86.4674 95.1027 83.4004C97.487 83.1479 104.629 80.6382 107.902 79.415C105.795 79.7535 99.3542 77.8931 96.3971 76.9206C96.144 76.612 96.404 75.349 96.5656 74.7561C97.4786 75.0596 102.574 75.5498 105.633 75.8117C103.462 75.4756 99.0219 73.9719 96.8144 73.1633C105.053 45.036 119.712 29.3508 126.011 25.0241C128.413 26.6883 131.766 30.7774 133.142 32.6139C135.567 27.8598 134.609 23.0781 133.826 21.2815C143.132 18.2189 150.82 21.3575 153.5 23.3097Z" fill="#2F3175"/>
<path d="M153.544 24C126.585 48.4903 109.95 89.5376 105.002 107C109.373 106.071 114.864 102.747 117.078 101.378C116.454 101.367 114.67 100.003 113.84 99.1466C114.466 99.6603 116.909 100.126 117.967 100.425C131.353 91.0747 137.789 80.7583 141.928 73.5898C140.81 71.3478 136.724 67.9135 134.82 66.4766C137.03 65.5397 143.032 67.0514 145.757 67.9243C146.443 67.3832 148.097 64.5669 148.839 63.2263C147.737 62.3825 142.48 60.0567 139.989 58.9992C141.137 58.3957 147.446 59.9589 150.458 60.8159C154.569 55.5576 156.997 47.1776 157.697 43.6449C157.433 42.9464 151.885 40.4637 149.143 39.3097C149.855 39.0506 155.211 40.1907 157.8 40.7931C158.873 34.7075 155.41 27.062 153.544 24Z" fill="#24255C"/>
<path d="M76.1373 58.2976C77.6352 58.6801 86.8356 50.2834 86.2691 41.5676C85.7025 32.8518 78.563 36.46 76.5048 40.8736C74.4467 45.2872 72.5606 52.8359 76.1373 58.2976ZM76.1373 58.2976C75.3218 61.0238 74.4089 64.6561 73.6136 68.7711M72.2435 77.5214C72.7192 74.7985 75.259 68.4188 81.6131 64.6837C89.5557 60.0149 89.941 69.3448 85.0099 74.6737C79.706 80.4054 72.3048 82.1229 72.2435 77.5214ZM72.2435 77.5214C72.4335 75.9212 72.6555 74.3455 72.9003 72.8125M72.2435 77.5214C71.6876 82.204 71.4058 87.0968 71.6296 91.7443M73.6136 68.7711C73.3618 70.0743 73.1217 71.4259 72.9003 72.8125M73.6136 68.7711C73.2547 63.8692 71.0251 53.9169 64.9788 53.3226C57.4209 52.5796 59.3694 63.162 62.6552 67.3476C65.9411 71.5331 71.1707 75.3982 72.9003 72.8125M71.6296 91.7443C69.9673 86.543 65.4038 76.4613 60.4483 77.744C54.2538 79.3474 55.607 89.2519 61.9991 93.4681C67.1127 96.8411 70.8482 96.9837 72.0768 96.6334M71.6296 91.7443C71.7099 93.4126 71.8554 95.0493 72.0768 96.6334M72.0768 96.6334C72.9784 92.085 77.5168 79.7829 86.1712 82.646C90.0456 83.9277 88.0538 88.5007 82.6071 93.6633C78.3434 97.7046 73.5032 101.204 72.8612 100.746M72.0768 96.6334C72.2749 98.0514 72.5338 99.4271 72.8612 100.746M72.8612 100.746C73.3934 102.889 74.1065 104.88 75.0334 106.656" stroke="#D7D9FA" stroke-width="2" stroke-linecap="round" stroke-linejoin="round"/>
<rect x="40.9316" width="75.2093" height="84" rx="9" transform="rotate(16.5521 40.9316 0)" fill="#4A4C96"/>
<rect x="44.3594" y="5.60449" width="65.9302" height="56.1628" rx="4" transform="rotate(16.5521 44.3594 5.60449)" fill="#6466C5"/>
<path d="M59.3443 52.0638C58.3523 53.7717 54.5781 59.5584 56.8812 60.2552C59.0247 58.8957 71.0002 52.6012 71.726 52.3303C72.4517 52.0594 72.5631 50.7288 72.7716 49.2811C72.9801 47.8334 74.2358 44.3727 75.002 42.668L62.8767 43.9352C62.0298 46.0754 60.1378 50.6974 59.3443 52.0638Z" fill="#E6836E"/>
<path d="M62.0126 46.269C67.6292 48.6116 72.9442 46.7072 74.8996 45.4622C77.3996 45.7557 78.3178 44.4527 79.2495 42.2188C80.3887 39.8466 81.7389 35.2022 82.2715 33.1765L64.0161 21.2542C64.8358 22.283 65.8844 25.6675 63.5207 30.9757C60.566 37.6108 58.9808 45.0046 62.0126 46.269Z" fill="#F4A392"/>
<path d="M63.2668 28.4361C62.6279 29.9679 63.2063 31.3315 63.7694 32.0083C64.8027 28.0936 65.3508 27.1822 65.8207 27.2531C66.7239 30.4771 71.7105 32.1447 74.0909 32.5756C72.3341 36.3386 74.0356 38.5468 74.7003 39.1987C75.2321 39.7202 75.0898 41.1095 74.9521 41.7389C75.3912 40.9854 76.6472 39.5611 78.1578 39.8914C79.6685 40.2218 79.5581 41.4745 79.3141 42.0596C86.9225 38.1896 85.7674 32.5753 84.2388 30.2519C86.4622 23.1244 76.7287 19.0648 71.0229 20.6188C66.4582 21.862 62.9153 19.5477 61.7144 18.2351C60.139 20.5751 61.491 23.2621 62.3639 24.3131C61.8321 23.7915 60.7594 23.519 60.2895 23.4479C59.8527 25.2139 62.0924 27.5092 63.2668 28.4361Z" fill="#363983"/>
<path d="M72.7777 52.5917C75.8867 53.6585 79.4383 58.1996 80.8255 60.3368C82.1791 61.3874 83.1399 70.3122 83.5452 75.8417L37.1556 62.0545C39.5037 58.2925 43.7275 52.3429 46.6421 51.0696C55.3767 48.0981 62.4585 49.2869 64.9076 50.2527C66.2355 50.5879 69.6686 51.525 72.7777 52.5917Z" fill="#22256A"/>
<path d="M58.1771 51.2858C59.0848 52.5548 63.6071 54.0297 65.7548 54.6086C66.551 54.1314 67.5432 53.0345 65.1432 52.4639C62.7432 51.8934 60.7959 50.2797 60.1223 49.5441C59.0957 49.5959 57.2695 50.0168 58.1771 51.2858Z" fill="#363983"/>
<path d="M63.5023 51.9768C63.8569 52.2249 64.8616 56.0091 65.3197 57.8702C69.9859 56.5803 74.1549 53.3584 73.3483 51.8695L73.3481 51.8692C72.5416 50.3806 72.1961 49.7428 70.7252 51.0899C69.2541 52.4372 63.0592 51.6666 63.5023 51.9768Z" fill="white"/>
<path d="M56.8245 54.6316L60.861 50.6564C60.2687 49.7666 60.948 48.3625 61.3617 47.7717C59.8683 46.7925 57.0366 47.9138 56.434 49.3407C55.952 50.4823 56.4935 53.3436 56.8245 54.6316Z" fill="white"/>
<rect x="48.002" y="26" width="75.2093" height="84" rx="9" fill="#5153A7"/>
<rect x="52.8848" y="30.3955" width="65.9302" height="56.1628" rx="4" fill="#6B6DCB"/>
<path d="M80.4863 70.6595C80.022 72.5793 78.0527 79.2014 80.4589 79.2132C82.1263 77.2994 91.8123 67.8541 92.4308 67.3876C93.0493 66.9212 92.777 65.614 92.5644 64.1669C92.3518 62.7198 92.5696 59.0447 92.8184 57.1924L81.5565 61.8615C81.3545 64.1542 80.8577 69.1237 80.4863 70.6595Z" fill="#E6836E"/>
<path d="M81.3919 64.3453C87.4432 64.9907 91.9954 61.6511 93.5151 59.9006C95.9951 59.4696 96.504 57.9591 96.7607 55.5523C97.1769 52.9539 97.148 48.1173 97.0815 46.0238L76.186 39.7963C77.2649 40.5489 79.2342 43.4944 78.4806 49.256C77.5387 56.458 78.1256 63.9969 81.3919 64.3453Z" fill="#F4A392"/>
<path d="M77.5154 46.8932C77.3394 48.5436 78.2823 49.6859 79.0149 50.1743C78.8901 46.1274 79.1558 45.0976 79.6265 45.0317C81.4107 47.8648 86.6658 48.0427 89.0702 47.7776C88.4583 51.8851 90.7184 53.5171 91.5413 53.9526C92.1996 54.301 92.4589 55.6732 92.5063 56.3158C92.7126 55.4685 93.5107 53.7454 95.0529 53.6316C96.595 53.5179 96.8461 54.7502 96.7789 55.3805C102.969 49.5033 100.263 44.4508 98.1356 42.6592C98.2364 35.1936 87.7497 34.0752 82.7231 37.1903C78.7017 39.6824 74.6463 38.4733 73.1212 37.5572C72.2777 40.2491 74.3392 42.4396 75.4753 43.1983C74.817 42.8499 73.7111 42.8942 73.2405 42.9599C73.3248 44.7772 76.1256 46.3393 77.5154 46.8932Z" fill="#363983"/>
<path d="M93.5126 67.3392C96.7967 67.4761 101.495 70.8172 103.433 72.4707C105.03 73.0921 108.494 81.3733 110.458 86.5582H62.0625C63.2416 82.2831 65.5954 75.3767 68.0264 73.3259C75.5525 67.9892 82.6796 67.1111 85.3023 67.3392C86.6707 67.2822 90.2285 67.2024 93.5126 67.3392Z" fill="#22256A"/>
<path d="M79.1453 70.2471C80.3769 71.2049 85.132 71.3304 87.3557 71.2734C87.9829 70.5892 88.6215 69.255 86.1584 69.3918C83.6953 69.5287 81.369 68.5366 80.5137 68.0234C79.5445 68.3655 77.9138 69.2892 79.1453 70.2471Z" fill="#6B6DCB"/>
<path d="M84.4463 69.3914C84.8568 69.5282 86.898 72.8694 87.8673 74.5228C91.9727 71.9571 95.051 67.6809 93.8537 66.4836L93.8534 66.4833C92.6563 65.2861 92.1434 64.7732 91.1172 66.4836C90.0909 68.194 83.9331 69.2203 84.4463 69.3914Z" fill="white"/>
<path d="M78.8015 73.8386L81.5382 68.8782C80.717 68.194 80.9682 66.6546 81.1964 65.9704C79.4859 65.4572 77.091 67.3388 76.9199 68.8782C76.7831 70.1098 78.1173 72.6983 78.8015 73.8386Z" fill="white"/>
<path d="M144.122 55.6017C142.579 57.7915 140.593 60.9789 138.574 64.7863C140.28 63.1873 142.931 61.4718 146.03 61.4418C151.492 61.3889 151.02 67.4181 146.03 69.0577C141.706 70.4784 137.709 70.112 136.611 68.6812C135.123 71.7922 133.692 75.1799 132.489 78.6875C132.42 78.8886 132.352 79.0904 132.284 79.2931C132.199 79.5452 132.115 79.7976 132.033 80.0504C133.235 78.468 135.094 76.4278 136.986 75.51C140.147 73.9762 144.244 75.4042 143.351 78.5246C142.458 81.6449 138.413 84.0249 135.577 84.1307C133.38 84.2126 131.624 84.2497 130.944 83.6039C129.871 87.3622 129.025 91.188 128.447 95.05C129.506 92.995 131.324 90.3897 133.528 89.7368C137.1 88.679 139.201 89.4194 139.359 92.434C139.516 95.4486 134.579 99.045 131.953 99.2037C130.191 99.3101 128.71 99.2773 127.932 99.1963C127.633 102.235 127.506 105.288 127.57 108.343L126.565 108.364C126.471 103.887 126.782 99.4147 127.439 94.993C126.779 95.2519 125.602 95.2604 123.811 94.2851C120.607 92.5398 118.769 87.3039 119.084 84.5009C119.399 81.6978 122.708 80.7458 124.914 82.4911C126.413 83.6766 127.558 88.0465 128.126 91.0114C128.869 87.2182 129.859 83.473 131.055 79.8052C130.405 79.8825 129.451 79.2245 128.013 78.1543C125.597 76.3562 124.231 72.178 124.284 69.2692C124.336 66.3604 127.961 63.1871 130.639 66.5719C132.357 68.7418 132.682 72.7092 132.599 75.4428C134.055 71.6497 135.73 68.0546 137.397 64.8635C134.984 65.8095 132.21 58.6801 132.163 55.2011C132.11 51.3403 136.575 48.0612 138.939 51.2874C140.55 53.4865 140.114 58.0774 139.517 61.0054C140.988 58.4569 142.375 56.3137 143.508 54.7296C143.423 52.1751 144.038 47.6601 147.133 45.1524C151.44 41.6618 155.327 42.4023 153.961 47.4795C152.705 52.1498 146.604 55.612 144.122 55.6017Z" fill="#2F3175"/>
<path d="M13.878 38.1549C15.9934 41.1359 18.718 45.475 21.4858 50.6582C19.1463 48.4813 15.5107 46.146 11.2615 46.1052C3.76976 46.0332 4.41808 54.2409 11.2615 56.4728C17.1915 58.4068 22.6732 57.9081 24.1782 55.9604C26.2192 60.1954 28.1819 64.8071 29.8315 69.5822C29.926 69.8558 30.0199 70.1306 30.1133 70.4065C30.2293 70.7497 30.3441 71.0933 30.4574 71.4375C28.8089 69.2833 26.2587 66.5059 23.6645 65.2565C19.3295 63.1685 13.7107 65.1125 14.9353 69.3603C16.1599 73.6081 21.7067 76.848 25.5966 76.992C28.6095 77.1035 31.0173 77.1541 31.95 76.2748C33.422 81.3912 34.5816 86.5992 35.3746 91.8567C33.9231 89.0592 31.4298 85.5126 28.406 84.6237C23.5075 83.1838 20.6261 84.1917 20.41 88.2956C20.1939 92.3994 26.9653 97.2952 30.567 97.5112C32.9837 97.6561 35.0139 97.6114 36.0809 97.5011C36.4912 101.637 36.6652 105.794 36.577 109.952L37.9556 109.981C38.0849 103.886 37.6583 97.7984 36.7571 91.7791C37.6628 92.1316 39.2771 92.1431 41.7326 90.8155C46.1268 88.4395 48.648 81.3118 48.2158 77.496C47.7836 73.6801 43.2453 72.3842 40.2198 74.7601C38.1649 76.3738 36.5934 82.3227 35.8155 86.3588C34.7954 81.1951 33.4388 76.0967 31.7981 71.1037C32.6889 71.2089 33.9977 70.3131 35.9697 68.8563C39.2834 66.4084 41.1563 60.7206 41.0843 56.7608C41.0122 52.801 36.0418 48.4811 32.3679 53.0889C30.0128 56.0428 29.567 61.4437 29.6806 65.165C27.684 60.0014 25.3873 55.1074 23.0998 50.7632C26.4099 52.0511 30.214 42.3456 30.2789 37.6095C30.3509 32.3538 24.2279 27.8899 20.9863 32.2818C18.7767 35.2754 19.3737 41.5252 20.1929 45.5112C18.1751 42.0418 16.2737 39.1241 14.7201 36.9678C14.8356 33.4902 13.9923 27.3439 9.74871 23.9302C3.84179 19.1783 -1.48886 20.1863 0.384071 27.098C2.10691 33.4559 10.4736 38.1689 13.878 38.1549Z" fill="#24255C"/>
</g>
<defs>
<clipPath id="guests0">
<rect width="158" height="116" fill="white"/>
</clipPath>
</defs>
</svg>
