<svg width="693" height="501" viewBox="0 0 693 501" fill="none" xmlns="http://www.w3.org/2000/svg">
<path d="M451.002 58.9119C451.002 49.2831 457.931 41.0511 467.418 39.4076L669.729 4.36192C681.832 2.26537 692.902 11.5831 692.902 23.8662V477.053C692.902 489.336 681.832 498.654 669.729 496.557L467.418 461.512C457.931 459.868 451.002 451.636 451.002 442.008V58.9119Z" fill="#1D1E4F"/>
<path d="M451 58.5642C451 48.9355 457.929 40.7035 467.416 39.06L669.727 4.01426C681.83 1.91772 692.9 11.2354 692.9 23.5185V476.706C692.9 488.989 681.83 498.306 669.727 496.21L467.416 461.164C457.929 459.521 451 451.289 451 441.66V58.5642Z" fill="#1D1E4F"/>
<path d="M254.934 94.4319C254.934 85.0684 261.494 76.9857 270.658 75.0602L395.003 48.931C407.304 46.346 418.868 55.7326 418.868 68.3026V430.755C418.868 443.325 407.304 452.712 395.003 450.127L270.658 423.998C261.494 422.072 254.934 413.99 254.934 404.626V94.4319Z" fill="#1D1E4F"/>
<path d="M0.460938 152.11C0.460938 143.168 6.45643 135.336 15.0889 133.002L68.9914 118.427C81.5738 115.025 93.9529 124.501 93.9529 137.536V377.008C93.9529 390.042 81.5738 399.519 68.9914 396.116L15.0889 381.542C6.45644 379.207 0.460938 371.376 0.460938 362.433V152.11Z" fill="#1D1E4F"/>
<path d="M107.83 277.969C107.83 267.036 116.692 258.174 127.625 258.174H213.47C224.402 258.174 233.265 267.036 233.265 277.969V398.638C233.265 410.917 222.201 420.233 210.101 418.143L124.256 403.318C114.764 401.679 107.83 393.445 107.83 383.812V277.969Z" fill="#1D1E4F"/>
<path d="M107.83 125.198C107.83 115.766 114.485 107.644 123.733 105.79L209.578 88.5744C221.83 86.1174 233.265 95.4871 233.265 107.983V221.278C233.265 232.21 224.402 241.073 213.47 241.073H127.625C116.692 241.073 107.83 232.21 107.83 221.278V125.198Z" fill="#1D1E4F"/>
<clipPath id="heromask0" masktype="alpha" maskUnits="userSpaceOnUse" x="451" y="3" width="242" height="494">
<path d="M451 58.5642C451 48.9355 457.929 40.7035 467.416 39.06L669.727 4.01426C681.83 1.91772 692.9 11.2354 692.9 23.5185V476.706C692.9 488.989 681.83 498.306 669.727 496.21L467.416 461.164C457.929 459.521 451 451.289 451 441.66V58.5642Z" fill="#1D1E4F"/>
</clipPath>
<g clip-path="url(#heromask0)">
<path d="M504.496 431.127C504.745 432.353 504.989 433.502 505.223 434.56C507.472 432.728 510.134 430.047 512.725 426.563C513.483 425.545 514.234 424.458 514.967 423.304C516.136 421.464 517.258 419.452 518.286 417.273C504.13 417.353 497.414 405.702 506.038 404.235C512.938 403.061 517.569 411.352 519.022 415.644C519.651 414.191 520.235 412.669 520.762 411.08C520.958 410.492 521.145 409.894 521.324 409.287C521.889 407.368 522.37 405.357 522.744 403.257C518.153 403.365 509.461 401.529 511.417 393.315C513.373 385.1 519.976 395.325 523.034 401.464C523.41 398.876 523.625 396.158 523.641 393.315C518.425 370.308 532.605 365.445 532.768 378.483C532.898 388.914 526.737 392.717 523.641 393.315C523.625 396.158 523.41 398.876 523.034 401.464C522.946 402.069 522.849 402.666 522.744 403.257C522.37 405.357 521.889 407.368 521.324 409.287C524.595 403.42 532.8 393.445 539.45 400.486C547.762 409.287 527.175 415.155 520.762 411.08C520.235 412.669 519.651 414.191 519.022 415.644C518.783 416.197 518.537 416.74 518.286 417.273C517.258 419.452 516.136 421.464 514.967 423.304C517.287 420.044 533.093 411.243 535.212 421.185C537.331 431.127 517.782 429.823 512.725 426.563C510.134 430.047 507.472 432.728 505.223 434.56C504.989 433.502 504.745 432.353 504.496 431.127C502.871 429.003 500.259 425.12 497.414 420.044C499.607 424.119 476.212 429.823 478.168 420.044C479.733 412.221 490.934 415.481 496.339 418.088C494.896 415.411 493.418 412.454 491.999 409.287C486.584 413.688 465.619 408.472 472.301 401.464C477.647 395.857 487.136 403.148 491.212 407.494C490.094 404.892 489.025 402.164 488.053 399.345C487.793 398.591 487.54 397.83 487.295 397.063C481.21 396.575 469.497 393.087 471.323 383.047C473.605 370.497 488.762 389.892 487.295 397.063C487.54 397.83 487.793 398.591 488.053 399.345C488.127 395.923 489.74 389.077 495.607 389.077C502.942 389.077 497.287 398.041 488.053 399.345C489.025 402.164 490.094 404.892 491.212 407.494C490.939 404.289 491.435 397.878 495.607 397.878C500.823 397.878 497.681 408.635 491.999 409.287C493.418 412.454 494.896 415.411 496.339 418.088C496.7 418.758 497.059 419.41 497.414 420.044C500.259 425.12 502.871 429.003 504.496 431.127C502.406 420.857 499.948 405.216 500.026 393.315C500.045 390.448 500.211 387.797 500.565 385.492C492.275 387.708 490.876 381.743 491.212 378.483C497.866 378.222 500.22 383.047 500.565 385.492C500.928 383.128 501.488 381.127 502.29 379.624C499.356 377.505 495.347 371.214 502.779 363C506.038 365.499 510.504 372.322 502.29 379.624C501.488 381.127 500.928 383.128 500.565 385.492C500.211 387.797 500.045 390.448 500.026 393.315C500.195 390.218 502.611 382.982 510.928 378.809C521.324 373.594 521.07 392.337 500.026 393.315C499.948 405.216 502.406 420.857 504.496 431.127Z" fill="#191A45"/>
<path d="M503.268 436.016C503.87 435.613 504.527 435.127 505.223 434.56M523.641 393.315C523.625 396.158 523.41 398.876 523.034 401.464M523.641 393.315C526.737 392.717 532.898 388.914 532.768 378.483C532.605 365.445 518.425 370.308 523.641 393.315ZM505.223 434.56C504.989 433.502 504.745 432.353 504.496 431.127M505.223 434.56C507.472 432.728 510.134 430.047 512.725 426.563M502.29 379.624C499.356 377.505 495.347 371.214 502.779 363C506.038 365.499 510.504 372.322 502.29 379.624ZM502.29 379.624C501.488 381.127 500.928 383.128 500.565 385.492M504.496 431.127C502.871 429.003 500.259 425.12 497.414 420.044M504.496 431.127C502.406 420.857 499.948 405.216 500.026 393.315M487.295 397.063C487.54 397.83 487.793 398.591 488.053 399.345M487.295 397.063C481.21 396.575 469.497 393.087 471.323 383.047C473.605 370.497 488.762 389.892 487.295 397.063ZM496.339 418.088C490.934 415.481 479.733 412.221 478.168 420.044C476.212 429.823 499.607 424.119 497.414 420.044M496.339 418.088C496.7 418.758 497.059 419.41 497.414 420.044M496.339 418.088C494.896 415.411 493.418 412.454 491.999 409.287M491.212 407.494C487.136 403.148 477.647 395.857 472.301 401.464C465.619 408.472 486.584 413.688 491.999 409.287M491.212 407.494C491.472 408.099 491.735 408.697 491.999 409.287M491.212 407.494C490.939 404.289 491.435 397.878 495.607 397.878C500.823 397.878 497.681 408.635 491.999 409.287M491.212 407.494C490.094 404.892 489.025 402.164 488.053 399.345M514.967 423.304C517.287 420.044 533.093 411.243 535.212 421.185C537.331 431.127 517.782 429.823 512.725 426.563M514.967 423.304C514.234 424.458 513.483 425.545 512.725 426.563M514.967 423.304C516.136 421.464 517.258 419.452 518.286 417.273M521.324 409.287C524.595 403.42 532.8 393.445 539.45 400.486C547.762 409.287 527.175 415.155 520.762 411.08M521.324 409.287C521.145 409.894 520.958 410.492 520.762 411.08M521.324 409.287C521.889 407.368 522.37 405.357 522.744 403.257M520.762 411.08C520.235 412.669 519.651 414.191 519.022 415.644M519.022 415.644C517.569 411.352 512.938 403.061 506.038 404.235C497.414 405.702 504.13 417.353 518.286 417.273M519.022 415.644C518.783 416.197 518.537 416.74 518.286 417.273M522.744 403.257C518.153 403.365 509.461 401.529 511.417 393.315C513.373 385.1 519.976 395.325 523.034 401.464M522.744 403.257C522.849 402.666 522.946 402.069 523.034 401.464M500.026 393.315C500.195 390.218 502.611 382.982 510.928 378.809C521.324 373.594 521.07 392.337 500.026 393.315ZM500.026 393.315C500.045 390.448 500.211 387.797 500.565 385.492M488.053 399.345C488.127 395.923 489.74 389.077 495.607 389.077C502.942 389.077 497.287 398.041 488.053 399.345ZM500.565 385.492C500.22 383.047 497.866 378.222 491.212 378.483C490.876 381.743 492.275 387.708 500.565 385.492Z" stroke="#191A45"/>
<rect x="489.088" y="431.779" width="33.5746" height="49.221" rx="3.9116" fill="#22245F"/>
<path d="M653.423 459.6C652.273 456.373 640.665 449.248 638.193 448.464C639.164 442.364 642.488 431.814 648.016 438.417C654.926 446.671 660.342 448.629 661.722 453.469C663.102 458.309 657.295 473.151 654.573 473.077C651.852 473.003 654.573 462.826 653.423 459.6Z" fill="#F4A392"/>
<path d="M615.997 459.595C614.847 456.368 603.239 449.243 600.768 448.459C601.738 442.359 605.062 431.809 610.59 438.412C617.5 446.667 622.916 448.624 624.296 453.464C625.677 458.304 619.869 473.146 617.147 473.072C614.426 472.998 617.147 462.821 615.997 459.595Z" fill="#F4A392"/>
<path d="M646.331 453.046C643.754 452.946 531.638 404.75 556.804 371.196C565.562 360.871 620.767 353.892 620.767 353.892L623.667 373.696L593.383 377.649C593.383 377.649 609.57 377.878 623.667 406.041C634.396 427.473 647.975 435.588 652.779 442.194C654.05 443.942 654.715 447.339 652.779 449.92C650.843 452.501 648.907 453.147 646.331 453.046Z" fill="#292C6B"/>
<path d="M676.219 349.257C676.407 350.255 676.594 351.253 676.843 352.251C680.679 367.315 678.593 383.482 657.297 395.097C642.073 403.4 590.57 395.097 590.57 395.097C589.885 408.642 627.571 444.704 619.225 451.857C617.247 453.552 615.311 455.674 609.503 454.384C603.696 453.093 575.346 426.045 565.665 411.849C555.983 397.653 545.661 383.457 555.919 371.838C566.569 358.525 599.219 360.227 627.004 353.81C640.477 356.43 665.335 351.627 676.219 349.257Z" fill="#363983"/>
<path d="M571.378 299.371C574.41 299.832 580.195 299.785 579.075 295.909C578.79 294.922 578.65 293.647 578.596 292.209C578.685 286.218 576.276 275.835 574.177 273.067C572.077 270.298 573.477 277.912 573.477 279.988C573.477 282.065 568.579 275.835 562.981 275.835C557.383 275.835 554.584 275.835 556.684 280.681C558.783 285.526 564.652 289.333 565.566 290.89C569.441 294.508 571.378 298.856 571.378 299.371Z" fill="#E6836E"/>
<path d="M609.412 322.735C614.9 322.735 621.198 268.877 626 267.499C630.802 266.122 632.131 322.735 632.131 322.735C632.131 322.735 624.503 347.914 611.47 348.603C598.437 349.292 573.032 304.41 571.66 299.589C570.288 294.767 576.873 289.768 579.617 293.212C582.361 296.655 603.924 322.735 609.412 322.735Z" fill="#E6836E"/>
<path d="M673.94 279.547C667.56 266.971 653.486 258.597 650.718 255.556C646.972 253.754 639.113 254.268 631.236 260.514C615.351 273.111 614.718 308.065 612.974 325.147C611.229 342.228 592.768 357.644 599.221 362.807C605.674 367.969 648.327 372.973 659.123 372.049C669.918 371.126 671.111 388.905 679.5 377.5C687.888 366.095 682.461 296.341 673.94 279.547Z" fill="#2F3176"/>
<path d="M631.198 264.3C630.426 267.494 627.149 278.513 631.153 278.533C633.927 275.348 650.045 259.632 651.074 258.855C652.103 258.079 651.65 255.904 651.296 253.496C650.942 251.088 651.305 244.973 651.719 241.891L632.979 249.66C632.643 253.475 631.816 261.744 631.198 264.3Z" fill="#E6836E"/>
<path d="M632.705 258.745C642.775 259.819 650.349 254.262 652.878 251.349C657.005 250.632 657.852 248.118 658.279 244.113C658.971 239.79 658.923 231.742 658.813 228.258L624.043 217.896C625.838 219.148 629.115 224.049 627.861 233.637C626.294 245.621 627.27 258.165 632.705 258.745Z" fill="#F4A392"/>
<path d="M626.255 229.705C625.962 232.451 627.081 234.615 627.678 235.354C627.47 228.62 628.984 226.717 629.768 226.607C632.737 231.322 641.481 231.618 645.482 231.176C644.464 238.011 648.224 240.727 649.594 241.452C650.689 242.031 651.121 244.315 651.2 245.384C651.543 243.974 652.871 241.107 655.437 240.918C658.003 240.728 658.421 242.779 658.309 243.828C668.61 234.048 664.106 225.641 660.567 222.66C660.734 210.237 643.285 208.376 634.92 213.559C628.229 217.706 621.481 215.694 618.943 214.17C617.539 218.649 620.97 222.294 622.86 223.557C621.765 222.977 619.925 223.051 619.141 223.16C619.282 226.184 623.942 228.783 626.255 229.705Z" fill="#121334"/>
<path d="M574.859 343.088L588.002 344.687L591.166 337.739C590.427 337.461 588.545 336.405 586.933 334.403C584.918 331.902 578.542 327.114 574.609 326.072C570.677 325.03 572.046 328.08 573.189 328.219C574.331 328.358 579.211 331.144 578.505 332.186C577.798 333.229 569.061 328.781 563.242 333.715C557.423 338.648 570.86 342.602 574.859 343.088Z" fill="#F4A392"/>
<path d="M586.766 344.785C589.398 345.713 627.576 366.536 642.984 360.876C650.988 357.935 658.15 344.076 663.19 329.848C659.227 330.447 648.837 329.737 638.984 322.1C637.227 333.123 635.413 341.054 633.602 340.897C632.105 340.768 592.371 334.156 588.886 335.253C585.4 336.351 584.133 343.858 586.766 344.785Z" fill="#F4A392"/>
<path d="M638.582 318.283C638.984 309.437 639.018 294.398 641.218 287.086C646.088 270.898 662.122 272.723 666.548 279.044" stroke="#C7C8EE" stroke-linecap="round" stroke-linejoin="round"/>
<rect x="661.814" y="395.071" width="3.87169" height="110.988" rx="1.93585" fill="#4A4C96"/>
<rect x="624.385" y="395.071" width="3.87169" height="110.988" rx="1.93585" fill="#4A4C96"/>
<rect x="626.967" y="473.796" width="38.7169" height="3.87169" fill="#4A4C96"/>
<rect x="614.062" y="391.2" width="65.8187" height="7.74338" rx="3.87169" fill="#5659A5"/>
<path d="M490.191 253.921L501.125 297.493C497.723 300.481 490.575 307.096 489.199 309.651C487.823 312.207 483.459 313.421 481.448 313.709L466.591 261.007L467.47 254.996L490.191 253.921Z" fill="#4A4C96"/>
<path d="M501.14 297.42L483.503 313.428L530.647 335.562L543.933 339.512L543.738 313.382L501.14 297.42Z" fill="#23255F"/>
<path d="M463.738 254.602L467.404 255.138L483.68 313.37L544.153 339.968L541.55 342.591L480.429 315.648L463.738 254.602Z" fill="#111233"/>
<g filter="url(#herofilter0_f)">
<path d="M488.142 333.565L518.037 345.797L513.412 350.836L487.107 340.64L488.142 333.565Z" fill="black" fill-opacity="0.3"/>
</g>
<path d="M501 297L483.544 313.334L653.999 229L501 297Z" fill="url(#heropaint0_linear)" fill-opacity="0.16"/>
<path d="M467.274 254.797L483.544 313.334L501 297L489.999 253.616L467.274 254.797Z" fill="url(#heropaint1_linear)" fill-opacity="0.16"/>
<path d="M501 297L653.999 229L489.999 253.616L501 297Z" fill="url(#heropaint2_linear)" fill-opacity="0.16"/>
<path d="M467.274 254.797L489.999 253.616L653.999 229L467.274 254.797Z" fill="url(#heropaint3_linear)" fill-opacity="0.16"/>
<path d="M608.307 195.223V227.722C604.807 220.222 588.807 215.723 574.807 215.723C560.807 215.723 541.307 216.223 525.807 215.723C510.307 215.223 502 207.5 502 195.223C502 182.945 508.307 176.222 520.807 176.222C533.307 176.222 568.307 175.722 584.807 176.222C601.307 176.722 608.307 182.223 608.307 195.223Z" fill="#262865"/>
<rect width="84" height="2" rx="1" transform="matrix(-1 0 0 1 599 188)" fill="#6466C5"/>
<rect width="67" height="2" rx="1" transform="matrix(-1 0 0 1 599 195)" fill="#6466C5"/>
<rect width="40" height="2" rx="1" transform="matrix(-1 0 0 1 599 202)" fill="#6466C5"/>
<path d="M762.942 175.789L449.775 45.1914L464.248 -23.1865H746.022L762.942 175.789Z" fill="url(#heropaint4_linear)"/>
<g filter="url(#herofilter1_f)">
<path d="M486.167 422.536L518.512 435.77L513.507 441.221L485.048 430.19L486.167 422.536Z" fill="black" fill-opacity="0.3"/>
</g>
</g>
<g opacity="0.9">
<clipPath id="heromask1" masktype="alpha" maskUnits="userSpaceOnUse" x="254" y="48" width="165" height="403">
<path d="M254.934 94.4319C254.934 85.0684 261.494 76.9857 270.658 75.0602L395.003 48.931C407.304 46.346 418.868 55.7326 418.868 68.3026V430.755C418.868 443.325 407.304 452.712 395.003 450.127L270.658 423.998C261.494 422.072 254.934 413.99 254.934 404.626V94.4319Z" fill="#1D1E4F"/>
</clipPath>
<g clip-path="url(#heromask1)">
<path d="M568.1 219.947L254.934 89.3496L269.406 20.9717H551.18L568.1 219.947Z" fill="url(#heropaint5_linear)"/>
<path d="M279.002 371.804C268.248 369.889 255.988 337.756 263.199 321.405C272.332 305.917 293.315 314.162 295.929 315.81C298.544 317.458 323.685 342.03 327.145 345.955C330.604 349.881 325.87 366.141 325.513 371.803C325.156 377.465 324.37 378.157 321.416 377.97C318.462 377.784 289.756 373.719 279.002 371.804Z" fill="#121334"/>
<ellipse cx="296.743" cy="420.406" rx="20.4727" ry="2.21994" transform="rotate(3.61183 296.743 420.406)" fill="#1B1C47"/>
<rect x="295.49" y="373.833" width="5.42651" height="46.8653" fill="#1B1C47"/>
<path d="M361.293 408.662C360.212 406.939 356.148 396.968 356.319 394.26C356.49 391.552 360.303 393.029 360.303 393.029C361.733 395.178 363.6 398.724 367.008 401.114C371.268 404.101 374.884 400.869 377.115 400.763C379.346 400.657 378.469 403.567 375.59 406.104C372.712 408.641 362.909 411.235 361.293 408.662Z" fill="#F4A392"/>
<path d="M342.855 412.833C338.125 410.825 335.862 405.842 335.322 403.601L331.434 401.253C331.354 405.761 328.619 415.495 331.517 416.721C334.416 417.948 348.201 420.931 350.873 418.987C353.545 417.043 348.767 415.343 342.855 412.833Z" fill="#F4A392"/>
<path d="M338.329 400.506C338.173 402.968 338.093 408.153 332.677 407.811C329.525 407.612 328.899 397.192 329.427 388.822C329.85 382.126 330.78 375.232 331.192 372.622C329.468 372.513 298.283 369.309 295.821 369.153C293.359 368.998 303.799 356.311 291.736 355.549C282.086 354.94 289.037 342.197 293.718 335.902L311.688 337.037C312.128 339.206 313.081 343.946 313.375 345.546C313.743 347.547 331.159 349.635 342.221 350.58C353.284 351.525 347.718 369.216 345.469 373.523C343.22 377.83 338.484 398.044 338.329 400.506Z" fill="#2E3078"/>
<path d="M360.983 390.072C362.427 394.612 363.085 399.844 357.423 399.486C353.805 394.15 346.232 382.567 344.88 378.923C343.19 374.367 347.007 372.631 344.768 361.121C342.529 349.61 315.899 368.196 302.45 369.818C289.002 371.441 281.174 366.251 279.611 355.772C278.048 345.293 285.269 336.604 288.133 334.314C290.996 332.023 302.367 331.999 297.578 337.381C292.79 342.763 299.097 344.645 301.559 344.8C304.02 344.955 335.364 341.744 343.086 344.703C350.808 347.662 359.54 385.532 360.983 390.072Z" fill="#363983"/>
<path d="M274.334 344.598C269.657 344.303 266.703 338.679 260.318 338.029L260.301 339.017C260.126 355.249 265.323 373.307 272.938 374.663C283.692 376.577 318.726 377.553 321.68 377.739C324.634 377.926 325.419 377.234 325.777 371.572L302.482 370.102C296.327 369.713 296.931 367.987 295.415 366.937C293.482 358.412 279.012 344.894 274.334 344.598Z" fill="#1B1C47"/>
<path d="M281.758 294.062C282.62 300.253 287.72 309.744 293.612 310.698C305.339 309.589 323.493 302.895 324.915 294.748C326.692 284.564 319.168 282.8 317.714 277.945C316.26 273.09 321.126 273.516 317.751 266.239C314.377 258.962 304.111 253.071 293.348 258.977C282.586 264.884 285.576 277.385 286.39 281.433C287.203 285.481 280.681 286.324 281.758 294.062Z" fill="#121334"/>
<path d="M295.264 289.588C287.158 290.295 282.548 301.356 281.257 306.798C282.731 316.334 285.545 336.091 285.013 338.834C284.349 342.263 313.175 351.405 314.902 342.489C316.629 333.573 315.549 338.842 314.135 331.453C312.72 324.063 313.533 320.166 315.857 319.193C318.18 318.22 322.406 314.769 318.359 302.6C314.312 290.432 305.397 288.705 295.264 289.588Z" fill="#4C4E9B"/>
<path d="M322.002 317.5C320.603 317.139 321.933 313.835 320.603 311.014L313.303 316.979C312.827 319.886 312.627 325.976 315.634 327.082C319.391 328.465 334.908 322.158 338.307 320.54C341.122 319.201 351.494 315.681 353.537 314.142C355.58 312.604 357.011 308.016 354.851 307.458C352.15 306.761 347.179 311.675 346.021 311.377C344.864 311.078 347.421 305.954 346.263 305.655C345.106 305.357 343.693 312.428 342.235 313.291C340.778 314.155 327.789 318.993 322.002 317.5Z" fill="#E6836E"/>
<path d="M300.645 274.281C296.02 275.675 298.681 275.605 299.579 280.071C299.752 280.932 299.778 281.719 299.713 282.461C299.942 283.03 300.866 284.443 302.72 285.546C304.574 286.649 307.047 286.797 308.052 286.733C314.909 285.355 313.861 273.484 312.465 270.976C311.07 268.469 305.269 272.887 300.645 274.281Z" fill="#F4A392"/>
<path d="M298.303 291.478C299.2 295.944 304.314 301.422 309.028 300.475C312.029 299.872 311.237 292.749 309.639 290.918C308.472 289.58 307.944 287.682 308.05 286.731C307.045 286.796 304.572 286.648 302.718 285.545C300.864 284.442 299.94 283.028 299.711 282.46C299.438 285.565 297.578 287.873 298.303 291.478Z" fill="#E6836E"/>
<rect x="318.711" y="339.505" width="86.3308" height="4.43987" rx="2.21994" transform="rotate(-0.447158 318.711 339.505)" fill="#5659A5"/>
<rect x="327.109" y="340.92" width="4.43987" height="85.3442" rx="2.21994" transform="rotate(-0.447158 327.109 340.92)" fill="#5659A5"/>
<rect x="390.742" y="340.423" width="4.43987" height="85.3442" rx="2.21994" transform="rotate(-0.447158 390.742 340.423)" fill="#5659A5"/>
<path d="M334.868 337.654C334.919 337.632 334.972 337.615 335.026 337.603L353.278 333.479C356.277 332.801 358.143 336.629 355.762 338.574C355.248 338.993 354.606 339.225 353.943 339.23L335.231 339.376C334.252 339.384 333.97 338.042 334.868 337.654Z" fill="#2E3078"/>
<path d="M356.835 314.313C357.675 312.63 359.388 311.561 361.269 311.546L386.8 311.347C390.533 311.318 392.98 315.24 391.313 318.58L382.48 336.275C381.64 337.958 379.927 339.027 378.046 339.042L352.515 339.241C348.782 339.27 346.335 335.348 348.002 332.008L356.835 314.313Z" fill="#363983"/>
<ellipse cx="372.391" cy="327.739" rx="2.4666" ry="2.95992" transform="rotate(11.4727 372.391 327.739)" fill="#6264A5"/>
<path d="M294.87 326.734C293.262 327.207 292.652 316.707 292.548 311.398C289.829 307.101 281.976 306.632 281.503 307.499C281.03 308.366 281.665 331.633 286.001 333.999C290.337 336.366 312.964 333.794 319.863 332.495C325.382 331.455 329.719 328.87 330.665 327.135C329.956 326.373 326.898 323.729 324.595 323.823C321.717 323.941 319.272 330.484 313.399 327.842C307.525 325.199 296.881 326.143 294.87 326.734Z" fill="#F4A392"/>
<path d="M396.999 278.222H323.999C326.498 278.222 334.5 269.223 334.5 264.222C334.5 259.222 337.5 253.222 342 253.222C346.5 253.222 391.5 252.722 396.999 253.222C402.498 253.722 406.005 258.723 406.505 265.223C407.005 271.723 403.999 278.222 396.999 278.222Z" fill="#262865"/>
<rect x="347" y="259" width="51" height="2" rx="1" fill="#6466C5"/>
<rect x="347" y="265" width="41" height="2" rx="1" fill="#6466C5"/>
<rect x="347" y="271" width="24" height="2" rx="1" fill="#6466C5"/>
<g opacity="0.5">
<path d="M338.363 134.853C343.438 137.827 375.405 138.561 380.868 134.139C379.669 132.318 373.749 128.897 359.661 129.782C342.051 130.889 338.363 132.917 338.363 134.853Z" fill="#6769B3"/>
<path d="M361.652 68V108.616" stroke="url(#heropaint6_linear)"/>
<path d="M338.363 134.853C336.457 134.239 335.08 130.871 344.816 122.314C356.987 111.619 361.412 107.654 362.058 107.654C362.139 107.654 362.552 107.981 363.205 108.562C367.724 112.582 383.768 128.787 381.512 133.378C381.38 133.647 381.163 133.901 380.868 134.139C375.405 138.561 343.438 137.828 338.363 134.853Z" fill="#363983"/>
<path d="M359.649 129.782C373.737 128.897 379.658 132.318 380.857 134.139C380.088 162.533 374.531 219.457 358.451 220C342.371 219.457 339.12 163.247 338.352 134.853C338.352 132.917 342.039 130.889 359.649 129.782Z" fill="url(#heropaint7_linear)" fill-opacity="0.1"/>
<path d="M344.816 122.314C335.08 130.871 336.457 134.239 338.363 134.853C338.363 133.497 340.172 132.096 347.308 130.998C340.805 131.727 355.196 116.344 363.205 108.562C362.552 107.981 362.139 107.654 362.058 107.654C361.412 107.654 356.987 111.619 344.816 122.314Z" fill="#47499E"/>
</g>
</g>
</g>
<g opacity="0.7">
<clipPath id="heromask2" masktype="alpha" maskUnits="userSpaceOnUse" x="0" y="117" width="94" height="280">
<path d="M0.460938 152.11C0.460938 143.168 6.45643 135.336 15.0889 133.002L68.9914 118.427C81.5738 115.025 93.9529 124.501 93.9529 137.536V377.008C93.9529 390.042 81.5738 399.519 68.9914 396.116L15.0889 381.542C6.45644 379.207 0.460938 371.376 0.460938 362.433V152.11Z" fill="#1D1E4F"/>
</clipPath>
<g clip-path="url(#heromask2)">
<path d="M308.008 270.377L-5.1582 139.779L9.31402 71.4014H291.088L308.008 270.377Z" fill="url(#heropaint8_linear)"/>
<path d="M70.0214 297.528C68.6903 297.596 66.1962 297.306 66.868 295.605C67.039 295.172 67.1614 294.602 67.2546 293.954C67.5079 291.242 69.0527 286.659 70.0934 285.505C71.1341 284.35 70.1596 287.728 70.0586 288.667C69.9576 289.606 72.3746 287.017 74.7905 287.277C77.2064 287.537 78.4143 287.667 77.2726 289.76C76.1309 291.853 73.4127 293.302 72.9425 293.963C71.0942 295.419 70.0463 297.295 70.0214 297.528Z" fill="#E6836E"/>
<path d="M51.3954 306.036C48.8785 305.765 50.7411 297.661 47.2018 293.9C43.6626 290.139 39.3792 303.763 39.3792 303.763C39.3792 303.763 43.2339 316.815 49.1776 317.773C55.1213 318.732 68.9832 299.445 69.8499 297.306C70.7165 295.168 67.9427 292.555 66.5147 293.995C65.0866 295.436 53.9123 306.307 51.3954 306.036Z" fill="#E6836E"/>
<path d="M30.0139 373.727C29.5139 376.727 2.01394 408.227 -3.98606 413.727C-3.98606 416.227 0.0136719 417.728 1.51367 417.228C3.01367 416.728 47.013 391.728 49.513 381.228C52.013 370.728 48.513 345.227 45.013 334.727C41.513 324.227 13.5139 331.227 13.5139 338.727C13.5139 346.227 30.5139 370.727 30.0139 373.727Z" fill="#292C6B"/>
<path d="M7.51367 395.727C7.51367 405.227 5.01367 420.727 13.0137 420.727C17.5137 420.727 21.0137 395.727 23.5137 382.728C26.0137 369.728 37.0137 346.227 37.0137 333.727C37.0137 321.227 7.51367 327.227 7.51367 333.727C7.51367 340.227 13.0137 364.227 13.0137 368.227C13.0137 372.227 7.51367 386.227 7.51367 395.727Z" fill="#2F3176"/>
<path d="M50.0605 302.621C46.2272 302.454 42 302 42 305C42 308 44.8356 323.466 44.3105 336.85C40.8994 339.25 18.3985 334.85 7.5745 332.35L8.5745 319.85C6.40784 321.35 5.80508 321.71 2.20508 316.91C-2.29492 310.91 0.534729 296.827 6.70508 285.91C13.2051 274.41 24.2051 273.896 37.7051 279.396C48.5051 283.796 50.0605 301.621 50.0605 302.621Z" fill="#2F3176"/>
<path d="M34.2948 271.245C31.656 273.832 27.4242 274.666 25.5001 274.5C20.4148 274.5 17.6646 262.284 19.7262 258.429C21.7878 254.574 33.3328 256.191 34.2949 257.31C35.257 258.429 37.5934 268.012 34.2948 271.245Z" fill="#F4A392"/>
<path d="M38.9012 267.032C39.3985 268.939 37.9067 268.463 36.9122 269.416L32.9342 273.231C32.9342 273.231 31.4479 275.5 31.5 278C31.5521 280.5 31.5 285.5 32 286C32.5 286.5 21.001 276.5 21.001 276.5C21.001 276.5 21 264.299 21 258.448C21 254.633 36.9122 256.064 36.9122 257.494C36.9122 258.925 38.404 265.124 38.9012 267.032Z" fill="#F4A392"/>
<path d="M47.5 317.729C47.5 312.729 42.5 316.229 40.0009 316.229C29.5017 317.229 13.0136 317.729 11.0136 315.729C9.01362 313.729 13.5136 303.729 11.0136 305.229C9.01362 306.429 3.01362 305.729 0.0136185 304.229C-0.486382 308.229 -0.58638 318.129 3.01362 321.729C7.51362 326.229 26 321.229 33.5 321.729C41 322.229 47.5 322.729 47.5 317.729Z" fill="#F4A392"/>
<path d="M37.0867 276.777C31.705 278.266 28.2803 271.813 27.3018 271.813V266.849C27.3018 264.863 25.8339 262.878 23.8769 262.878C21.9199 262.878 24.8554 268.338 24.8554 269.331C24.8554 270.125 22.5002 272 21.2356 271.813C19.971 271.626 15.5599 258.906 17.5168 252.95C19.9631 245.504 28.7695 250.468 32.6835 250.468C35.8147 250.468 34.9666 247.489 34.1512 246C36.4344 246.331 41.0007 248.184 41.0007 252.95C41.0007 257.715 32.5204 260.23 28.2803 260.892C28.2803 262.216 28.3781 265.26 28.7695 266.849C29.1609 268.437 35.1297 268.834 38.0652 268.834C38.5544 270.986 39.0437 275.586 37.0867 276.777Z" fill="#121334"/>
<path d="M84.302 272H39C40.4898 272 47.0485 265.291 47.0485 262.119C47.0485 258.947 48.8367 254.141 51.519 254.141C54.2013 254.141 81.024 253.824 84.302 254.141C87.5799 254.458 89.6702 258.63 89.9682 262.754C90.2663 266.877 88.4744 272 84.302 272Z" fill="#262865"/>
<rect x="56" y="257" width="30" height="2" rx="1" fill="#6466C5"/>
<rect x="56" y="262" width="25" height="2" rx="1" fill="#6466C5"/>
<rect x="56" y="267" width="14" height="2" rx="1" fill="#6466C5"/>
</g>
</g>
<g opacity="0.8">
<clipPath id="heromask3" masktype="alpha" maskUnits="userSpaceOnUse" x="107" y="258" width="127" height="161">
<path d="M107.83 277.969C107.83 267.036 116.692 258.174 127.625 258.174H213.47C224.402 258.174 233.265 267.036 233.265 277.969V398.638C233.265 410.917 222.201 420.233 210.101 418.143L124.256 403.318C114.764 401.679 107.83 393.445 107.83 383.812V277.969Z" fill="#1D1E4F"/>
</clipPath>
<g clip-path="url(#heromask3)">
<path d="M411.516 386.544L98.3496 255.947L112.822 187.569H394.596L411.516 386.544Z" fill="url(#heropaint9_linear)"/>
<path d="M149.518 323.74C151.279 329.123 161.557 346.938 166.476 355.173L169.3 342.253C169.606 341.03 173.167 327.806 178.872 326.436C180.653 326.009 175.233 337.784 176.982 346.229C177.123 346.913 178.206 357.991 179.004 363.276C177.679 365.73 173.001 371.182 168.071 371.489C161.908 371.873 147.922 346.331 143.781 326.332C145.136 325.366 148.18 323.495 149.518 323.74Z" fill="#292C6B"/>
<path d="M171.947 422.305H212.614V365.795L214.438 347.094C234.45 355.521 210.731 327.982 205.049 323.72C197.946 318.394 187.369 319.552 179.726 324.57C172.083 329.588 170.641 349.536 170.641 349.536C170.641 361.367 170.676 414.54 171.947 422.305Z" fill="#2F3176"/>
<path d="M135.294 318.173C137.024 322.832 144.447 325.32 144.178 326.639C146.045 326.997 149.981 327.703 149.805 326.612C148.674 319.577 147.764 315.882 146.272 314.206C144.78 312.531 144.859 317.468 144.472 317.389C144.085 317.31 142.751 313.166 139.484 312.177C136.217 311.189 133.804 314.161 135.294 318.173Z" fill="#F4A392"/>
<path d="M199.591 397.307L206.484 391.705L204.516 386.835C204.035 387.06 202.639 387.465 200.901 387.285C198.728 387.061 193.4 387.852 191.058 389.258C188.717 390.663 190.861 391.464 191.46 390.977C192.06 390.49 195.704 389.463 195.891 390.306C196.079 391.148 189.823 393.248 189.561 398.437C189.3 403.625 197.494 399.012 199.591 397.307Z" fill="#F4A392"/>
<path d="M221.177 373.085C222.582 371.943 214.505 361.046 207.023 351.012C199.541 340.978 204.671 336.015 204.671 336.015C207.373 334.131 215.439 336.715 219.788 341.238C224.152 345.748 236.919 368.951 232.762 377.306C228.606 385.662 206.953 393.309 205.51 393.983C204.068 394.658 199.309 387.578 200.32 385.761C201.331 383.943 220.511 373.626 221.177 373.085Z" fill="#383B85"/>
<path d="M213.26 359.499C210.754 356.717 205.807 350.631 204.288 346.685C204.156 346.272 204.038 345.889 203.934 345.541C204.012 345.896 204.132 346.279 204.288 346.685C205.8 351.439 209.058 360.178 212.468 364.619L213.26 359.499Z" fill="#21245B"/>
<path fill-rule="evenodd" clip-rule="evenodd" d="M197.714 316.275C195.575 317.907 189.617 320.632 182.892 318.476C179.262 317.312 180.367 308.606 183.131 300.643C183.905 298.413 184.219 296.497 184.254 294.9L191.65 294.144L205.029 301.344C204.613 303.738 203.508 309.242 202.425 312.097C201.567 314.771 200.633 316.368 197.714 316.275Z" fill="#F4A392"/>
<path d="M129.368 302H180C178.335 302 171.005 295.291 171.005 292.119C171.005 288.947 169.006 284.141 166.008 284.141C163.01 284.141 133.032 283.824 129.368 284.141C125.705 284.458 123.369 288.63 123.036 292.754C122.702 296.877 124.705 302 129.368 302Z" fill="#262865"/>
<rect width="30" height="2" rx="1" transform="matrix(-1 0 0 1 163 287)" fill="#6466C5"/>
<rect width="25" height="2" rx="1" transform="matrix(-1 0 0 1 163 292)" fill="#6466C5"/>
<rect width="14" height="2" rx="1" transform="matrix(-1 0 0 1 163 297)" fill="#6466C5"/>
<path d="M202.509 294.291C194.65 289.9 185.961 292.389 183.867 294.777C187.395 299.449 194.123 309.783 192.808 313.739C191.493 317.694 185.945 318.669 183.21 318.538C184.388 321.588 178.7 324.666 177.391 326.735C176.135 328.719 174.92 336.58 180.407 339.997C199.236 351.723 203.194 319.268 223.833 347.89C232.674 338.755 197.359 317.397 201.239 319.679C205.119 321.962 210.824 313.739 210.824 308.04C210.824 302.342 210.368 298.683 202.509 294.291Z" fill="#121334"/>
</g>
</g>
<g opacity="0.8">
<clipPath id="heromask4" masktype="alpha" maskUnits="userSpaceOnUse" x="107" y="88" width="127" height="154">
<path d="M107.83 125.198C107.83 115.766 114.485 107.644 123.733 105.79L209.578 88.5744C221.83 86.1174 233.265 95.4871 233.265 107.983V221.278C233.265 232.21 224.402 241.073 213.47 241.073H127.625C116.692 241.073 107.83 232.21 107.83 221.278V125.198Z" fill="#1D1E4F"/>
</clipPath>
<g clip-path="url(#heromask4)">
<path d="M414.717 242.891L101.551 112.294L116.023 43.916H397.797L414.717 242.891Z" fill="url(#heropaint10_linear)"/>
<path d="M156.784 173.98C155.024 175.088 149.75 177.158 147.333 178.054L144.807 185.305C145.052 185.278 146.404 184.881 149.859 183.513C153.313 182.144 158.892 176.633 161.336 174.379C164.595 174.216 164.28 172.921 164.932 172.514C165.583 172.106 165.502 173.324 166.724 173.324C167.702 173.324 167.05 173.111 166.724 172.269C167.213 173.084 168.533 173.581 169.576 173.06C170.003 172.846 170.03 172.647 169.86 172.442C170.681 172.921 171.49 173.125 171.612 172.269C171.808 170.9 173.002 171.221 171.889 170.949C172.269 170.732 168.582 170.419 168.516 170.158C167.62 168.365 163.954 170.402 162.813 171.136C161.672 171.869 158.984 172.595 156.784 173.98Z" fill="#E6836E"/>
<path d="M139.019 158.06C139.579 157.588 138.802 153.402 138.802 153.402L130.873 151.122C131.183 153.253 131.76 157.692 131.591 158.406C131.591 158.406 138.459 158.532 139.019 158.06Z" fill="#E6836E"/>
<path fill-rule="evenodd" clip-rule="evenodd" d="M130.395 151.025C131.294 152.485 134.204 155.46 138.657 155.685C139.804 155.743 140.697 154.529 141.334 152.659C140.103 152.659 139.038 152.16 138.659 151.91C139.792 152.389 141.069 152.108 141.566 151.908C141.621 151.713 141.673 151.512 141.723 151.307C141.884 150.706 142.754 150.555 143.17 150.555C142.578 149.835 142.425 147.552 142.423 146.501C142.458 145.987 142.482 145.468 142.496 144.951C142.613 140.636 144.376 138.703 145.243 138.275L129.408 140.432C129.12 141.96 128.543 145.506 128.546 147.46C128.455 149.255 129.098 150.264 130.395 151.025Z" fill="#F4A392"/>
<path d="M143.395 142.721C143.451 143.93 142.883 145.052 142.603 145.359C142.87 142.42 141.876 141.584 141.536 141.515C140.115 143.499 136.283 143.401 134.545 143.103C134.812 146.119 133.096 147.208 132.478 147.489C131.984 147.714 131.736 148.701 131.673 149.167C131.56 148.541 131.054 147.253 129.937 147.103C128.82 146.953 128.583 147.839 128.605 148.301C124.356 143.755 126.545 140.196 128.171 138.985C128.422 133.548 136.101 133.189 139.624 135.675C142.442 137.663 145.445 136.959 146.595 136.359C147.092 138.355 145.497 139.859 144.637 140.362C145.131 140.137 145.934 140.217 146.273 140.285C146.133 141.604 144.43 142.378 143.395 142.721Z" fill="#121334"/>
<path d="M198.749 235.958L196.468 230.825L195.409 228.625L200.705 226.588L203.801 233.921L198.749 235.958Z" fill="#F4A392"/>
<path d="M172.433 210.049L173.736 202.471L179.114 202.146L177.729 211.271L172.433 210.049Z" fill="#F4A392"/>
<path d="M176.665 199.865C181.798 208.963 192.227 227.241 192.879 228.789C193.531 230.337 193.71 230.369 194.427 231.152C195.323 232.129 202.004 229.196 202.086 228.789C202.167 228.381 188.398 192.532 187.257 189.762C186.116 186.992 182.939 187.236 182.206 187.236C181.619 187.236 169.36 184.195 163.303 182.674C161.348 187.589 157.437 197.91 157.437 199.865C157.437 201.82 164.172 203.939 167.54 204.754C169.061 204.428 172.347 203.662 173.325 203.206C174.303 202.749 175.959 200.788 176.665 199.865Z" fill="#262865"/>
<path d="M168.598 173.468C166.382 174.706 156.975 179.035 152.548 181.045C144.4 189.763 159.392 198.155 161.917 196.851C164.443 195.547 170.717 190.822 171.043 191.963C171.369 193.103 172.02 202.228 172.02 203.043C172.02 203.858 179.679 205.732 179.761 205.324C179.842 204.917 182.286 189.029 182.694 184.711C183.101 180.393 183.019 172.653 182.286 170.127C181.553 167.602 171.369 171.92 168.598 173.468Z" fill="#2F3176"/>
<path d="M129.329 155.136L141.224 157.824L140.165 159.535C141.469 159.617 145.787 164.587 147.824 167.276C149.861 169.964 154.994 177.053 155.319 179.986C155.58 182.332 154.613 185.689 154.097 187.074C152.663 187.074 138.889 188.486 132.181 189.192C131.447 180.502 129.964 162.908 129.899 162.061C129.834 161.214 131.067 160.948 131.692 160.92L129.329 155.136Z" fill="#4C4E9B"/>
<path d="M149.2 173.396C148.265 173.745 142.542 170.548 138.221 167.896C140.162 171.522 144.128 178.12 145.086 179.254C146.043 180.387 148.547 180.965 149.557 180.744C154.4 179.151 161.293 169.73 164.314 163.895C163.752 164.104 162.464 162.985 161.891 162.4C158.533 162.887 153.94 168.16 151.268 171.226C150.218 172.432 149.465 173.297 149.2 173.396Z" fill="#F4A392"/>
<path d="M162.012 157.727C162.284 158.961 161.513 161.517 161.554 162.801C161.594 164.086 163.371 164.625 163.907 164.304C164.443 163.984 169.442 158.232 169.357 157.847C169.289 157.538 168.386 158.088 167.943 158.401C168.736 157.781 169.638 156.37 169.51 156.155C169.407 155.984 168.71 156.439 168.374 156.689C168.653 156.182 169.07 155.225 168.504 155.447C167.939 155.669 166.724 157.335 166.187 158.141C166.459 157.542 167.017 156.22 167.069 155.723C167.134 155.102 166.599 155.422 165.911 156.706C165.224 157.99 162.714 160.362 162.91 158.5C163.106 156.637 162.293 156.25 162.165 156.036C162.037 155.821 161.672 156.185 162.012 157.727Z" fill="#F4A392"/>
<path d="M160.533 241.254L162.814 241.254L157.193 201.087L150.023 202.065L160.533 241.254Z" fill="#171843"/>
<path d="M123.787 241.335L121.506 241.335L127.128 201.168L134.297 202.146L123.787 241.335Z" fill="#171843"/>
<path d="M134.527 160.077C136.762 160.927 144.188 167.295 147.622 170.373C147.5 170.847 147.039 172.486 146.17 175.245C145.301 178.005 144.12 178.888 143.637 178.985C141.177 177.676 135.955 174.788 134.748 173.717C133.24 172.377 128.898 168.589 127.707 164.359C126.516 160.129 127.674 160.272 128.457 159.876C129.24 159.48 131.735 159.014 134.527 160.077Z" fill="#4C4E9B"/>
<path d="M176.177 149.431C176.096 150.409 175.118 169.067 175.118 170.941L182.043 169.148C182.274 169.078 182.59 168.964 182.896 168.823C183.42 168.58 183.917 168.255 183.917 167.926C183.917 167.275 184.977 148.372 184.977 147.802C184.977 147.232 184.814 145.684 183.917 145.684C183.723 145.684 183.376 145.764 182.94 145.894C181.359 146.363 178.601 147.483 177.644 147.802C176.422 148.209 176.259 148.454 176.177 149.431Z" fill="#3A3C8B"/>
<path fill-rule="evenodd" clip-rule="evenodd" d="M183.917 167.926C183.917 168.255 183.42 168.58 182.896 168.823C182.503 168.85 181.734 168.708 181.799 167.926C181.864 167.144 182.587 152.912 182.94 145.894C183.376 145.764 183.723 145.684 183.917 145.684C184.814 145.684 184.977 147.232 184.977 147.802C184.977 148.078 184.729 152.635 184.473 157.345C184.2 162.381 183.917 167.59 183.917 167.926Z" fill="#23255F"/>
<path d="M122.811 153.994C129.59 157.253 137.042 176.861 139.921 186.258C143.832 184.547 160.208 184.303 162.001 187.073C163.793 189.843 166.482 195.465 162.001 200.516C157.52 205.568 130.424 207.435 122.811 202.607C115.824 198.175 114.338 149.92 122.811 153.994Z" fill="#171843"/>
<path d="M181.31 170.778C183.428 170.37 183.021 169.148 182.287 168.904C181.554 168.659 163.793 171.918 162.408 172.163C161.299 172.358 160.805 174.091 160.697 174.933C166.861 173.684 179.615 171.104 181.31 170.778Z" fill="#23255F"/>
<path d="M186.366 221.456C186.301 218.392 180.473 213.118 177.567 210.864C175.138 211.269 173.514 209.18 172.934 208.434L172.923 208.42C172.352 207.686 169.582 212.168 169.582 212.738C169.582 213.308 179.766 221.456 181.07 222.189C182.374 222.922 186.447 225.285 186.366 221.456Z" fill="#383B85"/>
<path d="M197.613 233.677C198.982 234.524 202.257 233.541 203.723 232.943C206.168 233.188 211.61 234.1 213.826 235.795C216.597 237.913 218.959 239.787 214.56 240.439C210.16 241.091 197.613 239.38 196.554 238.647C195.494 237.913 195.902 232.617 197.613 233.677Z" fill="#383B85"/>
<ellipse rx="0.244426" ry="0.488851" transform="matrix(-1 7.1758e-10 7.1758e-10 1 179.355 148.373)" fill="white"/>
<path d="M141.632 132.159L179.355 147.884L179.355 148.861L133.372 169.367C130.52 161.871 122.099 147.535 122.555 141.93C123.125 134.923 128.596 128.248 141.632 132.159Z" fill="url(#heropaint11_linear)" fill-opacity="0.16"/>
<path d="M148.457 180.769C147.878 180.886 144.634 179.771 143.084 179.198C145.419 177.487 146.819 172.08 147.226 169.591C147.602 169.83 148.454 170.349 148.861 170.51C149.268 170.67 150.534 170.935 151.117 171.047C151.337 171.382 151.626 172.736 151.016 175.473C150.255 178.893 149.18 180.624 148.457 180.769Z" fill="#25276A"/>
<path d="M205.821 143H151C152.877 143 158.886 136.221 158.886 132.454C158.886 128.687 161.139 124.167 164.518 124.167C167.897 124.167 201.691 123.791 205.821 124.167C209.951 124.544 212.584 128.311 212.96 133.207C213.335 138.104 211.078 143 205.821 143Z" fill="#262865"/>
<rect x="168" y="129" width="39" height="1" rx="0.5" fill="#6466C5"/>
<rect x="168" y="133" width="31" height="2" rx="1" fill="#6466C5"/>
<rect x="168" y="138" width="18" height="1" rx="0.5" fill="#6466C5"/>
</g>
</g>
<path d="M544.021 130.703C543.655 140.375 548.195 141.219 553.413 140.963C558.631 140.707 565.154 138.251 564.997 130.703C564.841 123.156 559.857 120.95 555.944 121.001C552.03 121.052 544.386 121.032 544.021 130.703Z" fill="#262865"/>
<path d="M535.094 100.924C535.722 117.793 527.912 119.266 518.935 118.819C509.957 118.373 498.735 114.089 499.005 100.924C499.274 87.7597 507.847 83.9123 514.58 84.0015C521.314 84.0908 534.465 84.0557 535.094 100.924Z" fill="#262865"/>
<path d="M517.001 102.631C517.902 102.631 518.632 101.901 518.632 101C518.632 100.099 517.902 99.3682 517.001 99.3682C516.1 99.3682 515.369 100.099 515.369 101C515.369 101.901 516.1 102.631 517.001 102.631Z" fill="#8CFDFF"/>
<path d="M523.196 98.3094C522.881 98.1949 522.552 98.0804 522.209 97.9802C522.295 97.6367 522.366 97.2933 522.424 96.9641C522.724 95.0751 522.395 93.7442 521.479 93.229C521.207 93.0716 520.907 93 520.563 93C519.561 93 518.288 93.7442 517 94.9892C515.712 93.7442 514.438 93 513.436 93C513.093 93 512.792 93.0716 512.52 93.229C511.604 93.7585 511.275 95.0894 511.576 96.9641C511.633 97.2933 511.705 97.6367 511.79 97.9802C511.447 98.0804 511.118 98.1806 510.803 98.3094C509.014 98.9963 508.041 99.9408 508.041 101C508.041 102.059 509.028 103.003 510.803 103.69C511.118 103.805 511.447 103.919 511.79 104.019C511.705 104.363 511.633 104.706 511.576 105.036C511.275 106.925 511.604 108.255 512.52 108.771C512.792 108.928 513.093 109 513.436 109C514.452 109 515.726 108.255 517 107.01C518.288 108.255 519.561 109 520.563 109C520.907 109 521.207 108.928 521.479 108.771C522.395 108.241 522.724 106.91 522.424 105.036C522.366 104.706 522.295 104.363 522.209 104.019C522.552 103.919 522.881 103.819 523.196 103.69C524.985 103.003 525.958 102.059 525.958 101C525.958 99.9408 524.985 98.9963 523.196 98.3094ZM521.078 93.9445C521.665 94.288 521.865 95.347 521.622 96.8496C521.579 97.1502 521.508 97.465 521.422 97.7942C520.678 97.6224 519.89 97.5079 519.06 97.4364C518.574 96.7495 518.073 96.1341 517.572 95.576C518.631 94.5313 519.704 93.8157 520.577 93.8157C520.763 93.8157 520.935 93.8587 521.078 93.9445ZM519.475 102.431C519.218 102.889 518.917 103.347 518.602 103.805C518.073 103.848 517.543 103.862 517 103.862C516.442 103.862 515.912 103.848 515.397 103.805C515.082 103.347 514.796 102.889 514.538 102.431C514.266 101.959 514.009 101.472 513.78 101C514.009 100.528 514.266 100.041 514.538 99.5687C514.796 99.1108 515.096 98.6528 515.411 98.1949C515.941 98.1519 516.47 98.1376 517.014 98.1376C517.572 98.1376 518.102 98.1519 518.617 98.1949C518.932 98.6528 519.218 99.1108 519.475 99.5687C519.747 100.041 520.005 100.528 520.234 101C519.991 101.472 519.747 101.944 519.475 102.431ZM520.663 101.959C520.878 102.46 521.05 102.946 521.207 103.433C520.721 103.547 520.205 103.633 519.662 103.705C519.833 103.433 520.019 103.146 520.177 102.846C520.348 102.545 520.506 102.245 520.663 101.959ZM517 105.837C516.656 105.465 516.327 105.064 516.012 104.649C516.341 104.663 516.671 104.678 517 104.678C517.329 104.678 517.658 104.663 517.987 104.649C517.672 105.064 517.343 105.465 517 105.837ZM514.338 103.69C513.794 103.619 513.279 103.533 512.792 103.418C512.95 102.946 513.121 102.445 513.336 101.944C513.493 102.231 513.651 102.531 513.823 102.817C513.994 103.132 514.166 103.404 514.338 103.69ZM513.336 100.041C513.121 99.5401 512.95 99.0535 512.792 98.567C513.279 98.4525 513.794 98.3666 514.338 98.295C514.166 98.567 513.98 98.8532 513.823 99.1537C513.651 99.4542 513.493 99.7548 513.336 100.041ZM517 96.1627C517.343 96.5348 517.672 96.9355 517.987 97.3505C517.658 97.3362 517.329 97.3219 517 97.3219C516.671 97.3219 516.341 97.3362 516.012 97.3505C516.327 96.9355 516.656 96.5348 517 96.1627ZM520.177 99.168L519.662 98.3094C520.205 98.3809 520.721 98.4668 521.207 98.5813C521.05 99.0535 520.878 99.5544 520.663 100.055C520.506 99.7548 520.348 99.4542 520.177 99.168ZM512.377 96.8496C512.134 95.347 512.334 94.288 512.921 93.9445C513.064 93.8587 513.236 93.8157 513.422 93.8157C514.281 93.8157 515.354 94.517 516.427 95.576C515.926 96.1198 515.425 96.7495 514.939 97.4364C514.109 97.5079 513.322 97.6367 512.578 97.7942C512.492 97.465 512.434 97.1502 512.377 96.8496ZM508.842 101C508.842 100.327 509.658 99.6117 511.089 99.0822C511.375 98.9677 511.69 98.8675 512.005 98.7816C512.234 99.4972 512.52 100.256 512.864 101.014C512.52 101.773 512.22 102.517 512.005 103.232C510.03 102.66 508.842 101.801 508.842 101ZM512.921 108.055C512.334 107.712 512.134 106.653 512.377 105.15C512.42 104.849 512.492 104.535 512.578 104.205C513.322 104.377 514.109 104.492 514.939 104.563C515.425 105.25 515.926 105.866 516.427 106.424C515.368 107.468 514.295 108.184 513.422 108.184C513.236 108.184 513.064 108.141 512.921 108.055ZM521.622 105.15C521.865 106.653 521.665 107.712 521.078 108.055C520.935 108.141 520.763 108.184 520.577 108.184C519.719 108.184 518.645 107.483 517.572 106.424C518.073 105.88 518.574 105.25 519.06 104.563C519.89 104.492 520.678 104.363 521.422 104.205C521.508 104.535 521.565 104.849 521.622 105.15ZM522.91 102.917C522.624 103.032 522.309 103.132 521.994 103.218C521.765 102.502 521.479 101.744 521.136 100.986C521.479 100.227 521.78 99.4829 521.994 98.7673C523.969 99.3397 525.157 100.198 525.157 101C525.157 101.672 524.327 102.388 522.91 102.917Z" fill="#8CFDFF"/>
<path d="M468.752 143.233C469.392 160.409 461.439 161.909 452.298 161.455C443.157 161 431.731 156.638 432.005 143.233C432.279 129.828 441.009 125.911 447.865 126.002C454.721 126.092 468.112 126.057 468.752 143.233Z" fill="#262865"/>
<path d="M446.416 149.464C446.416 149.464 445.373 150.071 447.159 150.275C449.323 150.523 450.428 150.487 452.812 150.037C452.812 150.037 453.44 150.429 454.316 150.77C448.97 153.06 442.217 150.637 446.416 149.464ZM445.762 146.475C445.762 146.475 444.592 147.341 446.379 147.526C448.691 147.764 450.516 147.784 453.676 147.176C453.676 147.176 454.112 147.619 454.798 147.861C448.336 149.751 441.138 148.009 445.762 146.475Z" fill="#7579FF"/>
<path d="M451.268 141.403C452.586 142.92 450.923 144.284 450.923 144.284C450.923 144.284 454.267 142.558 452.732 140.395C451.297 138.38 450.197 137.378 456.152 133.925C456.152 133.925 446.804 136.259 451.268 141.403Z" fill="#CE368A"/>
<path d="M458.34 151.676C458.34 151.676 459.112 152.312 457.49 152.804C454.405 153.739 444.648 154.02 441.938 152.841C440.964 152.418 442.791 151.83 443.366 151.706C443.965 151.576 444.307 151.6 444.307 151.6C443.223 150.837 437.304 153.098 441.301 153.747C452.199 155.513 461.167 152.951 458.34 151.676ZM446.919 143.377C446.919 143.377 441.957 144.556 445.162 144.985C446.516 145.166 449.213 145.124 451.727 144.913C453.781 144.741 455.842 144.372 455.842 144.372C455.842 144.372 455.119 144.683 454.594 145.04C449.554 146.366 439.819 145.748 442.622 144.393C444.991 143.247 446.919 143.377 446.919 143.377ZM455.822 148.353C460.945 145.692 458.576 143.134 456.922 143.478C456.518 143.563 456.337 143.636 456.337 143.636C456.337 143.636 456.487 143.4 456.774 143.298C460.045 142.149 462.56 146.69 455.719 148.488C455.719 148.488 455.798 148.417 455.822 148.353Z" fill="#7579FF"/>
<path d="M452.732 128.348C452.732 128.348 455.569 131.186 450.041 135.55C445.608 139.051 449.03 141.047 450.039 143.328C447.451 140.993 445.553 138.938 446.826 137.025C448.696 134.217 453.876 132.856 452.732 128.348Z" fill="#CE368A"/>
<path d="M447.423 155.567C452.339 155.881 459.892 155.392 460.07 153.065C460.07 153.065 459.727 153.947 456.007 154.647C451.81 155.437 446.632 155.345 443.562 154.838C443.562 154.839 444.191 155.359 447.423 155.567Z" fill="#7579FF"/>
<path d="M151.352 67.9499C151.759 78.8638 146.706 79.8167 140.898 79.5279C135.089 79.2392 127.829 76.4674 128.003 67.9499C128.177 59.4325 133.724 56.9432 138.08 57.001C142.437 57.0587 150.946 57.036 151.352 67.9499Z" fill="#262865"/>
<path d="M144.708 71.0804C142.985 73.3791 139.304 72.6032 136.944 72.7148C136.944 72.7148 136.527 72.7381 136.106 72.8074C136.106 72.8074 136.265 72.7395 136.468 72.6694C138.125 72.0955 138.909 71.9802 139.916 71.4622C141.808 70.4917 143.691 68.3776 144.074 66.1814C143.354 68.2936 141.164 70.1116 139.169 70.8498C137.804 71.3542 135.335 71.8451 135.335 71.8453C135.336 71.8471 135.236 71.7936 135.235 71.7924C133.556 70.9745 133.507 67.3333 136.557 66.1596C137.894 65.6446 139.173 65.9274 140.618 65.583C142.16 65.216 143.945 64.059 144.671 62.5464C145.484 64.9625 146.461 68.7426 144.708 71.0804ZM144.738 61.7977C144.533 62.2857 144.283 62.7254 143.994 63.1187C142.724 61.8133 140.951 61 138.991 61C135.136 61 132 64.1403 132 67.9996C132 70.0228 132.862 71.8474 134.238 73.1264L134.391 73.2622C134.135 73.0535 134.096 72.6775 134.303 72.4213C134.511 72.165 134.887 72.1253 135.143 72.3329C135.399 72.5409 135.438 72.9178 135.231 73.1744C135.024 73.4312 134.647 73.47 134.391 73.2628L134.495 73.3552C135.712 74.3806 137.28 75 138.991 75C142.676 75 145.702 72.1287 145.961 68.5047C146.152 66.7303 145.629 64.4772 144.738 61.7977Z" fill="#5FB832"/>
<path d="M218.778 89.1497C219.192 100.263 214.047 101.233 208.133 100.939C202.219 100.645 194.826 97.8225 195.003 89.1497C195.181 80.4768 200.829 77.9422 205.264 78.001C209.7 78.0598 218.364 78.0367 218.778 89.1497Z" fill="#262865"/>
<path d="M201.458 89.888C201.834 89.888 202.109 89.7973 202.282 89.616C202.458 89.4347 202.546 89.1867 202.546 88.872C202.546 88.728 202.523 88.5973 202.478 88.48C202.435 88.36 202.369 88.2587 202.278 88.176C202.19 88.0907 202.078 88.0253 201.942 87.98C201.806 87.9347 201.645 87.912 201.458 87.912H200.698V89.888H201.458ZM201.458 87C201.855 87 202.198 87.0467 202.486 87.14C202.777 87.2333 203.015 87.364 203.202 87.532C203.389 87.6973 203.526 87.8947 203.614 88.124C203.705 88.3533 203.75 88.6027 203.75 88.872C203.75 89.1573 203.703 89.4187 203.61 89.656C203.517 89.8933 203.375 90.0973 203.186 90.268C202.997 90.4387 202.758 90.572 202.47 90.668C202.182 90.7613 201.845 90.808 201.458 90.808H200.698V92.804H199.498V87H201.458Z" fill="#12C8B1"/>
<path d="M209.486 87V92.804H208.278V90.304H205.722V92.804H204.514V87H205.722V89.464H208.278V87H209.486Z" fill="#12C8B1"/>
<path d="M212.661 89.888C213.037 89.888 213.312 89.7973 213.485 89.616C213.661 89.4347 213.749 89.1867 213.749 88.872C213.749 88.728 213.727 88.5973 213.681 88.48C213.639 88.36 213.572 88.2587 213.481 88.176C213.393 88.0907 213.281 88.0253 213.145 87.98C213.009 87.9347 212.848 87.912 212.661 87.912H211.901V89.888H212.661ZM212.661 87C213.059 87 213.401 87.0467 213.689 87.14C213.98 87.2333 214.219 87.364 214.405 87.532C214.592 87.6973 214.729 87.8947 214.817 88.124C214.908 88.3533 214.953 88.6027 214.953 88.872C214.953 89.1573 214.907 89.4187 214.813 89.656C214.72 89.8933 214.579 90.0973 214.389 90.268C214.2 90.4387 213.961 90.572 213.673 90.668C213.385 90.7613 213.048 90.808 212.661 90.808H211.901V92.804H210.701V87H212.661Z" fill="#12C8B1"/>
<path d="M73.6794 234.759C74.0046 243.489 69.9626 244.251 65.3166 244.02C60.6706 243.789 54.8631 241.572 55.0025 234.759C55.1418 227.946 59.5788 225.955 63.0633 226.001C66.5478 226.047 73.3542 226.029 73.6794 234.759Z" fill="#262865"/>
<path d="M62.1488 236.972C62.3335 236.972 62.4993 236.94 62.646 236.876C62.7928 236.809 62.9167 236.715 63.018 236.594C63.1192 236.474 63.1963 236.328 63.2495 236.157C63.3026 235.985 63.3292 235.792 63.3292 235.578V232.107H64.4677V235.578C64.4677 235.932 64.4133 236.257 64.3045 236.554C64.1983 236.849 64.0452 237.103 63.8453 237.317C63.6454 237.532 63.4025 237.699 63.1166 237.82C62.8307 237.94 62.5081 238 62.1488 238C61.7896 238 61.4657 237.94 61.1773 237.82C60.8914 237.699 60.6485 237.532 60.4486 237.317C60.2487 237.103 60.0944 236.849 59.9856 236.554C59.8793 236.257 59.8262 235.932 59.8262 235.578V232.107H60.9647V235.578C60.9647 235.792 60.9913 235.985 61.0444 236.157C61.0976 236.328 61.1747 236.474 61.2759 236.594C61.3772 236.715 61.5011 236.809 61.6479 236.876C61.7946 236.94 61.9616 236.972 62.1488 236.972Z" fill="#CB4B94"/>
<path d="M70.1387 237.936H69.0001C68.9242 237.936 68.8622 237.916 68.8141 237.876C68.7686 237.836 68.7319 237.789 68.7041 237.735L67.5124 235.59C67.4997 235.62 67.4871 235.649 67.4744 235.678C67.4643 235.705 67.4517 235.731 67.4365 235.755L66.3055 237.735C66.2726 237.786 66.2334 237.833 66.1878 237.876C66.1448 237.916 66.0892 237.936 66.0209 237.936H64.9582L66.7609 234.935L65.0265 232.107H66.1651C66.241 232.107 66.2966 232.118 66.3321 232.14C66.3675 232.161 66.3991 232.196 66.4269 232.244L67.6111 234.305C67.6237 234.273 67.6376 234.24 67.6528 234.208C67.668 234.173 67.6857 234.139 67.7059 234.104L68.7686 232.264C68.799 232.211 68.8319 232.172 68.8673 232.148C68.9052 232.121 68.9508 232.107 69.0039 232.107H70.0931L68.3435 234.883L70.1387 237.936Z" fill="#CB4B94"/>
<path d="M25.61 222.788C25.8992 230.551 22.305 231.229 18.1737 231.024C14.0424 230.818 8.87825 228.847 9.00219 222.788C9.12613 216.73 13.0715 214.96 16.17 215.001C19.2685 215.042 25.3208 215.026 25.61 222.788Z" fill="#262865"/>
<path d="M16.8162 225.113C17.0168 225.113 17.1969 225.08 17.3563 225.014C17.5157 224.945 17.6504 224.849 17.7603 224.725C17.8703 224.602 17.9541 224.452 18.0118 224.276C18.0696 224.1 18.0984 223.902 18.0984 223.682V220.12H19.3353V223.682C19.3353 224.045 19.2762 224.379 19.158 224.684C19.0426 224.987 18.8763 225.248 18.6591 225.468C18.442 225.687 18.1781 225.859 17.8675 225.983C17.5569 226.107 17.2065 226.168 16.8162 226.168C16.4259 226.168 16.0741 226.107 15.7607 225.983C15.4501 225.859 15.1863 225.687 14.9691 225.468C14.752 225.248 14.5843 224.987 14.4661 224.684C14.3507 224.379 14.293 224.045 14.293 223.682V220.12H15.5298V223.682C15.5298 223.902 15.5587 224.1 15.6164 224.276C15.6741 224.452 15.758 224.602 15.8679 224.725C15.9779 224.849 16.1126 224.945 16.272 225.014C16.4314 225.08 16.6128 225.113 16.8162 225.113Z" fill="#12C8B1"/>
<path d="M21.7564 226.102H20.5113V220.12H21.7564V226.102Z" fill="#12C8B1"/>
<path d="M82.7085 162.648C83.1038 173.261 78.19 174.187 72.5418 173.907C66.8937 173.626 59.8335 170.931 60.003 162.648C60.1724 154.365 65.5664 151.945 69.8025 152.001C74.0386 152.057 82.3131 152.035 82.7085 162.648Z" fill="#262865"/>
<path d="M51.7085 144.648C52.1038 155.261 47.19 156.187 41.5418 155.907C35.8937 155.626 28.8335 152.931 29.003 144.648C29.1724 136.365 34.5664 133.945 38.8025 134.001C43.0386 134.057 51.3131 134.035 51.7085 144.648Z" fill="#262865"/>
<path d="M140.123 258.842C140.525 269.649 135.522 270.592 129.771 270.306C124.019 270.02 116.831 267.276 117.003 258.842C117.176 250.409 122.668 247.944 126.981 248.001C131.295 248.058 139.72 248.036 140.123 258.842Z" fill="#262865"/>
<path d="M317.84 133.93C318.395 148.811 311.505 150.11 303.585 149.716C295.666 149.322 285.767 145.543 286.004 133.93C286.242 122.317 293.805 118.923 299.744 119.001C305.684 119.08 317.286 119.049 317.84 133.93Z" fill="#262865"/>
<path d="M303.021 214.703C302.655 224.375 307.195 225.219 312.413 224.963C317.631 224.707 324.154 222.251 323.997 214.703C323.841 207.156 318.857 204.95 314.944 205.001C311.03 205.052 303.386 205.032 303.021 214.703Z" fill="#262865"/>
<path d="M389.02 175.618C388.663 185.204 393.101 186.041 398.203 185.787C403.304 185.534 409.682 183.099 409.529 175.618C409.375 168.137 404.503 165.95 400.677 166.001C396.851 166.052 389.377 166.032 389.02 175.618Z" fill="#262865"/>
<path d="M399.148 176.95L398.285 174.508C398.233 174.38 398.178 174.229 398.12 174.057C398.065 173.885 398.011 173.698 397.96 173.496C397.909 173.701 397.854 173.892 397.795 174.068C397.74 174.24 397.687 174.391 397.635 174.519L396.778 176.95H399.148ZM401.92 179.981H400.639C400.496 179.981 400.378 179.948 400.286 179.882C400.199 179.812 400.133 179.724 400.089 179.618L399.55 178.094H396.371L395.832 179.618C395.795 179.709 395.731 179.794 395.639 179.871C395.547 179.944 395.432 179.981 395.293 179.981H394L397.119 172H398.807L401.92 179.981Z" fill="#9494D9"/>
<path d="M404.32 179.981H402.659V172H404.32V179.981Z" fill="#9494D9"/>
<path d="M323.189 172.873C323.593 183.711 318.575 184.657 312.807 184.37C307.04 184.083 299.83 181.331 300.003 172.873C300.176 164.415 305.684 161.944 310.01 162.001C314.336 162.058 322.785 162.036 323.189 172.873Z" fill="#262865"/>
<path d="M310.476 170.02V174.64C310.476 175.281 310.291 175.78 309.92 176.139C309.549 176.491 309.053 176.667 308.43 176.667C307.802 176.667 307.293 176.484 306.903 176.12C306.52 175.755 306.328 175.246 306.328 174.592H307.648C307.654 174.875 307.72 175.095 307.846 175.252C307.978 175.41 308.167 175.488 308.412 175.488C308.65 175.488 308.833 175.413 308.958 175.262C309.084 175.111 309.147 174.904 309.147 174.64V170.02H310.476Z" fill="#FFEE52"/>
<path d="M314.288 176.667C313.829 176.667 313.414 176.588 313.044 176.431C312.679 176.274 312.39 176.047 312.176 175.752C311.963 175.457 311.853 175.108 311.846 174.706H313.26C313.279 174.976 313.374 175.19 313.543 175.347C313.719 175.504 313.958 175.582 314.26 175.582C314.568 175.582 314.81 175.51 314.986 175.366C315.162 175.215 315.25 175.02 315.25 174.781C315.25 174.586 315.19 174.426 315.071 174.3C314.951 174.175 314.8 174.077 314.618 174.008C314.442 173.933 314.197 173.851 313.883 173.763C313.455 173.637 313.106 173.515 312.836 173.395C312.572 173.269 312.343 173.084 312.148 172.839C311.959 172.588 311.865 172.254 311.865 171.84C311.865 171.45 311.963 171.111 312.157 170.821C312.352 170.532 312.626 170.312 312.978 170.161C313.33 170.004 313.732 169.926 314.184 169.926C314.863 169.926 315.413 170.092 315.834 170.425C316.262 170.752 316.497 171.211 316.541 171.802H315.089C315.077 171.576 314.979 171.39 314.797 171.246C314.621 171.095 314.385 171.019 314.09 171.019C313.832 171.019 313.625 171.085 313.468 171.217C313.317 171.349 313.242 171.541 313.242 171.792C313.242 171.968 313.298 172.116 313.411 172.236C313.531 172.349 313.675 172.443 313.845 172.518C314.021 172.588 314.266 172.669 314.58 172.764C315.008 172.889 315.356 173.015 315.627 173.141C315.897 173.266 316.13 173.455 316.324 173.706C316.519 173.958 316.617 174.288 316.617 174.696C316.617 175.048 316.526 175.375 316.343 175.677C316.161 175.978 315.894 176.22 315.542 176.403C315.19 176.579 314.772 176.667 314.288 176.667Z" fill="#FFEE52"/>
<path d="M595.03 137.469C594.493 151.891 601.17 153.15 608.846 152.769C616.521 152.387 626.115 148.725 625.885 137.469C625.654 126.214 618.325 122.925 612.568 123.001C606.812 123.078 595.567 123.048 595.03 137.469Z" fill="#262865"/>
<path d="M617.5 133L610.5 130L603 133L604.5 142L610.5 145.5L616.5 142L617.5 133Z" fill="#D81480"/>
<path fill-rule="evenodd" clip-rule="evenodd" d="M613 141H614.2L610.6 133L607 141H608.2L609 139H612.2L613 141ZM610.6 135.8L611.4 137.8H609.8L610.6 135.8Z" fill="white"/>
<path d="M615.915 85.5231C615.444 98.1812 621.305 99.2863 628.041 98.9515C634.778 98.6166 643.199 95.4018 642.996 85.5231C642.794 75.6445 636.361 72.7574 631.309 72.8244C626.256 72.8913 616.387 72.865 615.915 85.5231Z" fill="#262865"/>
<path d="M627.136 86.9537L626.268 84.4998C626.217 84.3708 626.162 84.2197 626.103 84.0466C626.047 83.8734 625.994 83.6855 625.942 83.4828C625.891 83.6892 625.835 83.8808 625.776 84.0576C625.721 84.2308 625.668 84.3819 625.616 84.5108L624.754 86.9537H627.136ZM629.922 89.9991H628.634C628.49 89.9991 628.372 89.9659 628.28 89.8996C628.192 89.8296 628.125 89.7411 628.081 89.6343L627.54 88.1033H624.345L623.803 89.6343C623.767 89.7264 623.702 89.8112 623.61 89.8885C623.518 89.9622 623.402 89.9991 623.262 89.9991H621.963L625.097 81.9795H626.793L629.922 89.9991Z" fill="#9494D9"/>
<path d="M633.173 85.7765C633.442 85.7765 633.674 85.7433 633.87 85.677C634.065 85.607 634.225 85.513 634.35 85.3951C634.476 85.2735 634.568 85.1317 634.627 84.9696C634.686 84.8074 634.715 84.6306 634.715 84.439C634.715 84.0595 634.588 83.7647 634.334 83.5547C634.083 83.3446 633.7 83.2396 633.184 83.2396H632.322V85.7765H633.173ZM637.059 89.9991H635.561C635.281 89.9991 635.078 89.8922 634.953 89.6785L633.427 87.219C633.365 87.1232 633.295 87.0532 633.217 87.009C633.144 86.9648 633.033 86.9427 632.886 86.9427H632.322V89.9991H630.664V81.9795H633.184C633.744 81.9795 634.223 82.0384 634.621 82.1564C635.019 82.2706 635.345 82.4309 635.599 82.6372C635.854 82.8435 636.04 83.0904 636.158 83.3778C636.276 83.6615 636.335 83.9747 636.335 84.3174C636.335 84.5827 636.296 84.8351 636.218 85.0746C636.145 85.3104 636.036 85.5259 635.892 85.7212C635.749 85.9165 635.572 86.0897 635.362 86.2408C635.152 86.3918 634.912 86.5134 634.643 86.6055C634.75 86.6645 634.85 86.7363 634.942 86.8211C635.034 86.9021 635.117 86.9998 635.19 87.114L637.059 89.9991Z" fill="#9494D9"/>
<path d="M551.027 43.6144C550.557 56.1872 556.394 57.2849 563.103 56.9523C569.812 56.6196 578.198 53.4265 577.996 43.6144C577.795 33.8022 571.388 30.9346 566.356 31.0011C561.325 31.0676 551.496 31.0415 551.027 43.6144Z" fill="#262865"/>
<path d="M564.92 40L561.708 47.9805H560.212L557 40H558.331C558.474 40 558.59 40.0348 558.678 40.1045C558.769 40.1705 558.837 40.2567 558.881 40.363L560.608 44.961C560.674 45.1333 560.738 45.3222 560.801 45.5275C560.867 45.7292 560.927 45.9418 560.982 46.1655C561.03 45.9418 561.081 45.7292 561.136 45.5275C561.195 45.3222 561.257 45.1333 561.323 44.961L563.039 40.363C563.076 40.2713 563.14 40.1888 563.232 40.1155C563.327 40.0385 563.444 40 563.583 40H564.92Z" fill="#7579FF"/>
<path d="M568.156 43.7785C568.423 43.7785 568.654 43.7455 568.849 43.6795C569.043 43.6098 569.202 43.5163 569.327 43.399C569.452 43.278 569.543 43.1368 569.602 42.9755C569.661 42.8142 569.69 42.6382 569.69 42.4475C569.69 42.0698 569.564 41.7765 569.311 41.5675C569.061 41.3585 568.68 41.254 568.167 41.254H567.309V43.7785H568.156ZM572.022 47.9805H570.532C570.253 47.9805 570.051 47.8742 569.927 47.6615L568.409 45.214C568.346 45.1187 568.277 45.049 568.2 45.005C568.126 44.961 568.016 44.939 567.87 44.939H567.309V47.9805H565.659V40H568.167C568.724 40 569.201 40.0587 569.597 40.176C569.993 40.2897 570.317 40.4492 570.57 40.6545C570.823 40.8598 571.008 41.1055 571.126 41.3915C571.243 41.6738 571.302 41.9855 571.302 42.3265C571.302 42.5905 571.263 42.8417 571.186 43.08C571.113 43.3147 571.005 43.5292 570.862 43.7235C570.719 43.9178 570.543 44.0902 570.334 44.2405C570.125 44.3908 569.886 44.5118 569.619 44.6035C569.725 44.6622 569.824 44.7337 569.916 44.818C570.007 44.8987 570.09 44.9958 570.163 45.1095L572.022 47.9805Z" fill="#7579FF"/>
<defs>
<filter id="herofilter0_f" x="465.107" y="311.565" width="74.9301" height="61.2701" filterUnits="userSpaceOnUse" color-interpolation-filters="sRGB">
<feFlood flood-opacity="0" result="BackgroundImageFix"/>
<feBlend mode="normal" in="SourceGraphic" in2="BackgroundImageFix" result="shape"/>
<feGaussianBlur stdDeviation="11" result="effect1_foregroundBlur"/>
</filter>
<filter id="herofilter1_f" x="463.047" y="400.536" width="77.4644" height="62.6851" filterUnits="userSpaceOnUse" color-interpolation-filters="sRGB">
<feFlood flood-opacity="0" result="BackgroundImageFix"/>
<feBlend mode="normal" in="SourceGraphic" in2="BackgroundImageFix" result="shape"/>
<feGaussianBlur stdDeviation="11" result="effect1_foregroundBlur"/>
</filter>
<linearGradient id="heropaint0_linear" x1="607.5" y1="239.5" x2="467" y2="290.5" gradientUnits="userSpaceOnUse">
<stop stop-color="white" stop-opacity="0"/>
<stop offset="1" stop-color="#EEEEFF"/>
</linearGradient>
<linearGradient id="heropaint1_linear" x1="607.5" y1="239.5" x2="467" y2="290.5" gradientUnits="userSpaceOnUse">
<stop stop-color="white" stop-opacity="0"/>
<stop offset="1" stop-color="#EEEEFF"/>
</linearGradient>
<linearGradient id="heropaint2_linear" x1="607.5" y1="239.5" x2="467" y2="290.5" gradientUnits="userSpaceOnUse">
<stop stop-color="white" stop-opacity="0"/>
<stop offset="1" stop-color="#EEEEFF"/>
</linearGradient>
<linearGradient id="heropaint3_linear" x1="607.5" y1="239.5" x2="467" y2="290.5" gradientUnits="userSpaceOnUse">
<stop stop-color="white" stop-opacity="0"/>
<stop offset="1" stop-color="#EEEEFF"/>
</linearGradient>
<linearGradient id="heropaint4_linear" x1="689.452" y1="2.49265" x2="593.548" y2="119.907" gradientUnits="userSpaceOnUse">
<stop stop-color="#191A45" stop-opacity="0"/>
<stop offset="1" stop-color="#161741"/>
</linearGradient>
<linearGradient id="heropaint5_linear" x1="494.61" y1="46.6509" x2="398.706" y2="164.065" gradientUnits="userSpaceOnUse">
<stop stop-color="#191A45" stop-opacity="0"/>
<stop offset="1" stop-color="#121337" stop-opacity="0.48"/>
</linearGradient>
<linearGradient id="heropaint6_linear" x1="362.152" y1="68" x2="362.152" y2="108.616" gradientUnits="userSpaceOnUse">
<stop stop-color="#C7C8EE" stop-opacity="0"/>
<stop offset="1" stop-color="#C7C8EE"/>
</linearGradient>
<linearGradient id="heropaint7_linear" x1="359.926" y1="198.444" x2="358.785" y2="122.082" gradientUnits="userSpaceOnUse">
<stop stop-color="white" stop-opacity="0.05"/>
<stop offset="1" stop-color="#E6E6FF"/>
</linearGradient>
<linearGradient id="heropaint8_linear" x1="234.518" y1="97.0805" x2="138.615" y2="214.495" gradientUnits="userSpaceOnUse">
<stop stop-color="#191A45" stop-opacity="0"/>
<stop offset="1" stop-color="#131438" stop-opacity="0.48"/>
</linearGradient>
<linearGradient id="heropaint9_linear" x1="338.026" y1="213.248" x2="213.558" y2="319.754" gradientUnits="userSpaceOnUse">
<stop stop-color="#191A44" stop-opacity="0"/>
<stop offset="1" stop-color="#16173E" stop-opacity="0.62"/>
</linearGradient>
<linearGradient id="heropaint10_linear" x1="341.227" y1="69.5952" x2="245.324" y2="187.01" gradientUnits="userSpaceOnUse">
<stop stop-color="#191A45" stop-opacity="0"/>
<stop offset="1" stop-color="#16173E" stop-opacity="0.69"/>
</linearGradient>
<linearGradient id="heropaint11_linear" x1="136.501" y1="137.075" x2="179.942" y2="157.735" gradientUnits="userSpaceOnUse">
<stop stop-color="white" stop-opacity="0"/>
<stop offset="1" stop-color="#EEEEFF"/>
</linearGradient>
</defs>
</svg>
