<svg width="702" height="501" viewBox="0 0 702 501" fill="none" xmlns="http://www.w3.org/2000/svg">
  <g id="Group 256">
    <g id="bgs" fill="#E8E9F7">
      <path id="Rectangle 79" d="M460 59c0-9.7 7-18 16.4-19.6l202.3-35A19.8 19.8 0 01702 23.9V477c0 12.2-11 21.6-23.2 19.5l-202.3-35A19.8 19.8 0 01460 442V59z"/>
      <path id="Rectangle 91" d="M460 58.6c0-9.7 7-17.9 16.4-19.5L678.7 4A19.8 19.8 0 01702 23.4v453.2c0 12.3-11 21.6-23.2 19.5l-202.3-35a19.8 19.8 0 01-16.4-19.5V58.6z"/>
      <path id="Rectangle 80" d="M264 94.4c0-9.3 6.5-17.4 15.7-19.3L404 48.9a19.8 19.8 0 0123.9 19.4v362.5c0 12.5-11.6 22-23.9 19.3L279.7 424c-9.2-2-15.8-10-15.8-19.4V94.4z"/>
      <path id="Rectangle 83" d="M9.5 152.1c0-9 6-16.8 14.6-19.1L78 118.4c12.6-3.4 25 6.1 25 19.1V377c0 13-12.4 22.5-25 19.1l-54-14.6a19.8 19.8 0 01-14.5-19V152z"/>
      <path id="Rectangle 81" d="M116.8 278c0-11 8.9-19.8 19.8-19.8h85.9c10.9 0 19.8 8.8 19.8 19.8v120.6c0 12.3-11.1 21.6-23.2 19.5l-85.8-14.8a19.8 19.8 0 01-16.5-19.5V278z"/>
      <path id="Rectangle 82" d="M116.8 125.2c0-9.4 6.7-17.6 16-19.4l85.8-17.2c12.2-2.5 23.7 6.9 23.7 19.4v113.3c0 11-8.9 19.8-19.8 19.8h-85.9c-11 0-19.8-8.9-19.8-19.8v-96.1z"/>
    </g>
    <g id="place01">
      <mask id="mask0" maskUnits="userSpaceOnUse" x="459" y="3" width="243" height="494">
        <path id="Rectangle 84" d="M460 58.6c0-9.7 7-17.9 16.4-19.5L678.7 4A19.8 19.8 0 01702 23.4v453.2c0 12.3-11 21.6-23.2 19.5l-202.3-35a19.8 19.8 0 01-16.4-19.5V58.6z" fill="#FFFFFF"/>
      </mask>
      <g mask="url(#mask0)">
        <g id="character">
          <g id="Group 228">
            <g id="Vector 219">
              <path d="M512.5 431.1l.7 3.5a45.3 45.3 0 009.8-11.3 55 55 0 003.3-6c-14.2 0-20.9-11.6-12.3-13 7-1.2 11.6 7 13 11.3a55.3 55.3 0 003.7-12.3c-4.5 0-13.2-1.8-11.3-10 2-8.2 8.6 2 11.6 8.2.4-2.6.6-5.3.6-8.2-5.2-23 9-27.9 9.2-14.8.1 10.4-6 14.2-9.2 14.8a59 59 0 01-2.3 16c3.3-5.9 11.5-15.9 18.1-8.8 8.4 8.8-12.2 14.7-18.6 10.6a55.3 55.3 0 01-5.8 12.2c2.3-3.3 18-12 20.2-2.1 2.1 10-17.4 8.6-22.5 5.4a45.3 45.3 0 01-7.5 8l-.7-3.5c-1.6-2.1-4.2-6-7-11 2.1 4-21.3 9.7-19.3 0 1.5-7.9 12.7-4.6 18.1-2-1.4-2.7-2.9-5.6-4.3-8.8-5.4 4.4-26.4-.8-19.7-7.8 5.3-5.6 14.8 1.6 19 6a118.7 118.7 0 01-4-10.4c-6-.5-17.8-4-16-14 2.3-12.6 17.5 6.8 16 14l.8 2.2c0-3.4 1.6-10.2 7.5-10.2 7.3 0 1.7 9-7.5 10.2 1 2.9 2 5.6 3.1 8.2-.3-3.2.2-9.6 4.4-9.6 5.2 0 2 10.7-3.6 11.4a134.6 134.6 0 0012.5 21.8c-2.1-10.2-4.6-25.9-4.5-37.8 0-2.9.2-5.5.6-7.8-8.3 2.2-9.7-3.8-9.4-7 6.7-.3 9 4.5 9.4 7 .3-2.4.9-4.4 1.7-5.9-3-2.1-7-8.4.5-16.6 3.2 2.5 7.7 9.3-.5 16.6-.8 1.5-1.4 3.5-1.7 5.9-.4 2.3-.6 5-.6 7.8.2-3 2.6-10.3 11-14.5 10.3-5.2 10 13.5-11 14.5 0 12 2.4 27.6 4.5 37.8z" fill="#D9DBF0"/>
              <path d="M511.3 436l2-1.4m18.3-41.3a59 59 0 01-.6 8.2m.6-8.2c3.1-.6 9.3-4.4 9.2-14.8-.2-13-14.4-8.2-9.2 14.8zm-18.4 41.3l-.7-3.5m.7 3.5c2.3-1.9 5-4.6 7.5-8m-10.4-47c-3-2.1-7-8.4.5-16.6 3.2 2.5 7.7 9.3-.5 16.6zm0 0c-.8 1.5-1.4 3.5-1.7 5.9m3.9 45.6c-1.6-2.1-4.2-6-7-11m7 11c-2.1-10.2-4.6-25.9-4.5-37.8m-12.7 3.8l.8 2.2m-.8-2.2c-6-.5-17.8-4-16-14 2.3-12.6 17.5 6.8 16 14zm9 21c-5.4-2.6-16.6-5.9-18.1 2-2 9.7 21.4 4 19.2 0m-1-2l1 2m-1-2c-1.5-2.7-3-5.6-4.4-8.8m-.8-1.8c-4-4.4-13.6-11.6-18.9-6-6.7 7 14.3 12.2 19.7 7.8m-.8-1.8l.8 1.8m-.8-1.8c-.3-3.2.2-9.6 4.4-9.6 5.2 0 2 10.7-3.6 11.4m-.8-1.8c-1.1-2.6-2.2-5.3-3.1-8.2m26.9 24c2.3-3.3 18-12 20.2-2.1 2.1 10-17.4 8.6-22.5 5.4m2.3-3.3l-2.3 3.3m2.3-3.3a55 55 0 003.3-6m3-8c3.3-5.9 11.5-15.9 18.1-8.8 8.4 8.8-12.2 14.7-18.6 10.6m.5-1.8l-.5 1.8m.5-1.8c.6-2 1-4 1.4-6m-2 7.8c-.5 1.6-1 3-1.7 4.5m0 0c-1.4-4.2-6-12.5-13-11.4-8.6 1.5-1.9 13.2 12.3 13m.7-1.6l-.7 1.7m4.4-14c-4.5 0-13.2-1.8-11.3-10 2-8.2 8.6 2 11.6 8.2m-.3 1.8l.3-1.8m-23-8.2c.2-3 2.6-10.3 11-14.5 10.3-5.2 10 13.5-11 14.5zm0 0c0-2.9.2-5.5.6-7.8M496 399.3c0-3.4 1.6-10.2 7.5-10.2 7.3 0 1.7 9-7.5 10.2zm12.5-13.8c-.4-2.5-2.7-7.3-9.4-7-.3 3.2 1 9.2 9.4 7z" stroke="#D7D9EE"/>
            </g>
            <rect id="Rectangle 97" x="497.1" y="431.8" width="33.6" height="49.2" rx="3.9" fill="#D9DBF0"/>
          </g>
          <g id="Group 200">
            <path id="Vector 217" d="M662.4 459.6c-1.1-3.2-12.7-10.4-15.2-11.1 1-6.1 4.3-16.7 9.8-10 7 8.2 12.3 10.1 13.7 15 1.4 4.8-4.4 19.7-7.1 19.6-2.7-.1 0-10.3-1.2-13.5z" fill="#F4A392"/>
            <path id="Vector 218" d="M625 459.6c-1.2-3.2-12.8-10.4-15.2-11.1 1-6.1 4.3-16.7 9.8-10 6.9 8.2 12.3 10.1 13.7 15 1.4 4.8-4.4 19.6-7.2 19.6-2.7-.1 0-10.3-1.1-13.5z" fill="#F4A392"/>
            <path id="Vector" d="M655.3 453c-2.5 0-114.7-48.2-89.5-81.8 8.8-10.3 64-17.3 64-17.3l2.9 19.8-30.3 4s16.2.2 30.3 28.3c10.7 21.5 24.3 29.6 29 36.2 1.3 1.7 2 5.1 0 7.7-1.9 2.6-3.8 3.2-6.4 3.1z" fill="#B0B4D2"/>
            <path id="Vector_2" d="M684.5 349l.7 3c3.8 15 1.7 31.2-19.6 42.8-15.2 8.3-66.7 0-66.7 0-.7 13.6 37 49.6 28.7 56.8-2 1.7-4 3.8-9.8 2.5-5.8-1.3-34.1-28.3-43.8-42.5-9.7-14.2-20-28.4-9.8-40 10.7-13.3 43.3-11.6 71.1-18 13.5 2.6 38.4-2.2 49.2-4.6z" fill="#C9CCE4"/>
            <path id="Vector 163" d="M580.4 299.4c3 .4 8.8.4 7.7-3.5-.3-1-.5-2.3-.5-3.7 0-6-2.3-16.4-4.4-19.1-2.1-2.8-.7 4.8-.7 6.9 0 2-5-4.2-10.5-4.2-5.6 0-8.4 0-6.3 4.9 2 4.8 8 8.6 8.9 10.2 3.8 3.6 5.8 8 5.8 8.5z" fill="#F6B9AD"/>
            <path id="Vector_3" d="M618.4 322.7c5.5 0 11.8-53.8 16.6-55.2 4.8-1.4 6.1 55.2 6.1 55.2s-7.6 25.2-20.6 25.9c-13 .7-38.5-44.2-39.8-49-1.4-4.8 5.2-9.8 8-6.4 2.7 3.5 24.2 29.5 29.7 29.5z" fill="#F6B9AD"/>
            <path id="Vector 213" d="M683 279.5c-6.4-12.5-20.5-20.9-23.3-24-3.7-1.7-11.6-1.2-19.5 5-15.8 12.6-16.5 47.6-18.2 64.6-1.8 17.1-20.2 32.5-13.8 37.7 6.5 5.2 49.1 10.2 60 9.2 10.7-.9 12 16.9 20.3 5.5 8.4-11.4 3-81.2-5.6-98z" fill="#fff"/>
            <path id="Vector 126" d="M640.2 264.3c-.8 3.2-4 14.2 0 14.2 2.7-3.2 18.8-18.9 19.9-19.6 1-.8.5-3 .2-5.4-.4-2.4 0-8.5.4-11.6l-18.7 7.8c-.4 3.8-1.2 12-1.8 14.6z" fill="#F6B9AD"/>
            <path id="Vector 74" d="M641.7 258.7c10 1.1 17.6-4.4 20.2-7.4 4.1-.7 5-3.2 5.4-7.2.7-4.3.6-12.4.5-15.8L633 217.9c1.8 1.2 5.1 6.1 3.9 15.7-1.6 12-.6 24.6 4.8 25.1z" fill="#FFCBC0"/>
            <path id="Vector 75" d="M635.3 229.7c-.3 2.8.8 5 1.4 5.7-.2-6.8 1.3-8.7 2-8.8 3 4.7 11.8 5 15.8 4.6-1 6.8 2.7 9.5 4 10.3 1.2.5 1.6 2.8 1.7 3.9.3-1.4 1.7-4.3 4.2-4.5 2.6-.2 3 1.9 3 3 10.2-9.9 5.7-18.3 2.2-21.2.1-12.5-17.3-14.3-25.7-9.1a16 16 0 01-16 .6c-1.4 4.4 2 8 4 9.4-1.1-.6-3-.5-3.8-.4.2 3 4.8 5.6 7.2 6.5z" fill="#363983"/>
            <path id="Vector 165" d="M583.9 343l13.1 1.7 3.2-7c-.8-.2-2.7-1.3-4.3-3.3-2-2.5-8.4-7.3-12.3-8.3-4-1-2.6 2-1.4 2.1 1.1.2 6 3 5.3 4-.7 1-9.4-3.4-15.3 1.5-5.8 5 7.7 8.9 11.7 9.4z" fill="#FFCBC0"/>
            <path id="Vector_4" d="M595.8 344.8c2.6 1 40.8 21.7 56.2 16 8-2.9 15.1-16.7 20.2-31-4 .6-14.4 0-24.2-7.7-1.8 11-3.6 19-5.4 18.8-1.5-.1-41.2-6.7-44.7-5.6-3.5 1-4.8 8.6-2.1 9.5z" fill="#FFCBC0"/>
            <path id="Vector 124" d="M647.6 318.3c.4-8.9.4-23.9 2.6-31.2 4.9-16.2 21-14.4 25.3-8" stroke="#C7C8EE" stroke-linecap="round" stroke-linejoin="round"/>
            <rect id="Rectangle 94" x="670.8" y="395.1" width="3.9" height="111" rx="1.9" fill="#4A4C96"/>
            <rect id="Rectangle 95" x="633.4" y="395.1" width="3.9" height="111" rx="1.9" fill="#4A4C96"/>
            <path id="Rectangle 96" fill="#4A4C96" d="M636 473.8h38.7v3.9H636z"/>
            <rect id="Rectangle 93" x="623.1" y="391.2" width="65.8" height="7.7" rx="3.9" fill="#5659A5"/>
          </g>
          <g id="Group 177">
            <path id="Vector 200" d="M499.2 254l11 43.5c-3.5 3-10.6 9.6-12 12.2-1.4 2.5-5.7 3.7-7.8 4L475.6 261l.9-6 22.7-1z" fill="#4A4C96"/>
            <path id="Vector 199" d="M510.1 297.4l-17.6 16 47.1 22.2 13.3 4-.2-26.2-42.6-16z" fill="#5659A5"/>
            <path id="Vector 198" d="M472.7 254.6l3.7.5 16.3 58.3 60.5 26.6-2.7 2.6-61-27-16.8-61z" fill="#434589"/>
            <g id="Union" filter="url(#filter0_f)">
              <path d="M497.1 333.6l30 12.2-4.7 5-26.3-10.2 1-7z" fill="#B9BCDD"/>
            </g>
            <g id="Union_2" fill-opacity=".5">
              <path d="M510 297l-17.5 16.3L663 229l-153 68z" fill="url(#paint0_linear)"/>
              <path d="M476.3 254.8l16.2 58.5L510 297l-11-43.4-22.7 1.2z" fill="url(#paint1_linear)"/>
              <path d="M510 297l153-68-164 24.6 11 43.4z" fill="url(#paint2_linear)"/>
              <path d="M476.3 254.8l22.7-1.2L663 229l-186.7 25.8z" fill="url(#paint3_linear)"/>
            </g>
          </g>
          <g id="Group 227">
            <g id="Vector 271" filter="url(#filter1_d)">
              <path d="M617.3 195.2v32.5c-3.5-7.5-19.5-12-33.5-12s-33.5.5-49 0-23.8-8.2-23.8-20.5 6.3-19 18.8-19 47.5-.5 64 0 23.5 6 23.5 19z" fill="#fff"/>
            </g>
            <rect id="Rectangle 106" width="84" height="2" rx="1" transform="matrix(-1 0 0 1 608 188)" fill="#121334"/>
            <rect id="Rectangle 107" width="67" height="2" rx="1" transform="matrix(-1 0 0 1 608 195)" fill="#121334"/>
            <rect id="Rectangle 108" width="40" height="2" rx="1" transform="matrix(-1 0 0 1 608 202)" fill="#121334"/>
          </g>
        </g>
        <g id="Group 174">
          <path id="Vector 201" d="M772 175.8L458.7 45.2l14.4-68.4H755l17 199z" fill="url(#paint4_linear)"/>
        </g>
      </g>
    </g>
    <g id="place02" opacity=".9">
      <mask id="mask1" maskUnits="userSpaceOnUse" x="263" y="48" width="165" height="403">
        <path id="Rectangle 84_2" d="M264 94.4c0-9.3 6.5-17.4 15.7-19.3L404 48.9a19.8 19.8 0 0123.9 19.4v362.5c0 12.5-11.6 22-23.9 19.3L279.7 424c-9.2-2-15.8-10-15.8-19.4V94.4z" fill="#FFFFFF"/>
      </mask>
      <g mask="url(#mask1)">
        <path id="Vector 201_2" d="M513 188.8L199.7 58.2l14.4-68.4H496l17 199z" fill="url(#paint5_linear)"/>
        <g id="character_2">
          <g id="Group 226">
            <path id="Vector 264" d="M288 371.8c-10.8-2-23-34-15.8-50.4 9.1-15.5 30.1-7.2 32.7-5.6 2.6 1.7 27.8 26.2 31.2 30.2 3.5 3.9-1.2 20.1-1.6 25.8-.3 5.7-1.1 6.4-4 6.2-3-.2-31.7-4.3-42.5-6.2z" fill="#6F709A"/>
            <ellipse id="Ellipse 68" cx="305.7" cy="420.4" rx="20.5" ry="2.2" transform="rotate(3.6 305.7 420.4)" fill="#9798C4"/>
            <path id="Rectangle 100" fill="#9798C4" d="M304.5 373.8h5.4v46.9h-5.4z"/>
            <path id="Vector 256" d="M370.3 408.7c-1-1.8-5.2-11.7-5-14.4.2-2.7 4-1.3 4-1.3 1.4 2.2 3.3 5.7 6.7 8.1 4.3 3 7.9-.2 10.1-.3 2.2-.1 1.4 2.8-1.5 5.3s-12.7 5.1-14.3 2.6z" fill="#FDCEC5"/>
            <path id="Vector 139" d="M351.9 412.8c-4.8-2-7-7-7.6-9.2l-3.9-2.3c0 4.5-2.8 14.2.1 15.4 3 1.2 16.7 4.2 19.4 2.3 2.6-2-2.1-3.7-8-6.2z" fill="#FDCEC5"/>
            <path id="Vector 258" d="M347.3 400.5c-.1 2.5-.2 7.7-5.6 7.3-3.2-.2-3.8-10.6-3.3-19 .4-6.7 1.4-13.6 1.8-16.2-1.7 0-33-3.3-35.4-3.4-2.4-.2 8-12.9-4-13.6-9.7-.7-2.8-13.4 2-19.7l17.9 1.1 1.7 8.5c.3 2 17.8 4.1 28.8 5 11 1 5.5 18.7 3.3 23a167 167 0 00-7.2 27z" fill="#7C80D3"/>
            <path id="Vector 257" d="M370 390c1.4 4.6 2 9.8-3.6 9.5-3.6-5.3-11.2-17-12.5-20.6-1.7-4.5 2.1-6.3-.1-17.8-2.3-11.5-28.9 7.1-42.4 8.7-13.4 1.6-21.2-3.5-22.8-14-1.6-10.5 5.7-19.2 8.5-21.5 2.9-2.3 14.3-2.3 9.5 3-4.8 5.5 1.5 7.3 4 7.5 2.4.2 33.8-3 41.5-.1 7.7 3 16.4 40.8 17.9 45.4z" fill="#B3B6F8"/>
            <path id="Vector 265" d="M283.3 344.6c-4.6-.3-7.6-6-14-6.6v1c-.2 16.2 5 34.3 12.6 35.7 10.8 1.9 45.8 2.9 48.8 3 3 .2 3.7-.5 4-6.1l-23.2-1.5c-6.2-.4-5.6-2.1-7-3.2-2-8.5-16.5-22-21.2-22.3z" fill="#8384B8"/>
            <path id="Vector 149" d="M290.8 294c.8 6.3 6 15.7 11.8 16.7 11.7-1.1 29.9-7.8 31.3-16 1.8-10.1-5.7-11.9-7.2-16.8-1.4-4.8 3.4-4.4 0-11.7a17.3 17.3 0 00-24.4-7.2c-10.7 5.9-7.7 18.4-7 22.4.9 4-5.6 5-4.5 12.7z" fill="#363983"/>
            <path id="Vector 142" d="M304.3 289.6c-8.1.7-12.8 11.8-14 17.2 1.4 9.5 4.2 29.3 3.7 32-.7 3.5 28.2 12.6 29.9 3.7 1.7-9 .6-3.7-.8-11-1.4-7.4-.6-11.3 1.8-12.3 2.3-1 6.5-4.4 2.5-16.6-4-12.2-13-13.9-23.1-13z" fill="#fff"/>
            <path id="Vector 268" d="M331 317.5c-1.4-.4 0-3.7-1.4-6.5l-7.3 6c-.5 2.9-.7 9 2.3 10 3.8 1.5 19.3-4.8 22.7-6.5 2.8-1.3 13.2-4.8 15.2-6.4 2-1.5 3.5-6 1.3-6.6-2.7-.7-7.6 4.2-8.8 3.9-1.1-.3 1.4-5.4.3-5.7-1.2-.3-2.6 6.7-4 7.6-1.5.9-14.5 5.7-20.3 4.2z" fill="#F6B9AD"/>
            <path id="Vector 150" d="M309.6 274.3c-4.6 1.4-2 1.3-1 5.8.1.8.2 1.6.1 2.4.2.5 1.2 2 3 3 1.9 1.1 4.3 1.3 5.4 1.2 6.8-1.3 5.8-13.2 4.4-15.7-1.4-2.5-7.2 1.9-11.9 3.3z" fill="#FFCBC0"/>
            <path id="Vector 156" d="M307.3 291.5c.9 4.4 6 10 10.7 9 3-.6 2.2-7.8.6-9.6a6.4 6.4 0 01-1.6-4.2c-1 .1-3.4 0-5.3-1.2a7.4 7.4 0 01-3-3c-.3 3-2.1 5.4-1.4 9z" fill="#F6B9AD"/>
            <rect id="Rectangle 101" x="327.7" y="339.5" width="86.3" height="4.4" rx="2.2" transform="rotate(-.4 327.7 339.5)" fill="#5659A5"/>
            <rect id="Rectangle 102" x="336.1" y="340.9" width="4.4" height="85.3" rx="2.2" transform="rotate(-.4 336.1 341)" fill="#5659A5"/>
            <rect id="Rectangle 103" x="399.7" y="340.4" width="4.4" height="85.3" rx="2.2" transform="rotate(-.4 399.7 340.4)" fill="#5659A5"/>
            <g id="Group 212">
              <path id="Rectangle 105" d="M343.9 337.7l.1-.1 18.3-4.1c3-.7 4.8 3.1 2.5 5a3 3 0 01-1.9.7l-18.7.2c-1 0-1.2-1.4-.3-1.7z" fill="#2E3078"/>
              <path id="Rectangle 104" d="M365.8 314.3a5 5 0 014.5-2.8l25.5-.2a5 5 0 014.5 7.3l-8.8 17.7a5 5 0 01-4.5 2.7l-25.5.2a5 5 0 01-4.5-7.2l8.8-17.7z" fill="#363983"/>
              <ellipse id="Ellipse 69" cx="381.4" cy="327.7" rx="2.5" ry="3" transform="rotate(11.5 381.4 327.7)" fill="#6264A5"/>
            </g>
            <path id="Vector 269" d="M303.9 326.7c-1.6.5-2.3-10-2.4-15.3-2.7-4.3-10.5-4.8-11-3.9-.5.9.2 24.1 4.5 26.5 4.3 2.4 27-.2 33.9-1.5 5.5-1 9.8-3.6 10.8-5.4-.7-.7-3.8-3.4-6.1-3.3-2.9.1-5.3 6.7-11.2 4a37.9 37.9 0 00-18.5-1z" fill="#FFCBC0"/>
          </g>
          <g id="Group 225">
            <g id="Vector 270" filter="url(#filter2_d)">
              <path d="M406 278.2h-73c2.5 0 10.5-9 10.5-14s3-11 7.5-11 49.5-.5 55 0 9 5.5 9.5 12-2.5 13-9.5 13z" fill="#fff"/>
            </g>
            <rect id="Rectangle 106_2" x="356" y="259" width="51" height="2" rx="1" fill="#292A48"/>
            <rect id="Rectangle 107_2" x="356" y="265" width="41" height="2" rx="1" fill="#292A48"/>
            <rect id="Rectangle 108_2" x="356" y="271" width="24" height="2" rx="1" fill="#292A48"/>
          </g>
        </g>
        <g id="lamp" opacity=".9">
          <path id="Vector 205" d="M347.4 134.9c5 3 37 3.7 42.5-.8-1.2-1.8-7.2-5.2-21.2-4.3-17.6 1-21.3 3.1-21.3 5z" fill="#6769B3"/>
          <path id="Vector 203" d="M370.7 68v40.6" stroke="#9294C0"/>
          <path id="Vector 204" d="M347.4 135.2c-2-.6-3.3-4 6.4-12.5C366 112 370.4 108 371.1 108c0 0 .5.3 1.1 1 4.5 4 20.6 20.1 18.3 24.7l-.6.8c-5.5 4.4-37.5 3.7-42.5.7z" fill="#C8CAE8"/>
          <path id="Vector 206" d="M368.6 129.8c14.1-.9 20 2.5 21.3 4.3-.8 28.4-6.4 85.4-22.4 85.9-16.1-.5-19.4-56.8-20.1-85.1 0-2 3.6-4 21.2-5.1z" fill="url(#paint6_linear)" fill-opacity=".1"/>
          <path id="Vector 207" d="M353.8 122.3c-9.7 8.6-8.3 12-6.4 12.6 0-1.4 1.8-2.8 9-3.9-6.6.7 7.8-14.7 15.8-22.4l-1.1-1c-.7 0-5.1 4-17.3 14.7z" fill="#ADADDD"/>
        </g>
      </g>
    </g>
    <g id="place03">
      <mask id="mask2" maskUnits="userSpaceOnUse" x="9" y="117" width="94" height="280">
        <path id="Rectangle 84_3" d="M9.5 152.1c0-9 6-16.8 14.6-19.1L78 118.4c12.6-3.4 25 6.1 25 19.1V377c0 13-12.4 22.5-25 19.1l-54-14.6a19.8 19.8 0 01-14.5-19V152z" fill="#FFFFFF"/>
      </mask>
      <g mask="url(#mask2)">
        <path id="Vector 201_3" d="M317 270.4L3.8 139.8l14.5-68.4h281.8l17 199z" fill="url(#paint7_linear)"/>
        <g id="character_3">
          <g id="Group 210">
            <path id="Vector 163_2" d="M79 297.5c-1.3.1-3.8-.2-3.1-1.9l.4-1.6c.2-2.8 1.8-7.3 2.8-8.5 1-1.1 0 2.2 0 3.2-.1 1 2.3-1.7 4.7-1.4 2.4.2 3.6.4 2.5 2.5-1.2 2-3.9 3.5-4.4 4.2a10 10 0 00-2.9 3.5z" fill="#E6836E"/>
            <path id="Vector_5" d="M60.4 306c-2.5-.2-.7-8.3-4.2-12.1-3.5-3.8-7.8 9.9-7.8 9.9s3.8 13 9.8 14c6 1 19.8-18.4 20.6-20.5 1-2.1-1.9-4.7-3.3-3.3-1.4 1.4-12.6 12.3-15.1 12z" fill="#E6836E"/>
            <path id="Vector 233" d="M39 373.7c-.5 3-28 34.5-34 40 0 2.5 4 4 5.5 3.5s45.5-25.5 48-36-1-36-4.5-46.5-31.5-3.5-31.5 4 17 32 16.5 35z" fill="#CDD1EE"/>
            <path id="Vector 232" d="M16.5 395.7c0 9.5-2.5 25 5.5 25 4.5 0 8-25 10.5-38s13.5-36.5 13.5-49-29.5-6.5-29.5 0 5.5 30.5 5.5 34.5-5.5 18-5.5 27.5z" fill="#D8DBF2"/>
            <path id="Vector 234" d="M59 302.6c-3.8-.1-8-.6-8 2.4s2.8 18.5 2.3 31.9c-3.4 2.4-25.9-2-36.7-4.5l1-12.5c-2.2 1.5-2.8 1.8-6.4-3-4.5-6-1.7-20 4.5-31 6.5-11.5 17.5-12 31-6.5 10.8 4.4 12.4 22.2 12.4 23.2z" fill="#fff"/>
            <path id="Vector 242" d="M43.3 271.2a12.8 12.8 0 01-8.8 3.3c-5 0-7.8-12.2-5.8-16 2-4 13.6-2.3 14.6-1.2 1 1.1 3.3 10.7 0 14z" fill="#F4A392"/>
            <path id="Vector 245" d="M47.9 267c.5 2-1 1.5-2 2.4l-4 3.8s-1.5 2.3-1.4 4.8c0 2.5 0 7.5.5 8l-11-9.5v-18c0-3.9 16-2.4 16-1s1.4 7.6 1.9 9.5z" fill="#F4A392"/>
            <path id="Vector 235" d="M56.5 317.7c0-5-5-1.5-7.5-1.5-10.5 1-27 1.5-29-.5s2.5-12 0-10.5c-2 1.2-8 .5-11-1-.5 4-.6 14 3 17.5 4.5 4.5 23-.5 30.5 0s14 1 14-4z" fill="#F4A392"/>
            <path id="Vector 244" d="M46 276.8c-5.3 1.5-8.7-5-9.7-5v-5c0-2-1.5-4-3.4-4-2 0 1 5.5 1 6.5 0 .8-2.4 2.7-3.7 2.5-1.2-.2-5.6-12.9-3.7-18.9 2.5-7.4 11.3-2.4 15.2-2.4 3.1 0 2.3-3 1.5-4.5 2.2.3 6.8 2.2 6.8 7 0 4.7-8.5 7.2-12.7 7.9 0 1.3 0 4.4.5 6 .4 1.5 6.3 2 9.3 2 .5 2 1 6.7-1 7.9z" fill="#363983"/>
          </g>
          <g id="Group 222">
            <g id="Vector 270_2" filter="url(#filter3_d)">
              <path d="M93.3 272H48c1.5 0 8-6.7 8-9.9s1.8-8 4.5-8 29.5-.3 32.8 0c3.3.4 5.4 4.5 5.7 8.7.3 4-1.5 9.2-5.7 9.2z" fill="#fff"/>
            </g>
            <rect id="Rectangle 106_3" x="65" y="257" width="30" height="2" rx="1" fill="#585973"/>
            <rect id="Rectangle 107_3" x="65" y="262" width="25" height="2" rx="1" fill="#585973"/>
            <rect id="Rectangle 108_3" x="65" y="267" width="14" height="2" rx="1" fill="#585973"/>
          </g>
        </g>
      </g>
    </g>
    <g id="place04" opacity=".8">
      <mask id="mask3" maskUnits="userSpaceOnUse" x="116" y="258" width="127" height="161">
        <path id="Rectangle 84_4" d="M116.8 278c0-11 8.9-19.8 19.8-19.8h85.9c10.9 0 19.8 8.8 19.8 19.8v120.6c0 12.3-11.1 21.6-23.2 19.5l-85.8-14.8a19.8 19.8 0 01-16.5-19.5V278z" fill="#FFFFFF"/>
      </mask>
      <g mask="url(#mask3)">
        <path id="Vector 201_4" d="M420.5 386.5L107.3 256l14.5-68.3h281.8l17 199z" fill="url(#paint8_linear)"/>
        <g id="character_4">
          <g id="Group 173">
            <path id="Vector 188" d="M158.5 332.7c1.8 5.4 12 23.2 17 31.5l2.8-13c.3-1.2 3.9-14.4 9.6-15.8 1.8-.4-3.7 11.4-2 19.8.2.7 1.3 11.8 2.1 17-1.3 2.5-6 8-11 8.3-6 .4-20-25.2-24.2-45.2 1.3-1 4.4-2.8 5.7-2.6z" fill="#FDFDFE"/>
            <path id="Vector 186" d="M181 431.3h40.6v-56.5l1.8-18.7c20 8.4-3.7-19.1-9.4-23.4-7-5.3-17.6-4.1-25.3.9-7.6 5-9 25-9 25 0 11.8 0 65 1.2 72.7z" fill="#FDFDFE"/>
            <path id="Vector 185" d="M144.3 327.2c1.7 4.6 9.1 7.1 8.9 8.4 1.8.4 5.8 1.1 5.6 0-1.1-7-2-10.7-3.5-12.4-1.5-1.7-1.4 3.3-1.8 3.2-.4 0-1.8-4.2-5-5.2-3.3-1-5.7 2-4.2 6z" fill="#F9D1CC"/>
            <path id="Vector 165_2" d="M208.6 406.3l6.9-5.6-2-4.9c-.5.3-1.9.7-3.6.5-2.2-.2-7.5.6-9.8 2-2.4 1.4-.2 2.2.4 1.7.6-.5 4.2-1.5 4.4-.7.2.8-6 3-6.3 8.1-.3 5.2 7.9.6 10-1z" fill="#F9D1CC"/>
            <path id="Vector_6" d="M230.2 382c1.4-1-6.7-12-14.2-22-7.5-10-2.3-15-2.3-15 2.7-1.9 10.7.7 15 5.2 4.5 4.5 17.2 27.8 13 36.1-4 8.4-25.7 16-27.2 16.7-1.4.7-6.2-6.4-5.2-8.2 1-1.9 20.2-12.2 20.9-12.7z" fill="#FDFDFE"/>
            <path id="Vector 190" d="M222.3 368.5a55.5 55.5 0 01-9-12.8 70 70 0 008.2 18l.8-5.2z" fill="#E8E9F6"/>
            <path id="Vector 74_2" fill-rule="evenodd" clip-rule="evenodd" d="M206.7 325.3a17.2 17.2 0 01-14.8 2.2c-3.6-1.2-2.5-9.9.2-17.9.8-2.2 1.1-4.1 1.2-5.7l7.3-.8 13.4 7.2c-.4 2.4-1.5 8-2.6 10.8-.8 2.7-1.8 4.3-4.7 4.2z" fill="#FFCBC0"/>
            <g id="Vector 270_3" filter="url(#filter4_d)">
              <path d="M138.4 311H189c-1.7 0-9-6.7-9-9.9s-2-8-5-8-33-.3-36.6 0c-3.7.4-6 4.5-6.4 8.7-.3 4 1.7 9.2 6.4 9.2z" fill="#fff"/>
            </g>
            <rect id="Rectangle 106_4" width="30" height="2" rx="1" transform="matrix(-1 0 0 1 172 296)" fill="#3D3E5B"/>
            <rect id="Rectangle 107_4" width="25" height="2" rx="1" transform="matrix(-1 0 0 1 172 301)" fill="#3D3E5B"/>
            <rect id="Rectangle 108_4" width="14" height="2" rx="1" transform="matrix(-1 0 0 1 172 306)" fill="#3D3E5B"/>
            <path id="Vector 158" d="M211.5 303.3c-7.9-4.4-16.5-2-18.6.5 3.5 4.6 10.2 15 9 19-1.4 3.9-7 4.9-9.7 4.7 1.2 3-4.5 6.2-5.8 8.2-1.3 2-2.5 9.9 3 13.3 18.8 11.7 22.8-20.7 43.4 7.9 8.9-9.1-26.4-30.5-22.6-28.2 4 2.3 9.6-6 9.6-11.7 0-5.7-.4-9.3-8.3-13.7z" fill="#363983"/>
          </g>
        </g>
      </g>
    </g>
    <g id="place05" opacity=".8">
      <mask id="mask4" maskUnits="userSpaceOnUse" x="116" y="88" width="127" height="154">
        <path id="Rectangle 84_5" d="M116.8 125.2c0-9.4 6.7-17.6 16-19.4l85.8-17.2c12.2-2.5 23.7 6.9 23.7 19.4v113.3c0 11-8.9 19.8-19.8 19.8h-85.9c-11 0-19.8-8.9-19.8-19.8v-96.1z" fill="#FFFFFF"/>
      </mask>
      <g mask="url(#mask4)">
        <path id="Vector 201_5" d="M423.7 242.9L110.6 112.3 125 43.9h281.8l17 199z" fill="url(#paint9_linear)"/>
        <g id="character_5">
          <g id="Group 136">
            <path id="Vector 105" d="M165.8 174c-1.8 1-7 3.2-9.5 4l-2.5 7.3c.3 0 1.6-.4 5-1.8 3.5-1.4 9-6.9 11.5-9.1 3.3-.2 3-1.5 3.6-1.9.7-.4.6.8 1.8.8 1 0 .3-.2 0-1 .5.8 1.8 1.3 2.9.8.4-.3.4-.5.3-.7.8.5 1.6.7 1.7-.1.2-1.4 1.4-1 .3-1.4.4-.2-3.3-.5-3.4-.7-.9-1.8-4.5.2-5.7 1-1.1.7-3.8 1.4-6 2.8z" fill="#E6836E"/>
            <g id="Group 130">
              <path id="Vector 73" d="M148 158c.6-.4-.2-4.6-.2-4.6l-8-2.3c.4 2.2 1 6.6.8 7.3 0 0 6.9.1 7.4-.3z" fill="#EBB4AE"/>
              <path id="Vector 76" fill-rule="evenodd" clip-rule="evenodd" d="M139.4 151c.9 1.5 3.8 4.5 8.3 4.7 1.1 0 2-1.2 2.6-3-1.2 0-2.3-.5-2.6-.8 1 .5 2.4.2 2.9 0l.1-.6c.2-.6 1-.7 1.5-.7-.6-.8-.8-3-.8-4.1l.1-1.6c.1-4.3 1.9-6.2 2.7-6.6l-15.8 2.1a49 49 0 00-.9 7c0 1.9.6 2.9 1.9 3.6z" fill="#FAC8C0"/>
              <path id="Vector 75_2" d="M152.4 142.7c0 1.2-.5 2.4-.8 2.7.3-3-.7-3.8-1-3.9-1.5 2-5.3 1.9-7 1.6.2 3-1.5 4.1-2.1 4.4-.5.2-.8 1.2-.8 1.7-.1-.7-.6-2-1.8-2.1-1-.1-1.3.7-1.3 1.2-4.2-4.5-2-8.1-.4-9.3.2-5.5 7.9-5.8 11.4-3.3a7 7 0 007 .7c.5 2-1.1 3.5-2 4 .5-.3 1.3-.2 1.7-.1-.2 1.3-1.9 2-3 2.4z" fill="#121334"/>
            </g>
            <g id="Vector 116" fill="#F4A392">
              <path d="M207.7 236l-2.2-5.2-1-2.2 5.2-2 3.1 7.3-5 2zM181.4 210l1.3-7.5 5.4-.4-1.4 9.2-5.3-1.3z"/>
            </g>
            <path id="Vector 104" d="M185.7 199.9c5.1 9 15.5 27.3 16.2 28.9.6 1.5.8 1.6 1.5 2.4 1 1 7.6-2 7.7-2.4 0-.4-13.7-36.3-14.8-39-1.2-2.8-4.4-2.6-5.1-2.6-.6 0-12.8-3-18.9-4.5-2 4.9-5.9 15.2-5.9 17.2s6.8 4 10.1 4.9c1.6-.4 4.8-1.1 5.8-1.6s2.7-2.4 3.4-3.3z" fill="#A2A7C9"/>
            <path id="Vector 103" d="M177.6 173.5c-2.2 1.2-11.6 5.5-16 7.5-8.2 8.8 6.8 17.2 9.3 15.9 2.5-1.4 8.8-6 9.1-5 .4 1.2 1 10.3 1 11.1 0 .9 7.7 2.7 7.8 2.3 0-.4 2.5-16.3 2.9-20.6.4-4.3.3-12-.4-14.6-.7-2.5-11 1.8-13.7 3.4z" fill="#C1C5DF"/>
            <path id="Vector 108" d="M138.3 155.1l12 2.7-1.1 1.7c1.3.1 5.6 5 7.6 7.8 2 2.7 7.2 9.8 7.5 12.7.3 2.3-.7 5.7-1.2 7a800 800 0 00-22 2.2L139 162c0-.9 1.2-1.2 1.8-1.2l-2.4-5.8z" fill="#fff"/>
            <path id="Vector 120" d="M158.2 173.4c-1 .3-6.7-2.9-11-5.5 2 3.6 6 10.2 6.9 11.4 1 1 3.4 1.7 4.5 1.4 4.8-1.5 11.7-11 14.7-16.8-.5.2-1.8-1-2.4-1.5-3.4.5-8 5.8-10.6 8.8-1 1.2-1.8 2.1-2.1 2.2z" fill="#FFC0B3"/>
            <path id="Vector 121" d="M171 157.7c.3 1.3-.5 3.8-.4 5.1 0 1.3 1.8 1.8 2.3 1.5.5-.3 5.5-6 5.5-6.5-.1-.3-1 .3-1.5.6.8-.6 1.7-2 1.6-2.2 0-.2-.8.2-1.1.5.3-.5.7-1.5.1-1.3-.6.3-1.8 2-2.3 2.7l.9-2.4c0-.6-.5-.3-1.2 1s-3.2 3.7-3 1.8c.2-1.9-.6-2.2-.7-2.5-.2-.2-.5.2-.2 1.7z" fill="#FFC0B3"/>
            <path id="Vector 101" d="M169.5 241.3h2.3l-5.6-40.2-7.2 1 10.5 39.2z" fill="#8384B8"/>
            <path id="Vector 102" d="M132.8 241.3h-2.3l5.6-40.1 7.2 1-10.5 39.1z" fill="#8384B8"/>
            <path id="Vector 106" d="M143.5 160c2.3 1 9.7 7.3 13.1 10.4l-1.4 4.8c-.9 2.8-2 3.7-2.6 3.8a81.4 81.4 0 01-8.9-5.3c-1.5-1.3-5.8-5.1-7-9.3-1.2-4.3 0-4.1.8-4.5.7-.4 3.2-.9 6 .2z" fill="#FAFBFD"/>
            <path id="Vector 111" d="M185.2 149.4l-1 21.5 6.8-1.8.9-.3c.5-.2 1-.5 1-.9l1-20.1c0-.6 0-2.1-1-2.1l-1 .2-5.3 1.9c-1.2.4-1.3.7-1.4 1.6z" fill="#3A3C8B"/>
            <path id="Vector 112" fill-rule="evenodd" clip-rule="evenodd" d="M193 168c0 .3-.6.6-1.1.8-.4 0-1.2 0-1.1-.9l1.1-22 1-.2c1 0 1 1.5 1 2.1l-.4 9.5-.6 10.6z" fill="#23255F"/>
            <path id="Vector 100" d="M131.8 154c6.8 3.3 14.2 22.9 17.1 32.3 4-1.8 20.3-2 22.1.8 1.8 2.7 4.5 8.4 0 13.4s-31.6 7-39.2 2.1c-7-4.4-8.5-52.7 0-48.6z" fill="#6A6BA8"/>
            <path id="Vector 110" d="M190.3 170.8c2.1-.4 1.7-1.7 1-1.9-.7-.2-18.5 3-19.9 3.3-1.1.2-1.6 1.9-1.7 2.7l20.6-4.1z" fill="#23255F"/>
            <path id="Vector 117" d="M195.4 221.5c-.1-3.1-6-8.4-8.8-10.6-2.5.4-4-1.7-4.7-2.5-.5-.7-3.3 3.8-3.3 4.3 0 .6 10.2 8.8 11.5 9.5 1.3.7 5.3 3 5.3-.7z" fill="#B0B4D2"/>
            <path id="Vector 118" d="M206.6 233.7c1.4.8 4.7-.2 6.1-.8 2.5.3 8 1.2 10.1 2.9 2.8 2.1 5.2 4 .8 4.6-4.4.7-17-1-18-1.8-1.1-.7-.7-6 1-5z" fill="#B0B4D2"/>
            <ellipse id="Ellipse 52" rx=".2" ry=".5" transform="matrix(-1 0 0 1 188.4 148.4)" fill="#fff"/>
            <path id="Vector 119" d="M150.6 132.2l37.8 15.7v1l-46 20.5c-2.9-7.5-11.3-21.9-10.8-27.5.5-7 6-13.7 19-9.7z" fill="url(#paint10_linear)" fill-opacity=".2"/>
            <path id="Vector 109" d="M157.5 180.8c-.6 0-3.9-1-5.4-1.6 2.3-1.7 3.7-7.1 4.1-9.6l1.7 1 2.2.4c.2.4.5 1.7 0 4.5-.8 3.4-2 5.1-2.6 5.3z" fill="#C9CCE4"/>
          </g>
          <g id="Group 229">
            <g id="Vector 270_4" filter="url(#filter5_d)">
              <path d="M214.8 143H160c1.9 0 7.9-6.8 7.9-10.5 0-3.8 2.2-8.3 5.6-8.3 3.4 0 37.2-.4 41.3 0 4.1.3 6.8 4.1 7.2 9 .3 4.9-2 9.8-7.2 9.8z" fill="#fff"/>
            </g>
            <rect id="Rectangle 106_5" x="177" y="129" width="39" height="1" rx=".5" fill="#6466C5"/>
            <rect id="Rectangle 107_5" x="177" y="133" width="31" height="2" rx="1" fill="#6466C5"/>
            <rect id="Rectangle 108_5" x="177" y="138" width="18" height="1" rx=".5" fill="#6466C5"/>
          </g>
        </g>
      </g>
    </g>
    <g id="technologies">
      <g clip-path="url(#cliphero35)">
        <path id="Ellipse 38" d="M567 87.6c-.5 14.5 6.2 15.7 13.9 15.3 7.7-.3 17.3-4 17.1-15.3-.2-11.4-7.6-14.7-13.4-14.6-5.7 0-17 0-17.6 14.6z" fill="#fff"/>
        <path id="Vector_7" fill-rule="evenodd" clip-rule="evenodd" d="M583 78c-5.5 0-10 4.6-10 10.3 0 4.5 2.9 8.3 6.8 9.7.5 0 .7-.2.7-.5v-2c-2.8.7-3.4-1.1-3.4-1.1-.4-1.2-1-1.5-1-1.5-1-.7 0-.7 0-.7 1 .1 1.5 1.1 1.5 1.1 1 1.6 2.4 1.1 3 .9 0-.7.3-1.2.6-1.4-2.2-.3-4.6-1.2-4.6-5 0-1.2.4-2.1 1-2.8 0-.3-.4-1.3.1-2.7 0 0 .9-.3 2.8 1a9.4 9.4 0 015 0c2-1.3 2.8-1 2.8-1 .5 1.4.2 2.4 0 2.7a4 4 0 011 2.7c0 4-2.3 4.8-4.5 5 .4.4.7 1 .7 2v2.8c0 .3.2.6.7.5 4-1.4 6.8-5.2 6.8-9.7 0-5.7-4.5-10.3-10-10.3z" fill="#9B9CEA"/>
      </g>
      <g clip-path="url(#cliphero34)">
        <path id="Ellipse 38_2" d="M509 69.6c-.5 14.5 6.2 15.7 13.9 15.3 7.7-.3 17.3-4 17.1-15.3-.2-11.4-7.6-14.7-13.4-14.6-5.7 0-17 0-17.6 14.6z" fill="#fff"/>
        <g id="Group 238">
          <path id="Vector_8" d="M519.8 66.8c.9 2.5 1.2 7 3.6 7h.5c-2.2-.6-2.4-5-3.7-7.3l-.4.3" fill="url(#paint11_linear)"/>
          <path id="Vector_9" d="M520.2 66.5c1.3 2.3 1.5 6.7 3.7 7.2l.5-.1c-2-1-2.5-5.2-4-7.3l-.2.2" fill="url(#paint12_linear)"/>
          <path id="Vector_10" d="M522 65.2a3 3 0 00-.5 0c-.5.1-1 .3-1.5.7.2 0 .3.2.4.4l1.5-.9.6-.2h-.4" fill="#14559A"/>
          <path id="Vector_11" d="M526 72.7l.5-.5c-.8-2.5-1.1-7-3.5-7h-.5c2.2.6 2.5 5.3 3.4 7.5z" fill="url(#paint13_linear)"/>
          <path id="Vector_12" d="M522.5 65.2h-.4.9-.5z" fill="#3092C4"/>
          <path id="Vector_13" d="M525.9 73.2l-.3-.3a5 5 0 01-1.2.7 1.9 1.9 0 00.8.2c.5 0 .8 0 1.1-.2a2 2 0 01-.4-.4" fill="#1969BC"/>
          <path id="Vector_14" d="M522 65.4c1.9 1 2 5.7 3.6 7.5l.3-.2c-1-2.2-1.2-7-3.4-7.5l-.6.2" fill="url(#paint14_linear)"/>
          <path id="Vector_15" d="M520.4 66.3c1.5 2 2 6.3 4 7.3a5 5 0 001.2-.7c-1.5-1.8-1.7-6.5-3.7-7.5-.5.2-1 .5-1.5 1" fill="url(#paint15_linear)"/>
          <path id="Vector_16" d="M518.9 66.8a22 22 0 00-.8 2.1 16 16 0 011.7-2l-.2-.7-.7.6" fill="url(#paint16_linear)"/>
          <path id="Vector_17" d="M519.8 66l-.2.2.2.6c.2 0 .3-.2.4-.3l-.4-.5z" fill="#2B74B1"/>
          <path id="Vector_18" d="M520 65.9l-.2.1.4.5.2-.2c0-.2-.2-.3-.4-.4" fill="#125A9E"/>
          <path id="Vector_19" d="M533.4 65c-1.1 4.3-3.4 7.7-5.4 8.6H527.6v.1h-.1.2c1.9 0 3.7-3.2 6.8-8.7h-1.2z" fill="url(#paint17_linear)"/>
          <path id="Vector_20" d="M517.7 65.4h.1v-.1h.5v-.1h-.1c-2 0-5 3.8-6.2 8.8h.2l1.2-2c.9-3.6 2.7-6 4.3-6.6" fill="url(#paint18_linear)"/>
          <path id="Vector_21" d="M518.9 66.8l.7-.6-.2-.4a4 4 0 00-.5 1zm.2-1.4l.3.4h.1l-.5-.4z" fill="#0D82CA"/>
          <path id="Vector_22" d="M513.4 72c1.9-3.7 2.7-6 4.3-6.6-1.6.6-3.4 3-4.3 6.5" fill="url(#paint19_linear)"/>
          <path id="Vector_23" d="M519.5 65.7v.5c.2 0 .2-.1.3-.2l-.3-.3" fill="#127BCA"/>
          <path id="Vector_24" d="M514.2 74h-.1c1.9 0 2.8-1 3.2-2.4l.8-2.7a38 38 0 00-2.4 4c-.4.7-1 1-1.5 1" fill="url(#paint20_linear)"/>
          <path id="Vector_25" d="M514.2 74a2 2 0 001.5-1.1c.8-1.5 1.6-2.9 2.4-4l.8-2.1c-1.6 1.5-3.2 4-4.7 7.2" fill="url(#paint21_linear)"/>
          <path id="Vector_26" d="M513.4 72l-1.2 2h.8c0-.7.2-1.4.4-2" fill="#05A1E6"/>
          <path id="Vector_27" d="M518.3 65.2H518v.1h-.2c-1.7.7-2.5 3-4.4 6.6L513 74H514.3c1.5-3.2 3.1-5.7 4.7-7.2l.5-1-.3-.4h-.2v-.1h-.2-.2l-.1-.1" fill="url(#paint22_linear)"/>
          <path id="Vector_28" d="M529 67.4l-.8 2.9c1-1.4 2-3.1 2.9-5.1-1.1.3-1.7 1.1-2 2.2" fill="url(#paint23_linear)"/>
          <path id="Vector_29" d="M528.2 73.5h-.2c2-.8 4.3-4.2 5.4-8.5h-.2c-2.6 4.5-3.4 7.6-5 8.5" fill="url(#paint24_linear)"/>
          <path id="Vector_30" d="M527 73.1l1.2-2.8c-.6.7-1.1 1.4-1.7 1.9l.4.9" fill="#079AE1"/>
          <path id="Vector_31" d="M527 73.1a1.7 1.7 0 01-.7.5l.6.2h.7l-.7-.7" fill="#1969BC"/>
          <path id="Vector_32" d="M523.4 73.8a2.9 2.9 0 001-.2 1.9 1.9 0 00.8.2h-1.9zm1.8 0c.5 0 .8 0 1.1-.2l.6.2h.2-1.9z" fill="#1E5CB3"/>
          <path id="Vector_33" d="M527.1 73.8h.7-.7z" fill="#1D60B5"/>
          <path id="Vector_34" d="M526.5 72.2a8.7 8.7 0 01-.9.7l.3.3.4.4h.2l.4-.5-.4-1" fill="#175FAB"/>
          <path id="Vector_35" d="M532.5 65H531v.2c-1 2-2 3.7-3 5a9.3 9.3 0 01-1.2 2.9c.2.3.4.5.7.6H528v-.1h.1l.2-.1c1.6-1 2.4-4 5-8.5h-.7z" fill="url(#paint25_linear)"/>
          <path id="Vector_36" d="M518.4 65.2H518.8l.1.1h.2l.5.4.2-.1a2 2 0 00-1.3-.4" fill="#7DCBEC"/>
          <path id="Vector_37" d="M519.5 65.7l.3.3.2-.1c0-.2-.2-.2-.3-.3l-.2.1" fill="#5EC5ED"/>
          <g id="Group">
            <path id="Vector_38" d="M518.4 65.2h.1c.4 0 .8.1 1.2.4.3-.3.7-.4 1.3-.4h-2.8.1" fill="url(#paint26_linear)"/>
          </g>
          <g id="Group_2">
            <path id="Vector_39" d="M521 65.2c-.6 0-1 .1-1.3.4l.3.3c.5-.3 1-.6 1.5-.6l.5-.1h-1z" fill="url(#paint27_linear)"/>
          </g>
          <path id="Vector_40" d="M528.2 70.3l.9-3c.3-1 .9-1.8 2-2.1V65c-1.7.1-2.6 1-3 2.4-.7 2.3-1.1 3.8-1.6 4.8.6-.5 1.1-1.2 1.7-2z" fill="url(#paint28_linear)"/>
        </g>
      </g>
      <g clip-path="url(#cliphero33)">
        <path id="Ellipse 38_3" d="M473 34.6c-.5 14.5 6.2 15.7 13.9 15.3 7.7-.3 17.3-4 17.1-15.3-.2-11.4-7.6-14.7-13.4-14.6-5.7 0-17 0-17.6 14.6z" fill="#fff"/>
        <path id="Vector_41" d="M490 24.4c-.6-.5-1.5-.5-2 0l-2 2 2.5 2.5a1.7 1.7 0 012.1 2.2l2.5 2.4a1.7 1.7 0 11-.7 2.8c-.5-.5-.6-1.2-.4-1.8l-2.3-2.3v6l.5.3c.6.7.7 1.7 0 2.4-.6.6-1.7.6-2.4 0-.6-.7-.6-1.7 0-2.4.2-.2.2-.3.6-.4v-6c-.4 0-.4-.2-.5-.4-.5-.5-.7-1.2-.4-1.8l-2.5-2.5-6.6 6.6c-.5.5-.5 1.4 0 2l9.6 9.6c.6.5 1.5.5 2 0l9.6-9.6c.5-.5.5-1.4 0-2l-9.6-9.6z" fill="#F34F29"/>
      </g>
      <g clip-path="url(#cliphero0)">
        <path id="Ellipse 37" d="M540 117c.7 16.8-7 18.3-16 17.8-9-.4-20.3-4.7-20-17.9.3-13.1 8.8-17 15.6-16.9 6.7 0 19.9 0 20.5 17z" fill="#fff"/>
        <path id="Vector_42" d="M522 118.6a1.6 1.6 0 100-3.2 1.6 1.6 0 000 3.2z" fill="#8CFDFF"/>
        <path id="Vector_43" d="M528.2 114.3l-1-.3.2-1c.3-2 0-3.3-1-3.8l-.8-.2c-1 0-2.3.7-3.6 2-1.3-1.3-2.6-2-3.6-2-.3 0-.6 0-.9.2-.9.6-1.2 1.9-1 3.8l.3 1c-.4 0-.7.2-1 .3-1.8.7-2.8 1.6-2.8 2.7 0 1 1 2 2.8 2.7l1 .3-.2 1c-.3 2 0 3.3 1 3.8l.8.2c1 0 2.3-.7 3.6-2 1.3 1.3 2.6 2 3.6 2 .3 0 .6 0 .9-.2.9-.6 1.2-1.9 1-3.8l-.3-1c.4 0 .7-.2 1-.3 1.8-.7 2.8-1.6 2.8-2.7 0-1-1-2-2.8-2.7zm-2.1-4.4c.6.4.8 1.4.5 3 0 .3 0 .6-.2.9l-2.3-.4-1.5-1.8c1-1 2.1-1.8 3-1.8l.5.1zm-1.6 8.5l-.9 1.4a19.7 19.7 0 01-3.2 0 18.1 18.1 0 01-1.6-2.8 23 23 0 011.6-2.8 19.7 19.7 0 013.2 0 17.8 17.8 0 011.6 2.8l-.7 1.4zm1.2-.4l.5 1.4-1.5.3.5-.9.5-.8zm-3.7 3.8a16 16 0 01-1-1.1h2l-1 1.1zm-2.7-2.1l-1.5-.3.5-1.5.5 1 .5.8zm-1-3.7l-.5-1.4 1.5-.3-.5.9-.5.8zm3.7-3.8l1 1.2h-2l1-1.2zm3.2 3l-.5-.9 1.5.3-.5 1.5-.5-1zm-7.8-2.4c-.3-1.5 0-2.5.5-2.9h.5c.9 0 2 .6 3 1.7l-1.5 1.8-2.3.4-.2-1zm-3.6 4.2c0-.7.9-1.4 2.3-2l1-.2c.1.7.4 1.5.8 2.2a18 18 0 00-.9 2.2c-2-.5-3.2-1.4-3.2-2.2zm4.1 7c-.6-.3-.8-1.3-.5-2.8 0-.4 0-.7.2-1l2.3.4 1.5 1.8c-1 1-2.1 1.8-3 1.8a1 1 0 01-.5-.1zm8.7-2.8c.3 1.5 0 2.5-.5 2.9a1 1 0 01-.5 0c-.9 0-2-.6-3-1.7l1.5-1.8 2.3-.4.2 1zm1.3-2.3l-.9.3c-.2-.7-.5-1.5-.9-2.2l.9-2.2c2 .5 3.2 1.4 3.2 2.2 0 .7-.9 1.4-2.3 2z" fill="#8CFDFF"/>
      </g>
      <g clip-path="url(#cliphero1)">
        <path id="Ellipse 37_2" d="M477.8 136.2c.6 17.2-7.4 18.7-16.5 18.3-9.1-.5-20.6-4.9-20.3-18.3.3-13.4 9-17.3 15.9-17.2 6.8 0 20.2 0 20.9 17.2z" fill="#fff"/>
        <g id="Java">
          <g id="Group 219">
            <path id="Vector_44" d="M455.4 142.5s-1 .6.8.8c2.1.2 3.2.2 5.6-.3l1.5.8c-5.3 2.3-12-.2-7.9-1.3zm-.6-3s-1.2.8.6 1c2.3.3 4.1.3 7.3-.3 0 0 .4.4 1.1.7-6.5 1.9-13.7.1-9-1.4z" fill="#7579FF"/>
            <path id="Vector_45" d="M460.3 134.4c1.3 1.5-.4 2.9-.4 2.9s3.4-1.7 1.8-4c-1.4-2-2.5-3 3.5-6.4 0 0-9.4 2.4-5 7.5z" fill="#CE368A"/>
            <path id="Vector_46" d="M467.3 144.7s.8.6-.8 1.1c-3.1 1-12.9 1.2-15.6 0-1-.4.9-1 1.5-1l1-.2c-1.2-.8-7.1 1.5-3.1 2.1 10.9 1.8 19.9-.7 17-2zm-11.4-8.3s-5 1.2-1.7 1.6c1.3.2 4 .1 6.5 0l4.1-.6-1.2.6c-5 1.4-14.8.7-12-.6 2.4-1.2 4.3-1 4.3-1zm9 5c5-2.7 2.7-5.3 1-5l-.6.2.5-.3c3.2-1.2 5.8 3.4-1 5.2v-.1z" fill="#7579FF"/>
            <path id="Vector_47" d="M461.7 121.3s2.9 2.9-2.7 7.3c-4.4 3.5-1 5.4 0 7.7-2.6-2.3-4.4-4.4-3.2-6.3 1.9-2.8 7-4.1 6-8.7z" fill="#CE368A"/>
            <path id="Vector_48" d="M456.4 148.6c5 .3 12.5-.2 12.7-2.5 0 0-.4.8-4 1.5-4.3.8-9.5.7-12.5.2 0 0 .6.6 3.8.8z" fill="#7579FF"/>
          </g>
        </g>
      </g>
      <g clip-path="url(#cliphero2)">
        <path id="Ellipse 37_3" d="M160.4 61c.4 10.9-4.7 11.8-10.5 11.5-5.8-.3-13-3-12.9-11.6.2-8.5 5.7-11 10-10.9 4.4 0 13 0 13.4 11z" fill="#fff"/>
        <path id="path55" d="M153.7 64c-1.7 2.4-5.4 1.6-7.8 1.7l-.8.1.4-.1c1.6-.6 2.4-.7 3.4-1.2 2-1 3.8-3.1 4.2-5.3-.7 2-3 4-5 4.6-1.3.6-3.8 1-3.8 1-1.7-.8-1.8-4.5 1.3-5.6 1.3-.6 2.6-.3 4-.6a6.3 6.3 0 004-3c.9 2.4 1.9 6.1.1 8.5zm0-9.2c-.2.5-.4 1-.7 1.3a7 7 0 00-12 4.9 7 7 0 002.2 5.1l.2.2a.6.6 0 11.8-1 .6.6 0 01-.8 1 7 7 0 0011.6-4.8c.2-1.8-.4-4-1.3-6.7z" fill="#5FB832"/>
      </g>
      <g clip-path="url(#cliphero3)">
        <path id="Ellipse 37_4" d="M126.4 91c.4 10.9-4.7 11.8-10.5 11.5-5.8-.3-13-3-12.9-11.6.2-8.5 5.7-11 10-10.9 4.4 0 13 0 13.4 11z" fill="#fff"/>
        <path id="Vector_49" d="M119.3 87.6c-.4 0-.6-.2-.6-.5l.1-.4.1-.2c0-.2-.3-.2-.4-.2-1.2 0-1.5 1.6-1.8 3l-.1.6c.7.1 1.2 0 1.4-.2.4-.2 0-.5 0-.7 0-.3.3-.5.5-.5.3 0 .5.3.5.6 0 .5-.7 1.2-2 1.2h-.5l-.3 1.4c-.2 1-.5 2.5-1.6 3.8-1 1.1-1.9 1.3-2.3 1.3-.8 0-1.3-.4-1.3-1 0-.5.4-.8.8-.8s.7.3.7.6-.2.4-.3.5l-.1.2s0 .2.2.2c.3 0 .6-.2.7-.3.8-.7 1-1.8 1.5-3.8v-.5l.6-2.2c-.6-.4-.9-.9-1.6-1-.5-.2-.8-.1-1 .2-.3.3-.2.7 0 1l.4.4c.5.6.8 1 .7 1.6-.2 1-1.3 1.7-2.7 1.3-1.1-.4-1.3-1.2-1.2-1.6.1-.4.4-.5.7-.4.4.1.5.5.4.8v.2l-.2.2c0 .3.3.4.5.5.5.2 1-.1 1.2-.5 0-.4-.2-.7-.3-.8l-.5-.5c-.2-.3-.7-1-.4-1.7 0-.3.2-.7.5-.9a2 2 0 012-.3c.7.2 1.1.8 1.6 1.2a7 7 0 011.3-2.3c.5-.7 1.2-1.1 2-1.1s1.4.3 1.5.9c0 .2-.2.7-.7.7z" fill="#D6D7EA"/>
      </g>
      <g clip-path="url(#cliphero4)">
        <path id="Ellipse 37_5" d="M227.8 82.1c.4 11.2-4.8 12.1-10.7 11.8-5.9-.3-13.3-3-13.1-11.8.2-8.6 5.8-11.2 10.3-11.1 4.4 0 13 0 13.5 11.1z" fill="#fff"/>
        <g id="php" fill="#12C8B1">
          <path d="M210.5 82.9c.3 0 .6-.1.8-.3.2-.2.2-.4.2-.7v-.4l-.2-.3-.4-.2H209.7v1.9h.8zm0-2.9l1 .1.7.4.4.6.2.8-.2.8c0 .2-.2.4-.4.6a2 2 0 01-.7.4l-1 .1h-.8v2h-1.2V80h2zM218.5 80v5.8h-1.2v-2.5h-2.6v2.5h-1.2V80h1.2v2.5h2.6V80h1.2zM221.7 82.9c.3 0 .6-.1.8-.3.2-.2.2-.4.2-.7v-.4l-.2-.3-.4-.2H221v1.9h.8zm0-2.9l1 .1.7.4.4.6.2.8c0 .3 0 .5-.2.8 0 .2-.2.4-.4.6a2 2 0 01-.7.4l-1 .1h-.8v2h-1.2V80h2z"/>
        </g>
      </g>
      <g clip-path="url(#cliphero5)">
        <path id="Ellipse 37_6" d="M172.8 102.2c.4 11-4.8 12-10.7 11.7-5.9-.3-13.3-3-13.1-11.8.2-8.6 5.8-11.2 10.3-11.1 4.4 0 13 0 13.5 11.2z" fill="#fff"/>
        <path id="Vector_50" d="M167.7 97.4l-5.8-3.3-.4-.1h-.4l-5.8 3.4c-.2.2-.3.5-.3.7v6.7l.1.4 12.9-7.4c0-.2-.2-.3-.3-.4z" fill="#9B4F96"/>
        <path id="Vector_51" d="M155 105.2l.3.2 5.8 3.4h.8l5.8-3.4c.2 0 .3-.4.3-.6V98v-.4l-13 7.5z" fill="#68217A"/>
        <path id="Vector_52" d="M164 102.9a3 3 0 110-2.9l1.6-.9a4.8 4.8 0 100 4.7l-1.5-.9zm1.5-1.2v-.5h-.4v-.6h.6l.1-.7h.6l-.1.7h.4l.2-.7h.6l-.2.7h.3v.6h-.4v.5h.4v.6h-.6l-.1.7h-.6l.1-.7h-.4l-.2.7h-.6l.2-.7h-.3v-.6h.4zm.6 0h.4l.1-.5h-.4l-.1.5z" fill="#fff"/>
      </g>
      <g clip-path="url(#cliphero6)">
        <path id="Ellipse 37_7" d="M203.8 54.1c.4 11.2-4.8 12.1-10.7 11.8-5.9-.3-13.3-3-13.1-11.8.2-8.6 5.8-11.2 10.3-11.1 4.4 0 13 0 13.5 11.1z" fill="#fff"/>
        <path id="Vector_53" d="M198.7 49.4l-5.8-3.3-.4-.1h-.4l-5.8 3.4c-.2.2-.3.5-.3.7v6.7l.1.4 12.9-7.4c0-.2-.2-.3-.3-.4z" fill="#4F6D9B"/>
        <path id="Vector_54" d="M186 57.2l.3.2 5.8 3.4h.8l5.8-3.4c.2 0 .3-.4.3-.6V50v-.4l-13 7.5z" fill="#214A7A"/>
        <path id="Vector_55" d="M195 54.9a3 3 0 110-2.9l1.6-.9a4.8 4.8 0 100 4.7l-1.5-.9z" fill="#fff"/>
      </g>
      <g clip-path="url(#cliphero7)">
        <path id="Ellipse 37_8" d="M77.7 215.8c.3 8.7-3.7 9.5-8.4 9.2-4.6-.2-10.4-2.4-10.3-9.2.1-6.9 4.6-8.8 8-8.8 3.5 0 10.4 0 10.7 8.8z" fill="#fff"/>
        <g id="UX" fill="#CB4B94">
          <path d="M66.1 218l.5-.1c.2 0 .3-.2.4-.3l.3-.4V213h1.2v3.5c0 .3 0 .7-.2 1l-.5.7a2 2 0 01-.7.5l-1 .2c-.3 0-.6 0-1-.2a2 2 0 01-1.1-1.2l-.2-1V213H65v4.1l.3.4.3.3h.5zM74.1 219H73l-.2-.1v-.2l-1.3-2.1v.2l-1.2 2h-.1l-.2.1h-1l1.8-3-1.8-2.8h1.3l.1.1 1.2 2.1a1.6 1.6 0 01.1-.2l1-1.8.2-.2H74l-1.7 2.8 1.8 3z"/>
        </g>
      </g>
      <g clip-path="url(#cliphero8)">
        <path id="Ellipse 37_9" d="M56.7 178.8c.3 8.7-3.7 9.5-8.4 9.2-4.6-.2-10.4-2.4-10.3-9.2.1-6.9 4.6-8.8 8-8.8 3.5 0 10.4 0 10.7 8.8z" fill="#fff"/>
        <path id="Vector_56" d="M55.4 178.7l.1-.1v-.4-.2l-1.5-.8h-.2l-1.5.8v2l1.5.9h.2l.8-.5v-.1l-1.4-1v-.5-.1l.4-.3h.1l.5.3v.5h.2l.8-.5" fill="#83CD29"/>
        <path id="Vector_57" d="M53.9 178.7l.3.1v.4l-.3.2-.3-.2v-.3l.3-.2z" fill="#83CD29"/>
        <path id="Vector_58" d="M50 179.3l-.5.4-.5-.3v-.6l.5-.4.5.3v.6zm.2-4.3H50v2.3l-.1.1-.4-.2h-.2l-1.5.8v2.1l1.5.8h.2l1.4-.8.1-.2v-4.2-.2l-1-.5" fill="#83CD29"/>
        <path id="Vector_59" d="M45 177.2h.2l1.4.8.1.2v1.8l-1.5.9H45l-1.5-.9v-1.8-.2l1.5-.8" fill="#83CD29"/>
        <path id="Vector_60" d="M42.3 178.1v-.1l-1.6-.9h-.1l-1.5.9-.1.1v2.4h.1l1-.5V178.8v-.2l.5-.2a.2.2 0 01.1 0l.4.2.1.2v1.2l1 .5h.1V178z" fill="#83CD29"/>
      </g>
      <g clip-path="url(#cliphero9)">
        <path id="Ellipse 37_10" d="M36.6 216.7c.3 8.7-3.7 9.5-8.3 9.3-4.6-.3-10.4-2.5-10.3-9.3.1-6.8 4.6-8.7 8-8.7 3.5 0 10.3 0 10.6 8.7z" fill="#fff"/>
        <g id="ui" fill="#12C8B1">
          <path d="M26.8 219.3h.6l.4-.4.3-.5.1-.7v-4h1.4v4c0 .4 0 .8-.2 1.2a2.5 2.5 0 01-1.5 1.4c-.3.2-.7.2-1.1.2-.5 0-.9 0-1.2-.2A2.6 2.6 0 0124 219l-.2-1.2v-4h1.4v4l.1.7c0 .2.2.4.3.5.1.1.3.3.5.3l.6.1zM32.3 220.4h-1.4v-6.7h1.4v6.7z"/>
        </g>
      </g>
      <g clip-path="url(#cliphero10)">
        <path id="Ellipse 37_11" d="M91.7 155.6c.4 10.7-4.5 11.6-10.2 11.3-5.6-.3-12.7-3-12.5-11.3.2-8.2 5.6-10.7 9.8-10.6 4.2 0 12.5 0 13 10.6z" fill="#fff"/>
        <g id="Group 236">
          <g id="Group_3">
            <g id="Group_4">
              <g id="Group_5" fill="#fff">
                <path id="Vector_61" d="M76 148h.7v.7h.7v-.7h.7v2h-.7v-.6h-.7v.7H76V148z"/>
                <path id="Vector_62" d="M79 148.7h-.6v-.7h1.9v.7h-.6v1.4H79v-1.4z"/>
                <path id="Vector_63" d="M80.6 148h.7l.5.7.4-.7h.8v2h-.7v-1l-.5.8-.5-.7v1h-.7V148z"/>
                <path id="Vector_64" d="M83.3 148h.7v1.4h1v.7h-1.7V148z"/>
              </g>
            </g>
          </g>
          <g id="Guides to delete">
            <g id="Group_6">
              <path id="Vector_65" d="M76 162.2L75 151h11l-1 11.2-4.5 1.3-4.5-1.3z" fill="#E34E26"/>
              <path id="Vector_66" d="M80.5 152v10.5l3.6-1 .9-9.6h-4.5z" fill="#EF662A"/>
              <path id="Vector_67" d="M77 153.3l.4 4.2h4.8l-.2 1.7-1.5.5-1.5-.5-.1-1.1h-1.4l.2 2.2 2.8.8 2.8-.8.4-4.2h-5l-.2-1.4h5.3l.1-1.4H77z" fill="#fff"/>
              <g id="Group_7" fill="#EBEBEB">
                <path id="Vector_68" d="M80.5 153.3H77l.4 4.2h3V156h-1.7l-.2-1.4h2v-1.4z"/>
                <path id="Vector_69" d="M80.5 159.7l-1.5-.5-.1-1.1h-1.4l.2 2.2 2.8.8v-1.4z"/>
              </g>
            </g>
          </g>
        </g>
      </g>
      <g clip-path="url(#cliphero11)">
        <path id="Ellipse 37_12" d="M60.7 137.6c.4 10.7-4.5 11.6-10.2 11.3-5.6-.3-12.7-3-12.5-11.3.2-8.2 5.6-10.7 9.8-10.6 4.2 0 12.5 0 13 10.6z" fill="#fff"/>
        <path id="Vector_70" d="M44.9 136.5c-.5 0-.9.4-.9.9v3.6c0 .5.4.9.9.9s.9-.4.9-.9v-3.6c0-.5-.4-.9-1-.9zm7-3.2l.6-1.1v-.2h-.2l-.6 1.2a4.2 4.2 0 00-3.4 0l-.6-1.1s-.1-.1-.2 0l.6 1.2c-1.2.6-2 1.8-2 3h7.8c0-1.2-.8-2.4-2-3zm-3.7 1.7a.3.3 0 01-.3-.3c0-.2.1-.4.3-.4.2 0 .3.2.3.4 0 .1-.1.3-.3.3zm3.6 0a.3.3 0 01-.3-.3.3.3 0 01.6 0c0 .1-.1.3-.3.3zm-5.7 1.7v5.6c0 .5.4 1 1 1h.6v1.8c0 .5.4.9.8.9.5 0 1-.4 1-.9v-1.9h1v2c0 .4.5.8 1 .8.4 0 .8-.4.8-.9v-1.9h.7c.5 0 1-.4 1-.9v-5.6h-8zm9.9.7c0-.5-.4-.9-.9-.9s-.9.4-.9.9v3.6c0 .5.4.9 1 .9.4 0 .8-.4.8-.9v-3.6z" fill="#A4C439"/>
      </g>
      <g clip-path="url(#cliphero31)">
        <path id="Ellipse 37_13" d="M22 171.7c.3 9.9-4.2 10.8-9.5 10.5-5.3-.3-12-2.8-11.8-10.5.2-7.8 5.2-10 9.2-10 4 0 11.7 0 12 10z" fill="#fff"/>
        <g id="Group 237">
          <path id="Vector_71" d="M18 172.8l-.7-2.2-1.5-4.5c0-.3-.4-.3-.5 0l-1.4 4.5H9L7.6 166c-.1-.3-.4-.3-.5 0l-1.5 4.5-.7 2.2a.5.5 0 00.2.6l6.4 4.6 6.3-4.6a.5.5 0 00.2-.6" fill="#FC6D26"/>
          <path id="Vector_72" d="M11.5 178l2.4-7.4H9l2.5 7.4z" fill="#E24329"/>
          <path id="Vector_73" d="M11.5 178L9 170.6H5.6l5.9 7.4z" fill="#FC6D26"/>
          <path id="Vector_74" d="M5.6 170.6l-.7 2.2a.5.5 0 00.2.6l6.4 4.6-5.9-7.4z" fill="#FCA326"/>
          <path id="Vector_75" d="M5.6 170.6H9L7.6 166c-.1-.3-.4-.3-.5 0l-1.5 4.5z" fill="#E24329"/>
          <path id="Vector_76" d="M11.5 178l2.4-7.4h3.4l-5.8 7.4z" fill="#FC6D26"/>
          <path id="Vector_77" d="M17.3 170.6l.7 2.2a.5.5 0 01-.2.6l-6.3 4.6 5.8-7.4z" fill="#FCA326"/>
          <path id="Vector_78" d="M17.3 170.6h-3.4l1.4-4.5c.1-.3.4-.3.5 0l1.5 4.5z" fill="#E24329"/>
        </g>
      </g>
      <g clip-path="url(#cliphero12)">
        <path id="Ellipse 37_14" d="M136 258.9c.3 8.8-3.8 9.6-8.5 9.3-4.6-.2-10.5-2.4-10.4-9.3.2-6.9 4.7-8.9 8.2-8.8 3.5 0 10.4 0 10.7 8.8z" fill="#fff"/>
        <path id="Vector_79" d="M122.8 255.4l.7 7.7 3 .8 3-.8.7-7.7h-7.4zm5.8 4.3l-.2 1.8v.2l-1.9.5-1.9-.5v-1.5h.8v.8l1.1.3 1-.3.1-1.3h-2l-.1-.2v-.7h2.2l.1-1h-3.5V257h4.5v.3l-.2 2.5zm0-5.2l-.6-.7h.6v-.5h-1.3v.4l.7.6h-.7v.5h1.3v-.3zm-1.6 0l-.6-.7h.6v-.5h-1.2v.4l.6.6h-.6v.5h1.2v-.3zm-1.5-.2h-.6v-.5h.6v-.5h-1.1v1.5h1.1v-.5z" fill="#39A0FF"/>
      </g>
      <g clip-path="url(#cliphero13)">
        <path id="Ellipse 37_15" d="M176.1 251.8c.4 10.8-4.6 11.8-10.3 11.5-5.8-.3-13-3-12.8-11.5.2-8.4 5.7-10.9 10-10.8 4.3 0 12.7 0 13.1 10.8z" fill="#fff"/>
        <path id="Vector_80" fill-rule="evenodd" clip-rule="evenodd" d="M161.6 256.2l8.6 1.1-3-4.8-5.6 3.7zm9.4-9l-.8 1-2.6 4s-.1.1 0 .2l2.5 4.2c0 .2.2.4.4.6l.5-10zm-11.5 4.2s.2.1.2 0l2.4-1.1.7-.6 2.2-2 .1-.2.8-1.5-1-.4-2.2 1.3-1 .8a132.6 132.6 0 00-1.7 1.7l-1 1.5.5.5zm3-.6l-1.2 5 5.6-3.6-4.4-1.4zm8-3.7l-4.8.8 1.6 4 3.2-4.8zm-8 3.3l4.4 1.5-1.6-4-2.8 2.5zm-3 2l-1.4 3.7 2.9-.1-1.4-3.6zm1.5 2.8l1.1-4.5-2.3 1.2 1.2 3.3zm8.9-8.3l-1.4-.4-2-.5h-.2l-.7 1.5 4.3-.6zm-2.7-1l3.8 1-.6-1.8-3.2.7zm-5.9 10.5H158.7v.1l9.6 1v-.1l-3-.4-4-.6zm-3.2-1.4l1.3-3v-.2l-.6-.5-.8 3.7h.1zm8.2-9.5l2.2-.4h.1v-.1l-3 .4c.2.1.5.2.7.1z" fill="#D91404"/>
      </g>
      <g clip-path="url(#cliphero14)">
        <path id="Ellipse 37_16" d="M211.1 260.8c.4 10.8-4.6 11.8-10.3 11.5-5.8-.3-13-3-12.8-11.5.2-8.4 5.7-10.9 10-10.8 4.3 0 12.7 0 13.1 10.8z" fill="#fff"/>
        <path id="Vector_81" d="M198 266.9a2 2 0 002-2v-2h-2a2 2 0 000 4z" fill="#0ACF83"/>
        <path id="Vector_82" d="M196 261c0-1.1.9-2 2-2h2v4h-2c-1.1 0-2-1-2-2z" fill="#A259FF"/>
        <path id="Vector_83" d="M196 257c0-1.1.9-2 2-2h2v4h-2c-1.1 0-2-1-2-2z" fill="#F24E1E"/>
        <path id="Vector_84" d="M200 255h2a2 2 0 110 4h-2v-4z" fill="#FF7262"/>
        <path id="Vector_85" d="M204 261a2 2 0 11-4 0 2 2 0 014 0z" fill="#1ABCFE"/>
      </g>
      <g clip-path="url(#cliphero15)">
        <path id="Ellipse 37_17" d="M122.7 283c.2 7.5-3.3 8.2-7.3 8-4-.2-9-2.2-9-8 .2-6 4-7.7 7-7.7s9 0 9.3 7.6z" fill="#fff"/>
        <path id="Vector_86" d="M108 281h13v4.6h-6.5v.7h-2.9v-.7H108V281zm.7 3.8h1.5v-2.3h.7v2.3h.7v-3h-2.9v3zm3.6-3v3.8h1.5v-.8h1.4v-3h-2.9zm1.5.7h.7v1.6h-.7v-1.6zm2.1-.7v3h1.5v-2.3h.7v2.3h.7v-2.3h.8v2.3h.7v-3h-4.4z" fill="#CB3837"/>
      </g>
      <g clip-path="url(#cliphero16)">
        <path id="Ellipse 37_18" d="M323 127c.4 11.3-4.8 12.3-10.8 12-6-.3-13.5-3.2-13.3-12 .2-8.7 5.9-11.3 10.4-11.2 4.5 0 13.2 0 13.6 11.2z" fill="#fff"/>
        <g id="Group_8">
          <g id="Group_9">
            <g id="Group_10">
              <path id="Vector_87" d="M303.9 122.8l.6-.4 7.3 12.6-.7.4-7.2-12.6z" fill="#E535AB"/>
            </g>
          </g>
          <g id="Group_11">
            <g id="Group_12">
              <path id="Vector_88" d="M318.2 123.8h-14.5v-.7h14.5v.7z" fill="#E535AB"/>
            </g>
          </g>
          <g id="Group_13">
            <g id="Group_14">
              <path id="Vector_89" d="M304 123.4l7.3-4.2.3.7-7.2 4.2-.4-.7z" fill="#E535AB"/>
            </g>
          </g>
          <g id="Group_15">
            <g id="Group_16">
              <path id="Vector_90" d="M310.3 134.3l7.3-4.2.4.7-7.3 4.2-.4-.7z" fill="#E535AB"/>
            </g>
          </g>
          <g id="Group_17">
            <g id="Group_18">
              <path id="Vector_91" d="M304 130.8l.4-.7 7.2 4.2-.3.7-7.3-4.2z" fill="#E535AB"/>
            </g>
          </g>
          <g id="Group_19">
            <g id="Group_20">
              <path id="Vector_92" d="M310.2 135l7.2-12.6.7.4-7.3 12.6-.6-.4z" fill="#E535AB"/>
            </g>
          </g>
          <g id="Group_21">
            <g id="Group_22">
              <path id="Vector_93" d="M305 131.3h-.7v-8.4h.8v8.4z" fill="#E535AB"/>
            </g>
          </g>
          <g id="Group_23">
            <g id="Group_24">
              <path id="Vector_94" d="M317.7 131.3h-.8v-8.4h.8v8.4z" fill="#E535AB"/>
            </g>
          </g>
          <g id="Group_25">
            <g id="Group_26">
              <path id="Vector_95" d="M310.8 120.1l.3-.6 6.4 3.7-.4.5-6.3-3.6z" fill="#E535AB"/>
            </g>
          </g>
          <path id="Vector_96" d="M318.7 122.7a1.6 1.6 0 10-2.8 1.5 1.6 1.6 0 002.8-1.5z" fill="#E535AB"/>
          <path id="Vector_97" d="M306 130a1.6 1.6 0 10-2.7 1.5 1.6 1.6 0 002.7-1.6z" fill="#E535AB"/>
          <path id="Vector_98" d="M303.3 122.7a1.6 1.6 0 002.7 1.5 1.6 1.6 0 00-2.7-1.5z" fill="#E535AB"/>
          <path id="Vector_99" d="M316 130a1.6 1.6 0 102.7 1.5 1.6 1.6 0 00-2.8-1.6z" fill="#E535AB"/>
          <path id="Vector_100" d="M311 118.2a1.6 1.6 0 100 3.2 1.6 1.6 0 000-3.2z" fill="#E535AB"/>
          <path id="Vector_101" d="M311 132.8a1.6 1.6 0 100 3.2 1.6 1.6 0 000-3.2z" fill="#E535AB"/>
        </g>
      </g>
      <g clip-path="url(#cliphero17)">
        <path id="Ellipse 37_19" d="M282 109.3c.5 11.2-4.8 12.2-10.7 11.9-6-.3-13.5-3.2-13.3-12 .2-8.7 5.9-11.3 10.4-11.2 4.5 0 13.2 0 13.6 11.3z" fill="#fff"/>
        <g id="Group_27">
          <path id="Vector_102" d="M265.8 104h2.5l1.7 2.8 1.6-2.7h2.5l-4.1 7.1-4.2-7.2z" fill="#35495E"/>
          <path id="Vector_103" d="M263.1 104h2.7l4.2 7.2 4.1-7.1h2.7l-6.8 11.7-6.9-11.7z" fill="#41B883"/>
        </g>
      </g>
      <g clip-path="url(#cliphero18)">
        <path id="Ellipse 37_20" d="M306 77.3c.5 11.2-4.8 12.2-10.7 11.9-6-.3-13.5-3.2-13.3-12 .2-8.7 5.9-11.3 10.4-11.2 4.5 0 13.2 0 13.6 11.3z" fill="#fff"/>
        <path id="Vector_104" d="M288 78v6h12V72h-12v6z" fill="#fff"/>
        <path id="Vector_105" d="M288 78v6h12V72h-12v6zm9.7-.5c.3 0 .5.2.7.5l.3.3-.8.6-.1-.1a.7.7 0 00-.6-.4c-.4 0-.6.2-.6.5v.2c.1.2.3.3.8.5.8.4 1.2.6 1.4 1 .3.4.3 1 .1 1.4-.1.5-.6.9-1.3 1h-.9c-.5-.1-.9-.3-1.2-.7l-.3-.4.5-.3.4-.2.5.5c.4.2 1 .2 1.2 0a.5.5 0 000-.7c0-.2-.3-.3-.8-.5a3 3 0 01-1.1-.7l-.4-.6v-.8c.2-.6.6-1 1.3-1.1h.9zm-2.8.5v.5h-1.6V83h-1.1v-4.5h-1.6V78v-.5h4.2v.5z" fill="#007ACC"/>
      </g>
      <g clip-path="url(#cliphero29)">
        <path id="Ellipse 38_4" d="M312 224.6c-.4 12.6 5.4 13.7 12.1 13.4 6.7-.4 15.1-3.6 14.9-13.4-.2-9.8-6.6-12.7-11.6-12.6-5 0-14.9 0-15.4 12.6z" fill="#fff"/>
        <path id="Vector_106" d="M327.9 225.9c-.6 0-1.2.2-1.6.7l-1-.7a2.6 2.6 0 000-1.8l1-.7a2.1 2.1 0 003.7-1.4c0-1.2-1-2-2.1-2a2.1 2.1 0 00-2 2.6l-1 .7c-.5-.5-1-.9-1.7-1v-1.2a2 2 0 001.7-2c0-1.2-1-2.1-2.2-2.1-1.1 0-2 1-2 2a2 2 0 001.6 2.1v1.2a2.7 2.7 0 00-2.3 2.7c0 1.3 1 2.4 2.3 2.6v1.3a2 2 0 00-1.7 2c0 1.1 1 2 2.1 2 1.2 0 2.2-.9 2.2-2a2 2 0 00-1.7-2v-1.3c.6-.1 1.2-.4 1.7-1l1 .8-.1.5c0 1.2 1 2.1 2 2.1 1.3 0 2.2-1 2.2-2 0-1.2-1-2.1-2.1-2.1zm0-5c.5 0 1 .5 1 1 0 .6-.5 1.1-1 1.1a1 1 0 01-1-1c0-.6.4-1 1-1zm-6.2-1.8c0-.6.5-1 1-1 .6 0 1 .4 1 1 0 .5-.4 1-1 1a1 1 0 01-1-1zm2 11.8c0 .6-.4 1-1 1a1 1 0 01-1-1c0-.6.5-1 1-1 .6 0 1 .4 1 1zm-1-4.5c-.8 0-1.4-.7-1.4-1.4 0-.8.6-1.5 1.4-1.5.8 0 1.5.7 1.5 1.5 0 .7-.7 1.4-1.5 1.4zm5.2 2.5a1 1 0 01-1-1c0-.5.4-1 1-1 .5 0 1 .5 1 1 0 .6-.5 1-1 1z" fill="#D6D7EA"/>
      </g>
      <g clip-path="url(#cliphero30)">
        <path id="Ellipse 38_5" d="M364 205.6c-.4 12.6 5.4 13.7 12.1 13.4 6.7-.4 15.1-3.6 14.9-13.4-.2-9.8-6.6-12.7-11.6-12.6-5 0-14.9 0-15.4 12.6z" fill="#fff"/>
        <g id="Group 234">
          <path id="Vector_107" d="M385.5 202.2l-.1-1a3.4 3.4 0 00-1.9-2.4l-1-.4H372.7a6 6 0 00-1.6.2l-.2.1-.7.4-.2.2a3 3 0 00-.7.8 3 3 0 00-.3 1l-.1 1v8l.1 1a3.4 3.4 0 001.9 2.5l1 .3 1 .1h8.5l1-.1c.4 0 .8-.2 1.1-.3a4 4 0 001-.6c.2-.3.4-.5.5-.9l.4-1 .1-1v-7.9z" fill="#F05138"/>
          <path id="Vector_108" d="M380 210.5c-1.5.8-3.5.8-5.6 0-1.6-.6-3-1.7-3.9-3.2l1.5.9c2 .9 4.2.8 5.7 0a29.4 29.4 0 01-6-6c1.6 1.3 3.3 2.5 5.1 3.6a35.8 35.8 0 01-3.6-4.3c1.8 1.7 3.8 3.3 6 4.6l.2.1.2-.4c.4-1.7-.1-3.7-1.3-5.3 2.8 1.7 4.5 4.7 3.8 7.3v.2c1.4 1.7 1 3.5.8 3.1-.8-1.4-2.2-1-3-.6z" fill="#FEFEFE"/>
        </g>
      </g>
      <g clip-path="url(#cliphero19)">
        <path id="Ellipse 37_21" d="M398 168.6c-.3 9.6 4.1 10.4 9.2 10.2 5.1-.3 11.5-2.7 11.3-10.2-.1-7.5-5-9.7-8.8-9.6-3.8 0-11.3 0-11.7 9.6z" fill="#fff"/>
        <g id="AI" fill="#7579FF">
          <path d="M408.1 170l-.8-2.5a8 8 0 01-.3-1 7.5 7.5 0 01-.4 1l-.8 2.4h2.3zm2.8 3h-1.3l-.3-.1-.2-.3-.6-1.5h-3.1l-.6 1.5c0 .1 0 .2-.2.3H403l3.1-7.9h1.7l3.1 8zM413.3 173h-1.6v-8h1.6v8z"/>
        </g>
      </g>
      <g clip-path="url(#cliphero20)">
        <path id="Ellipse 37_22" d="M332.2 165.9c.4 10.8-4.6 11.8-10.4 11.5-5.8-.3-13-3-12.8-11.5.2-8.5 5.7-11 10-10.9 4.3 0 12.8 0 13.2 10.9z" fill="#fff"/>
        <g id="JS" fill="#FFEE52">
          <path d="M319.5 163v4.6a2 2 0 01-.6 1.5 2 2 0 01-1.5.6 2 2 0 01-2.1-2h1.3l.2.6.6.2c.3 0 .4 0 .6-.2l.1-.7V163h1.4zM323.3 169.7c-.5 0-.9-.1-1.3-.3a2 2 0 01-.8-.6l-.4-1h1.5c0 .2 0 .4.2.5.2.2.5.3.8.3.3 0 .5 0 .7-.2l.3-.6-.2-.5-.5-.3-.7-.2-1-.4a2 2 0 01-.8-.6l-.2-1c0-.4 0-.7.3-1 .2-.3.4-.5.8-.6a3 3 0 011.2-.3c.7 0 1.2.2 1.6.5.5.4.7.8.7 1.4h-1.4l-.3-.6a1 1 0 00-.7-.2 1 1 0 00-.6.2c-.2.1-.3.3-.3.6l.2.4.4.3.8.3c.4 0 .8.2 1 .3l.7.6a1.9 1.9 0 01-.8 2.7c-.3.2-.7.3-1.2.3z"/>
        </g>
      </g>
      <g clip-path="url(#cliphero21)">
        <path id="Ellipse 37_23" d="M349.2 86.9c.4 10.8-4.6 11.8-10.4 11.5-5.8-.3-13-3-12.8-11.5.2-8.5 5.7-11 10-10.9 4.3 0 12.8 0 13.2 10.9z" fill="#fff"/>
        <path id="Vector_109" fill-rule="evenodd" clip-rule="evenodd" d="M340.6 82.5a10 10 0 00-2.1-3.8l-.7-.9-.3-.6V77c0 .4-.3.7-.5.9l-.8.8-.7 1.1-.7 1.3-.4 1.2-.4 2.6v1l.2 1.3c.4 1.6 1.3 3 2.4 4.1l.6.6.1.4v.5l.1.6v.4h.1l.2.1.2.1v-2l.2-.2.5-.5.8-.9a7 7 0 001.2-2.3l.2-1a9.6 9.6 0 00-.2-4.6zm-3.3 9l.1-.4v.4z" fill="#4FAA41"/>
      </g>
      <g clip-path="url(#cliphero22)">
        <path id="Ellipse 37_24" d="M295.2 175.9c.4 10.8-4.6 11.8-10.4 11.5-5.8-.3-13-3-12.8-11.5.2-8.5 5.7-11 10-10.9 4.3 0 12.8 0 13.2 10.9z" fill="#fff"/>
        <path id="Vector_110" d="M291.5 180.9l-6.8 3.8v-3l4.2-2.3 2.6 1.5zm.5-.4v-8.1l-2.5 1.4v5.2l2.5 1.5zm-14.7.4l6.8 3.8v-3l-4.3-2.3-2.5 1.5zm-.5-.4v-8.1l2.5 1.4v5.2l-2.5 1.5zm.3-8.7l7-4v3l-4.5 2.5-2.5-1.5zm14.6 0l-7-4v3l4.5 2.5 2.5-1.5z" fill="#8ED6FB"/>
        <path id="Vector_111" d="M284 181l-4.1-2.3v-4.5l4.2 2.4v4.5zm.7 0l4.2-2.3v-4.5l-4.2 2.4v4.5zm-4.5-7.4l4.2-2.3 4.2 2.3-4.2 2.5-4.2-2.5z" fill="#1C78C0"/>
      </g>
      <g clip-path="url(#cliphero23)">
        <path id="Ellipse 37_25" d="M606 152.5c-.5 14.4 6.2 15.7 13.8 15.3 7.7-.4 17.3-4 17-15.3-.1-11.3-7.5-14.6-13.2-14.5-5.8 0-17 0-17.6 14.5z" fill="#fff"/>
        <path id="Vector 319" d="M628.5 148l-7-3-7.5 3 1.5 9 6 3.5 6-3.5 1-9z" fill="#D81480"/>
        <path id="Vector 320" fill-rule="evenodd" clip-rule="evenodd" d="M624 156h1.2l-3.6-8-3.6 8h1.2l.8-2h3.2l.8 2zm-2.4-5.2l.8 2h-1.6l.8-2z" fill="#fff"/>
      </g>
      <g clip-path="url(#cliphero24)">
        <path id="Ellipse 37_26" d="M558 134.5c-.5 14.4 6.2 15.7 13.8 15.3 7.7-.4 17.3-4 17-15.3-.1-11.3-7.5-14.6-13.2-14.5-5.8 0-17 0-17.6 14.5z" fill="#fff"/>
        <path id="Vector_112" fill-rule="evenodd" clip-rule="evenodd" d="M565.3 125h-.5a2.3 2.3 0 00-1.7 1.9l.1.1.5.9.5.7.4.8.7 1 .4.8.7 1.1.8 1.4.7 1.1h.1c.3 0 .6 0 1-.2l1.4-.3.8-.2a665 665 0 003-.7l.8-.2 1.5-.4 1.6-.4h.1l-.5-.7-.4-.6-.5-.6-.4-.7-.5-.6-.4-.6-.5-.7-.2-.3v-.5h.2l.3-.2h.6l.6-.2h.4a674 674 0 011.2-.2l.6-.1.4-.1h.5l.6-.2h.3l.3.1v.1a2.4 2.4 0 00-1.4-1.3h-14.1zm5.6 18l-.7-1.2-.8-1.4-.9-1.5-.8-1.4-.4-1h-.2l-.4.2-.7.1-1.4.4-1.5.4h-.1v3.1l.1.3c0 .3.2.6.4.9a2.4 2.4 0 001.6 1h.2" fill="#FD4F31"/>
        <path id="Vector_113" fill-rule="evenodd" clip-rule="evenodd" d="M563.6 136l1.7-.5.7-.2h.4c.1 0 .1-.1 0-.2l-.2-.4-.7-1.3-.7-1.2-.8-1.3-.6-1.1-.3-.5h-.1v6.7h.6zm17.4 4.8l-.7.2-1.5.6c-.3 0-.5.2-.8.3l-1.7.6-1 .4-.3.1h3.8l.4-.1a2.4 2.4 0 001.6-1.2c.2-.2.2-.5.3-.8v-.1h-.1zm-.3-5.1l-.5-.7-.7-1-.3-.3s0-.1-.1 0l-1.3.2-.8.2-1.5.4-1.4.3-1.6.4-1.5.4-1.4.3-.8.2h-.1v.1l.7 1.1.7 1.3.8 1.4.5.8.5.9.2.2.1.1h.4l1.4-.5 1.1-.3 1.1-.4 1-.4 1.2-.3 1.3-.5 1.3-.4h.1v-.1a2423.7 2423.7 0 010-2.9l-.4-.5zm-.1-8.5a.3.3 0 00-.4-.1h-.2l-.7.2-1 .1-.8.2-1 .2h-.2v.2l.7 1 1 1.2.7 1 .6.9 1.8-.4V128v-.2l-.5-.5zm.5 6l-.8.1.8 1.1v-.4-.8z" fill="#FD4F31"/>
      </g>
      <g clip-path="url(#cliphero25)">
        <path id="Ellipse 37_27" d="M652 96.7c-.4 12.7 5.4 13.8 12.2 13.4 6.7-.3 15.1-3.5 15-13.4-.3-9.9-6.7-12.8-11.8-12.7-5 0-14.9 0-15.4 12.7z" fill="#fff"/>
        <g id="AR" fill="#9494D9">
          <path d="M663.2 98.1l-.8-2.4a9 9 0 01-.3-1 8 8 0 01-.4 1L661 98h2.3zm2.8 3h-1.6l-.2-.3-.6-1.5h-3.1l-.6 1.5c0 .1 0 .2-.2.3h-1.6l3.1-8h1.7l3.1 8zM669.3 97l.7-.1.5-.3.2-.5.1-.5a1 1 0 00-.4-.9c-.2-.2-.6-.3-1.1-.3h-.9V97h.9zm3.9 4.2h-1.5c-.3 0-.5-.1-.6-.3l-1.6-2.5-.2-.2H668.4v3h-1.6v-8h2.5l1.4.1 1 .5c.3.2.4.5.6.8l.1.9a2.5 2.5 0 01-.4 1.4l-.5.5-.7.4a1.5 1.5 0 01.5.5l1.9 2.9z"/>
        </g>
      </g>
      <g clip-path="url(#cliphero26)">
        <path id="Ellipse 37_28" d="M623 36.7c-.4 12.7 5.4 13.8 12.2 13.4 6.7-.3 15.1-3.5 15-13.4-.3-9.9-6.7-12.8-11.8-12.7-5 0-14.9 0-15.4 12.7z" fill="#fff"/>
        <path id="Vector_114" d="M631.4 27.7a10 10 0 1111.2 16.6 10 10 0 01-11.2-16.6z" fill="#fff"/>
        <path id="Vector_115" d="M642.7 38.7c-.7 0-1.3.4-1.8.7-1 .6-1.5.5-1.5.5s.3-1-.1-2.2c-.5-1.3-1.2-1.6-1.1-1.7.2-.4.8-1 1-2.3.2-.7.2-2-.2-2.6l-.6.2-.6-1.3c-.5-.3-1 1.3-1 1.3a2.3 2.3 0 00-1.9.7l-.6.4-.3.5c-.4.8.5 1.8.5 1.8s-1 .7-1.4 1.5a4 4 0 00-.3 2s-.7.5-.7 1.2a2 2 0 00.3 1.3.3.3 0 00.3.1h.1s-.5.5 0 .7c.4.3 1 .4 1.4 0 .3-.2.3-.8.4-1l.2.1.2.2s-.6.2-.4.9c.1.2.4.3 1 .3 0 0 2.1-.1 2.7-.3.1 0 .3 0 .4-.2.9-.3 1.7-.6 2.5-1.1.8-.5 1-.7 1.7-.8.5-.1.5-1-.2-.9z" fill="#2C8EBB"/>
        <path id="Vector_116" d="M637 26a10 10 0 100 20 10 10 0 000-20zm6 14.2a4 4 0 00-1.5.7c-.8.5-1.6.9-2.5 1.1l-.6.3c-.6.2-2.7.3-2.9.3-.7 0-1-.2-1.2-.4-.6.2-1.3.1-1.8-.1a.9.9 0 01-.5-1l-.1-.2c-.3-.5-.4-1-.4-1.6 0-.6.5-1.1.8-1.4 0-.7 0-1.3.3-1.9.2-.6.6-1 1-1.5-.2-.4-.5-1-.2-1.8.2-.5.4-.8.7-.9l.4-.2c.5-.5 1.2-.9 2-1v-.2c.3-.5.5-.8.9-1a.8.8 0 01.7.2s.2.1.6 1h.5a.6.6 0 01.4.2 5.3 5.3 0 01-.7 5.2 4.2 4.2 0 011.1 3.2l.5-.3c.5-.3 1.3-.8 2.2-.8a1 1 0 011.1 1 1 1 0 01-.8 1z" fill="#2C8EBB"/>
      </g>
      <g clip-path="url(#cliphero27)">
        <path id="Ellipse 37_29" d="M415 74.5c-.5 15.5 6.6 16.9 14.8 16.4 8.2-.4 18.4-4.3 18.2-16.4-.3-12-8-15.6-14.2-15.5-6.2 0-18.2 0-18.8 15.5z" fill="#fff"/>
        <g id="Group 235">
          <path id="Vector_117" fill-rule="evenodd" clip-rule="evenodd" d="M433.4 71.3h2.7V74h1.3a6.1 6.1 0 002.7-.7c-.4-.5-.6-1.1-.6-1.7 0-.9 0-2 .7-2.6l.2-.3.4.3c.8.6 1.5 1.5 1.6 2.6a4 4 0 013.1.3l.3.2-.1.4c-.8 1.4-2.4 2-3.9 1.8-2.3 5.7-7.2 8.4-13.3 8.4-3.1 0-6-1.2-7.6-4l-.3-.5a7.6 7.6 0 01-.6-3.9V74h2.3v-2.6h2.7v-2.7h5.2V66h3.2v5.3z" fill="#3A4D54"/>
          <path id="Vector_118" d="M442 72.3c.2-1.4-.9-2.5-1.5-3-.7.8-.9 3 .3 4-.7.6-2 1.1-3.4 1.1h-17a7 7 0 00.8 4l.2.3c0 .2.2.4.4.6h1.9c1.1 0 2 0 2.8-.3h.3c0 .2 0 .3-.2.4h-.3c-.5.2-1.1.3-2 .3H422a8.2 8.2 0 006.4 2.6c5.8 0 10.8-2.6 13-8.4 1.6.1 3-.3 3.7-1.6-1-.6-2.4-.4-3.2 0z" fill="#00AADA"/>
          <path id="Vector_119" d="M442 72.3c.2-1.4-.9-2.5-1.5-3-.7.8-.9 3 .3 4-.7.6-2 1.1-3.4 1.1h-16c0 2.3.8 4 2.3 5 1.1 0 2-.2 2.8-.4h.3c0 .2 0 .3-.2.3l-.3.1a9 9 0 01-2 .3c2 1 4.9 1 8.2-.2 3.7-1.5 7.2-4.2 9.6-7.3h-.1z" fill="#28B8EB"/>
          <path id="Vector_120" d="M420.5 76.2c.1.8.3 1.5.7 2.2l.2.3c0 .2.2.4.4.6h1.9c1.1 0 2 0 2.8-.3h.3c0 .2 0 .3-.2.4h-.3a9 9 0 01-2 .4H422a8.3 8.3 0 006.4 2.5c5 0 9.4-1.9 12-6h-20v-.1z" fill="#028BB8"/>
          <path id="Vector_121" d="M421.6 76.2a5 5 0 002 3.2c1.2 0 2.2-.2 2.9-.4h.3c0 .2 0 .3-.2.3l-.3.1a9 9 0 01-2 .3c2 1 4.9 1 8.2-.2 2-.8 4-2 5.7-3.3h-16.6z" fill="#019BC6"/>
          <path id="Vector_122" fill-rule="evenodd" clip-rule="evenodd" d="M422.8 71.7h2.3V74h-2.3v-2.3zm.2.2h.1v1.9h-.1v-1.9zm.3 0h.2v1.9h-.2v-1.9zm.3 0h.2v1.9h-.2v-1.9zm.4 0h.2v1.9h-.2v-1.9zm.3 0h.2v1.9h-.2v-1.9zm.4 0h.2v1.9h-.2v-1.9zm.7-2.8h2.3v2.3h-2.3V69zm.2.2h.2v1.9h-.2v-2zm.3 0h.2v1.9h-.2v-2zm.4 0h.2v1.9h-.2v-2zm.3 0h.2v1.9h-.2v-2zm.4 0h.2v1.9h-.2v-2zm.3 0h.2v1.9h-.2v-2z" fill="#00ACD3"/>
          <path id="Vector_123" fill-rule="evenodd" clip-rule="evenodd" d="M425.4 71.7h2.3V74h-2.3v-2.3zm.2.2h.2v1.9h-.2v-1.9zm.3 0h.2v1.9h-.2v-1.9zm.4 0h.2v1.9h-.2v-1.9zm.3 0h.2v1.9h-.2v-1.9zm.4 0h.2v1.9h-.2v-1.9zm.3 0h.2v1.9h-.2v-1.9z" fill="#23C2EE"/>
          <path id="Vector_124" fill-rule="evenodd" clip-rule="evenodd" d="M428 71.7h2.3V74H428v-2.3zm.2.2h.2v1.9h-.2v-1.9zm.4 0h.2v1.9h-.2v-1.9zm.3 0h.2v1.9h-.2v-1.9zm.4 0h.1v1.9h-.1v-1.9zm.3 0h.2v1.9h-.2v-1.9zm.4 0h.2v1.9h-.2v-1.9z" fill="#00ACD3"/>
          <path id="Vector_125" fill-rule="evenodd" clip-rule="evenodd" d="M428 69h2.3v2.4H428V69zm.2.3h.2v1.9h-.2v-2zm.4 0h.2v1.9h-.2v-2zm.3 0h.2v1.9h-.2v-2zm.4 0h.1v1.9h-.1v-2zm.3 0h.2v1.9h-.2v-2zm.4 0h.2v1.9h-.2v-2zm.7 2.4h2.3V74h-2.3v-2.3zm.2.2h.2v1.9h-.2v-1.9zm.3 0h.2v1.9h-.2v-1.9zm.4 0h.1v1.9h-.1v-1.9zm.3 0h.2v1.9h-.2v-1.9zm.4 0h.1v1.9h-.1v-1.9zm.3 0h.2v1.9h-.2v-1.9z" fill="#23C2EE"/>
          <path id="Vector_126" fill-rule="evenodd" clip-rule="evenodd" d="M430.7 69h2.3v2.4h-2.3V69zm.2.3h.2v1.9h-.2v-2zm.3 0h.2v1.9h-.2v-2zm.4 0h.1v1.9h-.1v-2zm.3 0h.2v1.9h-.2v-2zm.4 0h.1v1.9h-.1v-2zm.3 0h.2v1.9h-.2v-2z" fill="#00ACD3"/>
          <path id="Vector_127" fill-rule="evenodd" clip-rule="evenodd" d="M430.7 66.4h2.3v2.3h-2.3v-2.3zm.2.2h.2v2h-.2v-2zm.3 0h.2v2h-.2v-2zm.4 0h.1v2h-.1v-2zm.3 0h.2v2h-.2v-2zm.4 0h.1v2h-.1v-2zm.3 0h.2v2h-.2v-2z" fill="#23C2EE"/>
          <path id="Vector_128" fill-rule="evenodd" clip-rule="evenodd" d="M433.3 71.7h2.3V74h-2.3v-2.3zm.2.2h.2v1.9h-.2v-1.9zm.4 0h.1v1.9h-.1v-1.9zm.3 0h.2v1.9h-.2v-1.9zm.4 0h.1v1.9h-.1v-1.9zm.3 0h.2v1.9h-.2v-1.9zm.4 0h.1v1.9h-.1v-1.9z" fill="#00ACD3"/>
          <path id="Vector_129" fill-rule="evenodd" clip-rule="evenodd" d="M427.6 77.7c.3 0 .6.3.6.6 0 .4-.3.7-.6.7a.6.6 0 01-.7-.7c0-.3.3-.6.7-.6z" fill="#D4EEF1"/>
          <path id="Vector_130" fill-rule="evenodd" clip-rule="evenodd" d="M427.6 77.9h.1v.2l.1.2.2-.1v.1a.4.4 0 11-.9 0c0-.2.2-.4.5-.4zm-7.3-1.5h20l.5-.4a3 3 0 01-1.5-.5c-.8 1.1-5.4.7-5.7-.2-1 1.2-4 1.2-5 0-.4.9-5 1.3-5.8.2-.4.4-1.4.7-2.5.6v.3z" fill="#3A4D54"/>
          <path id="Vector_131" d="M429.2 82.3a5.6 5.6 0 01-2.9-2.9c-.6.2-1.3.3-2 .3H422a8.4 8.4 0 006.4 2.6h.7z" fill="#BFDBE0"/>
          <path id="Vector_132" d="M427 80.4a7 7 0 01-.7-1c-.6.2-1.3.3-2 .3a7 7 0 002.6.7z" fill="#D4EEF1"/>
        </g>
      </g>
      <g clip-path="url(#cliphero28)">
        <path id="Ellipse 37_30" d="M560 36.6c-.4 12.6 5.4 13.7 12.1 13.4 6.7-.4 15.1-3.6 14.9-13.4-.2-9.8-6.6-12.7-11.6-12.6-5 0-14.9 0-15.4 12.6z" fill="#fff"/>
        <g id="VR" fill="#7579FF">
          <path d="M574 33l-3.3 8h-1.5l-3.2-8h1.3l.4.1.2.3 1.7 4.6a8.8 8.8 0 01.4 1.2 12 12 0 01.3-1.2l1.7-4.6.2-.3.4-.1h1.3zM577.2 36.8l.6-.1c.2 0 .4-.2.5-.3.2-.1.2-.3.3-.4v-.6a1 1 0 00-.3-.8c-.2-.2-.6-.3-1.1-.3h-.9v2.5h.9zM581 41h-1.5c-.2 0-.5-.1-.6-.3l-1.5-2.5-.2-.2H576.3v3h-1.6v-8h2.5c.5 0 1 0 1.4.2.4 0 .7.2 1 .5l.5.7.2 1a2.4 2.4 0 01-.4 1.3l-.6.5-.7.4a1.6 1.6 0 01.6.5L581 41z"/>
        </g>
      </g>
    </g>
  </g>
  <defs>
    <linearGradient id="paint0_linear" x1="616.5" y1="239.5" x2="476" y2="290.5" gradientUnits="userSpaceOnUse">
      <stop stop-color="#fff" stop-opacity="0"/>
      <stop offset="1" stop-color="#EEF"/>
    </linearGradient>
    <linearGradient id="paint1_linear" x1="616.5" y1="239.5" x2="476" y2="290.5" gradientUnits="userSpaceOnUse">
      <stop stop-color="#fff" stop-opacity="0"/>
      <stop offset="1" stop-color="#EEF"/>
    </linearGradient>
    <linearGradient id="paint2_linear" x1="616.5" y1="239.5" x2="476" y2="290.5" gradientUnits="userSpaceOnUse">
      <stop stop-color="#fff" stop-opacity="0"/>
      <stop offset="1" stop-color="#EEF"/>
    </linearGradient>
    <linearGradient id="paint3_linear" x1="616.5" y1="239.5" x2="476" y2="290.5" gradientUnits="userSpaceOnUse">
      <stop stop-color="#fff" stop-opacity="0"/>
      <stop offset="1" stop-color="#EEF"/>
    </linearGradient>
    <linearGradient id="paint4_linear" x1="698.5" y1="2.5" x2="602.5" y2="119.9" gradientUnits="userSpaceOnUse">
      <stop stop-color="#E8EAFF"/>
      <stop offset="1" stop-color="#D0D3EC"/>
    </linearGradient>
    <linearGradient id="paint5_linear" x1="439.5" y1="15.5" x2="343.5" y2="132.9" gradientUnits="userSpaceOnUse">
      <stop stop-color="#E8EAFF"/>
      <stop offset="1" stop-color="#D0D3EC"/>
    </linearGradient>
    <linearGradient id="paint6_linear" x1="368.9" y1="198.4" x2="367.8" y2="122.1" gradientUnits="userSpaceOnUse">
      <stop stop-color="#fff" stop-opacity=".1"/>
      <stop offset="1" stop-color="#E6E6FF"/>
    </linearGradient>
    <linearGradient id="paint7_linear" x1="206.5" y1="132.5" x2="147.6" y2="214.5" gradientUnits="userSpaceOnUse">
      <stop stop-color="#E8EAFF"/>
      <stop offset="1" stop-color="#D0D3EC"/>
    </linearGradient>
    <linearGradient id="paint8_linear" x1="347" y1="213.2" x2="251.1" y2="330.7" gradientUnits="userSpaceOnUse">
      <stop stop-color="#E8EAFF"/>
      <stop offset="1" stop-color="#D0D3EC"/>
    </linearGradient>
    <linearGradient id="paint9_linear" x1="350.2" y1="69.6" x2="254.3" y2="187" gradientUnits="userSpaceOnUse">
      <stop stop-color="#E8EAFF"/>
      <stop offset="1" stop-color="#D0D3EC"/>
    </linearGradient>
    <linearGradient id="paint10_linear" x1="145.5" y1="137.1" x2="188.9" y2="157.7" gradientUnits="userSpaceOnUse">
      <stop stop-color="#fff" stop-opacity="0"/>
      <stop offset="1" stop-color="#EEF"/>
    </linearGradient>
    <linearGradient id="paint11_linear" x1="521.9" y1="65.2" x2="521.9" y2="75.9" gradientUnits="userSpaceOnUse">
      <stop stop-color="#0994DC"/>
      <stop offset=".3" stop-color="#66CEF5"/>
      <stop offset=".8" stop-color="#127BCA"/>
      <stop offset="1" stop-color="#127BCA"/>
    </linearGradient>
    <linearGradient id="paint12_linear" x1="522.3" y1="64.8" x2="522.3" y2="75.9" gradientUnits="userSpaceOnUse">
      <stop stop-color="#0E76BC"/>
      <stop offset=".4" stop-color="#36AEE8"/>
      <stop offset=".8" stop-color="#00ADEF"/>
      <stop offset="1" stop-color="#00ADEF"/>
    </linearGradient>
    <linearGradient id="paint13_linear" x1="524.5" y1="73.5" x2="524.5" y2="64.7" gradientUnits="userSpaceOnUse">
      <stop stop-color="#1C63B7"/>
      <stop offset=".5" stop-color="#33BDF2"/>
      <stop offset="1" stop-color="#33BDF2" stop-opacity=".4"/>
    </linearGradient>
    <linearGradient id="paint14_linear" x1="523.9" y1="63.7" x2="523.9" y2="75.2" gradientUnits="userSpaceOnUse">
      <stop stop-color="#166AB8"/>
      <stop offset=".4" stop-color="#36AEE8"/>
      <stop offset=".8" stop-color="#0798DD"/>
      <stop offset="1" stop-color="#0798DD"/>
    </linearGradient>
    <linearGradient id="paint15_linear" x1="523.1" y1="63.8" x2="523.1" y2="76" gradientUnits="userSpaceOnUse">
      <stop stop-color="#124379"/>
      <stop offset=".4" stop-color="#1487CB"/>
      <stop offset=".8" stop-color="#165197"/>
      <stop offset="1" stop-color="#165197"/>
    </linearGradient>
    <linearGradient id="paint16_linear" x1="518" y1="67.4" x2="519.8" y2="67.4" gradientUnits="userSpaceOnUse">
      <stop stop-color="#33BDF2" stop-opacity=".7"/>
      <stop offset="1" stop-color="#1DACD8"/>
    </linearGradient>
    <linearGradient id="paint17_linear" x1="531.1" y1="73.3" x2="531.1" y2="64.7" gradientUnits="userSpaceOnUse">
      <stop stop-color="#136AB4"/>
      <stop offset=".6" stop-color="#59CAF5" stop-opacity=".5"/>
      <stop offset="1" stop-color="#59CAF5" stop-opacity=".2"/>
    </linearGradient>
    <linearGradient id="paint18_linear" x1="511.9" y1="69.4" x2="518.3" y2="69.4" gradientUnits="userSpaceOnUse">
      <stop stop-color="#05A1E6" stop-opacity=".2"/>
      <stop offset="1" stop-color="#05A1E6"/>
    </linearGradient>
    <linearGradient id="paint19_linear" x1="515.6" y1="73.5" x2="515.6" y2="64.8" gradientUnits="userSpaceOnUse">
      <stop stop-color="#318ED5"/>
      <stop offset="1" stop-color="#38A7E4"/>
    </linearGradient>
    <linearGradient id="paint20_linear" x1="516.1" y1="73.5" x2="516.1" y2="65" gradientUnits="userSpaceOnUse">
      <stop stop-color="#05A1E6"/>
      <stop offset="1" stop-color="#05A1E6" stop-opacity=".5"/>
    </linearGradient>
    <linearGradient id="paint21_linear" x1="516.6" y1="74" x2="516.6" y2="66.8" gradientUnits="userSpaceOnUse">
      <stop stop-color="#1959A6"/>
      <stop offset=".5" stop-color="#05A1E6"/>
      <stop offset=".9" stop-color="#7EC5EA"/>
      <stop offset="1" stop-color="#7EC5EA"/>
    </linearGradient>
    <linearGradient id="paint22_linear" x1="516.8" y1="73.5" x2="515.4" y2="65.7" gradientUnits="userSpaceOnUse">
      <stop stop-color="#165096"/>
      <stop offset="1" stop-color="#0D82CA"/>
    </linearGradient>
    <linearGradient id="paint23_linear" x1="529.6" y1="69.1" x2="529.6" y2="65" gradientUnits="userSpaceOnUse">
      <stop stop-color="#05A1E6"/>
      <stop offset=".9" stop-color="#0495D6"/>
      <stop offset="1" stop-color="#0495D6"/>
    </linearGradient>
    <linearGradient id="paint24_linear" x1="531.6" y1="64.7" x2="529.9" y2="74" gradientUnits="userSpaceOnUse">
      <stop stop-color="#38A7E4" stop-opacity=".3"/>
      <stop offset="1" stop-color="#0E88D3"/>
      <stop offset="1" stop-color="#0E88D3"/>
    </linearGradient>
    <linearGradient id="paint25_linear" x1="530" y1="65" x2="530" y2="73.9" gradientUnits="userSpaceOnUse">
      <stop stop-color="#168CD4"/>
      <stop offset=".5" stop-color="#1C87CC"/>
      <stop offset="1" stop-color="#154B8D"/>
    </linearGradient>
    <linearGradient id="paint26_linear" x1="517.9" y1="64.1" x2="528.3" y2="68.4" gradientUnits="userSpaceOnUse">
      <stop stop-color="#97D6EE"/>
      <stop offset=".7" stop-color="#55C1EA"/>
      <stop offset="1" stop-color="#55C1EA"/>
    </linearGradient>
    <linearGradient id="paint27_linear" x1="520.8" y1="66.6" x2="529" y2="62.9" gradientUnits="userSpaceOnUse">
      <stop stop-color="#7ACCEC"/>
      <stop offset="1" stop-color="#3FB7ED"/>
    </linearGradient>
    <linearGradient id="paint28_linear" x1="528.8" y1="65.5" x2="528.8" y2="74.2" gradientUnits="userSpaceOnUse">
      <stop stop-color="#1DA7E7"/>
      <stop offset="1" stop-color="#37ABE7" stop-opacity="0"/>
    </linearGradient>
    <clipPath id="clip0">
      <path transform="matrix(-1 0 0 1 540.1 100)" fill="#fff" d="M0 0h36.1v34.9H0z"/>
    </clipPath>
    <clipPath id="clip1">
      <path fill="#fff" d="M441 119h36.8v35.5H441z"/>
    </clipPath>
    <clipPath id="clip2">
      <path transform="matrix(-1 0 0 1 160.4 50)" fill="#fff" d="M0 0h23.4v22.6H0z"/>
    </clipPath>
    <clipPath id="clip3">
      <path transform="matrix(-1 0 0 1 126.4 80)" fill="#fff" d="M0 0h23.4v22.6H0z"/>
    </clipPath>
    <clipPath id="clip4">
      <path fill="#fff" d="M204 71h23.8v23H204z"/>
    </clipPath>
    <clipPath id="clip5">
      <path fill="#fff" d="M149 91h23.8v23H149z"/>
    </clipPath>
    <clipPath id="clip6">
      <path fill="#fff" d="M180 43h23.8v23H180z"/>
    </clipPath>
    <clipPath id="clip7">
      <path transform="matrix(-1 0 0 1 77.7 207)" fill="#fff" d="M0 0h18.7v18.1H0z"/>
    </clipPath>
    <clipPath id="clip8">
      <path transform="matrix(-1 0 0 1 56.7 170)" fill="#fff" d="M0 0h18.7v18.1H0z"/>
    </clipPath>
    <clipPath id="clip9">
      <path transform="matrix(-1 0 0 1 36.6 208)" fill="#fff" d="M0 0h18.6v18H0z"/>
    </clipPath>
    <clipPath id="clip10">
      <path transform="matrix(-1 0 0 1 91.7 145)" fill="#fff" d="M0 0h22.7v21.9H0z"/>
    </clipPath>
    <clipPath id="clip11">
      <path transform="matrix(-1 0 0 1 60.7 127)" fill="#fff" d="M0 0h22.7v21.9H0z"/>
    </clipPath>
    <clipPath id="clip12">
      <path fill="#fff" d="M117.1 250.1H136v18.2h-18.9z"/>
    </clipPath>
    <clipPath id="clip13">
      <path fill="#fff" d="M153 241h23.1v22.3H153z"/>
    </clipPath>
    <clipPath id="clip14">
      <path fill="#fff" d="M188 250h23.1v22.3H188z"/>
    </clipPath>
    <clipPath id="clip15">
      <path fill="#fff" d="M106.5 275.3h16.2V291h-16.2z"/>
    </clipPath>
    <clipPath id="clip16">
      <path transform="matrix(-1 0 0 1 323 115.8)" fill="#fff" d="M0 0h24.1v23.2H0z"/>
    </clipPath>
    <clipPath id="clip17">
      <path transform="matrix(-1 0 0 1 282 98)" fill="#fff" d="M0 0h24.1v23.2H0z"/>
    </clipPath>
    <clipPath id="clip18">
      <path transform="matrix(-1 0 0 1 306 66)" fill="#fff" d="M0 0h24.1v23.2H0z"/>
    </clipPath>
    <clipPath id="clip19">
      <path transform="matrix(-1 0 0 1 418.5 159)" fill="#fff" d="M0 0h20.5v19.8H0z"/>
    </clipPath>
    <clipPath id="clip20">
      <path fill="#fff" d="M309 155h23.2v22.4H309z"/>
    </clipPath>
    <clipPath id="clip21">
      <path fill="#fff" d="M326 76h23.2v22.4H326z"/>
    </clipPath>
    <clipPath id="clip22">
      <path fill="#fff" d="M272 165h23.2v22.4H272z"/>
    </clipPath>
    <clipPath id="clip23">
      <path transform="matrix(-1 0 0 1 636.9 138)" fill="#fff" d="M0 0h30.9v29.8H0z"/>
    </clipPath>
    <clipPath id="clip24">
      <path transform="matrix(-1 0 0 1 588.9 120)" fill="#fff" d="M0 0h30.9v29.8H0z"/>
    </clipPath>
    <clipPath id="clip25">
      <path transform="matrix(-1 0 0 1 679.1 84)" fill="#fff" d="M0 0h27.1v26.2H0z"/>
    </clipPath>
    <clipPath id="clip26">
      <path transform="matrix(-1 0 0 1 650.1 24)" fill="#fff" d="M0 0h27.1v26.2H0z"/>
    </clipPath>
    <clipPath id="clip27">
      <path transform="matrix(-1 0 0 1 448 59)" fill="#fff" d="M0 0h33v32H0z"/>
    </clipPath>
    <clipPath id="clip28">
      <path transform="matrix(-1 0 0 1 587 24)" fill="#fff" d="M0 0h27v26H0z"/>
    </clipPath>
    <filter id="filter0_f" x="473.2" y="310.7" width="77.8" height="62.8" filterUnits="userSpaceOnUse" color-interpolation-filters="sRGB">
      <feFlood flood-opacity="0" result="BackgroundImageFix"/>
      <feBlend in="SourceGraphic" in2="BackgroundImageFix" result="shape"/>
      <feGaussianBlur stdDeviation="11" result="effect1_foregroundBlur"/>
    </filter>
    <filter id="filter1_d" x="477" y="166" width="174.3" height="119.7" filterUnits="userSpaceOnUse" color-interpolation-filters="sRGB">
      <feFlood flood-opacity="0" result="BackgroundImageFix"/>
      <feColorMatrix in="SourceAlpha" values="0 0 0 0 0 0 0 0 0 0 0 0 0 0 0 0 0 0 127 0"/>
      <feOffset dy="24"/>
      <feGaussianBlur stdDeviation="17"/>
      <feColorMatrix values="0 0 0 0 0.772083 0 0 0 0 0.777649 0 0 0 0 0.85 0 0 0 0.3 0"/>
      <feBlend in2="BackgroundImageFix" result="effect1_dropShadow"/>
      <feBlend in="SourceGraphic" in2="effect1_dropShadow" result="shape"/>
    </filter>
    <filter id="filter2_d" x="299" y="223" width="150.6" height="93.2" filterUnits="userSpaceOnUse" color-interpolation-filters="sRGB">
      <feFlood flood-opacity="0" result="BackgroundImageFix"/>
      <feColorMatrix in="SourceAlpha" values="0 0 0 0 0 0 0 0 0 0 0 0 0 0 0 0 0 0 127 0"/>
      <feOffset dy="4"/>
      <feGaussianBlur stdDeviation="17"/>
      <feColorMatrix values="0 0 0 0 0.772083 0 0 0 0 0.777649 0 0 0 0 0.85 0 0 0 0.6 0"/>
      <feBlend in2="BackgroundImageFix" result="effect1_dropShadow"/>
      <feBlend in="SourceGraphic" in2="effect1_dropShadow" result="shape"/>
    </filter>
    <filter id="filter3_d" x="14" y="224" width="119" height="86" filterUnits="userSpaceOnUse" color-interpolation-filters="sRGB">
      <feFlood flood-opacity="0" result="BackgroundImageFix"/>
      <feColorMatrix in="SourceAlpha" values="0 0 0 0 0 0 0 0 0 0 0 0 0 0 0 0 0 0 127 0"/>
      <feOffset dy="4"/>
      <feGaussianBlur stdDeviation="17"/>
      <feColorMatrix values="0 0 0 0 0.772083 0 0 0 0 0.777649 0 0 0 0 0.85 0 0 0 0.6 0"/>
      <feBlend in2="BackgroundImageFix" result="effect1_dropShadow"/>
      <feBlend in="SourceGraphic" in2="effect1_dropShadow" result="shape"/>
    </filter>
    <filter id="filter4_d" x="98" y="263" width="125" height="86" filterUnits="userSpaceOnUse" color-interpolation-filters="sRGB">
      <feFlood flood-opacity="0" result="BackgroundImageFix"/>
      <feColorMatrix in="SourceAlpha" values="0 0 0 0 0 0 0 0 0 0 0 0 0 0 0 0 0 0 127 0"/>
      <feOffset dy="4"/>
      <feGaussianBlur stdDeviation="17"/>
      <feColorMatrix values="0 0 0 0 0.772083 0 0 0 0 0.777649 0 0 0 0 0.85 0 0 0 0.6 0"/>
      <feBlend in2="BackgroundImageFix" result="effect1_dropShadow"/>
      <feBlend in="SourceGraphic" in2="effect1_dropShadow" result="shape"/>
    </filter>
    <filter id="filter5_d" x="126" y="114" width="130" height="87" filterUnits="userSpaceOnUse" color-interpolation-filters="sRGB">
      <feFlood flood-opacity="0" result="BackgroundImageFix"/>
      <feColorMatrix in="SourceAlpha" values="0 0 0 0 0 0 0 0 0 0 0 0 0 0 0 0 0 0 127 0"/>
      <feOffset dy="24"/>
      <feGaussianBlur stdDeviation="17"/>
      <feColorMatrix values="0 0 0 0 0.772083 0 0 0 0 0.777649 0 0 0 0 0.85 0 0 0 0.3 0"/>
      <feBlend in2="BackgroundImageFix" result="effect1_dropShadow"/>
      <feBlend in="SourceGraphic" in2="effect1_dropShadow" result="shape"/>
    </filter>
  </defs>
</svg>
