<svg width="702" height="501" fill="none" xmlns="http://www.w3.org/2000/svg">
  <path d="M460 59c0-10 7-18 16-20L679 4c12-2 23 8 23 20v453c0 12-11 22-23 20l-203-35c-9-2-16-10-16-20V59z" fill="#1D1E4F"/>
  <path d="M460 59c0-10 7-18 16-20L679 4c12-2 23 7 23 20v453c0 12-11 21-23 19l-203-35c-9-1-16-10-16-19V59zM264 94c0-9 6-17 16-19l124-26c12-3 24 7 24 19v363c0 12-12 22-24 19l-124-26c-10-2-16-10-16-19V94zM9 152c0-9 6-17 15-19l54-15c13-3 25 7 25 20v239c0 13-12 23-25 19l-54-14c-9-3-15-11-15-20V152zM117 278c0-11 9-20 20-20h85c11 0 20 9 20 20v121c0 12-11 21-23 19l-86-15c-9-1-16-10-16-19V278zM117 125c0-9 6-17 16-19l86-17c12-3 23 6 23 19v113c0 11-9 20-20 20h-85c-11 0-20-9-20-20v-96z" fill="#1D1E4F"/>
  <clipPath id="heromask0">
    <path d="M460 59c0-10 7-18 16-20L679 4c12-2 23 7 23 20v453c0 12-11 21-23 19l-203-35c-9-1-16-10-16-19V59z" fill="#1D1E4F"/>
  </clipPath>
  <g clip-path="url(#heromask0)">
    <path d="M513 431l1 4a45 45 0 0010-12l3-6c-14 0-21-11-12-13 7-1 12 7 13 12a55 55 0 004-13c-5 0-14-1-12-10 2-8 9 2 12 8l1-8c-6-23 9-28 9-15 0 11-6 15-9 15a59 59 0 01-3 16c4-6 12-16 18-9 9 9-12 15-18 11a55 55 0 01-6 12c2-3 18-12 20-2s-17 9-22 6l-8 8-1-4-7-11c3 4-21 10-19 0 2-8 13-5 18-2l-4-9c-5 5-26-1-20-8 6-5 15 2 19 6a119 119 0 01-4-10c-6 0-18-4-16-14 3-13 18 7 16 14l1 2c0-3 2-10 8-10 7 0 1 9-8 10l3 8c0-3 0-9 5-9s2 11-4 11a135 135 0 0012 22 206 206 0 01-3-46c-9 3-10-3-10-7 7 0 9 5 10 7l1-5c-3-2-7-9 1-17 3 2 8 9-1 17l-1 5-1 8c0-3 3-10 11-14 10-5 10 13-11 14 0 12 2 28 4 38z" fill="#191A45"/>
    <path d="M512 436l2-1m19-42l-1 8m1-8c3 0 9-4 9-15 0-13-15-8-9 15zm-19 42l-1-4m1 4l8-8m-11-47c-3-2-7-9 1-17 3 2 8 9-1 17zm0 0l-1 5m3 46l-7-11m7 11c-2-10-4-26-4-38m-13 4l1 2m-1-2c-6 0-18-4-16-14 3-13 18 7 16 14zm9 21c-5-3-16-6-18 2-2 10 22 4 19 0m-1-2l1 2m-1-2l-4-9m-1-2c-4-4-13-11-19-6-6 7 15 13 20 8m-1-2l1 2m-1-2c0-3 0-9 5-9s2 11-4 11m-1-2l-3-8m27 24c2-3 18-12 20-2s-17 9-22 6m2-4l-2 4m2-4l3-6m3-8c4-6 12-16 18-9 9 9-12 15-18 11m0-2v2m0-2l2-6m-2 8l-2 5m0 0c-1-5-6-13-13-12-9 2-2 13 12 13m1-1l-1 1m5-14c-5 0-14-1-12-10 2-8 9 2 12 8m0 2v-2m-23-8c0-3 3-10 11-14 10-5 10 13-11 14zm0 0l1-8m-13 14c0-3 2-10 8-10 7 0 1 9-8 10zm13-14c-1-2-3-7-10-7 0 4 1 10 10 7z" stroke="#191A45"/>
    <rect x="498.1" y="431.8" width="33.6" height="49.2" rx="3.9" fill="#22245F"/>
    <path d="M662 460c-1-4-12-11-15-12 1-6 4-16 10-10 7 9 12 11 14 15 1 5-5 20-7 20-3 0 0-10-2-13zM625 460c-1-4-13-11-15-12 1-6 4-16 10-10 7 9 12 11 13 15 2 5-4 20-7 20s0-10-1-13z" fill="#F4A392"/>
    <path d="M655 453c-2 0-114-48-89-82 9-10 64-17 64-17l3 20-31 4s17 0 31 28c10 21 24 30 29 36 1 2 2 5 0 8s-4 3-7 3z" fill="#292C6B"/>
    <path d="M685 349l1 3c4 15 2 31-20 43-15 8-66 0-66 0-1 14 37 50 28 57-2 2-4 4-9 2-6-1-35-28-44-42-10-14-20-29-10-40 11-13 43-12 71-18 13 2 38-2 49-5z" fill="#363983"/>
    <path d="M580 299c3 1 9 1 8-3v-4c0-6-3-16-5-19s-1 5-1 7-4-4-10-4-8 0-6 5 8 8 9 10l5 8z" fill="#E6836E"/>
    <path d="M618 323c6 0 12-54 17-56 5-1 6 56 6 56s-7 25-21 26c-13 0-38-45-39-49-2-5 5-10 8-7 2 4 24 30 29 30z" fill="#E6836E"/>
    <path d="M683 280c-6-13-21-21-23-24-4-2-12-2-20 5-16 12-16 47-18 64s-20 33-14 38c7 5 49 10 60 9s12 17 21 6c8-12 2-82-6-98z" fill="#2F3176"/>
    <path d="M640 264c-1 3-4 15 0 15l20-20v-6l1-11-19 8-2 14z" fill="#E6836E"/>
    <path d="M642 259c10 1 17-5 20-8 4 0 5-3 5-7l1-16-35-10c2 1 5 6 4 16-2 12-1 24 5 25z" fill="#F4A392"/>
    <path d="M635 230l2 5c-1-6 1-8 2-8 3 4 11 5 15 4-1 7 3 10 5 10l1 4c1-1 2-4 4-4 3 0 3 2 3 3 11-10 6-18 3-21 0-13-18-15-26-9-7 4-14 2-16 0-1 5 2 8 4 10l-4-1c0 3 5 6 7 7z" fill="#121334"/>
    <path d="M584 343l13 2 3-7-4-4c-2-2-8-7-12-8s-3 2-2 2l6 4c-1 1-10-3-16 2s8 9 12 9z" fill="#F4A392"/>
    <path d="M596 345c2 1 41 22 56 16 8-3 15-17 20-31-4 0-14 0-24-8l-5 19c-2 0-42-7-45-6-4 1-5 9-2 10z" fill="#F4A392"/>
    <path d="M648 318c0-9 0-24 2-31 5-16 21-14 26-8" stroke="#C7C8EE" stroke-linecap="round" stroke-linejoin="round"/>
    <rect x="670.8" y="395.1" width="3.9" height="111" rx="1.9" fill="#4A4C96"/>
    <rect x="633.4" y="395.1" width="3.9" height="111" rx="1.9" fill="#4A4C96"/>
    <path fill="#4A4C96" d="M636 474h39v4h-39z"/>
    <rect x="623.1" y="391.2" width="65.8" height="7.7" rx="3.9" fill="#5659A5"/>
    <path d="M499 254l11 43-12 13c-1 2-6 3-8 4l-14-53v-6l23-1z" fill="#4A4C96"/>
    <path d="M510 297l-17 16 47 23 13 4v-27l-43-16z" fill="#23255F"/>
    <path d="M473 255h3l17 58 60 27-2 3-62-27-16-61z" fill="#111233"/>
    <g filter="url(#filterhero0_f)">
      <path d="M497 334l30 12-5 5-26-10 1-7z" fill="#000" fill-opacity=".3"/>
    </g>
    <path d="M510 297l-17 16 170-84-153 68z" fill="url(#painthero0_linear)" fill-opacity=".2"/>
    <path d="M476 255l17 58 17-16-11-43-23 1z" fill="url(#painthero1_linear)" fill-opacity=".2"/>
    <path d="M510 297l153-68-164 25 11 43z" fill="url(#painthero2_linear)" fill-opacity=".2"/>
    <path d="M476 255l23-1 164-25-187 26z" fill="url(#painthero3_linear)" fill-opacity=".2"/>
    <path d="M617 195v33c-3-8-19-12-33-12h-49c-16-1-24-8-24-21 0-12 6-19 19-19h64c16 1 23 6 23 19z" fill="#262865"/>
    <rect width="84" height="2" rx="1" transform="matrix(-1 0 0 1 608 188)" fill="#6466C5"/>
    <rect width="67" height="2" rx="1" transform="matrix(-1 0 0 1 608 195)" fill="#6466C5"/>
    <rect width="40" height="2" rx="1" transform="matrix(-1 0 0 1 608 202)" fill="#6466C5"/>
    <path d="M772 176L459 45l14-68h282l17 199z" fill="url(#painthero4_linear)"/>
    <g filter="url(#filterhero1_f)">
      <path d="M495 423l33 13-5 5-29-11 1-7z" fill="#000" fill-opacity=".3"/>
    </g>
  </g>
  <g opacity=".9">
    <clipPath id="heromask1">
      <path d="M264 94c0-9 6-17 16-19l124-26c12-3 24 7 24 19v363c0 12-12 22-24 19l-124-26c-10-2-16-10-16-19V94z" fill="#1D1E4F"/>
    </clipPath>
    <g clip-path="url(#heromask1)">
      <path d="M288 372c-11-2-23-34-16-51 9-15 30-7 33-5 3 1 28 26 31 30 4 4-1 20-1 26-1 5-2 6-5 6l-42-6z" fill="#121334"/>
      <ellipse cx="305.7" cy="420.4" rx="20.5" ry="2.2" transform="rotate(4 306 420)" fill="#1B1C47"/>
      <path fill="#1B1C47" d="M305 374h5v47h-5z"/>
      <path d="M370 409l-5-15c0-2 4-1 4-1l7 8c4 3 8 0 10 0s1 3-1 5c-3 3-13 5-15 3zM352 413c-5-2-7-7-8-9l-4-3c0 5-2 14 1 16 2 1 16 4 19 2s-2-4-8-6z" fill="#F4A392"/>
      <path d="M347 401c0 2 0 7-5 7-3 0-4-11-4-19l2-16-35-4c-3 0 8-13-4-13-10-1-3-14 2-20l18 1 1 9c1 2 18 4 29 5s6 18 3 23l-7 27z" fill="#2E3078"/>
      <path d="M370 390c1 5 2 10-4 9-3-5-11-16-12-20-2-5 2-6 0-18-2-11-29 7-43 9-13 1-21-4-22-14-2-11 5-19 8-22 3-2 14-2 10 3-5 6 1 8 4 8 2 0 33-3 41 0s17 41 18 45z" fill="#363983"/>
      <path d="M283 345c-4-1-7-6-14-7v1c0 16 5 34 13 36 11 2 46 3 49 3s3-1 4-6l-24-2c-6 0-5-2-7-3-2-9-16-22-21-22z" fill="#1B1C47"/>
      <path d="M291 294c1 6 6 16 12 17 11-1 29-8 31-16 2-10-6-12-7-17-2-5 3-4 0-12-4-7-14-13-25-7-10 6-7 18-7 22 1 4-5 5-4 13z" fill="#121334"/>
      <path d="M304 290c-8 0-12 11-14 17 2 9 5 29 4 32s28 12 30 3c2-8 1-3-1-11-1-7 0-11 2-12s6-4 2-16c-4-13-13-14-23-13z" fill="#4C4E9B"/>
      <path d="M331 318l-1-7-8 6c0 3 0 9 3 10s19-5 22-6l16-7c2-1 3-6 1-7-3 0-8 5-9 4v-5c-1-1-2 6-4 7-1 1-14 6-20 5z" fill="#E6836E"/>
      <path d="M310 274c-5 2-2 2-1 6v2l3 4 5 1c7-2 6-14 4-16-1-3-7 2-11 3z" fill="#F4A392"/>
      <path d="M307 291c1 5 6 10 11 9 3 0 2-7 1-9-2-1-2-3-2-4l-5-1-3-4-2 9z" fill="#E6836E"/>
      <rect x="327.7" y="339.5" width="86.3" height="4.4" rx="2.2" fill="#5659A5"/>
      <rect x="336.1" y="340.9" width="4.4" height="85.3" rx="2.2" fill="#5659A5"/>
      <rect x="399.7" y="340.4" width="4.4" height="85.3" rx="2.2" fill="#5659A5"/>
      <path d="M344 338l18-5c3 0 5 4 3 6h-21v-1z" fill="#2E3078"/>
      <path d="M366 314l4-2 26-1c4 0 6 4 4 8l-9 17c0 2-2 3-4 3h-25c-4 0-7-4-5-7l9-18z" fill="#363983"/>
      <ellipse cx="381.4" cy="327.7" rx="2.5" ry="3" transform="rotate(11 381 328)" fill="#6264A5"/>
      <path d="M304 327c-2 0-2-10-2-16-3-4-11-4-11-4-1 1 0 25 4 27s27 0 34-2c5-1 10-3 11-5l-6-3c-3 0-6 6-12 4-5-3-16-2-18-1z" fill="#F4A392"/>
      <path d="M406 278h-73c2 0 11-9 11-14s3-11 7-11h55c5 1 9 6 10 12 0 7-3 13-10 13z" fill="#262865"/>
      <rect x="356" y="259" width="51" height="2" rx="1" fill="#6466C5"/>
      <rect x="356" y="265" width="41" height="2" rx="1" fill="#6466C5"/>
      <rect x="356" y="271" width="24" height="2" rx="1" fill="#6466C5"/>
      <g opacity=".5">
        <path d="M347 135c5 3 37 4 43-1-1-2-7-5-21-4-18 1-22 3-22 5z" fill="#6769B3"/>
        <path d="M371 68v41" stroke="url(#painthero5_linear)"/>
        <path d="M347 135c-2-1-3-4 7-13l17-14 1 1c5 4 21 20 19 24l-1 1c-6 5-38 4-43 1z" fill="#363983"/>
        <path d="M369 130c14-1 20 2 21 4-1 29-6 85-23 86-16-1-19-57-20-85 0-2 4-4 22-5z" fill="url(#painthero6_linear)" fill-opacity=".1"/>
        <path d="M354 122c-10 9-9 12-7 13 0-2 2-3 9-4-6 1 8-15 16-22l-1-1-17 14z" fill="#47499E"/>
      </g>
    </g>
  </g>
  <g opacity=".7">
    <clipPath id="heromask2">
      <path d="M9 152c0-9 6-17 15-19l54-15c13-3 25 7 25 20v239c0 13-12 23-25 19l-54-14c-9-3-15-11-15-20V152z" fill="#1D1E4F"/>
    </clipPath>
    <g clip-path="url(#heromask2)">
      <path d="M317 270L4 140l14-69h282l17 199z" fill="url(#painthero7_linear)"/>
      <path d="M79 298c-1 0-4-1-3-2v-2l3-8v3c0 1 2-2 5-2 2 1 3 1 2 3l-4 4-3 4z" fill="#E6836E"/>
      <path d="M60 306c-2 0 0-8-4-12-3-4-8 10-8 10s4 13 10 14 20-19 21-21-2-4-3-3c-2 1-13 12-16 12z" fill="#E6836E"/>
      <path d="M39 374c0 3-28 34-34 40 0 2 4 4 6 3 1 0 45-25 48-36 2-10-1-36-5-46-3-11-31-4-31 4 0 7 17 32 16 35z" fill="#292C6B"/>
      <path d="M17 396c0 9-3 25 5 25 5 0 8-25 11-38 2-13 13-37 13-49 0-13-29-7-29 0l5 34c0 4-5 18-5 28z" fill="#2F3176"/>
      <path d="M59 303c-4-1-8-1-8 2s3 18 2 32c-3 2-26-2-36-5l1-12c-3 1-3 2-7-3-4-6-1-20 5-31 6-12 17-12 31-7 11 5 12 23 12 24z" fill="#2F3176"/>
      <path d="M43 271c-2 3-7 4-8 4-6 0-8-13-6-17 2-3 13-2 14-1s4 11 0 14z" fill="#F4A392"/>
      <path d="M48 267c0 2-1 1-2 2l-4 4s-2 3-1 5v8l-11-9v-19c0-3 16-2 16-1l2 10zM57 318c0-5-5-2-8-2-10 1-27 2-29 0s3-12 0-11c-2 1-8 1-11-1 0 4-1 14 3 18 5 4 23-1 31 0 7 0 14 1 14-4z" fill="#F4A392"/>
      <path d="M46 277c-5 1-9-5-10-5v-5c0-2-1-4-3-4s1 5 1 6-2 3-4 3c-1 0-5-13-3-19 2-7 11-3 15-3 3 0 2-3 1-4 2 0 7 2 7 7s-8 7-13 8l1 6 9 2c1 2 1 7-1 8z" fill="#121334"/>
      <path d="M93 272H48c1 0 8-7 8-10s2-8 5-8h32c4 0 6 5 6 9s-2 9-6 9z" fill="#262865"/>
      <rect x="65" y="257" width="30" height="2" rx="1" fill="#6466C5"/>
      <rect x="65" y="262" width="25" height="2" rx="1" fill="#6466C5"/>
      <rect x="65" y="267" width="14" height="2" rx="1" fill="#6466C5"/>
    </g>
  </g>
  <g opacity=".8">
    <clipPath id="heromask3">
      <path d="M117 278c0-11 9-20 20-20h85c11 0 20 9 20 20v121c0 12-11 21-23 19l-86-15c-9-1-16-10-16-19V278z" fill="#1D1E4F"/>
    </clipPath>
    <g clip-path="url(#heromask3)">
      <path d="M421 387L107 256l15-68h282l17 199z" fill="url(#painthero8_linear)"/>
      <path d="M159 333c1 5 12 23 16 31l3-13c1-1 4-14 10-16 2 0-4 12-2 20l2 17c-1 3-6 8-11 8-6 1-20-25-24-45 1-1 4-3 6-2z" fill="#292C6B"/>
      <path d="M181 431h41v-56l1-19c20 9-3-19-9-23-7-6-18-4-25 1-8 5-9 25-9 25l1 72z" fill="#2F3176"/>
      <path d="M144 327c2 5 9 7 9 9h6c-1-7-2-11-4-13-1-1-1 3-2 3 0 0-1-4-5-5-3-1-5 2-4 6zM209 406l6-5-1-5h-4l-10 2c-2 2 0 2 0 2l5-1c0 1-6 3-6 8-1 6 7 1 10-1z" fill="#F4A392"/>
      <path d="M230 382c2-1-6-12-14-22-7-10-2-15-2-15 2-2 10 1 15 5 4 5 17 28 13 36-4 9-26 16-27 17-2 1-7-6-6-8s21-12 21-13z" fill="#383B85"/>
      <path d="M222 368a56 56 0 01-9-12l8 18 1-6z" fill="#21245B"/>
      <path fill-rule="evenodd" clip-rule="evenodd" d="M207 325c-2 2-8 5-15 2-4-1-3-9 0-17l1-6 8-1 13 7c0 3-1 8-3 11 0 3-1 4-4 4z" fill="#F4A392"/>
      <path d="M138 311h51c-2 0-9-7-9-10s-2-8-5-8h-37c-3 0-6 5-6 9s2 9 6 9z" fill="#262865"/>
      <rect width="30" height="2" rx="1" transform="matrix(-1 0 0 1 172 296)" fill="#6466C5"/>
      <rect width="25" height="2" rx="1" transform="matrix(-1 0 0 1 172 301)" fill="#6466C5"/>
      <rect width="14" height="2" rx="1" transform="matrix(-1 0 0 1 172 306)" fill="#6466C5"/>
      <path d="M212 303c-8-4-17-2-19 1 3 4 10 15 9 19-2 4-7 5-10 5 1 3-4 6-6 8-1 2-2 10 3 13 19 12 23-21 44 8 9-9-27-31-23-28 4 2 10-6 10-12s-1-9-8-14z" fill="#121334"/>
    </g>
  </g>
  <g opacity=".8">
    <clipPath id="heromask4">
      <path d="M117 125c0-9 6-17 16-19l86-17c12-3 23 6 23 19v113c0 11-9 20-20 20h-85c-11 0-20-9-20-20v-96z" fill="#1D1E4F"/>
    </clipPath>
    <g clip-path="url(#heromask4)">
      <path d="M424 243L111 112l14-68h282l17 199z" fill="url(#painthero9_linear)"/>
      <path d="M166 174l-10 4-2 7 5-1 11-10 4-1h2v-1c0 1 2 2 3 1v-1h2v-1l-3-1c-1-2-5 0-6 1l-6 3zM148 158v-5l-8-2 1 7h7z" fill="#E6836E"/>
      <path fill-rule="evenodd" clip-rule="evenodd" d="M139 151c1 1 4 4 9 5 1 0 2-1 2-3l-2-1h3v-1h1l-1-4v-2l3-7-16 2v7c-1 2 0 3 1 4z" fill="#F4A392"/>
      <path d="M152 143v2l-1-3-7 1c0 3-2 4-3 4v2l-2-2-1 1c-5-4-2-8-1-9 0-5 8-6 12-3 2 2 5 1 7 0l-2 4h1c0 2-2 2-3 3z" fill="#121334"/>
      <path d="M208 236l-3-5-1-2 6-2 3 7-5 2zM181 210l2-8h5l-1 9-6-1z" fill="#F4A392"/>
      <path d="M186 200l16 29 1 2c1 1 8-2 8-2l-15-39c-1-3-4-3-5-3l-19-4-6 17c0 2 7 4 11 5l5-2 4-3z" fill="#262865"/>
      <path d="M178 173l-16 8c-9 9 6 17 9 16l9-5 1 11 8 2a623 623 0 002-35c0-2-11 2-13 3z" fill="#2F3176"/>
      <path d="M138 155l12 3-1 2 8 7c2 3 7 10 7 13 1 2 0 6-1 7l-22 2a25350 25350 0 010-28l-3-6z" fill="#4C4E9B"/>
      <path d="M158 173c-1 1-6-2-11-5l7 11 5 2c4-2 11-11 14-17l-2-2c-3 1-8 6-11 9l-2 2z" fill="#F4A392"/>
      <path d="M171 158v5c0 1 1 2 2 1l5-6h-1l2-2-2 1 1-2-3 3 1-2-1 1-3 2-1-3v2z" fill="#F4A392"/>
      <path d="M170 241h2l-6-40-7 1 11 39zM133 241h-2l5-40 7 1-10 39z" fill="#171843"/>
      <path d="M144 160l13 10-2 5-2 4-9-5c-2-2-6-5-7-10v-4h7z" fill="#4C4E9B"/>
      <path d="M185 149l-1 22 7-2h1l1-1 1-20-1-2h-1l-5 2-2 1z" fill="#3A3C8B"/>
      <path fill-rule="evenodd" clip-rule="evenodd" d="M193 168l-1 1-1-1a4439 4439 0 003-20l-1 9v11z" fill="#23255F"/>
      <path d="M132 154c7 3 14 23 17 32 4-1 20-2 22 1s4 8 0 14c-4 5-32 6-39 2-7-5-9-53 0-49z" fill="#171843"/>
      <path d="M190 171c2-1 2-2 1-2l-20 3-1 3 20-4z" fill="#23255F"/>
      <path d="M195 221c0-3-6-8-8-10-3 0-4-2-5-3l-3 5 11 9c1 1 5 3 5-1zM207 234c1 1 4 0 6-1 2 0 8 1 10 3 3 2 5 4 1 4-5 1-17-1-18-1-2-1-1-6 1-5z" fill="#383B85"/>
      <ellipse rx=".2" ry=".5" transform="matrix(-1 0 0 1 188 148)" fill="#fff"/>
      <path d="M151 132l37 16v1l-46 20c-2-7-11-21-10-27 0-7 6-14 19-10z" fill="url(#painthero10_linear)" fill-opacity=".2"/>
      <path d="M157 181l-5-2c2-2 4-7 4-9l2 1h2v4l-3 6z" fill="#25276A"/>
      <path d="M215 143h-55c2 0 8-7 8-11 0-3 2-8 6-8h41c4 1 7 4 7 9s-2 10-7 10z" fill="#262865"/>
      <rect x="177" y="129" width="39" height="1" rx=".5" fill="#6466C5"/>
      <rect x="177" y="133" width="31" height="2" rx="1" fill="#6466C5"/>
      <rect x="177" y="138" width="18" height="1" rx=".5" fill="#6466C5"/>
    </g>
  </g>
  <g clip-path="url(#cliphero27)">
    <path d="M567 95c-1 14 6 15 14 15s17-4 17-15c0-12-8-15-13-15-6 0-17 0-18 15z" fill="#262865"/>
    <path fill-rule="evenodd" clip-rule="evenodd" d="M583 85c-6 0-10 5-10 10s3 9 7 10l1-1v-1c-3 0-4-2-4-2l-1-1v-1l2 1c1 2 2 1 3 1v-1c-2 0-4-1-4-5l1-3v-3l2 1a9 9 0 016 0l2-1v3l1 3c0 4-2 5-4 5v4l1 1c4-1 7-5 7-10s-4-10-10-10z" fill="#9B9CEA"/>
  </g>
  <g clip-path="url(#cliphero28)">
    <path d="M509 77c-1 14 6 15 14 15s17-4 17-15c0-12-8-15-13-15-6 0-17 0-18 15z" fill="#262865"/>
    <path d="M520 74c1 2 1 7 3 7h1c-2-1-3-5-4-7z" fill="url(#painthero11_linear)"/>
    <path d="M520 74c1 2 2 6 4 7-2-1-2-6-4-8v1z" fill="url(#painthero12_linear)"/>
    <path d="M522 72l-2 1 2-1z" fill="#14559A"/>
    <path d="M526 80l1-1c-1-2-2-7-4-7h-1c3 1 3 6 4 8z" fill="url(#painthero13_linear)"/>
    <path d="M522 72h0z" fill="#3092C4"/>
    <path d="M526 80l-2 1a2 2 0 001 0h1v-1z" fill="#1969BC"/>
    <path d="M522 72c2 1 2 6 4 8-1-2-1-7-4-8z" fill="url(#painthero14_linear)"/>
    <path d="M520 73c2 2 2 7 4 8l2-1c-2-2-2-7-4-8l-2 1z" fill="url(#painthero15_linear)"/>
    <path d="M519 74l-1 2 2-2v-1l-1 1z" fill="url(#painthero16_linear)"/>
    <path d="M520 73v0z" fill="#2B74B1"/>
    <path d="M520 73v0z" fill="#125A9E"/>
    <path d="M533 72c-1 4-3 8-5 9 2 0 4-4 7-9h-2z" fill="url(#painthero17_linear)"/>
    <path d="M518 72c-2 0-5 4-6 9l1-2c1-4 3-6 5-7" fill="url(#painthero18_linear)"/>
    <path d="M519 74l1-1h-1v1zm0-2v1h1l-1-1z" fill="#0D82CA"/>
    <path d="M513 79c2-4 3-6 5-7-2 1-4 3-5 7z" fill="url(#painthero19_linear)"/>
    <path d="M520 73h-1 1z" fill="#127BCA"/>
    <path d="M514 81c2 0 3-1 3-2l1-3-2 4-2 1" fill="url(#painthero20_linear)"/>
    <path d="M514 81l2-1 2-4 1-2c-2 1-3 4-5 7" fill="url(#painthero21_linear)"/>
    <path d="M513 79l-1 2h1v-2" fill="#05A1E6"/>
    <path d="M518 72c-2 1-3 3-5 7v2h1c2-3 3-6 5-7v-1-1h-1" fill="url(#painthero22_linear)"/>
    <path d="M529 74l-1 3 3-5-2 2z" fill="url(#painthero23_linear)"/>
    <path d="M528 80v1c2-1 4-5 5-9-2 5-3 8-5 8z" fill="url(#painthero24_linear)"/>
    <path d="M527 80l1-3-1 2v1" fill="#079AE1"/>
    <path d="M527 80a2 2 0 01-1 1h2l-1-1" fill="#1969BC"/>
    <path d="M523 81a3 3 0 001 0 2 2 0 001 0h-2zm2 0h2-2z" fill="#1E5CB3"/>
    <path d="M527 81h1-1z" fill="#1D60B5"/>
    <path d="M527 79a9 9 0 01-1 1v1l1-1v-1" fill="#175FAB"/>
    <path d="M532 72h-1l-3 5-1 3 1 1v-1c2 0 3-3 5-8h-1z" fill="url(#painthero25_linear)"/>
    <path d="M518 72h1l1 1a2 2 0 00-2-1" fill="#7DCBEC"/>
    <path d="M520 73z" fill="#5EC5ED"/>
    <path d="M518 72h1l1 1 1-1h-3z" fill="url(#painthero26_linear)"/>
    <path d="M521 72l-1 1 1-1h1-1z" fill="url(#painthero27_linear)"/>
    <path d="M528 77l1-3 2-2c-2 0-2 1-3 2l-1 5 1-2z" fill="url(#painthero28_linear)"/>
  </g>
  <g clip-path="url(#cliphero29)">
    <path d="M473 42c-1 14 6 15 14 15s17-4 17-15c0-12-8-15-13-15-6 0-17 0-18 15z" fill="#262865"/>
    <path d="M490 31h-2l-2 2 3 3a2 2 0 012 2l2 3a2 2 0 11-1 2v-2l-2-2v9h-2v-2-7l-1-2-2-3-7 7v2l10 10h2l10-10v-2l-10-10z" fill="#F34F29"/>
  </g>
  <g clip-path="url(#cliphero0)">
    <path d="M540 124c1 17-7 18-16 18-9-1-20-5-20-18s9-17 16-17c6 0 19 0 20 17z" fill="#262865"/>
    <path d="M522 126a2 2 0 100-4 2 2 0 000 4z" fill="#8CFDFF"/>
    <path d="M528 121h-1v-1c1-2 0-3-1-4l-4 2-4-2c-1 1-2 2-1 4v1h-1l-3 3 3 3h1v1c-1 2 0 3 1 4l4-2 4 2c1-1 2-2 1-4v-1h1l3-3-3-3zm-2-4l1 3-1 1-2-1-1-1 3-2zm-2 8v2a20 20 0 01-4 0 18 18 0 01-1-3 23 23 0 011-3 20 20 0 014 0 18 18 0 011 3l-1 1zm2 0v1l-1 1v-1l1-1zm-4 4l-1-1h2l-1 1zm-3-2l-1-1v-1l1 1v1zm-1-4v-1l1-1v1l-1 1zm4-4l1 1a22 22 0 00-2 0l1-1zm3 3v-1l1 1v1l-1-1zm-8-2l1-3 3 2-1 1-2 1-1-1zm-3 4l2-2h1l1 2-1 2c-2 0-3-1-3-2zm4 7l-1-3 1-1 2 1 1 1-3 2zm9-3l-1 3-3-2 1-1 2-1 1 1zm1-2h-1l-1-2 1-2c2 0 3 1 3 2l-2 2z" fill="#8CFDFF"/>
  </g>
  <g clip-path="url(#cliphero1)">
    <path d="M478 143c0 17-8 19-17 18-9 0-20-4-20-18 0-13 9-17 16-17s20 0 21 17z" fill="#262865"/>
    <path d="M455 149s-1 1 1 1h6l1 1c-5 2-12 0-8-2zm0-3v2l8-1 1 1c-7 2-14 0-9-2z" fill="#7579FF"/>
    <path d="M460 141c2 2 0 3 0 3s3-1 2-4c-2-2-3-3 3-6 0 0-9 2-5 7z" fill="#CE368A"/>
    <path d="M467 152l-1 1h-15c-1-1 1-1 1-1h1c-1-1-7 1-3 2 11 2 20-1 17-2zm-11-9s-5 2-2 2h7l4-1-1 1c-5 1-15 1-12-1l4-1zm9 5c5-2 3-5 1-5l-1 1 1-1c3-1 6 4-1 5z" fill="#7579FF"/>
    <path d="M462 128s3 3-3 8c-4 3-1 5 0 7-3-2-4-4-3-6 2-3 7-4 6-9z" fill="#CE368A"/>
    <path d="M456 156c5 0 13-1 13-3l-4 2h-12l3 1z" fill="#7579FF"/>
  </g>
  <g clip-path="url(#cliphero2)">
    <path d="M160 68c1 11-4 12-10 12-6-1-13-4-13-12 0-9 6-11 10-11s13 0 13 11z" fill="#262865"/>
    <path d="M154 71c-2 2-6 2-8 2h-1l4-2c2-1 4-3 4-5l-5 5-4 1c-1-1-1-5 2-6h4l4-3v8zm0-9l-1 1a7 7 0 00-12 5l2 5v-1a1 1 0 110 1 7 7 0 0012-4l-1-7z" fill="#5FB832"/>
  </g>
  <g clip-path="url(#cliphero3)">
    <path d="M126 98c1 11-4 12-10 12-6-1-13-4-13-12 0-9 6-11 10-11s13 0 13 11z" fill="#262865"/>
    <path d="M119 95v-1-1h-1l-1 3v1h1v-1h1c0-1 0 0 0 0l-2 1-1 2-1 3c-1 2-2 2-3 2l-1-1 1-1v1h1l1-4h1v-2l-2-1h-1l1 1 1 2c-1 1-2 2-3 1l-1-1v-1l1 1v1l1-1v-1l-1-2h1l2-1 1 1 1-2 3-1 1 1-1 1z" fill="#D6D7EA"/>
  </g>
  <g clip-path="url(#cliphero4)">
    <path d="M228 89c0 11-5 12-11 12s-13-3-13-12 6-11 10-11c5 0 13 0 14 11z" fill="#262865"/>
    <path d="M210 90h1l1-1-1-1h-1v2zm0-3h1l1 1h1v2h-1l-1 1h-1v2h-2v-6h2zM218 87v6h-1v-3h-2v3h-1v-6h1v2h2v-2h1zM222 90l1-1v-1h-2v2h1zm0-3h1v1h1v2h-1v1h-2v2h-1v-6h2z" fill="#12C8B1"/>
  </g>
  <g clip-path="url(#cliphero5)">
    <path d="M173 109c0 11-5 12-11 12s-13-3-13-12 6-11 10-11c5 0 13 0 14 11z" fill="#262865"/>
    <path d="M168 104l-6-3h-1l-6 3v8l13-7v-1z" fill="#9B4F96"/>
    <path d="M155 112l6 4h1l6-4v-7l-13 7z" fill="#68217A"/>
    <path d="M164 110a3 3 0 110-3l2-1a5 5 0 100 5l-2-1zm1-1l1-1h-1 1v-1 1h1v-1 1h1-1v1h1-1v1h-1v-1 1h-1v-1zm1 0h1v-1h-1v1z" fill="#fff"/>
  </g>
  <g clip-path="url(#cliphero6)">
    <path d="M204 61c0 11-5 12-11 12s-13-3-13-12 6-11 10-11c5 0 13 0 14 11z" fill="#262865"/>
    <path d="M199 56l-6-3h-1l-6 3v8l13-7v-1z" fill="#4F6D9B"/>
    <path d="M186 64l6 4h1l6-4v-7l-13 7z" fill="#214A7A"/>
    <path d="M195 62a3 3 0 110-3l2-1a5 5 0 100 5l-2-1z" fill="#fff"/>
  </g>
  <g clip-path="url(#cliphero7)">
    <path d="M78 223c0 8-4 9-9 9-4 0-10-2-10-9s5-9 8-9c4 0 10 0 11 9z" fill="#262865"/>
    <path d="M66 225h1v-5h1v5l-1 1h-1-1a2 2 0 01-1-1v-5h1v5h1zM74 226h-1l-1-2a8 8 0 01-1 0l-1 2h-1l2-3-2-3h1l2 2 1-2h1l-2 3 2 3z" fill="#CB4B94"/>
  </g>
  <g clip-path="url(#cliphero8)">
    <path d="M57 186c0 8-4 9-9 9-4 0-10-2-10-9s5-9 8-9c4 0 10 0 11 9z" fill="#262865"/>
    <path d="M55 186h1v-1h-1l-1-1-2 1v2l2 1 1-1-2-1 1-1v1h1zM54 186zM50 186v1h-1v-2h1v1zm0-4v2h-1l-1 1v2l1 1h1l1-1v-4l-1-1zM45 184l2 1v2l-2 1-1-1h-1v-2h1l1-1zM42 185l-1-1-2 1v3l1-1v-1l1-1v2l1 1v-3z" fill="#83CD29"/>
  </g>
  <g clip-path="url(#cliphero9)">
    <path d="M37 224c0 8-4 9-9 9-4 0-10-2-10-9s5-9 8-9c4 0 10 0 11 9z" fill="#262865"/>
    <path d="M27 226h1v-5h2v4l-1 1a2 2 0 01-1 1l-1 1-1-1a3 3 0 01-2-1v-5h1v4l1 1h1zM32 227h-1v-6h1v6z" fill="#12C8B1"/>
  </g>
  <g clip-path="url(#cliphero10)">
    <path d="M92 163c0 10-5 11-10 11-6 0-13-3-13-11 0-9 6-11 10-11s12 0 13 11z" fill="#262865"/>
    <path d="M76 155h1v1-1h1v2h-1v-1 1h-1v-2zM79 156h-1v-1h2v2h-1v-1zM81 155l1 1v-1h1v2h-1v-1 1l-1-1v1-2zM83 155h1v1h1v1h-2v-2z" fill="#fff"/>
    <path d="M76 169l-1-11h11l-1 11-5 1-4-1z" fill="#E34E26"/>
    <path d="M80 159v11l4-1 1-10h-5z" fill="#EF662A"/>
    <path d="M77 160v4h5v2l-2 1-1-1v-1h-2l1 2 2 1 3-1 1-4h-5v-1h5v-2h-7z" fill="#fff"/>
    <path d="M80 160h-3v4h3v-1h-1v-1h1v-2zM80 167l-1-1v-1h-2l1 2 2 1v-1z" fill="#EBEBEB"/>
  </g>
  <g clip-path="url(#cliphero11)">
    <path d="M61 145c0 10-5 11-10 11-6 0-13-3-13-11 0-9 6-11 10-11s12 0 13 11z" fill="#262865"/>
    <path d="M45 144h-1v4l1 1 1-1v-4h-1zm7-4l1-1h-1v1a4 4 0 00-4 0v-1h-1l1 1-2 3h8l-2-3zm-4 2v-1l1 1h-1zm4 0h-1 1zm-6 2v5l1 1h1v2l1 1v-3h2v3l1-1v-2h1l1-1v-5h-8zm10 0h-1-1v4l1 1 1-1v-4z" fill="#A4C439"/>
  </g>
  <g clip-path="url(#cliphero34)">
    <path d="M22 179c0 10-4 10-10 10-5 0-11-3-11-10 0-8 5-10 9-10s12 0 12 10z" fill="#262865"/>
    <path d="M18 180l-1-2-1-5h-1l-1 5H9l-1-5H7l-1 5-1 2 6 5 7-5" fill="#FC6D26"/>
    <path d="M11 185l3-7H9l2 7z" fill="#E24329"/>
    <path d="M11 185l-2-7H6l5 7z" fill="#FC6D26"/>
    <path d="M6 178l-1 2 6 5-5-7z" fill="#FCA326"/>
    <path d="M6 178h3l-1-5H7l-1 5z" fill="#E24329"/>
    <path d="M11 185l3-7h3l-6 7z" fill="#FC6D26"/>
    <path d="M17 178l1 2-7 5 6-7z" fill="#FCA326"/>
    <path d="M17 178h-3l1-5h1l1 5z" fill="#E24329"/>
  </g>
  <g clip-path="url(#cliphero12)">
    <path d="M136 266c0 9-4 9-8 9-5 0-11-2-11-9s5-9 8-9c4 0 11 0 11 9z" fill="#262865"/>
    <path d="M123 262l1 8 3 1 3-1v-8h-7zm6 5l-1 2h-3v-2 1h3v-1h-3v-1h3v-1h-4v-1h5v3zm0-6h-1 1v-1h-2v1h1-1v1h2v-1zm-2 0h-1 1v-1h-1v2h1v-1zm-1 0h-1 1v-1h-2v2h2v-1z" fill="#39A0FF"/>
  </g>
  <g clip-path="url(#cliphero13)">
    <path d="M176 259c1 11-4 12-10 11-6 0-13-3-13-11 0-9 6-11 10-11s13 0 13 11z" fill="#262865"/>
    <path fill-rule="evenodd" clip-rule="evenodd" d="M162 263l8 1-3-4-5 3zm9-9l-1 1-2 4s-1 0 0 0l2 5 1-10zm-11 4l2-1h1l2-2 1-2h-1l-2 1-1 1a133 133 0 00-2 1l-1 2h1zm2 0l-1 5 6-4-5-1zm8-4l-4 1 1 4 3-5zm-7 3l4 2-2-4-2 2zm-3 2l-2 4h3l-1-4zm1 3l1-4-2 1 1 3zm9-8h-2l-2-1v2l4-1zm-3-1l4 1-1-2-3 1zm-6 10h-1-1v1h9-3l-4-1zm-3-1l1-3v-1l-1 4zm8-9l2-1h1-3v1z" fill="#D91404"/>
  </g>
  <g clip-path="url(#cliphero14)">
    <path d="M211 268c1 11-4 12-10 11-6 0-13-3-13-11 0-9 6-11 10-11s13 0 13 11z" fill="#262865"/>
    <path d="M198 274l2-2v-2h-2a2 2 0 000 4z" fill="#0ACF83"/>
    <path d="M196 268l2-2h2v4h-2l-2-2z" fill="#A259FF"/>
    <path d="M196 264l2-2h2v4h-2l-2-2z" fill="#F24E1E"/>
    <path d="M200 262h2a2 2 0 110 4h-2v-4z" fill="#FF7262"/>
    <path d="M204 268a2 2 0 11-4 0 2 2 0 014 0z" fill="#1ABCFE"/>
  </g>
  <g clip-path="url(#cliphero15)">
    <path d="M123 290c0 8-4 8-8 8s-9-2-9-8c1-6 4-8 7-8s9 0 10 8z" fill="#262865"/>
    <path d="M108 288h13v5h-13v-5zm1 4h1v-2h1v2h1v-3h-3v3zm3-3v4h2v-1h1v-3h-3zm2 1h1v1h-1v-1zm2-1v3h1v-2h1v2h1v-2h1v2-3h-4z" fill="#CB3837"/>
  </g>
  <g clip-path="url(#cliphero16)">
    <path d="M323 134c0 11-5 12-11 12s-13-3-13-12 6-11 10-11c5 0 14 0 14 11z" fill="#262865"/>
    <path d="M304 130l1-1 7 13h-1l-7-12z" fill="#E535AB"/>
    <path d="M318 131h-14v-1h14v1z" fill="#E535AB"/>
    <path d="M304 130l7-4 1 1-8 4v-1zM310 141l8-4v1l-7 4-1-1z" fill="#E535AB"/>
    <path d="M304 138v-1l8 4-1 1-7-4z" fill="#E535AB"/>
    <path d="M310 142l7-13 1 1-7 12h-1zM305 138h-1v-8h1v8z" fill="#E535AB"/>
    <path d="M318 138h-1v-8h1v8zM311 127l6 3v1l-6-4z" fill="#E535AB"/>
    <path d="M319 130a2 2 0 10-3 1 2 2 0 003-1zM306 137a2 2 0 10-3 2 2 2 0 003-2zM303 130a2 2 0 103 1 2 2 0 00-3-1zM316 137a2 2 0 103 2 2 2 0 00-3-2zM311 125a2 2 0 100 3 2 2 0 000-3zM311 140a2 2 0 100 3 2 2 0 000-3z" fill="#E535AB"/>
  </g>
  <g clip-path="url(#cliphero17)">
    <path d="M282 116c0 12-5 12-11 12s-13-3-13-12c0-8 6-11 10-11 5 0 14 0 14 11z" fill="#262865"/>
    <path d="M266 111h2l2 3 2-3h2l-4 7-4-7z" fill="#35495E"/>
    <path d="M263 111h3l4 7 4-7h3l-7 12-7-12z" fill="#41B883"/>
  </g>
  <g clip-path="url(#cliphero18)">
    <path d="M306 84c0 12-5 12-11 12s-13-3-13-12c0-8 6-11 10-11 5 0 14 0 14 11z" fill="#262865"/>
    <path d="M288 85v6h12V79h-12v6z" fill="#fff"/>
    <path d="M288 85v6h12V79h-12v6zm10 0h1l-1 1a1 1 0 00-1-1v2l2 1v1l-1 1h-1l-2-1h1v-1l1 1h1a1 1 0 000-1h-1l-1-1v-1s-1 0 0 0l1-2 1 1zm-3 0v1h-2v4h-1v-4h-1v-1h4z" fill="#007ACC"/>
  </g>
  <g clip-path="url(#cliphero31)">
    <path d="M312 232c0 12 5 13 12 13s15-4 15-13c0-10-7-13-12-13s-15 0-15 13z" fill="#262865"/>
    <path d="M328 233l-2 1-1-1a3 3 0 000-2l1-1a2 2 0 004-1l-2-2a2 2 0 00-2 3h-1l-2-1v-1l2-2-2-2-2 2 1 2v1l-2 3 2 3v1l-1 2 2 2 2-2-2-2v-1l2-1h1v1l2 2 2-2-2-2zm0-5l1 1-1 1-1-1 1-1zm-6-2l1-1 1 1-1 1-1-1zm2 12l-1 1-1-1 1-1 1 1zm-1-5l-2-1 2-1 1 1-1 1zm5 3l-1-1 1-1 1 1-1 1z" fill="#D6D7EA"/>
  </g>
  <g clip-path="url(#cliphero30)">
    <path d="M364 213c0 12 5 13 12 13s15-4 15-13c0-10-7-13-12-13s-15 0-15 13z" fill="#262865"/>
    <path d="M385 209v-1a3 3 0 00-2-2l-1-1h-9a6 6 0 00-2 1h-1l-1 1v11a3 3 0 002 3h12l1-1 1-1v-1l1-1v-8h-1z" fill="#F05138"/>
    <path d="M380 217l-6 1c-1-1-3-2-3-4l1 1h6a29 29 0 01-6-6l5 4-4-4 6 4h1l-2-5c3 1 5 4 4 7l1 3-3-1z" fill="#FEFEFE"/>
  </g>
  <g clip-path="url(#cliphero19)">
    <path d="M398 176c0 9 4 10 9 10s12-3 12-10c-1-8-5-10-9-10s-12 0-12 10z" fill="#262865"/>
    <path d="M408 177l-1-2a8 8 0 010-2 8 8 0 010 2l-1 2h2zm3 3h-2v-2h-4v2h-2l3-8h2l3 8zM413 180h-1v-8h1v8z" fill="#7579FF"/>
  </g>
  <g clip-path="url(#cliphero20)">
    <path d="M332 173c1 11-4 12-10 11-6 0-13-3-13-11 0-9 6-11 10-11s13 0 13 11z" fill="#262865"/>
    <path d="M319 170v6l-2 1-1-1-1-1h3v-5h1zM323 177l-1-1h-1v-1h2v1l1-1v-1h-1l-1-1h-1v-1-1l1-1h3l1 2h-2v-1h-1-1v1l1 1h2v1l1 1-1 1-2 1z" fill="#FFEE52"/>
  </g>
  <g clip-path="url(#cliphero21)">
    <path d="M349 94c1 11-4 12-10 11-6 0-13-3-13-11 0-9 6-11 10-11s13 0 13 11z" fill="#262865"/>
    <path fill-rule="evenodd" clip-rule="evenodd" d="M341 90l-2-4-1-1v-1h-1v1l-1 1-1 1v1l-1 1v5l3 4v3h1v-2l1-1v-1a7 7 0 002-2v-1a10 10 0 000-4zm-4 9v-1 1z" fill="#4FAA41"/>
  </g>
  <g clip-path="url(#cliphero22)">
    <path d="M295 183c1 11-4 12-10 11-6 0-13-3-13-11 0-9 6-11 10-11s13 0 13 11z" fill="#262865"/>
    <path d="M292 188l-7 4v-3l4-3 3 2zm0-1v-8l-3 2v5l3 1zm-15 1l7 4v-3l-4-3-3 2zm0-1v-8l2 2v5l-2 1zm0-8l7-4v3l-4 2-3-1zm15 0l-7-4v3l4 2 3-1z" fill="#8ED6FB"/>
    <path d="M284 188l-4-2v-5l4 3v4zm1 0l4-2v-5l-4 3v4zm-5-7l4-3 5 3-5 2-4-2z" fill="#1C78C0"/>
  </g>
  <g clip-path="url(#cliphero23)">
    <path d="M606 159c-1 15 6 16 14 16 8-1 17-4 17-16 0-11-8-14-13-14-6 0-17 0-18 14z" fill="#262865"/>
    <path d="M629 155l-7-3-8 3 2 9 6 4 6-4 1-9z" fill="#D81480"/>
    <path fill-rule="evenodd" clip-rule="evenodd" d="M624 163h1l-3-8-4 8h1l1-2h3l1 2zm-2-5v2h-1l1-2z" fill="#fff"/>
  </g>
  <g clip-path="url(#cliphero24)">
    <path d="M558 141c-1 15 6 16 14 16 8-1 17-4 17-16 0-11-8-14-13-14-6 0-17 0-18 14z" fill="#262865"/>
    <path fill-rule="evenodd" clip-rule="evenodd" d="M565 132a2 2 0 00-2 2l1 1v1h1v1l1 1v1l1 2 1 1h1l1-1h1a665 665 0 003-1h2l2-1-1-1v-1h-1v-1h-1v-1-1h2a674 674 0 011-1h3a2 2 0 00-2-1h-14zm6 18l-1-1-1-2v-1l-1-2h-2-1l-2 1v4a2 2 0 002 1" fill="#FD4F31"/>
    <path fill-rule="evenodd" clip-rule="evenodd" d="M564 143h1l1-1s1 0 0 0l-1-2v-1l-1-1-1-1v-1 7h1zm17 5h-1l-1 1h-3l-1 1h4a2 2 0 002-1v-1zm0-5l-1-1-1-1h-2-1l-2 1h-1l-2 1h-2v1l1 2 1 1v1l1 1h2l1-1h1l1-1h3l1-1a2424 2424 0 010-3zm0-9h-1-1-1v1h-2l1 1 1 1 1 1v1h2v-4-1zm0 6h-1l1 1v-1z" fill="#FD4F31"/>
  </g>
  <g clip-path="url(#cliphero25)">
    <path d="M652 104c0 12 5 13 12 13s15-3 15-13-7-13-12-13-15 0-15 13z" fill="#262865"/>
    <path d="M663 105l-1-2a9 9 0 010-1 8 8 0 010 1l-1 2h2zm3 3h-1-1v-2h-4v2h-2l3-8h2l3 8zM669 104h1l1-1-1-1-1-1h-1v3h1zm4 4h-2l-1-3h-2v3h-1v-8h4l1 1v1a2 2 0 010 2h-1v1l2 3z" fill="#9494D9"/>
  </g>
  <g clip-path="url(#cliphero26)">
    <path d="M623 44c0 12 5 13 12 13s15-3 15-13-7-13-12-13-15 0-15 13z" fill="#262865"/>
    <path d="M631 35a10 10 0 1112 16 10 10 0 01-12-16z" fill="#fff"/>
    <path d="M643 46h-2l-2 1v-2l-1-2 1-2v-3h-1v-1l-1 1a2 2 0 00-2 1h-1v3l-1 1v2l-1 1a2 2 0 000 2h1v1h1l1-2v2h4l2-2h2v-1z" fill="#2C8EBB"/>
    <path d="M637 33a10 10 0 100 20 10 10 0 000-20zm6 14l-2 1-2 1h-1l-2 1h-1l-1-1h-2a1 1 0 010-1v-2-1l1-2 1-1-1-2 1-1 2-1 1-1v-1a1 1 0 011 1l1 1c0-1 0-1 0 0a1 1 0 011 0 5 5 0 01-1 5 4 4 0 011 3h1l2-1a1 1 0 011 1 1 1 0 01-1 1z" fill="#2C8EBB"/>
  </g>
  <g clip-path="url(#cliphero33)">
    <path d="M415 82c-1 15 7 16 15 16s18-4 18-16c0-13-8-16-14-16s-18 0-19 16z" fill="#262865"/>
    <path fill-rule="evenodd" clip-rule="evenodd" d="M433 78h3v3h1a6 6 0 003-1v-4h1l1 3h4c-1 2-3 2-4 2-2 6-7 9-13 9-4 0-6-1-8-4v-1l-1-4h2v-3h3v-2h5v-3h3v5z" fill="#3A4D54"/>
    <path d="M442 79l-2-3 1 4-4 1h-17l1 4v1h5l-2 1h-1-1l6 2c6 0 11-2 13-8 2 0 4 0 4-2h-3z" fill="#00AADA"/>
    <path d="M442 79l-2-3 1 4-4 1h-16c0 3 1 4 3 5h2l-2 1c2 1 5 1 9-1 3-1 7-4 9-7z" fill="#28B8EB"/>
    <path d="M421 83v3h5l-2 1h-1-1l7 2c5 0 9-2 11-6h-19z" fill="#028BB8"/>
    <path d="M422 83c0 2 1 3 2 3h2l-2 1c2 1 5 1 8-1l6-3h-16z" fill="#019BC6"/>
    <path fill-rule="evenodd" clip-rule="evenodd" d="M423 79h2v2h-2v-2zm0 0v2-2zm0 0v2-2zm1 0v2-2zm0 0v2-2zm0 0h1v2h-1v-2zm1 0v2-2zm0-3h3v2h-3v-2zm1 0v2-2zm0 0v2-2zm0 0v2-2zm1 0v2-2zm0 0v2-2zm0 0h1v2h-1v-2z" fill="#00ACD3"/>
    <path fill-rule="evenodd" clip-rule="evenodd" d="M425 79h3v2h-3v-2zm1 0v2-2zm0 0v2-2zm0 0v2-2zm1 0v2-2zm0 0v2-2zm0 0h1v2h-1v-2z" fill="#23C2EE"/>
    <path fill-rule="evenodd" clip-rule="evenodd" d="M428 79h2v2h-2v-2zm0 0v2-2zm1 0v2-2zm0 0v2-2zm0 0v2-2zm1 0v2-2zm0 0v2-2z" fill="#00ACD3"/>
    <path fill-rule="evenodd" clip-rule="evenodd" d="M428 76h2v2h-2v-2zm0 0v2-2zm1 0v2-2zm0 0v2-2zm0 0v2-2zm1 0v2-2zm0 0v2-2zm1 3h2v2h-2v-2zm0 0v2-2zm0 0v2-2zm1 0v2-2zm0 0v2-2zm0 0v2-2zm1 0v2-2z" fill="#23C2EE"/>
    <path fill-rule="evenodd" clip-rule="evenodd" d="M431 76h2v2h-2v-2zm0 0v2-2zm0 0v2-2zm1 0v2-2zm0 0v2-2zm0 0v2-2zm1 0v2-2z" fill="#00ACD3"/>
    <path fill-rule="evenodd" clip-rule="evenodd" d="M431 73h2v3h-2v-3zm0 1v2-2zm0 0v2-2zm1 0v2-2zm0 0v2-2zm0 0v2-2zm1 0v2-2z" fill="#23C2EE"/>
    <path fill-rule="evenodd" clip-rule="evenodd" d="M433 79h3v2h-3v-2zm1 0v2-2zm0 0v2-2zm0 0v2-2zm1 0v2-2zm0 0v2-2zm0 0v2-2z" fill="#00ACD3"/>
    <path fill-rule="evenodd" clip-rule="evenodd" d="M428 85v1l-1-1h1z" fill="#D4EEF1"/>
    <path fill-rule="evenodd" clip-rule="evenodd" d="M428 85h-1 1zm-8-2h21l-2-1c-1 2-5 1-5 0h-5c-1 1-5 2-6 0l-3 1z" fill="#3A4D54"/>
    <path d="M429 89l-3-3-2 1h-1-1c1 1 3 2 7 2z" fill="#BFDBE0"/>
    <path d="M427 87l-1-1-2 1h3z" fill="#D4EEF1"/>
  </g>
  <g clip-path="url(#cliphero32)">
    <path d="M560 44c0 12 5 13 12 13s15-4 15-13c0-10-7-13-12-13s-15 0-15 13z" fill="#262865"/>
    <path d="M574 40l-3 8h-2l-3-8h2l2 5a9 9 0 010 1 12 12 0 010-1l2-5h2zM577 44h1v-1h1v-1h-1l-1-1h-1v3h1zm4 4h-2l-2-3h-1v3h-1v-8h4l1 1v1a2 2 0 010 2h-1v1l2 3z" fill="#7579FF"/>
  </g>
  <defs>
    <linearGradient id="painthero0_linear" x1="616.5" y1="239.5" x2="476" y2="290.5" gradientUnits="userSpaceOnUse">
      <stop stop-color="#fff" stop-opacity="0"/>
      <stop offset="1" stop-color="#EEF"/>
    </linearGradient>
    <linearGradient id="painthero1_linear" x1="616.5" y1="239.5" x2="476" y2="290.5" gradientUnits="userSpaceOnUse">
      <stop stop-color="#fff" stop-opacity="0"/>
      <stop offset="1" stop-color="#EEF"/>
    </linearGradient>
    <linearGradient id="painthero2_linear" x1="616.5" y1="239.5" x2="476" y2="290.5" gradientUnits="userSpaceOnUse">
      <stop stop-color="#fff" stop-opacity="0"/>
      <stop offset="1" stop-color="#EEF"/>
    </linearGradient>
    <linearGradient id="painthero3_linear" x1="616.5" y1="239.5" x2="476" y2="290.5" gradientUnits="userSpaceOnUse">
      <stop stop-color="#fff" stop-opacity="0"/>
      <stop offset="1" stop-color="#EEF"/>
    </linearGradient>
    <linearGradient id="painthero4_linear" x1="698.5" y1="2.5" x2="602.5" y2="119.9" gradientUnits="userSpaceOnUse">
      <stop stop-color="#191A45" stop-opacity="0"/>
      <stop offset="1" stop-color="#161741"/>
    </linearGradient>
    <linearGradient id="painthero5_linear" x1="371.2" y1="68" x2="371.2" y2="108.6" gradientUnits="userSpaceOnUse">
      <stop stop-color="#C7C8EE" stop-opacity="0"/>
      <stop offset="1" stop-color="#C7C8EE"/>
    </linearGradient>
    <linearGradient id="painthero6_linear" x1="368.9" y1="198.4" x2="367.8" y2="122.1" gradientUnits="userSpaceOnUse">
      <stop stop-color="#fff" stop-opacity=".1"/>
      <stop offset="1" stop-color="#E6E6FF"/>
    </linearGradient>
    <linearGradient id="painthero7_linear" x1="243.5" y1="97.1" x2="147.6" y2="214.5" gradientUnits="userSpaceOnUse">
      <stop stop-color="#191A45" stop-opacity="0"/>
      <stop offset="1" stop-color="#131438" stop-opacity=".5"/>
    </linearGradient>
    <linearGradient id="painthero8_linear" x1="347" y1="213.2" x2="222.6" y2="319.8" gradientUnits="userSpaceOnUse">
      <stop stop-color="#191A44" stop-opacity="0"/>
      <stop offset="1" stop-color="#16173E" stop-opacity=".6"/>
    </linearGradient>
    <linearGradient id="painthero9_linear" x1="350.2" y1="69.6" x2="254.3" y2="187" gradientUnits="userSpaceOnUse">
      <stop stop-color="#191A45" stop-opacity="0"/>
      <stop offset="1" stop-color="#16173E" stop-opacity=".7"/>
    </linearGradient>
    <linearGradient id="painthero10_linear" x1="145.5" y1="137.1" x2="188.9" y2="157.7" gradientUnits="userSpaceOnUse">
      <stop stop-color="#fff" stop-opacity="0"/>
      <stop offset="1" stop-color="#EEF"/>
    </linearGradient>
    <linearGradient id="painthero11_linear" x1="521.9" y1="72.2" x2="521.9" y2="82.9" gradientUnits="userSpaceOnUse">
      <stop stop-color="#0994DC"/>
      <stop offset=".3" stop-color="#66CEF5"/>
      <stop offset=".8" stop-color="#127BCA"/>
      <stop offset="1" stop-color="#127BCA"/>
    </linearGradient>
    <linearGradient id="painthero12_linear" x1="522.3" y1="71.8" x2="522.3" y2="82.9" gradientUnits="userSpaceOnUse">
      <stop stop-color="#0E76BC"/>
      <stop offset=".4" stop-color="#36AEE8"/>
      <stop offset=".8" stop-color="#00ADEF"/>
      <stop offset="1" stop-color="#00ADEF"/>
    </linearGradient>
    <linearGradient id="painthero13_linear" x1="524.5" y1="80.5" x2="524.5" y2="71.7" gradientUnits="userSpaceOnUse">
      <stop stop-color="#1C63B7"/>
      <stop offset=".5" stop-color="#33BDF2"/>
      <stop offset="1" stop-color="#33BDF2" stop-opacity=".4"/>
    </linearGradient>
    <linearGradient id="painthero14_linear" x1="523.9" y1="70.7" x2="523.9" y2="82.2" gradientUnits="userSpaceOnUse">
      <stop stop-color="#166AB8"/>
      <stop offset=".4" stop-color="#36AEE8"/>
      <stop offset=".8" stop-color="#0798DD"/>
      <stop offset="1" stop-color="#0798DD"/>
    </linearGradient>
    <linearGradient id="painthero15_linear" x1="523.1" y1="70.8" x2="523.1" y2="83" gradientUnits="userSpaceOnUse">
      <stop stop-color="#124379"/>
      <stop offset=".4" stop-color="#1487CB"/>
      <stop offset=".8" stop-color="#165197"/>
      <stop offset="1" stop-color="#165197"/>
    </linearGradient>
    <linearGradient id="painthero16_linear" x1="518" y1="74.4" x2="519.8" y2="74.4" gradientUnits="userSpaceOnUse">
      <stop stop-color="#33BDF2" stop-opacity=".7"/>
      <stop offset="1" stop-color="#1DACD8"/>
    </linearGradient>
    <linearGradient id="painthero17_linear" x1="531.1" y1="80.3" x2="531.1" y2="71.7" gradientUnits="userSpaceOnUse">
      <stop stop-color="#136AB4"/>
      <stop offset=".6" stop-color="#59CAF5" stop-opacity=".5"/>
      <stop offset="1" stop-color="#59CAF5" stop-opacity=".2"/>
    </linearGradient>
    <linearGradient id="painthero18_linear" x1="511.9" y1="76.4" x2="518.3" y2="76.4" gradientUnits="userSpaceOnUse">
      <stop stop-color="#05A1E6" stop-opacity=".2"/>
      <stop offset="1" stop-color="#05A1E6"/>
    </linearGradient>
    <linearGradient id="painthero19_linear" x1="515.6" y1="80.5" x2="515.6" y2="71.8" gradientUnits="userSpaceOnUse">
      <stop stop-color="#318ED5"/>
      <stop offset="1" stop-color="#38A7E4"/>
    </linearGradient>
    <linearGradient id="painthero20_linear" x1="516.1" y1="80.5" x2="516.1" y2="72" gradientUnits="userSpaceOnUse">
      <stop stop-color="#05A1E6"/>
      <stop offset="1" stop-color="#05A1E6" stop-opacity=".5"/>
    </linearGradient>
    <linearGradient id="painthero21_linear" x1="516.6" y1="81" x2="516.6" y2="73.8" gradientUnits="userSpaceOnUse">
      <stop stop-color="#1959A6"/>
      <stop offset=".5" stop-color="#05A1E6"/>
      <stop offset=".9" stop-color="#7EC5EA"/>
      <stop offset="1" stop-color="#7EC5EA"/>
    </linearGradient>
    <linearGradient id="painthero22_linear" x1="516.8" y1="80.5" x2="515.4" y2="72.7" gradientUnits="userSpaceOnUse">
      <stop stop-color="#165096"/>
      <stop offset="1" stop-color="#0D82CA"/>
    </linearGradient>
    <linearGradient id="painthero23_linear" x1="529.6" y1="76.1" x2="529.6" y2="72" gradientUnits="userSpaceOnUse">
      <stop stop-color="#05A1E6"/>
      <stop offset=".9" stop-color="#0495D6"/>
      <stop offset="1" stop-color="#0495D6"/>
    </linearGradient>
    <linearGradient id="painthero24_linear" x1="531.6" y1="71.7" x2="529.9" y2="81" gradientUnits="userSpaceOnUse">
      <stop stop-color="#38A7E4" stop-opacity=".3"/>
      <stop offset="1" stop-color="#0E88D3"/>
      <stop offset="1" stop-color="#0E88D3"/>
    </linearGradient>
    <linearGradient id="painthero25_linear" x1="530" y1="72" x2="530" y2="80.9" gradientUnits="userSpaceOnUse">
      <stop stop-color="#168CD4"/>
      <stop offset=".5" stop-color="#1C87CC"/>
      <stop offset="1" stop-color="#154B8D"/>
    </linearGradient>
    <linearGradient id="painthero26_linear" x1="517.9" y1="71.1" x2="528.3" y2="75.4" gradientUnits="userSpaceOnUse">
      <stop stop-color="#97D6EE"/>
      <stop offset=".7" stop-color="#55C1EA"/>
      <stop offset="1" stop-color="#55C1EA"/>
    </linearGradient>
    <linearGradient id="painthero27_linear" x1="520.8" y1="73.6" x2="529" y2="69.9" gradientUnits="userSpaceOnUse">
      <stop stop-color="#7ACCEC"/>
      <stop offset="1" stop-color="#3FB7ED"/>
    </linearGradient>
    <linearGradient id="painthero28_linear" x1="528.8" y1="72.5" x2="528.8" y2="81.2" gradientUnits="userSpaceOnUse">
      <stop stop-color="#1DA7E7"/>
      <stop offset="1" stop-color="#37ABE7" stop-opacity="0"/>
    </linearGradient>
    <clipPath id="cliphero0">
      <path transform="matrix(-1 0 0 1 540 107)" fill="#fff" d="M0 0h36v35H0z"/>
    </clipPath>
    <clipPath id="cliphero1">
      <path fill="#fff" d="M441 126h37v36h-37z"/>
    </clipPath>
    <clipPath id="cliphero2">
      <path transform="matrix(-1 0 0 1 160 57)" fill="#fff" d="M0 0h23v23H0z"/>
    </clipPath>
    <clipPath id="cliphero3">
      <path transform="matrix(-1 0 0 1 126 87)" fill="#fff" d="M0 0h23v23H0z"/>
    </clipPath>
    <clipPath id="cliphero4">
      <path fill="#fff" d="M204 78h24v23h-24z"/>
    </clipPath>
    <clipPath id="cliphero5">
      <path fill="#fff" d="M149 98h24v23h-24z"/>
    </clipPath>
    <clipPath id="cliphero6">
      <path fill="#fff" d="M180 50h24v23h-24z"/>
    </clipPath>
    <clipPath id="cliphero7">
      <path transform="matrix(-1 0 0 1 78 214)" fill="#fff" d="M0 0h19v18H0z"/>
    </clipPath>
    <clipPath id="cliphero8">
      <path transform="matrix(-1 0 0 1 57 177)" fill="#fff" d="M0 0h19v18H0z"/>
    </clipPath>
    <clipPath id="cliphero9">
      <path transform="matrix(-1 0 0 1 37 215)" fill="#fff" d="M0 0h19v18H0z"/>
    </clipPath>
    <clipPath id="cliphero10">
      <path transform="matrix(-1 0 0 1 92 152)" fill="#fff" d="M0 0h23v22H0z"/>
    </clipPath>
    <clipPath id="cliphero11">
      <path transform="matrix(-1 0 0 1 61 134)" fill="#fff" d="M0 0h23v22H0z"/>
    </clipPath>
    <clipPath id="cliphero12">
      <path fill="#fff" d="M117 257h19v18h-19z"/>
    </clipPath>
    <clipPath id="cliphero13">
      <path fill="#fff" d="M153 248h23v22h-23z"/>
    </clipPath>
    <clipPath id="cliphero14">
      <path fill="#fff" d="M188 257h23v22h-23z"/>
    </clipPath>
    <clipPath id="cliphero15">
      <path fill="#fff" d="M107 282h16v16h-16z"/>
    </clipPath>
    <clipPath id="cliphero16">
      <path transform="matrix(-1 0 0 1 323 123)" fill="#fff" d="M0 0h24v23H0z"/>
    </clipPath>
    <clipPath id="cliphero17">
      <path transform="matrix(-1 0 0 1 282 105)" fill="#fff" d="M0 0h24v23H0z"/>
    </clipPath>
    <clipPath id="cliphero18">
      <path transform="matrix(-1 0 0 1 306 73)" fill="#fff" d="M0 0h24v23H0z"/>
    </clipPath>
    <clipPath id="cliphero19">
      <path transform="matrix(-1 0 0 1 419 166)" fill="#fff" d="M0 0h21v20H0z"/>
    </clipPath>
    <clipPath id="cliphero20">
      <path fill="#fff" d="M309 162h23v22h-23z"/>
    </clipPath>
    <clipPath id="cliphero21">
      <path fill="#fff" d="M326 83h23v22h-23z"/>
    </clipPath>
    <clipPath id="cliphero22">
      <path fill="#fff" d="M272 172h23v22h-23z"/>
    </clipPath>
    <clipPath id="cliphero23">
      <path transform="matrix(-1 0 0 1 637 145)" fill="#fff" d="M0 0h31v30H0z"/>
    </clipPath>
    <clipPath id="cliphero24">
      <path transform="matrix(-1 0 0 1 589 127)" fill="#fff" d="M0 0h31v30H0z"/>
    </clipPath>
    <clipPath id="cliphero25">
      <path transform="matrix(-1 0 0 1 679 91)" fill="#fff" d="M0 0h27v26H0z"/>
    </clipPath>
    <clipPath id="cliphero26">
      <path transform="matrix(-1 0 0 1 650 31)" fill="#fff" d="M0 0h27v26H0z"/>
    </clipPath>
    <filter id="filterhero0_f" x="474.1" y="311.6" width="74.9" height="61.3" filterUnits="userSpaceOnUse" color-interpolation-filters="sRGB">
      <feFlood flood-opacity="0" result="BackgroundImageFix"/>
      <feBlend in="SourceGraphic" in2="BackgroundImageFix" result="shape"/>
      <feGaussianBlur stdDeviation="11" result="effect1_foregroundBlur"/>
    </filter>
    <filter id="filterhero1_f" x="472" y="400.5" width="77.5" height="62.7" filterUnits="userSpaceOnUse" color-interpolation-filters="sRGB">
      <feFlood flood-opacity="0" result="BackgroundImageFix"/>
      <feBlend in="SourceGraphic" in2="BackgroundImageFix" result="shape"/>
      <feGaussianBlur stdDeviation="11" result="effect1_foregroundBlur"/>
    </filter>
  </defs>
</svg>