<svg width="140"  viewBox="0 0 181 115" fill="none" xmlns="http://www.w3.org/2000/svg">
<g clip-path="url(#clip0_2733_5053)">
<path d="M58.8212 58.3823C58.1679 58.3823 57.5243 58.1093 57.0659 57.6315C56.6076 57.1536 56.3638 56.5295 56.3833 55.8567L56.5881 49.5474L38.2747 49.5572C34.7446 49.5572 31.4486 48.192 28.962 45.7053C26.4753 43.2187 25.1101 39.9129 25.1101 36.3926V19.1226C25.1101 11.8674 31.0195 5.95801 38.2747 5.95801H137.146C144.401 5.95801 150.31 11.8674 150.31 19.1226V36.3926C150.31 43.6477 144.401 49.5572 137.146 49.5572H75.0478L60.0206 58.0703C59.6501 58.2751 59.2405 58.3823 58.8212 58.3823Z" fill="#066CF9"/>
<path d="M137.136 7.42058C143.601 7.42058 148.838 12.6572 148.838 19.1224V36.3924C148.838 42.8577 143.601 48.0943 137.136 48.0943H74.6578L59.2991 56.7927C59.1431 56.8804 58.9773 56.9194 58.8213 56.9194C58.3044 56.9194 57.8266 56.4904 57.8461 55.915L58.0997 48.0943L38.2748 48.104H38.265C31.7997 48.104 26.5632 42.8675 26.5632 36.4022V19.1224C26.5632 12.6572 31.7997 7.42058 38.265 7.42058H137.136ZM137.136 4.49512H38.265C30.2005 4.49512 23.6377 11.0579 23.6377 19.1224V36.4022C23.6377 44.4667 30.2005 51.0295 38.265 51.0295L55.0767 51.0197L54.9207 55.8175C54.8817 56.8804 55.2717 57.8946 56.0128 58.6552C56.7442 59.4158 57.7681 59.8449 58.8213 59.8449C59.4941 59.8449 60.1572 59.6694 60.7423 59.3378L75.4282 51.0197H137.136C145.2 51.0197 151.763 44.457 151.763 36.3924V19.1224C151.763 11.0579 145.2 4.49512 137.136 4.49512Z" fill="#066CF9"/>
<path d="M89.8117 53.1558C89.2266 53.1558 88.6513 52.9998 88.1344 52.7073L74.6285 45.0621H41.7853C35.6028 45.0621 30.571 40.0303 30.571 33.8478V12.6772C30.571 6.49469 35.6028 1.46289 41.7853 1.46289H144.557C150.739 1.46289 155.771 6.49469 155.771 12.6772V33.8673C155.771 40.0498 150.739 45.0816 144.557 45.0816L93.0785 45.0621L93.2247 49.6258C93.254 50.5619 92.9127 51.4396 92.2691 52.1027C91.6352 52.7755 90.7381 53.1558 89.8117 53.1558Z" fill="white"/>
<path d="M144.557 2.92546C149.94 2.92546 154.309 7.29416 154.309 12.677V33.8671C154.309 39.25 149.94 43.6187 144.557 43.6187L91.5671 43.5992L91.7621 49.6744C91.8011 50.8348 90.8552 51.693 89.8118 51.693C89.49 51.693 89.1682 51.6149 88.8561 51.4394L75.0187 43.6089H41.7854C36.4026 43.6089 32.0339 39.2402 32.0339 33.8574V12.677C32.0339 7.29416 36.4026 2.92546 41.7854 2.92546H144.557ZM144.557 0H41.7854C34.7935 0 29.1084 5.68515 29.1084 12.677V33.8476C29.1084 40.8395 34.7935 46.5246 41.7854 46.5246H74.2483L87.4129 53.9748C88.1443 54.3941 88.9731 54.6087 89.8118 54.6087C91.1282 54.6087 92.4057 54.0626 93.3223 53.1167C94.2487 52.161 94.7266 50.9031 94.6876 49.5671L94.59 46.5246L144.557 46.5441C151.549 46.5441 157.234 40.859 157.234 33.8671V12.677C157.234 5.68515 151.549 0 144.557 0Z" fill="#0E0F10"/>
<path d="M53.0976 33.7105C51.04 33.7105 49.353 33.0181 48.2316 31.7017L48.1438 31.5944H47.7635L47.6562 31.8382C47.471 32.9011 46.7493 33.5057 45.6572 33.5057C44.3602 33.5057 43.5898 32.6866 43.5898 31.3116V13.9441C43.5898 12.5691 44.3602 11.75 45.6572 11.75C46.9249 11.75 47.6855 12.5691 47.6855 13.9441V19.1807H48.1146L48.2706 19.0734C49.3628 17.7765 51.04 17.0938 53.0976 17.0938C57.7101 17.0938 60.6941 20.3606 60.6941 25.4022C60.6843 30.4535 57.7101 33.7105 53.0976 33.7105ZM52.142 20.7799C49.5578 20.7799 47.6855 22.7302 47.6855 25.4119C47.6855 28.0936 49.5578 30.0439 52.142 30.0439C54.7066 30.0439 56.5009 28.1424 56.5009 25.4119C56.4911 22.6815 54.7066 20.7799 52.142 20.7799Z" fill="#0E0F10"/>
<path d="M65.7649 33.5057C64.4972 33.5057 63.7366 32.6866 63.7366 31.3116V13.9441C63.7366 12.5691 64.4972 11.75 65.7649 11.75C67.0619 11.75 67.8322 12.5691 67.8322 13.9441V31.3116C67.8322 32.6866 67.0619 33.5057 65.7649 33.5057Z" fill="#0E0F10"/>
<path d="M78.5008 33.7104C73.8883 33.7104 70.9043 30.4534 70.9043 25.4021C70.9043 20.3508 73.8883 17.0938 78.5008 17.0938C80.5681 17.0938 82.2453 17.7861 83.3668 19.1026L83.4545 19.2098H83.8349L83.9421 18.966C84.1176 17.8934 84.8295 17.2985 85.9412 17.2985C87.2479 17.2985 88.0085 18.0884 88.0085 19.4634V31.3115C88.0085 32.6865 87.2381 33.5056 85.9412 33.5056C84.849 33.5056 84.1274 32.901 83.9421 31.8381L83.9031 31.5943H83.5228L83.3668 31.7016C82.2453 33.018 80.5681 33.7104 78.5008 33.7104ZM79.4662 20.7798C76.9015 20.7798 75.1072 22.6814 75.1072 25.4118C75.1072 28.1325 76.9015 30.0438 79.4662 30.0438C82.0503 30.0438 83.9226 28.0935 83.9226 25.4118C83.9129 22.7204 82.0406 20.7798 79.4662 20.7798Z" fill="#0E0F10"/>
<path d="M107.843 33.7105C105.785 33.7105 104.098 33.0181 102.977 31.7017L102.889 31.5944H102.509L102.401 31.8382C102.216 32.9011 101.494 33.5057 100.402 33.5057C99.1053 33.5057 98.335 32.6866 98.335 31.3116V13.9441C98.335 12.5691 99.1053 11.75 100.402 11.75C101.67 11.75 102.431 12.5691 102.431 13.9441V19.1807H102.86L103.016 19.0734C104.108 17.7765 105.785 17.0938 107.843 17.0938C112.455 17.0938 115.439 20.3606 115.439 25.4022C115.429 30.4535 112.455 33.7105 107.843 33.7105ZM106.887 20.7799C104.303 20.7799 102.431 22.7302 102.431 25.4119C102.431 28.0936 104.303 30.0439 106.887 30.0439C109.452 30.0439 111.246 28.1424 111.246 25.4119C111.236 22.6815 109.452 20.7799 106.887 20.7799Z" fill="#0E0F10"/>
<path d="M120.51 33.5057C119.242 33.5057 118.481 32.6866 118.481 31.3116V13.9441C118.481 12.5691 119.242 11.75 120.51 11.75C121.807 11.75 122.577 12.5691 122.577 13.9441V31.3116C122.577 32.6866 121.807 33.5057 120.51 33.5057Z" fill="#0E0F10"/>
<path d="M133.246 33.7104C128.633 33.7104 125.649 30.4534 125.649 25.4021C125.649 20.3508 128.633 17.0938 133.246 17.0938C135.313 17.0938 136.99 17.7861 138.112 19.1026L138.2 19.2098H138.58L138.687 18.966C138.863 17.8934 139.575 17.2985 140.686 17.2985C141.993 17.2985 142.754 18.0884 142.754 19.4634V31.3115C142.754 32.6865 141.983 33.5056 140.686 33.5056C139.594 33.5056 138.873 32.901 138.687 31.8381L138.648 31.5943H138.268L138.112 31.7016C136.99 33.018 135.313 33.7104 133.246 33.7104ZM134.202 20.7798C131.637 20.7798 129.843 22.6814 129.843 25.4118C129.843 28.1325 131.637 30.0438 134.202 30.0438C136.786 30.0438 138.658 28.0935 138.658 25.4118C138.658 22.7204 136.786 20.7798 134.202 20.7798Z" fill="#0E0F10"/>
<path d="M16.9287 115C10.5512 115 5.13907 113.099 2.8182 110.047C2.38913 109.432 2.1746 108.769 2.1746 108.038C2.1746 106.205 3.36428 105.073 5.27559 105.073C5.9777 105.073 6.66031 105.356 7.25515 105.892C9.82956 108.184 12.7453 109.208 16.7337 109.208C23.2184 109.208 27.2556 105.571 27.2556 99.71V96.5797H26.4072L26.2609 96.7553C23.7743 99.7002 19.9907 101.26 15.3099 101.26C6.00695 101.241 0 94.9707 0 85.2582C0 75.5456 6.00695 69.2754 15.3002 69.2754C19.9712 69.2754 23.7548 70.8356 26.2512 73.7806L26.3974 73.9561H27.2458V73.1955C27.2458 71.0307 28.4648 69.685 30.4151 69.685C32.4824 69.685 33.7209 71.0014 33.7209 73.1955V99.3589C33.7209 109.149 27.4506 115 16.9287 115ZM16.6556 75.1458C10.6487 75.1458 6.61155 79.2122 6.61155 85.2582C6.61155 91.3041 10.6487 95.3705 16.6556 95.3705C23.0819 95.3705 27.2361 91.4017 27.2361 85.2582C27.2361 79.1147 23.0917 75.1458 16.6556 75.1458Z" fill="white"/>
<path d="M57.3198 102.392C46.9929 102.392 40.0498 95.7509 40.0498 85.8725C40.0498 75.9455 46.8564 69.2852 56.9785 69.2852C66.0182 69.2852 73.0978 75.6822 73.0978 83.8442V84.1855C73.0978 86.5259 71.5571 88.0374 69.1777 88.0374H46.8369L46.9441 88.6127C47.8705 93.625 51.8492 96.7358 57.3198 96.7358C60.6451 96.7358 63.6486 95.4681 65.5501 93.2447C66.2522 92.4256 66.9933 92.055 67.9587 92.055C69.831 92.055 70.9915 93.196 70.9915 95.0195C70.9915 95.7216 70.7574 96.3554 70.2894 96.9503C67.3834 100.461 62.7709 102.392 57.3198 102.392ZM56.9785 74.9508C51.9564 74.9508 48.0168 77.8958 46.9441 82.44L46.8076 83.0348H66.9446L66.8081 82.44C65.7451 77.886 61.8835 74.9508 56.9785 74.9508Z" fill="white"/>
<path d="M94.6384 102.392C89.1872 102.392 84.5748 100.461 81.659 96.9405C81.191 96.3555 80.9569 95.7216 80.9569 95.0195C80.9569 93.1862 82.1174 92.055 83.9897 92.055C84.9551 92.055 85.6962 92.4256 86.3983 93.2447C88.2998 95.4583 91.3033 96.7358 94.6286 96.7358C100.099 96.7358 104.068 93.625 105.004 88.6127L105.112 88.0374H82.7805C80.4011 88.0374 78.8604 86.5259 78.8604 84.1855V83.8442C78.8604 75.6822 85.94 69.2852 94.9797 69.2852C105.102 69.2852 111.908 75.9552 111.908 85.8725C111.908 95.7509 104.965 102.392 94.6384 102.392ZM94.9797 74.9508C90.0746 74.9508 86.2228 77.8958 85.1501 82.44L85.0136 83.0348H105.151L105.014 82.44C103.941 77.886 100.002 74.9508 94.9797 74.9508Z" fill="white"/>
<path d="M144.245 101.992C143.163 101.992 142.197 101.494 141.436 100.548L130.564 87.374L124.713 91.8695V98.481C124.713 100.743 123.562 101.992 121.475 101.992C119.417 101.992 118.238 100.714 118.238 98.481V65.8426C118.238 63.6095 119.417 62.332 121.475 62.332C123.562 62.332 124.713 63.5802 124.713 65.8426V84.8094L141.368 70.8549C142.314 70.0943 143.026 69.6847 144.04 69.6847C145.922 69.6847 147.141 70.9329 147.141 72.854C147.141 73.9851 146.751 74.7653 145.844 75.4479L135.547 83.4929L146.312 96.0139C147.014 96.8428 147.482 97.6229 147.482 98.7443C147.482 100.714 146.215 101.992 144.245 101.992Z" fill="white"/>
<path d="M167.131 102.392C160.335 102.392 156.229 101.27 152.943 98.5105C152.329 97.9449 151.968 97.1453 151.968 96.3067C151.968 94.4539 153.138 93.2057 154.874 93.2057C155.527 93.2057 156.161 93.4202 156.756 93.859C159.457 95.8679 162.558 96.7943 166.527 96.7943C171.461 96.7943 174.406 95.117 174.406 92.3085C174.406 89.2563 171.042 88.6322 165.991 88.6322C156.278 88.6322 152.309 85.9505 152.309 79.3585C152.309 73.137 157.604 69.2754 166.117 69.2754C171.598 69.2754 175.089 70.2115 178.16 72.5032C179.009 73.1272 179.457 73.9756 179.457 74.9605C179.457 76.8133 178.287 78.0615 176.561 78.0615C175.82 78.0615 175.069 77.769 174.201 77.1351C172.231 75.6529 169.599 74.8728 166.595 74.8728C161.817 74.8728 158.852 76.6183 158.852 79.4267C158.852 82.1572 161.817 82.6935 166.927 82.6935C176.834 82.6935 180.871 85.502 180.871 92.3768C180.871 98.6471 175.732 102.392 167.131 102.392Z" fill="white"/>
</g>
<defs>
<clipPath id="clip0_2733_5053">
<rect width="180.872" height="115" fill="white"/>
</clipPath>
</defs>
</svg>
