<svg width="133" height="116" viewBox="0 0 133 116" fill="none" xmlns="http://www.w3.org/2000/svg">
<g clip-path="url(#minutes0)">
<path d="M65.71 51.1406C64.6082 52.7068 63.1891 54.9867 61.7476 57.7101C62.9661 56.5663 64.8596 55.3393 67.0728 55.3178C70.9747 55.28 70.637 59.5925 67.0728 60.7652C63.9842 61.7814 61.1292 61.5193 60.3453 60.496C59.2823 62.7211 58.26 65.1443 57.4009 67.6532C57.3517 67.797 57.3027 67.9413 57.2541 68.0863C57.1937 68.2666 57.1339 68.4472 57.0749 68.628C57.9335 67.4962 59.2617 66.0368 60.6128 65.3803C62.8707 64.2833 65.7971 65.3047 65.1593 67.5366C64.5215 69.7685 61.6326 71.4708 59.6066 71.5465C58.0374 71.6051 56.7833 71.6316 56.2975 71.1697C55.5308 73.8579 54.9268 76.5943 54.5138 79.3567C55.2698 77.8869 56.5684 76.0234 58.1433 75.5564C60.6946 74.7998 62.1953 75.3294 62.3079 77.4856C62.4205 79.6419 58.8937 82.2143 57.0178 82.3277C55.7591 82.4039 54.7017 82.3804 54.146 82.3225C53.9323 84.4957 53.8416 86.6799 53.8876 88.8645L53.1696 88.8797C53.1022 85.6774 53.3244 82.4787 53.7938 79.316C53.3221 79.5012 52.4813 79.5072 51.2024 78.8096C48.9138 77.5613 47.6006 73.8162 47.8257 71.8113C48.0508 69.8063 50.4145 69.1254 51.9903 70.3738C53.0606 71.2217 53.879 74.3474 54.2842 76.468C54.8155 73.7549 55.5221 71.0761 56.3766 68.4526C55.9127 68.5079 55.231 68.0372 54.2039 67.2718C52.478 65.9856 51.5025 62.9971 51.5401 60.9165C51.5776 58.8359 54.1664 56.5662 56.0798 58.9872C57.3064 60.5393 57.5387 63.3771 57.4795 65.3323C58.5194 62.6192 59.7156 60.0478 60.907 57.7653C59.1829 58.4419 57.2017 53.3425 57.1678 50.854C57.1303 48.0925 60.3194 45.7471 62.0077 48.0547C63.1586 49.6276 62.8476 52.9114 62.421 55.0057C63.4719 53.1828 64.4622 51.6498 65.2714 50.5168C65.2112 48.6896 65.6505 45.4602 67.8607 43.6665C70.9372 41.1698 73.7136 41.6994 72.7381 45.331C71.8408 48.6716 67.4831 51.1479 65.71 51.1406Z" fill="#121334"/>
<path d="M13.4151 36.0963C15.5305 39.0773 18.2551 43.4165 21.023 48.5996C18.6834 46.4228 15.0478 44.0875 10.7986 44.0466C3.30687 43.9746 3.95519 52.1823 10.7986 54.4142C16.7286 56.3482 22.2103 55.8495 23.7153 53.9018C25.7563 58.1368 27.7191 62.7485 29.3686 67.5236C29.4631 67.7972 29.557 68.072 29.6504 68.3479C29.7664 68.6911 29.8812 69.0347 29.9945 69.3789C28.346 67.2248 25.7958 64.4473 23.2017 63.1979C18.8666 61.11 13.2478 63.0539 14.4724 67.3017C15.697 71.5495 21.2438 74.7894 25.1337 74.9334C28.1466 75.0449 30.5544 75.0955 31.4871 74.2163C32.9591 79.3326 34.1187 84.5406 34.9117 89.7981C33.4602 87.0007 30.9669 83.454 27.9431 82.5651C23.0447 81.1252 20.1632 82.1331 19.9471 86.237C19.731 90.3408 26.5024 95.2366 30.1042 95.4526C32.5208 95.5975 34.551 95.5528 35.6181 95.4425C36.0283 99.5786 36.2023 103.736 36.1141 107.894L37.4927 107.922C37.622 101.828 37.1954 95.7398 36.2942 89.7205C37.1999 90.073 38.8142 90.0845 41.2697 88.7569C45.6639 86.381 48.1851 79.2532 47.7529 75.4374C47.3207 71.6215 42.7824 70.3256 39.7569 72.7015C37.702 74.3152 36.1305 80.2641 35.3526 84.3003C34.3325 79.1365 32.9759 74.0381 31.3352 69.0451C32.226 69.1503 33.5348 68.2545 35.5068 66.7977C38.8205 64.3498 40.6934 58.662 40.6214 54.7022C40.5493 50.7424 35.5789 46.4225 31.9051 51.0303C29.5499 53.9842 29.1041 59.3852 29.2177 63.1064C27.2211 57.9428 24.9244 53.0488 22.6369 48.7046C25.947 49.9925 29.7511 40.2871 29.816 35.551C29.8881 30.2952 23.765 25.8313 20.5234 30.2232C18.3138 33.2168 18.9108 39.4666 19.73 43.4526C17.7122 39.9832 15.8108 37.0655 14.2572 34.9092C14.3727 31.4316 13.5294 25.2853 9.28582 21.8716C3.3789 17.1197 -1.95175 18.1277 -0.0788193 25.0394C1.64402 31.3973 10.0107 36.1103 13.4151 36.0963Z" fill="#24255C"/>
<path d="M127.998 3.69011C130.092 7.13251 133.978 15.7277 132.773 22.5692C129.868 21.8919 123.859 20.6103 123.06 20.9016C126.136 22.1989 132.362 24.9899 132.658 25.7752C131.872 29.7467 129.148 39.1676 124.535 45.0791C121.156 44.1156 114.076 42.3583 112.788 43.0368C115.583 44.2256 121.482 46.8403 122.718 47.789C121.886 49.296 120.03 52.4622 119.26 53.0705C116.203 52.0891 109.468 50.3897 106.988 51.443C109.124 53.0584 113.71 56.9193 114.963 59.4397C110.32 67.4987 103.097 79.0966 88.077 89.6086C86.8903 89.2722 84.1492 88.7486 83.4469 88.171C84.3779 89.1341 86.3794 90.6671 87.0805 90.6793C84.5953 92.2187 78.4346 95.9551 73.5297 97C63.8401 84.1571 62.5472 74.1073 63.1119 70.6878C65.7612 70.4062 73.6965 67.6081 77.3329 66.2443C74.9923 66.6217 67.8358 64.5475 64.5501 63.4632C64.2689 63.1191 64.5578 61.7109 64.7374 61.0499C65.7518 61.3883 71.413 61.9349 74.8118 62.2268C72.4 61.8521 67.4666 60.1755 65.0138 59.274C74.168 27.9137 90.4554 10.4256 97.4548 5.60156C100.123 7.45707 103.849 12.0161 105.378 14.0637C108.072 8.76321 107.007 3.43188 106.138 1.42878C116.478 -1.98585 125.02 1.51357 127.998 3.69011Z" fill="#2F3175"/>
<path d="M127.954 4C97.434 31.441 78.6014 77.4337 73 97C77.9486 95.9586 84.1641 92.2346 86.6714 90.7003C85.9641 90.6881 83.9448 89.1603 83.0055 88.2004C83.7141 88.776 86.4796 89.2979 87.6768 89.6331C102.831 79.156 110.118 67.5967 114.803 59.5645C113.538 57.0524 108.912 53.2043 106.757 51.5943C109.258 50.5444 116.053 52.2383 119.138 53.2164C119.914 52.6101 121.787 49.4544 122.627 47.9524C121.38 47.0069 115.428 44.4008 112.608 43.216C113.908 42.5398 121.05 44.2912 124.459 45.2515C129.114 39.3597 131.862 29.9701 132.655 26.0117C132.356 25.2291 126.075 22.4473 122.972 21.1543C123.777 20.864 129.84 22.1414 132.771 22.8164C133.986 15.9976 130.066 7.43096 127.954 4Z" fill="#24255C"/>
<path d="M68.1445 57.8717C67.483 58.96 66.2551 61.6773 66.6357 63.8401C67.5536 63.626 69.4527 63.2208 69.705 63.3129C68.733 63.7231 66.7657 64.6054 66.6721 64.8537C66.9203 66.1093 67.7812 69.0876 69.239 70.9565C70.3067 70.6519 72.5439 70.0963 72.951 70.3108C72.0677 70.6866 70.2036 71.5133 69.813 71.8132C70.0759 72.2896 70.6625 73.2906 70.9057 73.4829C71.8719 73.1726 74.0001 72.6354 74.7836 72.9684C74.1086 73.4791 72.6597 74.6996 72.2635 75.4965C73.7309 78.0442 76.0131 81.7108 80.7594 85.0341C81.1344 84.9278 82.0006 84.7622 82.2225 84.5796C81.9283 84.8841 81.2959 85.3687 81.0743 85.3726C81.8596 85.8593 83.8063 87.0405 85.3563 87.3708C88.4181 83.3107 88.8267 80.1335 88.6482 79.0525C87.8111 78.9634 85.3036 78.0788 84.1545 77.6477C84.8941 77.767 87.1555 77.1112 88.1938 76.7684C88.2826 76.6597 88.1913 76.2145 88.1346 76.0055C87.814 76.1125 86.0251 76.2853 84.9511 76.3776C85.7132 76.2591 87.2722 75.7291 88.0473 75.4441C85.1546 65.5298 80.0079 60.001 77.7961 58.476C76.953 59.0626 75.7756 60.5039 75.2923 61.1512C74.441 59.4755 74.7775 57.79 75.0522 57.1568C71.785 56.0773 69.0857 57.1836 68.1445 57.8717Z" fill="#24255C"/>
<path d="M68.1279 57.7109C77.5893 66.4626 83.4276 81.131 85.1641 87.3713C83.63 87.0391 81.7031 85.8514 80.9258 85.3621C81.1451 85.3582 81.7711 84.871 82.0623 84.5648C81.8426 84.7484 80.9853 84.9149 80.6141 85.0218C75.9162 81.6803 73.6572 77.9937 72.2049 75.432C72.597 74.6308 74.0312 73.4036 74.6992 72.8901C73.9238 72.5553 71.8173 73.0955 70.8609 73.4074C70.6202 73.2141 70.0396 72.2076 69.7793 71.7286C70.1659 71.4271 72.0111 70.5959 72.8853 70.218C72.4824 70.0024 70.268 70.561 69.2112 70.8672C67.7683 68.9881 66.9162 65.9935 66.6705 64.7311C66.7632 64.4815 68.7104 63.5943 69.6724 63.1819C69.4227 63.0893 67.543 63.4967 66.6344 63.712C66.2578 61.5373 67.4732 58.8052 68.1279 57.7109Z" fill="#2F3175"/>
<circle cx="66.5" cy="70.5" r="38.5" fill="#45479D"/>
<rect x="61" y="17" width="11" height="19" rx="3" fill="#45479D"/>
<circle cx="66.5" cy="70.5" r="32.5" fill="#6264C3"/>
<path d="M84.3546 52.0869L66.0527 70.7449V83.8913" stroke="white" stroke-width="4" stroke-linecap="round" stroke-linejoin="round"/>
<circle cx="66.5" cy="71.5" r="5.5" fill="#37398D"/>
<path d="M66.5 103V98M34 70.5H39M66.5 38V43M94 70.5H99" stroke="#45479D" stroke-width="4" stroke-linecap="round" stroke-linejoin="round"/>
<rect x="56" y="21" width="20" height="8" rx="2" fill="#6264C3"/>
<path d="M123.073 56.6017C121.53 58.7915 119.544 61.9789 117.525 65.7863C119.231 64.1873 121.882 62.4718 124.981 62.4418C130.443 62.3889 129.971 68.4181 124.981 70.0577C120.657 71.4784 116.66 71.112 115.562 69.6812C114.074 72.7922 112.643 76.1799 111.44 79.6875C111.371 79.8886 111.303 80.0904 111.235 80.2931C111.15 80.5452 111.066 80.7976 110.984 81.0504C112.186 79.468 114.045 77.4278 115.937 76.51C119.098 74.9762 123.195 76.4042 122.302 79.5246C121.409 82.6449 117.364 85.0249 114.528 85.1307C112.331 85.2126 110.575 85.2497 109.895 84.6039C108.822 88.3622 107.976 92.188 107.398 96.05C108.457 93.995 110.275 91.3897 112.48 90.7368C116.051 89.679 118.152 90.4194 118.31 93.434C118.468 96.4486 113.53 100.045 110.904 100.204C109.142 100.31 107.661 100.277 106.883 100.196C106.584 103.235 106.457 106.288 106.522 109.343L105.516 109.364C105.422 104.887 105.733 100.415 106.39 95.993C105.73 96.2519 104.553 96.2604 102.762 95.2851C99.5582 93.5398 97.7197 88.3039 98.0349 85.5009C98.3501 82.6978 101.659 81.7458 103.865 83.4911C105.364 84.6766 106.51 89.0465 107.077 92.0114C107.821 88.2182 108.81 84.473 110.006 80.8052C109.357 80.8825 108.402 80.2245 106.964 79.1543C104.548 77.3562 103.182 73.178 103.235 70.2692C103.288 67.3604 106.912 64.1871 109.591 67.5719C111.308 69.7418 111.633 73.7092 111.55 76.4428C113.006 72.6497 114.681 69.0546 116.349 65.8635C113.935 66.8095 111.161 59.6801 111.114 56.2011C111.061 52.3403 115.526 49.0612 117.89 52.2874C119.501 54.4865 119.066 59.0774 118.468 62.0054C119.94 59.4569 121.326 57.3137 122.459 55.7296C122.375 53.1751 122.99 48.6601 126.084 46.1524C130.391 42.6618 134.278 43.4023 132.912 48.4795C131.656 53.1498 125.555 56.612 123.073 56.6017Z" fill="#2F3175"/>
</g>
<defs>
<clipPath id="minutes0">
<rect width="133" height="116" fill="white"/>
</clipPath>
</defs>
</svg>
