<svg width="133" height="116" fill="none" xmlns="http://www.w3.org/2000/svg">
  <g clip-path="url(#minutes0)">
    <path d="M66 51l-4 7c1-1 3-3 5-3 4 0 4 5 0 6-3 1-6 1-7-1a67 67 0 00-3 9l4-4c2-1 5 0 4 3 0 2-3 3-5 4l-4-1-1 8 3-3c3-1 4-1 4 1 0 3-3 5-5 5h-3v7h-1l1-10h-3c-2-1-3-5-3-7s2-3 4-2l2 6 2-8-2-1c-2-1-2-4-2-6s2-4 4-2c1 2 2 4 1 6l4-7c-2 0-4-5-4-7 0-3 3-5 5-3v7l3-4c0-2 1-6 3-7 3-3 6-2 5 1-1 4-6 6-7 6z" fill="#121334"/>
    <path d="M13 36l8 13c-2-3-6-5-10-5-8 0-7 8 0 10 6 2 11 2 13 0a128 128 0 016 15c-2-2-4-5-7-6-4-2-10 0-9 4 2 5 7 8 11 8l6-1 4 16c-2-3-4-7-7-7-5-2-8-1-8 3s7 9 10 9h6v13h1c1-6 0-12-1-18l5-1c5-3 7-10 7-14-1-3-5-5-8-2-2 1-4 7-5 11l-4-15 5-2c3-3 5-8 5-12s-5-9-9-4c-2 3-3 8-3 12l-6-14c3 1 7-9 7-13 0-6-6-10-9-6-3 3-2 9-1 13l-6-8c0-4 0-10-5-13-6-5-11-4-9 3 2 6 10 11 13 11z" fill="#24255C"/>
    <path d="M128 4c2 3 6 12 5 19l-10-2 10 5c-1 4-4 13-8 19-4-1-11-3-12-2l10 5-4 5c-3-1-10-3-12-2l8 8c-5 8-12 20-27 31l-5-2 4 3-13 6C64 84 63 74 63 71l14-5c-2 1-9-1-12-3v-2l10 1-10-3c9-31 25-49 32-53 3 1 7 6 8 8 3-5 2-11 1-13 10-3 19 1 22 3z" fill="#2F3175"/>
    <path d="M128 4C97 31 79 77 73 97c5-1 11-5 14-6l-4-3 5 2c15-11 22-22 27-30-1-3-6-7-8-8 2-1 9 0 12 1l4-5-10-5 11 2c5-6 8-15 9-19l-10-5 10 2c1-7-3-16-5-19z" fill="#24255C"/>
    <path d="M68 58c-1 1-2 4-1 6l3-1-3 2 2 6 4-1-3 2 1 1h4l-3 2c2 3 4 7 9 10h0l4 2 4-8-5-1 4-1v-1h-3l3-1c-3-9-8-15-10-17l-3 3v-4c-3-1-6 0-7 1z" fill="#24255C"/>
    <path d="M68 58c10 8 15 23 17 29l-4-2h0c-5-3-7-7-9-10l3-2h-4l-1-1 3-2-4 1-2-6 3-2-3 1c-1-2 0-5 1-6z" fill="#2F3175"/>
    <circle cx="66.5" cy="70.5" r="38.5" fill="#45479D"/>
    <rect x="61" y="17" width="11" height="19" rx="3" fill="#45479D"/>
    <circle cx="66.5" cy="70.5" r="32.5" fill="#6264C3"/>
    <path d="M84 52L66 71v13" stroke="#fff" stroke-width="4" stroke-linecap="round" stroke-linejoin="round"/>
    <circle cx="66.5" cy="71.5" r="5.5" fill="#37398D"/>
    <path d="M67 103v-5M34 71h5m28-33v5m27 28h5" stroke="#45479D" stroke-width="4" stroke-linecap="round" stroke-linejoin="round"/>
    <rect x="56" y="21" width="20" height="8" rx="2" fill="#6264C3"/>
    <path d="M123 57l-5 9c1-2 4-4 7-4 5 0 5 6 0 8h-9a94 94 0 00-5 11c1-2 3-4 5-4 3-2 7-1 6 3-1 3-5 5-7 5h-5l-3 11c1-2 3-5 5-5 4-1 6-1 6 2s-4 7-7 7h-4v9h-1V96l-3-1c-3-1-5-7-5-9 0-3 4-4 6-3l3 9 3-11-3-2c-2-2-4-6-4-9s4-6 7-2l2 8 4-10c-2 1-5-6-5-10s5-7 7-4c2 2 1 7 0 10l4-6c0-3 1-7 4-10 4-3 8-3 7 2s-7 9-10 9z" fill="#2F3175"/>
  </g>
  <defs>
    <clipPath id="minutes0">
      <path fill="#fff" d="M0 0h133v116H0z"/>
    </clipPath>
  </defs>
</svg>