<svg width="24" height="24" viewBox="0 0 24 24" fill="none" xmlns="http://www.w3.org/2000/svg">
<path d="M17.6179 5.968L19.0709 4.515L20.4849 5.929L19.0319 7.382C20.4677 9.17917 21.1609 11.4579 20.969 13.7501C20.7772 16.0424 19.7149 18.1742 18.0004 19.7077C16.2859 21.2412 14.0493 22.0601 11.7499 21.9961C9.45054 21.9321 7.26294 20.9901 5.63641 19.3635C4.00987 17.737 3.06787 15.5494 3.00386 13.25C2.93984 10.9506 3.75869 8.71402 5.29222 6.99951C6.82574 5.285 8.95755 4.22275 11.2498 4.03092C13.5421 3.83909 15.8208 4.53223 17.6179 5.968ZM11.9999 20C12.9192 20 13.8294 19.8189 14.6787 19.4672C15.528 19.1154 16.2997 18.5998 16.9497 17.9497C17.5997 17.2997 18.1153 16.5281 18.4671 15.6788C18.8189 14.8295 18.9999 13.9193 18.9999 13C18.9999 12.0807 18.8189 11.1705 18.4671 10.3212C18.1153 9.47194 17.5997 8.70026 16.9497 8.05025C16.2997 7.40024 15.528 6.88463 14.6787 6.53284C13.8294 6.18106 12.9192 6 11.9999 6C10.1434 6 8.36294 6.7375 7.05019 8.05025C5.73743 9.36301 4.99994 11.1435 4.99994 13C4.99994 14.8565 5.73743 16.637 7.05019 17.9497C8.36294 19.2625 10.1434 20 11.9999 20ZM10.9999 8H12.9999V14H10.9999V8ZM7.99994 1H15.9999V3H7.99994V1Z" fill="currentColor"/>
</svg>
