<svg width="24" height="24" viewBox="0 0 24 24" fill="none" xmlns="http://www.w3.org/2000/svg">
<title>Toggle Dark Mode</title>
<path d="M12 21.2353C7.0293 21.2353 3 17.1533 3 12.1176C3 7.08197 7.0293 3 12 3C16.9707 3 21 7.08197 21 12.1176C21 17.1533 16.9707 21.2353 12 21.2353ZM5.9961 16.1522C6.58766 17.0489 7.36812 17.8015 8.28129 18.3558C9.19446 18.9102 10.2176 19.2525 11.2771 19.3581C12.3365 19.4637 13.4059 19.33 14.4082 18.9666C15.4105 18.6032 16.3208 18.0192 17.0736 17.2565C17.8263 16.4939 18.4027 15.5716 18.7614 14.5562C19.12 13.5407 19.2519 12.4574 19.1475 11.3841C19.0432 10.3108 18.7052 9.27428 18.1579 8.34922C17.6106 7.42416 16.8676 6.63356 15.9825 6.03435C16.3706 7.43685 16.383 8.91874 16.0186 10.3277C15.6542 11.7367 14.926 13.022 13.9089 14.0515C12.8928 15.0817 11.6242 15.8193 10.2336 16.1885C8.84296 16.5577 7.38037 16.5452 5.9961 16.1522V16.1522Z" fill="white"/>
</svg>
