<svg width="368" height="290" viewBox="0 0 368 290" fill="none" xmlns="http://www.w3.org/2000/svg">
<path d="M131.625 180.93C129.433 184.045 126.61 188.581 123.743 193.998C126.167 191.723 129.933 189.282 134.336 189.239C142.097 189.164 141.426 197.742 134.336 200.075C128.192 202.096 122.513 201.575 120.953 199.539C118.839 203.966 116.805 208.786 115.096 213.776C114.998 214.062 114.901 214.35 114.804 214.638C114.684 214.997 114.565 215.356 114.448 215.716C116.156 213.464 118.798 210.561 121.486 209.255C125.977 207.073 131.798 209.105 130.529 213.545C129.261 217.984 123.514 221.37 119.484 221.521C116.362 221.638 113.868 221.69 112.902 220.771C111.377 226.119 110.175 231.562 109.354 237.057C110.857 234.133 113.441 230.426 116.573 229.497C121.648 227.992 124.634 229.046 124.857 233.335C125.081 237.624 118.066 242.741 114.334 242.967C111.831 243.118 109.727 243.072 108.622 242.956C108.197 247.279 108.016 251.624 108.108 255.97L106.68 256C106.546 249.63 106.988 243.267 107.921 236.976C106.983 237.344 105.31 237.356 102.766 235.969C98.2139 233.486 95.6018 226.036 96.0496 222.048C96.4974 218.06 101.199 216.705 104.334 219.188C106.463 220.875 108.091 227.092 108.897 231.311C109.954 225.914 111.359 220.585 113.059 215.367C112.136 215.477 110.78 214.54 108.737 213.018C105.304 210.459 103.363 204.515 103.438 200.376C103.513 196.237 108.662 191.722 112.469 196.538C114.909 199.626 115.37 205.27 115.253 209.16C117.321 203.763 119.701 198.648 122.071 194.108C118.641 195.454 114.7 185.31 114.633 180.36C114.558 174.867 120.902 170.201 124.26 174.791C126.55 177.92 125.931 184.452 125.082 188.618C127.173 184.992 129.143 181.943 130.752 179.689C130.633 176.054 131.506 169.63 135.903 166.063C142.023 161.096 147.545 162.15 145.605 169.373C143.82 176.018 135.152 180.944 131.625 180.93Z" fill="#121334"/>
<path d="M25.3752 180.93C27.5669 184.045 30.3897 188.581 33.2572 193.998C30.8333 191.723 27.0667 189.282 22.6644 189.239C14.9027 189.164 15.5744 197.742 22.6644 200.075C28.8081 202.096 34.4873 201.575 36.0466 199.539C38.1611 203.966 40.1946 208.786 41.9036 213.776C42.0015 214.062 42.0988 214.35 42.1955 214.638C42.3158 214.997 42.4346 215.356 42.5521 215.716C40.8442 213.464 38.202 210.561 35.5144 209.255C31.0231 207.073 25.2019 209.105 26.4706 213.545C27.7393 217.984 33.486 221.37 37.5161 221.521C40.6375 221.638 43.1322 221.69 44.0984 220.771C45.6235 226.119 46.8249 231.562 47.6465 237.057C46.1426 234.133 43.5595 230.426 40.4267 229.497C35.3518 227.992 32.3665 229.046 32.1426 233.335C31.9187 237.624 38.9341 242.741 42.6657 242.967C45.1694 243.118 47.2727 243.072 48.3783 242.956C48.8033 247.279 48.9836 251.624 48.8922 255.97L50.3205 256C50.4544 249.63 50.0125 243.267 49.0788 236.976C50.0171 237.344 51.6896 237.356 54.2336 235.969C58.7861 233.486 61.3982 226.036 60.9504 222.048C60.5026 218.06 55.8008 216.705 52.6663 219.188C50.5373 220.875 48.9092 227.092 48.1033 231.311C47.0464 225.914 45.6409 220.585 43.9411 215.367C44.8639 215.477 46.22 214.54 48.263 213.018C51.6961 210.459 53.6365 204.515 53.5619 200.376C53.4872 196.237 48.3377 191.722 44.5315 196.538C42.0915 199.626 41.6295 205.27 41.7473 209.16C39.6787 203.763 37.2993 198.648 34.9293 194.108C38.3587 195.454 42.2999 185.31 42.3671 180.36C42.4418 174.867 36.0981 170.201 32.7397 174.791C30.4504 177.92 31.069 184.452 31.9176 188.618C29.8271 184.992 27.8573 181.943 26.2476 179.689C26.3673 176.054 25.4936 169.63 21.0971 166.063C14.9773 161.096 9.45459 162.15 11.395 169.373C13.1799 176.018 21.8481 180.944 25.3752 180.93Z" fill="#121334"/>
<path d="M27.6004 129.124C31.8084 135.054 37.2281 143.685 42.7338 153.996C38.08 149.666 30.8481 145.02 22.3956 144.939C7.49319 144.796 8.78281 161.122 22.3956 165.562C34.1916 169.409 45.0957 168.417 48.0894 164.543C52.1494 172.967 56.0536 182.141 59.3348 191.639C59.5229 192.183 59.7098 192.73 59.8954 193.279C60.1263 193.961 60.3545 194.645 60.58 195.33C57.3008 191.045 52.2279 185.52 47.0677 183.034C38.4444 178.881 27.2676 182.748 29.7036 191.198C32.1395 199.648 43.1731 206.092 50.9109 206.379C56.904 206.601 61.6937 206.701 63.5489 204.952C66.477 215.129 68.7838 225.489 70.3613 235.947C67.4738 230.383 62.5142 223.328 56.4993 221.56C46.7554 218.695 41.0237 220.7 40.5938 228.864C40.1639 237.027 53.6334 246.766 60.7981 247.195C65.6052 247.484 69.6437 247.395 71.7662 247.175C72.5823 255.403 72.9285 263.672 72.753 271.943L75.4953 272C75.7525 259.877 74.9039 247.767 73.1113 235.793C74.9129 236.494 78.124 236.517 83.0084 233.876C91.7493 229.15 96.7645 214.972 95.9048 207.381C95.045 199.791 86.0176 197.213 79.9993 201.939C75.9116 205.149 72.7857 216.982 71.2383 225.011C69.2091 214.74 66.5105 204.598 63.2469 194.666C65.0187 194.875 67.6224 193.093 71.545 190.195C78.1365 185.326 81.8621 174.012 81.7188 166.135C81.5755 158.258 71.6883 149.665 64.3804 158.831C59.6956 164.707 58.8087 175.45 59.0348 182.853C55.063 172.581 50.4946 162.846 45.9443 154.205C52.5287 156.766 60.0958 137.461 60.2249 128.04C60.3682 117.585 48.1883 108.705 41.7401 117.442C37.3448 123.397 38.5324 135.829 40.1619 143.757C36.148 136.856 32.3659 131.052 29.2754 126.763C29.5052 119.845 27.8277 107.619 19.3865 100.829C7.63647 91.3764 -2.9672 93.3814 0.758415 107.13C4.18546 119.777 20.8283 129.152 27.6004 129.124Z" fill="#24255C"/>
<path d="M357.925 94.4183C362.142 101.339 369.969 118.618 367.543 132.371C361.692 131.01 349.587 128.433 347.978 129.019C354.174 131.627 366.714 137.237 367.311 138.816C365.729 146.8 360.241 165.739 350.949 177.623C344.143 175.686 329.882 172.153 327.287 173.517C332.917 175.907 344.8 181.164 347.29 183.071C345.614 186.1 341.874 192.465 340.324 193.688C334.165 191.715 320.599 188.299 315.605 190.416C319.907 193.664 329.144 201.425 331.669 206.492C322.315 222.693 307.768 246.009 277.512 267.141C275.122 266.465 269.601 265.412 268.186 264.251C270.061 266.187 274.093 269.269 275.505 269.294C270.499 272.388 258.09 279.899 248.21 282C228.692 256.182 226.088 235.979 227.225 229.104C232.562 228.538 248.546 222.913 255.871 220.172C251.156 220.93 236.741 216.76 230.122 214.581C229.556 213.889 230.138 211.058 230.5 209.729C232.543 210.409 243.946 211.508 250.792 212.095C245.934 211.342 235.997 207.971 231.056 206.159C249.496 143.115 282.303 107.959 296.402 98.2609C301.776 101.991 309.281 111.156 312.362 115.272C317.788 104.617 315.643 93.8991 313.893 89.8723C334.719 83.0078 351.925 90.0427 357.925 94.4183Z" fill="#2F3175"/>
<path d="M357.907 94C296.868 149.472 259.203 242.447 248 282C257.897 279.895 270.328 272.367 275.343 269.265C273.928 269.241 269.89 266.152 268.011 264.211C269.428 265.375 274.959 266.43 277.354 267.108C307.662 245.928 322.235 222.561 331.605 206.324C329.076 201.246 319.823 193.467 315.513 190.212C320.516 188.09 334.106 191.514 340.276 193.491C341.829 192.266 345.575 185.886 347.253 182.85C344.759 180.939 332.855 175.67 327.215 173.275C329.815 171.908 344.101 175.449 350.919 177.39C360.228 165.48 365.725 146.499 367.31 138.497C366.712 136.915 354.15 131.291 347.943 128.677C349.554 128.091 361.681 130.673 367.543 132.037C369.972 118.253 362.132 100.936 357.907 94Z" fill="#24255C"/>
<path d="M196.144 194.321C194.828 196.485 192.386 201.891 193.142 206.193C194.969 205.767 198.746 204.961 199.248 205.144C197.315 205.96 193.401 207.715 193.215 208.209C193.709 210.707 195.421 216.631 198.321 220.349C200.445 219.743 204.895 218.638 205.705 219.064C203.948 219.812 200.24 221.456 199.463 222.053C199.986 223.001 201.153 224.992 201.636 225.374C203.558 224.757 207.792 223.688 209.35 224.351C208.008 225.367 205.125 227.795 204.337 229.38C207.256 234.448 211.796 241.741 221.237 248.352C221.983 248.14 223.706 247.811 224.148 247.448C223.562 248.053 222.304 249.017 221.864 249.025C223.426 249.993 227.298 252.343 230.381 253C236.472 244.924 237.285 238.604 236.93 236.453C235.264 236.276 230.277 234.516 227.991 233.659C229.462 233.896 233.96 232.592 236.026 231.91C236.202 231.693 236.021 230.808 235.908 230.392C235.27 230.605 231.712 230.949 229.575 231.132C231.091 230.897 234.192 229.842 235.734 229.275C229.98 209.554 219.742 198.556 215.343 195.523C213.666 196.689 211.324 199.557 210.362 200.844C208.669 197.511 209.338 194.158 209.885 192.899C203.385 190.751 198.016 192.952 196.144 194.321Z" fill="#24255C"/>
<path d="M196.112 194C214.932 211.409 226.546 240.587 230 253C226.948 252.339 223.115 249.977 221.569 249.003C222.005 248.996 223.251 248.026 223.83 247.417C223.393 247.783 221.688 248.114 220.949 248.326C211.604 241.68 207.111 234.346 204.222 229.251C205.002 227.657 207.855 225.216 209.183 224.194C207.641 223.528 203.451 224.603 201.548 225.223C201.069 224.839 199.915 222.837 199.397 221.884C200.166 221.284 203.836 219.631 205.575 218.879C204.774 218.45 200.369 219.561 198.267 220.17C195.396 216.432 193.702 210.476 193.213 207.964C193.397 207.468 197.271 205.703 199.184 204.883C198.687 204.699 194.948 205.509 193.141 205.937C192.392 201.611 194.809 196.177 196.112 194Z" fill="#2F3175"/>
<path d="M230.866 177.267C233.845 178.028 252.147 161.325 251.02 143.988C249.893 126.65 235.691 133.828 231.597 142.607C227.503 151.387 223.751 166.402 230.866 177.267ZM230.866 177.267C229.244 182.69 227.428 189.915 225.846 198.101M223.12 215.507C224.067 210.09 229.119 197.4 241.758 189.97C257.558 180.683 258.324 199.242 248.515 209.842C237.965 221.244 223.242 224.66 223.12 215.507ZM223.12 215.507C223.498 212.323 223.94 209.189 224.427 206.14M223.12 215.507C222.015 224.821 221.454 234.554 221.899 243.799M225.846 198.101C225.345 200.693 224.867 203.382 224.427 206.14M225.846 198.101C225.132 188.35 220.697 168.553 208.669 167.371C193.635 165.893 197.511 186.943 204.048 195.269C210.584 203.595 220.986 211.283 224.427 206.14M221.899 243.799C218.593 233.452 209.515 213.398 199.657 215.949C187.336 219.139 190.027 238.841 202.742 247.228C212.914 253.937 220.345 254.221 222.789 253.524M221.899 243.799C222.059 247.117 222.348 250.373 222.789 253.524M222.789 253.524C224.582 244.476 233.61 220.005 250.825 225.7C258.532 228.25 254.57 237.347 243.735 247.616C235.254 255.655 225.626 262.616 224.349 261.704M222.789 253.524C223.183 256.345 223.698 259.081 224.349 261.704M224.349 261.704C225.408 265.967 226.826 269.929 228.67 273.46" stroke="#D7D9FA" stroke-width="2" stroke-linecap="round" stroke-linejoin="round"/>
<path d="M297.875 184.067C294.806 188.423 290.854 194.763 286.84 202.337C290.233 199.156 295.507 195.744 301.67 195.684C312.536 195.579 311.596 207.572 301.67 210.834C293.069 213.66 285.118 212.931 282.935 210.085C279.974 216.273 277.128 223.012 274.735 229.989C274.598 230.389 274.462 230.791 274.326 231.194C274.158 231.695 273.992 232.197 273.827 232.7C276.218 229.553 279.917 225.494 283.68 223.668C289.968 220.618 298.117 223.458 296.341 229.665C294.565 235.872 286.52 240.606 280.877 240.817C276.507 240.98 273.015 241.053 271.662 239.769C269.527 247.245 267.845 254.855 266.695 262.537C268.8 258.45 272.417 253.267 276.803 251.968C283.908 249.864 288.087 251.337 288.4 257.334C288.714 263.33 278.892 270.484 273.668 270.8C270.163 271.012 267.218 270.946 265.67 270.785C265.075 276.829 264.823 282.903 264.951 288.979L262.951 289.021C262.764 280.115 263.383 271.219 264.69 262.424C263.376 262.939 261.035 262.956 257.473 261.016C251.099 257.544 247.443 247.129 248.069 241.553C248.696 235.977 255.279 234.084 259.667 237.555C262.648 239.913 264.927 248.606 266.055 254.504C267.535 246.958 269.503 239.508 271.882 232.213C270.591 232.366 268.692 231.057 265.832 228.929C261.025 225.352 258.309 217.041 258.413 211.254C258.518 205.468 265.727 199.156 271.056 205.889C274.472 210.205 275.119 218.097 274.954 223.535C277.85 215.99 281.181 208.838 284.499 202.491C279.698 204.373 274.18 190.191 274.086 183.27C273.982 175.59 282.863 169.068 287.564 175.485C290.769 179.86 289.903 188.992 288.715 194.816C291.642 189.747 294.4 185.483 296.653 182.332C296.486 177.251 297.709 168.27 303.864 163.282C312.432 156.338 320.164 157.811 317.447 167.911C314.948 177.201 302.813 184.088 297.875 184.067Z" fill="#121334"/>
</svg>
