<svg width="355" height="378" viewBox="0 0 355 378" fill="none" xmlns="http://www.w3.org/2000/svg">
<path d="M342.67 204.641C348.514 362.286 275.879 376.049 192.39 371.878C108.901 367.707 4.53957 327.67 7.04424 204.641C9.54891 81.612 89.2807 45.6566 151.897 46.4907C214.514 47.3248 336.826 46.9967 342.67 204.641Z" fill="#1D1E4F"/>
<path d="M255.918 191.101C257.669 164.157 250.228 142.955 249.353 139.421C246.581 140.893 240.512 144.721 238.411 148.255C235.784 152.672 228.781 201.26 228.781 208.328C228.781 213.982 229.948 273.996 230.532 303.296L234.034 305.946C240.745 276.646 254.518 212.657 255.918 191.101Z" fill="#262865"/>
<path d="M205.38 187.815C201.82 155.428 210.423 145.571 215.17 144.69C223.923 145.717 241.428 148.211 241.428 149.971C241.428 151.731 236.681 183.855 234.307 199.697C233.12 231.38 228.5 301.536 228.5 304C228.5 307.08 223 311.101 223 304.5C223 297.899 209.83 228.3 205.38 187.815Z" fill="#2F3176"/>
<path d="M244.051 306C241.351 306 239.407 304.7 238.057 304.7L230.407 302C229.207 304.55 227.707 309.65 231.307 309.65C235.807 309.65 249.258 311 249.258 309.65C249.258 308.3 246.751 306 244.051 306Z" fill="#121334"/>
<path d="M231.826 311.661C233.133 308.905 229.486 303.787 229.051 303C229.051 303 224.551 301.5 223.113 303C221.676 304.5 220.325 310.559 221.37 312.449C222.677 314.811 230.519 314.417 231.826 311.661Z" fill="#121334"/>
<path d="M244.174 52.9406C244.174 56.4865 236.816 60.6234 233.137 62.2486C219.451 69.3403 206.648 44.9625 206.648 41.8598C206.648 38.7571 220.334 32.1083 224.749 28.1191C229.164 24.1299 234.903 19.6975 240.642 24.5732C246.381 29.4488 244.174 48.5082 244.174 52.9406Z" fill="#F4A392"/>
<path fill-rule="evenodd" clip-rule="evenodd" d="M199.27 89.7489C199.27 97.1996 209.375 119.114 214.647 127.88C214.647 129.282 211.718 138.69 210.253 143.219C220.446 151.634 232.367 154.03 237.053 154.176L240.568 148.917L244.962 154.176C247.891 152.715 253.749 149.618 253.749 148.917C253.749 148.68 253.492 146.812 253.135 144.212C252.17 137.185 250.471 124.811 251.112 124.811C251.991 124.811 265.172 123.058 269.126 120.867C273.08 118.676 260.339 98.0762 259.46 96.7614C259.42 96.7013 259.353 96.602 259.263 96.4668C257.366 93.6419 244.962 75.1656 244.962 72.656C244.962 70.0263 236.175 66.9584 233.978 66.9584C232.221 66.9584 222.186 61.9383 217.5 61.5C216.914 62.0844 214.295 68.1856 207.617 71.3412C199.27 75.2857 199.27 82.2982 199.27 89.7489ZM225.63 112.978C220.358 110.874 216.99 96.6153 215.965 89.7489L224.312 109.91L237.932 110.714C233.63 112.677 229.134 114.376 225.63 112.978Z" fill="#4C4E9B"/>
<path d="M215.965 89.7489C216.99 96.6153 220.358 110.874 225.63 112.978C229.134 114.376 233.63 112.677 237.932 110.714L224.312 109.91L215.965 89.7489Z" fill="#4C4E9B"/>
<path d="M215.351 89.051C216.383 96.0283 219.772 110.517 225.076 112.655C228.6 114.075 233.124 112.35 237.452 110.354L223.75 109.537L215.351 89.051Z" fill="#363983"/>
<path d="M254.249 113.546C254.249 116.752 245.409 121.711 240.988 123.789C244.967 126.016 268.394 124.234 269.72 120.671C271.046 117.109 263.974 104.193 263.09 102.412C262.382 100.987 253.07 87.2696 248.503 80.5892C251.155 87.5665 256.459 101.699 256.459 102.412C256.459 103.302 254.249 109.537 254.249 113.546Z" fill="#363983"/>
<path d="M214.025 127.798L216.235 136.259C223.455 134.181 238.513 128.777 240.988 123.789C235.684 126.016 222.866 129.935 214.025 127.798Z" fill="#363983"/>
<path d="M235.376 76.1004C236.084 76.1004 237.439 72.5376 238.028 70.7561L235.376 66.3021C235.376 67.193 234.139 69.1528 229.188 69.8654C223 70.7561 217.695 63.185 217.695 65.4118C217.695 67.6386 214.601 68.9747 215.043 71.6468C215.397 73.7846 223.147 76.6942 226.978 77.8818L230.072 72.5376C231.545 73.7252 234.669 76.1004 235.376 76.1004Z" fill="#363983"/>
<path d="M261.174 107.963C262.928 112.924 255.914 112.924 254.599 112.924L251.969 107.512C252.261 106.911 253.109 105.438 254.161 104.355C255.476 103.002 259.421 103.002 261.174 107.963Z" fill="#F4A392"/>
<path d="M232.243 107.963C233.558 107.963 233.558 110.669 233.558 112.924C231.075 113.676 225.405 115.179 222.6 115.179C219.093 115.179 220.408 110.669 221.723 107.963C223.038 105.257 230.928 107.963 232.243 107.963Z" fill="#F4A392"/>
<path d="M228.799 69.8594C223.312 69.8594 218.224 65.2472 216.366 62.9411L215.08 52.9961C227.77 63.7194 235.802 60.635 238.231 57.7524L240.375 59.482C238.803 62.9411 234.287 69.8594 228.799 69.8594Z" fill="#E6836E"/>
<path d="M237.052 26.1999C234.211 34.0047 220.187 39.3558 213.973 40.3905C212.908 49.6145 216.192 53.9899 217.967 55.0247C219.298 61.2331 216.635 69.6588 215.304 70.9892C213.972 72.3195 206.872 71.8761 201.99 77.1976C197.108 82.5191 201.546 96.7098 201.99 99.3705C193.114 94.4929 197.551 79.4149 197.551 74.093C197.551 68.771 194 58.1285 194 52.8069C194 47.4854 198.438 41.7205 201.101 39.0597C203.764 36.399 201.99 29.7475 207.759 22.2087C213.528 14.6699 241.49 9.79189 242.377 19.1045C243.265 28.4171 247.26 27.0868 250.366 36.3994C253.473 45.712 242.377 57.6854 241.49 62.5634C240.602 67.4415 243.709 66.5546 245.04 70.1022C245.932 72.4789 246.625 76.4478 246.985 78.4089C247.161 78.8535 247.26 79.2056 247.26 79.4149C247.26 79.854 247.163 79.3751 246.985 78.4089C246.047 76.0275 242.916 70.9892 241.046 70.9892C238.827 70.9892 234.389 67.885 234.389 66.5546V60.3462C237.229 60.3462 241.046 55.4681 242.377 51.0335C243.709 46.5989 241.046 31.5214 241.046 29.7475C241.046 27.9737 238.383 26.6433 237.052 26.1999Z" fill="#292C6B"/>
<path d="M152.625 227.406C150.433 230.522 147.61 235.057 144.743 240.474C147.167 238.199 150.933 235.758 155.336 235.716C163.097 235.64 162.426 244.219 155.336 246.552C149.192 248.573 143.513 248.052 141.953 246.016C139.839 250.442 137.805 255.262 136.096 260.253C135.998 260.539 135.901 260.826 135.804 261.115C135.684 261.473 135.565 261.832 135.448 262.192C137.156 259.941 139.798 257.038 142.486 255.732C146.977 253.55 152.798 255.581 151.529 260.021C150.261 264.461 144.514 267.847 140.484 267.998C137.362 268.114 134.868 268.167 133.902 267.248C132.377 272.595 131.175 278.039 130.354 283.534C131.857 280.61 134.441 276.903 137.573 275.974C142.648 274.469 145.634 275.522 145.857 279.812C146.081 284.101 139.066 289.218 135.334 289.444C132.831 289.595 130.727 289.548 129.622 289.433C129.197 293.756 129.016 298.101 129.108 302.446L127.68 302.477C127.546 296.107 127.988 289.744 128.921 283.453C127.983 283.821 126.31 283.833 123.766 282.445C119.214 279.962 116.602 272.513 117.05 268.524C117.497 264.536 122.199 263.182 125.334 265.665C127.463 267.351 129.091 273.569 129.897 277.787C130.954 272.391 132.359 267.062 134.059 261.843C133.136 261.953 131.78 261.017 129.737 259.494C126.304 256.936 124.363 250.991 124.438 246.853C124.513 242.714 129.662 238.199 133.469 243.015C135.909 246.102 136.37 251.747 136.253 255.636C138.321 250.24 140.701 245.124 143.071 240.584C139.641 241.93 135.7 231.786 135.633 226.836C135.558 221.343 141.902 216.678 145.26 221.268C147.55 224.397 146.931 230.929 146.082 235.095C148.173 231.469 150.143 228.419 151.752 226.166C151.633 222.531 152.506 216.107 156.903 212.539C163.023 207.573 168.545 208.626 166.605 215.85C164.82 222.495 156.152 227.421 152.625 227.406Z" fill="#121334"/>
<path d="M46.3752 227.406C48.5669 230.522 51.3897 235.057 54.2572 240.474C51.8333 238.199 48.0667 235.758 43.6644 235.716C35.9027 235.64 36.5744 244.219 43.6644 246.552C49.8081 248.573 55.4873 248.052 57.0466 246.016C59.1611 250.442 61.1946 255.262 62.9036 260.253C63.0015 260.539 63.0988 260.826 63.1955 261.115C63.3158 261.473 63.4346 261.832 63.5521 262.192C61.8442 259.941 59.202 257.038 56.5144 255.732C52.0231 253.55 46.2019 255.581 47.4706 260.021C48.7393 264.461 54.486 267.847 58.5161 267.998C61.6375 268.114 64.1322 268.167 65.0984 267.248C66.6235 272.595 67.8249 278.039 68.6465 283.534C67.1426 280.61 64.5595 276.903 61.4267 275.974C56.3518 274.469 53.3665 275.522 53.1426 279.812C52.9187 284.101 59.9341 289.218 63.6657 289.444C66.1694 289.595 68.2727 289.548 69.3783 289.433C69.8033 293.756 69.9836 298.101 69.8922 302.446L71.3205 302.477C71.4544 296.107 71.0125 289.744 70.0788 283.453C71.0171 283.821 72.6896 283.833 75.2336 282.445C79.7861 279.962 82.3982 272.513 81.9504 268.524C81.5026 264.536 76.8008 263.182 73.6663 265.665C71.5373 267.351 69.9092 273.569 69.1033 277.787C68.0464 272.391 66.6409 267.062 64.9411 261.843C65.8639 261.953 67.22 261.017 69.263 259.494C72.6961 256.936 74.6365 250.991 74.5619 246.853C74.4872 242.714 69.3377 238.199 65.5315 243.015C63.0915 246.102 62.6295 251.747 62.7473 255.636C60.6787 250.24 58.2993 245.124 55.9293 240.584C59.3587 241.93 63.2999 231.786 63.3671 226.836C63.4418 221.343 57.0981 216.678 53.7397 221.268C51.4504 224.397 52.069 230.929 52.9176 235.095C50.8271 231.469 48.8573 228.419 47.2476 226.166C47.3673 222.531 46.4936 216.107 42.0971 212.539C35.9773 207.573 30.4546 208.626 32.395 215.85C34.1799 222.495 42.8481 227.421 46.3752 227.406Z" fill="#121334"/>
<path d="M48.6004 175.601C52.8084 181.531 58.2281 190.162 63.7338 200.472C59.08 196.142 51.8481 191.497 43.3956 191.416C28.4932 191.272 29.7828 207.599 43.3956 212.039C55.1916 215.886 66.0957 214.894 69.0894 211.019C73.1494 219.444 77.0536 228.617 80.3348 238.116C80.5229 238.66 80.7098 239.207 80.8954 239.755C81.1263 240.438 81.3545 241.122 81.58 241.806C78.3008 237.521 73.2279 231.996 68.0677 229.511C59.4444 225.358 48.2676 229.225 50.7036 237.674C53.1395 246.124 64.1731 252.569 71.9109 252.855C77.904 253.077 82.6937 253.178 84.5489 251.429C87.477 261.606 89.7838 271.966 91.3613 282.424C88.4738 276.859 83.5142 269.804 77.4993 268.036C67.7554 265.172 62.0237 267.177 61.5938 275.34C61.1639 283.503 74.6334 293.242 81.7981 293.672C86.6052 293.96 90.6437 293.871 92.7662 293.652C93.5823 301.879 93.9285 310.148 93.753 318.419L96.4953 318.477C96.7525 306.353 95.9039 294.243 94.1113 282.27C95.9129 282.971 99.124 282.994 104.008 280.353C112.749 275.627 117.765 261.448 116.905 253.858C116.045 246.267 107.018 243.689 100.999 248.416C96.9116 251.626 93.7857 263.459 92.2383 271.488C90.2091 261.216 87.5105 251.074 84.2469 241.142C86.0187 241.352 88.6224 239.57 92.545 236.672C99.1365 231.802 102.862 220.488 102.719 212.612C102.576 204.735 92.6883 196.142 85.3804 205.308C80.6956 211.183 79.8087 221.927 80.0348 229.329C76.063 219.058 71.4946 209.323 66.9443 200.681C73.5287 203.243 81.0958 183.937 81.2249 174.516C81.3682 164.061 69.1883 155.182 62.7401 163.918C58.3448 169.873 59.5324 182.305 61.1619 190.234C57.148 183.333 53.3659 177.529 50.2754 173.24C50.5052 166.322 48.8277 154.096 40.3865 147.305C28.6365 137.853 18.0328 139.858 21.7584 153.607C25.1855 166.254 41.8283 175.629 48.6004 175.601Z" fill="#24255C"/>
<path d="M338.998 198.136C341.928 202.927 347.369 214.889 345.683 224.411C341.616 223.468 333.202 221.684 332.084 222.09C336.39 223.895 345.106 227.78 345.521 228.873C344.421 234.4 340.607 247.512 334.149 255.739C329.418 254.398 319.507 251.952 317.703 252.897C321.616 254.551 329.875 258.19 331.606 259.51C330.441 261.608 327.842 266.014 326.764 266.861C322.484 265.495 313.055 263.13 309.584 264.596C312.574 266.844 318.994 272.218 320.749 275.725C314.248 286.942 304.136 303.083 283.108 317.713C281.446 317.245 277.609 316.516 276.626 315.712C277.929 317.053 280.731 319.186 281.713 319.203C278.233 321.346 269.608 326.546 262.742 328C249.176 310.126 247.366 296.139 248.157 291.38C251.866 290.988 262.975 287.094 268.066 285.196C264.789 285.721 254.77 282.834 250.17 281.325C249.776 280.846 250.181 278.886 250.432 277.966C251.852 278.437 259.778 279.198 264.537 279.604C261.16 279.083 254.253 276.749 250.819 275.495C263.635 231.849 286.438 207.51 296.237 200.796C299.972 203.378 305.188 209.724 307.33 212.573C311.101 205.196 309.61 197.776 308.393 194.989C322.869 190.236 334.828 195.107 338.998 198.136Z" fill="#2F3175"/>
<path d="M339.019 198C296.8 236.358 270.749 300.649 263 328C269.846 326.544 278.444 321.339 281.912 319.194C280.934 319.177 278.14 317.041 276.841 315.699C277.821 316.504 281.647 317.234 283.303 317.702C304.266 303.057 314.346 286.899 320.827 275.671C319.077 272.159 312.678 266.78 309.697 264.53C313.157 263.062 322.557 265.43 326.824 266.797C327.898 265.95 330.489 261.538 331.65 259.439C329.925 258.117 321.692 254.474 317.791 252.818C319.589 251.873 329.47 254.321 334.185 255.663C340.624 247.428 344.426 234.302 345.523 228.769C345.109 227.675 336.42 223.787 332.127 221.979C333.242 221.573 341.629 223.359 345.684 224.302C347.364 214.771 341.941 202.796 339.019 198Z" fill="#24255C"/>
<path d="M318.875 230.544C315.806 234.9 311.854 241.24 307.84 248.814C311.233 245.633 316.507 242.22 322.67 242.161C333.536 242.056 332.596 254.049 322.67 257.31C314.069 260.136 306.118 259.407 303.935 256.561C300.974 262.75 298.128 269.488 295.735 276.466C295.598 276.866 295.462 277.267 295.326 277.67C295.158 278.172 294.992 278.674 294.827 279.177C297.218 276.029 300.917 271.971 304.68 270.145C310.968 267.094 319.117 269.935 317.341 276.142C315.565 282.349 307.52 287.083 301.877 287.293C297.507 287.456 294.015 287.53 292.662 286.245C290.527 293.721 288.845 301.332 287.695 309.014C289.8 304.926 293.417 299.744 297.803 298.445C304.908 296.341 309.087 297.814 309.4 303.81C309.714 309.807 299.892 316.961 294.668 317.276C291.163 317.488 288.218 317.423 286.67 317.262C286.075 323.305 285.823 329.38 285.951 335.455L283.951 335.497C283.764 326.592 284.383 317.696 285.69 308.9C284.376 309.415 282.035 309.432 278.473 307.492C272.099 304.021 268.443 293.605 269.069 288.03C269.696 282.454 276.279 280.56 280.667 284.032C283.648 286.39 285.927 295.083 287.055 300.98C288.535 293.435 290.503 285.985 292.882 278.689C291.591 278.843 289.692 277.534 286.832 275.405C282.025 271.828 279.309 263.517 279.413 257.731C279.518 251.945 286.727 245.633 292.056 252.366C295.472 256.682 296.119 264.574 295.954 270.011C298.85 262.466 302.181 255.315 305.499 248.967C300.698 250.849 295.18 236.667 295.086 229.747C294.982 222.067 303.863 215.544 308.564 221.962C311.769 226.336 310.903 235.468 309.715 241.293C312.642 236.223 315.4 231.96 317.653 228.809C317.486 223.728 318.709 214.746 324.864 209.758C333.432 202.815 341.164 204.288 338.447 214.387C335.948 223.677 323.813 230.564 318.875 230.544Z" fill="#121334"/>
<path d="M109.6 316.3C112.3 316.3 120.851 312.7 122.201 312.7L129.851 310C131.051 312.55 132.551 317.65 128.951 317.65C124.451 317.65 106 319 106 317.65C106 316.3 106.9 316.3 109.6 316.3Z" fill="#121334"/>
<path d="M151.286 319.811C149.623 316.053 155.722 311.221 156.277 310.147L162.376 308C163.67 311.221 165.924 318.308 164.594 320.885C162.93 324.106 152.95 323.569 151.286 319.811Z" fill="#121334"/>
<path d="M166.302 51.0018C166.752 56.8521 171.253 64.9524 171.703 66.7525C171.103 67.6525 168.462 69.9027 162.702 71.7027C156.942 73.5028 150.402 70.9527 147.852 69.4526C148.302 65.2524 149.292 56.6721 149.652 55.952C150.102 55.052 165.852 45.1516 166.302 51.0018Z" fill="#E6836E"/>
<path d="M175 168.999C175 168.999 174.5 227.5 172.5 248C170.5 268.5 164.163 305.927 164.612 309.303C165.062 312.679 160.414 311.929 158.767 311.929C157.454 311.929 153.609 311.929 154.271 308.553C154.933 305.176 151.07 198.328 149.5 198C147.702 197.625 137 278.124 137 281.5C137 284.876 131.79 310.5 129.542 311.929C127.294 313.358 122 315.106 121 309.303C120 303.5 121.387 192.5 128.194 172C135 151.5 175 168.999 175 168.999Z" fill="#262865"/>
<path d="M184.752 128.856C184.752 132.006 174.499 171.157 174.499 171.157C174.499 171.157 167.5 174 157 174C146.5 174 128.5 171.157 128.5 171.157C128.5 171.157 134.35 78.4534 134.35 76.6534C134.35 75.2133 142.451 71.5531 146.501 69.9031C149.201 70.8031 155.591 72.6032 159.551 72.6032C163.512 72.6032 169.602 68.703 172.152 66.7529C180.102 68.253 196.543 72.3332 198.703 76.6534C201.403 82.0536 184.752 125.705 184.752 128.856Z" fill="#31337E"/>
<path d="M123.1 129.306C128.051 129.306 143.801 123.455 149.202 121.205C152.442 119.92 152.352 113.169 151.902 109.954C145.301 110.704 131.921 112.024 131.201 111.304C130.481 110.584 133.363 87.3036 134.894 75.7533C132.244 76.5266 128.736 84.2403 126.701 87.9038C124.451 91.954 112.75 124.355 112.75 127.506C112.75 130.656 118.15 129.306 123.1 129.306Z" fill="#292C6B"/>
<path d="M134.8 113.554C129.85 110.404 138.85 104.103 139.75 103.653C148.001 106.953 165.582 113.554 169.902 113.554C175.302 113.554 191.55 87.3003 196.5 81.0001C200.46 75.9598 196.5 95 192.853 103.653C190.003 112.954 183.133 132.005 178.453 133.805C163.152 135.605 139.75 116.704 134.8 113.554Z" fill="#40428D"/>
<path d="M130.3 100.954C132.101 100.954 138.401 102.304 140.201 103.654L134.351 111.755C131.801 111.155 126.25 109.684 124.45 108.604C122.2 107.254 128.5 100.954 130.3 100.954Z" fill="#F4A392"/>
<path d="M169.003 116.705C164.322 117.065 159.252 112.655 157.302 110.405C158.202 108.154 169.903 102.754 172.153 103.204C174.403 103.654 175.753 107.254 175.753 108.604C175.753 109.954 174.853 116.255 169.003 116.705Z" fill="#F4A392"/>
<path d="M157.752 69.9021C157.752 70.3521 159.704 77.5525 161.352 78.0025C163 78.4525 173.053 68.3721 173.053 67.652C173.053 66.932 171 62.5 168.553 61.8018C166.105 61.1035 157.752 69.5421 157.752 69.9021Z" fill="#40428D"/>
<path d="M145.602 71.2522C145.602 72.3322 149.104 78.405 150.552 78.4525C152 78.5 154 72.5 153.702 71.2522C153.404 70.0044 149.952 67.052 148.302 64.9519C147.402 66.602 145.602 70.1721 145.602 71.2522Z" fill="#40428D"/>
<path d="M169.001 46.9509C168.551 55.9513 158.651 60.4515 155.051 60.4515C147.491 61.8916 143.2 52.9512 142 48.301C141.25 48.9011 139.21 49.1111 137.05 45.1509C134.89 41.1907 138.55 39.3006 140.65 38.8506C140.8 32.5503 141.46 19.7698 142.9 19.0497C144.7 18.1497 153.701 16.7996 164.051 19.0497C172.332 20.8498 171.702 30.6002 170.352 35.2504C171.552 35.4004 174.312 36.6905 175.752 40.6507C177.192 44.6108 171.852 46.5009 169.001 46.9509Z" fill="#F4A392"/>
<path d="M137.052 19.5006C137.603 16.0012 140.701 8 144.5 8C151.143 8 169.015 14.5966 170.803 21.7507C175.5 27.5 172 37 169.003 39.7515C168.853 37.5014 168.606 33.7023 168.553 32.1011C168.5 30.5 152.352 19.5006 146.052 21.3007C139.752 23.1007 141.102 34.8012 141.102 36.1513C141.102 37.2314 141.95 40.9 141.5 41.5C132.948 38.6494 135.999 26.1838 137.052 19.5006Z" fill="#292C6B"/>
</svg>
