<svg width="339" height="380" viewBox="0 0 339 380" fill="none" xmlns="http://www.w3.org/2000/svg">
<path d="M335.67 211.488C341.514 369.132 268.879 382.895 185.39 378.725C101.901 374.554 -2.46043 334.517 0.0442351 211.488C2.54891 88.4587 82.2807 52.5033 144.897 53.3374C207.514 54.1715 329.826 53.8433 335.67 211.488Z" fill="#191A44"/>
<path d="M243.322 201.717C244.926 177.036 238.11 157.616 237.308 154.379C234.769 155.728 229.21 159.234 227.285 162.471C224.88 166.517 218.465 211.023 218.465 217.496C218.465 222.675 219.534 277.647 220.069 304.485L223.276 306.912C229.423 280.074 242.039 221.461 243.322 201.717Z" fill="#262865"/>
<path d="M197.03 198.708C193.769 169.041 201.65 160.012 205.998 159.206C214.015 160.147 230.049 162.431 230.049 164.043C230.049 165.655 225.701 195.08 223.527 209.591C222.44 238.612 218.207 302.873 218.207 305.13C218.207 307.952 213.17 311.634 213.17 305.588C213.17 299.542 201.106 235.791 197.03 198.708Z" fill="#2F3176"/>
<path d="M232.451 306.962C229.978 306.962 228.198 305.771 226.961 305.771L219.954 303.298C218.854 305.634 217.48 310.305 220.778 310.305C224.9 310.305 237.221 311.542 237.221 310.305C237.221 309.069 234.924 306.962 232.451 306.962Z" fill="#121334"/>
<path d="M221.254 312.148C222.451 309.624 219.111 304.935 218.712 304.214C218.712 304.214 214.59 302.84 213.273 304.214C211.956 305.588 210.719 311.138 211.677 312.869C212.874 315.033 220.057 314.672 221.254 312.148Z" fill="#121334"/>
<path d="M232.564 75.1653C232.564 78.4133 225.824 82.2026 222.454 83.6913C209.918 90.1871 198.191 67.8575 198.191 65.0155C198.191 62.1735 210.727 56.0833 214.771 52.4293C218.815 48.7753 224.072 44.7154 229.329 49.1813C234.586 53.6473 232.564 71.1053 232.564 75.1653Z" fill="#F4A392"/>
<path fill-rule="evenodd" clip-rule="evenodd" d="M191.432 108.88C191.432 115.705 200.688 135.778 205.517 143.807C205.517 145.092 202.834 153.71 201.492 157.858C210.829 165.566 221.748 167.76 226.041 167.894L229.26 163.077L233.285 167.894C235.968 166.556 241.333 163.719 241.333 163.077C241.333 162.86 241.098 161.149 240.771 158.767C239.888 152.331 238.331 140.997 238.919 140.997C239.724 140.997 251.797 139.391 255.418 137.384C259.04 135.377 247.37 116.508 246.565 115.304C246.528 115.249 246.467 115.158 246.384 115.034C244.647 112.446 233.285 95.5223 233.285 93.2236C233.285 90.8148 225.236 88.0047 223.224 88.0047C221.614 88.0047 212.423 83.4063 208.13 83.0049C207.594 83.5402 205.195 89.1287 199.078 92.0192C191.432 95.6323 191.432 102.056 191.432 108.88ZM215.578 130.157C210.748 128.23 207.663 115.17 206.724 108.88L214.37 127.347L226.846 128.084C222.905 129.882 218.787 131.438 215.578 130.157Z" fill="#4C4E9B"/>
<path d="M206.724 108.88C207.663 115.17 210.748 128.23 215.578 130.157C218.787 131.438 222.905 129.882 226.846 128.084L214.37 127.347L206.724 108.88Z" fill="#4C4E9B"/>
<path d="M206.164 108.241C207.108 114.632 210.213 127.903 215.071 129.862C218.3 131.163 222.444 129.582 226.408 127.754L213.856 127.006L206.164 108.241Z" fill="#363983"/>
<path d="M241.793 130.677C241.793 133.615 233.696 138.156 229.647 140.06C233.291 142.1 254.75 140.468 255.964 137.204C257.179 133.941 250.701 122.111 249.891 120.479C249.243 119.174 240.714 106.609 236.53 100.49C238.959 106.881 243.818 119.826 243.818 120.479C243.818 121.295 241.793 127.006 241.793 130.677Z" fill="#363983"/>
<path d="M204.949 143.732L206.973 151.482C213.586 149.579 227.379 144.629 229.647 140.06C224.788 142.1 213.047 145.69 204.949 143.732Z" fill="#363983"/>
<path d="M224.506 96.3787C225.154 96.3787 226.396 93.1152 226.935 91.4834L224.506 87.4037C224.506 88.2197 223.372 90.0148 218.838 90.6675C213.169 91.4834 208.311 84.5485 208.311 86.5882C208.311 88.6279 205.477 89.8517 205.881 92.2993C206.205 94.2574 213.304 96.9226 216.813 98.0104L219.647 93.1152C220.997 94.203 223.858 96.3787 224.506 96.3787Z" fill="#363983"/>
<path d="M248.135 125.564C249.741 130.109 243.317 130.109 242.112 130.109L239.703 125.151C239.971 124.6 240.747 123.251 241.711 122.259C242.915 121.02 246.529 121.02 248.135 125.564Z" fill="#F4A392"/>
<path d="M221.635 125.564C222.839 125.564 222.839 128.043 222.839 130.109C220.564 130.797 215.371 132.174 212.801 132.174C209.589 132.174 210.794 128.043 211.998 125.564C213.203 123.086 220.43 125.564 221.635 125.564Z" fill="#F4A392"/>
<path d="M218.481 90.6623C213.454 90.6623 208.794 86.4376 207.092 84.3253L205.914 75.2158C217.538 85.0382 224.895 82.2129 227.12 79.5725L229.084 81.1568C227.644 84.3253 223.507 90.6623 218.481 90.6623Z" fill="#E6836E"/>
<path d="M226.04 50.6709C223.438 57.82 210.592 62.7215 204.9 63.6693C203.925 72.1182 206.933 76.126 208.559 77.0738C209.778 82.7606 207.339 90.4784 206.119 91.697C204.9 92.9156 198.396 92.5094 193.924 97.3837C189.452 102.258 193.517 115.256 193.924 117.694C185.794 113.226 189.858 99.4147 189.858 94.54C189.858 89.6652 186.605 79.9168 186.605 75.0424C186.605 70.1681 190.671 64.8875 193.11 62.4503C195.549 60.0131 193.924 53.9205 199.208 47.0151C204.493 40.1097 230.105 35.6416 230.918 44.1717C231.731 52.7019 235.39 51.4833 238.236 60.0135C241.082 68.5436 230.918 79.511 230.105 83.9792C229.292 88.4474 232.138 87.635 233.357 90.8846C234.175 93.0616 234.809 96.697 235.139 98.4933C235.3 98.9006 235.39 99.223 235.39 99.4147C235.39 99.817 235.302 99.3783 235.139 98.4933C234.279 96.3119 231.411 91.697 229.699 91.697C227.666 91.697 223.601 88.8536 223.601 87.635V81.9482C226.202 81.9482 229.699 77.48 230.918 73.418C232.138 69.356 229.699 55.5453 229.699 53.9205C229.699 52.2957 227.259 51.0771 226.04 50.6709Z" fill="#292C6B"/>
<path d="M145.625 234.253C143.433 237.369 140.61 241.904 137.743 247.321C140.167 245.046 143.933 242.605 148.336 242.562C156.097 242.487 155.426 251.066 148.336 253.398C142.192 255.42 136.513 254.898 134.953 252.863C132.839 257.289 130.805 262.109 129.096 267.1C128.998 267.386 128.901 267.673 128.804 267.961C128.684 268.32 128.565 268.679 128.448 269.039C130.156 266.787 132.798 263.884 135.486 262.579C139.977 260.396 145.798 262.428 144.529 266.868C143.261 271.308 137.514 274.694 133.484 274.844C130.362 274.961 127.868 275.014 126.902 274.095C125.377 279.442 124.175 284.885 123.354 290.38C124.857 287.457 127.441 283.75 130.573 282.821C135.648 281.316 138.634 282.369 138.857 286.658C139.081 290.948 132.066 296.064 128.334 296.29C125.831 296.442 123.727 296.395 122.622 296.28C122.197 300.603 122.016 304.947 122.108 309.293L120.68 309.323C120.546 302.953 120.988 296.59 121.921 290.299C120.983 290.668 119.31 290.68 116.766 289.292C112.214 286.809 109.602 279.359 110.05 275.371C110.497 271.383 115.199 270.028 118.334 272.512C120.463 274.198 122.091 280.416 122.897 284.634C123.954 279.237 125.359 273.909 127.059 268.69C126.136 268.8 124.78 267.864 122.737 266.341C119.304 263.783 117.363 257.838 117.438 253.699C117.513 249.561 122.662 245.046 126.469 249.862C128.909 252.949 129.37 258.594 129.253 262.483C131.321 257.086 133.701 251.971 136.071 247.431C132.641 248.777 128.7 238.633 128.633 233.683C128.558 228.19 134.902 223.524 138.26 228.115C140.55 231.243 139.931 237.776 139.082 241.941C141.173 238.315 143.143 235.266 144.752 233.012C144.633 229.378 145.506 222.954 149.903 219.386C156.023 214.419 161.545 215.473 159.605 222.697C157.82 229.342 149.152 234.268 145.625 234.253Z" fill="#121334"/>
<path d="M39.3752 234.253C41.5669 237.369 44.3897 241.904 47.2572 247.321C44.8333 245.046 41.0667 242.605 36.6644 242.562C28.9027 242.487 29.5744 251.066 36.6644 253.398C42.8081 255.42 48.4873 254.898 50.0466 252.863C52.1611 257.289 54.1946 262.109 55.9036 267.1C56.0015 267.386 56.0988 267.673 56.1955 267.961C56.3158 268.32 56.4346 268.679 56.5521 269.039C54.8442 266.787 52.202 263.884 49.5144 262.579C45.0231 260.396 39.2019 262.428 40.4706 266.868C41.7393 271.308 47.486 274.694 51.5161 274.844C54.6375 274.961 57.1322 275.014 58.0984 274.095C59.6235 279.442 60.8249 284.885 61.6465 290.38C60.1426 287.457 57.5595 283.75 54.4267 282.821C49.3518 281.316 46.3665 282.369 46.1426 286.658C45.9187 290.948 52.9341 296.064 56.6657 296.29C59.1694 296.442 61.2727 296.395 62.3783 296.28C62.8033 300.603 62.9836 304.947 62.8922 309.293L64.3205 309.323C64.4544 302.953 64.0125 296.59 63.0788 290.299C64.0171 290.668 65.6896 290.68 68.2336 289.292C72.7861 286.809 75.3982 279.359 74.9504 275.371C74.5026 271.383 69.8008 270.028 66.6663 272.512C64.5373 274.198 62.9092 280.416 62.1033 284.634C61.0464 279.237 59.6409 273.909 57.9411 268.69C58.8639 268.8 60.22 267.864 62.263 266.341C65.6961 263.783 67.6365 257.838 67.5619 253.699C67.4872 249.561 62.3377 245.046 58.5315 249.862C56.0915 252.949 55.6295 258.594 55.7473 262.483C53.6787 257.086 51.2993 251.971 48.9293 247.431C52.3587 248.777 56.2999 238.633 56.3671 233.683C56.4418 228.19 50.0981 223.524 46.7397 228.115C44.4504 231.243 45.069 237.776 45.9176 241.941C43.8271 238.315 41.8573 235.266 40.2476 233.012C40.3673 229.378 39.4936 222.954 35.0971 219.386C28.9773 214.419 23.4546 215.473 25.395 222.697C27.1799 229.342 35.8481 234.268 39.3752 234.253Z" fill="#121334"/>
<path d="M41.6004 182.448C45.8084 188.377 51.2281 197.009 56.7338 207.319C52.08 202.989 44.8481 198.343 36.3956 198.262C21.4932 198.119 22.7828 214.446 36.3956 218.885C48.1916 222.733 59.0957 221.74 62.0894 217.866C66.1494 226.29 70.0536 235.464 73.3348 244.962C73.5229 245.507 73.7098 246.053 73.8954 246.602C74.1263 247.285 74.3545 247.968 74.58 248.653C71.3008 244.368 66.2279 238.843 61.0677 236.358C52.4444 232.204 41.2676 236.071 43.7036 244.521C46.1395 252.971 57.1731 259.415 64.9109 259.702C70.904 259.924 75.6937 260.024 77.5489 258.275C80.477 268.453 82.7838 278.812 84.3613 289.271C81.4738 283.706 76.5142 276.651 70.4993 274.883C60.7554 272.018 55.0237 274.024 54.5938 282.187C54.1639 290.35 67.6334 300.089 74.7981 300.518C79.6052 300.807 83.6437 300.718 85.7662 300.498C86.5823 308.726 86.9285 316.995 86.753 325.266L89.4953 325.323C89.7525 313.2 88.9039 301.09 87.1113 289.116C88.9129 289.817 92.124 289.84 97.0084 287.199C105.749 282.473 110.765 268.295 109.905 260.704C109.045 253.114 100.018 250.536 93.9993 255.262C89.9116 258.472 86.7857 270.306 85.2383 278.334C83.2091 268.063 80.5105 257.921 77.2469 247.989C79.0187 248.198 81.6224 246.416 85.545 243.519C92.1365 238.649 95.8621 227.335 95.7188 219.458C95.5755 211.581 85.6883 202.988 78.3804 212.154C73.6956 218.03 72.8087 228.773 73.0348 236.176C69.063 225.904 64.4946 216.169 59.9443 207.528C66.5287 210.09 74.0958 190.784 74.2249 181.363C74.3682 170.908 62.1883 162.029 55.7401 170.765C51.3448 176.72 52.5324 189.152 54.1619 197.081C50.148 190.179 46.3659 184.376 43.2754 180.086C43.5052 173.169 41.8277 160.942 33.3865 154.152C21.6365 144.7 11.0328 146.705 14.7584 160.453C18.1855 173.1 34.8283 182.475 41.6004 182.448Z" fill="#24255C"/>
<path d="M331.998 204.982C334.928 209.773 340.369 221.736 338.683 231.257C334.616 230.315 326.202 228.531 325.084 228.936C329.39 230.742 338.106 234.626 338.521 235.719C337.421 241.247 333.607 254.358 327.149 262.586C322.418 261.245 312.507 258.799 310.703 259.743C314.616 261.398 322.875 265.037 324.606 266.357C323.441 268.455 320.842 272.861 319.764 273.708C315.484 272.342 306.055 269.977 302.584 271.443C305.574 273.691 311.994 279.064 313.749 282.572C307.248 293.788 297.136 309.93 276.108 324.56C274.446 324.092 270.609 323.363 269.626 322.559C270.929 323.899 273.731 326.033 274.713 326.05C271.233 328.192 262.608 333.392 255.742 334.847C242.176 316.973 240.366 302.986 241.157 298.227C244.866 297.835 255.975 293.94 261.066 292.042C257.789 292.568 247.77 289.681 243.17 288.172C242.776 287.693 243.181 285.733 243.432 284.813C244.852 285.284 252.778 286.045 257.537 286.451C254.16 285.929 247.253 283.596 243.819 282.341C256.635 238.696 279.438 214.356 289.237 207.643C292.972 210.225 298.188 216.57 300.33 219.42C304.101 212.043 302.61 204.623 301.393 201.835C315.869 197.083 327.828 201.953 331.998 204.982Z" fill="#2F3175"/>
<path d="M332.019 204.847C289.8 243.205 263.749 307.496 256 334.847C262.846 333.391 271.444 328.185 274.912 326.041C273.934 326.024 271.14 323.888 269.841 322.546C270.821 323.351 274.647 324.08 276.303 324.549C297.266 309.904 307.346 293.745 313.827 282.517C312.077 279.006 305.678 273.627 302.697 271.376C306.157 269.909 315.557 272.277 319.824 273.644C320.898 272.796 323.489 268.385 324.65 266.286C322.925 264.964 314.692 261.321 310.791 259.665C312.589 258.719 322.47 261.168 327.185 262.51C333.624 254.274 337.426 241.149 338.523 235.616C338.109 234.522 329.42 230.633 325.127 228.826C326.242 228.42 334.629 230.206 338.684 231.149C340.364 221.618 334.941 209.643 332.019 204.847Z" fill="#24255C"/>
<path d="M311.875 237.39C308.806 241.746 304.854 248.087 300.84 255.66C304.233 252.48 309.507 249.067 315.67 249.008C326.536 248.902 325.596 260.896 315.67 264.157C307.069 266.983 299.118 266.254 296.935 263.408C293.974 269.596 291.128 276.335 288.735 283.313C288.598 283.712 288.462 284.114 288.326 284.517C288.158 285.018 287.992 285.521 287.827 286.024C290.218 282.876 293.917 278.817 297.68 276.992C303.968 273.941 312.117 276.781 310.341 282.988C308.565 289.195 300.52 293.93 294.877 294.14C290.507 294.303 287.015 294.377 285.662 293.092C283.527 300.568 281.845 308.178 280.695 315.861C282.8 311.773 286.417 306.59 290.803 305.292C297.908 303.187 302.087 304.66 302.4 310.657C302.714 316.654 292.892 323.807 287.668 324.123C284.163 324.335 281.218 324.269 279.67 324.108C279.075 330.152 278.823 336.226 278.951 342.302L276.951 342.344C276.764 333.439 277.383 324.543 278.69 315.747C277.376 316.262 275.035 316.279 271.473 314.339C265.099 310.867 261.443 300.452 262.069 294.876C262.696 289.301 269.279 287.407 273.667 290.879C276.648 293.237 278.927 301.929 280.055 307.827C281.535 300.282 283.503 292.832 285.882 285.536C284.591 285.69 282.692 284.381 279.832 282.252C275.025 278.675 272.309 270.364 272.413 264.578C272.518 258.791 279.727 252.479 285.056 259.212C288.472 263.529 289.119 271.42 288.954 276.858C291.85 269.313 295.181 262.162 298.499 255.814C293.698 257.696 288.18 243.514 288.086 236.593C287.982 228.914 296.863 222.391 301.564 228.808C304.769 233.183 303.903 242.315 302.715 248.139C305.642 243.07 308.4 238.807 310.653 235.656C310.486 230.574 311.709 221.593 317.864 216.605C326.432 209.661 334.164 211.134 331.447 221.234C328.948 230.524 316.813 237.411 311.875 237.39Z" fill="#121334"/>
<path d="M109.298 316.397C111.771 316.397 119.603 313.099 120.84 313.099L127.847 310.626C128.946 312.962 130.32 317.634 127.023 317.634C122.901 317.634 106 318.87 106 317.634C106 316.397 106.824 316.397 109.298 316.397Z" fill="#121334"/>
<path d="M147.481 319.613C145.957 316.17 151.544 311.745 152.052 310.761L157.639 308.794C158.824 311.745 160.889 318.236 159.67 320.596C158.147 323.547 149.005 323.055 147.481 319.613Z" fill="#121334"/>
<path d="M161.236 73.3883C161.649 78.7471 165.771 86.1668 166.183 87.8156C165.633 88.6401 163.215 90.7011 157.939 92.3499C152.663 93.9988 146.672 91.6629 144.336 90.2889C144.748 86.4416 145.655 78.5822 145.985 77.9226C146.397 77.0982 160.824 68.0296 161.236 73.3883Z" fill="#E6836E"/>
<path d="M169.202 181.472C169.202 181.472 168.744 235.058 166.912 253.835C165.08 272.612 159.275 306.895 159.687 309.987C160.099 313.08 155.842 312.393 154.333 312.393C153.13 312.393 149.608 312.393 150.215 309.3C150.821 306.207 147.283 208.336 145.845 208.036C144.197 207.693 134.395 281.428 134.395 284.52C134.395 287.613 129.623 311.084 127.564 312.393C125.505 313.702 120.655 315.303 119.739 309.987C118.823 304.672 120.094 202.998 126.328 184.221C132.563 165.443 169.202 181.472 169.202 181.472Z" fill="#262865"/>
<path d="M178.135 144.701C178.135 147.587 168.744 183.449 168.744 183.449C168.744 183.449 162.333 186.052 152.715 186.052C143.097 186.052 126.609 183.449 126.609 183.449C126.609 183.449 131.968 98.5338 131.968 96.885C131.968 95.5659 139.388 92.2133 143.098 90.7019C145.571 91.5263 151.424 93.1751 155.052 93.1751C158.679 93.1751 164.258 89.6026 166.594 87.8164C173.876 89.1904 188.935 92.9278 190.914 96.885C193.387 101.831 178.135 141.816 178.135 144.701Z" fill="#31337E"/>
<path d="M121.664 145.113C126.199 145.113 140.626 139.755 145.572 137.694C148.54 136.517 148.458 130.333 148.046 127.388C142 128.075 129.744 129.284 129.084 128.625C128.425 127.965 131.064 106.64 132.467 96.0605C130.04 96.7688 126.826 103.834 124.962 107.19C122.901 110.9 112.184 140.579 112.184 143.464C112.184 146.35 117.13 145.113 121.664 145.113Z" fill="#292C6B"/>
<path d="M132.381 130.685C127.846 127.799 136.091 122.028 136.915 121.616C144.472 124.639 160.577 130.685 164.534 130.685C169.48 130.685 184.363 106.637 188.897 100.866C192.524 96.2496 188.897 113.69 185.556 121.616C182.946 130.135 176.653 147.585 172.366 149.234C158.351 150.883 136.915 133.57 132.381 130.685Z" fill="#40428D"/>
<path d="M128.259 119.144C129.908 119.144 135.679 120.38 137.327 121.617L131.969 129.037C129.633 128.487 124.549 127.14 122.9 126.151C120.839 124.914 126.61 119.144 128.259 119.144Z" fill="#F4A392"/>
<path d="M163.709 133.571C159.422 133.901 154.778 129.861 152.992 127.8C153.816 125.739 164.534 120.792 166.595 121.205C168.656 121.617 169.892 124.914 169.892 126.151C169.892 127.388 169.068 133.159 163.709 133.571Z" fill="#F4A392"/>
<path d="M153.403 90.7015C153.403 91.1137 155.191 97.709 156.701 98.1212C158.21 98.5334 167.418 89.3 167.418 88.6404C167.418 87.9809 165.538 83.9213 163.296 83.2817C161.054 82.6422 153.403 90.3717 153.403 90.7015Z" fill="#40428D"/>
<path d="M142.273 91.9381C142.273 92.9274 145.481 98.4899 146.808 98.5334C148.134 98.5769 149.966 93.0811 149.693 91.9381C149.42 90.7951 146.258 88.0908 144.747 86.1672C143.922 87.6786 142.273 90.9488 142.273 91.9381Z" fill="#40428D"/>
<path d="M163.709 69.678C163.297 77.9222 154.228 82.0443 150.93 82.0443C144.005 83.3633 140.075 75.1741 138.976 70.9146C138.289 71.4643 136.421 71.6566 134.442 68.0292C132.463 64.4018 135.816 62.6705 137.74 62.2583C137.877 56.4873 138.482 44.7806 139.801 44.1211C141.45 43.2967 149.694 42.06 159.174 44.1211C166.759 45.7699 166.182 54.7011 164.945 58.9606C166.045 59.098 168.573 60.2796 169.892 63.9071C171.211 67.5345 166.319 69.2658 163.709 69.678Z" fill="#F4A392"/>
<path d="M134.442 44.5343C134.947 41.3289 137.785 34 141.264 34C147.349 34 163.719 40.0423 165.358 46.5953C169.66 51.8616 166.454 60.5634 163.709 63.0837C163.572 61.0226 163.346 57.5427 163.297 56.0761C163.248 54.6095 148.457 44.5343 142.686 46.1831C136.915 47.832 138.152 58.5494 138.152 59.786C138.152 60.7753 138.929 64.1357 138.516 64.6853C130.683 62.0742 133.478 50.656 134.442 44.5343Z" fill="#292C6B"/>
<path d="M182.605 317.224C182.605 317.224 178.748 314.133 178.064 313.996C178.064 313.996 176.039 312.491 175 313.503C175.219 312.984 175.684 312.437 176.505 312.026L178.419 311.069C178.419 311.069 179.24 310.303 181.155 311.616L185.668 314.981C185.668 314.981 188.65 317.415 189.197 316.923C189.115 317.087 188.978 317.251 188.842 317.36L186.763 318.783C186.763 318.728 185.285 319.576 182.605 317.224Z" fill="#4C4E9B"/>
<path d="M273.605 97.2236C273.605 97.2236 269.748 94.1325 269.064 93.9957C269.064 93.9957 267.039 92.4912 266 93.5034C266.219 92.9836 266.684 92.4365 267.505 92.0262L269.419 91.0688C269.419 91.0688 270.24 90.3028 272.155 91.6159L276.668 94.9805C276.668 94.9805 279.65 97.4151 280.197 96.9227C280.115 97.0869 279.978 97.251 279.842 97.3604L277.763 98.7829C277.763 98.7282 276.285 99.5762 273.605 97.2236Z" fill="#4C4E9B"/>
<path d="M100.603 217.272C100.603 217.272 102.217 212.594 102.135 211.91C102.135 211.91 102.873 209.476 101.588 208.847C102.162 208.901 102.819 209.148 103.475 209.777L105.034 211.254C105.034 211.254 106.019 211.774 105.417 214.017L103.749 219.406C103.749 219.406 102.463 223.044 103.12 223.4C102.928 223.372 102.737 223.318 102.6 223.208L100.576 221.704C100.576 221.676 99.2625 220.582 100.603 217.272Z" fill="#4C4E9B"/>
<path d="M192.419 288.272C192.419 288.272 194.033 283.594 193.951 282.91C193.951 282.91 194.69 280.476 193.404 279.847C193.979 279.901 194.635 280.148 195.292 280.777L196.851 282.254C196.851 282.254 197.836 282.774 197.234 285.017L195.565 290.406C195.565 290.406 194.279 294.044 194.936 294.4C194.744 294.372 194.553 294.318 194.416 294.208L192.392 292.704C192.392 292.676 191.079 291.582 192.419 288.272Z" fill="#5490CB"/>
<path d="M272.532 35.2757C272.532 35.2757 274.511 35.1535 275.405 34.5084C275.405 34.5084 276.692 33.7225 276.88 32.8002C276.912 32.9949 276.905 33.1882 276.918 33.3629L276.803 36.533C276.803 36.533 276.881 39.7489 271.69 39.31C271.69 39.31 273.028 40.3067 275.848 41.5697C275.848 41.5697 276.92 41.8794 277.554 43.0829C277.863 43.6554 278.085 44.457 278.048 45.5008L277.96 47.9365C277.96 47.9365 278.205 49.2034 276.315 50.0643L271.642 51.9087C271.642 51.9087 276.674 53.5419 278.266 56.0961C278.591 57.8112 277.268 59.0796 277.268 59.0796C277.268 59.0796 275.452 57.8915 270.711 55.7269C270.711 55.7269 269.091 55.0297 268.514 53.8476C268.405 53.6501 268.355 53.4354 268.325 53.202L268.14 50.2727C268.14 50.2727 268.114 48.3168 271.183 47.4791C271.183 47.4791 275.377 46.0432 275.783 45.5159C275.783 45.5159 274.355 44.3031 271.833 43.3992C271.833 43.3992 269.066 42.3122 268.735 40.7519C268.7 40.6345 268.705 40.5185 268.709 40.4025L268.934 36.8299C268.93 36.9459 269.189 35.1358 272.532 35.2757Z" fill="#4C4E9B"/>
<path d="M319.106 171.728C319.106 171.728 318.477 169.622 318.641 168.309C318.641 168.309 318.777 166.531 319.434 165.847C319.27 165.929 319.133 166.011 318.969 166.12L316.562 167.953C316.562 167.953 314.072 169.622 316.288 174.792C316.288 174.792 315.03 173.944 313.033 171.728C313.033 171.728 312.404 170.798 311.255 170.771C310.708 170.771 309.996 170.962 309.203 171.564L307.343 172.986C307.343 172.986 306.276 173.424 306.304 175.859L306.604 181.74C306.604 181.74 303.513 177.418 300.942 177.117C299.492 177.691 299 179.77 299 179.77C299 179.77 300.586 181.029 303.978 184.776C303.978 184.776 305.1 186.089 306.221 186.035C306.413 186.035 306.604 185.98 306.769 185.871L309.094 184.475C309.094 184.475 310.626 183.436 310.133 179.798C310.133 179.798 309.723 174.682 309.969 173.944C309.969 173.944 311.419 174.764 313.033 176.898C313.033 176.898 314.893 179.196 316.206 178.676C316.288 178.649 316.398 178.594 316.48 178.512L319.133 176.351C319.16 176.378 320.446 175.12 319.106 171.728Z" fill="#28B3B6"/>
<path d="M69.93 141.418C69.93 141.418 68.8303 142.829 68.5737 143.874C68.5737 143.874 68.1522 145.267 68.4454 146C68.3538 145.89 68.2622 145.78 68.1889 145.652L66.9242 143.507C66.9242 143.507 65.5312 141.473 68.7204 138.229C68.7204 138.229 67.529 138.485 65.3663 139.548C65.3663 139.548 64.6148 140.062 63.7351 139.732C63.3135 139.567 62.8553 139.2 62.4338 138.485L61.4624 136.817C61.4624 136.817 60.7842 136.139 61.5173 134.306L63.4601 129.926C63.4601 129.926 59.8495 132.254 57.8334 131.667C57.5584 131.594 57.3018 131.447 57.1002 131.246L54.8092 128.808C54.8092 128.808 53.8744 127.727 54.4609 125.601L55.6706 121.623C55.6706 121.623 57.3018 118.049 56.4771 117.848C56.642 117.866 56.7886 117.921 56.9353 118.031L58.8414 119.644C58.8414 119.644 59.7212 120.469 58.8781 122.485C58.8781 122.485 57.2102 126.535 57.1552 129.046C57.1552 129.046 58.7131 128.588 62.3788 126.81C62.3788 126.81 63.6251 126.169 64.4499 126.572C64.5965 126.645 64.7248 126.737 64.8164 126.865L66.1544 128.643C66.1544 128.643 66.9975 129.908 65.5496 132.529C65.5496 132.529 63.7167 136.286 63.6984 136.927C63.6984 136.927 65.0364 136.744 66.8875 135.644C66.8875 135.644 68.9586 134.471 69.8017 135.278C69.8567 135.333 69.9117 135.406 69.9667 135.479L71.323 137.954C71.323 137.899 71.9278 139.255 69.93 141.418Z" fill="#4C4E9B"/>
<path d="M69.9298 141.418C69.9298 141.418 68.8301 142.829 68.5735 143.874C68.5735 143.874 68.1519 145.267 68.4452 146C68.3535 145.89 68.2619 145.78 68.1886 145.652L66.9239 143.507C66.9239 143.507 65.531 141.473 68.7201 138.229C68.7201 138.229 70.4063 136.158 69.8015 135.241C69.8564 135.296 69.9114 135.37 69.9664 135.443L71.3227 137.917C71.3227 137.899 71.9275 139.255 69.9298 141.418Z" fill="#4C4E9B"/>
<path d="M61.4247 136.763L62.3961 138.431C62.8177 139.146 63.2759 139.512 63.6974 139.677C62.8177 138.834 63.6791 136.855 63.6791 136.855C63.6974 136.231 65.5119 132.456 65.5119 132.456C66.9599 129.835 66.1168 128.57 66.1168 128.57L64.7788 126.792C64.6688 126.664 64.5405 126.554 64.4122 126.499C64.8705 126.957 63.4225 129.871 63.4225 129.871L61.4797 134.252C60.7283 136.103 61.4247 136.763 61.4247 136.763Z" fill="#4C4E9B"/>
<path d="M57.1181 128.973C57.1181 128.973 56.8798 130.714 57.7962 131.613C57.5213 131.539 57.2647 131.393 57.0631 131.191L54.7721 128.753C54.7721 128.753 53.8373 127.672 54.4238 125.546L55.6335 121.569C55.6335 121.569 57.2647 117.995 56.44 117.793C56.6049 117.811 56.7515 117.866 56.8982 117.976L58.8043 119.589C58.8043 119.589 59.6841 120.414 58.841 122.43C58.841 122.412 57.1914 126.462 57.1181 128.973Z" fill="#4C4E9B"/>
<path d="M87.2951 87.5545C87.2951 87.5545 86.3104 87.1715 85.052 86.132C83.0004 84.4633 80.2102 81.1534 79.7178 75.1079C79.7178 75.1079 79.5263 67.5853 84.4776 66.8467C84.4776 66.8467 86.0368 67.1749 87.2404 68.3512C87.2404 68.3512 82.5354 68.7342 82.6174 76.5851C82.6174 76.5851 82.891 83.2871 87.4046 87.1988C87.4046 87.1988 93.6142 89.7702 96.0488 83.7521L98.9484 85.2293C98.9757 85.2566 96.4591 91.9586 87.2951 87.5545Z" fill="#8E19CB"/>
<path d="M84.2308 83.6154C84.0393 83.588 83.8752 83.5607 83.6837 83.5333C75.0668 82.3024 74 77.2417 74 77.2417L76.7629 78.5821C77.2005 79.9225 77.8844 80.7705 78.6504 81.3176C80.5379 82.6853 82.9177 82.1656 82.9177 82.1656C89.4283 81.427 89.2094 73.7402 89.2094 73.7402C88.9085 69.9926 87.2398 68.3786 87.2398 68.3786C86.0362 67.2024 84.477 66.8741 84.477 66.8741C84.5043 66.8741 84.5043 66.8741 84.5317 66.8741C88.1426 66.8194 90.0027 68.8984 90.9601 70.9226C91.9723 73.0563 92.1638 75.6004 91.5893 77.9803C90.9054 80.7431 89.4009 82.1929 88.0331 82.9315C86.8569 83.5333 85.5438 83.7522 84.2308 83.6154Z" fill="#8E19CB"/>
<path d="M220.073 12.5835C220.073 13.5339 219.753 14.4454 219.183 15.1174C218.614 15.7895 217.842 16.167 217.036 16.167C216.231 16.167 215.459 15.7895 214.889 15.1174C214.32 14.4454 214 13.5339 214 12.5835C214 11.6331 214.32 10.7216 214.889 10.0496C215.459 9.37755 216.231 9 217.036 9C217.842 9 218.614 9.37755 219.183 10.0496C219.753 10.7216 220.073 11.6331 220.073 12.5835Z" fill="#8E19CB"/>
<path d="M128.073 25.4302C128.073 26.3806 127.753 27.2921 127.183 27.9641C126.614 28.6362 125.842 29.0137 125.036 29.0137C124.638 29.0137 124.243 28.921 123.874 28.7409C123.506 28.5608 123.171 28.2969 122.889 27.9641C122.607 27.6314 122.384 27.2363 122.231 26.8015C122.079 26.3668 122 25.9008 122 25.4302C122 24.9596 122.079 24.4936 122.231 24.0588C122.384 23.6241 122.607 23.229 122.889 22.8963C123.171 22.5635 123.506 22.2995 123.874 22.1195C124.243 21.9394 124.638 21.8467 125.036 21.8467C125.842 21.8467 126.614 22.2242 127.183 22.8963C127.753 23.5683 128.073 24.4798 128.073 25.4302Z" fill="#FF6E52"/>
<path d="M177.173 28.1601L173.262 18.8047L180.128 20.8563L177.173 28.1601Z" fill="#D81480"/>
<path d="M270.134 124.847L274.565 135.214L268 132.506L270.134 124.847Z" fill="#5490CB"/>
<path d="M292.845 154.847L293.72 156.926L295.662 157.281L294.24 158.895L294.596 161.193L292.845 160.099L291.067 161.193L291.422 158.895L290 157.281L291.942 156.926L292.845 154.847Z" fill="#B8DBDF"/>
<path d="M198.845 136.847L199.72 138.926L201.662 139.281L200.24 140.895L200.596 143.193L198.845 142.099L197.067 143.193L197.422 140.895L196 139.281L197.942 138.926L198.845 136.847Z" fill="#B8DBDF"/>
<path d="M281.479 135.986L282.08 134.029C282.349 133.173 282.732 132.672 283.152 132.412C284.019 131.838 284.938 132.197 284.938 132.197C287.508 132.769 288.828 132.747 288.828 132.747C284.611 130.155 285.557 127.69 285.557 127.69L286.342 125.138C286.392 124.97 286.457 124.824 286.537 124.701C287.282 123.379 289.312 122.893 289.312 122.893C295.336 121.149 296.704 118.523 296.704 118.523C295.869 114.466 291.767 110.893 291.767 110.893L293.088 107.198C299.484 112.238 297.201 119.711 297.201 119.711C297.082 120.161 296.932 120.567 296.766 120.95C296.499 121.571 296.163 122.14 295.802 122.626C294.668 124.154 293.045 125.223 291.18 125.659C289.475 126.085 287.254 126.871 287.254 126.871C287.8 127.89 289.315 129.101 289.315 129.101C291.988 130.87 291.697 132.409 291.697 132.409L290.905 135.334C290.869 135.425 290.833 135.517 290.781 135.587C290.107 136.626 287.601 135.909 287.601 135.909C285.347 135.216 283.908 135.354 283.908 135.354C284.09 135.995 286.991 139.474 286.991 139.474C289.184 141.846 288.642 143.36 288.642 143.36L287.689 145.529C287.601 145.691 287.498 145.83 287.364 145.924C287.722 145.339 285.446 142.658 285.446 142.658L282.258 138.579C280.936 136.833 281.479 135.986 281.479 135.986Z" fill="#4C4E9B"/>
<path d="M291.735 110.848L293.056 107.153C299.453 112.192 297.17 119.666 297.17 119.666C297.051 120.116 296.901 120.522 296.735 120.905C296.854 119.119 296.673 118.478 296.673 118.478C295.838 114.421 291.735 110.848 291.735 110.848Z" fill="#4C4E9B"/>
<path d="M285.54 127.668L286.325 125.115C286.375 124.947 286.44 124.802 286.52 124.678C286.41 125.523 287.215 126.864 287.215 126.864C287.761 127.883 289.276 129.094 289.276 129.094C291.949 130.863 291.657 132.402 291.657 132.402L290.865 135.326C290.83 135.418 290.794 135.51 290.742 135.58C291.135 134.47 288.827 132.747 288.827 132.747C284.594 130.133 285.54 127.668 285.54 127.668Z" fill="#4C4E9B"/>
<path d="M281.478 135.985L282.079 134.029C282.348 133.173 282.731 132.671 283.15 132.411C282.424 133.52 283.869 135.347 283.869 135.347C284.05 135.988 286.952 139.467 286.952 139.467C289.145 141.838 288.602 143.353 288.602 143.353L287.649 145.522C287.562 145.683 287.459 145.822 287.324 145.916C287.683 145.332 285.407 142.651 285.407 142.651L282.219 138.571C280.935 136.832 281.478 135.985 281.478 135.985Z" fill="#4C4E9B"/>
<path d="M272.135 14.1002C272.135 14.1002 273.42 12.6504 273.94 11.2279C273.94 11.2279 274.679 9.3404 274.651 8C274.706 8.2462 274.733 8.49239 274.761 8.73859L275.198 13.006C275.198 13.006 275.773 17.1913 272.244 20.0362C272.244 20.0362 270.274 22.0879 270.521 23.948C270.493 23.8112 270.466 23.6744 270.439 23.5103L270.001 18.6411C270.001 18.6138 269.891 16.0697 272.135 14.1002Z" fill="#8E19CB"/>
<path d="M102.073 172.43C102.073 172.901 101.994 173.367 101.842 173.802C101.689 174.236 101.465 174.631 101.183 174.964C100.902 175.297 100.567 175.561 100.198 175.741C99.83 175.921 99.4352 176.014 99.0364 176.014C98.2311 176.014 97.4588 175.636 96.8893 174.964C96.3199 174.292 96 173.381 96 172.43C96 171.48 96.3199 170.568 96.8893 169.896C97.4588 169.224 98.2311 168.847 99.0364 168.847C99.4352 168.847 99.83 168.939 100.198 169.119C100.567 169.3 100.902 169.564 101.183 169.896C101.465 170.229 101.689 170.624 101.842 171.059C101.994 171.494 102.073 171.96 102.073 172.43Z" fill="#4C4E9B"/>
<path d="M183.073 46.5835C183.073 47.5339 182.753 48.4454 182.183 49.1174C181.614 49.7895 180.842 50.167 180.036 50.167C179.231 50.167 178.459 49.7895 177.889 49.1174C177.32 48.4454 177 47.5339 177 46.5835C177 46.1129 177.079 45.6469 177.231 45.2122C177.384 44.7774 177.607 44.3823 177.889 44.0496C178.171 43.7168 178.506 43.4529 178.874 43.2728C179.243 43.0927 179.638 43 180.036 43C180.435 43 180.83 43.0927 181.198 43.2728C181.567 43.4529 181.902 43.7168 182.183 44.0496C182.465 44.3823 182.689 44.7774 182.842 45.2122C182.994 45.6469 183.073 46.1129 183.073 46.5835Z" fill="#8E19CB"/>
<path d="M178 204.518L183.252 195.847L185.659 202.576L178 204.518Z" fill="url(#mss0_linear)"/>
<path d="M74.8813 98.8467L72.4741 110.117L69 103.032L74.8813 98.8467Z" fill="#4C4E9B"/>
<path d="M145.845 6.34637L144.97 4.26739L143 3.93913L144.422 2.29783L144.067 0L145.845 1.0942L147.596 0L147.24 2.29783L148.662 3.93913L146.72 4.26739L145.845 6.34637Z" fill="#D81480"/>
<path d="M85.8352 46.5437L84.9598 44.4373L82.9902 44.1091L84.4127 42.4677L84.0844 40.1699L85.8352 41.2641L87.5859 40.1699L87.2576 42.4677L88.6801 44.1091L86.7105 44.4373L85.8352 46.5437Z" fill="#D81480"/>
<path d="M263.073 80.4302C263.073 80.9008 262.994 81.3668 262.842 81.8015C262.689 82.2363 262.465 82.6314 262.183 82.9641C261.902 83.2969 261.567 83.5608 261.198 83.7409C260.83 83.921 260.435 84.0137 260.036 84.0137C259.638 84.0137 259.243 83.921 258.874 83.7409C258.506 83.5608 258.171 83.2969 257.889 82.9641C257.607 82.6314 257.384 82.2363 257.231 81.8015C257.079 81.3668 257 80.9008 257 80.4302C257 79.9596 257.079 79.4936 257.231 79.0588C257.384 78.6241 257.607 78.229 257.889 77.8963C258.171 77.5635 258.506 77.2996 258.874 77.1195C259.243 76.9394 259.638 76.8467 260.036 76.8467C260.435 76.8467 260.83 76.9394 261.198 77.1195C261.567 77.2996 261.902 77.5635 262.183 77.8963C262.465 78.229 262.689 78.6241 262.842 79.0588C262.994 79.4936 263.073 79.9596 263.073 80.4302Z" fill="#FF6E52"/>
<path d="M245.726 22.415L246.601 24.5214L248.571 24.8496L247.148 26.4636L247.476 28.7614L245.726 27.6946L243.975 28.7614L244.303 26.4636L242.908 24.8496L244.85 24.5214L245.726 22.415Z" fill="#28B3B6"/>
<path d="M270.818 171.847L271.693 173.953L273.662 174.281L272.24 175.895L272.568 178.193L270.818 177.126L269.067 178.193L269.395 175.895L268 174.281L269.942 173.953L270.818 171.847Z" fill="#5490CB"/>
<defs>
<linearGradient id="mss0_linear" x1="185.659" y1="195.847" x2="176.632" y2="197.644" gradientUnits="userSpaceOnUse">
<stop stop-color="#09D0AF"/>
<stop offset="1" stop-color="#4695BD"/>
</linearGradient>
</defs>
</svg>
