<svg width="352" height="335" viewBox="0 0 352 335" fill="none" xmlns="http://www.w3.org/2000/svg">
<ellipse cx="178" cy="325" rx="174" ry="10" fill="#0D0E26"/>
<path d="M229.322 201.717C230.926 177.036 224.11 157.616 223.308 154.379C220.769 155.728 215.21 159.234 213.285 162.471C210.88 166.517 204.465 211.023 204.465 217.496C204.465 222.675 205.534 277.647 206.069 304.485L209.276 306.912C215.423 280.074 228.039 221.461 229.322 201.717Z" fill="#262865"/>
<path d="M183.03 198.708C179.769 169.041 187.65 160.012 191.998 159.206C200.015 160.147 216.049 162.431 216.049 164.043C216.049 165.655 211.701 195.08 209.527 209.591C208.44 238.612 204.207 302.873 204.207 305.13C204.207 307.952 199.17 311.634 199.17 305.588C199.17 299.542 187.106 235.791 183.03 198.708Z" fill="#2F3176"/>
<path d="M218.451 306.962C215.978 306.962 214.198 305.771 212.961 305.771L205.954 303.298C204.854 305.634 203.48 310.305 206.778 310.305C210.9 310.305 223.221 311.542 223.221 310.305C223.221 309.069 220.924 306.962 218.451 306.962Z" fill="#121334"/>
<path d="M207.254 312.148C208.451 309.624 205.111 304.935 204.712 304.214C204.712 304.214 200.59 302.84 199.273 304.214C197.956 305.588 196.719 311.138 197.677 312.869C198.874 315.033 206.057 314.672 207.254 312.148Z" fill="#121334"/>
<path d="M218.564 75.1653C218.564 78.4133 211.824 82.2026 208.454 83.6913C195.918 90.1871 184.191 67.8575 184.191 65.0155C184.191 62.1735 196.727 56.0833 200.771 52.4293C204.815 48.7753 210.072 44.7154 215.329 49.1813C220.586 53.6473 218.564 71.1053 218.564 75.1653Z" fill="#F4A392"/>
<path fill-rule="evenodd" clip-rule="evenodd" d="M177.432 108.88C177.432 115.705 186.688 135.778 191.517 143.807C191.517 145.092 188.834 153.71 187.492 157.858C196.829 165.566 207.748 167.76 212.041 167.894L215.26 163.077L219.285 167.894C221.968 166.556 227.333 163.719 227.333 163.077C227.333 162.86 227.098 161.149 226.771 158.767C225.888 152.331 224.331 140.997 224.919 140.997C225.724 140.997 237.797 139.391 241.418 137.384C245.04 135.377 233.37 116.508 232.565 115.304C232.528 115.249 232.467 115.158 232.384 115.034C230.647 112.446 219.285 95.5223 219.285 93.2236C219.285 90.8148 211.236 88.0047 209.224 88.0047C207.614 88.0047 198.423 83.4063 194.13 83.0049C193.594 83.5402 191.195 89.1287 185.078 92.0192C177.432 95.6323 177.432 102.056 177.432 108.88ZM201.578 130.157C196.748 128.23 193.663 115.17 192.724 108.88L200.37 127.347L212.846 128.084C208.905 129.882 204.787 131.438 201.578 130.157Z" fill="#4C4E9B"/>
<path d="M192.724 108.88C193.663 115.17 196.748 128.23 201.578 130.157C204.787 131.438 208.905 129.882 212.846 128.084L200.37 127.347L192.724 108.88Z" fill="#4C4E9B"/>
<path d="M192.164 108.241C193.108 114.632 196.213 127.903 201.071 129.862C204.3 131.163 208.444 129.582 212.408 127.754L199.856 127.006L192.164 108.241Z" fill="#363983"/>
<path d="M227.793 130.677C227.793 133.615 219.696 138.156 215.647 140.06C219.291 142.1 240.75 140.468 241.964 137.204C243.179 133.941 236.701 122.111 235.891 120.479C235.243 119.174 226.714 106.609 222.53 100.49C224.959 106.881 229.818 119.826 229.818 120.479C229.818 121.295 227.793 127.006 227.793 130.677Z" fill="#363983"/>
<path d="M190.949 143.732L192.973 151.482C199.586 149.579 213.379 144.629 215.647 140.06C210.788 142.1 199.047 145.69 190.949 143.732Z" fill="#363983"/>
<path d="M210.506 96.3787C211.154 96.3787 212.396 93.1152 212.935 91.4834L210.506 87.4037C210.506 88.2197 209.372 90.0148 204.838 90.6675C199.169 91.4834 194.311 84.5485 194.311 86.5882C194.311 88.6279 191.477 89.8517 191.881 92.2993C192.205 94.2574 199.304 96.9226 202.813 98.0104L205.647 93.1152C206.997 94.203 209.858 96.3787 210.506 96.3787Z" fill="#363983"/>
<path d="M234.135 125.564C235.741 130.109 229.317 130.109 228.112 130.109L225.703 125.151C225.971 124.6 226.747 123.251 227.711 122.259C228.915 121.02 232.529 121.02 234.135 125.564Z" fill="#F4A392"/>
<path d="M207.635 125.564C208.839 125.564 208.839 128.043 208.839 130.109C206.564 130.797 201.371 132.174 198.801 132.174C195.589 132.174 196.794 128.043 197.998 125.564C199.203 123.086 206.43 125.564 207.635 125.564Z" fill="#F4A392"/>
<path d="M204.481 90.6623C199.454 90.6623 194.794 86.4376 193.092 84.3253L191.914 75.2158C203.538 85.0382 210.895 82.2129 213.12 79.5725L215.084 81.1568C213.644 84.3253 209.507 90.6623 204.481 90.6623Z" fill="#E6836E"/>
<path d="M212.04 50.6709C209.438 57.82 196.592 62.7215 190.9 63.6693C189.925 72.1182 192.933 76.126 194.559 77.0738C195.778 82.7606 193.339 90.4784 192.119 91.697C190.9 92.9156 184.396 92.5094 179.924 97.3837C175.452 102.258 179.517 115.256 179.924 117.694C171.794 113.226 175.858 99.4147 175.858 94.54C175.858 89.6652 172.605 79.9168 172.605 75.0424C172.605 70.1681 176.671 64.8875 179.11 62.4503C181.549 60.0131 179.924 53.9205 185.208 47.0151C190.493 40.1097 216.105 35.6416 216.918 44.1717C217.731 52.7019 221.39 51.4833 224.236 60.0135C227.082 68.5436 216.918 79.511 216.105 83.9792C215.292 88.4474 218.138 87.635 219.357 90.8846C220.175 93.0616 220.809 96.697 221.139 98.4933C221.3 98.9006 221.39 99.223 221.39 99.4147C221.39 99.817 221.302 99.3783 221.139 98.4933C220.279 96.3119 217.411 91.697 215.699 91.697C213.666 91.697 209.601 88.8536 209.601 87.635V81.9482C212.202 81.9482 215.699 77.48 216.918 73.418C218.138 69.356 215.699 55.5453 215.699 53.9205C215.699 52.2957 213.259 51.0771 212.04 50.6709Z" fill="#292C6B"/>
<path d="M131.625 234.253C129.433 237.369 126.61 241.904 123.743 247.321C126.167 245.046 129.933 242.605 134.336 242.562C142.097 242.487 141.426 251.066 134.336 253.398C128.192 255.42 122.513 254.898 120.953 252.863C118.839 257.289 116.805 262.109 115.096 267.1C114.998 267.386 114.901 267.673 114.804 267.961C114.684 268.32 114.565 268.679 114.448 269.039C116.156 266.787 118.798 263.884 121.486 262.579C125.977 260.396 131.798 262.428 130.529 266.868C129.261 271.308 123.514 274.694 119.484 274.844C116.362 274.961 113.868 275.014 112.902 274.095C111.377 279.442 110.175 284.885 109.354 290.38C110.857 287.457 113.441 283.75 116.573 282.821C121.648 281.316 124.634 282.369 124.857 286.658C125.081 290.948 118.066 296.064 114.334 296.29C111.831 296.442 109.727 296.395 108.622 296.28C108.197 300.603 108.016 304.947 108.108 309.293L106.68 309.323C106.546 302.953 106.988 296.59 107.921 290.299C106.983 290.668 105.31 290.68 102.766 289.292C98.2139 286.809 95.6018 279.359 96.0496 275.371C96.4974 271.383 101.199 270.028 104.334 272.512C106.463 274.198 108.091 280.416 108.897 284.634C109.954 279.237 111.359 273.909 113.059 268.69C112.136 268.8 110.78 267.864 108.737 266.341C105.304 263.783 103.363 257.838 103.438 253.699C103.513 249.561 108.662 245.046 112.469 249.862C114.909 252.949 115.37 258.594 115.253 262.483C117.321 257.086 119.701 251.971 122.071 247.431C118.641 248.777 114.7 238.633 114.633 233.683C114.558 228.19 120.902 223.524 124.26 228.115C126.55 231.243 125.931 237.776 125.082 241.941C127.173 238.315 129.143 235.266 130.752 233.012C130.633 229.378 131.506 222.954 135.903 219.386C142.023 214.419 147.545 215.473 145.605 222.697C143.82 229.342 135.152 234.268 131.625 234.253Z" fill="#121334"/>
<path d="M25.3752 234.253C27.5669 237.369 30.3897 241.904 33.2572 247.321C30.8333 245.046 27.0667 242.605 22.6644 242.562C14.9027 242.487 15.5744 251.066 22.6644 253.398C28.8081 255.42 34.4873 254.898 36.0466 252.863C38.1611 257.289 40.1946 262.109 41.9036 267.1C42.0015 267.386 42.0988 267.673 42.1955 267.961C42.3158 268.32 42.4346 268.679 42.5521 269.039C40.8442 266.787 38.202 263.884 35.5144 262.579C31.0231 260.396 25.2019 262.428 26.4706 266.868C27.7393 271.308 33.486 274.694 37.5161 274.844C40.6375 274.961 43.1322 275.014 44.0984 274.095C45.6235 279.442 46.8249 284.885 47.6465 290.38C46.1426 287.457 43.5595 283.75 40.4267 282.821C35.3518 281.316 32.3665 282.369 32.1426 286.658C31.9187 290.948 38.9341 296.064 42.6657 296.29C45.1694 296.442 47.2727 296.395 48.3783 296.28C48.8033 300.603 48.9836 304.947 48.8922 309.293L50.3205 309.323C50.4544 302.953 50.0125 296.59 49.0788 290.299C50.0171 290.668 51.6896 290.68 54.2336 289.292C58.7861 286.809 61.3982 279.359 60.9504 275.371C60.5026 271.383 55.8008 270.028 52.6663 272.512C50.5373 274.198 48.9092 280.416 48.1033 284.634C47.0464 279.237 45.6409 273.909 43.9411 268.69C44.8639 268.8 46.22 267.864 48.263 266.341C51.6961 263.783 53.6365 257.838 53.5619 253.699C53.4872 249.561 48.3377 245.046 44.5315 249.862C42.0915 252.949 41.6295 258.594 41.7473 262.483C39.6787 257.086 37.2993 251.971 34.9293 247.431C38.3587 248.777 42.2999 238.633 42.3671 233.683C42.4418 228.19 36.0981 223.524 32.7397 228.115C30.4504 231.243 31.069 237.776 31.9176 241.941C29.8271 238.315 27.8573 235.266 26.2476 233.012C26.3673 229.378 25.4936 222.954 21.0971 219.386C14.9773 214.419 9.45459 215.473 11.395 222.697C13.1799 229.342 21.8481 234.268 25.3752 234.253Z" fill="#121334"/>
<path d="M27.6004 182.448C31.8084 188.377 37.2281 197.009 42.7338 207.319C38.08 202.989 30.8481 198.343 22.3956 198.262C7.49319 198.119 8.78281 214.446 22.3956 218.885C34.1916 222.733 45.0957 221.74 48.0894 217.866C52.1494 226.29 56.0536 235.464 59.3348 244.962C59.5229 245.507 59.7098 246.053 59.8954 246.602C60.1263 247.285 60.3545 247.968 60.58 248.653C57.3008 244.368 52.2279 238.843 47.0677 236.358C38.4444 232.204 27.2676 236.071 29.7036 244.521C32.1395 252.971 43.1731 259.415 50.9109 259.702C56.904 259.924 61.6937 260.024 63.5489 258.275C66.477 268.453 68.7838 278.812 70.3613 289.271C67.4738 283.706 62.5142 276.651 56.4993 274.883C46.7554 272.018 41.0237 274.024 40.5938 282.187C40.1639 290.35 53.6334 300.089 60.7981 300.518C65.6052 300.807 69.6437 300.718 71.7662 300.498C72.5823 308.726 72.9285 316.995 72.753 325.266L75.4953 325.323C75.7525 313.2 74.9039 301.09 73.1113 289.116C74.9129 289.817 78.124 289.84 83.0084 287.199C91.7493 282.473 96.7645 268.295 95.9048 260.704C95.045 253.114 86.0176 250.536 79.9993 255.262C75.9116 258.472 72.7857 270.306 71.2383 278.334C69.2091 268.063 66.5105 257.921 63.2469 247.989C65.0187 248.198 67.6224 246.416 71.545 243.519C78.1365 238.649 81.8621 227.335 81.7188 219.458C81.5755 211.581 71.6883 202.988 64.3804 212.154C59.6956 218.03 58.8087 228.773 59.0348 236.176C55.063 225.904 50.4946 216.169 45.9443 207.528C52.5287 210.09 60.0958 190.784 60.2249 181.363C60.3682 170.908 48.1883 162.029 41.7401 170.765C37.3448 176.72 38.5324 189.152 40.1619 197.081C36.148 190.179 32.3659 184.376 29.2754 180.086C29.5052 173.169 27.8277 160.942 19.3865 154.152C7.63647 144.7 -2.9672 146.705 0.758415 160.453C4.18546 173.1 20.8283 182.475 27.6004 182.448Z" fill="#24255C"/>
<path d="M317.998 204.982C320.928 209.773 326.369 221.736 324.683 231.257C320.616 230.315 312.202 228.531 311.084 228.936C315.39 230.742 324.106 234.626 324.521 235.719C323.421 241.247 319.607 254.358 313.149 262.586C308.418 261.245 298.507 258.799 296.703 259.743C300.616 261.398 308.875 265.037 310.606 266.357C309.441 268.455 306.842 272.861 305.764 273.708C301.484 272.342 292.055 269.977 288.584 271.443C291.574 273.691 297.994 279.064 299.749 282.572C293.248 293.788 283.136 309.93 262.108 324.56C260.446 324.092 256.609 323.363 255.626 322.559C256.929 323.899 259.731 326.033 260.713 326.05C257.233 328.192 248.608 333.392 241.742 334.847C228.176 316.973 226.366 302.986 227.157 298.227C230.866 297.835 241.975 293.94 247.066 292.042C243.789 292.568 233.77 289.681 229.17 288.172C228.776 287.693 229.181 285.733 229.432 284.813C230.852 285.284 238.778 286.045 243.537 286.451C240.16 285.929 233.253 283.596 229.819 282.341C242.635 238.696 265.438 214.356 275.237 207.643C278.972 210.225 284.188 216.57 286.33 219.42C290.101 212.043 288.61 204.623 287.393 201.835C301.869 197.083 313.828 201.953 317.998 204.982Z" fill="#2F3175"/>
<path d="M318.019 204.847C275.8 243.205 249.749 307.496 242 334.847C248.846 333.391 257.444 328.185 260.912 326.041C259.934 326.024 257.14 323.888 255.841 322.546C256.821 323.351 260.647 324.08 262.303 324.549C283.266 309.904 293.346 293.745 299.827 282.517C298.077 279.006 291.678 273.627 288.697 271.376C292.157 269.909 301.557 272.277 305.824 273.644C306.898 272.796 309.489 268.385 310.65 266.286C308.925 264.964 300.692 261.321 296.791 259.665C298.589 258.719 308.47 261.168 313.185 262.51C319.624 254.274 323.426 241.149 324.523 235.616C324.109 234.522 315.42 230.633 311.127 228.826C312.242 228.42 320.629 230.206 324.684 231.149C326.364 221.618 320.941 209.643 318.019 204.847Z" fill="#24255C"/>
<path d="M314.875 223.067C311.806 227.423 307.854 233.763 303.84 241.337C307.233 238.156 312.507 234.744 318.67 234.684C329.536 234.579 328.596 246.572 318.67 249.834C310.069 252.66 302.118 251.931 299.935 249.085C296.974 255.273 294.128 262.012 291.735 268.989C291.598 269.389 291.462 269.791 291.326 270.194C291.158 270.695 290.992 271.197 290.827 271.7C293.218 268.553 296.917 264.494 300.68 262.668C306.968 259.618 315.117 262.458 313.341 268.665C311.565 274.872 303.52 279.606 297.877 279.817C293.507 279.98 290.015 280.053 288.662 278.769C286.527 286.245 284.845 293.855 283.695 301.537C285.8 297.45 289.417 292.267 293.803 290.968C300.908 288.864 305.087 290.337 305.4 296.334C305.714 302.33 295.892 309.484 290.668 309.8C287.163 310.012 284.218 309.946 282.67 309.785C282.075 315.829 281.823 321.903 281.951 327.979L279.951 328.021C279.764 319.115 280.383 310.219 281.69 301.424C280.376 301.939 278.035 301.956 274.473 300.016C268.099 296.544 264.443 286.129 265.069 280.553C265.696 274.977 272.279 273.084 276.667 276.555C279.648 278.913 281.927 287.606 283.055 293.504C284.535 285.958 286.503 278.508 288.882 271.213C287.591 271.366 285.692 270.057 282.832 267.929C278.025 264.352 275.309 256.041 275.413 250.254C275.518 244.468 282.727 238.156 288.056 244.889C291.472 249.205 292.119 257.097 291.954 262.535C294.85 254.99 298.181 247.838 301.499 241.491C296.698 243.373 291.18 229.191 291.086 222.27C290.982 214.59 299.863 208.068 304.564 214.485C307.769 218.86 306.903 227.992 305.715 233.816C308.642 228.747 311.4 224.483 313.653 221.332C313.486 216.251 314.709 207.27 320.864 202.282C329.432 195.338 337.164 196.811 334.447 206.911C331.948 216.201 319.813 223.088 314.875 223.067Z" fill="#121334"/>
<path d="M95.2977 316.397C97.7709 316.397 105.603 313.099 106.84 313.099L113.847 310.626C114.946 312.962 116.32 317.634 113.023 317.634C108.901 317.634 92 318.87 92 317.634C92 316.397 92.8244 316.397 95.2977 316.397Z" fill="#121334"/>
<path d="M133.481 319.613C131.957 316.17 137.544 311.745 138.052 310.761L143.639 308.794C144.824 311.745 146.889 318.236 145.67 320.596C144.147 323.547 135.005 323.055 133.481 319.613Z" fill="#121334"/>
<path d="M147.236 73.3883C147.649 78.7471 151.771 86.1668 152.183 87.8156C151.633 88.6401 149.215 90.7011 143.939 92.3499C138.663 93.9988 132.672 91.6629 130.336 90.2889C130.748 86.4416 131.655 78.5822 131.985 77.9226C132.397 77.0982 146.824 68.0296 147.236 73.3883Z" fill="#E6836E"/>
<path d="M155.202 181.472C155.202 181.472 154.744 235.058 152.912 253.835C151.08 272.612 145.275 306.895 145.687 309.987C146.099 313.08 141.842 312.393 140.333 312.393C139.13 312.393 135.608 312.393 136.215 309.3C136.821 306.207 133.283 208.336 131.845 208.036C130.197 207.693 120.395 281.428 120.395 284.52C120.395 287.613 115.623 311.084 113.564 312.393C111.505 313.702 106.655 315.303 105.739 309.987C104.823 304.672 106.094 202.998 112.328 184.221C118.563 165.443 155.202 181.472 155.202 181.472Z" fill="#262865"/>
<path d="M164.135 144.701C164.135 147.587 154.744 183.449 154.744 183.449C154.744 183.449 148.333 186.052 138.715 186.052C129.097 186.052 112.609 183.449 112.609 183.449C112.609 183.449 117.968 98.5338 117.968 96.885C117.968 95.5659 125.388 92.2133 129.098 90.7019C131.571 91.5263 137.424 93.1751 141.052 93.1751C144.679 93.1751 150.258 89.6026 152.594 87.8164C159.876 89.1904 174.935 92.9278 176.914 96.885C179.387 101.831 164.135 141.816 164.135 144.701Z" fill="#31337E"/>
<path d="M107.664 145.113C112.199 145.113 126.626 139.755 131.572 137.694C134.54 136.517 134.458 130.333 134.046 127.388C128 128.075 115.744 129.284 115.084 128.625C114.425 127.965 117.064 106.64 118.467 96.0605C116.04 96.7688 112.826 103.834 110.962 107.19C108.901 110.9 98.1836 140.579 98.1836 143.464C98.1836 146.35 103.13 145.113 107.664 145.113Z" fill="#292C6B"/>
<path d="M118.381 130.685C113.846 127.799 122.091 122.028 122.915 121.616C130.472 124.639 146.577 130.685 150.534 130.685C155.48 130.685 170.363 106.637 174.897 100.866C178.524 96.2496 174.897 113.69 171.556 121.616C168.946 130.135 162.653 147.585 158.366 149.234C144.351 150.883 122.915 133.57 118.381 130.685Z" fill="#40428D"/>
<path d="M114.259 119.144C115.908 119.144 121.679 120.38 123.327 121.617L117.969 129.037C115.633 128.487 110.549 127.14 108.9 126.151C106.839 124.914 112.61 119.144 114.259 119.144Z" fill="#F4A392"/>
<path d="M149.709 133.571C145.422 133.901 140.778 129.861 138.992 127.8C139.816 125.739 150.534 120.792 152.595 121.205C154.656 121.617 155.892 124.914 155.892 126.151C155.892 127.388 155.068 133.159 149.709 133.571Z" fill="#F4A392"/>
<path d="M139.403 90.7015C139.403 91.1137 141.191 97.709 142.701 98.1212C144.21 98.5334 153.418 89.3 153.418 88.6404C153.418 87.9809 151.538 83.9213 149.296 83.2817C147.054 82.6422 139.403 90.3717 139.403 90.7015Z" fill="#40428D"/>
<path d="M128.273 91.9381C128.273 92.9274 131.481 98.4899 132.808 98.5334C134.134 98.5769 135.966 93.0811 135.693 91.9381C135.42 90.7951 132.258 88.0908 130.747 86.1672C129.922 87.6786 128.273 90.9488 128.273 91.9381Z" fill="#40428D"/>
<path d="M149.709 69.678C149.297 77.9222 140.228 82.0443 136.93 82.0443C130.005 83.3633 126.075 75.1741 124.976 70.9146C124.289 71.4643 122.421 71.6566 120.442 68.0292C118.463 64.4018 121.816 62.6705 123.74 62.2583C123.877 56.4873 124.482 44.7806 125.801 44.1211C127.45 43.2967 135.694 42.06 145.174 44.1211C152.759 45.7699 152.182 54.7011 150.945 58.9606C152.045 59.098 154.573 60.2796 155.892 63.9071C157.211 67.5345 152.319 69.2658 149.709 69.678Z" fill="#F4A392"/>
<path d="M120.442 44.5343C120.947 41.3289 123.785 34 127.264 34C133.349 34 149.719 40.0423 151.358 46.5953C155.66 51.8616 152.454 60.5634 149.709 63.0837C149.572 61.0226 149.346 57.5427 149.297 56.0761C149.248 54.6095 134.457 44.5343 128.686 46.1831C122.915 47.832 124.152 58.5494 124.152 59.786C124.152 60.7753 124.929 64.1357 124.516 64.6853C116.683 62.0742 119.478 50.656 120.442 44.5343Z" fill="#292C6B"/>
<path d="M168.605 317.224C168.605 317.224 164.748 314.133 164.064 313.996C164.064 313.996 162.039 312.491 161 313.503C161.219 312.984 161.684 312.437 162.505 312.026L164.419 311.069C164.419 311.069 165.24 310.303 167.155 311.616L171.668 314.981C171.668 314.981 174.65 317.415 175.197 316.923C175.115 317.087 174.978 317.251 174.842 317.36L172.763 318.783C172.763 318.728 171.285 319.576 168.605 317.224Z" fill="#4C4E9B"/>
<path d="M259.605 97.2236C259.605 97.2236 255.748 94.1325 255.064 93.9957C255.064 93.9957 253.039 92.4912 252 93.5034C252.219 92.9836 252.684 92.4365 253.505 92.0262L255.419 91.0688C255.419 91.0688 256.24 90.3028 258.155 91.6159L262.668 94.9805C262.668 94.9805 265.65 97.4151 266.197 96.9227C266.115 97.0869 265.978 97.251 265.842 97.3604L263.763 98.7829C263.763 98.7282 262.285 99.5762 259.605 97.2236Z" fill="#4C4E9B"/>
<path d="M86.6029 217.272C86.6029 217.272 88.2169 212.594 88.1348 211.91C88.1348 211.91 88.8734 209.476 87.5877 208.847C88.1621 208.901 88.8187 209.148 89.4752 209.777L91.0344 211.254C91.0344 211.254 92.0192 211.774 91.4174 214.017L89.7487 219.406C89.7487 219.406 88.4631 223.044 89.1196 223.4C88.9281 223.372 88.7366 223.318 88.5998 223.208L86.5756 221.704C86.5756 221.676 85.2625 220.582 86.6029 217.272Z" fill="#4C4E9B"/>
<path d="M178.419 288.272C178.419 288.272 180.033 283.594 179.951 282.91C179.951 282.91 180.69 280.476 179.404 279.847C179.979 279.901 180.635 280.148 181.292 280.777L182.851 282.254C182.851 282.254 183.836 282.774 183.234 285.017L181.565 290.406C181.565 290.406 180.279 294.044 180.936 294.4C180.744 294.372 180.553 294.318 180.416 294.208L178.392 292.704C178.392 292.676 177.079 291.582 178.419 288.272Z" fill="#5490CB"/>
<path d="M258.532 35.2757C258.532 35.2757 260.511 35.1535 261.405 34.5084C261.405 34.5084 262.692 33.7225 262.88 32.8002C262.912 32.9949 262.905 33.1882 262.918 33.3629L262.803 36.533C262.803 36.533 262.881 39.7489 257.69 39.31C257.69 39.31 259.028 40.3067 261.848 41.5697C261.848 41.5697 262.92 41.8794 263.554 43.0829C263.863 43.6554 264.085 44.457 264.048 45.5008L263.96 47.9365C263.96 47.9365 264.205 49.2034 262.315 50.0643L257.642 51.9087C257.642 51.9087 262.674 53.5419 264.266 56.0961C264.591 57.8112 263.268 59.0796 263.268 59.0796C263.268 59.0796 261.452 57.8915 256.711 55.7269C256.711 55.7269 255.091 55.0297 254.514 53.8476C254.405 53.6501 254.355 53.4354 254.325 53.202L254.14 50.2727C254.14 50.2727 254.114 48.3168 257.183 47.4791C257.183 47.4791 261.377 46.0432 261.783 45.5159C261.783 45.5159 260.355 44.3031 257.833 43.3992C257.833 43.3992 255.066 42.3122 254.735 40.7519C254.7 40.6345 254.705 40.5185 254.709 40.4025L254.934 36.8299C254.93 36.9459 255.189 35.1358 258.532 35.2757Z" fill="#4C4E9B"/>
<path d="M305.106 171.728C305.106 171.728 304.477 169.622 304.641 168.309C304.641 168.309 304.777 166.531 305.434 165.847C305.27 165.929 305.133 166.011 304.969 166.12L302.562 167.953C302.562 167.953 300.072 169.622 302.288 174.792C302.288 174.792 301.03 173.944 299.033 171.728C299.033 171.728 298.404 170.798 297.255 170.771C296.708 170.771 295.996 170.962 295.203 171.564L293.343 172.986C293.343 172.986 292.276 173.424 292.304 175.859L292.604 181.74C292.604 181.74 289.513 177.418 286.942 177.117C285.492 177.691 285 179.77 285 179.77C285 179.77 286.586 181.029 289.978 184.776C289.978 184.776 291.1 186.089 292.221 186.035C292.413 186.035 292.604 185.98 292.769 185.871L295.094 184.475C295.094 184.475 296.626 183.436 296.133 179.798C296.133 179.798 295.723 174.682 295.969 173.944C295.969 173.944 297.419 174.764 299.033 176.898C299.033 176.898 300.893 179.196 302.206 178.676C302.288 178.649 302.398 178.594 302.48 178.512L305.133 176.351C305.16 176.378 306.446 175.12 305.106 171.728Z" fill="#28B3B6"/>
<path d="M55.93 141.418C55.93 141.418 54.8303 142.829 54.5737 143.874C54.5737 143.874 54.1522 145.267 54.4454 146C54.3538 145.89 54.2622 145.78 54.1889 145.652L52.9242 143.507C52.9242 143.507 51.5312 141.473 54.7204 138.229C54.7204 138.229 53.529 138.485 51.3663 139.548C51.3663 139.548 50.6148 140.062 49.7351 139.732C49.3135 139.567 48.8553 139.2 48.4338 138.485L47.4624 136.817C47.4624 136.817 46.7842 136.139 47.5173 134.306L49.4601 129.926C49.4601 129.926 45.8495 132.254 43.8334 131.667C43.5584 131.594 43.3018 131.447 43.1002 131.246L40.8092 128.808C40.8092 128.808 39.8744 127.727 40.4609 125.601L41.6706 121.623C41.6706 121.623 43.3018 118.049 42.4771 117.848C42.642 117.866 42.7886 117.921 42.9353 118.031L44.8414 119.644C44.8414 119.644 45.7212 120.469 44.8781 122.485C44.8781 122.485 43.2102 126.535 43.1552 129.046C43.1552 129.046 44.7131 128.588 48.3788 126.81C48.3788 126.81 49.6251 126.169 50.4499 126.572C50.5965 126.645 50.7248 126.737 50.8164 126.865L52.1544 128.643C52.1544 128.643 52.9975 129.908 51.5496 132.529C51.5496 132.529 49.7167 136.286 49.6984 136.927C49.6984 136.927 51.0364 136.744 52.8875 135.644C52.8875 135.644 54.9586 134.471 55.8017 135.278C55.8567 135.333 55.9117 135.406 55.9667 135.479L57.323 137.954C57.323 137.899 57.9278 139.255 55.93 141.418Z" fill="#4C4E9B"/>
<path d="M55.9298 141.418C55.9298 141.418 54.8301 142.829 54.5735 143.874C54.5735 143.874 54.1519 145.267 54.4452 146C54.3535 145.89 54.2619 145.78 54.1886 145.652L52.9239 143.507C52.9239 143.507 51.531 141.473 54.7201 138.229C54.7201 138.229 56.4063 136.158 55.8015 135.241C55.8564 135.296 55.9114 135.37 55.9664 135.443L57.3227 137.917C57.3227 137.899 57.9275 139.255 55.9298 141.418Z" fill="#4C4E9B"/>
<path d="M47.4247 136.763L48.3961 138.431C48.8177 139.146 49.2759 139.512 49.6974 139.677C48.8177 138.834 49.6791 136.855 49.6791 136.855C49.6974 136.231 51.5119 132.456 51.5119 132.456C52.9599 129.835 52.1168 128.57 52.1168 128.57L50.7788 126.792C50.6688 126.664 50.5405 126.554 50.4122 126.499C50.8705 126.957 49.4225 129.871 49.4225 129.871L47.4797 134.252C46.7283 136.103 47.4247 136.763 47.4247 136.763Z" fill="#4C4E9B"/>
<path d="M43.1181 128.973C43.1181 128.973 42.8798 130.714 43.7962 131.613C43.5213 131.539 43.2647 131.393 43.0631 131.191L40.7721 128.753C40.7721 128.753 39.8373 127.672 40.4238 125.546L41.6335 121.569C41.6335 121.569 43.2647 117.995 42.44 117.793C42.6049 117.811 42.7515 117.866 42.8982 117.976L44.8043 119.589C44.8043 119.589 45.6841 120.414 44.841 122.43C44.841 122.412 43.1914 126.462 43.1181 128.973Z" fill="#4C4E9B"/>
<path d="M73.2951 87.5545C73.2951 87.5545 72.3104 87.1715 71.052 86.132C69.0004 84.4633 66.2102 81.1534 65.7178 75.1079C65.7178 75.1079 65.5263 67.5853 70.4776 66.8467C70.4776 66.8467 72.0368 67.1749 73.2404 68.3512C73.2404 68.3512 68.5354 68.7342 68.6174 76.5851C68.6174 76.5851 68.891 83.2871 73.4046 87.1988C73.4046 87.1988 79.6142 89.7702 82.0488 83.7521L84.9484 85.2293C84.9757 85.2566 82.4591 91.9586 73.2951 87.5545Z" fill="#8E19CB"/>
<path d="M70.2308 83.6154C70.0393 83.588 69.8752 83.5607 69.6837 83.5333C61.0668 82.3024 60 77.2417 60 77.2417L62.7629 78.5821C63.2005 79.9225 63.8844 80.7705 64.6504 81.3176C66.5379 82.6853 68.9177 82.1656 68.9177 82.1656C75.4283 81.427 75.2094 73.7402 75.2094 73.7402C74.9085 69.9926 73.2398 68.3786 73.2398 68.3786C72.0362 67.2024 70.477 66.8741 70.477 66.8741C70.5043 66.8741 70.5043 66.8741 70.5317 66.8741C74.1426 66.8194 76.0027 68.8984 76.9601 70.9226C77.9723 73.0563 78.1638 75.6004 77.5893 77.9803C76.9054 80.7431 75.4009 82.1929 74.0331 82.9315C72.8569 83.5333 71.5438 83.7522 70.2308 83.6154Z" fill="#8E19CB"/>
<path d="M206.073 12.5835C206.073 13.5339 205.753 14.4454 205.183 15.1174C204.614 15.7895 203.842 16.167 203.036 16.167C202.231 16.167 201.459 15.7895 200.889 15.1174C200.32 14.4454 200 13.5339 200 12.5835C200 11.6331 200.32 10.7216 200.889 10.0496C201.459 9.37755 202.231 9 203.036 9C203.842 9 204.614 9.37755 205.183 10.0496C205.753 10.7216 206.073 11.6331 206.073 12.5835Z" fill="#8E19CB"/>
<path d="M114.073 25.4302C114.073 26.3806 113.753 27.2921 113.183 27.9641C112.614 28.6362 111.842 29.0137 111.036 29.0137C110.638 29.0137 110.243 28.921 109.874 28.7409C109.506 28.5608 109.171 28.2969 108.889 27.9641C108.607 27.6314 108.384 27.2363 108.231 26.8015C108.079 26.3668 108 25.9008 108 25.4302C108 24.9596 108.079 24.4936 108.231 24.0588C108.384 23.6241 108.607 23.229 108.889 22.8963C109.171 22.5635 109.506 22.2995 109.874 22.1195C110.243 21.9394 110.638 21.8467 111.036 21.8467C111.842 21.8467 112.614 22.2242 113.183 22.8963C113.753 23.5683 114.073 24.4798 114.073 25.4302Z" fill="#FF6E52"/>
<path d="M163.173 28.1601L159.262 18.8047L166.128 20.8563L163.173 28.1601Z" fill="#D81480"/>
<path d="M256.134 124.847L260.565 135.214L254 132.506L256.134 124.847Z" fill="#5490CB"/>
<path d="M278.845 154.847L279.72 156.926L281.662 157.281L280.24 158.895L280.596 161.193L278.845 160.099L277.067 161.193L277.422 158.895L276 157.281L277.942 156.926L278.845 154.847Z" fill="#B8DBDF"/>
<path d="M184.845 136.847L185.72 138.926L187.662 139.281L186.24 140.895L186.596 143.193L184.845 142.099L183.067 143.193L183.422 140.895L182 139.281L183.942 138.926L184.845 136.847Z" fill="#B8DBDF"/>
<path d="M267.479 135.986L268.08 134.029C268.349 133.173 268.732 132.672 269.152 132.412C270.019 131.838 270.938 132.197 270.938 132.197C273.508 132.769 274.828 132.747 274.828 132.747C270.611 130.155 271.557 127.69 271.557 127.69L272.342 125.138C272.392 124.97 272.457 124.824 272.537 124.701C273.282 123.379 275.312 122.893 275.312 122.893C281.336 121.149 282.704 118.523 282.704 118.523C281.869 114.466 277.767 110.893 277.767 110.893L279.088 107.198C285.484 112.238 283.201 119.711 283.201 119.711C283.082 120.161 282.932 120.567 282.766 120.95C282.499 121.571 282.163 122.14 281.802 122.626C280.668 124.154 279.045 125.223 277.18 125.659C275.475 126.085 273.254 126.871 273.254 126.871C273.8 127.89 275.315 129.101 275.315 129.101C277.988 130.87 277.697 132.409 277.697 132.409L276.905 135.334C276.869 135.425 276.833 135.517 276.781 135.587C276.107 136.626 273.601 135.909 273.601 135.909C271.347 135.216 269.908 135.354 269.908 135.354C270.09 135.995 272.991 139.474 272.991 139.474C275.184 141.846 274.642 143.36 274.642 143.36L273.689 145.529C273.601 145.691 273.498 145.83 273.364 145.924C273.722 145.339 271.446 142.658 271.446 142.658L268.258 138.579C266.936 136.833 267.479 135.986 267.479 135.986Z" fill="#4C4E9B"/>
<path d="M277.735 110.848L279.056 107.153C285.453 112.192 283.17 119.666 283.17 119.666C283.051 120.116 282.901 120.522 282.735 120.905C282.854 119.119 282.673 118.478 282.673 118.478C281.838 114.421 277.735 110.848 277.735 110.848Z" fill="#4C4E9B"/>
<path d="M271.54 127.668L272.325 125.115C272.375 124.947 272.44 124.802 272.52 124.678C272.41 125.523 273.215 126.864 273.215 126.864C273.761 127.883 275.276 129.094 275.276 129.094C277.949 130.863 277.657 132.402 277.657 132.402L276.865 135.326C276.83 135.418 276.794 135.51 276.742 135.58C277.135 134.47 274.827 132.747 274.827 132.747C270.594 130.133 271.54 127.668 271.54 127.668Z" fill="#4C4E9B"/>
<path d="M267.478 135.985L268.079 134.029C268.348 133.173 268.731 132.671 269.15 132.411C268.424 133.52 269.869 135.347 269.869 135.347C270.05 135.988 272.952 139.467 272.952 139.467C275.145 141.838 274.602 143.353 274.602 143.353L273.649 145.522C273.562 145.683 273.459 145.822 273.324 145.916C273.683 145.332 271.407 142.651 271.407 142.651L268.219 138.571C266.935 136.832 267.478 135.985 267.478 135.985Z" fill="#4C4E9B"/>
<path d="M258.135 14.1002C258.135 14.1002 259.42 12.6504 259.94 11.2279C259.94 11.2279 260.679 9.3404 260.651 8C260.706 8.2462 260.733 8.49239 260.761 8.73859L261.198 13.006C261.198 13.006 261.773 17.1913 258.244 20.0362C258.244 20.0362 256.274 22.0879 256.521 23.948C256.493 23.8112 256.466 23.6744 256.439 23.5103L256.001 18.6411C256.001 18.6138 255.891 16.0697 258.135 14.1002Z" fill="#8E19CB"/>
<path d="M88.0728 172.43C88.0728 172.901 87.9943 173.367 87.8417 173.802C87.6891 174.236 87.4654 174.631 87.1835 174.964C86.9015 175.297 86.5668 175.561 86.1984 175.741C85.83 175.921 85.4352 176.014 85.0364 176.014C84.2311 176.014 83.4588 175.636 82.8893 174.964C82.3199 174.292 82 173.381 82 172.43C82 171.48 82.3199 170.568 82.8893 169.896C83.4588 169.224 84.2311 168.847 85.0364 168.847C85.4352 168.847 85.83 168.939 86.1984 169.119C86.5668 169.3 86.9015 169.564 87.1835 169.896C87.4654 170.229 87.6891 170.624 87.8417 171.059C87.9943 171.494 88.0728 171.96 88.0728 172.43Z" fill="#4C4E9B"/>
<path d="M169.073 46.5835C169.073 47.5339 168.753 48.4454 168.183 49.1174C167.614 49.7895 166.842 50.167 166.036 50.167C165.231 50.167 164.459 49.7895 163.889 49.1174C163.32 48.4454 163 47.5339 163 46.5835C163 46.1129 163.079 45.6469 163.231 45.2122C163.384 44.7774 163.607 44.3823 163.889 44.0496C164.171 43.7168 164.506 43.4529 164.874 43.2728C165.243 43.0927 165.638 43 166.036 43C166.435 43 166.83 43.0927 167.198 43.2728C167.567 43.4529 167.902 43.7168 168.183 44.0496C168.465 44.3823 168.689 44.7774 168.842 45.2122C168.994 45.6469 169.073 46.1129 169.073 46.5835Z" fill="#8E19CB"/>
<path d="M164 204.518L169.252 195.847L171.659 202.576L164 204.518Z" fill="url(#mss0_linear)"/>
<path d="M60.8813 98.8467L58.4741 110.117L55 103.032L60.8813 98.8467Z" fill="#4C4E9B"/>
<path d="M131.845 6.34637L130.97 4.26739L129 3.93913L130.422 2.29783L130.067 0L131.845 1.0942L133.596 0L133.24 2.29783L134.662 3.93913L132.72 4.26739L131.845 6.34637Z" fill="#D81480"/>
<path d="M71.8352 46.5437L70.9598 44.4373L68.9902 44.1091L70.4127 42.4677L70.0844 40.1699L71.8352 41.2641L73.5859 40.1699L73.2576 42.4677L74.6801 44.1091L72.7105 44.4373L71.8352 46.5437Z" fill="#D81480"/>
<path d="M249.073 80.4302C249.073 80.9008 248.994 81.3668 248.842 81.8015C248.689 82.2363 248.465 82.6314 248.183 82.9641C247.902 83.2969 247.567 83.5608 247.198 83.7409C246.83 83.921 246.435 84.0137 246.036 84.0137C245.638 84.0137 245.243 83.921 244.874 83.7409C244.506 83.5608 244.171 83.2969 243.889 82.9641C243.607 82.6314 243.384 82.2363 243.231 81.8015C243.079 81.3668 243 80.9008 243 80.4302C243 79.9596 243.079 79.4936 243.231 79.0588C243.384 78.6241 243.607 78.229 243.889 77.8963C244.171 77.5635 244.506 77.2996 244.874 77.1195C245.243 76.9394 245.638 76.8467 246.036 76.8467C246.435 76.8467 246.83 76.9394 247.198 77.1195C247.567 77.2996 247.902 77.5635 248.183 77.8963C248.465 78.229 248.689 78.6241 248.842 79.0588C248.994 79.4936 249.073 79.9596 249.073 80.4302Z" fill="#FF6E52"/>
<path d="M231.726 22.415L232.601 24.5214L234.571 24.8496L233.148 26.4636L233.476 28.7614L231.726 27.6946L229.975 28.7614L230.303 26.4636L228.908 24.8496L230.85 24.5214L231.726 22.415Z" fill="#28B3B6"/>
<path d="M256.818 171.847L257.693 173.953L259.662 174.281L258.24 175.895L258.568 178.193L256.818 177.126L255.067 178.193L255.395 175.895L254 174.281L255.942 173.953L256.818 171.847Z" fill="#5490CB"/>
<defs>
<linearGradient id="mss0_linear" x1="171.659" y1="195.847" x2="162.632" y2="197.644" gradientUnits="userSpaceOnUse">
<stop stop-color="#09D0AF"/>
<stop offset="1" stop-color="#4695BD"/>
</linearGradient>
</defs>
</svg>
