<svg width="352" height="331" fill="none" xmlns="http://www.w3.org/2000/svg">
  <ellipse cx="178" cy="319" rx="174" ry="10" fill="#EFF1FF"/>
  <path d="M229 202c2-25-5-44-6-48-2 2-8 5-10 8-2 5-9 49-9 55l2 87 3 3c6-27 19-86 20-105z" fill="#6F73C7"/>
  <path d="M183 199c-3-30 5-39 9-40 8 1 24 3 24 5l-6 46-6 95c0 3-5 7-5 1s-12-70-16-107z" fill="#7C80D3"/>
  <path d="M218 307l-5-1-7-3c-1 3-3 7 1 7s16 2 16 0c0-1-2-3-5-3z" fill="#363983"/>
  <path d="M207 312c1-2-2-7-2-8h-6c-1 2-2 7-1 9s8 2 9-1z" fill="#363983"/>
  <path d="M219 75c0 3-7 7-11 9-12 6-24-16-24-19s13-9 17-13c4-3 9-7 14-3 6 5 4 22 4 26z" fill="#F9C7BE"/>
  <path fill-rule="evenodd" clip-rule="evenodd" d="M177 109c0 7 10 27 15 35l-5 14c10 8 21 10 25 10l3-5 4 5 8-5v-4l-2-18c1 0 13-2 16-4 4-2-8-20-8-22h-1c-1-3-13-19-13-22 0-2-8-5-10-5-1 0-11-5-15-5 0 1-3 6-9 9-8 4-8 10-8 17zm25 21c-5-2-8-15-9-21l7 18 13 1c-4 2-8 3-11 2z" fill="#DCE0FF"/>
  <path d="M193 109c1 6 4 19 9 21 3 1 7 0 11-2l-13-1-7-18z" fill="#DCE0FF"/>
  <path d="M192 108c1 7 4 20 9 22 3 1 7 0 11-2l-12-1-8-19zM228 131c0 3-8 7-12 9 3 2 25 0 26-3s-5-15-6-17l-13-20 7 20-2 11zM191 144l2 7c7-1 20-6 23-11-5 2-17 6-25 4z" fill="#CACEF2"/>
  <path d="M211 96l2-5-2-4c0 1-2 3-6 4-6 0-11-6-11-4s-3 3-2 5c0 2 7 5 11 6l3-5 5 3z" fill="#fff"/>
  <path d="M234 126c2 4-5 4-6 4l-2-5 2-3c1-1 5-1 6 4zM208 126l1 4-10 2c-3 0-2-4-1-6 1-3 8 0 10 0zM204 91c-5 0-9-5-11-7l-1-9c12 10 19 7 21 5l2 1c-1 3-5 10-11 10z" fill="#F6B9AD"/>
  <path d="M212 51c-3 7-15 12-21 13-1 8 2 12 4 13 1 6-2 13-3 15-1 1-8 1-12 5-5 5 0 18 0 21-8-5-4-19-4-23l-3-20c0-5 4-10 6-13 3-2 1-8 6-15s31-11 32-3c1 9 4 7 7 16s-7 20-8 24 2 4 3 7l2 7v0l-5-6c-2 0-6-3-6-4v-6c2 0 6-5 7-9s-1-17-1-19-3-3-4-3z" fill="#363983"/>
  <path d="M132 234l-8 13c2-2 6-4 10-4 8-1 7 8 0 10-6 2-11 2-13 0a134 134 0 00-7 16l7-6c5-3 11-1 10 4-2 4-7 8-12 8l-6-1-4 16c2-3 4-6 8-7 5-2 8-1 8 4 0 4-7 9-11 9h-5l-1 13h-1l1-19c-1 1-3 1-5-1-5-2-7-10-7-14s5-5 8-2c2 1 4 7 5 12l4-16-4-3c-4-2-6-8-6-12 1-4 6-9 9-4 3 3 3 9 3 12l7-15c-3 2-7-8-7-13 0-6 6-10 9-6 3 3 2 10 1 14l6-9c0-4 1-10 5-14 6-5 12-4 10 4-2 6-11 11-14 11z" fill="#C9CFFC"/>
  <path d="M25 234l8 13c-2-2-6-4-10-4-8-1-7 8 0 10 6 2 11 2 13 0a134 134 0 017 16l-7-6c-5-3-11-1-10 4 2 4 7 8 12 8l6-1 4 16c-2-3-4-6-8-7-5-2-8-1-8 4 0 4 7 9 11 9h5l1 13h1l-1-19c1 1 3 1 5-1 5-2 7-10 7-14s-5-5-8-2c-2 1-4 7-5 12l-4-16 4-3c4-2 6-8 6-12-1-4-6-9-9-4-3 3-3 9-3 12l-7-15c3 2 7-8 7-13 0-6-6-10-9-6-3 3-2 10-1 14l-6-9c0-4-1-10-5-14-6-5-12-4-10 4 2 6 11 11 14 11z" fill="#B9BCFF"/>
  <path d="M28 182l15 25c-5-4-12-9-21-9-15 0-13 16 0 21 12 4 23 3 26-1a254 254 0 0113 31c-4-5-9-10-14-13-9-4-20 0-17 9 2 8 13 14 21 15 6 0 11 0 13-2l6 31c-3-5-7-12-14-14-9-3-15-1-15 7-1 8 13 18 20 19l11-1 1 25h2c1-12 0-24-2-36 2 1 5 1 10-2 9-5 14-19 13-26-1-8-10-10-16-6-4 3-7 15-9 23-2-10-4-20-8-30l9-4c6-5 10-17 10-25 0-7-10-16-18-7-4 6-5 17-5 24l-13-28c7 2 14-17 14-27s-12-19-18-10c-5 6-3 18-2 26l-11-17c1-7-1-19-10-26-11-9-22-7-18 6 3 13 20 22 27 22zM319 189c3 5 8 17 7 26l-14-2 14 7c-2 5-5 18-12 27-5-2-14-4-16-3l14 6-5 8c-5-2-14-4-17-3 3 3 9 8 11 12-7 11-17 27-38 42l-6-2 5 3c-4 2-12 7-19 9-14-18-16-32-15-37 4 0 15-4 20-6-3 1-13-2-18-4v-3l15 1c-4 0-11-2-14-4 13-43 35-68 45-74 4 2 9 9 11 11 4-7 3-14 1-17 15-5 27 0 31 3z" fill="#C9CFFC"/>
  <path d="M319 189c-42 38-68 102-76 130 7-2 15-7 19-9l-5-3 6 2c21-15 31-31 38-42-2-4-8-9-11-12 3-1 13 1 17 3l5-8-14-6c2-1 11 1 16 3 7-9 10-22 12-27l-14-7c1-1 10 1 14 2 1-9-4-21-7-26z" fill="#B9BCFF"/>
  <path d="M316 207l-11 18c3-3 9-6 15-6 11 0 10 12 0 15-9 3-17 2-19-1a187 187 0 00-9 23c2-3 6-8 10-9 6-3 14-1 12 6-1 6-9 11-15 11l-9-1-5 23c2-5 5-10 10-11 7-2 11-1 11 5 1 6-9 13-14 14h-8l-1 18h-2c0-9 0-18 2-27-2 1-4 1-8-1-6-3-10-14-9-19 1-6 7-8 12-4 3 2 5 11 6 17l6-23-6-3c-5-4-8-12-8-18 1-6 8-12 13-5 3 4 4 12 4 18l9-22c-4 2-10-12-10-19s9-14 14-8c3 5 2 14 1 20l8-13c-1-5 1-14 7-19 8-7 16-5 13 5-2 9-14 16-19 16z" fill="#DCE0FF"/>
  <path d="M95 316l12-3 7-2c1 2 2 7-1 7H92c0-2 1-2 3-2zM133 320c-1-4 5-8 5-9l6-2c1 3 3 9 2 12-2 3-11 2-13-1z" fill="#363983"/>
  <path d="M147 73l5 15c0 1-3 3-8 4-5 2-11 0-14-2l2-12c0-1 15-10 15-5z" fill="#F6B9AD"/>
  <path d="M155 181s0 54-2 73-8 53-7 56c0 3-4 2-6 2-1 0-4 0-4-3 1-3-3-101-4-101-2 0-12 73-12 77 0 3-4 26-6 27-2 2-7 3-8-2s0-107 6-126c7-19 43-3 43-3z" fill="#6F73C7"/>
  <path d="M164 145l-9 38s-7 3-16 3c-10 0-26-3-26-3l5-86c0-1 7-5 11-6l12 2c4 0 9-3 12-5 7 1 22 5 24 9 2 5-13 45-13 48z" fill="#DCE0FF"/>
  <path d="M108 145c4 0 19-5 24-7 3-1 2-8 2-11l-19 2c-1-1 2-22 3-33-2 1-5 8-7 11l-13 36c0 3 5 2 10 2z" fill="#CACEF2"/>
  <path d="M118 131c-4-3 4-9 5-9 7 3 24 9 28 9s19-24 24-30c4-5 0 13-3 21s-9 26-14 27c-14 2-35-15-40-18z" fill="#CACEF2"/>
  <path d="M114 119c2 0 8 1 9 3l-5 7-9-3c-2-1 4-7 5-7zM150 134c-5 0-9-4-11-6 1-2 12-7 14-7 2 1 3 4 3 5s-1 7-6 8z" fill="#F4A392"/>
  <path d="M139 91s2 7 4 7c1 1 10-9 10-9 0-1-1-5-4-6-2 0-10 7-10 8zM128 92c0 1 3 6 5 7l3-7-5-6-3 6z" fill="#fff"/>
  <path d="M150 70c-1 8-10 12-13 12-7 1-11-7-12-11-1 0-3 1-5-3s2-5 4-6c0-6 0-17 2-18 1-1 10-2 19 0 8 2 7 11 6 15 1 0 4 1 5 5s-4 5-6 6z" fill="#F9C7BE"/>
  <path d="M120 45c1-4 4-11 7-11 6 0 23 6 24 13 5 5 1 14-1 16l-1-7c0-1-15-11-20-10-6 2-5 13-5 14l1 5c-8-3-6-14-5-20z" fill="#363983"/>
  <path d="M169 317l-5-3s-2-2-3 0l2-2 1-1s1-1 3 1l5 3 3 2-2 2s-2 1-4-2z" fill="#4C4E9B"/>
  <path d="M260 97l-5-3s-2-2-3 0l2-2 1-1s1-1 3 1l5 3 3 2-2 2s-2 1-4-2z" fill="#5155AA"/>
  <path d="M87 217l1-5v-3l1 1 2 1v3l-1 5-1 4-2-1s-2-1 0-5z" fill="#C9CFFC"/>
  <path d="M178 288l2-5s1-3-1-3l2 1 2 1v3l-1 5-1 4h-1l-2-1v-5z" fill="#5490CB"/>
  <path d="M259 35h2l2-2v4s0 3-5 2l4 3 2 1v5l-2 2-4 2s5 2 6 4-1 3-1 3l-6-3-2-2-1-1v-3s0-2 3-3l5-1-4-3-3-2v-4s0-2 4-2z" fill="#5155AA"/>
  <path d="M305 172v-4-2l-2 2s-3 2-1 7l-3-3-2-1-2 1-2 1-1 3 1 6s-3-5-6-5c-2 1-2 3-2 3l5 5 2 1h1l2-2s2-1 1-4v-6l3 3 3 2 3-3v-4z" fill="#28B3B6"/>
  <path d="M56 141l-1 3-1 2-1-2s-1-3 2-6l-4 2h-1l-2-2-1-1 1-3 1-4-5 2-1-1-2-2-1-3 2-4v-4h1l2 2v2l-2 7 5-2h3l1 2v4l-2 4 3-1s2-2 3-1l1 3s1 1-1 3z" fill="#C9CFFC"/>
  <path d="M56 141l-1 3-1 2-1-2s-1-3 2-6l1-3 1 3s1 1-1 3zM47 137l1 1 2 2v-3l2-5v-3l-1-2-1-1c1 1-1 4-1 4l-2 4v3zM43 129l1 3-1-1-2-2-1-3 2-4v-4h1l2 2v2l-2 7z" fill="#C9CFFC"/>
  <path d="M73 88l-2-2c-2-2-5-5-5-11 0 0 0-7 4-8l3 1s-4 1-4 9c0 0 0 6 4 10 0 0 7 3 9-3l3 1s-3 7-12 3z" fill="#8E19CB"/>
  <path d="M70 84c-9-2-10-7-10-7l3 2 2 2c2 2 4 1 4 1 6-1 6-8 6-8 0-4-2-6-2-6l-3-1h1c3 0 5 2 6 4l1 7c-1 3-3 4-4 5l-4 1zM206 13l-1 2-2 1-2-1-1-2 1-3 2-1 2 1 1 3z" fill="#8E19CB"/>
  <path d="M114 25l-1 3-2 1h-1l-1-1-1-1a4 4 0 010-3l1-1 1-1h1l2 1 1 2z" fill="#FF6E52"/>
  <path d="M163 28l-4-9 7 2-3 7z" fill="#D81480"/>
  <path d="M256 125l5 10-7-2 2-8z" fill="#5490CB"/>
  <path d="M279 155l1 2h2l-2 2 1 2-2-1-2 1v-2l-1-2h2l1-2zM185 137l1 2h2l-2 2 1 2-2-1-2 1v-2l-1-2h2l1-2z" fill="#B8DBDF"/>
  <path d="M267 136l1-2 1-2h2l4 1c-4-3-3-5-3-5v-3h1c0-2 2-2 2-2l8-4c-1-5-5-8-5-8l1-4c6 5 4 13 4 13a9 9 0 01-1 3l-5 3-4 1 2 2 3 3-1 3v1h-3l-4-1 3 4 2 4-1 3h-1c1-1-2-3-2-3l-3-4-1-3z" fill="#5155AA"/>
  <path d="M278 111l1-4c6 5 4 13 4 13v-2c-1-4-5-7-5-7zM272 128v-3h1v2l2 2 3 3-1 3v1c0-2-2-3-2-3-4-3-3-5-3-5zM267 136l1-2 1-2c-1 2 1 3 1 3l3 4 2 4-1 3h-1c1-1-2-3-2-3l-3-4-1-3z" fill="#4C4E9B"/>
  <path d="M258 14l2-3 1-3v5s1 4-3 7c0 0-2 2-1 4h-1v-5s0-3 2-5z" fill="#8E19CB"/>
  <path d="M88 172v2l-1 1-1 1h-1l-2-1-1-3 1-2 2-1h1l1 1 1 1v1z" fill="#C9CFFC"/>
  <path d="M169 47l-1 2-2 1-2-1-1-2v-2l1-1 1-1a3 3 0 012 0l1 1 1 1v2z" fill="#8E19CB"/>
  <path d="M164 205l5-9 3 7-8 2z" fill="url(#paint0_linear)"/>
  <path d="M61 99l-3 11-3-7 6-4z" fill="#4C4E9B"/>
  <path d="M132 6l-1-2h-2l1-2V0l2 1 2-1-1 2 2 2h-2l-1 2zM72 47l-1-3h-2l1-2v-2l2 1 2-1-1 2 2 2h-2l-1 3z" fill="#D81480"/>
  <path d="M249 80v2l-1 1-1 1a3 3 0 01-2 0l-1-1-1-1a4 4 0 010-3l1-1 1-1a3 3 0 012 0l1 1 1 1v1z" fill="#FF6E52"/>
  <path d="M232 22l1 3h2l-2 1v3l-1-1-2 1v-3l-1-1h2l1-3z" fill="#28B3B6"/>
  <path d="M257 172l1 2h2l-2 2 1 2-2-1-2 1v-2l-1-2h2l1-2z" fill="#5490CB"/>
  <defs>
    <linearGradient id="paint0_linear" x1="171.7" y1="195.8" x2="162.6" y2="197.6" gradientUnits="userSpaceOnUse">
      <stop stop-color="#09D0AF"/>
      <stop offset="1" stop-color="#4695BD"/>
    </linearGradient>
  </defs>
</svg>