<svg width="24" height="24" viewBox="0 0 24 24" fill="none" xmlns="http://www.w3.org/2000/svg">
<g clip-path="url(#netlify-clip0)">
<g clip-path="url(#netlify-clip1)">
<path d="M14.3526 15.5324L8.46647 14.3024C8.44182 14.3501 8.4144 14.3962 8.38434 14.4407L13.7428 22.2574L14.0661 21.9345L14.9777 16.2654C14.8236 16.2003 14.6869 16.1002 14.5783 15.9729C14.4698 15.8456 14.3925 15.6947 14.3526 15.5323V15.5324ZM12.2053 7.83797C11.9848 8.17622 11.6042 8.40009 11.1707 8.40009C11.1039 8.40009 11.0391 8.39334 10.9753 8.38322L8.29097 12.5833L15.4627 9.49706C15.4604 9.46819 15.454 9.44119 15.454 9.41156C15.454 9.35119 15.4623 9.29269 15.472 9.23494L12.2053 7.83806V7.83797ZM12.4003 7.07259L15.8752 8.55834C15.9859 8.47179 16.1125 8.40783 16.2479 8.37009L16.819 4.81884L14.6432 2.643L12.1941 6.47531C12.3141 6.65286 12.3852 6.8589 12.4003 7.07269V7.07259ZM19.6814 7.68122L17.5008 5.50022L17.0268 8.44472C17.1469 8.50514 17.2549 8.58727 17.3452 8.68697L19.6814 7.68122ZM14.4568 14.7568C14.5421 14.6019 14.6647 14.4707 14.8135 14.375C14.9623 14.2794 15.1325 14.2223 15.3089 14.2089L15.9352 10.3138C15.886 10.2812 15.8422 10.2422 15.799 10.2021L8.58609 13.3063C8.60447 13.3817 8.61722 13.4586 8.62322 13.5384L14.4568 14.7568ZM20.2754 8.27559L17.7524 9.36122L23.9775 12.0227L24 12.0002L20.2754 8.27559ZM15.7668 16.2772L15.0085 20.9913L19.4114 16.5884L16.24 15.9262C16.1184 16.0853 15.9544 16.207 15.7668 16.2772ZM7.20872 15.0652C7.04934 15.0652 6.89672 15.0378 6.75384 14.9893L5.29134 17.278L4.72622 16.7133L6.11147 14.5458C6.07721 14.5033 6.04529 14.4589 6.01584 14.4129L3.50634 15.4934L2.9115 14.8986L5.65837 13.7162L0.692344 12.6797L0.013125 12.0002L0.228 11.7853L5.95472 12.9808C6.02058 12.8559 6.1049 12.7416 6.20484 12.6418L3.42534 8.58759L3.98672 8.02622L6.89062 12.2623C6.9949 12.2381 7.10157 12.2256 7.20862 12.2252C7.33125 12.2252 7.45013 12.2424 7.56375 12.2717L10.2811 8.01984C10.0599 7.79035 9.93632 7.48398 9.93647 7.16522C9.93647 7.06772 9.94884 6.97322 9.97022 6.88247L6.58022 5.43309L7.17487 4.83834L10.3868 6.21197C10.5496 6.07773 10.7443 5.98766 10.952 5.95043C11.1598 5.91319 11.3736 5.93003 11.573 5.99934L14.0783 2.07825L12.0002 0L0 12.0002L12.0002 24.0004L13.1811 22.8195L7.78247 14.9436C7.60179 15.0237 7.40635 15.0651 7.20872 15.0652ZM16.699 10.4817L16.0619 14.4414C16.1732 14.5309 16.2655 14.6419 16.333 14.7677C16.4006 14.8935 16.4422 15.0317 16.4553 15.1739L20.0714 15.9288L23.3827 12.6175L17.4059 10.0622C17.2349 10.2899 16.9808 10.4407 16.699 10.4818V10.4817Z" fill="#25C7B7"/>
</g>
</g>
<defs>
<clipPath id="netlify-clip0">
<rect width="24" height="24" fill="white"/>
</clipPath>
<clipPath id="netlify-clip1">
<rect width="24" height="24" fill="white"/>
</clipPath>
</defs>
</svg>
