<svg width="677" height="290" viewBox="0 0 677 290" fill="none" xmlns="http://www.w3.org/2000/svg">
<path d="M284.625 180.93C282.433 184.045 279.61 188.581 276.743 193.998C279.167 191.723 282.933 189.282 287.336 189.239C295.097 189.164 294.426 197.742 287.336 200.075C281.192 202.096 275.513 201.575 273.953 199.539C271.839 203.966 269.805 208.786 268.096 213.776C267.998 214.062 267.901 214.35 267.804 214.638C267.684 214.997 267.565 215.356 267.448 215.716C269.156 213.464 271.798 210.561 274.486 209.255C278.977 207.073 284.798 209.105 283.529 213.545C282.261 217.984 276.514 221.37 272.484 221.521C269.362 221.638 266.868 221.69 265.902 220.771C264.377 226.119 263.175 231.562 262.354 237.057C263.857 234.133 266.441 230.426 269.573 229.497C274.648 227.992 277.634 229.046 277.857 233.335C278.081 237.624 271.066 242.741 267.334 242.967C264.831 243.118 262.727 243.072 261.622 242.956C261.197 247.279 261.016 251.624 261.108 255.97L259.68 256C259.546 249.63 259.988 243.267 260.921 236.976C259.983 237.344 258.31 237.356 255.766 235.969C251.214 233.486 248.602 226.036 249.05 222.048C249.497 218.06 254.199 216.705 257.334 219.188C259.463 220.875 261.091 227.092 261.897 231.311C262.954 225.914 264.359 220.585 266.059 215.367C265.136 215.477 263.78 214.54 261.737 213.018C258.304 210.459 256.363 204.515 256.438 200.376C256.513 196.237 261.662 191.722 265.469 196.538C267.909 199.626 268.37 205.27 268.253 209.16C270.321 203.763 272.701 198.648 275.071 194.108C271.641 195.454 267.7 185.31 267.633 180.36C267.558 174.867 273.902 170.201 277.26 174.791C279.55 177.92 278.931 184.452 278.082 188.618C280.173 184.992 282.143 181.943 283.752 179.689C283.633 176.054 284.506 169.63 288.903 166.063C295.023 161.096 300.545 162.15 298.605 169.373C296.82 176.018 288.152 180.944 284.625 180.93Z" fill="#121334"/>
<path d="M178.375 180.93C180.567 184.045 183.39 188.581 186.257 193.998C183.833 191.723 180.067 189.282 175.664 189.239C167.903 189.164 168.574 197.742 175.664 200.075C181.808 202.096 187.487 201.575 189.047 199.539C191.161 203.966 193.195 208.786 194.904 213.776C195.002 214.062 195.099 214.35 195.196 214.638C195.316 214.997 195.435 215.356 195.552 215.716C193.844 213.464 191.202 210.561 188.514 209.255C184.023 207.073 178.202 209.105 179.471 213.545C180.739 217.984 186.486 221.37 190.516 221.521C193.638 221.638 196.132 221.69 197.098 220.771C198.623 226.119 199.825 231.562 200.646 237.057C199.143 234.133 196.559 230.426 193.427 229.497C188.352 227.992 185.366 229.046 185.143 233.335C184.919 237.624 191.934 242.741 195.666 242.967C198.169 243.118 200.273 243.072 201.378 242.956C201.803 247.279 201.984 251.624 201.892 255.97L203.32 256C203.454 249.63 203.012 243.267 202.079 236.976C203.017 237.344 204.69 237.356 207.234 235.969C211.786 233.486 214.398 226.036 213.95 222.048C213.503 218.06 208.801 216.705 205.666 219.188C203.537 220.875 201.909 227.092 201.103 231.311C200.046 225.914 198.641 220.585 196.941 215.367C197.864 215.477 199.22 214.54 201.263 213.018C204.696 210.459 206.637 204.515 206.562 200.376C206.487 196.237 201.338 191.722 197.531 196.538C195.091 199.626 194.63 205.27 194.747 209.16C192.679 203.763 190.299 198.648 187.929 194.108C191.359 195.454 195.3 185.31 195.367 180.36C195.442 174.867 189.098 170.201 185.74 174.791C183.45 177.92 184.069 184.452 184.918 188.618C182.827 184.992 180.857 181.943 179.248 179.689C179.367 176.054 178.494 169.63 174.097 166.063C167.977 161.096 162.455 162.15 164.395 169.373C166.18 176.018 174.848 180.944 178.375 180.93Z" fill="#121334"/>
<path d="M180.6 129.124C184.808 135.054 190.228 143.685 195.734 153.996C191.08 149.666 183.848 145.02 175.396 144.939C160.493 144.796 161.783 161.122 175.396 165.562C187.192 169.409 198.096 168.417 201.089 164.543C205.149 172.967 209.054 182.141 212.335 191.639C212.523 192.183 212.71 192.73 212.895 193.279C213.126 193.961 213.354 194.645 213.58 195.33C210.301 191.045 205.228 185.52 200.068 183.034C191.444 178.881 180.268 182.748 182.704 191.198C185.14 199.648 196.173 206.092 203.911 206.379C209.904 206.601 214.694 206.701 216.549 204.952C219.477 215.129 221.784 225.489 223.361 235.947C220.474 230.383 215.514 223.328 209.499 221.56C199.755 218.695 194.024 220.7 193.594 228.864C193.164 237.027 206.633 246.766 213.798 247.195C218.605 247.484 222.644 247.395 224.766 247.175C225.582 255.403 225.928 263.672 225.753 271.943L228.495 272C228.752 259.877 227.904 247.767 226.111 235.793C227.913 236.494 231.124 236.517 236.008 233.876C244.749 229.15 249.765 214.972 248.905 207.381C248.045 199.791 239.018 197.213 232.999 201.939C228.912 205.149 225.786 216.982 224.238 225.011C222.209 214.74 219.511 204.598 216.247 194.666C218.019 194.875 220.622 193.093 224.545 190.195C231.136 185.326 234.862 174.012 234.719 166.135C234.576 158.258 224.688 149.665 217.38 158.831C212.696 164.707 211.809 175.45 212.035 182.853C208.063 172.581 203.495 162.846 198.944 154.205C205.529 156.766 213.096 137.461 213.225 128.04C213.368 117.585 201.188 108.705 194.74 117.442C190.345 123.397 191.532 135.829 193.162 143.757C189.148 136.856 185.366 131.052 182.275 126.763C182.505 119.845 180.828 107.619 172.386 100.829C160.636 91.3764 150.033 93.3814 153.758 107.13C157.185 119.777 173.828 129.152 180.6 129.124Z" fill="#24255C"/>
<path d="M510.925 94.4183C515.142 101.339 522.969 118.618 520.543 132.371C514.692 131.01 502.587 128.433 500.978 129.019C507.174 131.627 519.714 137.237 520.311 138.816C518.729 146.8 513.241 165.739 503.949 177.623C497.143 175.686 482.882 172.153 480.287 173.517C485.917 175.907 497.8 181.164 500.29 183.071C498.614 186.1 494.874 192.465 493.324 193.688C487.165 191.715 473.599 188.299 468.605 190.416C472.907 193.664 482.144 201.425 484.669 206.492C475.315 222.693 460.768 246.009 430.512 267.141C428.122 266.465 422.601 265.412 421.186 264.251C423.061 266.187 427.093 269.269 428.505 269.294C423.499 272.388 411.09 279.899 401.21 282C381.692 256.182 379.088 235.979 380.225 229.104C385.562 228.538 401.546 222.913 408.871 220.172C404.156 220.93 389.741 216.76 383.122 214.581C382.556 213.889 383.138 211.058 383.5 209.729C385.543 210.409 396.946 211.508 403.792 212.095C398.934 211.342 388.997 207.971 384.056 206.159C402.496 143.115 435.303 107.959 449.402 98.2609C454.776 101.991 462.281 111.156 465.362 115.272C470.788 104.617 468.643 93.8991 466.893 89.8723C487.719 83.0078 504.925 90.0427 510.925 94.4183Z" fill="#2F3175"/>
<path d="M510.907 94C449.868 149.472 412.203 242.447 401 282C410.897 279.895 423.328 272.367 428.343 269.265C426.928 269.241 422.89 266.152 421.011 264.211C422.428 265.375 427.959 266.43 430.354 267.108C460.662 245.928 475.235 222.561 484.605 206.324C482.076 201.246 472.823 193.467 468.513 190.212C473.516 188.09 487.106 191.514 493.276 193.491C494.829 192.266 498.575 185.886 500.253 182.85C497.759 180.939 485.855 175.67 480.215 173.275C482.815 171.908 497.101 175.449 503.919 177.39C513.228 165.48 518.725 146.499 520.31 138.497C519.712 136.915 507.15 131.291 500.943 128.677C502.554 128.091 514.681 130.673 520.543 132.037C522.972 118.253 515.132 100.936 510.907 94Z" fill="#24255C"/>
<path d="M349.144 194.321C347.828 196.485 345.386 201.891 346.142 206.193C347.969 205.767 351.746 204.961 352.248 205.144C350.315 205.96 346.401 207.715 346.215 208.209C346.709 210.707 348.421 216.631 351.321 220.349C353.445 219.743 357.895 218.638 358.705 219.064C356.948 219.812 353.24 221.456 352.463 222.053C352.986 223.001 354.153 224.992 354.636 225.374C356.558 224.757 360.792 223.688 362.35 224.351C361.008 225.367 358.125 227.795 357.337 229.38C360.256 234.448 364.796 241.741 374.237 248.352C374.983 248.14 376.706 247.811 377.148 247.448C376.562 248.053 375.304 249.017 374.864 249.025C376.426 249.993 380.298 252.343 383.381 253C389.472 244.924 390.285 238.604 389.93 236.453C388.264 236.276 383.277 234.516 380.991 233.659C382.462 233.896 386.96 232.592 389.026 231.91C389.202 231.693 389.021 230.808 388.908 230.392C388.27 230.605 384.712 230.949 382.575 231.132C384.091 230.897 387.192 229.842 388.734 229.275C382.98 209.554 372.742 198.556 368.343 195.523C366.666 196.689 364.324 199.557 363.362 200.844C361.669 197.511 362.338 194.158 362.885 192.899C356.385 190.751 351.016 192.952 349.144 194.321Z" fill="#24255C"/>
<path d="M349.112 194C367.932 211.409 379.546 240.587 383 253C379.948 252.339 376.115 249.977 374.569 249.003C375.005 248.996 376.251 248.026 376.83 247.417C376.393 247.783 374.688 248.114 373.949 248.326C364.604 241.68 360.111 234.346 357.222 229.251C358.002 227.657 360.855 225.216 362.183 224.194C360.641 223.528 356.451 224.603 354.548 225.223C354.069 224.839 352.915 222.837 352.397 221.884C353.166 221.284 356.836 219.631 358.575 218.879C357.774 218.45 353.369 219.561 351.267 220.17C348.396 216.432 346.702 210.476 346.213 207.964C346.397 207.468 350.271 205.703 352.184 204.883C351.687 204.699 347.948 205.509 346.141 205.937C345.392 201.611 347.809 196.177 349.112 194Z" fill="#2F3175"/>
<path d="M383.866 177.267C386.845 178.028 405.147 161.325 404.02 143.988C402.893 126.65 388.691 133.828 384.597 142.607C380.503 151.387 376.751 166.402 383.866 177.267ZM383.866 177.267C382.244 182.69 380.428 189.915 378.846 198.101M376.12 215.507C377.067 210.09 382.119 197.4 394.758 189.97C410.558 180.683 411.324 199.242 401.515 209.842C390.965 221.244 376.242 224.66 376.12 215.507ZM376.12 215.507C376.498 212.323 376.94 209.189 377.427 206.14M376.12 215.507C375.015 224.821 374.454 234.554 374.899 243.799M378.846 198.101C378.345 200.693 377.867 203.382 377.427 206.14M378.846 198.101C378.132 188.35 373.697 168.553 361.669 167.371C346.635 165.893 350.511 186.943 357.048 195.269C363.584 203.595 373.986 211.283 377.427 206.14M374.899 243.799C371.593 233.452 362.515 213.398 352.657 215.949C340.336 219.139 343.027 238.841 355.742 247.228C365.914 253.937 373.345 254.221 375.789 253.524M374.899 243.799C375.059 247.117 375.348 250.373 375.789 253.524M375.789 253.524C377.582 244.476 386.61 220.005 403.825 225.7C411.532 228.25 407.57 237.347 396.735 247.616C388.254 255.655 378.626 262.616 377.349 261.704M375.789 253.524C376.183 256.345 376.698 259.081 377.349 261.704M377.349 261.704C378.408 265.967 379.826 269.929 381.67 273.46" stroke="#D7D9FA" stroke-width="2" stroke-linecap="round" stroke-linejoin="round"/>
<path d="M450.875 184.067C447.806 188.423 443.854 194.763 439.84 202.337C443.233 199.156 448.507 195.744 454.67 195.684C465.536 195.579 464.596 207.572 454.67 210.834C446.069 213.66 438.118 212.931 435.935 210.085C432.974 216.273 430.128 223.012 427.735 229.989C427.598 230.389 427.462 230.791 427.326 231.194C427.158 231.695 426.992 232.197 426.827 232.7C429.218 229.553 432.917 225.494 436.68 223.668C442.968 220.618 451.117 223.458 449.341 229.665C447.565 235.872 439.52 240.606 433.877 240.817C429.507 240.98 426.015 241.053 424.662 239.769C422.527 247.245 420.845 254.855 419.695 262.537C421.8 258.45 425.417 253.267 429.803 251.968C436.908 249.864 441.087 251.337 441.4 257.334C441.714 263.33 431.892 270.484 426.668 270.8C423.163 271.012 420.218 270.946 418.67 270.785C418.075 276.829 417.823 282.903 417.951 288.979L415.951 289.021C415.764 280.115 416.383 271.219 417.69 262.424C416.376 262.939 414.035 262.956 410.473 261.016C404.099 257.544 400.443 247.129 401.069 241.553C401.696 235.977 408.279 234.084 412.667 237.555C415.648 239.913 417.927 248.606 419.055 254.504C420.535 246.958 422.503 239.508 424.882 232.213C423.591 232.366 421.692 231.057 418.832 228.929C414.025 225.352 411.309 217.041 411.413 211.254C411.518 205.468 418.727 199.156 424.056 205.889C427.472 210.205 428.119 218.097 427.954 223.535C430.85 215.99 434.181 208.838 437.499 202.491C432.698 204.373 427.18 190.191 427.086 183.27C426.982 175.59 435.863 169.068 440.564 175.485C443.769 179.86 442.903 188.992 441.715 194.816C444.642 189.747 447.4 185.483 449.653 182.332C449.486 177.251 450.709 168.27 456.864 163.282C465.432 156.338 473.164 157.811 470.447 167.911C467.948 177.201 455.813 184.088 450.875 184.067Z" fill="#121334"/>
<circle cx="309.87" cy="209.609" r="12.3913" fill="#9F52F5"/>
<circle cx="310.696" cy="114.609" r="6.6087" stroke="#9F52F5" stroke-width="4.95652"/>
<path fill-rule="evenodd" clip-rule="evenodd" d="M310.696 114.609C290.621 114.609 274.348 130.883 274.348 150.957V174.088C274.348 179.45 272.609 184.667 269.391 188.957L266.169 193.253C265.043 194.754 264.435 196.58 264.435 198.457V198.457C264.435 203.248 268.318 207.131 273.109 207.131H346.317C351.28 207.131 355.304 203.107 355.304 198.143V198.143C355.304 196.459 354.831 194.809 353.938 193.38L351.174 188.957C348.475 184.638 347.043 179.648 347.043 174.555V150.957C347.043 130.883 330.77 114.609 310.696 114.609Z" fill="#AF71FF"/>
<path fill-rule="evenodd" clip-rule="evenodd" d="M333.099 207.131H346.317C351.28 207.131 355.304 203.107 355.304 198.143C355.304 196.459 354.831 194.809 353.938 193.38L351.174 188.957C348.475 184.638 347.044 179.648 347.044 174.555V150.957C347.044 130.883 330.77 114.609 310.696 114.609C308.439 114.609 306.23 114.815 304.087 115.209C321.006 118.316 333.826 133.14 333.826 150.957V174.555C333.826 179.648 335.257 184.638 337.957 188.957L340.721 193.38C341.614 194.809 342.087 196.459 342.087 198.143C342.087 203.107 338.063 207.131 333.099 207.131Z" fill="#9F52F5"/>
<g filter="url(#filter0_d)">
<ellipse rx="19" ry="18.5" transform="matrix(-1 0 0 1 343 129.5)" fill="black" fill-opacity="0.11"/>
</g>
<g filter="url(#filter1_d)">
<ellipse rx="19" ry="18.5" transform="matrix(-1 0 0 1 347 125.5)" fill="url(#paint01_linear)"/>
</g>
<path d="M340.478 124.609L345.435 129.565L354.522 120.479" stroke="white" stroke-width="2.31304" stroke-linecap="round" stroke-linejoin="round"/>
<path fill-rule="evenodd" clip-rule="evenodd" d="M232.872 156.787C230.181 157.29 228.408 159.879 228.911 162.569L232.857 183.682C233.36 186.373 235.949 188.146 238.64 187.643L280.865 179.75C283.556 179.247 285.33 176.658 284.827 173.967L280.88 152.855C280.377 150.164 277.788 148.39 275.097 148.893L232.872 156.787ZM243.513 186.733L244.727 193.23C244.977 194.568 246.648 195.046 247.568 194.043L256.505 184.305L243.513 186.733Z" fill="black" fill-opacity="0.11"/>
<path fill-rule="evenodd" clip-rule="evenodd" d="M226.872 153.787C224.181 154.29 222.408 156.879 222.911 159.569L226.857 180.682C227.36 183.373 229.949 185.146 232.64 184.643L274.865 176.75C277.556 176.247 279.33 173.658 278.827 170.967L274.88 149.855C274.377 147.164 271.788 145.39 269.097 145.893L226.872 153.787ZM237.513 183.733L238.727 190.23C238.977 191.568 240.648 192.046 241.568 191.043L250.505 181.305L237.513 183.733Z" fill="url(#paint11_linear)"/>
<path d="M251.67 166.937L248.864 171.033L252.96 173.84L255.767 169.743L251.67 166.937ZM250.06 159.815C247.797 158.265 244.707 158.842 243.157 161.105C241.607 163.368 242.185 166.458 244.447 168.008L250.06 159.815ZM258.792 165.327C260.342 163.064 259.764 159.973 257.501 158.424C255.239 156.874 252.148 157.451 250.598 159.714L258.792 165.327ZM254.476 162.84L250.06 159.815L244.447 168.008L248.864 171.033L254.476 162.84ZM250.598 159.714L247.573 164.13L255.767 169.743L258.792 165.327L250.598 159.714Z" fill="white"/>
<g filter="url(#filter2_d)">
<path fill-rule="evenodd" clip-rule="evenodd" d="M365.131 173.525C362.431 173.073 359.875 174.895 359.423 177.594L356.87 192.823C356.418 195.523 358.239 198.079 360.939 198.531L369.842 200.023C376.268 201.101 382.172 204.233 386.666 208.95V208.95C387.605 209.936 389.267 209.427 389.492 208.084L390.269 203.446C390.269 203.446 390.269 203.446 390.269 203.446V203.446C390.269 203.446 390.269 203.446 390.269 203.446L393.641 183.33C394.094 180.63 392.272 178.075 389.572 177.622L365.131 173.525Z" fill="black" fill-opacity="0.11"/>
</g>
<path fill-rule="evenodd" clip-rule="evenodd" d="M370.13 169.525C367.43 169.073 364.875 170.895 364.422 173.594L361.87 188.823C361.417 191.523 363.239 194.079 365.939 194.531L384.741 197.683L391.666 204.95C392.605 205.936 394.266 205.427 394.491 204.084L395.269 199.446L395.269 199.446L398.641 179.33C399.093 176.63 397.271 174.075 394.572 173.622L370.13 169.525Z" fill="#F97C80"/>
<rect x="370.719" y="176.389" width="22.6856" height="4.00334" rx="2.00167" transform="rotate(9.51549 370.719 176.389)" fill="#FFFEFE"/>
<rect x="369.395" y="184.285" width="22.6856" height="4.00334" rx="2.00167" transform="rotate(9.51549 369.395 184.285)" fill="#FFFEFE"/>
<circle cx="297.478" cy="190.608" r="1.65217" fill="#CDB4ED"/>
<circle cx="289.217" cy="190.608" r="1.65217" fill="#CDB4ED"/>
<circle cx="280.956" cy="190.608" r="1.65217" fill="#CDB4ED"/>
<circle cx="272.696" cy="190.608" r="1.65217" fill="#CDB4ED"/>
<circle cx="294.174" cy="198.87" r="1.65217" fill="#CDB4ED"/>
<circle cx="285.913" cy="198.87" r="1.65217" fill="#CDB4ED"/>
<circle cx="277.652" cy="198.87" r="1.65217" fill="#CDB4ED"/>
<circle cx="269.391" cy="198.87" r="1.65217" fill="#CDB4ED"/>
<rect y="256" width="677" height="26" rx="13" fill="#121334"/>
<g filter="url(#filter3_f)">
<path d="M663 256.376H16" stroke="url(#paint21_linear)" stroke-width="3"/>
</g>
<defs>
<filter id="filter0_d" x="250" y="41" width="186" height="185" filterUnits="userSpaceOnUse" color-interpolation-filters="sRGB">
<feFlood flood-opacity="0" result="BackgroundImageFix"/>
<feColorMatrix in="SourceAlpha" type="matrix" values="0 0 0 0 0 0 0 0 0 0 0 0 0 0 0 0 0 0 127 0"/>
<feOffset dy="4"/>
<feGaussianBlur stdDeviation="37"/>
<feColorMatrix type="matrix" values="0 0 0 0 0 0 0 0 0 0 0 0 0 0 0 0 0 0 0.25 0"/>
<feBlend mode="normal" in2="BackgroundImageFix" result="effect1_dropShadow"/>
<feBlend mode="normal" in="SourceGraphic" in2="effect1_dropShadow" result="shape"/>
</filter>
<filter id="filter1_d" x="254" y="37" width="186" height="185" filterUnits="userSpaceOnUse" color-interpolation-filters="sRGB">
<feFlood flood-opacity="0" result="BackgroundImageFix"/>
<feColorMatrix in="SourceAlpha" type="matrix" values="0 0 0 0 0 0 0 0 0 0 0 0 0 0 0 0 0 0 127 0"/>
<feOffset dy="4"/>
<feGaussianBlur stdDeviation="37"/>
<feColorMatrix type="matrix" values="0 0 0 0 0 0 0 0 0 0 0 0 0 0 0 0 0 0 0.25 0"/>
<feBlend mode="normal" in2="BackgroundImageFix" result="effect1_dropShadow"/>
<feBlend mode="normal" in="SourceGraphic" in2="effect1_dropShadow" result="shape"/>
</filter>
<filter id="filter2_d" x="281" y="102.706" width="187.461" height="185.01" filterUnits="userSpaceOnUse" color-interpolation-filters="sRGB">
<feFlood flood-opacity="0" result="BackgroundImageFix"/>
<feColorMatrix in="SourceAlpha" type="matrix" values="0 0 0 0 0 0 0 0 0 0 0 0 0 0 0 0 0 0 127 0"/>
<feOffset dy="4"/>
<feGaussianBlur stdDeviation="37"/>
<feColorMatrix type="matrix" values="0 0 0 0 0 0 0 0 0 0 0 0 0 0 0 0 0 0 0.25 0"/>
<feBlend mode="normal" in2="BackgroundImageFix" result="effect1_dropShadow"/>
<feBlend mode="normal" in="SourceGraphic" in2="effect1_dropShadow" result="shape"/>
</filter>
<filter id="filter3_f" x="15" y="253.876" width="649" height="5" filterUnits="userSpaceOnUse" color-interpolation-filters="sRGB">
<feFlood flood-opacity="0" result="BackgroundImageFix"/>
<feBlend mode="normal" in="SourceGraphic" in2="BackgroundImageFix" result="shape"/>
<feGaussianBlur stdDeviation="0.5" result="effect1_foregroundBlur"/>
</filter>
<linearGradient id="paint01_linear" x1="10.9375" y1="0.365409" x2="-3.6858" y2="32.3176" gradientUnits="userSpaceOnUse">
<stop stop-color="#09D0AF"/>
<stop offset="1" stop-color="#4695BD"/>
</linearGradient>
<linearGradient id="paint11_linear" x1="277.348" y1="166.461" x2="222" y2="153.244" gradientUnits="userSpaceOnUse">
<stop stop-color="#FF855E"/>
<stop offset="0.0001" stop-color="#FF8960"/>
<stop offset="1" stop-color="#FFC77E"/>
</linearGradient>
<linearGradient id="paint21_linear" x1="37.5988" y1="257.952" x2="640.9" y2="259.162" gradientUnits="userSpaceOnUse">
<stop stop-color="#A109D5" stop-opacity="0"/>
<stop offset="0.38159" stop-color="#C33EEE"/>
<stop offset="0.635417" stop-color="#F549AB"/>
<stop offset="0.985404" stop-color="#D8147F" stop-opacity="0"/>
</linearGradient>
</defs>
</svg>
