<svg width="20" height="20" viewBox="0 0 20 20" fill="none" xmlns="http://www.w3.org/2000/svg">
<path d="M15.544 1.74044L15.824 0.928441C15.936 0.648441 15.796 0.312441 15.488 0.228441C15.208 0.116441 14.872 0.284441 14.788 0.564441L14.48 1.34844C10.868 0.368441 7.03201 2.27244 5.71601 5.80044L3.89601 10.7844L0.536013 12.3244C0.0880126 12.5204 0.116012 13.1644 0.592012 13.3324L6.64001 15.5444C6.38801 16.9724 7.20001 18.4004 8.60001 18.9044C10 19.4084 11.568 18.8204 12.296 17.5884L18.4 19.7724C18.68 19.8844 19.016 19.7444 19.128 19.4364C19.184 19.2684 19.156 19.1004 19.072 18.9604L17.532 15.6844L19.352 10.7004C20.668 7.17244 18.96 3.28044 15.544 1.74044ZM9.02001 17.8684C8.18001 17.5604 7.67601 16.7764 7.73201 15.9364L11.26 17.1964C10.756 17.8684 9.83201 18.1484 9.02001 17.8684ZM18.316 10.3364L16.412 15.5164C16.356 15.6564 16.356 15.7964 16.44 15.9364L17.532 18.2604L12.24 16.3844L7.50801 14.6764L2.21601 12.7724L4.56801 11.6804C4.70801 11.6244 4.79201 11.5124 4.84801 11.3724L6.75201 6.19244C7.90001 3.05644 11.428 1.43244 14.62 2.55244C17.812 3.70044 19.464 7.20044 18.316 10.3364Z" fill="white"/>
<path d="M18.316 10.3364L16.412 15.5164C16.356 15.6564 16.356 15.7964 16.44 15.9364L17.532 18.2604L12.24 16.3844L7.50801 14.6764L2.21601 12.7724L4.56801 11.6804C4.70801 11.6244 4.79201 11.5124 4.84801 11.3724L6.75201 6.19244C7.90001 3.05644 11.428 1.43244 14.62 2.55244C17.812 3.70044 19.464 7.20044 18.316 10.3364Z" fill="white"/>
</svg>
