<svg width="24" height="24" viewBox="0 0 24 24" fill="none" xmlns="http://www.w3.org/2000/svg">
<path d="M12 22C6.477 22 2 17.523 2 12C2 6.477 6.477 2 12 2C17.523 2 22 6.477 22 12C22 17.523 17.523 22 12 22ZM12 20C14.1217 20 16.1566 19.1571 17.6569 17.6569C19.1571 16.1566 20 14.1217 20 12C20 9.87827 19.1571 7.84344 17.6569 6.34315C16.1566 4.84285 14.1217 4 12 4C9.87827 4 7.84344 4.84285 6.34315 6.34315C4.84285 7.84344 4 9.87827 4 12C4 14.1217 4.84285 16.1566 6.34315 17.6569C7.84344 19.1571 9.87827 20 12 20ZM10.622 8.415L15.501 11.667C15.5559 11.7035 15.6009 11.753 15.632 11.8111C15.6631 11.8692 15.6794 11.9341 15.6794 12C15.6794 12.0659 15.6631 12.1308 15.632 12.1889C15.6009 12.247 15.5559 12.2965 15.501 12.333L10.621 15.585C10.5608 15.6249 10.491 15.6477 10.4189 15.6512C10.3468 15.6546 10.2751 15.6384 10.2114 15.6043C10.1477 15.5703 10.0945 15.5197 10.0573 15.4578C10.02 15.396 10.0003 15.3252 10 15.253V8.747C10.0001 8.67465 10.0199 8.60369 10.0572 8.54168C10.0944 8.47967 10.1478 8.42893 10.2116 8.39486C10.2755 8.36079 10.3473 8.34467 10.4196 8.34822C10.4919 8.35177 10.5618 8.37485 10.622 8.415Z" fill="currentColor"/>
</svg>
