<svg width="24" height="24" viewBox="0 0 24 24" fill="none" xmlns="http://www.w3.org/2000/svg">
<g clip-path="url(#react-clip0)">
<path d="M11.9998 14.1852C13.2068 14.1852 14.1852 13.2068 14.1852 11.9998C14.1852 10.7929 13.2068 9.81445 11.9998 9.81445C10.7929 9.81445 9.81445 10.7929 9.81445 11.9998C9.81445 13.2068 10.7929 14.1852 11.9998 14.1852Z" fill="#61DAFB"/>
<path d="M20.301 8.39623C19.8792 8.24287 19.4383 8.08951 18.9783 7.95532C19.0933 7.49524 19.1891 7.03516 19.2658 6.59426C19.6684 4.06382 19.2275 2.28102 18.0006 1.5909C17.6364 1.38003 17.2338 1.28418 16.7737 1.28418C15.4318 1.28418 13.7257 2.28102 12.0004 3.9488C10.2751 2.28102 8.56897 1.28418 7.22707 1.28418C6.76699 1.28418 6.36442 1.38003 6.00019 1.5909C4.77332 2.30019 4.33241 4.08299 4.73498 6.59426C4.81166 7.03516 4.90751 7.49524 5.02253 7.95532C4.56245 8.08951 4.12154 8.2237 3.6998 8.39623C1.30356 9.31639 0 10.5816 0 12.0002C0 13.4188 1.32273 14.684 3.6998 15.6041C4.12154 15.7575 4.56245 15.9109 5.02253 16.045C4.90751 16.5051 4.81166 16.9652 4.73498 17.4061C4.33241 19.9365 4.77332 21.7193 6.00019 22.4095C6.36442 22.6203 6.76699 22.7162 7.22707 22.7162C8.58814 22.7162 10.2943 21.7193 12.0004 20.0516C13.7257 21.7193 15.4318 22.7162 16.7737 22.7162C17.2338 22.7162 17.6364 22.6203 18.0006 22.4095C19.2275 21.7002 19.6684 19.9174 19.2658 17.4061C19.1891 16.9652 19.0933 16.5051 18.9783 16.045C19.4383 15.9109 19.8792 15.7767 20.301 15.6041C22.6972 14.684 24.0008 13.4188 24.0008 12.0002C24.0008 10.5816 22.6972 9.31639 20.301 8.39623ZM17.4638 2.5494C18.2498 3.00948 18.5182 4.42805 18.1923 6.4409C18.1348 6.84347 18.0389 7.2652 17.9239 7.70611C16.9271 7.47607 15.8727 7.32271 14.7609 7.22686C14.1091 6.30671 13.4381 5.4824 12.7672 4.73477C14.1858 3.33536 15.6235 2.37687 16.7929 2.37687C17.0421 2.37687 17.2721 2.43438 17.4638 2.5494ZM15.3168 13.9172C14.9717 14.5306 14.5692 15.1441 14.1474 15.7575C13.4381 15.815 12.7288 15.8342 12.0004 15.8342C11.2528 15.8342 10.5435 15.815 9.85335 15.7575C9.43161 15.1441 9.04822 14.5306 8.70316 13.9172C8.33893 13.2846 7.99387 12.6328 7.68715 12.0002C7.99387 11.3676 8.33893 10.7158 8.70316 10.0832C9.04822 9.46975 9.45079 8.85631 9.87252 8.24287C10.5818 8.18536 11.2911 8.16619 12.0196 8.16619C12.7672 8.16619 13.4765 8.18536 14.1666 8.24287C14.5883 8.85631 14.9717 9.46975 15.3168 10.0832C15.681 10.7158 16.0261 11.3676 16.3328 12.0002C16.0069 12.6328 15.681 13.2654 15.3168 13.9172ZM16.9079 13.2846C17.1954 13.9555 17.4255 14.6073 17.6364 15.2591C16.9846 15.4124 16.2945 15.5275 15.566 15.6233C15.796 15.2591 16.0452 14.8757 16.2561 14.4731C16.4862 14.0705 16.697 13.668 16.9079 13.2846ZM12.0004 18.4796C11.5403 17.9812 11.0994 17.4445 10.6777 16.8885C11.1186 16.9077 11.5595 16.9269 12.0004 16.9269C12.4413 16.9269 12.8822 16.9077 13.3231 16.8885C12.9014 17.4445 12.4605 17.9812 12.0004 18.4796ZM8.43478 15.6041C7.70632 15.5083 7.0162 15.3933 6.36442 15.2399C6.57529 14.6073 6.80533 13.9363 7.09288 13.2654C7.30375 13.6488 7.51462 14.0514 7.74466 14.4348C7.9747 14.8565 8.20474 15.2207 8.43478 15.6041ZM7.09288 10.7158C6.80533 10.0448 6.57529 9.39307 6.36442 8.74129C7.0162 8.58793 7.70632 8.47291 8.43478 8.37706C8.20474 8.74129 7.95553 9.12469 7.74466 9.52726C7.51462 9.92983 7.30375 10.3324 7.09288 10.7158ZM12.0004 5.52074C12.4605 6.01916 12.9014 6.55592 13.3231 7.11185C12.8822 7.09268 12.4413 7.0735 12.0004 7.0735C11.5595 7.0735 11.1186 7.09268 10.6777 7.11185C11.0994 6.55592 11.5403 6.01916 12.0004 5.52074ZM16.2561 9.54643L15.566 8.39623C16.2945 8.49208 16.9846 8.6071 17.6364 8.76046C17.4255 9.39307 17.1954 10.064 16.9079 10.735C16.697 10.3324 16.4862 9.92983 16.2561 9.54643ZM5.8085 6.4409C5.48261 4.42805 5.75098 3.00948 6.53695 2.5494C6.72865 2.43438 6.95869 2.37687 7.2079 2.37687C8.3581 2.37687 9.79584 3.31619 11.2336 4.73477C10.5626 5.46323 9.89169 6.30671 9.23992 7.22686C8.12806 7.32271 7.07371 7.49524 6.07687 7.70611C5.96185 7.2652 5.88518 6.84347 5.8085 6.4409ZM1.07352 12.0002C1.07352 11.0992 2.1662 10.1407 4.0832 9.43141C4.4666 9.27805 4.88834 9.14386 5.31008 9.02884C5.6168 9.98734 6.00019 11.0033 6.46027 12.0194C6.00019 13.0354 5.59763 14.0322 5.31008 14.9907C2.66462 14.2239 1.07352 13.0737 1.07352 12.0002ZM6.53695 21.451C5.75098 20.9909 5.48261 19.5723 5.8085 17.5595C5.866 17.1569 5.96185 16.7352 6.07687 16.2943C7.07371 16.5243 8.12806 16.6777 9.23992 16.7735C9.89169 17.6937 10.5626 18.518 11.2336 19.2656C9.81501 20.665 8.37727 21.6235 7.2079 21.6235C6.95869 21.6235 6.72865 21.566 6.53695 21.451ZM18.1923 17.5595C18.5182 19.5723 18.2498 20.9909 17.4638 21.451C17.2721 21.566 17.0421 21.6235 16.7929 21.6235C15.6427 21.6235 14.2049 20.6842 12.7672 19.2656C13.4381 18.5371 14.1091 17.6937 14.7609 16.7735C15.8727 16.6777 16.9271 16.5051 17.9239 16.2943C18.0389 16.7352 18.1156 17.1569 18.1923 17.5595ZM19.9176 14.569C19.5342 14.7223 19.1124 14.8565 18.6907 14.9715C18.384 14.013 18.0006 12.997 17.5405 11.981C18.0006 10.965 18.4032 9.96817 18.6907 9.00967C21.3362 9.77647 22.9273 10.9267 22.9273 12.0002C22.9273 12.9012 21.8154 13.8597 19.9176 14.569Z" fill="#61DAFB"/>
</g>
<defs>
<clipPath id="react-clip0">
<rect width="24" height="24" fill="white"/>
</clipPath>
</defs>
</svg>
