<svg width="22" height="22" viewBox="0 0 22 22" fill="none" xmlns="http://www.w3.org/2000/svg">
<path d="M10.9999 0C4.92497 0 0 4.92495 0 11.0001C0 17.0754 4.92497 22 10.9999 22C17.0756 22 22 17.0754 22 11.0001C22 4.92535 17.0756 0.000525424 10.9998 0.000525424L10.9999 0ZM16.0444 15.8653C15.8474 16.1884 15.4244 16.2908 15.1013 16.0925C12.5186 14.5149 9.26738 14.1576 5.43843 15.0325C5.06946 15.1165 4.70167 14.8853 4.6176 14.5162C4.53314 14.1471 4.7634 13.7793 5.13329 13.6952C9.32347 12.7379 12.9177 13.1501 15.8172 14.9221C16.1403 15.1205 16.2428 15.5421 16.0444 15.8653ZM17.3908 12.8701C17.1425 13.2736 16.6145 13.401 16.2113 13.1527C13.2545 11.3353 8.74735 10.8089 5.25007 11.8706C4.7965 12.0076 4.31746 11.752 4.1798 11.2992C4.04319 10.8456 4.29894 10.3675 4.75171 10.2295C8.74657 9.01737 13.7129 9.60453 17.1084 11.6911C17.5117 11.9394 17.6391 12.4673 17.3908 12.8701ZM17.5064 9.75113C13.9612 7.64535 8.112 7.45173 4.72715 8.47907C4.18361 8.64392 3.60881 8.33707 3.44409 7.79352C3.27937 7.2497 3.58595 6.67528 4.12988 6.51003C8.01545 5.33045 14.4748 5.55836 18.5564 7.98149C19.0464 8.27166 19.2066 8.90309 18.9163 9.39134C18.6274 9.88025 17.9942 10.0414 17.5069 9.75113H17.5064Z" fill="currentColor"/>
</svg>
