<svg width="338" height="343" viewBox="0 0 338 343" fill="none" xmlns="http://www.w3.org/2000/svg">
<ellipse cx="171.173" cy="332.699" rx="137.583" ry="9.64864" fill="#EFF1FF"/>
<g clip-path="url(#clip0)">
<path d="M187.279 12.5907C186.813 25.14 192.61 26.2356 199.273 25.9036C205.937 25.5716 214.266 22.3844 214.066 12.5907C213.866 2.79696 207.502 -0.0652751 202.505 0.00112328C197.508 0.0675217 187.746 0.0414017 187.279 12.5907Z" fill="#EFF1FF"/>
<path fill-rule="evenodd" clip-rule="evenodd" d="M201.094 4.3252C196.317 4.3252 192.443 8.29593 192.443 13.1946C192.443 17.1135 194.922 20.438 198.359 21.6109C198.791 21.6932 198.95 21.4185 198.95 21.1843C198.95 20.9728 198.942 20.2741 198.938 19.533C196.532 20.0695 196.024 18.4865 196.024 18.4865C195.63 17.4613 195.063 17.1887 195.063 17.1887C194.278 16.6382 195.122 16.6497 195.122 16.6497C195.991 16.7121 196.449 17.5637 196.449 17.5637C197.22 18.9193 198.472 18.5275 198.966 18.301C199.043 17.7277 199.268 17.3363 199.515 17.1148C197.594 16.8908 195.574 16.1302 195.574 12.7317C195.574 11.7633 195.912 10.9721 196.465 10.3508C196.375 10.1276 196.079 9.2255 196.549 8.0038C196.549 8.0038 197.275 7.76542 198.928 8.91295C199.618 8.71628 200.358 8.61744 201.094 8.61406C201.829 8.61744 202.569 8.71599 203.261 8.91265C204.912 7.76513 205.637 8.0035 205.637 8.0035C206.108 9.22505 205.812 10.1273 205.722 10.3505C206.277 10.9718 206.612 11.763 206.612 12.7314C206.612 16.138 204.589 16.8879 202.662 17.1076C202.973 17.3829 203.249 17.9228 203.249 18.7501C203.249 19.9369 203.239 20.892 203.239 21.1841C203.239 21.4201 203.395 21.6967 203.833 21.6096C207.268 20.4355 209.744 17.112 209.744 13.1946C209.744 8.29622 205.871 4.32534 201.094 4.32534V4.3252Z" fill="#9B9CEA"/>
</g>
<g clip-path="url(#clip1)">
<path d="M92.2205 14.4852C91.8143 25.3612 96.8633 26.3108 102.667 26.023C108.47 25.7353 115.725 22.9731 115.551 14.4852C115.377 5.99727 109.834 3.51667 105.482 3.57422C101.129 3.63176 92.6268 3.60912 92.2205 14.4852Z" fill="#EFF1FF"/>
<path d="M110.781 11.5635C110.78 11.2638 110.75 10.9648 110.69 10.6712C110.578 10.0684 110.279 9.51602 109.837 9.09175C109.612 8.87015 109.35 8.68972 109.063 8.5587C108.784 8.4195 108.486 8.32237 108.178 8.27046C107.874 8.21123 107.539 8.21123 107.235 8.18359H99.7247C99.4907 8.18782 99.2572 8.20761 99.0258 8.24282C98.7952 8.26967 98.5693 8.32813 98.3546 8.41656C98.2954 8.44419 98.2006 8.47578 98.1414 8.50342C97.9372 8.61101 97.7429 8.73654 97.561 8.87853C97.5017 8.93776 97.4386 8.9654 97.3793 9.02068C97.1523 9.22501 96.9637 9.4684 96.8226 9.7393C96.6722 10.0079 96.5694 10.3004 96.5185 10.604C96.4734 10.8984 96.4431 11.195 96.4277 11.4924V18.3747C96.4278 18.6744 96.4582 18.9734 96.5185 19.267C96.6306 19.8698 96.9289 20.4222 97.3714 20.8464C97.5939 21.0613 97.8517 21.2362 98.1335 21.3637C98.4125 21.5029 98.7105 21.6 99.018 21.6519C99.322 21.7112 99.6576 21.7112 99.9616 21.7388H107.251C107.567 21.7384 107.883 21.7094 108.194 21.6519C108.496 21.5998 108.789 21.504 109.063 21.3676C109.349 21.232 109.614 21.058 109.853 20.8504C110.077 20.6454 110.263 20.402 110.401 20.1318C110.552 19.8632 110.655 19.5706 110.706 19.267C110.751 18.9713 110.781 18.6735 110.796 18.3747V11.5635H110.781Z" fill="#F05138"/>
<path d="M106.024 18.6718C104.745 19.3707 102.988 19.4418 101.223 18.7271C99.8458 18.1731 98.667 17.2185 97.8389 15.9869C98.2248 16.2751 98.6453 16.5139 99.0905 16.6976C100.915 17.4873 102.743 17.4518 104.026 16.6976C102.332 15.4087 100.807 13.9124 99.4854 12.2437C99.2567 12.0015 99.053 11.737 98.8773 11.454C100.265 12.6196 101.741 13.6757 103.292 14.6128C102.162 13.4672 101.123 12.2355 100.184 10.9288C101.75 12.4307 103.471 13.7623 105.317 14.901L105.515 15.0116C105.568 14.8827 105.614 14.7509 105.653 14.6167C106.079 13.1479 105.594 11.4777 104.528 10.0957C106.995 11.5053 108.456 14.1548 107.848 16.3738C107.848 16.433 107.817 16.4923 107.797 16.5515L107.817 16.5752C109.037 18.0164 108.701 19.5405 108.547 19.2523C107.88 18.048 106.644 18.4191 106.024 18.6718Z" fill="#FEFEFE"/>
</g>
<g clip-path="url(#clip2)">
<path d="M66.9036 81.9077C67.1849 89.4595 63.6884 90.1188 59.6694 89.919C55.6504 89.7192 50.6267 87.8013 50.7472 81.9077C50.8678 76.0142 54.7059 74.2918 57.7202 74.3317C60.7344 74.3717 66.6223 74.356 66.9036 81.9077Z" fill="#EFF1FF"/>
<path d="M56.9291 83.8213C57.0889 83.8213 57.2323 83.7935 57.3592 83.7379C57.4862 83.68 57.5934 83.5989 57.6809 83.4947C57.7685 83.3904 57.8352 83.2642 57.8812 83.1159C57.9272 82.9676 57.9502 82.8009 57.9502 82.6155V79.6133H58.9351V82.6155C58.9351 82.9213 58.888 83.2028 58.7939 83.4599C58.702 83.7147 58.5695 83.9348 58.3966 84.1201C58.2237 84.3055 58.0136 84.4502 57.7663 84.5545C57.519 84.6587 57.2399 84.7108 56.9291 84.7108C56.6183 84.7108 56.3382 84.6587 56.0887 84.5545C55.8414 84.4502 55.6312 84.3055 55.4583 84.1201C55.2854 83.9348 55.1519 83.7147 55.0578 83.4599C54.9659 83.2028 54.9199 82.9213 54.9199 82.6155V79.6133H55.9048V82.6155C55.9048 82.8009 55.9278 82.9676 55.9738 83.1159C56.0197 83.2642 56.0865 83.3904 56.174 83.4947C56.2616 83.5989 56.3688 83.68 56.4958 83.7379C56.6227 83.7935 56.7672 83.8213 56.9291 83.8213Z" fill="#CB4B94"/>
<path d="M63.8407 84.6553H62.8558C62.7901 84.6553 62.7365 84.6379 62.6949 84.6031C62.6555 84.5684 62.6238 84.5278 62.5997 84.4815L61.5688 82.626C61.5579 82.6514 61.5469 82.6769 61.536 82.7024C61.5272 82.7256 61.5163 82.7476 61.5032 82.7684L60.5248 84.4815C60.4964 84.5255 60.4624 84.5661 60.423 84.6031C60.3858 84.6379 60.3377 84.6553 60.2786 84.6553H59.3593L60.9188 82.0596L59.4184 79.6133H60.4033C60.469 79.6133 60.5171 79.6225 60.5478 79.6411C60.5784 79.6596 60.6058 79.6897 60.6299 79.7314L61.6542 81.514C61.6651 81.4862 61.6772 81.4584 61.6903 81.4306C61.7034 81.4005 61.7187 81.3704 61.7362 81.3403L62.6555 79.7488C62.6818 79.7025 62.7102 79.6689 62.7408 79.648C62.7737 79.6249 62.8131 79.6133 62.859 79.6133H63.8013L62.2878 82.0144L63.8407 84.6553Z" fill="#CB4B94"/>
</g>
<g clip-path="url(#clip3)">
<path d="M16.111 72.5935C16.3915 80.1231 12.9053 80.7804 8.89808 80.5812C4.89089 80.382 -0.118092 78.4697 0.00212313 72.5935C0.122339 66.7172 3.94919 64.9999 6.95458 65.0397C9.95997 65.0796 15.8305 65.0639 16.111 72.5935Z" fill="#EFF1FF"/>
<path d="M7.58121 74.8477C7.77583 74.8477 7.95046 74.8157 8.10509 74.7518C8.25972 74.6851 8.39035 74.5918 8.497 74.4718C8.60364 74.3519 8.68495 74.2066 8.74094 74.0359C8.79693 73.8653 8.82492 73.6734 8.82492 73.4601V70.0049H10.0246V73.4601C10.0246 73.812 9.96732 74.1359 9.85268 74.4318C9.7407 74.7251 9.57941 74.9784 9.36879 75.1917C9.15817 75.4049 8.90223 75.5716 8.60097 75.6915C8.29971 75.8115 7.95979 75.8715 7.58121 75.8715C7.20263 75.8715 6.86138 75.8115 6.55745 75.6915C6.25619 75.5716 6.00025 75.4049 5.78963 75.1917C5.57902 74.9784 5.41639 74.7251 5.30175 74.4318C5.18978 74.1359 5.13379 73.812 5.13379 73.4601V70.0049H6.33351V73.4601C6.33351 73.6734 6.3615 73.8653 6.41749 74.0359C6.47347 74.2066 6.55479 74.3519 6.66143 74.4718C6.76807 74.5918 6.89871 74.6851 7.05334 74.7518C7.20797 74.8157 7.38393 74.8477 7.58121 74.8477Z" fill="#12C8B1"/>
<path d="M12.373 75.8075H11.1653V70.0049H12.373V75.8075Z" fill="#12C8B1"/>
</g>
<g clip-path="url(#clip4)">
<path d="M169.161 45.3727C169.705 59.9648 162.949 61.2387 155.183 60.8527C147.417 60.4666 137.71 56.7607 137.943 45.3727C138.176 33.9847 145.592 30.6565 151.416 30.7337C157.241 30.8109 168.618 30.7806 169.161 45.3727Z" fill="#EFF1FF"/>
<path d="M153.511 46.8489C154.29 46.8489 154.922 46.2171 154.922 45.4376C154.922 44.6582 154.29 44.0264 153.511 44.0264C152.731 44.0264 152.1 44.6582 152.1 45.4376C152.1 46.2171 152.731 46.8489 153.511 46.8489Z" fill="#272965"/>
<path d="M158.87 43.1104C158.597 43.0114 158.313 42.9123 158.016 42.8257C158.09 42.5286 158.152 42.2314 158.201 41.9467C158.461 40.3126 158.176 39.1613 157.384 38.7157C157.149 38.5795 156.889 38.5176 156.592 38.5176C155.725 38.5176 154.624 39.1613 153.509 40.2383C152.395 39.1613 151.293 38.5176 150.427 38.5176C150.13 38.5176 149.87 38.5795 149.635 38.7157C148.842 39.1737 148.558 40.325 148.818 41.9467C148.867 42.2314 148.929 42.5286 149.003 42.8257C148.706 42.9123 148.421 42.999 148.149 43.1104C146.602 43.7046 145.76 44.5217 145.76 45.4378C145.76 46.3538 146.614 47.1709 148.149 47.7651C148.421 47.8641 148.706 47.9632 149.003 48.0498C148.929 48.3469 148.867 48.6441 148.818 48.9288C148.558 50.5629 148.842 51.7142 149.635 52.1599C149.87 52.296 150.13 52.3579 150.427 52.3579C151.306 52.3579 152.408 51.7142 153.509 50.6372C154.624 51.7142 155.725 52.3579 156.592 52.3579C156.889 52.3579 157.149 52.296 157.384 52.1599C158.176 51.7018 158.461 50.5505 158.201 48.9288C158.152 48.6441 158.09 48.3469 158.016 48.0498C158.313 47.9632 158.597 47.8765 158.87 47.7651C160.417 47.1709 161.259 46.3538 161.259 45.4378C161.259 44.5217 160.417 43.7046 158.87 43.1104ZM157.038 39.3346C157.545 39.6317 157.718 40.5478 157.508 41.8477C157.471 42.1077 157.409 42.38 157.335 42.6647C156.691 42.5162 156.01 42.4171 155.292 42.3552C154.871 41.761 154.438 41.2287 154.005 40.7459C154.921 39.8422 155.849 39.2232 156.604 39.2232C156.765 39.2232 156.914 39.2604 157.038 39.3346ZM155.651 46.6757C155.428 47.0719 155.168 47.468 154.896 47.8641C154.438 47.9013 153.98 47.9137 153.509 47.9137C153.027 47.9137 152.569 47.9013 152.123 47.8641C151.851 47.468 151.603 47.0719 151.38 46.6757C151.145 46.2672 150.922 45.8463 150.724 45.4378C150.922 45.0292 151.145 44.6083 151.38 44.1998C151.603 43.8037 151.863 43.4075 152.135 43.0114C152.593 42.9742 153.051 42.9618 153.522 42.9618C154.005 42.9618 154.463 42.9742 154.908 43.0114C155.181 43.4075 155.428 43.8037 155.651 44.1998C155.886 44.6083 156.109 45.0292 156.307 45.4378C156.097 45.8463 155.886 46.2548 155.651 46.6757ZM156.679 46.2672C156.864 46.7005 157.013 47.1214 157.149 47.5423C156.728 47.6413 156.282 47.7156 155.812 47.7775C155.961 47.5423 156.121 47.2947 156.258 47.0347C156.406 46.7747 156.542 46.5148 156.679 46.2672ZM153.509 49.622C153.212 49.3002 152.928 48.9535 152.655 48.5945C152.94 48.6069 153.225 48.6193 153.509 48.6193C153.794 48.6193 154.079 48.6069 154.364 48.5945C154.091 48.9535 153.806 49.3002 153.509 49.622ZM151.207 47.7651C150.736 47.7032 150.291 47.6289 149.87 47.5299C150.006 47.1214 150.155 46.6881 150.34 46.2548C150.476 46.5024 150.613 46.7624 150.761 47.01C150.91 47.2823 151.058 47.5175 151.207 47.7651ZM150.34 44.6083C150.155 44.175 150.006 43.7541 149.87 43.3332C150.291 43.2342 150.736 43.1599 151.207 43.098C151.058 43.3332 150.897 43.5808 150.761 43.8408C150.613 44.1008 150.476 44.3607 150.34 44.6083ZM153.509 41.2535C153.806 41.5753 154.091 41.922 154.364 42.281C154.079 42.2686 153.794 42.2562 153.509 42.2562C153.225 42.2562 152.94 42.2686 152.655 42.281C152.928 41.922 153.212 41.5753 153.509 41.2535ZM156.258 43.8532L155.812 43.1104C156.282 43.1723 156.728 43.2466 157.149 43.3456C157.013 43.7541 156.864 44.1874 156.679 44.6207C156.542 44.3607 156.406 44.1008 156.258 43.8532ZM149.511 41.8477C149.3 40.5478 149.474 39.6317 149.981 39.3346C150.105 39.2604 150.254 39.2232 150.414 39.2232C151.157 39.2232 152.086 39.8298 153.014 40.7459C152.581 41.2163 152.148 41.761 151.727 42.3552C151.009 42.4171 150.328 42.5286 149.684 42.6647C149.61 42.38 149.56 42.1077 149.511 41.8477ZM146.453 45.4378C146.453 44.8559 147.159 44.2369 148.397 43.7789C148.644 43.6799 148.917 43.5932 149.189 43.5189C149.387 44.1379 149.635 44.794 149.932 45.4501C149.635 46.1062 149.375 46.75 149.189 47.369C147.481 46.8738 146.453 46.131 146.453 45.4378ZM149.981 51.5409C149.474 51.2438 149.3 50.3277 149.511 49.0278C149.548 48.7679 149.61 48.4955 149.684 48.2108C150.328 48.3593 151.009 48.4584 151.727 48.5203C152.148 49.1145 152.581 49.6468 153.014 50.1296C152.098 51.0333 151.17 51.6523 150.414 51.6523C150.254 51.6523 150.105 51.6152 149.981 51.5409ZM157.508 49.0278C157.718 50.3277 157.545 51.2438 157.038 51.5409C156.914 51.6152 156.765 51.6523 156.604 51.6523C155.861 51.6523 154.933 51.0457 154.005 50.1296C154.438 49.6592 154.871 49.1145 155.292 48.5203C156.01 48.4584 156.691 48.3469 157.335 48.2108C157.409 48.4955 157.458 48.7679 157.508 49.0278ZM158.622 47.0966C158.375 47.1957 158.102 47.2823 157.83 47.3566C157.632 46.7376 157.384 46.0815 157.087 45.4254C157.384 44.7693 157.644 44.1255 157.83 43.5065C159.538 44.0017 160.566 44.7445 160.566 45.4378C160.566 46.0196 159.848 46.6386 158.622 47.0966Z" fill="#272965"/>
</g>
<path d="M177.639 156.679H112C114.248 156.679 121.442 148.587 121.442 144.091C121.442 139.594 124.14 134.2 128.186 134.2C132.232 134.2 172.694 133.75 177.639 134.2C182.584 134.649 185.737 139.146 186.186 144.99C186.636 150.835 183.933 156.679 177.639 156.679Z" fill="#DCE0FF"/>
<rect x="132.779" y="138.906" width="11.689" height="1.79831" rx="0.899157" fill="#575DDD"/>
<rect x="149.412" y="139.356" width="20.6806" height="0.899157" rx="0.449578" stroke="url(#paint0_linear)" stroke-width="0.899157"/>
<rect x="132.779" y="144.301" width="8.09241" height="1.79831" rx="0.899157" fill="#6B3CC0"/>
<rect x="144.468" y="144.301" width="8.09241" height="1.79831" rx="0.899157" fill="#28B3B6"/>
<rect x="156.158" y="144.301" width="8.09241" height="1.79831" rx="0.899157" fill="#6B3CC0"/>
<rect x="133.229" y="150.145" width="8.99157" height="0.899157" rx="0.449578" stroke="url(#paint1_linear)" stroke-width="0.899157"/>
<rect x="145.365" y="149.695" width="9.89072" height="1.79831" rx="0.899157" fill="#28B3B6"/>
<path d="M117.751 234.137C115.78 236.939 113.242 241.017 110.664 245.887C112.843 243.842 116.23 241.647 120.188 241.609C127.167 241.541 126.563 249.254 120.188 251.352C114.664 253.169 109.558 252.701 108.156 250.87C106.254 254.85 104.426 259.184 102.889 263.672C102.801 263.929 102.714 264.187 102.627 264.446C102.519 264.769 102.412 265.092 102.306 265.415C103.842 263.391 106.218 260.781 108.634 259.606C112.673 257.644 117.907 259.471 116.766 263.463C115.625 267.455 110.458 270.5 106.834 270.635C104.028 270.74 101.785 270.787 100.916 269.961C99.5447 274.769 98.4644 279.664 97.7256 284.605C99.0779 281.976 101.401 278.643 104.217 277.807C108.781 276.454 111.465 277.401 111.666 281.258C111.867 285.115 105.559 289.715 102.204 289.918C99.953 290.055 98.0617 290.013 97.0677 289.909C96.6855 293.796 96.5234 297.703 96.6056 301.61L95.3213 301.637C95.2009 295.91 95.5983 290.188 96.4378 284.532C95.5941 284.863 94.0903 284.874 91.8028 283.626C87.7094 281.393 85.3607 274.695 85.7633 271.109C86.166 267.523 90.3936 266.305 93.2121 268.538C95.1264 270.054 96.5903 275.645 97.3149 279.438C98.2652 274.585 99.529 269.794 101.057 265.102C100.228 265.2 99.0083 264.359 97.1713 262.99C94.0844 260.689 92.3397 255.344 92.4068 251.623C92.4739 247.901 97.1042 243.842 100.527 248.172C102.72 250.948 103.136 256.023 103.03 259.521C104.89 254.668 107.029 250.069 109.16 245.986C106.077 247.196 102.533 238.076 102.473 233.625C102.406 228.686 108.109 224.491 111.129 228.618C113.188 231.431 112.631 237.305 111.868 241.05C113.748 237.79 115.519 235.048 116.967 233.022C116.859 229.754 117.645 223.977 121.598 220.769C127.1 216.304 132.066 217.251 130.321 223.746C128.716 229.721 120.922 234.15 117.751 234.137Z" fill="#121334"/>
<path d="M22.2148 234.137C24.1855 236.939 26.7236 241.017 29.302 245.887C27.1225 243.842 23.7357 241.647 19.7773 241.609C12.7984 241.541 13.4023 249.254 19.7773 251.352C25.3015 253.169 30.408 252.701 31.81 250.87C33.7114 254.85 35.5398 259.184 37.0764 263.672C37.1644 263.929 37.252 264.187 37.3389 264.446C37.447 264.769 37.5539 265.092 37.6595 265.415C36.1238 263.391 33.7481 260.781 31.3315 259.606C27.2932 257.644 22.0589 259.471 23.1997 263.463C24.3405 267.455 29.5076 270.5 33.1313 270.635C35.938 270.74 38.1811 270.787 39.0499 269.961C40.4212 274.769 41.5014 279.664 42.2402 284.605C40.888 281.976 38.5653 278.643 35.7485 277.807C31.1853 276.454 28.5011 277.401 28.2997 281.258C28.0984 285.115 34.4063 289.715 37.7616 289.918C40.0128 290.055 41.9041 290.013 42.8981 289.909C43.2803 293.796 43.4424 297.703 43.3603 301.61L44.6445 301.637C44.7649 295.91 44.3676 290.188 43.528 284.532C44.3717 284.863 45.8756 284.874 48.163 283.626C52.2564 281.393 54.6051 274.695 54.2025 271.109C53.7998 267.523 49.5722 266.305 46.7538 268.538C44.8395 270.054 43.3756 275.645 42.6509 279.438C41.7006 274.585 40.4368 269.794 38.9085 265.102C39.7382 265.2 40.9575 264.359 42.7945 262.99C45.8814 260.689 47.6261 255.344 47.559 251.623C47.4919 247.901 42.8616 243.842 39.4393 248.172C37.2453 250.948 36.83 256.023 36.9359 259.521C35.0759 254.668 32.9364 250.069 30.8054 245.986C33.889 247.196 37.4327 238.076 37.4932 233.625C37.5603 228.686 31.8563 224.491 28.8366 228.618C26.7782 231.431 27.3344 237.305 28.0975 241.05C26.2178 237.79 24.4466 235.048 22.9992 233.022C23.1069 229.754 22.3212 223.977 18.3681 220.769C12.8655 216.304 7.89967 217.251 9.64441 223.746C11.2493 229.721 19.0434 234.15 22.2148 234.137Z" fill="#C9CFFC"/>
<path d="M45.8473 239.157C48.3698 242.711 51.6186 247.885 54.9189 254.065C52.1292 251.47 47.7941 248.685 42.7274 248.637C33.7943 248.551 34.5674 258.337 42.7274 260.999C49.7984 263.305 56.3347 262.71 58.1292 260.388C60.5629 265.438 62.9033 270.937 64.8702 276.63C64.9829 276.957 65.0949 277.284 65.2062 277.613C65.3446 278.022 65.4814 278.432 65.6165 278.843C63.6509 276.274 60.61 272.962 57.5168 271.472C52.3476 268.983 45.6478 271.301 47.108 276.366C48.5683 281.431 55.1822 285.294 59.8205 285.466C63.413 285.599 66.2842 285.659 67.3962 284.611C69.1515 290.711 70.5342 296.921 71.4798 303.19C69.749 299.855 66.776 295.626 63.1704 294.566C57.3295 292.849 53.8937 294.051 53.6361 298.944C53.3784 303.837 61.4525 309.675 65.7473 309.933C68.6288 310.106 71.0496 310.052 72.322 309.921C72.8112 314.853 73.0187 319.809 72.9135 324.767L74.5573 324.802C74.7115 317.534 74.2029 310.275 73.1283 303.098C74.2082 303.518 76.1331 303.532 79.061 301.949C84.3006 299.116 87.3069 290.617 86.7916 286.067C86.2762 281.517 80.8648 279.971 77.2572 282.804C74.8069 284.729 72.9331 291.822 72.0055 296.635C70.7892 290.478 69.1715 284.398 67.2152 278.445C68.2773 278.57 69.838 277.502 72.1894 275.765C76.1406 272.846 78.3738 266.064 78.2879 261.342C78.202 256.62 72.2753 251.47 67.8946 256.964C65.0864 260.486 64.5548 266.926 64.6903 271.363C62.3095 265.206 59.571 259.371 56.8433 254.191C60.7903 255.726 65.3263 244.154 65.4037 238.506C65.4896 232.239 58.1885 226.917 54.3232 232.153C51.6885 235.723 52.4004 243.175 53.3771 247.928C50.9711 243.791 48.704 240.312 46.8514 237.741C46.9892 233.594 45.9836 226.266 40.9236 222.195C33.8802 216.529 27.524 217.731 29.7572 225.972C31.8115 233.553 41.7879 239.173 45.8473 239.157Z" fill="#C9CFFC"/>
<path d="M290.613 238.773C287.854 242.689 284.3 248.39 280.691 255.2C283.742 252.34 288.483 249.272 294.025 249.218C303.796 249.124 302.95 259.907 294.025 262.84C286.291 265.381 279.142 264.726 277.179 262.167C274.518 267.731 271.958 273.79 269.807 280.064C269.683 280.423 269.561 280.784 269.439 281.147C269.288 281.598 269.138 282.049 268.99 282.502C271.14 279.671 274.466 276.022 277.849 274.38C283.503 271.637 290.831 274.191 289.234 279.772C287.637 285.353 280.403 289.61 275.33 289.799C271.4 289.946 268.26 290.012 267.044 288.857C265.124 295.579 263.611 302.422 262.577 309.33C264.47 305.654 267.722 300.994 271.666 299.826C278.054 297.935 281.812 299.259 282.094 304.651C282.376 310.043 273.545 316.475 268.847 316.759C265.695 316.949 263.048 316.891 261.656 316.746C261.121 322.18 260.894 327.642 261.009 333.105L259.211 333.143C259.043 325.135 259.599 317.136 260.774 309.228C259.593 309.691 257.488 309.706 254.285 307.962C248.554 304.84 245.266 295.475 245.83 290.462C246.394 285.448 252.312 283.745 256.258 286.867C258.938 288.987 260.988 296.803 262.002 302.106C263.333 295.322 265.102 288.623 267.242 282.063C266.08 282.201 264.373 281.024 261.801 279.11C257.48 275.894 255.037 268.421 255.131 263.218C255.225 258.016 261.707 252.34 266.499 258.394C269.57 262.275 270.151 269.371 270.003 274.26C272.607 267.476 275.603 261.046 278.586 255.338C274.269 257.03 269.308 244.279 269.223 238.056C269.129 231.151 277.115 225.286 281.342 231.056C284.224 234.989 283.445 243.201 282.377 248.438C285.009 243.879 287.488 240.046 289.515 237.213C289.364 232.644 290.464 224.568 295.998 220.083C303.702 213.84 310.654 215.164 308.211 224.245C305.964 232.599 295.053 238.791 290.613 238.773Z" fill="#B9BCFF"/>
<path d="M199.465 282.405C198.192 284.213 196.551 286.844 194.885 289.988C196.294 288.668 198.482 287.251 201.041 287.227C205.551 287.183 205.161 292.161 201.041 293.515C197.47 294.688 194.17 294.385 193.264 293.204C192.035 295.773 190.854 298.57 189.861 301.466C189.804 301.632 189.747 301.798 189.691 301.966C189.621 302.174 189.552 302.382 189.484 302.591C190.476 301.285 192.012 299.6 193.573 298.842C196.183 297.576 199.566 298.755 198.829 301.331C198.092 303.908 194.752 305.873 192.41 305.96C190.596 306.028 189.147 306.058 188.585 305.525C187.699 308.628 187.001 311.787 186.523 314.976C187.397 313.279 188.898 311.128 190.719 310.589C193.668 309.715 195.403 310.327 195.533 312.816C195.663 315.305 191.586 318.274 189.418 318.405C187.963 318.493 186.741 318.466 186.098 318.399C185.851 320.908 185.746 323.429 185.8 325.951L184.97 325.968C184.892 322.272 185.149 318.579 185.691 314.928C185.146 315.142 184.174 315.149 182.696 314.344C180.05 312.903 178.532 308.58 178.792 306.266C179.053 303.951 181.785 303.165 183.606 304.606C184.844 305.585 185.79 309.193 186.258 311.641C186.872 308.509 187.689 305.417 188.677 302.389C188.14 302.452 187.352 301.909 186.165 301.026C184.17 299.541 183.043 296.091 183.086 293.689C183.129 291.288 186.122 288.668 188.334 291.462C189.751 293.254 190.02 296.53 189.951 298.787C191.154 295.655 192.536 292.687 193.913 290.052C191.921 290.833 189.63 284.946 189.591 282.074C189.548 278.886 193.234 276.179 195.186 278.843C196.516 280.658 196.157 284.449 195.664 286.866C196.878 284.762 198.023 282.993 198.958 281.685C198.889 279.575 199.397 275.848 201.951 273.777C205.508 270.895 208.717 271.506 207.589 275.699C206.552 279.555 201.515 282.413 199.465 282.405Z" fill="#C9CFFC"/>
<path d="M149.353 282.405C150.627 284.213 152.267 286.844 153.933 289.988C152.525 288.668 150.336 287.251 147.778 287.227C143.267 287.183 143.658 292.161 147.778 293.515C151.348 294.688 154.648 294.385 155.554 293.204C156.783 295.773 157.965 298.57 158.958 301.466C159.015 301.632 159.071 301.798 159.127 301.966C159.197 302.174 159.266 302.382 159.335 302.591C158.342 301.285 156.807 299.6 155.245 298.842C152.635 297.576 149.252 298.755 149.99 301.331C150.727 303.908 154.066 305.873 156.408 305.96C158.222 306.028 159.672 306.058 160.233 305.525C161.119 308.628 161.818 311.787 162.295 314.976C161.421 313.279 159.92 311.128 158.1 310.589C155.15 309.715 153.416 310.327 153.286 312.816C153.155 315.305 157.232 318.274 159.401 318.405C160.855 318.493 162.078 318.466 162.72 318.399C162.967 320.908 163.072 323.429 163.019 325.951L163.849 325.968C163.927 322.272 163.67 318.579 163.127 314.928C163.673 315.142 164.644 315.149 166.123 314.344C168.768 312.903 170.286 308.58 170.026 306.266C169.766 303.951 167.033 303.165 165.212 304.606C163.975 305.585 163.029 309.193 162.56 311.641C161.946 308.509 161.129 305.417 160.142 302.389C160.678 302.452 161.466 301.909 162.653 301.026C164.648 299.541 165.776 296.091 165.732 293.689C165.689 291.288 162.697 288.668 160.485 291.462C159.067 293.254 158.798 296.53 158.867 298.787C157.665 295.655 156.282 292.687 154.905 290.052C156.898 290.833 159.188 284.946 159.227 282.074C159.27 278.886 155.584 276.179 153.633 278.843C152.302 280.658 152.662 284.449 153.155 286.866C151.94 284.762 150.795 282.993 149.86 281.685C149.93 279.575 149.422 275.848 146.867 273.777C143.311 270.895 140.102 271.506 141.229 275.699C142.266 279.555 147.303 282.413 149.353 282.405Z" fill="#C9CFFC"/>
<rect width="2.74192" height="78.6018" rx="1.37096" transform="matrix(-1 0 0 1 232.171 254.146)" fill="#4A4C96"/>
<rect width="2.74192" height="78.6018" rx="1.37096" transform="matrix(-1 0 0 1 258.679 254.146)" fill="#4A4C96"/>
<rect width="27.4192" height="2.74192" transform="matrix(-1 0 0 1 256.851 309.899)" fill="#4A4C96"/>
<rect width="46.6127" height="5.48384" rx="2.74192" transform="matrix(-1 0 0 1 265.99 251.405)" fill="#5659A5"/>
<path d="M205.39 287.213C205.056 295.231 199.377 298.571 198.709 301.244C199.488 301.466 201.181 301.912 201.716 301.912C202.384 301.912 213.742 297.903 213.742 295.23C213.742 293.092 211.515 288.994 210.401 287.213C208.843 284.54 205.658 280.798 205.39 287.213Z" fill="#F4A392"/>
<path d="M232.213 303.215C232.881 295.532 228.872 288.849 228.538 287.179C229.763 285.286 232.413 282.235 233.215 285.174C234.217 288.849 239.562 291.522 240.899 291.856C242.235 292.19 238.894 299.205 238.894 300.208C238.894 301.21 231.545 310.898 232.213 303.215Z" fill="#F4A392"/>
<path d="M210.497 196.981C216.845 203.997 229.874 211.012 232.546 212.014V203.996C228.983 201.658 220.854 196.58 216.845 194.976C211.834 192.972 216.511 187.627 213.838 187.293C211.166 186.959 212.502 191.302 210.497 189.298C208.493 187.293 201.478 185.957 201.478 189.298C201.478 192.638 207.491 195.979 210.497 196.981Z" fill="#F9C7BE"/>
<path d="M210.857 284.173C210.856 291.189 207.182 289.518 203.173 289.518C198.05 278.605 187.806 254.307 187.806 244.418C187.806 232.058 210.857 229.719 218.54 227.715C226.224 225.71 248.941 221.033 250.611 224.04C252.281 227.046 245.266 244.418 235.244 244.418C225.222 244.418 204.175 242.413 203.841 249.095C203.507 255.776 210.857 277.157 210.857 284.173Z" fill="#6F73C7"/>
<path d="M234.551 283.841C234.885 286.514 234.551 291.19 229.206 291.524C220.965 279.052 204.217 252.304 203.148 245.088C201.812 236.068 229.873 234.295 230.542 233.627C231.21 232.959 229.206 226.612 230.542 223.271C231.878 219.93 262.278 221.601 264.617 225.609C266.955 229.618 267.767 241.358 260.751 247.705C253.736 254.052 224.194 252.104 220.186 252.104C216.177 252.104 234.217 281.168 234.551 283.841Z" fill="#7C80D3"/>
<path d="M199.297 299.542C196.958 299.542 193.284 303.884 192.615 305.889C195.288 308.896 206.312 304.887 207.982 301.546C209.653 298.205 212.325 298.539 213.996 298.539C215.666 298.539 215.332 290.187 212.994 294.196C210.655 298.205 201.635 299.542 199.297 299.542Z" fill="#2F3176"/>
<path d="M231.881 304.552C231.613 304.82 230.21 310.677 229.542 313.572C236.224 314.908 240.232 304.552 240.232 301.212C240.232 297.871 244.241 295.866 244.241 295.532C244.241 295.198 241.569 291.189 239.898 291.189C238.228 291.189 238.228 296.869 238.228 298.539C238.228 300.209 232.215 304.218 231.881 304.552Z" fill="#2F3176"/>
<path d="M261.277 197.316C257.268 197.317 264.618 224.297 265.286 228.307C254.484 228.084 232.48 227.438 230.876 226.636C228.872 225.634 229.206 211.681 229.206 204.331C229.206 196.982 226.533 198.318 226.533 188.964C226.533 181.481 236.778 172.929 241.901 169.588C239.896 172.26 240.564 176.603 246.244 176.937C251.923 177.272 257.268 170.924 258.27 170.59C259.272 170.256 261.277 171.926 268.292 181.28C273.905 188.763 275.976 201.547 276.31 207.004C272.568 203.797 267.401 204.999 265.286 206.001C265.286 203.106 264.484 197.316 261.277 197.316Z" fill="#DCE0FF"/>
<path d="M241.231 195.98C240.897 192.974 241.899 193.641 243.236 194.644C244.304 195.713 245.463 199.321 245.908 200.991C252.055 202.677 261.387 206.593 265.284 208.34L264.95 205.668C271.097 204.332 275.307 206.225 276.643 207.338C277.088 211.013 276.977 218.83 272.968 220.701C263.881 222.839 249.36 211.57 243.236 205.668C242.456 205.779 240.096 205.935 236.889 205.668C232.88 205.334 230.875 202.327 232.546 200.323C234.216 198.318 239.561 198.986 240.563 198.986C241.565 198.986 241.565 198.986 241.231 195.98Z" fill="#F9C7BE"/>
<path d="M248.735 138.066C255.243 138.618 260.124 146.068 261.479 156.278C262.657 165.145 267.841 182.152 254.429 187.46C249.277 187.46 252.532 177.802 251.176 175.319C249.82 172.835 247.651 174.215 244.939 174.215C242.228 174.215 241.957 177.526 241.414 182.217C240.872 186.908 235.72 186.081 236.805 180.838C237.89 175.594 235.178 165.66 233.551 160.693C231.924 155.726 233.551 156.278 235.178 148.552C236.805 140.825 242.228 137.514 248.735 138.066Z" fill="#363983"/>
<path fill-rule="evenodd" clip-rule="evenodd" d="M241.707 168.836C241.33 170.796 240.901 173.023 240.901 175.267C242.465 176.57 247.077 177.263 250.299 176.079C250.135 174.152 249.895 171.239 249.685 168.536C249.656 168.155 249.627 167.778 249.599 167.409C249.547 166.53 249.525 165.67 249.506 164.895C249.471 163.501 249.443 162.379 249.253 161.904C248.719 160.568 249.03 157.116 249.253 155.557C242.906 155.223 241.904 161.236 242.238 164.243C242.367 165.405 242.059 167.004 241.707 168.836Z" fill="#F6B9AD"/>
<path d="M241.666 167.976C233.59 165.113 236.707 151 239.275 144.301C241.134 149.257 246.713 151.183 249.104 153.66C249.962 154.549 251.76 162.504 251.76 163.846C251.495 165.773 248.307 170.178 241.666 167.976Z" fill="#F9C7BE"/>
<path d="M238.242 107.636V134.16C235.095 127.416 220.709 123.371 208.12 123.371C195.532 123.371 177.999 123.821 164.062 123.371C150.125 122.921 142.656 118.675 142.656 107.636C142.656 96.5965 148.327 90.5514 159.566 90.5514C170.805 90.5514 202.276 90.1018 217.112 90.5514C231.948 91.001 238.242 95.9467 238.242 107.636Z" fill="#DCE0FF"/>
<rect width="16.1848" height="1.79831" rx="0.899157" transform="matrix(-1 0 0 1 229.877 99.3438)" fill="#575DDD"/>
<rect width="9.89072" height="1.79831" rx="0.899157" transform="matrix(-1 0 0 1 211.891 99.3438)" fill="#28B3B6"/>
<rect width="9.89072" height="1.79831" rx="0.899157" transform="matrix(-1 0 0 1 196.606 99.3438)" fill="#6B3CC0"/>
<rect width="14.3865" height="1.79831" rx="0.899157" transform="matrix(-1 0 0 1 229.877 105.638)" fill="#28B3B6"/>
<rect width="14.3865" height="1.79831" rx="0.899157" transform="matrix(-1 0 0 1 208.295 105.638)" fill="#6B3CC0"/>
<rect width="8.99157" height="1.79831" rx="0.899157" transform="matrix(-1 0 0 1 186.715 105.638)" fill="#28B3B6"/>
<rect width="13.4873" height="1.79831" rx="0.899157" transform="matrix(-1 0 0 1 172.328 105.638)" fill="#575DDD"/>
<rect width="25.1764" height="1.79831" rx="0.899157" transform="matrix(-1 0 0 1 229.877 111.933)" fill="#B60DB5"/>
<rect width="18.8823" height="1.79831" rx="0.899157" transform="matrix(-1 0 0 1 202.898 111.933)" fill="#575DDD"/>
<rect width="8.99157" height="1.79831" rx="0.899157" transform="matrix(-1 0 0 1 179.521 111.933)" fill="#6B3CC0"/>
<path d="M84.7972 294.107C85.5518 291.99 93.1666 287.316 94.7879 286.802C94.151 282.8 91.9708 275.879 88.3444 280.211C83.8115 285.626 80.2583 286.91 79.353 290.085C78.4476 293.26 82.2574 302.996 84.0427 302.948C85.828 302.899 84.0427 296.223 84.7972 294.107Z" fill="#F4A392"/>
<path d="M109.346 294.105C110.101 291.988 117.715 287.314 119.337 286.8C118.7 282.798 116.52 275.877 112.893 280.209C108.36 285.624 104.807 286.908 103.902 290.083C102.996 293.258 106.806 302.994 108.592 302.946C110.377 302.897 108.592 296.221 109.346 294.105Z" fill="#F4A392"/>
<path d="M89.448 289.808C91.1383 289.742 164.687 258.125 148.178 236.113C142.433 229.34 106.218 224.762 106.218 224.762L104.315 237.754L124.182 240.346C124.182 240.346 113.563 240.497 104.315 258.972C97.2774 273.032 88.3695 278.355 85.2182 282.688C84.3845 283.835 83.948 286.063 85.218 287.757C86.488 289.45 87.7578 289.873 89.448 289.808Z" fill="#292C6B"/>
<path d="M69.8432 221.721C69.7204 222.375 69.5976 223.03 69.434 223.685C66.9174 233.567 68.2862 244.172 82.2563 251.792C92.2433 257.239 126.03 251.792 126.03 251.792C126.478 260.677 101.756 284.335 107.231 289.026C108.529 290.139 109.799 291.531 113.609 290.684C117.419 289.838 136.016 272.094 142.367 262.781C148.719 253.469 155.49 244.156 148.761 236.534C141.774 227.801 120.356 228.917 102.129 224.708C93.2901 226.426 76.9837 223.276 69.8432 221.721Z" fill="#363983"/>
<path d="M138.618 188.996C136.629 189.299 132.834 189.268 133.569 186.725C133.756 186.078 133.847 185.242 133.883 184.298C133.825 180.368 135.405 173.557 136.782 171.74C138.159 169.924 137.241 174.919 137.241 176.281C137.241 177.643 140.454 173.557 144.126 173.557C147.798 173.557 149.634 173.557 148.257 176.735C146.88 179.914 143.03 182.411 142.431 183.433C139.889 185.806 138.618 188.658 138.618 188.996Z" fill="#F6B9AD"/>
<path d="M113.664 204.323C110.064 204.323 105.933 168.992 102.783 168.088C99.6326 167.185 98.7607 204.323 98.7607 204.323C98.7607 204.323 103.764 220.841 112.314 221.293C120.864 221.745 137.53 192.302 138.43 189.139C139.33 185.976 135.01 182.697 133.21 184.956C131.41 187.215 117.264 204.323 113.664 204.323Z" fill="#F6B9AD"/>
<path d="M71.3355 175.992C75.5213 167.742 84.7533 162.248 86.5693 160.253C89.0268 159.071 94.1826 159.408 99.3499 163.506C109.77 171.769 110.186 194.699 111.33 205.905C112.474 217.11 120.317 226.311 116.084 229.698C111.851 233.084 88.1379 237.279 81.0559 236.673C73.9739 236.067 73.1916 247.73 67.6886 240.249C62.1856 232.767 65.7461 187.008 71.3355 175.992Z" fill="#2F3176"/>
<path d="M99.3726 165.99C99.8794 168.085 102.029 175.314 99.4025 175.327C97.5824 173.237 87.0094 162.927 86.3342 162.418C85.659 161.909 85.9563 160.482 86.1884 158.902C86.4204 157.323 86.1827 153.311 85.9111 151.289L98.2043 156.386C98.4248 158.888 98.9672 164.313 99.3726 165.99Z" fill="#F6B9AD"/>
<path d="M98.3869 162.346C91.7814 163.051 86.8123 159.405 85.1534 157.494C82.4463 157.024 81.8908 155.375 81.6106 152.748C81.1562 149.912 81.1878 144.632 81.2604 142.347L104.069 135.549C102.892 136.37 100.742 139.586 101.565 145.875C102.593 153.737 101.952 161.966 98.3869 162.346Z" fill="#F9C7BE"/>
<path d="M102.618 143.294C102.811 145.096 102.076 146.515 101.685 147C101.821 142.582 100.828 141.334 100.314 141.262C98.3663 144.355 92.6301 144.549 90.0054 144.26C90.6734 148.743 88.2063 150.525 87.308 151C86.5894 151.38 86.3063 152.878 86.2546 153.58C86.0294 152.655 85.1582 150.774 83.4749 150.65C81.7915 150.526 81.5174 151.871 81.5907 152.559C74.8332 146.143 77.7878 140.628 80.1097 138.672C79.9998 130.523 91.4468 129.302 96.9338 132.703C101.323 135.423 105.75 134.103 107.415 133.103C108.336 136.042 106.086 138.433 104.845 139.261C105.564 138.881 106.771 138.929 107.285 139.001C107.193 140.984 104.136 142.69 102.618 143.294Z" fill="#363983"/>
<path d="M136.332 217.676L127.711 218.724L125.635 214.166C126.12 213.984 127.354 213.291 128.412 211.978C129.734 210.337 133.917 207.197 136.496 206.513C139.076 205.829 138.178 207.83 137.428 207.921C136.679 208.012 133.477 209.84 133.941 210.524C134.404 211.208 140.136 208.29 143.953 211.527C147.77 214.763 138.956 217.357 136.332 217.676Z" fill="#F9C7BE"/>
<path d="M128.522 218.788C126.795 219.396 101.75 233.057 91.6422 229.343C86.3919 227.414 81.6931 218.323 78.3868 208.989C80.9867 209.382 87.8024 208.916 94.266 203.906C95.4185 211.137 96.6085 216.34 97.7969 216.237C98.7786 216.152 124.844 211.815 127.131 212.535C129.417 213.255 130.248 218.18 128.522 218.788Z" fill="#F9C7BE"/>
<path d="M88.491 301.53C88.7583 301.797 88.7187 304.352 84.6725 304.801C80.6263 305.251 76.1304 295.729 76.1304 292.959C76.1304 291.008 78.803 288.167 80.4733 288.167C82.1437 288.167 81.4132 294.514 82.1437 295.517C82.8742 296.519 88.1569 301.196 88.491 301.53Z" fill="#2F3176"/>
<path d="M112.003 303.677C112.273 303.951 112.233 306.573 108.143 307.034C104.054 307.495 99.5095 297.725 99.5095 294.883C99.5095 292.881 102.211 289.966 103.899 289.966C105.587 289.966 104.849 296.478 105.587 297.507C106.326 298.536 111.665 303.334 112.003 303.677Z" fill="#2F3176"/>
<rect width="2.80133" height="80.3049" rx="1.40067" transform="matrix(-1 0 0 1 76.3477 252.726)" fill="#4A4C96"/>
<rect width="2.80133" height="80.3049" rx="1.40067" transform="matrix(-1 0 0 1 103.429 252.726)" fill="#4A4C96"/>
<rect width="28.0133" height="2.80133" transform="matrix(-1 0 0 1 101.562 301.655)" fill="#4A4C96"/>
<rect width="47.6227" height="5.60267" rx="2.80133" transform="matrix(-1 0 0 1 110.896 249.925)" fill="#5659A5"/>
<g clip-path="url(#clip5)">
<path d="M280.914 61.692C280.324 77.5903 287.654 78.9783 296.078 78.5577C304.503 78.1371 315.033 74.0994 314.781 61.692C314.528 49.2846 306.483 45.6585 300.164 45.7426C293.846 45.8268 281.504 45.7937 280.914 61.692Z" fill="#EFF1FF"/>
<path fill-rule="evenodd" clip-rule="evenodd" d="M299.798 58.3461H302.517V61.1135H303.889C304.514 61.1135 305.164 60.9932 305.766 60.8006C306.054 60.7044 306.391 60.56 306.68 60.3916C306.295 59.8862 306.103 59.2605 306.054 58.6349C305.982 57.7926 306.151 56.6857 306.728 56.0359L307.017 55.699L307.354 55.9637C308.22 56.6616 308.918 57.6001 309.063 58.7071C310.097 58.3942 311.3 58.4664 312.215 58.9958L312.576 59.2124L312.383 59.5974C311.613 61.0894 310.001 61.5707 308.437 61.4744C306.079 67.3221 300.977 70.0894 294.768 70.0894C291.568 70.0894 288.632 68.8862 286.947 66.0467L286.923 65.9985L286.683 65.4932C286.105 64.2418 285.937 62.8702 286.057 61.4985L286.105 61.0894H288.415V58.3461H291.135V55.6509H296.549V52.9316H299.798V58.3461Z" fill="#3A4D54"/>
<path d="M308.603 59.3814C308.796 57.9616 307.737 56.8546 307.063 56.3252C306.317 57.1915 306.197 59.5017 307.376 60.4642C306.702 61.0418 305.331 61.5953 303.887 61.5953H286.512C286.368 63.0872 286.633 64.4589 287.234 65.6381L287.427 65.999C287.547 66.2156 287.691 66.4081 287.836 66.6247C288.558 66.6728 289.207 66.6969 289.809 66.6728C290.988 66.6488 291.951 66.5044 292.697 66.2637C292.817 66.2156 292.913 66.2878 292.961 66.3841C293.01 66.5044 292.937 66.6006 292.841 66.6488C292.745 66.6728 292.649 66.721 292.528 66.745C291.951 66.9135 291.325 67.0097 290.531 67.0578H290.387C290.074 67.0819 289.737 67.0819 289.376 67.0819C288.991 67.0819 288.63 67.0819 288.197 67.0578C289.641 68.6942 291.903 69.6568 294.742 69.6568C300.758 69.6568 305.86 66.9857 308.098 61.0177C309.71 61.1862 311.25 60.7771 311.948 59.4054C310.865 58.7557 309.421 58.9723 308.603 59.3814Z" fill="#00AADA"/>
<path d="M308.604 59.3814C308.797 57.9616 307.738 56.8546 307.064 56.3252C306.318 57.1915 306.198 59.5017 307.377 60.4642C306.703 61.0418 305.331 61.5953 303.888 61.5953H287.524C287.452 63.8814 288.294 65.614 289.81 66.6488C290.989 66.6247 291.952 66.4803 292.698 66.2397C292.818 66.1915 292.914 66.2637 292.962 66.36C293.01 66.4803 292.938 66.5766 292.842 66.6247C292.746 66.6488 292.65 66.6969 292.529 66.7209C291.952 66.8894 291.278 67.0097 290.484 67.0578L290.46 67.0338C292.505 68.0926 295.465 68.0685 298.882 66.7691C302.684 65.3012 306.246 62.5097 308.724 59.3332C308.676 59.3573 308.628 59.3573 308.604 59.3814Z" fill="#28B8EB"/>
<path d="M286.538 63.3994C286.634 64.1935 286.875 64.9395 287.236 65.6374L287.428 65.9984C287.549 66.2149 287.693 66.4074 287.838 66.624C288.559 66.6722 289.209 66.6962 289.811 66.6722C290.99 66.6481 291.953 66.5037 292.699 66.2631C292.819 66.2149 292.915 66.2871 292.963 66.3834C293.011 66.5037 292.939 66.6 292.843 66.6481C292.747 66.6722 292.65 66.7203 292.53 66.7443C291.953 66.9128 291.279 67.0331 290.485 67.0812H290.388C290.076 67.1053 289.739 67.1053 289.402 67.1053C289.017 67.1053 288.632 67.1053 288.223 67.0812C289.666 68.7176 291.953 69.6802 294.792 69.6802C299.942 69.6802 304.418 67.731 307.017 63.4235H286.538V63.3994Z" fill="#028BB8"/>
<path d="M287.693 63.3994C288.006 64.7951 288.728 65.9021 289.811 66.6481C290.99 66.624 291.953 66.4796 292.699 66.239C292.819 66.1909 292.915 66.2631 292.963 66.3593C293.012 66.4796 292.939 66.5759 292.843 66.624C292.747 66.6481 292.651 66.6962 292.53 66.7203C291.953 66.8887 291.279 67.0091 290.461 67.0572C292.506 68.116 295.466 68.0919 298.859 66.7925C300.905 65.9984 302.902 64.8192 304.683 63.3994H287.693Z" fill="#019BC6"/>
<path fill-rule="evenodd" clip-rule="evenodd" d="M288.873 58.8026H291.231V61.1609H288.873V58.8026ZM289.066 58.9951H289.258V60.9443H289.066V58.9951ZM289.402 58.9951H289.595V60.9443H289.402V58.9951ZM289.763 58.9951H289.956V60.9443H289.763V58.9951ZM290.124 58.9951H290.317V60.9443H290.124V58.9951ZM290.485 58.9951H290.678V60.9443H290.485V58.9951ZM290.846 58.9951H291.039V60.9443H290.846V58.9951ZM291.568 56.1074H293.927V58.4657H291.568V56.1074ZM291.785 56.2999H291.977V58.2491H291.785V56.2999ZM292.122 56.2999H292.314V58.2491H292.122V56.2999ZM292.483 56.2999H292.675V58.2491H292.483V56.2999ZM292.844 56.2999H293.036V58.2491H292.844V56.2999ZM293.181 56.2999H293.373V58.2491H293.181V56.2999ZM293.542 56.2999H293.734V58.2491H293.542V56.2999Z" fill="#00ACD3"/>
<path fill-rule="evenodd" clip-rule="evenodd" d="M291.565 58.8037H293.924V61.162H291.565V58.8037ZM291.782 58.9962H291.975V60.9454H291.782V58.9962ZM292.119 58.9962H292.311V60.9454H292.119V58.9962ZM292.48 58.9962H292.672V60.9454H292.48V58.9962ZM292.841 58.9962H293.033V60.9454H292.841V58.9962ZM293.178 58.9962H293.37V60.9454H293.178V58.9962ZM293.539 58.9962H293.731V60.9454H293.539V58.9962Z" fill="#23C2EE"/>
<path fill-rule="evenodd" clip-rule="evenodd" d="M294.286 58.8037H296.644V61.162H294.286V58.8037ZM294.479 58.9962H294.671V60.9454H294.479V58.9962ZM294.84 58.9962H295.032V60.9454H294.84V58.9962ZM295.201 58.9962H295.393V60.9454H295.201V58.9962ZM295.537 58.9962H295.73V60.9454H295.537V58.9962ZM295.898 58.9962H296.091V60.9454H295.898V58.9962ZM296.259 58.9962H296.452V60.9454H296.259V58.9962Z" fill="#00ACD3"/>
<path fill-rule="evenodd" clip-rule="evenodd" d="M294.286 56.1074H296.644V58.4657H294.286V56.1074ZM294.479 56.2999H294.671V58.2491H294.479V56.2999ZM294.84 56.2999H295.032V58.2491H294.84V56.2999ZM295.201 56.2999H295.393V58.2491H295.201V56.2999ZM295.537 56.2999H295.73V58.2491H295.537V56.2999ZM295.898 56.2999H296.091V58.2491H295.898V56.2999ZM296.259 56.2999H296.452V58.2491H296.259V56.2999ZM297.005 58.8026H299.364V61.1609H297.005V58.8026ZM297.198 58.9951H297.39V60.9443H297.198V58.9951ZM297.559 58.9951H297.751V60.9443H297.559V58.9951ZM297.896 58.9951H298.088V60.9443H297.896V58.9951ZM298.257 58.9951H298.449V60.9443H298.257V58.9951ZM298.618 58.9951H298.81V60.9443H298.618V58.9951ZM298.979 58.9951H299.171V60.9443H298.979V58.9951Z" fill="#23C2EE"/>
<path fill-rule="evenodd" clip-rule="evenodd" d="M297.004 56.1074H299.362V58.4657H297.004V56.1074ZM297.196 56.2999H297.389V58.2491H297.196V56.2999ZM297.557 56.2999H297.75V58.2491H297.557V56.2999ZM297.894 56.2999H298.087V58.2491H297.894V56.2999ZM298.255 56.2999H298.448V58.2491H298.255V56.2999ZM298.616 56.2999H298.809V58.2491H298.616V56.2999ZM298.977 56.2999H299.17V58.2491H298.977V56.2999Z" fill="#00ACD3"/>
<path fill-rule="evenodd" clip-rule="evenodd" d="M297.004 53.3896H299.362V55.7479H297.004V53.3896ZM297.196 53.5822H297.389V55.5314H297.196V53.5822ZM297.557 53.5822H297.75V55.5314H297.557V53.5822ZM297.894 53.5822H298.087V55.5314H297.894V53.5822ZM298.255 53.5822H298.448V55.5314H298.255V53.5822ZM298.616 53.5822H298.809V55.5314H298.616V53.5822ZM298.977 53.5822H299.17V55.5314H298.977V53.5822Z" fill="#23C2EE"/>
<path fill-rule="evenodd" clip-rule="evenodd" d="M299.725 58.8037H302.083V61.162H299.725V58.8037ZM299.917 58.9962H300.11V60.9454H299.917V58.9962ZM300.254 58.9962H300.447V60.9454H300.254V58.9962ZM300.615 58.9962H300.808V60.9454H300.615V58.9962ZM300.976 58.9962H301.168V60.9454H300.976V58.9962ZM301.337 58.9962H301.529V60.9454H301.337V58.9962ZM301.698 58.9962H301.89V60.9454H301.698V58.9962Z" fill="#00ACD3"/>
<path fill-rule="evenodd" clip-rule="evenodd" d="M293.78 64.9639C294.141 64.9639 294.429 65.2526 294.429 65.6136C294.429 65.9746 294.141 66.2633 293.78 66.2633C293.419 66.2633 293.13 65.9746 293.13 65.6136C293.13 65.2526 293.419 64.9639 293.78 64.9639Z" fill="#D4EEF1"/>
<path fill-rule="evenodd" clip-rule="evenodd" d="M293.783 65.1555C293.831 65.1555 293.903 65.1555 293.951 65.1796C293.903 65.2036 293.855 65.2758 293.855 65.348C293.855 65.4443 293.951 65.5405 294.048 65.5405C294.12 65.5405 294.192 65.4924 294.216 65.4443C294.24 65.4924 294.24 65.5646 294.24 65.6127C294.24 65.8774 294.024 66.0699 293.783 66.0699C293.518 66.0699 293.326 65.8534 293.326 65.6127C293.326 65.3721 293.518 65.1555 293.783 65.1555ZM286.312 63.6395H306.86L307.373 63.2468C306.686 63.1503 306.098 62.9327 305.815 62.6769C304.997 63.856 300.28 63.3988 299.967 62.4844C298.957 63.6876 295.804 63.6876 294.794 62.4844C294.457 63.3988 289.74 63.856 288.946 62.6769C288.534 63.0612 287.418 63.3594 286.312 63.2902V63.6395Z" fill="#3A4D54"/>
<path d="M295.512 69.6565C293.9 68.8865 293.033 67.8517 292.528 66.7207C291.927 66.8892 291.205 67.0095 290.386 67.0576C290.074 67.0817 289.737 67.0817 289.4 67.0817C288.991 67.0817 288.582 67.0817 288.148 67.0576C289.592 68.5015 291.421 69.6325 294.766 69.6565H295.512Z" fill="#BFDBE0"/>
<path d="M293.131 67.7555C292.914 67.4426 292.698 67.0817 292.529 66.7207C291.928 66.8892 291.206 67.0095 290.388 67.0576C290.941 67.3464 291.759 67.6351 293.131 67.7555Z" fill="#D4EEF1"/>
</g>
<g clip-path="url(#clip6)">
<path d="M66.488 126.226C66.8492 135.922 62.3598 136.769 57.1996 136.512C52.0394 136.256 45.5891 133.793 45.7439 126.226C45.8988 118.659 50.8267 116.448 54.6969 116.499C58.5671 116.55 66.1268 116.53 66.488 126.226Z" fill="#EFF1FF"/>
<path d="M52.5068 121.721L54.6702 121.722L56.0844 124.069L57.4936 121.722L59.655 121.721L56.0952 127.896L52.5068 121.721Z" fill="#35495E"/>
<path d="M50.1475 121.737L52.505 121.721L56.0931 127.896L59.6532 121.721L62.0148 121.724L56.0928 131.887L50.1475 121.737Z" fill="#41B883"/>
</g>
<g clip-path="url(#clip7)">
<path d="M72.5295 38.4923C73.0831 53.3506 66.2036 54.6478 58.2961 54.2547C50.3886 53.8616 40.5043 50.088 40.7415 38.4923C40.9787 26.8965 48.5303 23.5077 54.4609 23.5863C60.3916 23.6649 71.976 23.634 72.5295 38.4923Z" fill="#EFF1FF"/>
<g clip-path="url(#clip8)">
<path d="M53.2092 43.8797C53.2092 43.8797 52.3071 44.4047 53.852 44.5818C55.7238 44.7956 56.6804 44.765 58.7426 44.3751C58.7426 44.3751 59.2858 44.7148 60.0431 45.0092C55.4186 46.9905 49.5773 44.8944 53.2092 43.8797ZM52.6438 41.2939C52.6438 41.2939 51.6318 42.0431 53.1779 42.2032C55.1775 42.4096 56.7562 42.4265 59.4895 41.9004C59.4895 41.9004 59.8666 42.2836 60.4606 42.4929C54.8704 44.1278 48.644 42.6216 52.6438 41.2939Z" fill="#7579FF"/>
<path d="M57.4051 36.9066C58.5452 38.2189 57.1062 39.3988 57.1062 39.3988C57.1062 39.3988 59.9993 37.9056 58.6709 36.0349C57.4297 34.2911 56.4783 33.425 61.6295 30.4375C61.6295 30.4377 53.5436 32.4566 57.4051 36.9066Z" fill="#CE368A"/>
<path d="M63.5229 45.7935C63.5229 45.7935 64.1906 46.3442 62.7871 46.7698C60.1186 47.5781 51.6783 47.8219 49.3342 46.8021C48.4919 46.4354 50.072 45.9269 50.5691 45.8197C51.0874 45.7074 51.3833 45.7279 51.3833 45.7279C50.4461 45.068 45.3256 47.0241 48.7828 47.5851C58.2103 49.1134 65.9679 46.8969 63.5229 45.7935ZM53.6431 38.6152C53.6431 38.6152 49.3503 39.6349 52.123 40.0056C53.294 40.1623 55.6271 40.1264 57.8019 39.9439C59.5788 39.7946 61.3619 39.4758 61.3619 39.4758C61.3619 39.4758 60.7359 39.7443 60.2825 40.0535C55.9223 41.2004 47.5013 40.6662 49.9259 39.4938C51.9756 38.5024 53.6431 38.6152 53.6431 38.6152ZM61.3441 42.9195C65.776 40.6172 63.7267 38.4046 62.2963 38.7026C61.9466 38.7755 61.7897 38.8388 61.7897 38.8388C61.7897 38.8388 61.9199 38.6347 62.1682 38.5469C64.9977 37.5525 67.1734 41.4805 61.2555 43.0363C61.2555 43.0359 61.3235 42.9744 61.3441 42.9195Z" fill="#7579FF"/>
<path d="M58.6722 25.6143C58.6722 25.6143 61.1261 28.0697 56.3441 31.8442C52.5092 34.873 55.4697 36.5995 56.3428 38.573C54.104 36.5533 52.4619 34.7752 53.5634 33.1204C55.1809 30.6918 59.662 29.5139 58.6722 25.6143Z" fill="#CE368A"/>
<path d="M54.0786 49.1591C58.3316 49.431 64.8645 49.0077 65.0191 46.9951C65.0191 46.9951 64.7219 47.7581 61.5039 48.3634C57.8733 49.0469 53.3947 48.9673 50.7393 48.5288C50.7393 48.529 51.2833 48.9794 54.0786 49.1591Z" fill="#7579FF"/>
</g>
</g>
<g clip-path="url(#clip9)">
<path d="M122.993 94.0853C123.355 103.802 118.856 104.65 113.685 104.393C108.514 104.136 102.051 101.668 102.206 94.0853C102.361 86.5025 107.299 84.2864 111.177 84.3378C115.056 84.3892 122.631 84.369 122.993 94.0853Z" fill="#EFF1FF"/>
<path d="M106.502 90.4326L107.065 90.1074L113.34 100.974L112.776 101.299L106.502 90.4326Z" fill="#E535AB"/>
<path d="M118.923 91.2998H106.375V90.6495H118.923V91.2998Z" fill="#E535AB"/>
<path d="M106.62 90.9334L112.896 87.3096L113.222 87.8728L106.945 91.4966L106.62 90.9334Z" fill="#E535AB"/>
<path d="M112.075 100.381L118.352 96.7568L118.677 97.32L112.4 100.944L112.075 100.381Z" fill="#E535AB"/>
<path d="M106.622 97.322L106.947 96.7588L113.224 100.383L112.899 100.946L106.622 97.322Z" fill="#E535AB"/>
<path d="M111.966 100.975L118.24 90.1084L118.803 90.4336L112.529 101.3L111.966 100.975Z" fill="#E535AB"/>
<path d="M107.523 97.7539H106.873V90.5062H107.523V97.7539Z" fill="#E535AB"/>
<path d="M118.429 97.7529H117.778V90.5052H118.429V97.7529Z" fill="#E535AB"/>
<path d="M112.508 88.0779L112.792 87.5859L118.251 90.7377L117.967 91.2297L112.508 88.0779Z" fill="#E535AB"/>
<path d="M119.289 90.2934C118.913 89.6392 118.075 89.4159 117.42 89.792C116.766 90.1681 116.543 91.0064 116.919 91.6607C117.295 92.3149 118.133 92.5383 118.788 92.1622C119.446 91.7821 119.669 90.9477 119.289 90.2934Z" fill="#E535AB"/>
<path d="M108.376 96.5971C108 95.9429 107.162 95.7196 106.507 96.0957C105.853 96.4718 105.63 97.3102 106.006 97.9644C106.382 98.6187 107.22 98.842 107.875 98.4659C108.529 98.0859 108.752 97.2514 108.376 96.5971Z" fill="#E535AB"/>
<path d="M106.008 90.2934C105.632 90.9477 105.855 91.7821 106.509 92.1622C107.163 92.5383 107.998 92.3149 108.378 91.6607C108.754 91.0064 108.531 90.172 107.876 89.792C107.218 89.4159 106.384 89.6392 106.008 90.2934Z" fill="#E535AB"/>
<path d="M116.927 96.5971C116.551 97.2514 116.774 98.0859 117.428 98.4659C118.082 98.842 118.917 98.6187 119.297 97.9644C119.673 97.3102 119.45 96.4757 118.795 96.0957C118.141 95.7196 117.303 95.9429 116.927 96.5971Z" fill="#E535AB"/>
<path d="M112.649 86.4598C111.893 86.4598 111.282 87.071 111.282 87.8271C111.282 88.5832 111.893 89.1943 112.649 89.1943C113.406 89.1943 114.017 88.5832 114.017 87.8271C114.017 87.0749 113.406 86.4598 112.649 86.4598Z" fill="#E535AB"/>
<path d="M112.649 99.0653C111.893 99.0653 111.282 99.6764 111.282 100.433C111.282 101.189 111.893 101.8 112.649 101.8C113.406 101.8 114.017 101.189 114.017 100.433C114.017 99.6764 113.406 99.0653 112.649 99.0653Z" fill="#E535AB"/>
</g>
<g clip-path="url(#clip10)">
<path d="M242.478 48.7807C242.83 58.2217 238.459 59.0459 233.434 58.7962C228.41 58.5464 222.129 56.1487 222.28 48.7807C222.431 41.4128 227.229 39.2595 230.997 39.3094C234.766 39.3594 242.126 39.3397 242.478 48.7807Z" fill="#EFF1FF"/>
<path d="M236.394 45.9065C236.068 45.9177 235.855 45.727 235.844 45.4354C235.844 45.3233 235.866 45.2335 235.945 45.1214C236.012 44.9868 236.035 44.9643 236.035 44.9083C236.023 44.7288 235.754 44.7176 235.676 44.7176C234.638 44.751 234.366 46.138 234.143 47.2786L234.139 47.2973L234.027 47.903C234.621 47.9927 235.048 47.8805 235.283 47.7347C235.62 47.5216 235.193 47.2973 235.238 47.0505C235.294 46.8038 235.519 46.6804 235.698 46.6692C235.956 46.658 236.136 46.9272 236.124 47.1963C236.113 47.6338 235.53 48.2507 234.352 48.217C234.206 48.217 234.083 48.2058 233.96 48.1946L233.735 49.4171C233.533 50.3369 233.276 51.6043 232.333 52.7034C231.526 53.668 230.707 53.8138 230.337 53.8251C229.653 53.8475 229.193 53.4774 229.182 52.9951C229.17 52.524 229.585 52.266 229.855 52.2548C230.225 52.2436 230.471 52.5128 230.483 52.8156C230.494 53.0736 230.359 53.1521 230.27 53.2082C230.214 53.253 230.124 53.3091 230.124 53.4101C230.124 53.4549 230.18 53.5559 230.326 53.5559C230.617 53.5447 230.808 53.3988 230.943 53.3091C231.616 52.7483 231.873 51.7725 232.21 50.0116L232.277 49.5854C232.389 49.0134 232.524 48.3628 232.715 47.7235C232.244 47.3646 231.963 46.9272 231.324 46.7589C230.886 46.6355 230.629 46.7365 230.438 46.972C230.214 47.2524 230.292 47.6113 230.505 47.8244L230.853 48.217C231.29 48.7217 231.526 49.1031 231.436 49.6302C231.313 50.449 230.314 51.0883 229.137 50.7294C228.127 50.4154 227.948 49.7087 228.071 49.3162C228.172 48.9685 228.453 48.9012 228.722 48.9909C229.013 49.0806 229.126 49.4283 229.036 49.6975C229.025 49.7312 229.013 49.776 228.98 49.8321C228.946 49.9106 228.89 49.9667 228.856 50.0564C228.789 50.2696 229.081 50.4154 229.283 50.4827C229.731 50.6173 230.169 50.3817 230.281 50.0228C230.38 49.6919 230.176 49.4587 230.094 49.3657L230.09 49.3611L229.664 48.9012C229.473 48.6881 229.036 48.0824 229.249 47.3982C229.327 47.1403 229.496 46.8599 229.742 46.6804C230.258 46.2878 230.83 46.2318 231.369 46.3888C232.064 46.5907 232.401 47.0505 232.838 47.4094C233.085 46.7028 233.421 45.9962 233.926 45.413C234.386 44.8746 234.992 44.4933 235.698 44.4596C236.405 44.4372 236.932 44.7512 236.954 45.256C236.943 45.4803 236.82 45.8953 236.394 45.9065Z" fill="#D6D7EA"/>
</g>
<g clip-path="url(#clip11)">
<path d="M337.967 118.717C338.501 133.038 331.87 134.289 324.248 133.91C316.627 133.531 307.1 129.894 307.328 118.717C307.557 107.541 314.836 104.274 320.552 104.35C326.268 104.426 337.434 104.396 337.967 118.717Z" fill="#EFF1FF"/>
<path d="M316.601 117.206C315.949 117.206 315.421 117.729 315.421 118.372L315.422 123.255C315.422 123.9 315.951 124.421 316.603 124.421C317.255 124.421 317.784 123.9 317.783 123.255V118.372C317.783 117.729 317.254 117.206 316.601 117.206ZM326.123 112.822L326.947 111.336C326.991 111.258 326.962 111.159 326.882 111.115C326.802 111.073 326.703 111.102 326.66 111.18L325.828 112.681C325.127 112.374 324.343 112.201 323.514 112.202C322.687 112.201 321.903 112.373 321.206 112.679L320.373 111.181C320.329 111.102 320.23 111.074 320.151 111.117C320.071 111.16 320.041 111.259 320.086 111.336L320.91 112.821C319.29 113.646 318.196 115.217 318.197 117.021L328.832 117.02C328.833 115.216 327.74 113.649 326.123 112.822ZM321.095 115.118C320.85 115.118 320.651 114.921 320.651 114.678C320.651 114.436 320.85 114.237 321.096 114.237C321.342 114.237 321.542 114.436 321.542 114.678C321.542 114.921 321.342 115.118 321.095 115.118ZM325.938 115.117C325.692 115.117 325.492 114.921 325.492 114.677C325.493 114.436 325.692 114.237 325.938 114.236C326.183 114.237 326.383 114.436 326.383 114.677C326.384 114.92 326.184 115.117 325.938 115.117ZM318.24 117.427L318.242 124.993C318.242 125.682 318.805 126.237 319.502 126.237L320.36 126.238L320.361 128.821C320.361 129.465 320.89 129.987 321.541 129.987C322.193 129.987 322.722 129.464 322.722 128.82L322.721 126.237L324.315 126.237L324.316 128.82C324.316 129.463 324.845 129.987 325.496 129.986C326.149 129.987 326.677 129.463 326.677 128.819L326.677 126.237L327.537 126.236C328.232 126.236 328.798 125.68 328.798 124.992L328.796 117.425L318.24 117.427ZM331.613 118.371C331.613 117.726 331.084 117.204 330.432 117.205C329.78 117.204 329.252 117.727 329.252 118.371L329.253 123.254C329.253 123.898 329.781 124.419 330.433 124.42C331.086 124.419 331.614 123.898 331.614 123.253L331.613 118.371Z" fill="#A4C439"/>
</g>
<g clip-path="url(#clip12)">
<path d="M26.4588 174.134C26.1499 182.427 29.9894 183.151 34.4025 182.931C38.8157 182.712 44.3322 180.606 44.1998 174.134C44.0674 167.663 39.8528 165.771 36.5429 165.815C33.2331 165.859 26.7677 165.842 26.4588 174.134Z" fill="#EFF1FF"/>
<path d="M35.2218 175.287L34.4748 173.174C34.4304 173.063 34.3828 172.933 34.3321 172.784C34.2845 172.635 34.2385 172.473 34.1941 172.299C34.1497 172.477 34.1021 172.642 34.0514 172.794C34.0038 172.943 33.9578 173.073 33.9134 173.184L33.1712 175.287H35.2218ZM37.6197 177.908H36.5111C36.3874 177.908 36.2859 177.88 36.2066 177.823C36.1305 177.762 36.0734 177.686 36.0354 177.594L35.5691 176.276H32.8191L32.3529 177.594C32.3212 177.674 32.2657 177.747 32.1864 177.813C32.1071 177.877 32.0072 177.908 31.8866 177.908H30.7686L33.4662 171.005H34.9268L37.6197 177.908Z" fill="#7579FF"/>
<path d="M39.6955 177.908H38.2586V171.005H39.6955V177.908Z" fill="#7579FF"/>
</g>
<g clip-path="url(#clip13)">
<path d="M264.056 112.204C263.648 123.154 268.718 124.109 274.545 123.82C280.373 123.53 287.657 120.749 287.482 112.204C287.307 103.658 281.742 101.161 277.372 101.219C273.001 101.277 264.464 101.254 264.056 112.204Z" fill="#EFF1FF"/>
<path d="M273.761 113.442L273.011 111.319C272.966 111.207 272.918 111.077 272.867 110.927C272.819 110.777 272.773 110.614 272.728 110.439C272.684 110.618 272.636 110.783 272.585 110.936C272.537 111.086 272.491 111.217 272.446 111.328L271.701 113.442H273.761ZM276.171 116.076H275.057C274.933 116.076 274.831 116.047 274.751 115.99C274.674 115.929 274.617 115.853 274.579 115.76L274.11 114.436H271.347L270.878 115.76C270.846 115.84 270.791 115.913 270.711 115.98C270.631 116.044 270.531 116.076 270.41 116.076H269.286L271.997 109.139H273.465L276.171 116.076Z" fill="#9494D9"/>
<path d="M278.983 112.423C279.216 112.423 279.417 112.395 279.586 112.337C279.755 112.277 279.893 112.195 280.002 112.093C280.11 111.988 280.19 111.865 280.241 111.725C280.292 111.585 280.317 111.432 280.317 111.266C280.317 110.938 280.207 110.683 279.987 110.501C279.771 110.32 279.439 110.229 278.993 110.229H278.247V112.423H278.983ZM282.345 116.076H281.049C280.807 116.076 280.631 115.984 280.523 115.799L279.203 113.671C279.149 113.588 279.089 113.528 279.022 113.489C278.958 113.451 278.862 113.432 278.735 113.432H278.247V116.076H276.813V109.139H278.993C279.478 109.139 279.892 109.19 280.236 109.292C280.58 109.39 280.862 109.529 281.082 109.708C281.302 109.886 281.463 110.1 281.565 110.348C281.667 110.594 281.718 110.865 281.718 111.161C281.718 111.391 281.685 111.609 281.618 111.816C281.554 112.02 281.46 112.206 281.336 112.375C281.211 112.544 281.058 112.694 280.877 112.825C280.695 112.956 280.488 113.061 280.255 113.14C280.348 113.191 280.434 113.254 280.513 113.327C280.593 113.397 280.665 113.481 280.729 113.58L282.345 116.076Z" fill="#9494D9"/>
</g>
<g clip-path="url(#clip14)">
<path d="M184.472 60.2264C184.066 71.1025 189.115 72.052 194.919 71.7642C200.722 71.4765 207.977 68.7143 207.803 60.2264C207.628 51.7385 202.086 49.2579 197.734 49.3154C193.381 49.373 184.879 49.3503 184.472 60.2264Z" fill="#EFF1FF"/>
<path d="M196.49 57.0986L193.711 64.0021H192.417L189.639 57.0986H190.79C190.914 57.0986 191.014 57.1288 191.09 57.189C191.169 57.2461 191.228 57.3207 191.266 57.4126L192.76 61.3901C192.817 61.5392 192.872 61.7025 192.926 61.8802C192.983 62.0546 193.036 62.2386 193.083 62.432C193.125 62.2386 193.169 62.0546 193.216 61.8802C193.267 61.7025 193.321 61.5392 193.378 61.3901L194.863 57.4126C194.894 57.3333 194.95 57.262 195.029 57.1985C195.112 57.1319 195.213 57.0986 195.334 57.0986H196.49Z" fill="#7579FF"/>
<path d="M199.289 60.3672C199.52 60.3672 199.72 60.3386 199.888 60.2816C200.056 60.2213 200.194 60.1404 200.302 60.0389C200.41 59.9342 200.489 59.8121 200.54 59.6726C200.591 59.533 200.616 59.3808 200.616 59.2158C200.616 58.8891 200.507 58.6354 200.288 58.4546C200.072 58.2738 199.742 58.1834 199.298 58.1834H198.556V60.3672H199.289ZM202.633 64.0021H201.344C201.103 64.0021 200.929 63.9101 200.821 63.7261L199.508 61.609C199.454 61.5265 199.393 61.4662 199.327 61.4282C199.263 61.3901 199.168 61.3711 199.041 61.3711H198.556V64.0021H197.129V57.0986H199.298C199.78 57.0986 200.193 57.1494 200.535 57.2509C200.878 57.3492 201.159 57.4872 201.377 57.6648C201.596 57.8424 201.756 58.0549 201.858 58.3023C201.959 58.5466 202.01 58.8162 202.01 59.1112C202.01 59.3395 201.977 59.5568 201.91 59.763C201.847 59.966 201.753 60.1515 201.63 60.3196C201.506 60.4877 201.354 60.6368 201.173 60.7668C200.992 60.8969 200.786 61.0016 200.554 61.0809C200.646 61.1316 200.732 61.1935 200.811 61.2664C200.891 61.3362 200.962 61.4202 201.025 61.5186L202.633 64.0021Z" fill="#7579FF"/>
</g>
<defs>
<linearGradient id="paint0_linear" x1="148.963" y1="138.912" x2="148.981" y2="140.704" gradientUnits="userSpaceOnUse">
<stop stop-color="#A209D4"/>
<stop offset="1" stop-color="#D61382"/>
</linearGradient>
<linearGradient id="paint1_linear" x1="132.779" y1="149.701" x2="132.818" y2="151.493" gradientUnits="userSpaceOnUse">
<stop stop-color="#A209D4"/>
<stop offset="1" stop-color="#D61382"/>
</linearGradient>
<clipPath id="clip0">
<rect width="26.8163" height="25.9512" transform="matrix(-1 0 0 1 214.069 0)" fill="white"/>
</clipPath>
<clipPath id="clip1">
<rect width="23.3561" height="22.4911" transform="matrix(-1 0 0 1 115.554 3.57324)" fill="white"/>
</clipPath>
<clipPath id="clip2">
<rect width="16.1743" height="15.6166" transform="matrix(-1 0 0 1 66.9189 74.3311)" fill="white"/>
</clipPath>
<clipPath id="clip3">
<rect width="16.1268" height="15.5707" transform="matrix(-1 0 0 1 16.127 65.0391)" fill="white"/>
</clipPath>
<clipPath id="clip4">
<rect width="31.2534" height="30.1757" transform="matrix(-1 0 0 1 169.192 30.7324)" fill="white"/>
</clipPath>
<clipPath id="clip5">
<rect width="33.9043" height="32.8769" transform="matrix(-1 0 0 1 314.785 45.7412)" fill="white"/>
</clipPath>
<clipPath id="clip6">
<rect width="20.7672" height="20.0511" transform="matrix(-1 0 0 1 66.5088 116.499)" fill="white"/>
</clipPath>
<clipPath id="clip7">
<rect x="40.7373" y="23.585" width="31.8235" height="30.7261" fill="white"/>
</clipPath>
<clipPath id="clip8">
<rect x="44.1973" y="25.3145" width="24.2212" height="24.2212" fill="white"/>
</clipPath>
<clipPath id="clip9">
<rect width="20.8104" height="20.0928" transform="matrix(-1 0 0 1 123.014 84.3369)" fill="white"/>
</clipPath>
<clipPath id="clip10">
<rect width="20.2207" height="19.5234" transform="matrix(-1 0 0 1 242.496 39.3096)" fill="white"/>
</clipPath>
<clipPath id="clip11">
<rect width="30.6732" height="29.6155" transform="matrix(-1 0 0 1 337.999 104.349)" fill="white"/>
</clipPath>
<clipPath id="clip12">
<rect width="17.7608" height="17.1483" transform="matrix(-1 0 0 1 44.2051 165.814)" fill="white"/>
</clipPath>
<clipPath id="clip13">
<rect width="23.4523" height="22.6436" transform="matrix(-1 0 0 1 287.485 101.218)" fill="white"/>
</clipPath>
<clipPath id="clip14">
<rect width="23.3561" height="22.4911" transform="matrix(-1 0 0 1 207.804 49.3145)" fill="white"/>
</clipPath>
</defs>
</svg>
