<svg width="341" height="341" viewBox="0 0 341 341" fill="none" xmlns="http://www.w3.org/2000/svg">
<path d="M340.67 173.146C346.514 330.791 273.879 344.553 190.39 340.383C106.901 336.212 2.53957 296.175 5.04424 173.146C7.54891 50.1169 87.2807 14.1615 149.897 14.9956C212.514 15.8297 334.826 15.5015 340.67 173.146Z" fill="#191A44"/>
<path d="M194.999 95.2222H121.999C124.498 95.2222 132.5 86.2227 132.5 81.2222C132.5 76.2218 135.5 70.2222 140 70.2222C144.5 70.2222 189.5 69.7222 194.999 70.2222C200.498 70.7222 204.005 75.7227 204.505 82.2227C205.005 88.7227 201.999 95.2222 194.999 95.2222Z" fill="#262865"/>
<rect x="145" y="76" width="13" height="2" rx="1" fill="#575DDD"/>
<rect x="163.5" y="76.5" width="23" height="1" rx="0.5" stroke="url(#tech0_linear)"/>
<rect x="145" y="82" width="9" height="2" rx="1" fill="#6B3CC0"/>
<rect x="158" y="82" width="9" height="2" rx="1" fill="#28B3B6"/>
<rect x="171" y="82" width="9" height="2" rx="1" fill="#6B3CC0"/>
<rect x="145.5" y="88.5" width="10" height="1" rx="0.5" stroke="url(#tech1_linear)"/>
<rect x="159" y="88" width="11" height="2" rx="1" fill="#28B3B6"/>
<path d="M120.625 181.911C118.433 185.027 115.61 189.562 112.743 194.979C115.167 192.704 118.933 190.263 123.336 190.221C131.097 190.145 130.426 198.724 123.336 201.056C117.192 203.078 111.513 202.557 109.953 200.521C107.839 204.947 105.805 209.767 104.096 214.758C103.998 215.044 103.901 215.331 103.804 215.619C103.684 215.978 103.565 216.337 103.448 216.697C105.156 214.446 107.798 211.543 110.486 210.237C114.977 208.055 120.798 210.086 119.529 214.526C118.261 218.966 112.514 222.352 108.484 222.502C105.362 222.619 102.868 222.672 101.902 221.753C100.377 227.1 99.1751 232.544 98.3535 238.039C99.8574 235.115 102.441 231.408 105.573 230.479C110.648 228.974 113.634 230.027 113.857 234.317C114.081 238.606 107.066 243.723 103.334 243.948C100.831 244.1 98.7273 244.053 97.6217 243.938C97.1967 248.261 97.0164 252.606 97.1078 256.951L95.6795 256.981C95.5456 250.612 95.9875 244.249 96.9212 237.957C95.9829 238.326 94.3104 238.338 91.7664 236.95C87.2139 234.467 84.6018 227.017 85.0496 223.029C85.4974 219.041 90.1992 217.687 93.3337 220.17C95.4627 221.856 97.0908 228.074 97.8967 232.292C98.9536 226.895 100.359 221.567 102.059 216.348C101.136 216.458 99.78 215.522 97.737 213.999C94.3039 211.441 92.3635 205.496 92.4381 201.357C92.5128 197.219 97.6623 192.704 101.469 197.52C103.909 200.607 104.37 206.252 104.253 210.141C106.321 204.744 108.701 199.629 111.071 195.089C107.641 196.435 103.7 186.291 103.633 181.341C103.558 175.848 109.902 171.183 113.26 175.773C115.55 178.902 114.931 185.434 114.082 189.6C116.173 185.974 118.143 182.924 119.752 180.67C119.633 177.036 120.506 170.612 124.903 167.044C131.023 162.078 136.545 163.131 134.605 170.355C132.82 177 124.152 181.926 120.625 181.911Z" fill="#121334"/>
<path d="M14.3752 181.911C16.5669 185.027 19.3897 189.562 22.2572 194.979C19.8333 192.704 16.0667 190.263 11.6644 190.221C3.9027 190.145 4.57438 198.724 11.6644 201.056C17.8081 203.078 23.4873 202.557 25.0466 200.521C27.1611 204.947 29.1946 209.767 30.9036 214.758C31.0015 215.044 31.0988 215.331 31.1955 215.619C31.3158 215.978 31.4346 216.337 31.5521 216.697C29.8442 214.446 27.202 211.543 24.5144 210.237C20.0231 208.055 14.2019 210.086 15.4706 214.526C16.7393 218.966 22.486 222.352 26.5161 222.502C29.6375 222.619 32.1322 222.672 33.0984 221.753C34.6235 227.1 35.8249 232.544 36.6465 238.039C35.1426 235.115 32.5595 231.408 29.4267 230.479C24.3518 228.974 21.3665 230.027 21.1426 234.317C20.9187 238.606 27.9341 243.723 31.6657 243.948C34.1694 244.1 36.2727 244.053 37.3783 243.938C37.8033 248.261 37.9836 252.606 37.8922 256.951L39.3205 256.981C39.4544 250.612 39.0125 244.249 38.0788 237.957C39.0171 238.326 40.6896 238.338 43.2336 236.95C47.7861 234.467 50.3982 227.017 49.9504 223.029C49.5026 219.041 44.8008 217.687 41.6663 220.17C39.5373 221.856 37.9092 228.074 37.1033 232.292C36.0464 226.895 34.6409 221.567 32.9411 216.348C33.8639 216.458 35.22 215.522 37.263 213.999C40.6961 211.441 42.6365 205.496 42.5619 201.357C42.4872 197.219 37.3377 192.704 33.5315 197.52C31.0915 200.607 30.6295 206.252 30.7473 210.141C28.6787 204.744 26.2993 199.629 23.9293 195.089C27.3587 196.435 31.2999 186.291 31.3671 181.341C31.4418 175.848 25.0981 171.183 21.7397 175.773C19.4504 178.902 20.069 185.434 20.9176 189.6C18.8271 185.974 16.8573 182.924 15.2476 180.67C15.3673 177.036 14.4936 170.612 10.0971 167.044C3.97733 162.078 -1.54541 163.131 0.395008 170.355C2.17992 177 10.8481 181.926 14.3752 181.911Z" fill="#121334"/>
<path d="M39.4003 177.75C42.2056 181.703 45.8188 187.457 49.4892 194.33C46.3866 191.444 41.5654 188.347 35.9304 188.293C25.9955 188.197 26.8552 199.082 35.9304 202.041C43.7944 204.606 51.0638 203.945 53.0596 201.362C55.7663 206.978 58.3691 213.094 60.5566 219.426C60.6819 219.789 60.8065 220.153 60.9303 220.519C61.0842 220.974 61.2363 221.43 61.3866 221.886C59.2006 219.03 55.8186 215.347 52.3785 213.69C46.6296 210.921 39.1784 213.499 40.8024 219.132C42.4263 224.765 49.782 229.061 54.9406 229.252C58.936 229.4 62.1292 229.467 63.366 228.301C65.318 235.086 66.8559 241.993 67.9075 248.965C65.9826 245.255 62.6761 240.552 58.6662 239.373C52.1703 237.464 48.3491 238.8 48.0625 244.242C47.7759 249.685 56.7556 256.177 61.532 256.463C64.7368 256.656 67.4291 256.596 68.8442 256.45C69.3882 261.935 69.619 267.448 69.502 272.962L71.3302 273C71.5016 264.918 70.936 256.844 69.7408 248.862C70.9419 249.329 73.0827 249.345 76.339 247.584C82.1662 244.433 85.5097 234.981 84.9365 229.921C84.3633 224.86 78.3451 223.142 74.3329 226.293C71.6077 228.433 69.5238 236.322 68.4922 241.674C67.1394 234.826 65.3403 228.065 63.1646 221.444C64.3458 221.583 66.0816 220.395 68.6967 218.464C73.091 215.217 75.5747 207.675 75.4792 202.423C75.3837 197.172 68.7922 191.443 63.9203 197.554C60.7971 201.471 60.2058 208.634 60.3565 213.568C57.7087 206.721 54.663 200.231 51.6295 194.47C56.0192 196.178 61.0639 183.307 61.1499 177.026C61.2455 170.057 53.1255 164.137 48.8268 169.961C45.8965 173.931 46.6883 182.219 47.7746 187.505C45.0987 182.904 42.5773 179.035 40.5169 176.175C40.6702 171.564 39.5518 163.413 33.9243 158.886C26.091 152.584 19.0219 153.921 21.5056 163.087C23.7903 171.518 34.8856 177.768 39.4003 177.75Z" fill="#24255C"/>
<path d="M312.875 187.067C309.806 191.423 305.854 197.763 301.84 205.337C305.233 202.156 310.507 198.744 316.67 198.684C327.536 198.579 326.596 210.572 316.67 213.834C308.069 216.66 300.118 215.931 297.935 213.085C294.974 219.273 292.128 226.012 289.735 232.989C289.598 233.389 289.462 233.791 289.326 234.194C289.158 234.695 288.992 235.197 288.827 235.7C291.218 232.553 294.917 228.494 298.68 226.668C304.968 223.618 313.117 226.458 311.341 232.665C309.565 238.872 301.52 243.606 295.877 243.817C291.507 243.98 288.015 244.053 286.662 242.769C284.527 250.245 282.845 257.855 281.695 265.537C283.8 261.45 287.417 256.267 291.803 254.968C298.908 252.864 303.087 254.337 303.4 260.334C303.714 266.33 293.892 273.484 288.668 273.8C285.163 274.012 282.218 273.946 280.67 273.785C280.075 279.829 279.823 285.903 279.951 291.979L277.951 292.021C277.764 283.115 278.383 274.219 279.69 265.424C278.376 265.939 276.035 265.956 272.473 264.016C266.099 260.544 262.443 250.129 263.069 244.553C263.696 238.977 270.279 237.084 274.667 240.555C277.648 242.913 279.927 251.606 281.055 257.504C282.535 249.958 284.503 242.508 286.882 235.213C285.591 235.366 283.692 234.057 280.832 231.929C276.025 228.352 273.309 220.041 273.413 214.254C273.518 208.468 280.727 202.156 286.056 208.889C289.472 213.205 290.119 221.097 289.954 226.535C292.85 218.99 296.181 211.838 299.499 205.491C294.698 207.373 289.18 193.191 289.086 186.27C288.982 178.59 297.863 172.068 302.564 178.485C305.769 182.86 304.903 191.992 303.715 197.816C306.642 192.747 309.4 188.483 311.653 185.332C311.486 180.251 312.709 171.27 318.864 166.282C327.432 159.338 335.164 160.811 332.447 170.911C329.948 180.201 317.813 187.088 312.875 187.067Z" fill="#121334"/>
<path d="M223.023 212.572C221.607 214.582 219.783 217.509 217.929 221.005C219.496 219.537 221.93 217.962 224.775 217.934C229.792 217.886 229.357 223.422 224.775 224.928C220.805 226.232 217.134 225.896 216.127 224.582C214.76 227.439 213.446 230.549 212.342 233.77C212.278 233.955 212.215 234.14 212.153 234.326C212.075 234.558 211.998 234.79 211.922 235.022C213.026 233.569 214.734 231.695 216.471 230.853C219.373 229.444 223.135 230.755 222.315 233.621C221.496 236.486 217.782 238.671 215.177 238.769C213.16 238.844 211.548 238.878 210.923 238.285C209.937 241.736 209.161 245.249 208.63 248.795C209.602 246.908 211.271 244.516 213.296 243.916C216.576 242.945 218.505 243.625 218.65 246.393C218.795 249.161 214.261 252.464 211.849 252.61C210.231 252.707 208.872 252.677 208.157 252.603C207.882 255.393 207.766 258.197 207.825 261.001L206.902 261.021C206.815 256.91 207.101 252.803 207.704 248.743C207.098 248.981 206.017 248.989 204.373 248.093C201.431 246.49 199.743 241.682 200.032 239.109C200.321 236.535 203.36 235.66 205.386 237.263C206.762 238.352 207.814 242.364 208.335 245.087C209.018 241.604 209.926 238.165 211.025 234.797C210.428 234.868 209.552 234.263 208.232 233.281C206.013 231.63 204.759 227.793 204.807 225.122C204.855 222.451 208.183 219.537 210.643 222.645C212.22 224.638 212.519 228.281 212.443 230.791C213.779 227.308 215.317 224.007 216.849 221.076C214.632 221.945 212.085 215.398 212.042 212.204C211.994 208.659 216.093 205.648 218.264 208.61C219.743 210.629 219.344 214.845 218.795 217.534C220.146 215.193 221.419 213.225 222.46 211.771C222.382 209.425 222.947 205.279 225.788 202.976C229.743 199.771 233.313 200.451 232.058 205.113C230.905 209.402 225.303 212.581 223.023 212.572Z" fill="#121334"/>
<path d="M167.291 212.572C168.707 214.582 170.532 217.509 172.385 221.005C170.818 219.537 168.384 217.962 165.539 217.934C160.523 217.886 160.957 223.422 165.539 224.928C169.51 226.232 173.18 225.896 174.188 224.582C175.554 227.439 176.868 230.549 177.973 233.77C178.036 233.955 178.099 234.14 178.162 234.326C178.239 234.558 178.316 234.79 178.392 235.022C177.288 233.569 175.581 231.695 173.844 230.853C170.941 229.444 167.179 230.755 167.999 233.621C168.819 236.486 172.533 238.671 175.137 238.769C177.155 238.844 178.767 238.878 179.391 238.285C180.377 241.736 181.153 245.249 181.684 248.795C180.713 246.908 179.043 244.516 177.018 243.916C173.739 242.945 171.809 243.625 171.665 246.393C171.52 249.161 176.054 252.464 178.465 252.61C180.084 252.707 181.443 252.677 182.157 252.603C182.432 255.393 182.549 258.197 182.489 261.001L183.413 261.021C183.499 256.91 183.213 252.803 182.61 248.743C183.216 248.981 184.297 248.989 185.941 248.093C188.884 246.49 190.572 241.682 190.282 239.109C189.993 236.535 186.954 235.66 184.929 237.263C183.553 238.352 182.5 242.364 181.98 245.087C181.297 241.604 180.388 238.165 179.29 234.797C179.886 234.868 180.762 234.263 182.083 233.281C184.302 231.63 185.556 227.793 185.507 225.122C185.459 222.451 182.131 219.537 179.671 222.645C178.094 224.638 177.796 228.281 177.872 230.791C176.535 227.308 174.997 224.007 173.466 221.076C175.682 221.945 178.229 215.398 178.273 212.204C178.321 208.659 174.221 205.648 172.051 208.61C170.571 210.629 170.971 214.845 171.519 217.534C170.168 215.193 168.895 213.225 167.855 211.771C167.932 209.425 167.368 205.279 164.526 202.976C160.571 199.771 157.002 200.451 158.256 205.113C159.41 209.402 165.012 212.581 167.291 212.572Z" fill="#121334"/>
<rect width="3.04944" height="87.4172" rx="1.52472" transform="matrix(-1 0 0 1 240.215 204.165)" fill="#4A4C96"/>
<rect width="3.04944" height="87.4172" rx="1.52472" transform="matrix(-1 0 0 1 269.695 204.165)" fill="#4A4C96"/>
<rect width="30.4944" height="3.04944" transform="matrix(-1 0 0 1 267.662 266.171)" fill="#4A4C96"/>
<rect width="51.8404" height="6.09888" rx="3.04944" transform="matrix(-1 0 0 1 277.826 201.116)" fill="#5659A5"/>
<path d="M210.431 240.939C210.059 249.856 203.743 253.571 203 256.544C203.867 256.791 205.749 257.287 206.344 257.287C207.087 257.287 219.719 252.828 219.719 249.856C219.719 247.478 217.242 242.92 216.004 240.939C214.27 237.967 210.728 233.805 210.431 240.939Z" fill="#F4A392"/>
<path d="M240.261 258.738C241.004 250.193 236.546 242.762 236.174 240.905C237.536 238.799 240.484 235.405 241.375 238.675C242.49 242.762 248.435 245.734 249.921 246.105C251.407 246.477 247.691 254.279 247.691 255.394C247.691 256.508 239.518 267.283 240.261 258.738Z" fill="#F4A392"/>
<path d="M216.11 140.589C223.169 148.391 237.659 156.193 240.631 157.308V148.391C236.668 145.79 227.627 140.143 223.169 138.359C217.596 136.129 222.797 130.185 219.825 129.814C216.853 129.442 218.339 134.273 216.11 132.043C213.88 129.814 206.078 128.328 206.078 132.043C206.078 135.759 212.766 139.474 216.11 140.589Z" fill="#F4A392"/>
<path d="M216.509 237.559C216.509 245.362 212.422 243.503 207.964 243.504C202.267 231.367 190.873 204.344 190.873 193.346C190.873 179.599 216.509 176.998 225.055 174.769C233.6 172.54 258.864 167.338 260.722 170.682C262.58 174.026 254.778 193.346 243.631 193.346C232.485 193.346 209.078 191.116 208.707 198.547C208.335 205.978 216.509 229.756 216.509 237.559Z" fill="#292C6B"/>
<path d="M242.861 237.189C243.232 240.161 242.861 245.362 236.916 245.734C227.752 231.863 209.125 202.115 207.936 194.09C206.45 184.058 237.659 182.086 238.402 181.343C239.145 180.6 236.916 173.541 238.402 169.826C239.888 166.11 273.698 167.968 276.299 172.426C278.9 176.885 279.802 189.941 272 197C264.198 204.059 231.343 201.892 226.885 201.892C222.426 201.892 242.49 234.216 242.861 237.189Z" fill="#363983"/>
<path d="M203.651 254.651C201.051 254.652 196.964 259.481 196.221 261.711C199.193 265.055 211.454 260.596 213.311 256.88C215.169 253.165 218.141 253.536 219.999 253.536C221.857 253.536 221.485 244.248 218.885 248.706C216.284 253.165 206.252 254.651 203.651 254.651Z" fill="#2F3176"/>
<path d="M239.89 260.224C239.593 260.521 238.032 267.035 237.289 270.255C244.72 271.741 249.178 260.224 249.178 256.508C249.178 252.793 253.637 250.564 253.637 250.192C253.637 249.821 250.665 245.362 248.807 245.362C246.949 245.362 246.949 251.678 246.949 253.536C246.949 255.394 240.261 259.852 239.89 260.224Z" fill="#2F3176"/>
<path d="M272.583 140.96C268.125 140.961 276.299 170.967 277.042 175.426C265.029 175.178 240.557 174.46 238.773 173.568C236.544 172.453 236.916 156.936 236.916 148.762C236.916 140.588 233.943 142.074 233.943 131.671C233.943 123.349 245.337 113.837 251.034 110.122C248.805 113.094 249.548 117.924 255.864 118.296C262.181 118.667 268.125 111.608 269.24 111.236C270.354 110.865 272.583 112.723 280.386 123.126C286.628 131.448 288.931 145.666 289.303 151.734C285.142 148.167 279.395 149.505 277.042 150.619C277.042 147.4 276.15 140.96 272.583 140.96Z" fill="#2F3176"/>
<path d="M250.291 139.475C249.919 136.131 251.034 136.874 252.52 137.989C253.709 139.178 254.997 143.19 255.493 145.048C262.329 146.922 272.707 151.278 277.042 153.221L276.67 150.249C283.507 148.763 288.188 150.868 289.674 152.107C290.17 156.194 290.046 164.888 285.587 166.968C275.482 169.346 259.332 156.813 252.52 150.249C251.654 150.373 249.028 150.546 245.462 150.249C241.003 149.878 238.774 146.534 240.632 144.304C242.489 142.075 248.433 142.818 249.548 142.818C250.662 142.818 250.663 142.818 250.291 139.475Z" fill="#F4A392"/>
<path d="M258.637 75.0655C265.874 75.6793 271.302 83.9655 272.81 95.3207C274.12 105.181 279.885 124.096 264.97 130C259.24 130 262.859 119.258 261.351 116.496C259.843 113.734 257.431 115.269 254.415 115.269C251.4 115.269 251.098 118.952 250.495 124.169C249.892 129.386 244.162 128.465 245.369 122.634C246.575 116.803 243.559 105.755 241.749 100.231C239.94 94.7067 241.749 95.3207 243.559 86.7276C245.368 78.1345 251.399 74.4517 258.637 75.0655Z" fill="#121334"/>
<path fill-rule="evenodd" clip-rule="evenodd" d="M250.818 109.286C250.398 111.465 249.922 113.942 249.922 116.438C251.661 117.888 256.79 118.658 260.373 117.341C260.191 115.198 259.924 111.959 259.691 108.953C259.658 108.529 259.626 108.109 259.595 107.698C259.537 106.721 259.513 105.765 259.491 104.903C259.453 103.352 259.421 102.105 259.21 101.577C258.616 100.091 258.963 96.2515 259.21 94.5178C252.151 94.1463 251.037 100.834 251.408 104.178C251.552 105.47 251.21 107.248 250.818 109.286Z" fill="#E6836E"/>
<path d="M250.773 108.331C241.792 105.147 245.259 89.4502 248.115 82C250.182 87.5116 256.387 89.6536 259.046 92.4092C260 93.3977 262 102.245 262 103.737C261.705 105.881 258.159 110.779 250.773 108.331Z" fill="#F4A392"/>
<path d="M239.307 41.2227V70.7222C235.807 63.2218 219.807 58.7227 205.807 58.7227C191.807 58.7227 172.307 59.2227 156.807 58.7227C141.307 58.2227 133 53.5 133 41.2227C133 28.9453 139.307 22.2222 151.807 22.2222C164.307 22.2222 199.307 21.7222 215.807 22.2222C232.307 22.7222 239.307 28.2227 239.307 41.2227Z" fill="#262865"/>
<rect width="18" height="2" rx="1" transform="matrix(-1 0 0 1 230 32)" fill="#575DDD"/>
<rect width="11" height="2" rx="1" transform="matrix(-1 0 0 1 210 32)" fill="#28B3B6"/>
<rect width="11" height="2" rx="1" transform="matrix(-1 0 0 1 193 32)" fill="#6B3CC0"/>
<rect width="16" height="2" rx="1" transform="matrix(-1 0 0 1 230 39)" fill="#28B3B6"/>
<rect width="16" height="2" rx="1" transform="matrix(-1 0 0 1 206 39)" fill="#6B3CC0"/>
<rect width="10" height="2" rx="1" transform="matrix(-1 0 0 1 182 39)" fill="#28B3B6"/>
<rect width="15" height="2" rx="1" transform="matrix(-1 0 0 1 166 39)" fill="#575DDD"/>
<rect width="28" height="2" rx="1" transform="matrix(-1 0 0 1 230 46)" fill="#B60DB5"/>
<rect width="21" height="2" rx="1" transform="matrix(-1 0 0 1 200 46)" fill="#575DDD"/>
<rect width="10" height="2" rx="1" transform="matrix(-1 0 0 1 174 46)" fill="#6B3CC0"/>
<path d="M91.6347 248.604C92.4739 246.25 100.943 241.052 102.746 240.48C102.038 236.029 99.6129 228.333 95.5798 233.15C90.5384 239.172 86.5868 240.6 85.5799 244.131C84.573 247.663 88.8101 258.491 90.7956 258.437C92.7811 258.383 90.7956 250.958 91.6347 248.604Z" fill="#F4A392"/>
<path d="M118.939 248.601C119.779 246.247 128.247 241.049 130.051 240.477C129.342 236.026 126.918 228.33 122.884 233.147C117.843 239.169 113.891 240.597 112.885 244.128C111.878 247.66 116.115 258.488 118.1 258.434C120.086 258.38 118.1 250.955 118.939 248.601Z" fill="#F4A392"/>
<path d="M96.8097 243.823C98.6895 243.75 180.487 208.588 162.127 184.107C155.737 176.575 115.461 171.482 115.461 171.482L113.344 185.932L135.439 188.815C135.439 188.815 123.629 188.982 113.344 209.529C105.517 225.166 95.6102 231.086 92.1055 235.906C91.1782 237.181 90.6928 239.659 92.1053 241.543C93.5177 243.426 94.9299 243.896 96.8097 243.823Z" fill="#292C6B"/>
<path d="M75.0048 168.101C74.8682 168.829 74.7317 169.557 74.5497 170.285C71.7509 181.275 73.2731 193.07 88.8101 201.544C99.9171 207.602 137.493 201.544 137.493 201.544C137.992 211.426 110.497 237.737 116.586 242.955C118.03 244.192 119.442 245.74 123.679 244.799C127.916 243.857 148.599 224.124 155.663 213.766C162.726 203.409 170.257 193.052 162.773 184.575C155.003 174.863 131.182 176.104 110.911 171.423C101.081 173.334 82.9461 169.83 75.0048 168.101Z" fill="#363983"/>
<path d="M151.492 131.706C149.28 132.042 145.06 132.008 145.877 129.18C146.085 128.46 146.187 127.53 146.226 126.481C146.162 122.11 147.919 114.535 149.451 112.515C150.982 110.495 149.961 116.05 149.961 117.565C149.961 119.08 153.535 114.535 157.619 114.535C161.703 114.535 163.745 114.535 162.213 118.07C160.682 121.605 156.4 124.382 155.733 125.519C152.906 128.158 151.492 131.33 151.492 131.706Z" fill="#E6836E"/>
<path d="M123.743 148.751C119.739 148.751 115.144 109.458 111.641 108.453C108.138 107.448 107.168 148.751 107.168 148.751C107.168 148.751 112.733 167.121 122.242 167.624C131.75 168.126 150.285 135.382 151.286 131.864C152.287 128.347 147.483 124.699 145.481 127.212C143.479 129.724 127.747 148.751 123.743 148.751Z" fill="#E6836E"/>
<path d="M76.6656 117.242C81.3208 108.067 91.5882 101.957 93.6079 99.7387C96.341 98.4238 102.075 98.7987 107.822 103.356C119.411 112.546 119.873 138.048 121.145 150.51C122.418 162.972 131.14 173.205 126.432 176.972C121.724 180.738 95.3524 185.403 87.4761 184.729C79.5999 184.055 78.7298 197.027 72.6096 188.706C66.4895 180.385 70.4493 129.494 76.6656 117.242Z" fill="#2F3176"/>
<path d="M107.848 106.119C108.412 108.449 110.803 116.489 107.881 116.503C105.857 114.18 94.0983 102.713 93.3475 102.147C92.5966 101.58 92.9272 99.9934 93.1853 98.2366C93.4433 96.4798 93.1789 92.0183 92.877 89.7695L106.549 95.4378C106.794 98.2213 107.397 104.254 107.848 106.119Z" fill="#E6836E"/>
<path d="M106.751 102.066C99.4045 102.849 93.8781 98.7951 92.0332 96.67C89.0225 96.1468 88.4046 94.313 88.093 91.3912C87.5877 88.2367 87.6229 82.365 87.7036 79.8235L113.071 72.2633C111.761 73.1769 109.37 76.7529 110.285 83.7475C111.429 92.4907 110.716 101.643 106.751 102.066Z" fill="#F4A392"/>
<path d="M111.455 80.8783C111.669 82.8818 110.852 84.4605 110.417 84.9994C110.569 80.0866 109.464 78.6984 108.892 78.6184C106.726 82.0577 100.347 82.2738 97.4276 81.9518C98.1705 86.9385 95.4267 88.9197 94.4277 89.4484C93.6285 89.8713 93.3137 91.5373 93.2562 92.3173C93.0058 91.2887 92.0369 89.1968 90.1647 89.0587C88.2925 88.9207 87.9876 90.4167 88.0692 91.1819C80.5538 84.047 83.8398 77.9132 86.4221 75.7381C86.2998 66.6749 99.0307 65.3171 105.133 69.0989C110.015 72.1243 114.938 70.6564 116.79 69.5443C117.814 72.8123 115.311 75.4715 113.932 76.3926C114.731 75.9696 116.074 76.0235 116.645 76.1032C116.543 78.3094 113.142 80.2058 111.455 80.8783Z" fill="#121334"/>
<path d="M148.953 163.601L139.364 164.767L137.056 159.698C137.595 159.495 138.968 158.724 140.144 157.264C141.614 155.439 146.266 151.946 149.135 151.186C152.004 150.425 151.006 152.651 150.172 152.752C149.338 152.853 145.778 154.886 146.293 155.647C146.809 156.407 153.183 153.163 157.428 156.762C161.674 160.361 151.871 163.246 148.953 163.601Z" fill="#F4A392"/>
<path d="M140.266 164.839C138.346 165.515 110.492 180.708 99.2505 176.578C93.4113 174.433 88.1856 164.321 84.5085 153.941C87.4 154.378 94.98 153.86 102.169 148.288C103.45 156.33 104.774 162.117 106.096 162.002C107.187 161.908 136.176 157.084 138.719 157.884C141.262 158.685 142.186 164.162 140.266 164.839Z" fill="#F4A392"/>
<path d="M95.7471 256.862C96.0443 257.159 96.0003 260 91.5003 260.5C87.0003 261 82.0002 250.41 82.0002 247.33C82.0002 245.16 84.9725 242 86.8302 242C88.6879 242 87.8755 249.058 88.6879 250.174C89.5003 251.289 95.3755 256.49 95.7471 256.862Z" fill="#2F3176"/>
<path d="M121.894 259.249C122.195 259.554 122.15 262.469 117.602 262.982C113.054 263.495 108 252.63 108 249.469C108 247.242 111.004 244 112.882 244C114.759 244 113.938 251.243 114.759 252.387C115.581 253.531 121.519 258.868 121.894 259.249Z" fill="#2F3176"/>
<rect width="3.11551" height="89.3113" rx="1.55776" transform="matrix(-1 0 0 1 82.2402 202.582)" fill="#4A4C96"/>
<rect width="3.11551" height="89.3113" rx="1.55776" transform="matrix(-1 0 0 1 112.359 202.582)" fill="#4A4C96"/>
<rect width="31.1551" height="3.11551" transform="matrix(-1 0 0 1 110.281 257)" fill="#4A4C96"/>
<rect width="52.9637" height="6.23102" rx="3.11551" transform="matrix(-1 0 0 1 120.664 199.467)" fill="#5659A5"/>
<defs>
<linearGradient id="tech0_linear" x1="163" y1="76.0067" x2="163.02" y2="77.9998" gradientUnits="userSpaceOnUse">
<stop stop-color="#A209D4"/>
<stop offset="1" stop-color="#D61382"/>
</linearGradient>
<linearGradient id="tech1_linear" x1="145" y1="88.0067" x2="145.043" y2="89.9991" gradientUnits="userSpaceOnUse">
<stop stop-color="#A209D4"/>
<stop offset="1" stop-color="#D61382"/>
</linearGradient>
</defs>
</svg>
