<svg width="352" height="340" viewBox="0 0 352 340" fill="none" xmlns="http://www.w3.org/2000/svg">
<path d="M351.67 172.165C357.514 329.809 284.879 343.572 201.39 339.401C117.901 335.231 13.5396 295.194 16.0442 172.165C18.5489 49.1354 98.2807 13.18 160.897 14.0141C223.514 14.8482 345.826 14.5201 351.67 172.165Z" fill="#191A44"/>
<path d="M120.625 182.93C118.433 186.045 115.61 190.581 112.743 195.998C115.167 193.723 118.933 191.282 123.336 191.239C131.097 191.164 130.426 199.742 123.336 202.075C117.192 204.096 111.513 203.575 109.953 201.539C107.839 205.966 105.805 210.786 104.096 215.776C103.998 216.062 103.901 216.35 103.804 216.638C103.684 216.997 103.565 217.356 103.448 217.716C105.156 215.464 107.798 212.561 110.486 211.255C114.977 209.073 120.798 211.105 119.529 215.545C118.261 219.984 112.514 223.37 108.484 223.521C105.362 223.638 102.868 223.69 101.902 222.771C100.377 228.119 99.1751 233.562 98.3535 239.057C99.8574 236.133 102.441 232.426 105.573 231.497C110.648 229.992 113.634 231.046 113.857 235.335C114.081 239.624 107.066 244.741 103.334 244.967C100.831 245.118 98.7273 245.072 97.6217 244.956C97.1967 249.279 97.0164 253.624 97.1078 257.97L95.6795 258C95.5456 251.63 95.9875 245.267 96.9212 238.976C95.9829 239.344 94.3104 239.356 91.7664 237.969C87.2139 235.486 84.6018 228.036 85.0496 224.048C85.4974 220.06 90.1992 218.705 93.3337 221.188C95.4627 222.875 97.0908 229.092 97.8967 233.311C98.9536 227.914 100.359 222.585 102.059 217.367C101.136 217.477 99.78 216.54 97.737 215.018C94.3039 212.459 92.3635 206.515 92.4381 202.376C92.5128 198.237 97.6623 193.722 101.469 198.538C103.909 201.626 104.37 207.27 104.253 211.16C106.321 205.763 108.701 200.648 111.071 196.108C107.641 197.454 103.7 187.31 103.633 182.36C103.558 176.867 109.902 172.201 113.26 176.791C115.55 179.92 114.931 186.452 114.082 190.618C116.173 186.992 118.143 183.943 119.752 181.689C119.633 178.054 120.506 171.63 124.903 168.063C131.023 163.096 136.545 164.15 134.605 171.373C132.82 178.018 124.152 182.944 120.625 182.93Z" fill="#121334"/>
<path d="M25.3752 180.93C27.5669 184.045 30.3897 188.581 33.2572 193.998C30.8333 191.723 27.0667 189.282 22.6644 189.239C14.9027 189.164 15.5744 197.742 22.6644 200.075C28.8081 202.096 34.4873 201.575 36.0466 199.539C38.1611 203.966 40.1946 208.786 41.9036 213.776C42.0015 214.062 42.0988 214.35 42.1955 214.638C42.3158 214.997 42.4346 215.356 42.5521 215.716C40.8442 213.464 38.202 210.561 35.5144 209.255C31.0231 207.073 25.2019 209.105 26.4706 213.545C27.7393 217.984 33.486 221.37 37.5161 221.521C40.6375 221.638 43.1322 221.69 44.0984 220.771C45.6235 226.119 46.8249 231.562 47.6465 237.057C46.1426 234.133 43.5595 230.426 40.4267 229.497C35.3518 227.992 32.3665 229.046 32.1426 233.335C31.9187 237.624 38.9341 242.741 42.6657 242.967C45.1694 243.118 47.2727 243.072 48.3783 242.956C48.8033 247.279 48.9836 251.624 48.8922 255.97L50.3205 256C50.4544 249.63 50.0125 243.267 49.0788 236.976C50.0171 237.344 51.6896 237.356 54.2336 235.969C58.7861 233.486 61.3982 226.036 60.9504 222.048C60.5026 218.06 55.8008 216.705 52.6663 219.188C50.5373 220.875 48.9092 227.092 48.1033 231.311C47.0464 225.914 45.6409 220.585 43.9411 215.367C44.8639 215.477 46.22 214.54 48.263 213.018C51.6961 210.459 53.6365 204.515 53.5619 200.376C53.4872 196.237 48.3377 191.722 44.5315 196.538C42.0915 199.626 41.6295 205.27 41.7473 209.16C39.6787 203.763 37.2993 198.648 34.9293 194.108C38.3587 195.454 42.2999 185.31 42.3671 180.36C42.4418 174.867 36.0981 170.201 32.7397 174.791C30.4504 177.92 31.069 184.452 31.9176 188.618C29.8271 184.992 27.8573 181.943 26.2476 179.689C26.3673 176.054 25.4936 169.63 21.0971 166.063C14.9773 161.096 9.45459 162.15 11.395 169.373C13.1799 176.018 21.8481 180.944 25.3752 180.93Z" fill="#121334"/>
<path d="M27.6004 129.124C31.8084 135.054 37.2281 143.685 42.7338 153.996C38.08 149.666 30.8481 145.02 22.3956 144.939C7.49319 144.796 8.78281 161.122 22.3956 165.562C34.1916 169.409 45.0957 168.417 48.0894 164.543C52.1494 172.967 56.0536 182.141 59.3348 191.639C59.5229 192.183 59.7098 192.73 59.8954 193.279C60.1263 193.961 60.3545 194.645 60.58 195.33C57.3008 191.045 52.2279 185.52 47.0677 183.034C38.4444 178.881 27.2676 182.748 29.7036 191.198C32.1395 199.648 43.1731 206.092 50.9109 206.379C56.904 206.601 61.6937 206.701 63.5489 204.952C66.477 215.129 68.7838 225.489 70.3613 235.947C67.4738 230.383 62.5142 223.328 56.4993 221.56C46.7554 218.695 41.0237 220.7 40.5938 228.864C40.1639 237.027 53.6334 246.766 60.7981 247.195C65.6052 247.484 69.6437 247.395 71.7662 247.175C72.5823 255.403 72.9285 263.672 72.753 271.943L75.4953 272C75.7525 259.877 74.9039 247.767 73.1113 235.793C74.9129 236.494 78.124 236.517 83.0084 233.876C91.7493 229.15 96.7645 214.972 95.9048 207.381C95.045 199.791 86.0176 197.213 79.9993 201.939C75.9116 205.149 72.7857 216.982 71.2383 225.011C69.2091 214.74 66.5105 204.598 63.2469 194.666C65.0187 194.875 67.6224 193.093 71.545 190.195C78.1365 185.326 81.8621 174.012 81.7188 166.135C81.5755 158.258 71.6883 149.665 64.3804 158.831C59.6956 164.707 58.8087 175.45 59.0348 182.853C55.063 172.581 50.4946 162.846 45.9443 154.205C52.5287 156.766 60.0958 137.461 60.2249 128.04C60.3682 117.585 48.1883 108.705 41.7401 117.442C37.3448 123.397 38.5324 135.829 40.1619 143.757C36.148 136.856 32.3659 131.052 29.2754 126.763C29.5052 119.845 27.8277 107.619 19.3865 100.829C7.63647 91.3764 -2.9672 93.3814 0.758415 107.13C4.18546 119.777 20.8283 129.152 27.6004 129.124Z" fill="#24255C"/>
</svg>
