<svg width="338" height="343" viewBox="0 0 338 343" fill="none" xmlns="http://www.w3.org/2000/svg">
<ellipse cx="171.172" cy="332.699" rx="137.583" ry="9.64864" fill="#0D0E26"/>
<g clip-path="url(#cliptech0)">
<path d="M187.28 12.5907C186.814 25.14 192.611 26.2356 199.274 25.9036C205.938 25.5716 214.267 22.3844 214.067 12.5907C213.867 2.79696 207.503 -0.0652751 202.506 0.00112328C197.509 0.0675217 187.747 0.0414017 187.28 12.5907Z" fill="#262865"/>
<path fill-rule="evenodd" clip-rule="evenodd" d="M201.094 4.3252C196.317 4.3252 192.443 8.29593 192.443 13.1946C192.443 17.1135 194.922 20.438 198.359 21.6109C198.791 21.6932 198.95 21.4185 198.95 21.1843C198.95 20.9728 198.942 20.2741 198.938 19.533C196.532 20.0695 196.024 18.4865 196.024 18.4865C195.63 17.4613 195.063 17.1887 195.063 17.1887C194.278 16.6382 195.122 16.6497 195.122 16.6497C195.991 16.7121 196.449 17.5637 196.449 17.5637C197.22 18.9193 198.472 18.5275 198.966 18.301C199.043 17.7277 199.268 17.3363 199.515 17.1148C197.594 16.8908 195.574 16.1302 195.574 12.7317C195.574 11.7633 195.912 10.9721 196.465 10.3508C196.375 10.1276 196.079 9.2255 196.549 8.0038C196.549 8.0038 197.275 7.76542 198.928 8.91295C199.618 8.71628 200.358 8.61744 201.094 8.61406C201.829 8.61744 202.569 8.71599 203.261 8.91265C204.912 7.76513 205.637 8.0035 205.637 8.0035C206.108 9.22505 205.812 10.1273 205.722 10.3505C206.277 10.9718 206.612 11.763 206.612 12.7314C206.612 16.138 204.589 16.8879 202.662 17.1076C202.973 17.3829 203.249 17.9228 203.249 18.7501C203.249 19.9369 203.239 20.892 203.239 21.1841C203.239 21.4201 203.395 21.6967 203.833 21.6096C207.268 20.4355 209.744 17.112 209.744 13.1946C209.744 8.29622 205.871 4.32534 201.094 4.32534V4.3252Z" fill="#9B9CEA"/>
</g>
<g clip-path="url(#cliptech1)">
<path d="M92.2215 14.4852C91.8153 25.3612 96.8643 26.3108 102.668 26.023C108.471 25.7353 115.726 22.9731 115.552 14.4852C115.378 5.99727 109.835 3.51667 105.483 3.57422C101.13 3.63176 92.6277 3.60912 92.2215 14.4852Z" fill="#262865"/>
<path d="M110.781 11.5635C110.78 11.2638 110.75 10.9648 110.69 10.6712C110.578 10.0684 110.279 9.51602 109.837 9.09175C109.612 8.87015 109.35 8.68972 109.063 8.5587C108.784 8.4195 108.486 8.32237 108.178 8.27046C107.874 8.21123 107.539 8.21123 107.235 8.18359H99.7247C99.4907 8.18782 99.2572 8.20761 99.0258 8.24282C98.7952 8.26967 98.5693 8.32813 98.3546 8.41656C98.2954 8.44419 98.2006 8.47578 98.1414 8.50342C97.9372 8.61101 97.7429 8.73654 97.561 8.87853C97.5017 8.93776 97.4386 8.9654 97.3793 9.02068C97.1523 9.22501 96.9637 9.4684 96.8226 9.7393C96.6722 10.0079 96.5694 10.3004 96.5185 10.604C96.4734 10.8984 96.4431 11.195 96.4277 11.4924V18.3747C96.4278 18.6744 96.4582 18.9734 96.5185 19.267C96.6306 19.8698 96.9289 20.4222 97.3714 20.8464C97.5939 21.0613 97.8517 21.2362 98.1335 21.3637C98.4125 21.5029 98.7105 21.6 99.018 21.6519C99.322 21.7112 99.6576 21.7112 99.9616 21.7388H107.251C107.567 21.7384 107.883 21.7094 108.194 21.6519C108.496 21.5998 108.789 21.504 109.063 21.3676C109.349 21.232 109.614 21.058 109.853 20.8504C110.077 20.6454 110.263 20.402 110.401 20.1318C110.552 19.8632 110.655 19.5706 110.706 19.267C110.751 18.9713 110.781 18.6735 110.796 18.3747V11.5635H110.781Z" fill="#F05138"/>
<path d="M106.023 18.6718C104.744 19.3707 102.987 19.4418 101.222 18.7271C99.8449 18.1731 98.666 17.2185 97.8379 15.9869C98.2238 16.2751 98.6443 16.5139 99.0896 16.6976C100.914 17.4873 102.742 17.4518 104.025 16.6976C102.331 15.4087 100.806 13.9124 99.4844 12.2437C99.2557 12.0015 99.052 11.737 98.8763 11.454C100.264 12.6196 101.74 13.6757 103.291 14.6128C102.161 13.4672 101.122 12.2355 100.183 10.9288C101.749 12.4307 103.47 13.7623 105.316 14.901L105.514 15.0116C105.567 14.8827 105.613 14.7509 105.652 14.6167C106.078 13.1479 105.593 11.4777 104.527 10.0957C106.994 11.5053 108.455 14.1548 107.847 16.3738C107.847 16.433 107.816 16.4923 107.796 16.5515L107.816 16.5752C109.036 18.0164 108.7 19.5405 108.546 19.2523C107.879 18.048 106.643 18.4191 106.023 18.6718Z" fill="#FEFEFE"/>
</g>
<g clip-path="url(#cliptech2)">
<path d="M66.9046 81.9077C67.1859 89.4595 63.6894 90.1188 59.6704 89.919C55.6514 89.7192 50.6277 87.8013 50.7482 81.9077C50.8688 76.0142 54.7069 74.2918 57.7212 74.3317C60.7354 74.3717 66.6232 74.356 66.9046 81.9077Z" fill="#262865"/>
<path d="M56.9291 83.8213C57.0889 83.8213 57.2323 83.7935 57.3592 83.7379C57.4862 83.68 57.5934 83.5989 57.6809 83.4947C57.7685 83.3904 57.8352 83.2642 57.8812 83.1159C57.9272 82.9676 57.9502 82.8009 57.9502 82.6155V79.6133H58.9351V82.6155C58.9351 82.9213 58.888 83.2028 58.7939 83.4599C58.702 83.7147 58.5695 83.9348 58.3966 84.1201C58.2237 84.3055 58.0136 84.4502 57.7663 84.5545C57.519 84.6587 57.2399 84.7108 56.9291 84.7108C56.6183 84.7108 56.3382 84.6587 56.0887 84.5545C55.8414 84.4502 55.6312 84.3055 55.4583 84.1201C55.2854 83.9348 55.1519 83.7147 55.0578 83.4599C54.9659 83.2028 54.9199 82.9213 54.9199 82.6155V79.6133H55.9048V82.6155C55.9048 82.8009 55.9278 82.9676 55.9738 83.1159C56.0197 83.2642 56.0865 83.3904 56.174 83.4947C56.2616 83.5989 56.3688 83.68 56.4958 83.7379C56.6227 83.7935 56.7672 83.8213 56.9291 83.8213Z" fill="#CB4B94"/>
<path d="M63.8407 84.6553H62.8558C62.7901 84.6553 62.7365 84.6379 62.6949 84.6031C62.6555 84.5684 62.6238 84.5278 62.5997 84.4815L61.5688 82.626C61.5579 82.6514 61.5469 82.6769 61.536 82.7024C61.5272 82.7256 61.5163 82.7476 61.5032 82.7684L60.5248 84.4815C60.4964 84.5255 60.4624 84.5661 60.423 84.6031C60.3858 84.6379 60.3377 84.6553 60.2786 84.6553H59.3593L60.9188 82.0596L59.4184 79.6133H60.4033C60.469 79.6133 60.5171 79.6225 60.5478 79.6411C60.5784 79.6596 60.6058 79.6897 60.6299 79.7314L61.6542 81.514C61.6651 81.4862 61.6772 81.4584 61.6903 81.4306C61.7034 81.4005 61.7187 81.3704 61.7362 81.3403L62.6555 79.7488C62.6818 79.7025 62.7102 79.6689 62.7408 79.648C62.7737 79.6249 62.8131 79.6133 62.859 79.6133H63.8013L62.2878 82.0144L63.8407 84.6553Z" fill="#CB4B94"/>
</g>
<g clip-path="url(#cliptech3)">
<path d="M16.111 72.5935C16.3915 80.1231 12.9053 80.7804 8.89808 80.5812C4.89089 80.382 -0.118092 78.4697 0.00212313 72.5935C0.122339 66.7172 3.94919 64.9999 6.95458 65.0397C9.95997 65.0796 15.8305 65.0639 16.111 72.5935Z" fill="#262865"/>
<path d="M7.58219 74.8477C7.77681 74.8477 7.95143 74.8157 8.10607 74.7518C8.2607 74.6851 8.39133 74.5918 8.49797 74.4718C8.60461 74.3519 8.68593 74.2066 8.74191 74.0359C8.7979 73.8653 8.8259 73.6734 8.8259 73.4601V70.0049H10.0256V73.4601C10.0256 73.812 9.96829 74.1359 9.85365 74.4318C9.74168 74.7251 9.58038 74.9784 9.36977 75.1917C9.15915 75.4049 8.90321 75.5716 8.60195 75.6915C8.30069 75.8115 7.96077 75.8715 7.58219 75.8715C7.20361 75.8715 6.86236 75.8115 6.55843 75.6915C6.25717 75.5716 6.00123 75.4049 5.79061 75.1917C5.57999 74.9784 5.41737 74.7251 5.30273 74.4318C5.19075 74.1359 5.13477 73.812 5.13477 73.4601V70.0049H6.33448V73.4601C6.33448 73.6734 6.36248 73.8653 6.41846 74.0359C6.47445 74.2066 6.55576 74.3519 6.66241 74.4718C6.76905 74.5918 6.89968 74.6851 7.05431 74.7518C7.20894 74.8157 7.3849 74.8477 7.58219 74.8477Z" fill="#12C8B1"/>
<path d="M12.374 75.8075H11.1663V70.0049H12.374V75.8075Z" fill="#12C8B1"/>
</g>
<g clip-path="url(#cliptech4)">
<path d="M169.162 45.3727C169.706 59.9648 162.949 61.2387 155.184 60.8527C147.418 60.4666 137.711 56.7607 137.944 45.3727C138.177 33.9847 145.593 30.6565 151.417 30.7337C157.242 30.8109 168.619 30.7806 169.162 45.3727Z" fill="#262865"/>
<path d="M153.511 46.8489C154.29 46.8489 154.922 46.2171 154.922 45.4376C154.922 44.6582 154.29 44.0264 153.511 44.0264C152.731 44.0264 152.1 44.6582 152.1 45.4376C152.1 46.2171 152.731 46.8489 153.511 46.8489Z" fill="#8CFDFF"/>
<path d="M158.87 43.1104C158.597 43.0114 158.313 42.9123 158.016 42.8257C158.09 42.5286 158.152 42.2314 158.201 41.9467C158.461 40.3126 158.176 39.1613 157.384 38.7157C157.149 38.5795 156.889 38.5176 156.592 38.5176C155.725 38.5176 154.624 39.1613 153.509 40.2383C152.395 39.1613 151.293 38.5176 150.427 38.5176C150.13 38.5176 149.87 38.5795 149.635 38.7157C148.842 39.1737 148.558 40.325 148.818 41.9467C148.867 42.2314 148.929 42.5286 149.003 42.8257C148.706 42.9123 148.421 42.999 148.149 43.1104C146.602 43.7046 145.76 44.5217 145.76 45.4378C145.76 46.3538 146.614 47.1709 148.149 47.7651C148.421 47.8641 148.706 47.9632 149.003 48.0498C148.929 48.3469 148.867 48.6441 148.818 48.9288C148.558 50.5629 148.842 51.7142 149.635 52.1599C149.87 52.296 150.13 52.3579 150.427 52.3579C151.306 52.3579 152.408 51.7142 153.509 50.6372C154.624 51.7142 155.725 52.3579 156.592 52.3579C156.889 52.3579 157.149 52.296 157.384 52.1599C158.176 51.7018 158.461 50.5505 158.201 48.9288C158.152 48.6441 158.09 48.3469 158.016 48.0498C158.313 47.9632 158.597 47.8765 158.87 47.7651C160.417 47.1709 161.259 46.3538 161.259 45.4378C161.259 44.5217 160.417 43.7046 158.87 43.1104ZM157.038 39.3346C157.545 39.6317 157.718 40.5478 157.508 41.8477C157.471 42.1077 157.409 42.38 157.335 42.6647C156.691 42.5162 156.01 42.4171 155.292 42.3552C154.871 41.761 154.438 41.2287 154.005 40.7459C154.921 39.8422 155.849 39.2232 156.604 39.2232C156.765 39.2232 156.914 39.2604 157.038 39.3346ZM155.651 46.6757C155.428 47.0719 155.168 47.468 154.896 47.8641C154.438 47.9013 153.98 47.9137 153.509 47.9137C153.027 47.9137 152.569 47.9013 152.123 47.8641C151.851 47.468 151.603 47.0719 151.38 46.6757C151.145 46.2672 150.922 45.8463 150.724 45.4378C150.922 45.0292 151.145 44.6083 151.38 44.1998C151.603 43.8037 151.863 43.4075 152.135 43.0114C152.593 42.9742 153.051 42.9618 153.522 42.9618C154.005 42.9618 154.463 42.9742 154.908 43.0114C155.181 43.4075 155.428 43.8037 155.651 44.1998C155.886 44.6083 156.109 45.0292 156.307 45.4378C156.097 45.8463 155.886 46.2548 155.651 46.6757ZM156.679 46.2672C156.864 46.7005 157.013 47.1214 157.149 47.5423C156.728 47.6413 156.282 47.7156 155.812 47.7775C155.961 47.5423 156.121 47.2947 156.258 47.0347C156.406 46.7747 156.542 46.5148 156.679 46.2672ZM153.509 49.622C153.212 49.3002 152.928 48.9535 152.655 48.5945C152.94 48.6069 153.225 48.6193 153.509 48.6193C153.794 48.6193 154.079 48.6069 154.364 48.5945C154.091 48.9535 153.806 49.3002 153.509 49.622ZM151.207 47.7651C150.736 47.7032 150.291 47.6289 149.87 47.5299C150.006 47.1214 150.155 46.6881 150.34 46.2548C150.476 46.5024 150.613 46.7624 150.761 47.01C150.91 47.2823 151.058 47.5175 151.207 47.7651ZM150.34 44.6083C150.155 44.175 150.006 43.7541 149.87 43.3332C150.291 43.2342 150.736 43.1599 151.207 43.098C151.058 43.3332 150.897 43.5808 150.761 43.8408C150.613 44.1008 150.476 44.3607 150.34 44.6083ZM153.509 41.2535C153.806 41.5753 154.091 41.922 154.364 42.281C154.079 42.2686 153.794 42.2562 153.509 42.2562C153.225 42.2562 152.94 42.2686 152.655 42.281C152.928 41.922 153.212 41.5753 153.509 41.2535ZM156.258 43.8532L155.812 43.1104C156.282 43.1723 156.728 43.2466 157.149 43.3456C157.013 43.7541 156.864 44.1874 156.679 44.6207C156.542 44.3607 156.406 44.1008 156.258 43.8532ZM149.511 41.8477C149.3 40.5478 149.474 39.6317 149.981 39.3346C150.105 39.2604 150.254 39.2232 150.414 39.2232C151.157 39.2232 152.086 39.8298 153.014 40.7459C152.581 41.2163 152.148 41.761 151.727 42.3552C151.009 42.4171 150.328 42.5286 149.684 42.6647C149.61 42.38 149.56 42.1077 149.511 41.8477ZM146.453 45.4378C146.453 44.8559 147.159 44.2369 148.397 43.7789C148.644 43.6799 148.917 43.5932 149.189 43.5189C149.387 44.1379 149.635 44.794 149.932 45.4501C149.635 46.1062 149.375 46.75 149.189 47.369C147.481 46.8738 146.453 46.131 146.453 45.4378ZM149.981 51.5409C149.474 51.2438 149.3 50.3277 149.511 49.0278C149.548 48.7679 149.61 48.4955 149.684 48.2108C150.328 48.3593 151.009 48.4584 151.727 48.5203C152.148 49.1145 152.581 49.6468 153.014 50.1296C152.098 51.0333 151.17 51.6523 150.414 51.6523C150.254 51.6523 150.105 51.6152 149.981 51.5409ZM157.508 49.0278C157.718 50.3277 157.545 51.2438 157.038 51.5409C156.914 51.6152 156.765 51.6523 156.604 51.6523C155.861 51.6523 154.933 51.0457 154.005 50.1296C154.438 49.6592 154.871 49.1145 155.292 48.5203C156.01 48.4584 156.691 48.3469 157.335 48.2108C157.409 48.4955 157.458 48.7679 157.508 49.0278ZM158.622 47.0966C158.375 47.1957 158.102 47.2823 157.83 47.3566C157.632 46.7376 157.384 46.0815 157.087 45.4254C157.384 44.7693 157.644 44.1255 157.83 43.5065C159.538 44.0017 160.566 44.7445 160.566 45.4378C160.566 46.0196 159.848 46.6386 158.622 47.0966Z" fill="#8CFDFF"/>
</g>
<path d="M177.735 156.19H112.096C114.344 156.19 121.538 148.098 121.538 143.602C121.538 139.106 124.235 133.712 128.282 133.712C132.328 133.712 172.79 133.262 177.735 133.712C182.679 134.161 185.833 138.657 186.282 144.502C186.732 150.346 184.029 156.19 177.735 156.19Z" fill="#272965"/>
<rect x="132.779" y="138.906" width="11.689" height="1.79831" rx="0.899157" fill="#575DDD"/>
<rect x="149.412" y="139.356" width="20.6806" height="0.899157" rx="0.449578" stroke="url(#painttech0_linear)" stroke-width="0.899157"/>
<rect x="132.779" y="144.301" width="8.09241" height="1.79831" rx="0.899157" fill="#6B3CC0"/>
<rect x="144.467" y="144.301" width="8.09241" height="1.79831" rx="0.899157" fill="#28B3B6"/>
<rect x="156.158" y="144.301" width="8.09241" height="1.79831" rx="0.899157" fill="#6B3CC0"/>
<rect x="133.229" y="150.145" width="8.99157" height="0.899157" rx="0.449578" stroke="url(#painttech1_linear)" stroke-width="0.899157"/>
<rect x="145.365" y="149.695" width="9.89072" height="1.79831" rx="0.899157" fill="#28B3B6"/>
<path d="M117.751 234.137C115.78 236.939 113.242 241.017 110.664 245.887C112.843 243.842 116.23 241.647 120.188 241.609C127.167 241.541 126.563 249.254 120.188 251.352C114.664 253.169 109.558 252.701 108.156 250.87C106.254 254.85 104.426 259.184 102.889 263.672C102.801 263.929 102.714 264.187 102.627 264.446C102.519 264.769 102.412 265.092 102.306 265.415C103.842 263.391 106.218 260.781 108.634 259.606C112.673 257.644 117.907 259.471 116.766 263.463C115.625 267.455 110.458 270.5 106.834 270.635C104.028 270.74 101.785 270.787 100.916 269.961C99.5447 274.769 98.4644 279.664 97.7256 284.605C99.0779 281.976 101.401 278.643 104.217 277.807C108.781 276.454 111.465 277.401 111.666 281.258C111.867 285.115 105.559 289.715 102.204 289.918C99.953 290.055 98.0617 290.013 97.0677 289.909C96.6855 293.796 96.5234 297.703 96.6056 301.61L95.3213 301.637C95.2009 295.91 95.5983 290.188 96.4378 284.532C95.5941 284.863 94.0903 284.874 91.8028 283.626C87.7094 281.393 85.3607 274.695 85.7633 271.109C86.166 267.523 90.3936 266.305 93.2121 268.538C95.1264 270.054 96.5903 275.645 97.3149 279.438C98.2652 274.585 99.529 269.794 101.057 265.102C100.228 265.2 99.0083 264.359 97.1713 262.99C94.0844 260.689 92.3397 255.344 92.4068 251.623C92.4739 247.901 97.1042 243.842 100.527 248.172C102.72 250.948 103.136 256.023 103.03 259.521C104.89 254.668 107.029 250.069 109.16 245.986C106.077 247.196 102.533 238.076 102.473 233.625C102.406 228.686 108.109 224.491 111.129 228.618C113.188 231.431 112.631 237.305 111.868 241.05C113.748 237.79 115.519 235.048 116.967 233.022C116.859 229.754 117.645 223.977 121.598 220.769C127.1 216.304 132.066 217.251 130.321 223.746C128.716 229.721 120.922 234.15 117.751 234.137Z" fill="#121334"/>
<path d="M22.2138 234.137C24.1845 236.939 26.7226 241.017 29.301 245.887C27.1215 243.842 23.7348 241.647 19.7764 241.609C12.7974 241.541 13.4013 249.254 19.7764 251.352C25.3006 253.169 30.4071 252.701 31.809 250.87C33.7104 254.85 35.5388 259.184 37.0754 263.672C37.1635 263.929 37.251 264.187 37.3379 264.446C37.446 264.769 37.5529 265.092 37.6585 265.415C36.1229 263.391 33.7471 260.781 31.3306 259.606C27.2922 257.644 22.058 259.471 23.1988 263.463C24.3395 267.455 29.5067 270.5 33.1304 270.635C35.937 270.74 38.1801 270.787 39.0489 269.961C40.4202 274.769 41.5005 279.664 42.2392 284.605C40.887 281.976 38.5643 278.643 35.7475 277.807C31.1843 276.454 28.5001 277.401 28.2988 281.258C28.0975 285.115 34.4054 289.715 37.7606 289.918C40.0119 290.055 41.9031 290.013 42.8972 289.909C43.2793 293.796 43.4415 297.703 43.3593 301.61L44.6435 301.637C44.7639 295.91 44.3666 290.188 43.5271 284.532C44.3708 284.863 45.8746 284.874 48.162 283.626C52.2554 281.393 54.6041 274.695 54.2015 271.109C53.7989 267.523 49.5712 266.305 46.7528 268.538C44.8385 270.054 43.3746 275.645 42.6499 279.438C41.6996 274.585 40.4359 269.794 38.9075 265.102C39.7372 265.2 40.9565 264.359 42.7936 262.99C45.8804 260.689 47.6252 255.344 47.5581 251.623C47.4909 247.901 42.8607 243.842 39.4383 248.172C37.2444 250.948 36.829 256.023 36.9349 259.521C35.0749 254.668 32.9354 250.069 30.8045 245.986C33.888 247.196 37.4318 238.076 37.4922 233.625C37.5593 228.686 31.8554 224.491 28.8356 228.618C26.7772 231.431 27.3334 237.305 28.0965 241.05C26.2168 237.79 24.4456 235.048 22.9982 233.022C23.1059 229.754 22.3203 223.977 18.3671 220.769C12.8645 216.304 7.89869 217.251 9.64343 223.746C11.2484 229.721 19.0424 234.15 22.2138 234.137Z" fill="#121334"/>
<path d="M45.8464 239.157C48.3688 242.711 51.6176 247.885 54.9179 254.065C52.1282 251.47 47.7932 248.685 42.7264 248.637C33.7933 248.551 34.5664 258.337 42.7264 260.999C49.7974 263.305 56.3337 262.71 58.1282 260.388C60.5619 265.438 62.9023 270.937 64.8692 276.63C64.9819 276.957 65.0939 277.284 65.2052 277.613C65.3436 278.022 65.4804 278.432 65.6156 278.843C63.6499 276.274 60.609 272.962 57.5158 271.472C52.3467 268.983 45.6469 271.301 47.1071 276.366C48.5673 281.431 55.1812 285.294 59.8195 285.466C63.4121 285.599 66.2832 285.659 67.3953 284.611C69.1505 290.711 70.5333 296.921 71.4788 303.19C69.748 299.855 66.775 295.626 63.1694 294.566C57.3286 292.849 53.8928 294.051 53.6351 298.944C53.3774 303.837 61.4515 309.675 65.7463 309.933C68.6278 310.106 71.0487 310.052 72.321 309.921C72.8102 314.853 73.0177 319.809 72.9125 324.767L74.5564 324.802C74.7105 317.534 74.2019 310.275 73.1273 303.098C74.2072 303.518 76.1321 303.532 79.06 301.949C84.2996 299.116 87.3059 290.617 86.7906 286.067C86.2752 281.517 80.8638 279.971 77.2562 282.804C74.8059 284.729 72.9321 291.822 72.0045 296.635C70.7882 290.478 69.1705 284.398 67.2142 278.445C68.2763 278.57 69.837 277.502 72.1884 275.765C76.1396 272.846 78.3729 266.064 78.287 261.342C78.2011 256.62 72.2743 251.47 67.8937 256.964C65.0854 260.486 64.5538 266.926 64.6893 271.363C62.3085 265.206 59.57 259.371 56.8424 254.191C60.7893 255.726 65.3253 244.154 65.4027 238.506C65.4886 232.239 58.1875 226.917 54.3223 232.153C51.6875 235.723 52.3994 243.175 53.3762 247.928C50.9701 243.791 48.703 240.312 46.8504 237.741C46.9882 233.594 45.9826 226.266 40.9226 222.195C33.8792 216.529 27.523 217.731 29.7563 225.972C31.8106 233.553 41.7869 239.173 45.8464 239.157Z" fill="#24255C"/>
<path d="M290.613 238.773C287.854 242.689 284.3 248.39 280.691 255.2C283.742 252.34 288.483 249.272 294.025 249.218C303.796 249.124 302.95 259.907 294.025 262.84C286.291 265.381 279.142 264.726 277.179 262.167C274.518 267.731 271.958 273.79 269.807 280.064C269.683 280.423 269.561 280.784 269.439 281.147C269.288 281.598 269.138 282.049 268.99 282.502C271.14 279.671 274.466 276.022 277.849 274.38C283.503 271.637 290.831 274.191 289.234 279.772C287.637 285.353 280.403 289.61 275.33 289.799C271.4 289.946 268.26 290.012 267.044 288.857C265.124 295.579 263.611 302.422 262.577 309.33C264.47 305.654 267.722 300.994 271.666 299.826C278.054 297.935 281.812 299.259 282.094 304.651C282.376 310.043 273.545 316.475 268.847 316.759C265.695 316.949 263.048 316.891 261.656 316.746C261.121 322.18 260.894 327.642 261.009 333.105L259.211 333.143C259.043 325.135 259.599 317.136 260.774 309.228C259.593 309.691 257.488 309.706 254.285 307.962C248.554 304.84 245.266 295.475 245.83 290.462C246.394 285.448 252.312 283.745 256.258 286.867C258.938 288.987 260.988 296.803 262.002 302.106C263.333 295.322 265.102 288.623 267.242 282.063C266.08 282.201 264.373 281.024 261.801 279.11C257.48 275.894 255.037 268.421 255.131 263.218C255.225 258.016 261.707 252.34 266.499 258.394C269.57 262.275 270.151 269.371 270.003 274.26C272.607 267.476 275.603 261.046 278.586 255.338C274.269 257.03 269.308 244.279 269.223 238.056C269.129 231.151 277.115 225.286 281.342 231.056C284.224 234.989 283.445 243.201 282.377 248.438C285.009 243.879 287.488 240.046 289.515 237.213C289.364 232.644 290.464 224.568 295.998 220.083C303.702 213.84 310.654 215.164 308.211 224.245C305.964 232.599 295.053 238.791 290.613 238.773Z" fill="#262865"/>
<path d="M209.823 261.704C208.549 263.513 206.909 266.144 205.242 269.288C206.651 267.968 208.84 266.551 211.398 266.526C215.908 266.483 215.518 271.461 211.398 272.815C207.828 273.988 204.528 273.685 203.622 272.504C202.393 275.072 201.211 277.869 200.218 280.766C200.161 280.932 200.105 281.098 200.048 281.266C199.979 281.474 199.909 281.682 199.841 281.891C200.834 280.584 202.369 278.9 203.931 278.142C206.541 276.876 209.923 278.055 209.186 280.631C208.449 283.207 205.11 285.172 202.768 285.26C200.954 285.327 199.504 285.358 198.943 284.825C198.056 287.928 197.358 291.087 196.881 294.275C197.755 292.579 199.256 290.428 201.076 289.888C204.025 289.015 205.76 289.626 205.89 292.115C206.02 294.604 201.944 297.574 199.775 297.705C198.32 297.793 197.098 297.766 196.456 297.699C196.209 300.207 196.104 302.729 196.157 305.25L195.327 305.268C195.249 301.572 195.506 297.879 196.049 294.228C195.503 294.442 194.531 294.449 193.053 293.644C190.408 292.203 188.89 287.88 189.15 285.565C189.41 283.251 192.142 282.465 193.964 283.906C195.201 284.885 196.147 288.493 196.615 290.941C197.23 287.809 198.046 284.717 199.034 281.688C198.498 281.752 197.71 281.209 196.523 280.325C194.528 278.841 193.4 275.391 193.443 272.989C193.487 270.588 196.479 267.967 198.691 270.762C200.109 272.554 200.377 275.829 200.309 278.086C201.511 274.955 202.894 271.986 204.271 269.352C202.278 270.133 199.988 264.246 199.949 261.374C199.905 258.186 203.592 255.479 205.543 258.142C206.874 259.958 206.514 263.749 206.021 266.166C207.236 264.062 208.38 262.292 209.316 260.984C209.246 258.875 209.754 255.147 212.309 253.077C215.865 250.195 219.074 250.806 217.947 254.998C216.909 258.854 211.872 261.713 209.823 261.704Z" fill="#24255C"/>
<path d="M159.71 261.704C160.984 263.513 162.624 266.144 164.291 269.288C162.882 267.968 160.693 266.551 158.135 266.526C153.625 266.483 154.015 271.461 158.135 272.815C161.705 273.988 165.006 273.685 165.912 272.504C167.14 275.072 168.322 277.869 169.315 280.766C169.372 280.932 169.429 281.098 169.485 281.266C169.555 281.474 169.624 281.682 169.692 281.891C168.7 280.584 167.164 278.9 165.602 278.142C162.992 276.876 159.61 278.055 160.347 280.631C161.084 283.207 164.424 285.172 166.766 285.26C168.579 285.327 170.029 285.358 170.591 284.825C171.477 287.928 172.175 291.087 172.652 294.275C171.778 292.579 170.277 290.428 168.457 289.888C165.508 289.015 163.773 289.626 163.643 292.115C163.513 294.604 167.59 297.574 169.758 297.705C171.213 297.793 172.435 297.766 173.078 297.699C173.325 300.207 173.429 302.729 173.376 305.25L174.206 305.268C174.284 301.572 174.027 297.879 173.485 294.228C174.03 294.442 175.002 294.449 176.48 293.644C179.126 292.203 180.644 287.88 180.383 285.565C180.123 283.251 177.391 282.465 175.569 283.906C174.332 284.885 173.386 288.493 172.918 290.941C172.304 287.809 171.487 284.717 170.499 281.688C171.035 281.752 171.823 281.209 173.011 280.325C175.006 278.841 176.133 275.391 176.09 272.989C176.046 270.588 173.054 267.967 170.842 270.762C169.424 272.554 169.156 275.829 169.224 278.086C168.022 274.955 166.64 271.986 165.262 269.352C167.255 270.133 169.545 264.246 169.585 261.374C169.628 258.186 165.942 255.479 163.99 258.142C162.66 259.958 163.019 263.749 163.512 266.166C162.297 264.062 161.153 262.292 160.217 260.984C160.287 258.875 159.779 255.147 157.224 253.077C153.668 250.195 150.459 250.806 151.587 254.998C152.624 258.854 157.661 261.713 159.71 261.704Z" fill="#24255C"/>
<rect width="2.74192" height="78.6018" rx="1.37096" transform="matrix(-1 0 0 1 232.172 254.146)" fill="#4A4C96"/>
<rect width="2.74192" height="78.6018" rx="1.37096" transform="matrix(-1 0 0 1 258.68 254.146)" fill="#4A4C96"/>
<rect width="27.4192" height="2.74192" transform="matrix(-1 0 0 1 256.852 309.899)" fill="#4A4C96"/>
<rect width="46.6127" height="5.48384" rx="2.74192" transform="matrix(-1 0 0 1 265.992 251.405)" fill="#5659A5"/>
<path d="M205.39 287.213C205.056 295.231 199.377 298.571 198.709 301.244C199.488 301.466 201.181 301.912 201.716 301.912C202.384 301.912 213.742 297.903 213.742 295.23C213.742 293.092 211.515 288.994 210.401 287.213C208.843 284.54 205.658 280.798 205.39 287.213Z" fill="#F4A392"/>
<path d="M232.214 303.215C232.882 295.532 228.873 288.849 228.539 287.179C229.764 285.286 232.414 282.235 233.216 285.174C234.218 288.849 239.563 291.522 240.9 291.856C242.236 292.19 238.895 299.205 238.895 300.208C238.895 301.21 231.546 310.898 232.214 303.215Z" fill="#F4A392"/>
<path d="M210.498 196.981C216.846 203.997 229.875 211.012 232.547 212.014V203.996C228.984 201.658 220.855 196.58 216.846 194.976C211.835 192.972 216.512 187.627 213.839 187.293C211.167 186.959 212.503 191.302 210.498 189.298C208.494 187.293 201.479 185.957 201.479 189.298C201.479 192.638 207.492 195.979 210.498 196.981Z" fill="#F4A392"/>
<path d="M210.858 284.173C210.857 291.189 207.183 289.518 203.174 289.518C198.051 278.605 187.807 254.307 187.807 244.418C187.807 232.058 210.858 229.719 218.541 227.715C226.225 225.71 248.942 221.033 250.612 224.04C252.282 227.046 245.267 244.418 235.245 244.418C225.223 244.418 204.176 242.413 203.842 249.095C203.508 255.776 210.858 277.157 210.858 284.173Z" fill="#292C6B"/>
<path d="M234.553 283.841C234.887 286.514 234.553 291.19 229.208 291.524C220.967 279.052 204.219 252.304 203.15 245.088C201.813 236.068 229.875 234.295 230.544 233.627C231.212 232.959 229.208 226.612 230.544 223.271C231.88 219.93 262.28 221.601 264.619 225.609C266.957 229.618 267.769 241.358 260.753 247.705C253.738 254.052 224.196 252.104 220.188 252.104C216.179 252.104 234.219 281.168 234.553 283.841Z" fill="#363983"/>
<path d="M199.299 299.542C196.96 299.542 193.285 303.884 192.617 305.889C195.29 308.896 206.314 304.887 207.984 301.546C209.655 298.205 212.327 298.539 213.998 298.539C215.668 298.539 215.334 290.187 212.995 294.196C210.657 298.205 201.637 299.542 199.299 299.542Z" fill="#2F3176"/>
<path d="M231.883 304.552C231.615 304.82 230.212 310.677 229.544 313.572C236.226 314.908 240.234 304.552 240.234 301.212C240.234 297.871 244.243 295.866 244.243 295.532C244.243 295.198 241.571 291.189 239.9 291.189C238.23 291.189 238.23 296.869 238.23 298.539C238.23 300.209 232.217 304.218 231.883 304.552Z" fill="#2F3176"/>
<path d="M261.277 197.316C257.268 197.317 264.618 224.297 265.286 228.307C254.484 228.084 232.48 227.438 230.876 226.636C228.872 225.634 229.206 211.681 229.206 204.331C229.206 196.982 226.533 198.318 226.533 188.964C226.533 181.481 236.778 172.929 241.901 169.588C239.896 172.26 240.564 176.603 246.244 176.937C251.923 177.272 257.268 170.924 258.27 170.59C259.272 170.256 261.277 171.926 268.292 181.28C273.905 188.763 275.976 201.547 276.31 207.004C272.568 203.797 267.401 204.999 265.286 206.001C265.286 203.106 264.484 197.316 261.277 197.316Z" fill="#2F3176"/>
<path d="M241.233 195.98C240.899 192.974 241.901 193.641 243.238 194.644C244.306 195.713 245.465 199.321 245.91 200.991C252.057 202.677 261.389 206.593 265.286 208.34L264.952 205.668C271.099 204.332 275.309 206.225 276.645 207.338C277.09 211.013 276.979 218.83 272.97 220.701C263.883 222.839 249.362 211.57 243.238 205.668C242.458 205.779 240.098 205.935 236.891 205.668C232.882 205.334 230.877 202.327 232.548 200.323C234.218 198.318 239.563 198.986 240.565 198.986C241.567 198.986 241.567 198.986 241.233 195.98Z" fill="#F4A392"/>
<path d="M248.735 138.066C255.243 138.618 260.124 146.068 261.479 156.278C262.657 165.145 267.841 182.152 254.429 187.46C249.277 187.46 252.532 177.802 251.176 175.319C249.82 172.835 247.651 174.215 244.939 174.215C242.228 174.215 241.957 177.526 241.414 182.217C240.872 186.908 235.72 186.081 236.805 180.838C237.89 175.594 235.178 165.66 233.551 160.693C231.924 155.726 233.551 156.278 235.178 148.552C236.805 140.825 242.228 137.514 248.735 138.066Z" fill="#0D0D26"/>
<path fill-rule="evenodd" clip-rule="evenodd" d="M241.708 168.836C241.331 170.796 240.902 173.023 240.902 175.267C242.466 176.57 247.078 177.263 250.3 176.079C250.136 174.152 249.896 171.239 249.686 168.536C249.657 168.155 249.628 167.778 249.6 167.409C249.548 166.53 249.526 165.67 249.507 164.895C249.472 163.501 249.444 162.379 249.254 161.904C248.72 160.568 249.031 157.116 249.254 155.557C242.907 155.223 241.905 161.236 242.239 164.243C242.368 165.405 242.06 167.004 241.708 168.836Z" fill="#E6836E"/>
<path d="M241.666 167.976C233.59 165.113 236.707 151 239.275 144.301C241.134 149.257 246.713 151.183 249.104 153.66C249.962 154.549 251.76 162.504 251.76 163.846C251.495 165.773 248.307 170.178 241.666 167.976Z" fill="#F4A392"/>
<path d="M238.242 107.636V134.16C235.095 127.416 220.709 123.371 208.12 123.371C195.532 123.371 177.999 123.821 164.062 123.371C150.125 122.921 142.656 118.675 142.656 107.636C142.656 96.5965 148.327 90.5514 159.566 90.5514C170.805 90.5514 202.276 90.1018 217.112 90.5514C231.948 91.001 238.242 95.9467 238.242 107.636Z" fill="#272965"/>
<rect width="16.1848" height="1.79831" rx="0.899157" transform="matrix(-1 0 0 1 229.877 99.3438)" fill="#575DDD"/>
<rect width="9.89072" height="1.79831" rx="0.899157" transform="matrix(-1 0 0 1 211.891 99.3438)" fill="#28B3B6"/>
<rect width="9.89072" height="1.79831" rx="0.899157" transform="matrix(-1 0 0 1 196.607 99.3438)" fill="#6B3CC0"/>
<rect width="14.3865" height="1.79831" rx="0.899157" transform="matrix(-1 0 0 1 229.877 105.638)" fill="#28B3B6"/>
<rect width="14.3865" height="1.79831" rx="0.899157" transform="matrix(-1 0 0 1 208.295 105.638)" fill="#6B3CC0"/>
<rect width="8.99157" height="1.79831" rx="0.899157" transform="matrix(-1 0 0 1 186.715 105.638)" fill="#28B3B6"/>
<rect width="13.4873" height="1.79831" rx="0.899157" transform="matrix(-1 0 0 1 172.328 105.638)" fill="#575DDD"/>
<rect width="25.1764" height="1.79831" rx="0.899157" transform="matrix(-1 0 0 1 229.877 111.933)" fill="#B60DB5"/>
<rect width="18.8823" height="1.79831" rx="0.899157" transform="matrix(-1 0 0 1 202.898 111.933)" fill="#575DDD"/>
<rect width="8.99157" height="1.79831" rx="0.899157" transform="matrix(-1 0 0 1 179.521 111.933)" fill="#6B3CC0"/>
<path d="M84.7962 294.107C85.5508 291.99 93.1656 287.316 94.7869 286.802C94.1501 282.8 91.9698 275.879 88.3435 280.211C83.8105 285.626 80.2573 286.91 79.352 290.085C78.4466 293.26 82.2564 302.996 84.0417 302.948C85.827 302.899 84.0417 296.223 84.7962 294.107Z" fill="#F4A392"/>
<path d="M109.345 294.105C110.1 291.988 117.714 287.314 119.336 286.8C118.699 282.798 116.519 275.877 112.892 280.209C108.359 285.624 104.806 286.908 103.901 290.083C102.995 293.258 106.805 302.994 108.591 302.946C110.376 302.897 108.591 296.221 109.345 294.105Z" fill="#F4A392"/>
<path d="M89.4471 289.808C91.1373 289.742 164.686 258.125 148.177 236.113C142.432 229.34 106.217 224.762 106.217 224.762L104.314 237.754L124.181 240.346C124.181 240.346 113.562 240.497 104.314 258.972C97.2764 273.032 88.3686 278.355 85.2173 282.688C84.3835 283.835 83.9471 286.063 85.217 287.757C86.487 289.45 87.7568 289.873 89.4471 289.808Z" fill="#292C6B"/>
<path d="M69.8422 221.721C69.7194 222.375 69.5967 223.03 69.433 223.685C66.9164 233.567 68.2852 244.172 82.2554 251.792C92.2423 257.239 126.029 251.792 126.029 251.792C126.478 260.677 101.755 284.335 107.23 289.026C108.528 290.139 109.798 291.531 113.608 290.684C117.418 289.838 136.015 272.094 142.366 262.781C148.718 253.469 155.489 244.156 148.76 236.534C141.773 227.801 120.355 228.917 102.128 224.708C93.2892 226.426 76.9827 223.276 69.8422 221.721Z" fill="#363983"/>
<path d="M138.619 188.996C136.63 189.299 132.835 189.268 133.57 186.725C133.757 186.078 133.848 185.242 133.884 184.298C133.826 180.368 135.406 173.557 136.783 171.74C138.16 169.924 137.242 174.919 137.242 176.281C137.242 177.643 140.455 173.557 144.127 173.557C147.799 173.557 149.635 173.557 148.258 176.735C146.881 179.914 143.031 182.411 142.432 183.433C139.89 185.806 138.619 188.658 138.619 188.996Z" fill="#E6836E"/>
<path d="M113.665 204.323C110.065 204.323 105.934 168.992 102.784 168.088C99.6336 167.185 98.7617 204.323 98.7617 204.323C98.7617 204.323 103.765 220.841 112.315 221.293C120.865 221.745 137.531 192.302 138.431 189.139C139.331 185.976 135.011 182.697 133.211 184.956C131.411 187.215 117.265 204.323 113.665 204.323Z" fill="#E6836E"/>
<path d="M71.3365 175.992C75.5222 167.742 84.7543 162.248 86.5703 160.253C89.0278 159.071 94.1836 159.408 99.3509 163.506C109.771 171.769 110.187 194.699 111.331 205.905C112.475 217.11 120.318 226.311 116.085 229.698C111.852 233.084 88.1389 237.279 81.0569 236.673C73.9749 236.067 73.1926 247.73 67.6896 240.249C62.1866 232.767 65.7471 187.008 71.3365 175.992Z" fill="#2F3176"/>
<path d="M99.3716 165.99C99.8784 168.085 102.028 175.314 99.4015 175.327C97.5815 173.237 87.0084 162.927 86.3332 162.418C85.658 161.909 85.9553 160.482 86.1874 158.902C86.4194 157.323 86.1817 153.311 85.9102 151.289L98.2033 156.386C98.4238 158.888 98.9662 164.313 99.3716 165.99Z" fill="#E6836E"/>
<path d="M98.3869 162.346C91.7814 163.051 86.8123 159.405 85.1534 157.494C82.4463 157.024 81.8908 155.375 81.6106 152.748C81.1562 149.912 81.1878 144.632 81.2604 142.347L104.069 135.549C102.892 136.37 100.742 139.586 101.565 145.875C102.593 153.737 101.952 161.966 98.3869 162.346Z" fill="#F4A392"/>
<path d="M102.619 143.294C102.812 145.096 102.077 146.515 101.686 147C101.822 142.582 100.829 141.334 100.315 141.262C98.3673 144.355 92.631 144.549 90.0064 144.26C90.6743 148.743 88.2073 150.525 87.309 151C86.5904 151.38 86.3073 152.878 86.2556 153.58C86.0304 152.655 85.1592 150.774 83.4758 150.65C81.7924 150.526 81.5183 151.871 81.5917 152.559C74.8342 146.143 77.7887 140.628 80.1107 138.672C80.0007 130.523 91.4478 129.302 96.9348 132.703C101.324 135.423 105.751 134.103 107.416 133.103C108.337 136.042 106.087 138.433 104.846 139.261C105.565 138.881 106.772 138.929 107.286 139.001C107.194 140.984 104.136 142.69 102.619 143.294Z" fill="#0D0D26"/>
<path d="M136.333 217.676L127.712 218.724L125.636 214.166C126.121 213.984 127.355 213.291 128.413 211.978C129.735 210.337 133.918 207.197 136.497 206.513C139.077 205.829 138.179 207.83 137.429 207.921C136.68 208.012 133.478 209.84 133.942 210.524C134.405 211.208 140.137 208.29 143.954 211.527C147.771 214.763 138.957 217.357 136.333 217.676Z" fill="#F4A392"/>
<path d="M128.522 218.788C126.795 219.396 101.75 233.057 91.6422 229.343C86.3919 227.414 81.6931 218.323 78.3868 208.989C80.9867 209.382 87.8024 208.916 94.266 203.906C95.4185 211.137 96.6085 216.34 97.7969 216.237C98.7786 216.152 124.844 211.815 127.131 212.535C129.417 213.255 130.248 218.18 128.522 218.788Z" fill="#F4A392"/>
<path d="M88.492 301.53C88.7593 301.797 88.7197 304.352 84.6735 304.801C80.6272 305.251 76.1314 295.729 76.1314 292.959C76.1314 291.008 78.8039 288.167 80.4743 288.167C82.1447 288.167 81.4142 294.514 82.1447 295.517C82.8751 296.519 88.1579 301.196 88.492 301.53Z" fill="#2F3176"/>
<path d="M112.003 303.677C112.273 303.951 112.233 306.573 108.143 307.034C104.054 307.495 99.5095 297.725 99.5095 294.883C99.5095 292.881 102.211 289.966 103.899 289.966C105.587 289.966 104.849 296.478 105.587 297.507C106.326 298.536 111.665 303.334 112.003 303.677Z" fill="#2F3176"/>
<rect width="2.80133" height="80.3049" rx="1.40067" transform="matrix(-1 0 0 1 76.3477 252.726)" fill="#4A4C96"/>
<rect width="2.80133" height="80.3049" rx="1.40067" transform="matrix(-1 0 0 1 103.428 252.726)" fill="#4A4C96"/>
<rect width="28.0133" height="2.80133" transform="matrix(-1 0 0 1 101.561 301.655)" fill="#4A4C96"/>
<rect width="47.6227" height="5.60267" rx="2.80133" transform="matrix(-1 0 0 1 110.896 249.925)" fill="#5659A5"/>
<g clip-path="url(#cliptech5)">
<path d="M280.914 61.692C280.324 77.5903 287.654 78.9783 296.078 78.5577C304.503 78.1371 315.033 74.0994 314.781 61.692C314.528 49.2846 306.483 45.6585 300.164 45.7426C293.846 45.8268 281.504 45.7937 280.914 61.692Z" fill="#262865"/>
<path fill-rule="evenodd" clip-rule="evenodd" d="M299.799 58.3461H302.518V61.1135H303.89C304.515 61.1135 305.165 60.9932 305.767 60.8006C306.055 60.7044 306.392 60.56 306.681 60.3916C306.296 59.8862 306.104 59.2605 306.055 58.6349C305.983 57.7926 306.152 56.6857 306.729 56.0359L307.018 55.699L307.355 55.9637C308.221 56.6616 308.919 57.6001 309.063 58.7071C310.098 58.3942 311.301 58.4664 312.216 58.9958L312.577 59.2124L312.384 59.5974C311.614 61.0894 310.002 61.5707 308.438 61.4744C306.08 67.3221 300.978 70.0894 294.769 70.0894C291.569 70.0894 288.633 68.8862 286.948 66.0467L286.924 65.9985L286.684 65.4932C286.106 64.2418 285.938 62.8702 286.058 61.4985L286.106 61.0894H288.416V58.3461H291.136V55.6509H296.55V52.9316H299.799V58.3461Z" fill="#3A4D54"/>
<path d="M308.602 59.3814C308.795 57.9616 307.736 56.8546 307.062 56.3252C306.316 57.1915 306.196 59.5017 307.375 60.4642C306.701 61.0418 305.33 61.5953 303.886 61.5953H286.511C286.367 63.0872 286.632 64.4589 287.233 65.6381L287.426 65.999C287.546 66.2156 287.69 66.4081 287.835 66.6247C288.557 66.6728 289.206 66.6969 289.808 66.6728C290.987 66.6488 291.95 66.5044 292.696 66.2637C292.816 66.2156 292.912 66.2878 292.961 66.3841C293.009 66.5044 292.936 66.6006 292.84 66.6488C292.744 66.6728 292.648 66.721 292.527 66.745C291.95 66.9135 291.324 67.0097 290.53 67.0578H290.386C290.073 67.0819 289.736 67.0819 289.375 67.0819C288.99 67.0819 288.629 67.0819 288.196 67.0578C289.64 68.6942 291.902 69.6568 294.741 69.6568C300.757 69.6568 305.859 66.9857 308.097 61.0177C309.709 61.1862 311.249 60.7771 311.947 59.4054C310.864 58.7557 309.42 58.9723 308.602 59.3814Z" fill="#00AADA"/>
<path d="M308.604 59.3814C308.797 57.9616 307.738 56.8546 307.064 56.3252C306.318 57.1915 306.198 59.5017 307.377 60.4642C306.703 61.0418 305.331 61.5953 303.888 61.5953H287.524C287.452 63.8814 288.294 65.614 289.81 66.6488C290.989 66.6247 291.952 66.4803 292.698 66.2397C292.818 66.1915 292.914 66.2637 292.962 66.36C293.01 66.4803 292.938 66.5766 292.842 66.6247C292.746 66.6488 292.65 66.6969 292.529 66.7209C291.952 66.8894 291.278 67.0097 290.484 67.0578L290.46 67.0338C292.505 68.0926 295.465 68.0685 298.882 66.7691C302.684 65.3012 306.246 62.5097 308.724 59.3332C308.676 59.3573 308.628 59.3573 308.604 59.3814Z" fill="#28B8EB"/>
<path d="M286.537 63.3994C286.633 64.1935 286.874 64.9395 287.235 65.6374L287.427 65.9984C287.548 66.2149 287.692 66.4074 287.837 66.624C288.559 66.6722 289.208 66.6962 289.81 66.6722C290.989 66.6481 291.952 66.5037 292.698 66.2631C292.818 66.2149 292.914 66.2871 292.962 66.3834C293.01 66.5037 292.938 66.6 292.842 66.6481C292.746 66.6722 292.649 66.7203 292.529 66.7443C291.952 66.9128 291.278 67.0331 290.484 67.0812H290.387C290.075 67.1053 289.738 67.1053 289.401 67.1053C289.016 67.1053 288.631 67.1053 288.222 67.0812C289.665 68.7176 291.952 69.6802 294.791 69.6802C299.941 69.6802 304.417 67.731 307.016 63.4235H286.537V63.3994Z" fill="#028BB8"/>
<path d="M287.693 63.3994C288.006 64.7951 288.728 65.9021 289.811 66.6481C290.99 66.624 291.953 66.4796 292.699 66.239C292.819 66.1909 292.915 66.2631 292.963 66.3593C293.012 66.4796 292.939 66.5759 292.843 66.624C292.747 66.6481 292.651 66.6962 292.53 66.7203C291.953 66.8887 291.279 67.0091 290.461 67.0572C292.506 68.116 295.466 68.0919 298.859 66.7925C300.905 65.9984 302.902 64.8192 304.683 63.3994H287.693Z" fill="#019BC6"/>
<path fill-rule="evenodd" clip-rule="evenodd" d="M288.873 58.8026H291.231V61.1609H288.873V58.8026ZM289.066 58.9951H289.258V60.9443H289.066V58.9951ZM289.402 58.9951H289.595V60.9443H289.402V58.9951ZM289.763 58.9951H289.956V60.9443H289.763V58.9951ZM290.124 58.9951H290.317V60.9443H290.124V58.9951ZM290.485 58.9951H290.678V60.9443H290.485V58.9951ZM290.846 58.9951H291.039V60.9443H290.846V58.9951ZM291.568 56.1074H293.927V58.4657H291.568V56.1074ZM291.785 56.2999H291.977V58.2491H291.785V56.2999ZM292.122 56.2999H292.314V58.2491H292.122V56.2999ZM292.483 56.2999H292.675V58.2491H292.483V56.2999ZM292.844 56.2999H293.036V58.2491H292.844V56.2999ZM293.181 56.2999H293.373V58.2491H293.181V56.2999ZM293.542 56.2999H293.734V58.2491H293.542V56.2999Z" fill="#00ACD3"/>
<path fill-rule="evenodd" clip-rule="evenodd" d="M291.566 58.8037H293.925V61.162H291.566V58.8037ZM291.783 58.9962H291.975V60.9454H291.783V58.9962ZM292.12 58.9962H292.312V60.9454H292.12V58.9962ZM292.481 58.9962H292.673V60.9454H292.481V58.9962ZM292.842 58.9962H293.034V60.9454H292.842V58.9962ZM293.179 58.9962H293.371V60.9454H293.179V58.9962ZM293.54 58.9962H293.732V60.9454H293.54V58.9962Z" fill="#23C2EE"/>
<path fill-rule="evenodd" clip-rule="evenodd" d="M294.285 58.8037H296.643V61.162H294.285V58.8037ZM294.478 58.9962H294.67V60.9454H294.478V58.9962ZM294.839 58.9962H295.031V60.9454H294.839V58.9962ZM295.2 58.9962H295.392V60.9454H295.2V58.9962ZM295.536 58.9962H295.729V60.9454H295.536V58.9962ZM295.897 58.9962H296.09V60.9454H295.897V58.9962ZM296.258 58.9962H296.451V60.9454H296.258V58.9962Z" fill="#00ACD3"/>
<path fill-rule="evenodd" clip-rule="evenodd" d="M294.285 56.1074H296.643V58.4657H294.285V56.1074ZM294.478 56.2999H294.67V58.2491H294.478V56.2999ZM294.839 56.2999H295.031V58.2491H294.839V56.2999ZM295.2 56.2999H295.392V58.2491H295.2V56.2999ZM295.536 56.2999H295.729V58.2491H295.536V56.2999ZM295.897 56.2999H296.09V58.2491H295.897V56.2999ZM296.258 56.2999H296.451V58.2491H296.258V56.2999ZM297.004 58.8026H299.363V61.1609H297.004V58.8026ZM297.197 58.9951H297.389V60.9443H297.197V58.9951ZM297.558 58.9951H297.75V60.9443H297.558V58.9951ZM297.895 58.9951H298.087V60.9443H297.895V58.9951ZM298.256 58.9951H298.448V60.9443H298.256V58.9951ZM298.617 58.9951H298.809V60.9443H298.617V58.9951ZM298.978 58.9951H299.17V60.9443H298.978V58.9951Z" fill="#23C2EE"/>
<path fill-rule="evenodd" clip-rule="evenodd" d="M297.004 56.1074H299.362V58.4657H297.004V56.1074ZM297.196 56.2999H297.389V58.2491H297.196V56.2999ZM297.557 56.2999H297.75V58.2491H297.557V56.2999ZM297.894 56.2999H298.087V58.2491H297.894V56.2999ZM298.255 56.2999H298.448V58.2491H298.255V56.2999ZM298.616 56.2999H298.809V58.2491H298.616V56.2999ZM298.977 56.2999H299.17V58.2491H298.977V56.2999Z" fill="#00ACD3"/>
<path fill-rule="evenodd" clip-rule="evenodd" d="M297.004 53.3896H299.362V55.7479H297.004V53.3896ZM297.196 53.5822H297.389V55.5314H297.196V53.5822ZM297.557 53.5822H297.75V55.5314H297.557V53.5822ZM297.894 53.5822H298.087V55.5314H297.894V53.5822ZM298.255 53.5822H298.448V55.5314H298.255V53.5822ZM298.616 53.5822H298.809V55.5314H298.616V53.5822ZM298.977 53.5822H299.17V55.5314H298.977V53.5822Z" fill="#23C2EE"/>
<path fill-rule="evenodd" clip-rule="evenodd" d="M299.725 58.8037H302.083V61.162H299.725V58.8037ZM299.917 58.9962H300.11V60.9454H299.917V58.9962ZM300.254 58.9962H300.447V60.9454H300.254V58.9962ZM300.615 58.9962H300.808V60.9454H300.615V58.9962ZM300.976 58.9962H301.168V60.9454H300.976V58.9962ZM301.337 58.9962H301.529V60.9454H301.337V58.9962ZM301.698 58.9962H301.89V60.9454H301.698V58.9962Z" fill="#00ACD3"/>
<path fill-rule="evenodd" clip-rule="evenodd" d="M293.781 64.9639C294.142 64.9639 294.43 65.2526 294.43 65.6136C294.43 65.9746 294.142 66.2633 293.781 66.2633C293.42 66.2633 293.131 65.9746 293.131 65.6136C293.131 65.2526 293.42 64.9639 293.781 64.9639Z" fill="#D4EEF1"/>
<path fill-rule="evenodd" clip-rule="evenodd" d="M293.782 65.1555C293.83 65.1555 293.902 65.1555 293.95 65.1796C293.902 65.2036 293.854 65.2758 293.854 65.348C293.854 65.4443 293.95 65.5405 294.047 65.5405C294.119 65.5405 294.191 65.4924 294.215 65.4443C294.239 65.4924 294.239 65.5646 294.239 65.6127C294.239 65.8774 294.023 66.0699 293.782 66.0699C293.517 66.0699 293.325 65.8534 293.325 65.6127C293.325 65.3721 293.517 65.1555 293.782 65.1555ZM286.311 63.6395H306.859L307.372 63.2468C306.686 63.1503 306.097 62.9327 305.814 62.6769C304.996 63.856 300.279 63.3988 299.966 62.4844C298.956 63.6876 295.803 63.6876 294.793 62.4844C294.456 63.3988 289.739 63.856 288.945 62.6769C288.533 63.0612 287.417 63.3594 286.311 63.2902V63.6395Z" fill="#3A4D54"/>
<path d="M295.512 69.6565C293.9 68.8865 293.033 67.8517 292.528 66.7207C291.927 66.8892 291.205 67.0095 290.386 67.0576C290.074 67.0817 289.737 67.0817 289.4 67.0817C288.991 67.0817 288.582 67.0817 288.148 67.0576C289.592 68.5015 291.421 69.6325 294.766 69.6565H295.512Z" fill="#BFDBE0"/>
<path d="M293.13 67.7555C292.913 67.4426 292.697 67.0817 292.528 66.7207C291.927 66.8892 291.205 67.0095 290.387 67.0576C290.94 67.3464 291.758 67.6351 293.13 67.7555Z" fill="#D4EEF1"/>
</g>
<g clip-path="url(#cliptech6)">
<path d="M66.487 126.226C66.8482 135.922 62.3589 136.769 57.1986 136.512C52.0384 136.256 45.5882 133.793 45.743 126.226C45.8978 118.659 50.8258 116.448 54.6959 116.499C58.5661 116.55 66.1258 116.53 66.487 126.226Z" fill="#262865"/>
<path d="M52.5059 121.721L54.6692 121.722L56.0834 124.069L57.4926 121.722L59.6541 121.721L56.0942 127.896L52.5059 121.721Z" fill="#35495E"/>
<path d="M50.1445 121.737L52.502 121.721L56.0902 127.896L59.6502 121.721L62.0119 121.724L56.0898 131.887L50.1445 121.737Z" fill="#41B883"/>
</g>
<g clip-path="url(#cliptech7)">
<path d="M72.5305 38.4923C73.084 53.3506 66.2045 54.6478 58.2971 54.2547C50.3896 53.8616 40.5052 50.088 40.7425 38.4923C40.9797 26.8965 48.5313 23.5077 54.4619 23.5863C60.3925 23.6649 71.977 23.634 72.5305 38.4923Z" fill="#262865"/>
<g clip-path="url(#cliptech8)">
<path d="M53.2092 43.8797C53.2092 43.8797 52.3071 44.4047 53.852 44.5818C55.7238 44.7956 56.6804 44.765 58.7426 44.3751C58.7426 44.3751 59.2858 44.7148 60.0431 45.0092C55.4186 46.9905 49.5773 44.8944 53.2092 43.8797ZM52.6438 41.2939C52.6438 41.2939 51.6318 42.0431 53.1779 42.2032C55.1775 42.4096 56.7562 42.4265 59.4895 41.9004C59.4895 41.9004 59.8666 42.2836 60.4606 42.4929C54.8704 44.1278 48.644 42.6216 52.6438 41.2939Z" fill="#7579FF"/>
<path d="M57.4061 36.9066C58.5462 38.2189 57.1071 39.3988 57.1071 39.3988C57.1071 39.3988 60.0002 37.9056 58.6719 36.0349C57.4307 34.2911 56.4793 33.425 61.6304 30.4375C61.6304 30.4377 53.5445 32.4566 57.4061 36.9066Z" fill="#CE368A"/>
<path d="M63.5238 45.7935C63.5238 45.7935 64.1916 46.3442 62.7881 46.7698C60.1196 47.5781 51.6793 47.8219 49.3351 46.8021C48.4929 46.4354 50.0729 45.9269 50.57 45.8197C51.0883 45.7074 51.3843 45.7279 51.3843 45.7279C50.4471 45.068 45.3265 47.0241 48.7837 47.5851C58.2113 49.1134 65.9688 46.8969 63.5238 45.7935ZM53.6441 38.6152C53.6441 38.6152 49.3512 39.6349 52.124 40.0056C53.2949 40.1623 55.6281 40.1264 57.8029 39.9439C59.5798 39.7946 61.3629 39.4758 61.3629 39.4758C61.3629 39.4758 60.7369 39.7443 60.2835 40.0535C55.9233 41.2004 47.5023 40.6662 49.9269 39.4938C51.9766 38.5024 53.6441 38.6152 53.6441 38.6152ZM61.3451 42.9195C65.777 40.6172 63.7276 38.4046 62.2973 38.7026C61.9476 38.7755 61.7907 38.8388 61.7907 38.8388C61.7907 38.8388 61.9209 38.6347 62.1691 38.5469C64.9987 37.5525 67.1744 41.4805 61.2565 43.0363C61.2565 43.0359 61.3244 42.9744 61.3451 42.9195Z" fill="#7579FF"/>
<path d="M58.6731 25.6143C58.6731 25.6143 61.127 28.0697 56.3451 31.8442C52.5102 34.873 55.4706 36.5995 56.3437 38.573C54.105 36.5533 52.4629 34.7752 53.5644 33.1204C55.1819 30.6918 59.663 29.5139 58.6731 25.6143Z" fill="#CE368A"/>
<path d="M54.0795 49.1591C58.3326 49.431 64.8655 49.0077 65.0201 46.9951C65.0201 46.9951 64.7228 47.7581 61.5048 48.3634C57.8743 49.0469 53.3957 48.9673 50.7402 48.5288C50.7402 48.529 51.2843 48.9794 54.0795 49.1591Z" fill="#7579FF"/>
</g>
</g>
<g clip-path="url(#cliptech9)">
<path d="M122.993 94.0853C123.355 103.802 118.856 104.65 113.685 104.393C108.514 104.136 102.051 101.668 102.206 94.0853C102.361 86.5025 107.299 84.2864 111.177 84.3378C115.056 84.3892 122.631 84.369 122.993 94.0853Z" fill="#262865"/>
<path d="M106.501 90.4326L107.064 90.1074L113.339 100.974L112.775 101.299L106.501 90.4326Z" fill="#E535AB"/>
<path d="M118.923 91.2998H106.375V90.6495H118.923V91.2998Z" fill="#E535AB"/>
<path d="M106.62 90.9334L112.896 87.3096L113.222 87.8728L106.945 91.4966L106.62 90.9334Z" fill="#E535AB"/>
<path d="M112.075 100.381L118.352 96.7568L118.677 97.32L112.4 100.944L112.075 100.381Z" fill="#E535AB"/>
<path d="M106.62 97.322L106.945 96.7588L113.222 100.383L112.897 100.946L106.62 97.322Z" fill="#E535AB"/>
<path d="M111.964 100.975L118.238 90.1084L118.801 90.4336L112.527 101.3L111.964 100.975Z" fill="#E535AB"/>
<path d="M107.521 97.7539H106.871V90.5062H107.521V97.7539Z" fill="#E535AB"/>
<path d="M118.428 97.7529H117.777V90.5052H118.428V97.7529Z" fill="#E535AB"/>
<path d="M112.505 88.0779L112.789 87.5859L118.248 90.7377L117.964 91.2297L112.505 88.0779Z" fill="#E535AB"/>
<path d="M119.289 90.2934C118.913 89.6392 118.075 89.4159 117.42 89.792C116.766 90.1681 116.543 91.0064 116.919 91.6607C117.295 92.3149 118.133 92.5383 118.788 92.1622C119.446 91.7821 119.669 90.9477 119.289 90.2934Z" fill="#E535AB"/>
<path d="M108.375 96.5971C107.999 95.9429 107.161 95.7196 106.506 96.0957C105.852 96.4718 105.629 97.3102 106.005 97.9644C106.381 98.6187 107.219 98.842 107.874 98.4659C108.528 98.0859 108.751 97.2514 108.375 96.5971Z" fill="#E535AB"/>
<path d="M106.007 90.2934C105.631 90.9477 105.854 91.7821 106.508 92.1622C107.162 92.5383 107.997 92.3149 108.377 91.6607C108.753 91.0064 108.53 90.172 107.876 89.792C107.217 89.4159 106.383 89.6392 106.007 90.2934Z" fill="#E535AB"/>
<path d="M116.927 96.5971C116.551 97.2514 116.774 98.0859 117.428 98.4659C118.082 98.842 118.917 98.6187 119.297 97.9644C119.673 97.3102 119.45 96.4757 118.795 96.0957C118.141 95.7196 117.303 95.9429 116.927 96.5971Z" fill="#E535AB"/>
<path d="M112.649 86.4598C111.892 86.4598 111.281 87.071 111.281 87.8271C111.281 88.5832 111.892 89.1943 112.649 89.1943C113.405 89.1943 114.016 88.5832 114.016 87.8271C114.016 87.0749 113.405 86.4598 112.649 86.4598Z" fill="#E535AB"/>
<path d="M112.649 99.0653C111.892 99.0653 111.281 99.6764 111.281 100.433C111.281 101.189 111.892 101.8 112.649 101.8C113.405 101.8 114.016 101.189 114.016 100.433C114.016 99.6764 113.405 99.0653 112.649 99.0653Z" fill="#E535AB"/>
</g>
<g clip-path="url(#cliptech10)">
<path d="M242.478 48.7807C242.83 58.2217 238.459 59.0459 233.434 58.7962C228.41 58.5464 222.129 56.1487 222.28 48.7807C222.431 41.4128 227.229 39.2595 230.997 39.3094C234.766 39.3594 242.126 39.3397 242.478 48.7807Z" fill="#262865"/>
<path d="M236.394 45.9065C236.068 45.9177 235.855 45.727 235.844 45.4354C235.844 45.3233 235.866 45.2335 235.945 45.1214C236.012 44.9868 236.035 44.9643 236.035 44.9083C236.023 44.7288 235.754 44.7176 235.676 44.7176C234.638 44.751 234.366 46.138 234.143 47.2786L234.139 47.2973L234.027 47.903C234.621 47.9927 235.048 47.8805 235.283 47.7347C235.62 47.5216 235.193 47.2973 235.238 47.0505C235.294 46.8038 235.519 46.6804 235.698 46.6692C235.956 46.658 236.136 46.9272 236.124 47.1963C236.113 47.6338 235.53 48.2507 234.352 48.217C234.206 48.217 234.083 48.2058 233.96 48.1946L233.735 49.4171C233.533 50.3369 233.276 51.6043 232.333 52.7034C231.526 53.668 230.707 53.8138 230.337 53.8251C229.653 53.8475 229.193 53.4774 229.182 52.9951C229.17 52.524 229.585 52.266 229.855 52.2548C230.225 52.2436 230.471 52.5128 230.483 52.8156C230.494 53.0736 230.359 53.1521 230.27 53.2082C230.214 53.253 230.124 53.3091 230.124 53.4101C230.124 53.4549 230.18 53.5559 230.326 53.5559C230.617 53.5447 230.808 53.3988 230.943 53.3091C231.616 52.7483 231.873 51.7725 232.21 50.0116L232.277 49.5854C232.389 49.0134 232.524 48.3628 232.715 47.7235C232.244 47.3646 231.963 46.9272 231.324 46.7589C230.886 46.6355 230.629 46.7365 230.438 46.972C230.214 47.2524 230.292 47.6113 230.505 47.8244L230.853 48.217C231.29 48.7217 231.526 49.1031 231.436 49.6302C231.313 50.449 230.314 51.0883 229.137 50.7294C228.127 50.4154 227.948 49.7087 228.071 49.3162C228.172 48.9685 228.453 48.9012 228.722 48.9909C229.013 49.0806 229.126 49.4283 229.036 49.6975C229.025 49.7312 229.013 49.776 228.98 49.8321C228.946 49.9106 228.89 49.9667 228.856 50.0564C228.789 50.2696 229.081 50.4154 229.283 50.4827C229.731 50.6173 230.169 50.3817 230.281 50.0228C230.38 49.6919 230.176 49.4587 230.094 49.3657L230.09 49.3611L229.664 48.9012C229.473 48.6881 229.036 48.0824 229.249 47.3982C229.327 47.1403 229.496 46.8599 229.742 46.6804C230.258 46.2878 230.83 46.2318 231.369 46.3888C232.064 46.5907 232.401 47.0505 232.838 47.4094C233.085 46.7028 233.421 45.9962 233.926 45.413C234.386 44.8746 234.992 44.4933 235.698 44.4596C236.405 44.4372 236.932 44.7512 236.954 45.256C236.943 45.4803 236.82 45.8953 236.394 45.9065Z" fill="#D6D7EA"/>
</g>
<g clip-path="url(#cliptech11)">
<path d="M337.969 118.717C338.503 133.038 331.872 134.289 324.25 133.91C316.629 133.531 307.102 129.894 307.33 118.717C307.559 107.541 314.838 104.274 320.554 104.35C326.27 104.426 337.436 104.396 337.969 118.717Z" fill="#262865"/>
<path d="M316.602 117.206C315.95 117.206 315.422 117.729 315.422 118.372L315.423 123.255C315.423 123.9 315.952 124.421 316.604 124.421C317.256 124.421 317.785 123.9 317.784 123.255V118.372C317.784 117.729 317.255 117.206 316.602 117.206ZM326.124 112.822L326.948 111.336C326.992 111.258 326.963 111.159 326.883 111.115C326.803 111.073 326.704 111.102 326.661 111.18L325.829 112.681C325.128 112.374 324.344 112.201 323.515 112.202C322.688 112.201 321.904 112.373 321.207 112.679L320.374 111.181C320.33 111.102 320.231 111.074 320.152 111.117C320.072 111.16 320.042 111.259 320.087 111.336L320.911 112.821C319.291 113.646 318.197 115.217 318.198 117.021L328.833 117.02C328.834 115.216 327.741 113.649 326.124 112.822ZM321.096 115.118C320.851 115.118 320.652 114.921 320.652 114.678C320.652 114.436 320.851 114.237 321.097 114.237C321.343 114.237 321.543 114.436 321.543 114.678C321.543 114.921 321.343 115.118 321.096 115.118ZM325.939 115.117C325.693 115.117 325.493 114.921 325.493 114.677C325.494 114.436 325.693 114.237 325.939 114.236C326.184 114.237 326.384 114.436 326.384 114.677C326.385 114.92 326.185 115.117 325.939 115.117ZM318.241 117.427L318.243 124.993C318.243 125.682 318.806 126.237 319.503 126.237L320.361 126.238L320.362 128.821C320.362 129.465 320.891 129.987 321.542 129.987C322.194 129.987 322.723 129.464 322.723 128.82L322.722 126.237L324.316 126.237L324.317 128.82C324.317 129.463 324.846 129.987 325.497 129.986C326.15 129.987 326.678 129.463 326.678 128.819L326.677 126.237L327.538 126.236C328.233 126.236 328.799 125.68 328.799 124.992L328.797 117.425L318.241 117.427ZM331.614 118.371C331.614 117.726 331.085 117.204 330.433 117.205C329.781 117.204 329.253 117.727 329.253 118.371L329.254 123.254C329.254 123.898 329.782 124.419 330.434 124.42C331.087 124.419 331.615 123.898 331.615 123.253L331.614 118.371Z" fill="#A4C439"/>
</g>
<g clip-path="url(#cliptech12)">
<path d="M26.4578 174.134C26.1489 182.427 29.9884 183.151 34.4016 182.931C38.8147 182.712 44.3312 180.606 44.1988 174.134C44.0664 167.663 39.8519 165.771 36.542 165.815C33.2321 165.859 26.7668 165.842 26.4578 174.134Z" fill="#262865"/>
<path d="M35.2228 175.287L34.4758 173.174C34.4314 173.063 34.3838 172.933 34.3331 172.784C34.2855 172.635 34.2395 172.473 34.1951 172.299C34.1507 172.477 34.1031 172.642 34.0524 172.794C34.0048 172.943 33.9588 173.073 33.9144 173.184L33.1722 175.287H35.2228ZM37.6207 177.908H36.5121C36.3884 177.908 36.2869 177.88 36.2076 177.823C36.1315 177.762 36.0744 177.686 36.0363 177.594L35.5701 176.276H32.8201L32.3539 177.594C32.3221 177.674 32.2666 177.747 32.1873 177.813C32.108 177.877 32.0081 177.908 31.8876 177.908H30.7695L33.4672 171.005H34.9278L37.6207 177.908Z" fill="#7579FF"/>
<path d="M39.6964 177.908H38.2596V171.005H39.6964V177.908Z" fill="#7579FF"/>
</g>
<g clip-path="url(#cliptech13)">
<path d="M264.057 112.204C263.649 123.154 268.719 124.109 274.546 123.82C280.374 123.53 287.658 120.749 287.483 112.204C287.308 103.658 281.743 101.161 277.373 101.219C273.002 101.277 264.465 101.254 264.057 112.204Z" fill="#262865"/>
<path d="M273.762 113.442L273.012 111.319C272.967 111.207 272.919 111.077 272.868 110.927C272.82 110.777 272.774 110.614 272.729 110.439C272.685 110.618 272.637 110.783 272.586 110.936C272.538 111.086 272.492 111.217 272.447 111.328L271.702 113.442H273.762ZM276.172 116.076H275.058C274.934 116.076 274.832 116.047 274.752 115.99C274.675 115.929 274.618 115.853 274.58 115.76L274.111 114.436H271.348L270.879 115.76C270.847 115.84 270.792 115.913 270.712 115.98C270.632 116.044 270.532 116.076 270.411 116.076H269.287L271.998 109.139H273.466L276.172 116.076Z" fill="#9494D9"/>
<path d="M278.984 112.423C279.217 112.423 279.418 112.395 279.587 112.337C279.756 112.277 279.894 112.195 280.003 112.093C280.111 111.988 280.191 111.865 280.242 111.725C280.293 111.585 280.318 111.432 280.318 111.266C280.318 110.938 280.208 110.683 279.988 110.501C279.772 110.32 279.44 110.229 278.994 110.229H278.248V112.423H278.984ZM282.346 116.076H281.05C280.808 116.076 280.632 115.984 280.524 115.799L279.204 113.671C279.15 113.588 279.09 113.528 279.023 113.489C278.959 113.451 278.863 113.432 278.736 113.432H278.248V116.076H276.814V109.139H278.994C279.478 109.139 279.893 109.19 280.237 109.292C280.581 109.39 280.863 109.529 281.083 109.708C281.303 109.886 281.464 110.1 281.566 110.348C281.668 110.594 281.719 110.865 281.719 111.161C281.719 111.391 281.686 111.609 281.619 111.816C281.555 112.02 281.461 112.206 281.337 112.375C281.212 112.544 281.059 112.694 280.878 112.825C280.696 112.956 280.489 113.061 280.256 113.14C280.349 113.191 280.435 113.254 280.514 113.327C280.594 113.397 280.666 113.481 280.73 113.58L282.346 116.076Z" fill="#9494D9"/>
</g>
<g clip-path="url(#cliptech14)">
<path d="M184.472 60.2264C184.065 71.1025 189.114 72.052 194.918 71.7642C200.721 71.4765 207.976 68.7143 207.802 60.2264C207.628 51.7385 202.085 49.2579 197.733 49.3154C193.38 49.373 184.878 49.3503 184.472 60.2264Z" fill="#262865"/>
<path d="M196.488 57.0986L193.709 64.0021H192.415L189.637 57.0986H190.788C190.912 57.0986 191.012 57.1288 191.088 57.189C191.167 57.2461 191.226 57.3207 191.264 57.4126L192.758 61.3901C192.815 61.5392 192.87 61.7025 192.924 61.8802C192.981 62.0546 193.034 62.2386 193.081 62.432C193.123 62.2386 193.167 62.0546 193.215 61.8802C193.265 61.7025 193.319 61.5392 193.376 61.3901L194.861 57.4126C194.892 57.3333 194.948 57.262 195.027 57.1985C195.11 57.1319 195.211 57.0986 195.332 57.0986H196.488Z" fill="#7579FF"/>
<path d="M199.287 60.3672C199.518 60.3672 199.718 60.3386 199.886 60.2816C200.054 60.2213 200.192 60.1404 200.3 60.0389C200.408 59.9342 200.487 59.8121 200.538 59.6726C200.589 59.533 200.614 59.3808 200.614 59.2158C200.614 58.8891 200.505 58.6354 200.286 58.4546C200.07 58.2738 199.74 58.1834 199.296 58.1834H198.554V60.3672H199.287ZM202.631 64.0021H201.342C201.101 64.0021 200.927 63.9101 200.819 63.7261L199.506 61.609C199.452 61.5265 199.391 61.4662 199.325 61.4282C199.261 61.3901 199.166 61.3711 199.039 61.3711H198.554V64.0021H197.127V57.0986H199.296C199.778 57.0986 200.191 57.1494 200.533 57.2509C200.876 57.3492 201.157 57.4872 201.375 57.6648C201.594 57.8424 201.754 58.0549 201.856 58.3023C201.957 58.5466 202.008 58.8162 202.008 59.1112C202.008 59.3395 201.975 59.5568 201.908 59.763C201.845 59.966 201.751 60.1515 201.628 60.3196C201.504 60.4877 201.352 60.6368 201.171 60.7668C200.99 60.8969 200.784 61.0016 200.552 61.0809C200.644 61.1316 200.73 61.1935 200.809 61.2664C200.889 61.3362 200.96 61.4202 201.023 61.5186L202.631 64.0021Z" fill="#7579FF"/>
</g>
<defs>
<linearGradient id="painttech0_linear" x1="148.963" y1="138.912" x2="148.981" y2="140.704" gradientUnits="userSpaceOnUse">
<stop stop-color="#A209D4"/>
<stop offset="1" stop-color="#D61382"/>
</linearGradient>
<linearGradient id="painttech1_linear" x1="132.779" y1="149.701" x2="132.818" y2="151.493" gradientUnits="userSpaceOnUse">
<stop stop-color="#A209D4"/>
<stop offset="1" stop-color="#D61382"/>
</linearGradient>
<clipPath id="cliptech0">
<rect width="26.8163" height="25.9512" transform="matrix(-1 0 0 1 214.07 0)" fill="white"/>
</clipPath>
<clipPath id="cliptech1">
<rect width="23.3561" height="22.4911" transform="matrix(-1 0 0 1 115.555 3.57324)" fill="white"/>
</clipPath>
<clipPath id="cliptech2">
<rect width="16.1743" height="15.6166" transform="matrix(-1 0 0 1 66.9199 74.3311)" fill="white"/>
</clipPath>
<clipPath id="cliptech3">
<rect width="16.1268" height="15.5707" transform="matrix(-1 0 0 1 16.127 65.0391)" fill="white"/>
</clipPath>
<clipPath id="cliptech4">
<rect width="31.2534" height="30.1757" transform="matrix(-1 0 0 1 169.193 30.7324)" fill="white"/>
</clipPath>
<clipPath id="cliptech5">
<rect width="33.9043" height="32.8769" transform="matrix(-1 0 0 1 314.785 45.7412)" fill="white"/>
</clipPath>
<clipPath id="cliptech6">
<rect width="20.7672" height="20.0511" transform="matrix(-1 0 0 1 66.5078 116.499)" fill="white"/>
</clipPath>
<clipPath id="cliptech7">
<rect x="40.7383" y="23.585" width="31.8235" height="30.7261" fill="white"/>
</clipPath>
<clipPath id="cliptech8">
<rect x="44.1973" y="25.3145" width="24.2212" height="24.2212" fill="white"/>
</clipPath>
<clipPath id="cliptech9">
<rect width="20.8104" height="20.0928" transform="matrix(-1 0 0 1 123.014 84.3369)" fill="white"/>
</clipPath>
<clipPath id="cliptech10">
<rect width="20.2207" height="19.5234" transform="matrix(-1 0 0 1 242.496 39.3096)" fill="white"/>
</clipPath>
<clipPath id="cliptech11">
<rect width="30.6732" height="29.6155" transform="matrix(-1 0 0 1 338 104.349)" fill="white"/>
</clipPath>
<clipPath id="cliptech12">
<rect width="17.7608" height="17.1483" transform="matrix(-1 0 0 1 44.2051 165.814)" fill="white"/>
</clipPath>
<clipPath id="cliptech13">
<rect width="23.4523" height="22.6436" transform="matrix(-1 0 0 1 287.486 101.218)" fill="white"/>
</clipPath>
<clipPath id="cliptech14">
<rect width="23.3561" height="22.4911" transform="matrix(-1 0 0 1 207.803 49.3145)" fill="white"/>
</clipPath>
</defs>
</svg>
