<svg width="192" height="114" viewBox="0 0 192 114" fill="none" xmlns="http://www.w3.org/2000/svg">
<path d="M145.818 87.552V75.24C145.818 74.9664 145.636 74.784 145.362 74.784H143.994C143.721 74.784 143.538 74.6016 143.538 74.328V62.016C143.538 61.7424 143.356 61.56 143.082 61.56H141.714C141.441 61.56 141.258 61.3776 141.258 61.104V48.792C141.258 48.5184 141.076 48.336 140.802 48.336H139.434C139.161 48.336 138.978 48.1536 138.978 47.88V35.568C138.978 35.2944 138.796 35.112 138.522 35.112H137.154C136.881 35.112 136.698 34.9296 136.698 34.656V19.608C136.698 19.3344 136.516 19.152 136.242 19.152H134.874C134.601 19.152 134.418 18.9696 134.418 18.696V14.592C134.418 14.3184 134.236 14.136 133.962 14.136H132.594C132.321 14.136 132.138 13.9536 132.138 13.68V9.576C132.138 9.3024 131.956 9.12 131.682 9.12H127.578C127.305 9.12 127.122 8.9376 127.122 8.664V7.296C127.122 7.0224 126.94 6.84 126.666 6.84H122.562C122.289 6.84 122.106 6.6576 122.106 6.384V5.016C122.106 4.7424 121.924 4.56 121.65 4.56H117.546C117.273 4.56 117.09 4.3776 117.09 4.104V2.736C117.09 2.4624 116.908 2.28 116.634 2.28H112.53C112.257 2.28 112.074 2.0976 112.074 1.824V0.456C112.074 0.1824 111.892 0 111.618 0H74.2263C73.9528 0 73.7704 0.1824 73.7704 0.456V1.824C73.7704 2.0976 73.5879 2.28 73.3144 2.28H69.2103C68.9367 2.28 68.7543 2.4624 68.7543 2.736V4.104C68.7543 4.3776 68.5719 4.56 68.2983 4.56H64.1943C63.9207 4.56 63.7383 4.7424 63.7383 5.016V6.384C63.7383 6.6576 63.5559 6.84 63.2823 6.84H59.1783C58.9047 6.84 58.7223 7.0224 58.7223 7.296V8.664C58.7223 8.9376 58.5399 9.12 58.2663 9.12H54.1623C53.8887 9.12 53.7063 9.3024 53.7063 9.576V13.68C53.7063 13.9536 53.5239 14.136 53.2503 14.136H51.8823C51.6087 14.136 51.4263 14.3184 51.4263 14.592V18.696C51.4263 18.9696 51.2439 19.152 50.9703 19.152H49.6023C49.3287 19.152 49.1463 19.3344 49.1463 19.608V34.656C49.1463 34.9296 48.9639 35.112 48.6903 35.112H47.3223C47.0487 35.112 46.8663 35.2944 46.8663 35.568V47.88C46.8663 48.1536 46.6839 48.336 46.4103 48.336H45.0423C44.7687 48.336 44.5863 48.5184 44.5863 48.792V61.104C44.5863 61.3776 44.4039 61.56 44.1303 61.56H42.7623C42.4887 61.56 42.3063 61.7424 42.3063 62.016V74.328C42.3063 74.6016 42.1239 74.784 41.8503 74.784H40.4823C40.2087 74.784 40.0263 74.9664 40.0263 75.24V87.552C40.0263 87.8256 39.8439 88.008 39.5703 88.008H38.2023C37.9287 88.008 37.7463 88.1904 37.7463 88.464V93.024C37.7463 93.2976 37.9287 93.48 38.2023 93.48H39.5703C39.8439 93.48 40.0263 93.6624 40.0263 93.936V95.304C40.0263 95.5776 40.2087 95.76 40.4823 95.76H41.8503C42.1239 95.76 42.3063 95.9424 42.3063 96.216V97.584C42.3063 97.8576 42.4887 98.04 42.7623 98.04H44.1303C44.4039 98.04 44.5863 98.2224 44.5863 98.496V99.864C44.5863 100.138 44.7687 100.32 45.0423 100.32H46.4103C46.6839 100.32 46.8663 100.502 46.8663 100.776V102.144C46.8663 102.418 47.0487 102.6 47.3223 102.6H48.6903C48.9639 102.6 49.1463 102.782 49.1463 103.056V104.424C49.1463 104.698 49.3287 104.88 49.6023 104.88H50.9703C51.2439 104.88 51.4263 105.062 51.4263 105.336V106.704C51.4263 106.978 51.6087 107.16 51.8823 107.16H55.9863C56.2599 107.16 56.4423 107.342 56.4423 107.616V108.984C56.4423 109.258 56.6247 109.44 56.8983 109.44H61.0023C61.2759 109.44 61.4583 109.622 61.4583 109.896V111.264C61.4583 111.538 61.6407 111.72 61.9143 111.72H71.4903C71.764 111.72 71.9464 111.902 71.9464 112.176V113.544C71.9464 113.818 72.1287 114 72.4023 114H113.442C113.716 114 113.898 113.818 113.898 113.544V112.176C113.898 111.902 114.081 111.72 114.354 111.72H123.93C124.204 111.72 124.386 111.538 124.386 111.264V109.896C124.386 109.622 124.569 109.44 124.842 109.44H128.946C129.22 109.44 129.402 109.258 129.402 108.984V107.616C129.402 107.342 129.585 107.16 129.858 107.16H133.962C134.236 107.16 134.418 106.978 134.418 106.704V105.336C134.418 105.062 134.601 104.88 134.874 104.88H136.242C136.516 104.88 136.698 104.698 136.698 104.424V103.056C136.698 102.782 136.881 102.6 137.154 102.6H138.522C138.796 102.6 138.978 102.418 138.978 102.144V100.776C138.978 100.502 139.161 100.32 139.434 100.32H140.802C141.076 100.32 141.258 100.138 141.258 99.864V98.496C141.258 98.2224 141.441 98.04 141.714 98.04H143.082C143.356 98.04 143.538 97.8576 143.538 97.584V96.216C143.538 95.9424 143.721 95.76 143.994 95.76H145.362C145.636 95.76 145.818 95.5776 145.818 95.304V93.936C145.818 93.6624 146.001 93.48 146.274 93.48H147.642C147.916 93.48 148.098 93.2976 148.098 93.024V88.464C148.098 88.1904 147.916 88.008 147.642 88.008H146.274C146.001 88.008 145.818 87.8256 145.818 87.552Z" fill="#FAFBFD"/>
<path d="M145.818 87.552V86.184C145.818 85.9104 145.636 85.728 145.362 85.728H140.802C140.529 85.728 140.346 85.9104 140.346 86.184V87.552C140.346 87.8256 140.164 88.008 139.89 88.008H138.522C138.249 88.008 138.066 88.1904 138.066 88.464V89.832C138.066 90.1056 137.884 90.288 137.61 90.288H136.242C135.969 90.288 135.786 90.4704 135.786 90.744V92.112C135.786 92.3856 135.604 92.568 135.33 92.568H133.962C133.689 92.568 133.506 92.7504 133.506 93.024V94.392C133.506 94.6656 133.324 94.848 133.05 94.848H131.682C131.409 94.848 131.226 95.0304 131.226 95.304V96.672C131.226 96.9456 131.044 97.128 130.77 97.128H126.666C126.393 97.128 126.21 97.3104 126.21 97.584V98.952C126.21 99.2256 126.028 99.408 125.754 99.408H121.65C121.377 99.408 121.194 99.5904 121.194 99.864V101.232C121.194 101.506 121.012 101.688 120.738 101.688H111.162C110.889 101.688 110.706 101.87 110.706 102.144V103.512C110.706 103.786 110.524 103.968 110.25 103.968H75.5943C75.3208 103.968 75.1384 103.786 75.1384 103.512V102.144C75.1384 101.87 74.956 101.688 74.6824 101.688H65.1063C64.8327 101.688 64.6503 101.506 64.6503 101.232V99.864C64.6503 99.5904 64.4679 99.408 64.1943 99.408H60.0903C59.8167 99.408 59.6343 99.2256 59.6343 98.952V97.584C59.6343 97.3104 59.4519 97.128 59.1783 97.128H55.0743C54.8007 97.128 54.6183 96.9456 54.6183 96.672V95.304C54.6183 95.0304 54.4359 94.848 54.1623 94.848H52.7943C52.5207 94.848 52.3383 94.6656 52.3383 94.392V93.024C52.3383 92.7504 52.1559 92.568 51.8823 92.568H50.5143C50.2407 92.568 50.0583 92.3856 50.0583 92.112V90.744C50.0583 90.4704 49.8759 90.288 49.6023 90.288H48.2343C47.9607 90.288 47.7783 90.1056 47.7783 89.832V88.464C47.7783 88.1904 47.5959 88.008 47.3223 88.008H45.9543C45.6807 88.008 45.4983 87.8256 45.4983 87.552V86.184C45.4983 85.9104 45.3159 85.728 45.0423 85.728H40.4823C40.2087 85.728 40.0263 85.9104 40.0263 86.184V87.552C40.0263 87.8256 39.8439 88.008 39.5703 88.008H38.2023C37.9287 88.008 37.7463 88.1904 37.7463 88.464V93.024C37.7463 93.2976 37.9287 93.48 38.2023 93.48H39.5703C39.8439 93.48 40.0263 93.6624 40.0263 93.936V95.304C40.0263 95.5776 40.2087 95.76 40.4823 95.76H41.8503C42.1239 95.76 42.3063 95.9424 42.3063 96.216V97.584C42.3063 97.8576 42.4887 98.04 42.7623 98.04H44.1303C44.4039 98.04 44.5863 98.2224 44.5863 98.496V99.864C44.5863 100.138 44.7687 100.32 45.0423 100.32H46.4103C46.6839 100.32 46.8663 100.502 46.8663 100.776V102.144C46.8663 102.418 47.0487 102.6 47.3223 102.6H48.6903C48.9639 102.6 49.1463 102.782 49.1463 103.056V104.424C49.1463 104.698 49.3287 104.88 49.6023 104.88H50.9703C51.2439 104.88 51.4263 105.062 51.4263 105.336V106.704C51.4263 106.978 51.6087 107.16 51.8823 107.16H55.9863C56.2599 107.16 56.4423 107.342 56.4423 107.616V108.984C56.4423 109.258 56.6247 109.44 56.8983 109.44H61.0023C61.2759 109.44 61.4583 109.622 61.4583 109.896V111.264C61.4583 111.538 61.6407 111.72 61.9143 111.72H71.4903C71.764 111.72 71.9464 111.902 71.9464 112.176V113.544C71.9464 113.818 72.1287 114 72.4023 114H113.442C113.716 114 113.898 113.818 113.898 113.544V112.176C113.898 111.902 114.081 111.72 114.354 111.72H123.93C124.204 111.72 124.386 111.538 124.386 111.264V109.896C124.386 109.622 124.569 109.44 124.842 109.44H128.946C129.22 109.44 129.402 109.258 129.402 108.984V107.616C129.402 107.342 129.585 107.16 129.858 107.16H133.962C134.236 107.16 134.418 106.978 134.418 106.704V105.336C134.418 105.062 134.601 104.88 134.874 104.88H136.242C136.516 104.88 136.698 104.698 136.698 104.424V103.056C136.698 102.782 136.881 102.6 137.154 102.6H138.522C138.796 102.6 138.978 102.418 138.978 102.144V100.776C138.978 100.502 139.161 100.32 139.434 100.32H140.802C141.076 100.32 141.258 100.138 141.258 99.864V98.496C141.258 98.2224 141.441 98.04 141.714 98.04H143.082C143.356 98.04 143.538 97.8576 143.538 97.584V96.216C143.538 95.9424 143.721 95.76 143.994 95.76H145.362C145.636 95.76 145.818 95.5776 145.818 95.304V93.936C145.818 93.6624 146.001 93.48 146.274 93.48H147.642C147.916 93.48 148.098 93.2976 148.098 93.024V88.464C148.098 88.1904 147.916 88.008 147.642 88.008H146.274C146.001 88.008 145.818 87.8256 145.818 87.552Z" fill="#292D33"/>
<path d="M145.818 87.552V75.24C145.818 74.9664 145.636 74.784 145.362 74.784H143.994C143.721 74.784 143.538 74.6016 143.538 74.328V62.016C143.538 61.7424 143.356 61.56 143.082 61.56H141.714C141.441 61.56 141.258 61.3776 141.258 61.104V48.792C141.258 48.5184 141.076 48.336 140.802 48.336H139.434C139.161 48.336 138.978 48.1536 138.978 47.88V35.568C138.978 35.2944 138.796 35.112 138.522 35.112H137.154C136.881 35.112 136.698 34.9296 136.698 34.656V19.608C136.698 19.3344 136.516 19.152 136.242 19.152H134.874C134.601 19.152 134.418 18.9696 134.418 18.696V14.592C134.418 14.3184 134.236 14.136 133.962 14.136H132.594C132.321 14.136 132.138 13.9536 132.138 13.68V9.576C132.138 9.3024 131.956 9.12 131.682 9.12H127.578C127.305 9.12 127.122 8.9376 127.122 8.664V7.296C127.122 7.0224 126.94 6.84 126.666 6.84H122.562C122.289 6.84 122.106 6.6576 122.106 6.384V5.016C122.106 4.7424 121.924 4.56 121.65 4.56H117.546C117.273 4.56 117.09 4.3776 117.09 4.104V2.736C117.09 2.4624 116.908 2.28 116.634 2.28H112.53C112.257 2.28 112.074 2.0976 112.074 1.824V0.456C112.074 0.1824 111.892 0 111.618 0H74.2263C73.9528 0 73.7704 0.1824 73.7704 0.456V1.824C73.7704 2.0976 73.5879 2.28 73.3144 2.28H69.2103C68.9367 2.28 68.7543 2.4624 68.7543 2.736V4.104C68.7543 4.3776 68.5719 4.56 68.2983 4.56H64.1943C63.9207 4.56 63.7383 4.7424 63.7383 5.016V6.384C63.7383 6.6576 63.5559 6.84 63.2823 6.84H59.1783C58.9047 6.84 58.7223 7.0224 58.7223 7.296V8.664C58.7223 8.9376 58.5399 9.12 58.2663 9.12H54.1623C53.8887 9.12 53.7063 9.3024 53.7063 9.576V13.68C53.7063 13.9536 53.5239 14.136 53.2503 14.136H51.8823C51.6087 14.136 51.4263 14.3184 51.4263 14.592V18.696C51.4263 18.9696 51.2439 19.152 50.9703 19.152H49.6023C49.3287 19.152 49.1463 19.3344 49.1463 19.608V34.656C49.1463 34.9296 48.9639 35.112 48.6903 35.112H47.3223C47.0487 35.112 46.8663 35.2944 46.8663 35.568V47.88C46.8663 48.1536 46.6839 48.336 46.4103 48.336H45.0423C44.7687 48.336 44.5863 48.5184 44.5863 48.792V61.104C44.5863 61.3776 44.4039 61.56 44.1303 61.56H42.7623C42.4887 61.56 42.3063 61.7424 42.3063 62.016V74.328C42.3063 74.6016 42.1239 74.784 41.8503 74.784H40.4823C40.2087 74.784 40.0263 74.9664 40.0263 75.24V87.552C40.0263 87.8256 39.8439 88.008 39.5703 88.008H38.2023C37.9287 88.008 37.7463 88.1904 37.7463 88.464V93.024C37.7463 93.2976 37.9287 93.48 38.2023 93.48H39.5703C39.8439 93.48 40.0263 93.6624 40.0263 93.936V95.304C40.0263 95.5776 40.2087 95.76 40.4823 95.76H41.8503C42.1239 95.76 42.3063 95.9424 42.3063 96.216V97.584C42.3063 97.8576 42.4887 98.04 42.7623 98.04H44.1303C44.4039 98.04 44.5863 98.2224 44.5863 98.496V99.864C44.5863 100.138 44.7687 100.32 45.0423 100.32H46.4103C46.6839 100.32 46.8663 100.502 46.8663 100.776V102.144C46.8663 102.418 47.0487 102.6 47.3223 102.6H48.6903C48.9639 102.6 49.1463 102.782 49.1463 103.056V104.424C49.1463 104.698 49.3287 104.88 49.6023 104.88H50.9703C51.2439 104.88 51.4263 105.062 51.4263 105.336V106.704C51.4263 106.978 51.6087 107.16 51.8823 107.16H55.9863C56.2599 107.16 56.4423 107.342 56.4423 107.616V108.984C56.4423 109.258 56.6247 109.44 56.8983 109.44H61.0023C61.2759 109.44 61.4583 109.622 61.4583 109.896V111.264C61.4583 111.538 61.6407 111.72 61.9143 111.72H71.4903C71.764 111.72 71.9464 111.902 71.9464 112.176V113.544C71.9464 113.818 72.1287 114 72.4023 114H113.442C113.716 114 113.898 113.818 113.898 113.544V112.176C113.898 111.902 114.081 111.72 114.354 111.72H123.93C124.204 111.72 124.386 111.538 124.386 111.264V109.896C124.386 109.622 124.569 109.44 124.842 109.44H128.946C129.22 109.44 129.402 109.258 129.402 108.984V107.616C129.402 107.342 129.585 107.16 129.858 107.16H133.962C134.236 107.16 134.418 106.978 134.418 106.704V105.336C134.418 105.062 134.601 104.88 134.874 104.88H136.242C136.516 104.88 136.698 104.698 136.698 104.424V103.056C136.698 102.782 136.881 102.6 137.154 102.6H138.522C138.796 102.6 138.978 102.418 138.978 102.144V100.776C138.978 100.502 139.161 100.32 139.434 100.32H140.802C141.076 100.32 141.258 100.138 141.258 99.864V98.496C141.258 98.2224 141.441 98.04 141.714 98.04H143.082C143.356 98.04 143.538 97.8576 143.538 97.584V96.216C143.538 95.9424 143.721 95.76 143.994 95.76H145.362C145.636 95.76 145.818 95.5776 145.818 95.304V93.936C145.818 93.6624 146.001 93.48 146.274 93.48H147.642C147.916 93.48 148.098 93.2976 148.098 93.024V88.464C148.098 88.1904 147.916 88.008 147.642 88.008H146.274C146.001 88.008 145.818 87.8256 145.818 87.552ZM52.3383 19.608H53.7063C53.9799 19.608 54.1623 19.4256 54.1623 19.152V15.048C54.1623 14.7744 54.3447 14.592 54.6183 14.592H55.9863C56.2599 14.592 56.4423 14.4096 56.4423 14.136V12.312C56.4423 12.0384 56.6247 11.856 56.8983 11.856H58.7223C58.9959 11.856 59.1783 11.6736 59.1783 11.4V10.032C59.1783 9.7584 59.3607 9.576 59.6343 9.576H63.7383C64.0119 9.576 64.1943 9.3936 64.1943 9.12V7.752C64.1943 7.4784 64.3767 7.296 64.6503 7.296H68.7543C69.0279 7.296 69.2103 7.1136 69.2103 6.84V5.472C69.2103 5.1984 69.3927 5.016 69.6663 5.016H73.7704C74.0439 5.016 74.2263 4.8336 74.2263 4.56V3.192C74.2263 2.9184 74.4087 2.736 74.6824 2.736H111.162C111.436 2.736 111.618 2.9184 111.618 3.192V4.56C111.618 4.8336 111.801 5.016 112.074 5.016H116.178C116.452 5.016 116.634 5.1984 116.634 5.472V6.84C116.634 7.1136 116.817 7.296 117.09 7.296H121.194C121.468 7.296 121.65 7.4784 121.65 7.752V9.12C121.65 9.3936 121.833 9.576 122.106 9.576H126.21C126.484 9.576 126.666 9.7584 126.666 10.032V11.4C126.666 11.6736 126.849 11.856 127.122 11.856H128.946C129.22 11.856 129.402 12.0384 129.402 12.312V14.136C129.402 14.4096 129.585 14.592 129.858 14.592H131.226C131.5 14.592 131.682 14.7744 131.682 15.048V19.152C131.682 19.4256 131.865 19.608 132.138 19.608H133.506C133.78 19.608 133.962 19.7904 133.962 20.064V23.712C133.962 23.9856 133.78 24.168 133.506 24.168H132.138C131.865 24.168 131.682 24.3504 131.682 24.624V25.992C131.682 26.2656 131.5 26.448 131.226 26.448H129.858C129.585 26.448 129.402 26.6304 129.402 26.904V28.728C129.402 29.0016 129.22 29.184 128.946 29.184H127.122C126.849 29.184 126.666 29.3664 126.666 29.64V31.008C126.666 31.2816 126.484 31.464 126.21 31.464H122.106C121.833 31.464 121.65 31.6464 121.65 31.92V33.288C121.65 33.5616 121.468 33.744 121.194 33.744H117.09C116.817 33.744 116.634 33.9264 116.634 34.2V35.568C116.634 35.8416 116.452 36.024 116.178 36.024H112.074C111.801 36.024 111.618 36.2064 111.618 36.48V37.848C111.618 38.1216 111.436 38.304 111.162 38.304H74.6824C74.4087 38.304 74.2263 38.1216 74.2263 37.848V36.48C74.2263 36.2064 74.0439 36.024 73.7704 36.024H69.6663C69.3927 36.024 69.2103 35.8416 69.2103 35.568V34.2C69.2103 33.9264 69.0279 33.744 68.7543 33.744H64.6503C64.3767 33.744 64.1943 33.5616 64.1943 33.288V31.92C64.1943 31.6464 64.0119 31.464 63.7383 31.464H59.6343C59.3607 31.464 59.1783 31.2816 59.1783 31.008V29.64C59.1783 29.3664 58.9959 29.184 58.7223 29.184H56.8983C56.6247 29.184 56.4423 29.0016 56.4423 28.728V26.904C56.4423 26.6304 56.2599 26.448 55.9863 26.448H54.6183C54.3447 26.448 54.1623 26.2656 54.1623 25.992V24.624C54.1623 24.3504 53.9799 24.168 53.7063 24.168H52.3383C52.0647 24.168 51.8823 23.9856 51.8823 23.712V20.064C51.8823 19.7904 52.0647 19.608 52.3383 19.608ZM144.906 93.024H143.538C143.265 93.024 143.082 93.2064 143.082 93.48V94.848C143.082 95.1216 142.9 95.304 142.626 95.304H141.258C140.985 95.304 140.802 95.4864 140.802 95.76V97.128C140.802 97.4016 140.62 97.584 140.346 97.584H138.978C138.705 97.584 138.522 97.7664 138.522 98.04V99.408C138.522 99.6816 138.34 99.864 138.066 99.864H136.698C136.425 99.864 136.242 100.046 136.242 100.32V101.688C136.242 101.962 136.06 102.144 135.786 102.144H134.418C134.145 102.144 133.962 102.326 133.962 102.6V103.968C133.962 104.242 133.78 104.424 133.506 104.424H129.402C129.129 104.424 128.946 104.606 128.946 104.88V106.248C128.946 106.522 128.764 106.704 128.49 106.704H124.386C124.113 106.704 123.93 106.886 123.93 107.16V108.528C123.93 108.802 123.748 108.984 123.474 108.984H113.898C113.625 108.984 113.442 109.166 113.442 109.44V110.808C113.442 111.082 113.26 111.264 112.986 111.264H72.8583C72.5848 111.264 72.4023 111.082 72.4023 110.808V109.44C72.4023 109.166 72.2199 108.984 71.9464 108.984H62.3703C62.0967 108.984 61.9143 108.802 61.9143 108.528V107.16C61.9143 106.886 61.7319 106.704 61.4583 106.704H57.3543C57.0807 106.704 56.8983 106.522 56.8983 106.248V104.88C56.8983 104.606 56.7159 104.424 56.4423 104.424H52.3383C52.0647 104.424 51.8823 104.242 51.8823 103.968V102.6C51.8823 102.326 51.6999 102.144 51.4263 102.144H50.0583C49.7847 102.144 49.6023 101.962 49.6023 101.688V100.32C49.6023 100.046 49.4199 99.864 49.1463 99.864H47.7783C47.5047 99.864 47.3223 99.6816 47.3223 99.408V98.04C47.3223 97.7664 47.1399 97.584 46.8663 97.584H45.4983C45.2247 97.584 45.0423 97.4016 45.0423 97.128V95.76C45.0423 95.4864 44.8599 95.304 44.5863 95.304H43.2183C42.9447 95.304 42.7623 95.1216 42.7623 94.848V93.48C42.7623 93.2064 42.5799 93.024 42.3063 93.024H40.9383C40.6647 93.024 40.4823 92.8416 40.4823 92.568V88.92C40.4823 88.6464 40.6647 88.464 40.9383 88.464H42.3063C42.5799 88.464 42.7623 88.2816 42.7623 88.008V75.696C42.7623 75.4224 42.9447 75.24 43.2183 75.24H44.5863C44.8599 75.24 45.0423 75.0576 45.0423 74.784V62.472C45.0423 62.1984 45.2247 62.016 45.4983 62.016H46.8663C47.1399 62.016 47.3223 61.8336 47.3223 61.56V49.248C47.3223 48.9744 47.5047 48.792 47.7783 48.792H49.1463C49.4199 48.792 49.6023 48.6096 49.6023 48.336V36.024C49.6023 35.7504 49.7847 35.568 50.0583 35.568H51.4263C51.6999 35.568 51.8823 35.3856 51.8823 35.112V27.36C51.8823 27.0864 52.0647 26.904 52.3383 26.904H53.2503C53.5239 26.904 53.7063 27.0864 53.7063 27.36V31.464C53.7063 31.7376 53.8887 31.92 54.1623 31.92H58.2663C58.5399 31.92 58.7223 32.1024 58.7223 32.376V33.744C58.7223 34.0176 58.9047 34.2 59.1783 34.2H63.2823C63.5559 34.2 63.7383 34.3824 63.7383 34.656V36.024C63.7383 36.2976 63.9207 36.48 64.1943 36.48H68.2983C68.5719 36.48 68.7543 36.6624 68.7543 36.936V38.304C68.7543 38.5776 68.9367 38.76 69.2103 38.76H73.3144C73.5879 38.76 73.7704 38.9424 73.7704 39.216V40.584C73.7704 40.8576 73.9528 41.04 74.2263 41.04H111.618C111.892 41.04 112.074 40.8576 112.074 40.584V39.216C112.074 38.9424 112.257 38.76 112.53 38.76H116.634C116.908 38.76 117.09 38.5776 117.09 38.304V36.936C117.09 36.6624 117.273 36.48 117.546 36.48H121.65C121.924 36.48 122.106 36.2976 122.106 36.024V34.656C122.106 34.3824 122.289 34.2 122.562 34.2H126.666C126.94 34.2 127.122 34.0176 127.122 33.744V32.376C127.122 32.1024 127.305 31.92 127.578 31.92H131.682C131.956 31.92 132.138 31.7376 132.138 31.464V27.36C132.138 27.0864 132.321 26.904 132.594 26.904H133.506C133.78 26.904 133.962 27.0864 133.962 27.36V35.112C133.962 35.3856 134.145 35.568 134.418 35.568H135.786C136.06 35.568 136.242 35.7504 136.242 36.024V48.336C136.242 48.6096 136.425 48.792 136.698 48.792H138.066C138.34 48.792 138.522 48.9744 138.522 49.248V61.56C138.522 61.8336 138.705 62.016 138.978 62.016H140.346C140.62 62.016 140.802 62.1984 140.802 62.472V74.784C140.802 75.0576 140.985 75.24 141.258 75.24H142.626C142.9 75.24 143.082 75.4224 143.082 75.696V88.008C143.082 88.2816 143.265 88.464 143.538 88.464H144.906C145.18 88.464 145.362 88.6464 145.362 88.92V92.568C145.362 92.8416 145.18 93.024 144.906 93.024Z" fill="#292D33"/>
<path d="M91.0985 20.4287C91.3721 19.6991 92.1929 19.4255 92.9225 19.6079L107.058 24.6239L114.719 27.3599L115.175 27.5423L115.814 27.8159C116.178 27.9983 116.634 28.1807 116.999 28.3631C117.729 28.8191 118.55 29.2751 119.188 29.8223C120.556 30.9167 121.65 32.3759 122.562 34.0175C123.383 35.6591 123.93 37.3919 124.113 39.2159L124.386 43.4111L124.934 51.5279L125.937 67.8528L126.94 84.1776L127.487 92.2943L127.578 93.2975V93.8448V93.9359V94.0271C127.578 94.2095 127.67 94.3919 127.761 94.5743C127.943 94.9391 128.217 95.2127 128.49 95.4863C129.038 95.9423 129.767 96.1248 130.314 96.0335C130.406 96.0335 130.497 96.0335 130.497 96.0335H130.588H131.044L133.05 95.9423L137.154 95.6687L151.929 94.7567C152.75 94.6656 153.479 95.3952 153.479 96.2159V112.541C153.479 113.362 152.75 114 151.929 114L137.154 113.088L133.05 112.814L131.044 112.723L129.585 112.632C128.946 112.632 128.399 112.45 127.761 112.358C122.927 111.446 118.732 108.528 116.087 104.698C114.81 102.782 113.898 100.502 113.442 98.2223C113.26 97.1279 113.078 95.9423 113.078 94.7567V94.3007V94.1183V94.0271V93.4799L113.169 92.4767L113.716 84.3599L114.719 68.0351L115.722 51.7103L116.27 43.5935L116.543 39.6719C116.634 38.7599 116.452 37.9391 116.178 37.0271C115.905 36.2063 115.449 35.3855 114.719 34.6559C114.446 34.2911 114.081 34.0175 113.625 33.6527C113.442 33.5615 113.26 33.3791 112.986 33.2879L112.622 33.1055L112.166 32.8319L104.87 29.1839L91.4633 22.4351C91.0985 21.9791 90.8249 21.1583 91.0985 20.4287Z" fill="#292D33"/>
<path d="M98.7592 19.7904C98.9416 19.6992 98.9416 19.5168 98.7592 19.4256L97.1176 18.5136L95.2024 17.4192L93.5608 16.5072C93.3784 16.416 93.1048 16.416 92.9224 16.5072L91.9192 17.0544C91.7368 17.1456 91.4632 17.1456 91.2808 17.0544L90.2776 16.5072C90.0952 16.416 89.8216 16.416 89.6392 16.5072L86.0824 18.5136L84.4408 19.4256C84.2584 19.5168 84.2584 19.6992 84.4408 19.7904L85.444 20.3376C85.6264 20.4288 85.6264 20.6112 85.444 20.7024L84.4408 21.2496C84.2584 21.3408 84.2584 21.5232 84.4408 21.6144L86.0824 22.5264L89.6392 24.5328C89.8216 24.624 90.0952 24.624 90.2776 24.5328L91.2808 23.9856C91.4632 23.8944 91.7368 23.8944 91.9192 23.9856L92.9224 24.5328C93.1048 24.624 93.3784 24.624 93.5608 24.5328L95.2024 23.6208L97.1176 22.5264L98.7592 21.6144C98.9416 21.5232 98.9416 21.3408 98.7592 21.2496L97.756 20.7024C97.5736 20.6112 97.5736 20.4288 97.756 20.3376L98.7592 19.7904Z" fill="#C3CAD4" stroke="#292D33" stroke-width="2"/>
</svg>
