<svg width="191" height="114" viewBox="0 0 191 114" fill="none" xmlns="http://www.w3.org/2000/svg">
<path d="M0.919434 111.703V18.1129C0.919434 17.1016 1.74685 16.2742 2.75814 16.2742H188.1C189.111 16.2742 189.939 17.1016 189.939 18.1129V111.703C189.939 112.715 189.111 113.542 188.1 113.542H2.75814C1.74685 113.542 0.919434 112.715 0.919434 111.703Z" fill="#292D33"/>
<path d="M133.123 29.8807H131.744C128.894 29.8807 126.411 31.9032 126.411 34.2936C126.411 36.7758 128.802 38.7065 131.744 38.7065H133.123V43.2113C135.237 43.579 136.984 44.5903 138.179 46.0613C139.374 44.5903 141.121 43.579 143.236 43.2113V38.7065H144.615C147.465 38.7065 149.947 36.6839 149.947 34.2936C149.947 31.8113 147.557 29.8807 144.615 29.8807H143.236V25.4678C141.121 25.1 139.282 24.0887 138.179 22.6178C137.903 22.9855 137.536 23.3532 137.168 23.629C136.065 24.4565 134.778 25.0081 133.215 25.3758V29.8807H133.123Z" fill="white"/>
<path d="M76.3984 29.8807H75.0194C72.1694 29.8807 69.7791 31.9032 69.7791 34.2936C69.7791 36.7758 72.1694 38.7065 75.0194 38.7065H76.3984V43.2113C78.5129 43.579 80.2597 44.5903 81.4549 46.0613C82.65 44.5903 84.3968 43.579 86.5113 43.2113V38.7065H87.8903C90.7403 38.7065 93.2226 36.6839 93.2226 34.2936C93.2226 31.8113 90.8323 29.8807 87.8903 29.8807H86.5113V25.4678C84.3968 25.1 82.5581 24.0887 81.4549 22.6178C81.1791 22.9855 80.8113 23.3532 80.4436 23.629C79.3403 24.4565 78.0532 25.0081 76.3984 25.3758V29.8807Z" fill="white"/>
<path d="M24.6388 46.0613C25.834 44.5903 27.5808 43.579 29.6953 43.2113V38.7065H31.0743C33.9243 38.7065 36.4066 36.6839 36.4066 34.2936C36.4066 31.8113 34.0163 29.8807 31.0743 29.8807H29.6953V25.4678C27.5808 25.1919 25.7421 24.0887 24.6388 22.6178C24.363 22.9855 23.9953 23.3532 23.6275 23.629C22.5243 24.5484 21.1453 25.0081 19.5824 25.3758V29.8807H18.2034C15.3534 29.8807 12.8711 31.9032 12.8711 34.2936C12.8711 36.7758 15.2614 38.7065 18.2034 38.7065H19.5824V43.2113C21.6969 43.579 23.4437 44.5903 24.6388 46.0613Z" fill="white"/>
<path d="M47.9903 29.8807H46.6113C43.7613 29.8807 41.2791 31.9032 41.2791 34.2936C41.2791 36.7758 43.6694 38.7065 46.6113 38.7065H47.9903V43.2113C50.1049 43.579 51.8516 44.5903 53.0468 46.0613C54.242 44.5903 55.9887 43.579 58.1032 43.2113V38.7065H59.4823C62.3323 38.7065 64.8145 36.6839 64.8145 34.2936C64.8145 31.8113 62.4242 29.8807 59.4823 29.8807H58.1032V25.4678C55.9887 25.1 54.15 24.0887 53.0468 22.6178C52.6791 22.9855 52.4032 23.3532 51.9436 23.629C50.8403 24.4565 49.5532 25.0081 47.8984 25.3758V29.8807H47.9903Z" fill="#C3CAD4"/>
<path d="M31.0743 53.8758H32.4533V58.1968C35.4872 58.6565 37.9694 60.5871 38.7969 63.0694C39.6243 60.5871 42.1065 58.6565 45.1404 58.1968V54.0597L46.2436 53.8758C48.0823 53.6 49.1856 53.1403 50.013 52.4968C50.7485 51.8532 51.3001 51.1178 51.5759 49.5549C51.392 47.2565 49.1856 45.5097 46.5194 45.4178H45.1404V41.0049C42.1065 40.5452 39.6243 38.6145 38.7969 36.1323C37.9694 38.6145 35.4872 40.5452 32.4533 41.0049V45.4178H31.0743C28.3162 45.4178 26.2017 47.2565 26.0178 49.5549C26.1098 51.9452 28.3162 53.7839 31.0743 53.8758Z" fill="#F2F4F7"/>
<path d="M104.807 29.8807H103.428C100.578 29.8807 98.1873 31.9032 98.1873 34.2936C98.1873 36.7758 100.578 38.7065 103.428 38.7065H104.807V43.2113C106.921 43.579 108.668 44.5903 109.863 46.0613C111.058 44.5903 112.805 43.579 114.92 43.2113V38.7065H116.299C119.149 38.7065 121.631 36.6839 121.631 34.2936C121.631 31.8113 119.24 29.8807 116.299 29.8807H114.92V25.4678C112.805 25.1 110.966 24.0887 109.863 22.6178C109.587 22.9855 109.22 23.3532 108.852 23.629C107.749 24.4565 106.461 25.0081 104.899 25.3758V29.8807H104.807Z" fill="#C3CAD4"/>
<path d="M138.179 53.2323C137.903 53.6 137.536 53.9678 137.168 54.2436C136.065 55.071 134.778 55.6226 133.215 55.9903V60.4952H131.836C128.986 60.4952 126.503 62.5178 126.503 64.9081C126.503 67.3903 128.894 69.321 131.836 69.321H133.215V73.8258C135.329 74.1936 137.076 75.2048 138.271 76.6758C139.466 75.2048 141.213 74.1936 143.328 73.8258V69.321H144.707C147.557 69.321 150.039 67.2984 150.039 64.9081C150.039 62.4258 147.649 60.4952 144.707 60.4952H143.328V56.0823C141.121 55.7145 139.374 54.7032 138.179 53.2323Z" fill="#C3CAD4"/>
<path d="M86.5113 69.321H87.8903C90.7403 69.321 93.2226 67.2984 93.2226 64.9081C93.2226 62.4258 90.8323 60.4952 87.8903 60.4952H86.5113V56.0823C84.3968 55.7145 82.5581 54.7032 81.4549 53.2323C81.1791 53.6 80.8113 53.9678 80.4436 54.2436C79.3403 55.071 78.0532 55.6226 76.3984 55.9903V60.4952H75.0194C72.1694 60.4952 69.7791 62.5178 69.7791 64.9081C69.7791 67.3903 72.1694 69.321 75.0194 69.321H76.3984V73.8258C78.5129 74.1936 80.2597 75.2048 81.4549 76.6758C82.65 75.2048 84.3968 74.1936 86.5113 73.8258V69.321Z" fill="#C3CAD4"/>
<path d="M95.613 36.1323C94.7856 38.6145 92.3033 40.5452 89.2695 41.0049V45.4178H87.8904C85.1324 45.4178 83.0179 47.2565 82.834 49.5549C82.9259 51.8532 85.1324 53.7839 87.8904 53.7839H89.2695V58.1049C92.3033 58.5645 94.7856 60.4952 95.613 62.9774C96.4404 60.4952 98.9227 58.5645 101.957 58.1049V53.9678L103.06 53.7839C104.899 53.5081 106.094 53.0484 106.829 52.4049C107.565 51.7613 108.116 51.0258 108.392 49.4629C108.208 47.1645 106.002 45.4178 103.336 45.3258H101.957V40.9129C98.9227 40.5452 96.4404 38.6145 95.613 36.1323Z" fill="#F2F4F7"/>
<path d="M114.919 69.321H116.298C119.148 69.321 121.631 67.2984 121.631 64.9081C121.631 62.4258 119.24 60.4952 116.298 60.4952H114.919V56.0823C112.805 55.7145 110.966 54.7032 109.863 53.2323C109.587 53.6 109.219 53.9678 108.852 54.2436C107.748 55.071 106.461 55.6226 104.898 55.9903V60.4952H103.519C100.669 60.4952 98.2791 62.5178 98.2791 64.9081C98.2791 67.3903 100.669 69.321 103.519 69.321H104.898V73.8258C107.013 74.1936 108.76 75.2048 109.955 76.6758C111.15 75.2048 112.897 74.1936 115.011 73.8258V69.321H114.919Z" fill="white"/>
<path d="M124.021 36.1323C123.194 38.6145 120.711 40.5452 117.677 41.0049V45.4178H116.298C113.632 45.4178 111.426 47.2565 111.242 49.5549C111.334 51.8532 113.54 53.7839 116.298 53.7839H117.677V58.1049C120.711 58.5645 123.194 60.4952 124.113 62.9774C124.94 60.4952 127.423 58.5645 130.456 58.1049V53.9678L131.56 53.7839C133.398 53.5081 134.594 53.0484 135.329 52.4049C136.065 51.7613 136.616 51.0258 136.892 49.4629C136.708 47.1645 134.502 45.4178 131.835 45.3258H130.456V40.9129C127.331 40.5452 124.848 38.6145 124.021 36.1323Z" fill="#F2F4F7"/>
<path d="M166.587 22.6178C166.311 22.9855 165.944 23.3532 165.576 23.629C164.473 24.4565 163.186 25.0081 161.623 25.3758V29.8807H160.244C157.394 29.8807 154.911 31.9032 154.911 34.2936C154.911 36.7758 157.302 38.7065 160.244 38.7065H161.623V43.2113C163.737 43.579 165.484 44.5903 166.679 46.0613C167.874 44.5903 169.621 43.579 171.736 43.2113V38.7065H173.115C175.965 38.7065 178.447 36.6839 178.447 34.2936C178.447 31.8113 176.057 29.8807 173.115 29.8807H171.736V25.4678C169.529 25.1919 167.69 24.0887 166.587 22.6178Z" fill="#C3CAD4"/>
<path d="M166.587 53.2323C166.311 53.6 165.944 53.9678 165.576 54.2436C164.473 55.071 163.186 55.6226 161.623 55.9903V60.4952H160.244C157.394 60.4952 154.911 62.5178 154.911 64.9081C154.911 67.3903 157.302 69.321 160.244 69.321H161.623V73.8258C163.737 74.1936 165.484 75.2048 166.679 76.6758C167.874 75.2048 169.621 74.1936 171.736 73.8258V69.321H173.115C175.965 69.321 178.447 67.2984 178.447 64.9081C178.447 62.4258 176.057 60.4952 173.115 60.4952H171.736V56.0823C169.529 55.7145 167.69 54.7032 166.587 53.2323Z" fill="white"/>
<path d="M24.6388 76.6758C25.834 75.2048 27.5808 74.1936 29.6953 73.8258V69.321H31.0743C33.9243 69.321 36.4066 67.2984 36.4066 64.9081C36.4066 62.4258 34.0163 60.4952 31.0743 60.4952H29.6953V56.0823C27.5808 55.7145 25.7421 54.7032 24.6388 53.2323C24.363 53.6 23.9953 53.9678 23.6275 54.2436C22.5243 55.071 21.2372 55.6226 19.5824 55.9903V60.4952H18.2034C15.3534 60.4952 12.8711 62.5178 12.8711 64.9081C12.8711 67.3903 15.2614 69.321 18.2034 69.321H19.5824V73.8258C21.6969 74.1016 23.4437 75.2048 24.6388 76.6758Z" fill="#C3CAD4"/>
<path d="M166.587 83.7549C166.311 84.1226 165.944 84.4903 165.576 84.7661C164.473 85.5936 163.186 86.1452 161.623 86.5129V91.0178H160.244C157.394 91.0178 154.911 93.0403 154.911 95.4307C154.911 97.9129 157.302 99.8436 160.244 99.8436H161.623V104.348C163.737 104.716 165.484 105.727 166.679 107.198C167.874 105.727 169.621 104.716 171.736 104.348V99.9355H173.115C175.965 99.9355 178.447 97.9129 178.447 95.5226C178.447 93.0403 176.057 91.1097 173.115 91.1097H171.736V86.6968C169.529 86.329 167.69 85.2258 166.587 83.7549Z" fill="#C3CAD4"/>
<path d="M144.706 23.2613H146.086V27.5823C149.119 28.042 151.602 29.9726 152.429 32.4549C153.256 29.9726 155.739 28.042 158.773 27.5823V23.5371L159.876 23.3532C161.715 23.0774 162.91 22.6178 163.645 21.9742C164.381 21.3307 164.932 20.5952 165.208 19.0323H139.558C139.742 21.4226 141.948 23.2613 144.706 23.2613Z" fill="#F2F4F7"/>
<path d="M67.2048 36.1323C66.3774 38.6145 63.8951 40.5452 60.8613 41.0049V45.4178H59.4822C56.7242 45.4178 54.6097 47.2565 54.4258 49.5549C54.5177 51.8532 56.7242 53.7839 59.4822 53.7839H60.8613V58.1049C63.8951 58.5645 66.3774 60.4952 67.2048 62.9774C68.0322 60.4952 70.5145 58.5645 73.5484 58.1049V53.9678L74.6516 53.7839C76.4903 53.5081 77.6855 53.0484 78.4209 52.4049C79.2484 51.7613 79.708 51.0258 79.9838 49.4629C79.8 47.1645 77.5935 45.4178 74.9274 45.3258H73.5484V40.9129C70.6064 40.5452 68.0322 38.6145 67.2048 36.1323Z" fill="#F2F4F7"/>
<path d="M160.152 76.0323H158.773V71.6194C155.739 71.1597 153.257 69.2291 152.429 66.7468C151.602 69.2291 149.12 71.1597 146.086 71.6194V76.0323H144.707C142.04 76.0323 139.834 77.871 139.65 80.1694C139.742 82.4678 141.949 84.3984 144.707 84.3984H146.086V88.7194C149.12 89.1791 151.602 91.1097 152.429 93.592C153.257 91.1097 155.739 89.1791 158.773 88.7194V84.5823L159.876 84.3984C161.715 84.1226 162.91 83.6629 163.645 83.0194C164.381 82.3758 164.932 81.6403 165.208 80.0774C165.024 77.871 162.91 76.1242 160.152 76.0323Z" fill="#F2F4F7"/>
<path d="M143.236 99.9355H144.615C147.465 99.9355 149.947 97.9129 149.947 95.5226C149.947 93.0403 147.557 91.1097 144.615 91.1097H143.236V86.6968C141.121 86.329 139.282 85.3178 138.179 83.8468C137.903 84.2145 137.536 84.5823 137.168 84.8581C136.065 85.6855 134.778 86.2371 133.215 86.6049V91.1097H131.836C128.986 91.1097 126.503 93.1323 126.503 95.5226C126.503 98.0048 128.894 99.9355 131.836 99.9355H133.215V104.44C135.329 104.808 137.076 105.819 138.271 107.29C139.466 105.819 141.213 104.808 143.328 104.44V99.9355H143.236Z" fill="white"/>
<path d="M58.1032 99.9355H59.4823C62.3323 99.9355 64.8145 97.9129 64.8145 95.5226C64.8145 93.0403 62.4242 91.1097 59.4823 91.1097H58.1032V86.6968C55.9887 86.329 54.15 85.3178 53.0468 83.8468C52.771 84.2145 52.4032 84.5823 52.0355 84.8581C50.9323 85.6855 49.6452 86.2371 47.9903 86.6049V91.1097H46.6113C43.7613 91.1097 41.2791 93.1323 41.2791 95.5226C41.2791 98.0048 43.6694 99.9355 46.6113 99.9355H47.9903V104.44C50.1049 104.808 51.8516 105.819 53.0468 107.29C54.242 105.819 55.9887 104.808 58.1032 104.44V99.9355Z" fill="#C3CAD4"/>
<path d="M29.6953 99.9355H31.0743C33.9243 99.9355 36.4066 97.9129 36.4066 95.5226C36.4066 93.0403 34.0163 91.1097 31.0743 91.1097H29.6953V86.6968C27.5808 86.329 25.7421 85.2258 24.6388 83.7549C24.363 84.1226 23.9953 84.4903 23.6275 84.7661C22.5243 85.5936 21.2372 86.1452 19.5824 86.5129V91.0178H18.2034C15.3534 91.0178 12.8711 93.0403 12.8711 95.4307C12.8711 97.9129 15.2614 99.8436 18.2034 99.8436H19.5824V104.348C21.6969 104.716 23.4437 105.727 24.6388 107.198C25.834 105.727 27.5808 104.716 29.6953 104.348V99.9355Z" fill="white"/>
<path d="M86.5113 99.9355H87.8903C90.7403 99.9355 93.2226 97.9129 93.2226 95.5226C93.2226 93.0403 90.8323 91.1097 87.8903 91.1097H86.5113V86.6968C84.3968 86.329 82.5581 85.3178 81.4549 83.8468C81.1791 84.2145 80.8113 84.5823 80.4436 84.8581C79.3403 85.6855 78.0532 86.2371 76.3984 86.6049V91.1097H75.0194C72.1694 91.1097 69.7791 93.1323 69.7791 95.5226C69.7791 98.0048 72.1694 99.9355 75.0194 99.9355H76.3984V104.44C78.5129 104.808 80.2597 105.819 81.4549 107.29C82.65 105.819 84.3968 104.808 86.5113 104.44V99.9355Z" fill="white"/>
<path d="M114.919 99.9355H116.298C119.148 99.9355 121.631 97.9129 121.631 95.5226C121.631 93.0403 119.24 91.1097 116.298 91.1097H114.919V86.6968C112.805 86.329 110.966 85.3178 109.863 83.8468C109.587 84.2145 109.219 84.5823 108.852 84.8581C107.748 85.6855 106.461 86.2371 104.898 86.6049V91.1097H103.519C100.669 91.1097 98.2791 93.1323 98.2791 95.5226C98.2791 98.0048 100.669 99.9355 103.519 99.9355H104.898V104.44C107.013 104.808 108.76 105.819 109.955 107.29C111.15 105.819 112.897 104.808 115.011 104.44V99.9355H114.919Z" fill="#C3CAD4"/>
<path d="M87.8904 23.2613H89.2695V27.5823C92.3033 28.042 94.7856 29.9726 95.613 32.4549C96.4404 29.9726 98.9227 28.042 101.957 27.5823V23.5371L103.06 23.3532C104.899 23.0774 106.094 22.6178 106.829 21.9742C107.565 21.3307 108.116 20.5952 108.392 19.0323H82.834C82.9259 21.4226 85.1324 23.2613 87.8904 23.2613Z" fill="#F2F4F7"/>
<path d="M180.837 97.2693C180.01 99.7516 177.528 101.682 174.494 102.142V106.555H173.115C171.736 106.555 170.541 107.015 169.621 107.75C168.702 108.485 168.15 109.497 168.058 110.692H187.273V102.142C184.147 101.682 181.665 99.7516 180.837 97.2693Z" fill="#F2F4F7"/>
<path d="M183.319 95.4307C183.319 97.4532 184.974 99.2 187.181 99.7516V91.2016C184.974 91.6613 183.319 93.4081 183.319 95.4307Z" fill="#F2F4F7"/>
<path d="M160.152 106.647H158.773V102.234C155.739 101.774 153.257 99.8435 152.429 97.3613C151.602 99.8435 149.12 101.774 146.086 102.234V106.647H144.707C142.04 106.647 139.834 108.485 139.65 110.784H165.3C165.024 108.485 162.91 106.647 160.152 106.647Z" fill="#F2F4F7"/>
<path d="M131.744 106.647H130.365V102.234C127.331 101.774 124.848 99.8435 124.021 97.3613C123.194 99.8435 120.711 101.774 117.677 102.234V106.647H116.298C113.632 106.647 111.426 108.485 111.242 110.784H136.892C136.616 108.485 134.502 106.647 131.744 106.647Z" fill="#F2F4F7"/>
<path d="M80.0759 110.692C79.892 108.394 77.6856 106.647 75.0194 106.555H73.6404V102.142C70.6065 101.682 68.1243 99.7516 67.2969 97.2693C66.4694 99.7516 63.9872 101.682 60.9533 102.142V106.555H59.5743C56.8162 106.555 54.7017 108.394 54.5178 110.692H80.0759Z" fill="#F2F4F7"/>
<path d="M108.392 110.692C108.208 108.394 106.002 106.647 103.336 106.555H101.957V102.142C98.9227 101.682 96.4404 99.7516 95.613 97.2693C94.7856 99.7516 92.3033 101.682 89.2695 102.142V106.555H87.8904C85.1324 106.555 83.0179 108.394 82.834 110.692H108.392C108.484 110.692 108.484 110.692 108.392 110.692Z" fill="#F2F4F7"/>
<path d="M167.966 19.0323C168.058 21.3307 170.265 23.2613 173.023 23.2613H174.402V27.5823C177.436 28.042 179.918 29.9726 180.745 32.4549C181.573 29.9726 184.055 28.042 187.089 27.5823V19.0323H167.966Z" fill="#F2F4F7"/>
<path d="M180.837 66.6549C180.01 69.1371 177.528 71.0678 174.494 71.5275V76.0323H173.115C171.736 76.0323 170.541 76.492 169.621 77.2275C168.702 77.9629 168.15 78.9742 168.058 80.1694C168.15 82.4678 170.357 84.3984 173.115 84.3984H174.494V88.7194C177.528 89.1791 180.01 91.1097 180.837 93.592C181.665 91.1097 184.147 89.1791 187.181 88.7194V71.6194C184.147 71.1597 181.665 69.2291 180.837 66.6549Z" fill="#F2F4F7"/>
<path d="M183.319 34.2936C183.319 36.3161 184.974 38.0629 187.181 38.6145V30.0645C184.974 30.5242 183.319 32.271 183.319 34.2936Z" fill="#F2F4F7"/>
<path d="M180.837 36.1323C180.01 38.6145 177.528 40.5452 174.494 41.0048V45.4177H173.115C171.736 45.4177 170.541 45.8774 169.621 46.6129C168.702 47.3484 168.15 48.3597 168.058 49.5548C168.15 51.8532 170.357 53.7839 173.115 53.7839H174.494V58.1048C177.528 58.5645 180.01 60.4952 180.837 62.9774C181.665 60.4952 184.147 58.5645 187.181 58.1048V41.0048C184.147 40.5452 181.665 38.6145 180.837 36.1323Z" fill="#F2F4F7"/>
<path d="M183.319 64.9081C183.319 66.9307 184.974 68.6774 187.181 69.229V60.679C184.974 61.1387 183.319 62.8855 183.319 64.9081Z" fill="#F2F4F7"/>
<path d="M58.1032 69.321H59.4823C62.3323 69.321 64.8145 67.2984 64.8145 64.9081C64.8145 62.4258 62.4242 60.4952 59.4823 60.4952H58.1032V56.0823C55.9887 55.7145 54.15 54.7032 53.0468 53.2323C52.771 53.6 52.4032 53.9678 52.0355 54.2436C50.9323 55.071 49.6452 55.6226 47.9903 55.9903V60.4952H46.6113C43.7613 60.4952 41.2791 62.5178 41.2791 64.9081C41.2791 67.3903 43.6694 69.321 46.6113 69.321H47.9903V73.8258C50.1049 74.1936 51.8516 75.2048 53.0468 76.6758C54.242 75.2048 55.9887 74.1936 58.1032 73.8258V69.321Z" fill="white"/>
<path d="M124.021 93.6839C124.848 91.2016 127.331 89.271 130.365 88.8113V84.6742L131.468 84.4903C133.306 84.2145 134.502 83.7549 135.237 83.1113C135.973 82.4678 136.524 81.7323 136.8 80.1694C136.616 77.871 134.41 76.1242 131.744 76.0323H130.365V71.6194C127.331 71.1597 124.848 69.2291 124.021 66.7468C123.194 69.2291 120.711 71.1597 117.677 71.6194V76.0323H116.298C113.632 76.0323 111.426 77.871 111.242 80.1694C111.334 82.4678 113.54 84.3984 116.298 84.3984H117.677V88.7194C120.711 89.1791 123.194 91.1097 124.021 93.6839Z" fill="#F2F4F7"/>
<path d="M95.613 93.6839C96.4404 91.2016 98.9227 89.271 101.957 88.8113V84.6742L103.06 84.4903C104.899 84.2145 106.094 83.7549 106.829 83.1113C107.565 82.4678 108.116 81.7323 108.392 80.1694C108.208 77.871 106.002 76.1242 103.336 76.0323H101.957V71.6194C98.9227 71.1597 96.4404 69.2291 95.613 66.7468C94.7856 69.2291 92.3033 71.1597 89.2695 71.6194V76.0323H87.8904C85.1324 76.0323 83.0179 77.871 82.834 80.1694C82.9259 82.4678 85.1324 84.3984 87.8904 84.3984H89.2695V88.7194C92.3033 89.1791 94.7856 91.1097 95.613 93.6839Z" fill="#F2F4F7"/>
<path d="M38.797 93.6839C39.6244 91.2016 42.1066 89.271 45.1405 88.8113V84.6742L46.2437 84.4903C48.0825 84.2145 49.1857 83.7549 50.0131 83.1113C50.7486 82.4678 51.3002 81.7323 51.576 80.1694C51.4841 77.871 49.2776 76.1242 46.6115 76.0323H45.2325V71.6194C42.1986 71.1597 39.7163 69.2291 38.8889 66.7468C38.0615 69.2291 35.5792 71.1597 32.5454 71.6194V76.0323H31.1663C28.4083 76.0323 26.2937 77.871 26.1099 80.1694C26.2018 82.4678 28.4083 84.3984 31.1663 84.3984H32.5454V88.7194C35.4873 89.1791 37.9695 91.1097 38.797 93.6839Z" fill="#F2F4F7"/>
<path d="M67.2048 93.6839C68.0322 91.2016 70.5145 89.271 73.5484 88.8113V84.6742L74.6516 84.4903C76.4903 84.2145 77.6855 83.7549 78.4209 83.1113C79.2484 82.4678 79.708 81.7323 79.9838 80.1694C79.8 77.871 77.5935 76.1242 74.9274 76.0323H73.5484V71.6194C70.5145 71.1597 68.0322 69.2291 67.2048 66.7468C66.3774 69.2291 63.8951 71.1597 60.8613 71.6194V76.0323H59.4822C56.7242 76.0323 54.6097 77.871 54.4258 80.1694C54.5177 82.4678 56.7242 84.3984 59.4822 84.3984H60.8613V88.7194C63.8951 89.1791 66.3774 91.1097 67.2048 93.6839Z" fill="#F2F4F7"/>
<path d="M160.152 45.5097H158.773V41.0968C155.739 40.6371 153.257 38.7065 152.429 36.2242C151.602 38.7065 149.12 40.6371 146.086 41.0968V45.5097H144.707C142.04 45.5097 139.834 47.3484 139.65 49.6468C139.742 51.9452 141.949 53.8758 144.707 53.8758H146.086V58.1968C149.12 58.6565 151.602 60.5871 152.429 63.0694C153.257 60.5871 155.739 58.6565 158.773 58.1968V54.0597L159.876 53.8758C161.715 53.6 162.91 53.1403 163.645 52.4968C164.381 51.8532 164.932 51.1178 165.208 49.5549C165.024 47.3484 162.91 45.5097 160.152 45.5097Z" fill="#F2F4F7"/>
<path d="M51.6679 110.692C51.4841 108.394 49.2776 106.647 46.6115 106.555H45.2324V102.142C42.1986 101.682 39.7163 99.7516 38.8889 97.2693C38.0615 99.7516 35.5792 101.682 32.5453 102.142V106.555H31.1663C28.4083 106.555 26.2937 108.394 26.1099 110.692H51.6679Z" fill="#F2F4F7"/>
<path d="M18.2033 106.647H16.8243V102.234C13.7904 101.774 11.3081 99.8436 10.4807 97.3613C9.6533 99.8436 7.17104 101.774 4.13717 102.234V99.8436C6.34362 99.292 7.99846 97.6371 7.99846 95.5226C7.99846 93.5 6.34362 91.7533 4.13717 91.2936V88.9033C7.17104 89.3629 9.6533 91.2936 10.4807 93.7758C11.3081 91.2936 13.7904 89.3629 16.8243 88.9033V84.7662L17.9275 84.5823C19.7662 84.3065 20.9614 83.8468 21.6969 83.2033C22.4323 82.5597 22.9839 81.8242 23.2598 80.2613C23.0759 77.9629 20.8694 76.2162 18.2033 76.1242H16.8243V71.7113C13.7904 71.2516 11.3081 69.321 10.4807 66.8387C9.6533 69.321 7.17104 71.2516 4.13717 71.7113V69.321C6.34362 68.7694 7.99846 67.1145 7.99846 65C7.99846 62.9774 6.34362 61.2307 4.13717 60.771V58.3807C7.17104 58.8403 9.6533 60.771 10.4807 63.2532C11.3081 60.771 13.7904 58.8403 16.8243 58.3807V54.2436L17.9275 54.0597C19.7662 53.7839 20.9614 53.3242 21.6969 52.6807C22.4323 52.0371 22.9839 51.3016 23.2598 49.7387C23.0759 47.4403 20.8694 45.6936 18.2033 45.6016H16.8243V41.1887C13.7904 40.7291 11.3081 38.7984 10.4807 36.3161C9.6533 38.7984 7.17104 40.7291 4.13717 41.1887V38.7984C6.34362 38.2468 7.99846 36.592 7.99846 34.4774C7.99846 32.4549 6.34362 30.7081 4.13717 30.2484V27.8581C7.17104 28.3178 9.6533 30.2484 10.4807 32.7307C11.3081 30.2484 13.7904 28.3178 16.8243 27.8581V23.5371L17.9275 23.3532C19.7662 23.0774 20.9614 22.6178 21.6969 21.9742C22.4323 21.3307 22.9839 20.5952 23.2598 19.0323H3.67749V110.784H23.2598C23.0759 108.486 20.8694 106.647 18.2033 106.647Z" fill="#F2F4F7"/>
<path d="M116.298 23.2613H117.677V27.5823C120.711 28.042 123.194 29.9726 124.113 32.4549C124.94 29.9726 127.423 28.042 130.456 27.5823V23.5371L131.56 23.3532C133.398 23.0774 134.594 22.6178 135.329 21.9742C136.065 21.3307 136.616 20.5952 136.892 19.0323H111.242C111.334 21.4226 113.54 23.2613 116.298 23.2613Z" fill="#F2F4F7"/>
<path d="M31.0743 23.2613H32.4533V27.5823C35.4872 28.042 37.9694 29.9726 38.7969 32.4549C39.6243 29.9726 42.1065 28.042 45.1404 27.5823V23.5371L46.2436 23.3532C48.0823 23.0774 49.1856 22.6178 50.013 21.9742C50.7485 21.3307 51.3001 20.5952 51.5759 19.0323H26.0178C26.1098 21.4226 28.3162 23.2613 31.0743 23.2613Z" fill="#F2F4F7"/>
<path d="M59.4822 23.2613H60.8613V27.5823C63.8951 28.042 66.3774 29.9726 67.2048 32.4549C68.0322 29.9726 70.5145 28.042 73.5484 27.5823V23.5371L74.6516 23.3532C76.4903 23.0774 77.6855 22.6178 78.4209 21.9742C79.2484 21.3307 79.708 20.5952 79.9838 19.0323H54.4258C54.5177 21.4226 56.7242 23.2613 59.4822 23.2613Z" fill="#F2F4F7"/>
</svg>
