<svg width="118" height="114" viewBox="0 0 118 114" fill="none" xmlns="http://www.w3.org/2000/svg">
<g clip-path="url(#clip0_2498_34888)">
<path d="M115.605 27.5807V19.7661H113.307V14.7097H111.008V12.4113H108.71V10.1129H106.411V7.81452H104.113V5.51613H99.0566V3.21774H94.0001V0.919357H74.6936V3.21774H69.6372V5.51613H64.5807V7.81452H62.2824V10.1129H56.7662V7.81452H54.4678V5.51613H49.4114V3.21774H44.3549V0.919357H25.0485V3.21774H19.992V5.51613H14.9356V7.81452H12.6372V10.1129H10.3388V12.4113H8.04043V14.7097H5.74204V19.7661H3.44365V27.5807H1.14526V35.8548H3.44365V46.4274H5.74204V54.15H8.04043V59.2065H10.3388V61.5049H12.6372V66.5613H14.9356V71.6178H17.234V73.9161H19.5324V76.2145H21.8307V78.5129H24.1291V80.8113H26.4275V85.8678H28.7259V88.1661H31.0243V90.4645H33.3227V92.7629H35.6211V95.0613H37.9195V97.3597H40.2178V99.6581H42.5162V101.956H44.8146V104.255H47.113V106.553H49.4114V108.852H54.4678V111.058H56.7662V113.356H62.2824V111.058H64.5807V108.852H69.6372V106.553H71.9356V104.255H74.234V101.956H76.5324V99.6581H78.8307V97.3597H81.1291V95.0613H83.4275V92.7629H85.7259V90.4645H88.0243V88.1661H90.3227V85.8678H92.6211V80.8113H94.9195V78.5129H97.2178V76.2145H99.5162V73.9161H101.815V71.6178H104.113V66.5613H106.411V61.5049H108.71V59.2065H111.008V54.15H113.307V46.4274H115.605V35.8548H117.903V27.5807H115.605Z" fill="#FAFBFD"/>
<path d="M115.605 27.5807V19.7661H113.307V14.7097H111.008V12.4113H108.71V10.1129H106.411V7.81452H104.113V5.51613H99.0566V3.21774H94.0001V0.919357H74.6936V3.21774H69.6372V5.51613H64.5807V7.81452H62.2824V10.1129H56.7662V7.81452H54.4678V5.51613H49.4114V3.21774H44.3549V0.919357H25.0485V3.21774H19.992V5.51613H14.9356V7.81452H12.6372V10.1129H10.3388V12.4113H8.04043V14.7097H5.74204V19.7661H3.44365V27.5807H1.14526V35.8548H3.44365V46.4274H5.74204V54.15H8.04043V59.2065H10.3388V61.5049H12.6372V66.5613H14.9356V71.6178H17.234V73.9161H19.5324V76.2145H21.8307V78.5129H24.1291V80.8113H26.4275V85.8678H28.7259V88.1661H31.0243V90.4645H33.3227V92.7629H35.6211V95.0613H37.9195V97.3597H40.2178V99.6581H42.5162V101.956H44.8146V104.255H47.113V106.553H49.4114V108.852H54.4678V111.058H56.7662V113.356H62.2824V111.058H64.5807V108.852H69.6372V106.553H71.9356V104.255H74.234V101.956H76.5324V99.6581H78.8307V97.3597H81.1291V95.0613H83.4275V92.7629H85.7259V90.4645H88.0243V88.1661H90.3227V85.8678H92.6211V80.8113H94.9195V78.5129H97.2178V76.2145H99.5162V73.9161H101.815V71.6178H104.113V66.5613H106.411V61.5049H108.71V59.2065H111.008V54.15H113.307V46.4274H115.605V35.8548H117.903V27.5807H115.605ZM115.145 35.3952H112.847V45.8758H110.548V53.6903H108.25V58.7468H105.952V61.0452H103.653V66.1016H101.355V71.1581H99.0566V73.4565H96.7582V75.7549H94.4598V78.0532H92.1614V80.3516H89.863V85.4081H87.5646V87.7065H85.2662V90.0049H82.9678V92.3032H80.6695V94.6016H78.3711V96.9H76.0727V99.1984H73.7743V101.497H71.4759V103.795H69.1775V106.094H64.1211V108.3H61.8227V110.598H57.2259V108.3H54.9275V106.094H49.8711V103.795H47.5727V101.497H45.2743V99.1984H42.9759V96.9H40.6775V94.6016H38.3791V92.3032H36.0807V90.0049H33.7824V87.7065H31.484V85.4081H29.1856V80.3516H26.8872V78.0532H24.5888V75.7549H22.2904V73.4565H19.992V71.1581H17.6937V66.1016H15.3953V61.0452H13.0969V58.7468H10.7985V53.6903H8.5001V45.8758H6.20172V35.3952H3.90333V28.0403H6.20172V20.2258H8.5001V15.1694H10.7985V12.871H13.0969V10.5726H15.3953V8.2742H20.4517V5.97581H25.5082V3.67742H43.8953V5.97581H48.9517V8.2742H54.0082V10.5726H56.3066V12.871H62.742V10.5726H65.0404V8.2742H70.0969V5.97581H75.1533V3.67742H93.5404V5.97581H98.5969V8.2742H103.653V10.5726H105.952V12.871H108.25V15.1694H110.548V20.2258H112.847V28.0403H115.145V35.3952Z" fill="#292D33"/>
<path d="M76.9461 80.2597C83.2422 80.2597 88.3461 79.2307 88.3461 77.9613C88.3461 76.692 83.2422 75.6629 76.9461 75.6629C70.6501 75.6629 65.5461 76.692 65.5461 77.9613C65.5461 79.2307 70.6501 80.2597 76.9461 80.2597Z" fill="#292D33"/>
<path fill-rule="evenodd" clip-rule="evenodd" d="M68.4857 77.9613C68.6992 78.0138 68.9311 78.0656 69.1816 78.1161C71.1206 78.5071 73.8666 78.7597 76.9461 78.7597C80.0256 78.7597 82.7716 78.5071 84.7107 78.1161C84.9612 78.0656 85.1931 78.0138 85.4066 77.9613C85.1931 77.9088 84.9612 77.857 84.7107 77.8065C82.7716 77.4156 80.0256 77.1629 76.9461 77.1629C73.8666 77.1629 71.1206 77.4156 69.1816 77.8065C68.9311 77.857 68.6992 77.9089 68.4857 77.9613ZM68.5887 74.8657C70.7756 74.4248 73.7296 74.1629 76.9461 74.1629C80.1627 74.1629 83.1167 74.4248 85.3036 74.8657C86.3847 75.0837 87.3572 75.3606 88.0957 75.7126C88.4613 75.8869 88.8497 76.1167 89.1673 76.4296C89.4879 76.7455 89.8461 77.2616 89.8461 77.9613C89.8461 78.661 89.4879 79.1772 89.1673 79.493C88.8497 79.8059 88.4613 80.0357 88.0957 80.21C87.3572 80.562 86.3847 80.839 85.3036 81.0569C83.1167 81.4979 80.1627 81.7597 76.9461 81.7597C73.7296 81.7597 70.7756 81.4979 68.5887 81.0569C67.5076 80.839 66.535 80.562 65.7966 80.21C65.431 80.0357 65.0425 79.8059 64.725 79.493C64.4044 79.1772 64.0461 78.661 64.0461 77.9613C64.0461 77.2616 64.4044 76.7455 64.725 76.4296C65.0425 76.1168 65.431 75.8869 65.7966 75.7126C66.535 75.3606 67.5076 75.0837 68.5887 74.8657Z" fill="#292D33"/>
<path d="M85.1285 66.1936H70.3269V81.6388H85.1285V66.1936Z" fill="#FAFBFD"/>
<path fill-rule="evenodd" clip-rule="evenodd" d="M68.8269 66.1936C68.8269 65.3652 69.4985 64.6936 70.3269 64.6936H85.1285C85.9569 64.6936 86.6285 65.3652 86.6285 66.1936V81.6388C86.6285 82.4672 85.9569 83.1388 85.1285 83.1388H70.3269C69.4985 83.1388 68.8269 82.4672 68.8269 81.6388V66.1936ZM71.8269 67.6936V80.1388H83.6285V67.6936H71.8269Z" fill="#292D33"/>
<path d="M85.1285 66.1936H70.3269V81.6388H85.1285V66.1936Z" fill="#FAFBFD"/>
<path fill-rule="evenodd" clip-rule="evenodd" d="M68.8269 66.1936C68.8269 65.3652 69.4985 64.6936 70.3269 64.6936H85.1285C85.9569 64.6936 86.6285 65.3652 86.6285 66.1936V81.6388C86.6285 82.4672 85.9569 83.1388 85.1285 83.1388H70.3269C69.4985 83.1388 68.8269 82.4672 68.8269 81.6388V66.1936ZM71.8269 67.6936V80.1388H83.6285V67.6936H71.8269Z" fill="#292D33"/>
<path d="M71.4299 69.7791C67.017 67.4807 63.9832 62.8839 63.9832 57.6436V32.9129H91.288V57.5517C91.288 62.8839 88.2541 67.4807 83.8412 69.6871" fill="#FAFBFD"/>
<path fill-rule="evenodd" clip-rule="evenodd" d="M62.4832 32.9129C62.4832 32.0845 63.1547 31.4129 63.9832 31.4129H91.288C92.1164 31.4129 92.788 32.0845 92.788 32.9129V57.5517C92.788 63.4661 89.4204 68.5746 84.512 71.0288C83.7711 71.3993 82.8701 71.0989 82.4996 70.358C82.1291 69.617 82.4294 68.716 83.1704 68.3455C87.0878 66.3868 89.788 62.3017 89.788 57.5517V34.4129H65.4832V57.6436C65.4832 62.2917 68.176 66.393 72.1228 68.4487C72.8576 68.8314 73.143 69.7372 72.7603 70.472C72.3776 71.2067 71.4718 71.4921 70.737 71.1094C65.8581 68.5683 62.4832 63.4762 62.4832 57.6436V32.9129Z" fill="#292D33"/>
<path d="M74.3719 47.1629C70.3268 46.0597 65.4542 46.7033 63.3397 48.8178L54.4219 39.9C52.951 38.4291 50.4687 38.4291 48.9978 39.9C47.5268 41.371 47.5268 43.8533 48.9978 45.3242L65.4542 61.7807" fill="#FAFBFD"/>
<path fill-rule="evenodd" clip-rule="evenodd" d="M47.9371 38.8394C49.9939 36.7826 53.4259 36.7826 55.4826 38.8394L63.4632 46.82C64.7356 46.0164 66.3163 45.5305 67.9173 45.2991C70.1026 44.9833 72.5396 45.1084 74.7666 45.7158C75.5659 45.9338 76.0371 46.7584 75.8191 47.5576C75.6011 48.3569 74.7765 48.8281 73.9773 48.6101C72.1591 48.1142 70.1373 48.0095 68.3464 48.2683C66.5179 48.5325 65.1357 49.1431 64.4004 49.8784C63.8146 50.4642 62.8648 50.4642 62.279 49.8784L53.3613 40.9607C52.4761 40.0755 50.9436 40.0755 50.0584 40.9607C49.1732 41.8459 49.1732 43.3784 50.0584 44.2636L66.5149 60.72C67.1007 61.3058 67.1007 62.2556 66.5149 62.8413C65.9291 63.4271 64.9793 63.4271 64.3935 62.8413L47.9371 46.3849C45.8803 44.3281 45.8803 40.8961 47.9371 38.8394Z" fill="#292D33"/>
<path d="M63.9832 41.8307V22.9839C63.9832 20.8694 65.7299 19.1226 67.8444 19.1226C69.959 19.1226 71.7057 20.8694 71.7057 22.9839V38.1533" fill="#FAFBFD"/>
<path fill-rule="evenodd" clip-rule="evenodd" d="M67.8444 20.6226C66.5584 20.6226 65.4832 21.6978 65.4832 22.9839V41.8307C65.4832 42.6591 64.8116 43.3307 63.9832 43.3307C63.1547 43.3307 62.4832 42.6591 62.4832 41.8307V22.9839C62.4832 20.041 64.9015 17.6226 67.8444 17.6226C70.7874 17.6226 73.2057 20.041 73.2057 22.9839V38.1533C73.2057 38.9817 72.5342 39.6533 71.7057 39.6533C70.8773 39.6533 70.2057 38.9817 70.2057 38.1533V22.9839C70.2057 21.6978 69.1305 20.6226 67.8444 20.6226Z" fill="#292D33"/>
<path d="M83.6575 37.7855V28.9597C83.6575 26.8452 85.4042 25.0984 87.5188 25.0984C89.6333 25.0984 91.3801 26.8452 91.3801 28.9597V41.4629" fill="#FAFBFD"/>
<path fill-rule="evenodd" clip-rule="evenodd" d="M87.5188 26.5984C86.2327 26.5984 85.1575 27.6736 85.1575 28.9597V37.7855C85.1575 38.614 84.4859 39.2855 83.6575 39.2855C82.829 39.2855 82.1575 38.614 82.1575 37.7855V28.9597C82.1575 26.0168 84.5758 23.5984 87.5188 23.5984C90.4617 23.5984 92.8801 26.0168 92.8801 28.9597V41.4629C92.8801 42.2914 92.2085 42.9629 91.3801 42.9629C90.5516 42.9629 89.8801 42.2914 89.8801 41.4629V28.9597C89.8801 27.6736 88.8048 26.5984 87.5188 26.5984Z" fill="#292D33"/>
<path d="M77.8655 37.8775V21.2371C77.8655 19.1226 79.6123 17.3759 81.7268 17.3759C83.8413 17.3759 85.5881 19.1226 85.5881 21.2371V40.0839" fill="#FAFBFD"/>
<path fill-rule="evenodd" clip-rule="evenodd" d="M81.7268 18.8759C80.4407 18.8759 79.3655 19.9511 79.3655 21.2371V37.8775C79.3655 38.7059 78.6939 39.3775 77.8655 39.3775C77.0371 39.3775 76.3655 38.7059 76.3655 37.8775V21.2371C76.3655 18.2942 78.7838 15.8759 81.7268 15.8759C84.6697 15.8759 87.0881 18.2942 87.0881 21.2371V40.0839C87.0881 40.9123 86.4165 41.5839 85.5881 41.5839C84.7596 41.5839 84.0881 40.9123 84.0881 40.0839V21.2371C84.0881 19.9511 83.0129 18.8759 81.7268 18.8759Z" fill="#292D33"/>
<path d="M71.7058 39.8081V17.0081C71.7058 14.8936 73.4526 13.1468 75.5671 13.1468C77.6816 13.1468 79.4284 14.8936 79.4284 17.0081V39.9001" fill="#FAFBFD"/>
<path fill-rule="evenodd" clip-rule="evenodd" d="M75.5671 14.6468C74.281 14.6468 73.2058 15.722 73.2058 17.0081V39.8081C73.2058 40.6365 72.5342 41.3081 71.7058 41.3081C70.8774 41.3081 70.2058 40.6365 70.2058 39.8081V17.0081C70.2058 14.0652 72.6242 11.6468 75.5671 11.6468C78.51 11.6468 80.9284 14.0652 80.9284 17.0081V39.9001C80.9284 40.7285 80.2568 41.4001 79.4284 41.4001C78.6 41.4001 77.9284 40.7285 77.9284 39.9001V17.0081C77.9284 15.722 76.8532 14.6468 75.5671 14.6468Z" fill="#292D33"/>
<path d="M65.5461 106.921V78.0533C65.5461 79.2484 70.6026 80.3517 76.9461 80.3517C83.1978 80.3517 88.3461 79.3404 88.3461 78.0533V107.013" fill="#292D33"/>
<path fill-rule="evenodd" clip-rule="evenodd" d="M66.9364 77.489C66.7134 76.9402 66.175 76.5533 65.5461 76.5533C64.7177 76.5533 64.0461 77.2248 64.0461 78.0533V106.921H67.0461V80.7414C67.5132 80.8824 68.0239 81.008 68.5637 81.1196C70.7442 81.5703 73.6996 81.8517 76.9461 81.8517C80.1394 81.8517 83.0928 81.5944 85.2847 81.156C85.8387 81.0452 86.3649 80.9188 86.8461 80.7746V107.013H89.8461V78.0533C89.8461 77.2248 89.1746 76.5533 88.3461 76.5533C87.7023 76.5533 87.1532 76.9589 86.9405 77.5286C86.9038 77.5491 86.8575 77.5734 86.8002 77.6006C86.382 77.7993 85.6814 78.0172 84.6963 78.2143C82.7511 78.6033 80.0045 78.8517 76.9461 78.8517C73.8491 78.8517 71.1045 78.5814 69.1709 78.1817C68.1924 77.9794 67.4947 77.7587 67.0775 77.561C67.02 77.5338 66.9734 77.5096 66.9364 77.489Z" fill="#292D33"/>
<path d="M43.8495 91.292C50.1455 91.292 55.2495 90.263 55.2495 88.9936C55.2495 87.7242 50.1455 86.6952 43.8495 86.6952C37.5534 86.6952 32.4495 87.7242 32.4495 88.9936C32.4495 90.263 37.5534 91.292 43.8495 91.292Z" fill="#292D33"/>
<path fill-rule="evenodd" clip-rule="evenodd" d="M35.389 88.9936C35.6025 89.0461 35.8344 89.0979 36.0849 89.1484C38.024 89.5393 40.77 89.792 43.8495 89.792C46.929 89.792 49.675 89.5393 51.614 89.1484C51.8645 89.0979 52.0964 89.046 52.3099 88.9936C52.0964 88.9411 51.8645 88.8893 51.614 88.8388C49.675 88.4478 46.929 88.1952 43.8495 88.1952C40.77 88.1952 38.024 88.4478 36.0849 88.8388C35.8344 88.8893 35.6025 88.9411 35.389 88.9936ZM35.492 85.898C37.6789 85.4571 40.6329 85.1952 43.8495 85.1952C47.066 85.1952 50.02 85.4571 52.2069 85.898C53.288 86.1159 54.2606 86.3929 54.999 86.7449C55.3646 86.9192 55.7531 87.149 56.0706 87.4619C56.3912 87.7777 56.7495 88.2939 56.7495 88.9936C56.7495 89.6933 56.3912 90.2095 56.0706 90.5253C55.7531 90.8382 55.3646 91.068 54.999 91.2423C54.2606 91.5943 53.288 91.8712 52.2069 92.0892C50.02 92.5301 47.066 92.792 43.8495 92.792C40.6329 92.792 37.6789 92.5301 35.492 92.0892C34.4109 91.8712 33.4384 91.5943 32.6999 91.2423C32.3343 91.068 31.9459 90.8382 31.6283 90.5253C31.3077 90.2095 30.9495 89.6933 30.9495 88.9936C30.9495 88.2939 31.3077 87.7777 31.6283 87.4619C31.9459 87.149 32.3343 86.9192 32.6999 86.7449C33.4384 86.3929 34.4109 86.1159 35.492 85.898Z" fill="#292D33"/>
<path d="M52.0318 77.2259H37.2302V92.671H52.0318V77.2259Z" fill="#FAFBFD"/>
<path fill-rule="evenodd" clip-rule="evenodd" d="M35.7302 77.2259C35.7302 76.3974 36.4018 75.7259 37.2302 75.7259H52.0318C52.8603 75.7259 53.5318 76.3974 53.5318 77.2259V92.671C53.5318 93.4994 52.8603 94.171 52.0318 94.171H37.2302C36.4018 94.171 35.7302 93.4994 35.7302 92.671V77.2259ZM38.7302 78.7259V91.171H50.5318V78.7259H38.7302Z" fill="#292D33"/>
<path d="M52.0318 77.2259H37.2302V92.671H52.0318V77.2259Z" fill="#FAFBFD"/>
<path fill-rule="evenodd" clip-rule="evenodd" d="M35.7302 77.2259C35.7302 76.3974 36.4018 75.7259 37.2302 75.7259H52.0318C52.8603 75.7259 53.5318 76.3974 53.5318 77.2259V92.671C53.5318 93.4994 52.8603 94.171 52.0318 94.171H37.2302C36.4018 94.171 35.7302 93.4994 35.7302 92.671V77.2259ZM38.7302 78.7259V91.171H50.5318V78.7259H38.7302Z" fill="#292D33"/>
<path d="M38.3332 80.8113C33.9203 78.5129 30.8865 73.9162 30.8865 68.6758V43.9452H58.1913V68.5839C58.1913 73.9162 55.1574 78.5129 50.7445 80.7194" fill="#FAFBFD"/>
<path fill-rule="evenodd" clip-rule="evenodd" d="M29.3865 43.9452C29.3865 43.1168 30.058 42.4452 30.8865 42.4452H58.1913C59.0197 42.4452 59.6913 43.1168 59.6913 43.9452V68.5839C59.6913 74.4984 56.3237 79.6069 51.4154 82.061C50.6744 82.4315 49.7734 82.1312 49.4029 81.3902C49.0324 80.6493 49.3327 79.7482 50.0737 79.3778C53.9911 77.419 56.6913 73.3339 56.6913 68.5839V45.4452H32.3865V68.6758C32.3865 73.3239 35.0793 77.4253 39.0261 79.481C39.7609 79.8636 40.0463 80.7695 39.6636 81.5042C39.2809 82.239 38.3751 82.5244 37.6403 82.1417C32.7614 79.6006 29.3865 74.5084 29.3865 68.6758V43.9452Z" fill="#292D33"/>
<path d="M41.2753 58.1952C37.2301 57.092 32.3575 57.7355 30.243 59.85L21.3253 50.9323C19.8543 49.4613 17.372 49.4613 15.9011 50.9323C14.4301 52.4033 14.4301 54.8855 15.9011 56.3565L32.3575 72.8129" fill="#FAFBFD"/>
<path fill-rule="evenodd" clip-rule="evenodd" d="M14.8404 49.8716C16.8972 47.8149 20.3292 47.8149 22.3859 49.8716L30.3666 57.8523C31.6389 57.0486 33.2196 56.5627 34.8206 56.3314C37.0059 56.0156 39.443 56.1407 41.6699 56.7481C42.4692 56.966 42.9404 57.7906 42.7224 58.5899C42.5044 59.3891 41.6798 59.8603 40.8806 59.6423C39.0624 59.1465 37.0406 59.0417 35.2497 59.3005C33.4212 59.5648 32.039 60.1754 31.3037 60.9107C30.7179 61.4965 29.7681 61.4965 29.1824 60.9107L20.2646 51.993C19.3794 51.1078 17.8469 51.1078 16.9617 51.993C16.0766 52.8781 16.0766 54.4106 16.9617 55.2958L33.4182 71.7523C34.004 72.3381 34.004 73.2878 33.4182 73.8736C32.8324 74.4594 31.8827 74.4594 31.2969 73.8736L14.8404 57.4171C12.7837 55.3604 12.7837 51.9284 14.8404 49.8716Z" fill="#292D33"/>
<path d="M30.8865 52.863V34.0162C30.8865 31.9017 32.6332 30.1549 34.7478 30.1549C36.8623 30.1549 38.6091 31.9017 38.6091 34.0162V49.1855" fill="#FAFBFD"/>
<path fill-rule="evenodd" clip-rule="evenodd" d="M34.7478 31.6549C33.4617 31.6549 32.3865 32.7301 32.3865 34.0162V52.863C32.3865 53.6914 31.7149 54.363 30.8865 54.363C30.058 54.363 29.3865 53.6914 29.3865 52.863V34.0162C29.3865 31.0732 31.8048 28.6549 34.7478 28.6549C37.6907 28.6549 40.1091 31.0732 40.1091 34.0162V49.1855C40.1091 50.014 39.4375 50.6855 38.6091 50.6855C37.7806 50.6855 37.1091 50.014 37.1091 49.1855V34.0162C37.1091 32.7301 36.0339 31.6549 34.7478 31.6549Z" fill="#292D33"/>
<path d="M50.5608 48.8178V39.992C50.5608 37.8775 52.3076 36.1307 54.4221 36.1307C56.5366 36.1307 58.2834 37.8775 58.2834 39.992V52.4952" fill="#FAFBFD"/>
<path fill-rule="evenodd" clip-rule="evenodd" d="M54.4221 37.6307C53.136 37.6307 52.0608 38.7059 52.0608 39.992V48.8178C52.0608 49.6462 51.3892 50.3178 50.5608 50.3178C49.7324 50.3178 49.0608 49.6462 49.0608 48.8178V39.992C49.0608 37.049 51.4791 34.6307 54.4221 34.6307C57.365 34.6307 59.7834 37.049 59.7834 39.992V52.4952C59.7834 53.3236 59.1118 53.9952 58.2834 53.9952C57.4549 53.9952 56.7834 53.3236 56.7834 52.4952V39.992C56.7834 38.7059 55.7082 37.6307 54.4221 37.6307Z" fill="#292D33"/>
<path d="M44.7688 48.9097V32.2694C44.7688 30.1549 46.5156 28.4081 48.6301 28.4081C50.7446 28.4081 52.4914 30.1549 52.4914 32.2694V51.1162" fill="#FAFBFD"/>
<path fill-rule="evenodd" clip-rule="evenodd" d="M48.6301 29.9081C47.344 29.9081 46.2688 30.9833 46.2688 32.2694V48.9097C46.2688 49.7382 45.5972 50.4097 44.7688 50.4097C43.9404 50.4097 43.2688 49.7382 43.2688 48.9097V32.2694C43.2688 29.3265 45.6872 26.9081 48.6301 26.9081C51.573 26.9081 53.9914 29.3265 53.9914 32.2694V51.1162C53.9914 51.9446 53.3198 52.6162 52.4914 52.6162C51.663 52.6162 50.9914 51.9446 50.9914 51.1162V32.2694C50.9914 30.9833 49.9162 29.9081 48.6301 29.9081Z" fill="#292D33"/>
<path d="M38.6091 50.8404V28.0404C38.6091 25.9259 40.3559 24.1791 42.4704 24.1791C44.5849 24.1791 46.3317 25.9259 46.3317 28.0404V50.9323" fill="#FAFBFD"/>
<path fill-rule="evenodd" clip-rule="evenodd" d="M42.4704 25.6791C41.1843 25.6791 40.1091 26.7543 40.1091 28.0404V50.8404C40.1091 51.6688 39.4376 52.3404 38.6091 52.3404C37.7807 52.3404 37.1091 51.6688 37.1091 50.8404V28.0404C37.1091 25.0974 39.5275 22.6791 42.4704 22.6791C45.4134 22.6791 47.8317 25.0974 47.8317 28.0404V50.9323C47.8317 51.7607 47.1601 52.4323 46.3317 52.4323C45.5033 52.4323 44.8317 51.7607 44.8317 50.9323V28.0404C44.8317 26.7543 43.7565 25.6791 42.4704 25.6791Z" fill="#292D33"/>
<path d="M32.4495 113.356V89.0855C32.4495 90.2807 37.5059 91.3839 43.8495 91.3839C50.1011 91.3839 55.2495 90.3726 55.2495 89.0855V113.448" fill="#C3CAD4"/>
<path fill-rule="evenodd" clip-rule="evenodd" d="M33.8397 88.5213C33.6168 87.9725 33.0783 87.5855 32.4495 87.5855C31.621 87.5855 30.9495 88.2571 30.9495 89.0855V113.356H33.9495V91.7737C34.4165 91.9147 34.9273 92.0403 35.467 92.1519C37.6475 92.6026 40.603 92.8839 43.8495 92.8839C47.0427 92.8839 49.9961 92.6266 52.188 92.1883C52.742 92.0775 53.2682 91.9511 53.7495 91.8069V113.448H56.7495V89.0855C56.7495 88.2571 56.0779 87.5855 55.2495 87.5855C54.6056 87.5855 54.0565 87.9912 53.8438 88.5608C53.8071 88.5814 53.7608 88.6056 53.7035 88.6329C53.2853 88.8316 52.5847 89.0495 51.5996 89.2465C49.6544 89.6356 46.9078 89.8839 43.8495 89.8839C40.7524 89.8839 38.0079 89.6136 36.0743 89.214C35.0957 89.0117 34.398 88.7909 33.9808 88.5933C33.9233 88.566 33.8768 88.5418 33.8397 88.5213Z" fill="#292D33"/>
</g>
<defs>
<clipPath id="clip0_2498_34888">
<rect width="117.677" height="114" fill="white" transform="translate(0.22583)"/>
</clipPath>
</defs>
</svg>
