<svg width="192" height="114" viewBox="0 0 192 114" fill="none" xmlns="http://www.w3.org/2000/svg">
<g clip-path="url(#clip0_2498_34887)">
<path d="M66.2245 75.6571V74.7378H89.2083V75.6571H66.2245ZM90.5874 73.3587V72.4394H91.5067V73.3587H90.5874ZM63.9261 73.3587V72.4394H64.8454V73.3587H63.9261ZM92.8858 71.0603V70.141H93.8051V71.0603H92.8858ZM61.6277 71.0603V70.141H62.547V71.0603H61.6277ZM95.1841 68.762V63.2458H96.1035V68.762H95.1841ZM59.3293 68.762V63.2458H60.2487V68.762H59.3293ZM97.4825 61.8668V46.2378H98.4019V61.8668H97.4825ZM57.0309 61.8668V46.2378H57.9503V61.8668H57.0309ZM99.7809 44.8587V43.9394H100.7V44.8587H99.7809ZM54.7325 44.8587V43.9394H55.6519V44.8587H54.7325ZM102.079 42.5603V41.641H102.999V42.5603H102.079ZM52.4341 42.5603V41.641H53.3535V42.5603H52.4341ZM104.378 40.262V36.5845H105.297V40.262H104.378ZM50.1357 40.262V36.5845H51.0551V40.262H50.1357ZM102.079 35.2055V34.2862H102.999V35.2055H102.079ZM52.4341 35.2055V34.2862H53.3535V35.2055H52.4341ZM99.7809 32.9071V29.2297H100.7V32.9071H99.7809ZM54.7325 32.9071V29.2297H55.6519V32.9071H54.7325ZM97.4825 27.8507V23.7136C97.4825 22.9781 96.839 22.3345 96.1035 22.3345H94.7245C93.989 22.3345 93.3454 22.9781 93.3454 23.7136V24.6329H89.668C88.9325 24.6329 88.289 25.2765 88.289 26.012V26.9313H85.5309V26.012C85.5309 25.2765 84.8874 24.6329 84.1519 24.6329H79.5551V23.7136C79.5551 22.9781 78.9116 22.3345 78.1761 22.3345H75.418C74.6825 22.3345 74.039 22.9781 74.039 23.7136V24.6329H70.3616C69.6261 24.6329 68.9825 25.2765 68.9825 26.012V26.9313H66.2245V26.012C66.2245 25.2765 65.5809 24.6329 64.8454 24.6329H62.0874V23.7136C62.0874 22.9781 61.4438 22.3345 60.7083 22.3345H59.3293C58.5938 22.3345 57.9503 22.9781 57.9503 23.7136V27.8507H57.0309V8.54422H58.4099C59.1454 8.54422 59.789 7.90067 59.789 7.16518V5.78615H60.7083C61.4438 5.78615 62.0874 5.1426 62.0874 4.40712V3.48776H67.6035C68.339 3.48776 68.9825 2.84422 68.9825 2.10873V1.18938H86.4503V2.10873C86.4503 2.84422 87.0938 3.48776 87.8293 3.48776H93.3454V4.40712C93.3454 5.1426 93.989 5.78615 94.7245 5.78615H95.6438V7.16518C95.6438 7.90067 96.2874 8.54422 97.0229 8.54422H98.4019V27.8507H97.4825Z" fill="white"/>
<path d="M103.826 35.6652V33.3668H101.528V28.3103H99.2294V20.4958H93.7132V22.7942H88.6568V25.0926H84.9794V22.7942H79.0035V20.4958H74.4068V22.7942H69.3503V25.0926H65.6729V22.7942H61.5358V20.4958H56.0197V28.3103H53.7213V33.3668H51.4229V35.6652H49.1245V41.1813H51.4229V43.4797H53.7213V45.7781H56.0197V62.7861H58.3181V69.6813H60.6164V71.9797H62.9148V74.2781H65.2132V76.5765H90.0358V74.2781H92.3342V71.9797H94.6326V69.6813H96.931V62.7861H99.2294V45.7781H101.528V43.4797H103.826V41.1813H106.125V35.6652H103.826Z" fill="#C3CAD4"/>
<path d="M105.757 35.6652H104.378C104.102 35.6652 103.918 35.4813 103.918 35.2055V33.8265C103.918 33.5507 103.734 33.3668 103.458 33.3668H102.079C101.804 33.3668 101.62 33.1829 101.62 32.9071V28.77C101.62 28.4942 101.436 28.3103 101.16 28.3103H99.7811C99.5053 28.3103 99.3214 28.1265 99.3214 27.8507V8.08453C99.3214 7.80873 99.1375 7.62486 98.8617 7.62486H97.023C96.7472 7.62486 96.5633 7.44099 96.5633 7.16518V5.32647C96.5633 5.05066 96.3795 4.86679 96.1037 4.86679H94.7246C94.4488 4.86679 94.2649 4.68292 94.2649 4.40712V3.02808C94.2649 2.75228 94.0811 2.56841 93.8053 2.56841H87.8295C87.5537 2.56841 87.3698 2.38454 87.3698 2.10873V0.729697C87.3698 0.45389 87.1859 0.27002 86.9101 0.27002H68.523C68.2472 0.27002 68.0633 0.45389 68.0633 0.729697V2.10873C68.0633 2.38454 67.8795 2.56841 67.6037 2.56841H61.6278C61.352 2.56841 61.1682 2.75228 61.1682 3.02808V4.40712C61.1682 4.68292 60.9843 4.86679 60.7085 4.86679H59.3295C59.0537 4.86679 58.8698 5.05066 58.8698 5.32647V7.16518C58.8698 7.44099 58.6859 7.62486 58.4101 7.62486H56.5714C56.2956 7.62486 56.1117 7.80873 56.1117 8.08453V27.8507C56.1117 28.1265 55.9278 28.3103 55.652 28.3103H54.273C53.9972 28.3103 53.8133 28.4942 53.8133 28.77V32.9071C53.8133 33.1829 53.6295 33.3668 53.3537 33.3668H51.9746C51.6988 33.3668 51.5149 33.5507 51.5149 33.8265V35.2055C51.5149 35.4813 51.3311 35.6652 51.0553 35.6652H49.6762C49.4004 35.6652 49.2166 35.849 49.2166 36.1249V40.7216C49.2166 40.9974 49.4004 41.1813 49.6762 41.1813H51.0553C51.3311 41.1813 51.5149 41.3652 51.5149 41.641V43.02C51.5149 43.2958 51.6988 43.4797 51.9746 43.4797H53.3537C53.6295 43.4797 53.8133 43.6636 53.8133 43.9394V45.3184C53.8133 45.5942 53.9972 45.7781 54.273 45.7781H55.652C55.9278 45.7781 56.1117 45.9619 56.1117 46.2378V62.3265C56.1117 62.6023 56.2956 62.7861 56.5714 62.7861H57.9504C58.2262 62.7861 58.4101 62.97 58.4101 63.2458V69.2216C58.4101 69.4974 58.594 69.6813 58.8698 69.6813H60.2488C60.5246 69.6813 60.7085 69.8652 60.7085 70.141V71.52C60.7085 71.7958 60.8924 71.9797 61.1682 71.9797H62.5472C62.823 71.9797 63.0069 72.1636 63.0069 72.4394V73.8184C63.0069 74.0942 63.1908 74.2781 63.4666 74.2781H64.8456C65.1214 74.2781 65.3053 74.4619 65.3053 74.7377V76.1168C65.3053 76.3926 65.4891 76.5765 65.7649 76.5765H89.6682C89.944 76.5765 90.1278 76.3926 90.1278 76.1168V74.7377C90.1278 74.4619 90.3117 74.2781 90.5875 74.2781H91.9666C92.2424 74.2781 92.4262 74.0942 92.4262 73.8184V72.4394C92.4262 72.1636 92.6101 71.9797 92.8859 71.9797H94.2649C94.5408 71.9797 94.7246 71.7958 94.7246 71.52V70.141C94.7246 69.8652 94.9085 69.6813 95.1843 69.6813H96.5633C96.8391 69.6813 97.023 69.4974 97.023 69.2216V63.2458C97.023 62.97 97.2069 62.7861 97.4827 62.7861H98.8617C99.1375 62.7861 99.3214 62.6023 99.3214 62.3265V46.2378C99.3214 45.9619 99.5053 45.7781 99.7811 45.7781H101.16C101.436 45.7781 101.62 45.5942 101.62 45.3184V43.9394C101.62 43.6636 101.804 43.4797 102.079 43.4797H103.458C103.734 43.4797 103.918 43.2958 103.918 43.02V41.641C103.918 41.3652 104.102 41.1813 104.378 41.1813H105.757C106.033 41.1813 106.217 40.9974 106.217 40.7216V36.1249C106.217 35.941 105.941 35.6652 105.757 35.6652ZM86.9101 3.48776V4.86679C86.9101 5.1426 87.094 5.32647 87.3698 5.32647H93.3456C93.6214 5.32647 93.8053 5.51034 93.8053 5.78615V9.46356C93.8053 9.73937 93.6214 9.92324 93.3456 9.92324H87.3698C87.094 9.92324 86.9101 10.1071 86.9101 10.3829V11.762C86.9101 12.0378 86.7262 12.2216 86.4504 12.2216H68.9827C68.7069 12.2216 68.523 12.0378 68.523 11.762V10.3829C68.523 10.1071 68.3391 9.92324 68.0633 9.92324H62.0875C61.8117 9.92324 61.6278 9.73937 61.6278 9.46356V5.78615C61.6278 5.51034 61.8117 5.32647 62.0875 5.32647H68.0633C68.3391 5.32647 68.523 5.1426 68.523 4.86679V3.48776C68.523 3.21195 68.7069 3.02808 68.9827 3.02808H86.4504C86.6343 3.02808 86.9101 3.30389 86.9101 3.48776ZM59.3295 10.3829H60.7085C60.9843 10.3829 61.1682 10.5668 61.1682 10.8426V12.2216C61.1682 12.4974 61.352 12.6813 61.6278 12.6813H67.6037C67.8795 12.6813 68.0633 12.8652 68.0633 13.141V14.52C68.0633 14.7958 68.2472 14.9797 68.523 14.9797H86.9101C87.1859 14.9797 87.3698 14.7958 87.3698 14.52V13.141C87.3698 12.8652 87.5537 12.6813 87.8295 12.6813H93.8053C94.0811 12.6813 94.2649 12.4974 94.2649 12.2216V10.8426C94.2649 10.5668 94.4488 10.3829 94.7246 10.3829H96.1037C96.3795 10.3829 96.5633 10.5668 96.5633 10.8426V20.0361C96.5633 20.312 96.3795 20.4958 96.1037 20.4958H94.2649C93.9891 20.4958 93.8053 20.6797 93.8053 20.9555V22.3345C93.8053 22.6103 93.6214 22.7942 93.3456 22.7942H89.2085C88.9327 22.7942 88.7488 22.9781 88.7488 23.2539V24.6329C88.7488 24.9087 88.5649 25.0926 88.2891 25.0926H85.5311C85.2553 25.0926 85.0714 24.9087 85.0714 24.6329V23.2539C85.0714 22.9781 84.8875 22.7942 84.6117 22.7942H79.5553C79.2795 22.7942 79.0956 22.6103 79.0956 22.3345V20.9555C79.0956 20.6797 78.9117 20.4958 78.6359 20.4958H74.9585C74.6827 20.4958 74.4988 20.6797 74.4988 20.9555V22.3345C74.4988 22.6103 74.3149 22.7942 74.0391 22.7942H69.902C69.6262 22.7942 69.4424 22.9781 69.4424 23.2539V24.6329C69.4424 24.9087 69.2585 25.0926 68.9827 25.0926H66.2246C65.9488 25.0926 65.7649 24.9087 65.7649 24.6329V23.2539C65.7649 22.9781 65.5811 22.7942 65.3053 22.7942H62.0875C61.8117 22.7942 61.6278 22.6103 61.6278 22.3345V20.9555C61.6278 20.6797 61.444 20.4958 61.1682 20.4958H59.3295C59.0537 20.4958 58.8698 20.312 58.8698 20.0361V10.8426C58.8698 10.6587 59.0537 10.3829 59.3295 10.3829ZM65.7649 73.3587V71.9797C65.7649 71.7039 65.5811 71.52 65.3053 71.52H63.9262C63.6504 71.52 63.4666 71.3361 63.4666 71.0603V69.6813C63.4666 69.4055 63.2827 69.2216 63.0069 69.2216H61.6278C61.352 69.2216 61.1682 69.0377 61.1682 68.7619V62.7861C61.1682 62.5103 60.9843 62.3265 60.7085 62.3265H59.3295C59.0537 62.3265 58.8698 62.1426 58.8698 61.8668V45.7781C58.8698 45.5023 58.6859 45.3184 58.4101 45.3184H57.0311C56.7553 45.3184 56.5714 45.1345 56.5714 44.8587V43.4797C56.5714 43.2039 56.3875 43.02 56.1117 43.02H54.7327C54.4569 43.02 54.273 42.8361 54.273 42.5603V41.1813C54.273 40.9055 54.0891 40.7216 53.8133 40.7216H52.4343C52.1585 40.7216 51.9746 40.5378 51.9746 40.2619V36.5845C51.9746 36.3087 52.1585 36.1249 52.4343 36.1249H53.8133C54.0891 36.1249 54.273 35.941 54.273 35.6652V34.2861C54.273 34.0103 54.4569 33.8265 54.7327 33.8265H56.1117C56.3875 33.8265 56.5714 33.6426 56.5714 33.3668V29.2297C56.5714 28.9539 56.7553 28.77 57.0311 28.77H58.4101C58.6859 28.77 58.8698 28.5861 58.8698 28.3103V23.7136C58.8698 23.4378 59.0537 23.2539 59.3295 23.2539H60.7085C60.9843 23.2539 61.1682 23.4378 61.1682 23.7136V25.0926C61.1682 25.3684 61.352 25.5523 61.6278 25.5523H64.8456C65.1214 25.5523 65.3053 25.7361 65.3053 26.0119V27.391C65.3053 27.6668 65.4891 27.8507 65.7649 27.8507H69.4424C69.7182 27.8507 69.902 27.6668 69.902 27.391V26.0119C69.902 25.7361 70.0859 25.5523 70.3617 25.5523H74.4988C74.7746 25.5523 74.9585 25.3684 74.9585 25.0926V23.7136C74.9585 23.4378 75.1424 23.2539 75.4182 23.2539H78.1762C78.452 23.2539 78.6359 23.4378 78.6359 23.7136V25.0926C78.6359 25.3684 78.8198 25.5523 79.0956 25.5523H84.152C84.4278 25.5523 84.6117 25.7361 84.6117 26.0119V27.391C84.6117 27.6668 84.7956 27.8507 85.0714 27.8507H88.7488C89.0246 27.8507 89.2085 27.6668 89.2085 27.391V26.0119C89.2085 25.7361 89.3924 25.5523 89.6682 25.5523H93.8053C94.0811 25.5523 94.2649 25.3684 94.2649 25.0926V23.7136C94.2649 23.4378 94.4488 23.2539 94.7246 23.2539H96.1037C96.3795 23.2539 96.5633 23.4378 96.5633 23.7136V28.3103C96.5633 28.5861 96.7472 28.77 97.023 28.77H98.402C98.6778 28.77 98.8617 28.9539 98.8617 29.2297V33.3668C98.8617 33.6426 99.0456 33.8265 99.3214 33.8265H100.7C100.976 33.8265 101.16 34.0103 101.16 34.2861V35.6652C101.16 35.941 101.344 36.1249 101.62 36.1249H102.999C103.275 36.1249 103.458 36.3087 103.458 36.5845V40.2619C103.458 40.5378 103.275 40.7216 102.999 40.7216H101.62C101.344 40.7216 101.16 40.9055 101.16 41.1813V42.5603C101.16 42.8361 100.976 43.02 100.7 43.02H99.3214C99.0456 43.02 98.8617 43.2039 98.8617 43.4797V44.8587C98.8617 45.1345 98.6778 45.3184 98.402 45.3184H97.023C96.7472 45.3184 96.5633 45.5023 96.5633 45.7781V61.8668C96.5633 62.1426 96.3795 62.3265 96.1037 62.3265H94.7246C94.4488 62.3265 94.2649 62.5103 94.2649 62.7861V68.7619C94.2649 69.0377 94.0811 69.2216 93.8053 69.2216H92.4262C92.1504 69.2216 91.9666 69.4055 91.9666 69.6813V71.0603C91.9666 71.3361 91.7827 71.52 91.5069 71.52H90.1278C89.852 71.52 89.6682 71.7039 89.6682 71.9797V73.3587C89.6682 73.6345 89.4843 73.8184 89.2085 73.8184H66.2246C65.9488 73.8184 65.7649 73.6345 65.7649 73.3587Z" fill="#292D33"/>
<path d="M41.6778 90.3668V89.4474H64.6617V90.3668H41.6778ZM66.0407 88.0684V87.1491H66.9601V88.0684H66.0407ZM39.3794 88.0684V87.1491H40.2988V88.0684H39.3794ZM68.3391 85.77V84.8507H69.2585V85.77H68.3391ZM37.081 85.77V84.8507H38.0004V85.77H37.081ZM70.6375 83.4716V77.9555H71.5569V83.4716H70.6375ZM34.7827 83.4716V77.9555H35.702V83.4716H34.7827ZM72.9359 76.5765V60.9474H73.8553V76.5765H72.9359ZM32.4843 76.5765V60.9474H33.4036V76.5765H32.4843ZM75.2343 59.5684V58.6491H76.1536V59.5684H75.2343ZM30.1859 59.5684V58.6491H31.1052V59.5684H30.1859ZM77.5327 57.27V56.3507H78.452V57.27H77.5327ZM27.8875 57.27V56.3507H28.8069V57.27H27.8875ZM79.8311 54.9716V51.2942H80.7504V54.9716H79.8311ZM25.5891 54.9716V51.2942H26.5085V54.9716H25.5891ZM77.5327 49.9152V48.9958H78.452V49.9152H77.5327ZM27.8875 49.9152V48.9958H28.8069V49.9152H27.8875ZM75.2343 47.6168V43.9394H76.1536V47.6168H75.2343ZM30.1859 47.6168V43.9394H31.1052V47.6168H30.1859ZM72.9359 42.5603V38.4232C72.9359 37.6878 72.2924 37.0442 71.5569 37.0442H70.1778C69.4423 37.0442 68.7988 37.6878 68.7988 38.4232V39.3426H65.1214C64.3859 39.3426 63.7423 39.9861 63.7423 40.7216V41.641H60.9843V40.7216C60.9843 39.9861 60.3407 39.3426 59.6053 39.3426H55.0085V38.4232C55.0085 37.6878 54.3649 37.0442 53.6294 37.0442H50.8714C50.1359 37.0442 49.4923 37.6878 49.4923 38.4232V39.3426H45.8149C45.0794 39.3426 44.4359 39.9861 44.4359 40.7216V41.641H41.6778V40.7216C41.6778 39.9861 41.0343 39.3426 40.2988 39.3426H37.5407V38.4232C37.5407 37.6878 36.8972 37.0442 36.1617 37.0442H34.7827C34.0472 37.0442 33.4036 37.6878 33.4036 38.4232V42.5603H32.4843V23.2539H33.8633C34.5988 23.2539 35.2423 22.6103 35.2423 21.8749V20.4958H36.1617C36.8972 20.4958 37.5407 19.8523 37.5407 19.1168V18.1974H43.0569C43.7923 18.1974 44.4359 17.5539 44.4359 16.8184V15.899H61.9036V16.8184C61.9036 17.5539 62.5472 18.1974 63.2827 18.1974H68.7988V19.1168C68.7988 19.8523 69.4423 20.4958 70.1778 20.4958H71.0972V21.8749C71.0972 22.6103 71.7407 23.2539 72.4762 23.2539H73.8553V42.5603H72.9359Z" fill="white"/>
<path d="M79.3713 50.3749V48.0765H77.0729V43.02H74.7745V35.2055H69.2584V37.5039H64.2019V39.8023H60.5245V37.5039H54.5487V35.2055H49.9519V37.5039H44.8955V39.8023H41.2181V37.5039H37.081V35.2055H31.5648V43.02H29.2665V48.0765H26.9681V50.3749H24.6697V55.891H26.9681V58.1894H29.2665V60.4878H31.5648V77.4958H33.8632V84.391H36.1616V86.6894H38.46V88.9877H40.7584V91.2861H65.581V88.9877H67.8794V86.6894H70.1777V84.391H72.4761V77.4958H74.7745V60.4878H77.0729V58.1894H79.3713V55.891H81.6697V50.3749H79.3713Z" fill="#C3CAD4"/>
<path d="M81.21 50.3749H79.831C79.5552 50.3749 79.3713 50.191 79.3713 49.9152V48.5361C79.3713 48.2603 79.1874 48.0765 78.9116 48.0765H77.5326C77.2568 48.0765 77.0729 47.8926 77.0729 47.6168V43.4797C77.0729 43.2039 76.889 43.02 76.6132 43.02H75.2342C74.9584 43.02 74.7745 42.8361 74.7745 42.5603V22.7942C74.7745 22.5184 74.5906 22.3345 74.3148 22.3345H72.4761C72.2003 22.3345 72.0165 22.1507 72.0165 21.8749V20.0361C72.0165 19.7603 71.8326 19.5765 71.5568 19.5765H70.1777C69.9019 19.5765 69.7181 19.3926 69.7181 19.1168V17.7378C69.7181 17.462 69.5342 17.2781 69.2584 17.2781H63.2826C63.0068 17.2781 62.8229 17.0942 62.8229 16.8184V15.4394C62.8229 15.1636 62.639 14.9797 62.3632 14.9797H43.9761C43.7003 14.9797 43.5165 15.1636 43.5165 15.4394V16.8184C43.5165 17.0942 43.3326 17.2781 43.0568 17.2781H37.081C36.8052 17.2781 36.6213 17.462 36.6213 17.7378V19.1168C36.6213 19.3926 36.4374 19.5765 36.1616 19.5765H34.7826C34.5068 19.5765 34.3229 19.7603 34.3229 20.0361V21.8749C34.3229 22.1507 34.139 22.3345 33.8632 22.3345H32.0245C31.7487 22.3345 31.5648 22.5184 31.5648 22.7942V42.5603C31.5648 42.8361 31.381 43.02 31.1052 43.02H29.7261C29.4503 43.02 29.2665 43.2039 29.2665 43.4797V47.6168C29.2665 47.8926 29.0826 48.0765 28.8068 48.0765H27.4277C27.1519 48.0765 26.9681 48.2603 26.9681 48.5361V49.9152C26.9681 50.191 26.7842 50.3749 26.5084 50.3749H25.1294C24.8535 50.3749 24.6697 50.5587 24.6697 50.8345V55.4313C24.6697 55.7071 24.8535 55.891 25.1294 55.891H26.5084C26.7842 55.891 26.9681 56.0748 26.9681 56.3507V57.7297C26.9681 58.0055 27.1519 58.1894 27.4277 58.1894H28.8068C29.0826 58.1894 29.2665 58.3732 29.2665 58.649V60.0281C29.2665 60.3039 29.4503 60.4878 29.7261 60.4878H31.1052C31.381 60.4878 31.5648 60.6716 31.5648 60.9474V77.0361C31.5648 77.3119 31.7487 77.4958 32.0245 77.4958H33.4035C33.6794 77.4958 33.8632 77.6797 33.8632 77.9555V83.9313C33.8632 84.2071 34.0471 84.391 34.3229 84.391H35.7019C35.9777 84.391 36.1616 84.5748 36.1616 84.8506V86.2297C36.1616 86.5055 36.3455 86.6894 36.6213 86.6894H38.0003C38.2761 86.6894 38.46 86.8732 38.46 87.149V88.5281C38.46 88.8039 38.6439 88.9877 38.9197 88.9877H40.2987C40.5745 88.9877 40.7584 89.1716 40.7584 89.4474V90.8265C40.7584 91.1023 40.9423 91.2861 41.2181 91.2861H65.1213C65.3971 91.2861 65.581 91.1023 65.581 90.8265V89.4474C65.581 89.1716 65.7648 88.9877 66.0406 88.9877H67.4197C67.6955 88.9877 67.8794 88.8039 67.8794 88.5281V87.149C67.8794 86.8732 68.0632 86.6894 68.339 86.6894H69.7181C69.9939 86.6894 70.1777 86.5055 70.1777 86.2297V84.8506C70.1777 84.5748 70.3616 84.391 70.6374 84.391H72.0165C72.2923 84.391 72.4761 84.2071 72.4761 83.9313V77.9555C72.4761 77.6797 72.66 77.4958 72.9358 77.4958H74.3148C74.5906 77.4958 74.7745 77.3119 74.7745 77.0361V60.9474C74.7745 60.6716 74.9584 60.4878 75.2342 60.4878H76.6132C76.889 60.4878 77.0729 60.3039 77.0729 60.0281V58.649C77.0729 58.3732 77.2568 58.1894 77.5326 58.1894H78.9116C79.1874 58.1894 79.3713 58.0055 79.3713 57.7297V56.3507C79.3713 56.0748 79.5552 55.891 79.831 55.891H81.21C81.4858 55.891 81.6697 55.7071 81.6697 55.4313V50.8345C81.6697 50.5587 81.4858 50.3749 81.21 50.3749ZM62.3632 18.1974V19.5765C62.3632 19.8523 62.5471 20.0361 62.8229 20.0361H68.7987C69.0745 20.0361 69.2584 20.22 69.2584 20.4958V24.1732C69.2584 24.449 69.0745 24.6329 68.7987 24.6329H62.8229C62.5471 24.6329 62.3632 24.8168 62.3632 25.0926V26.4716C62.3632 26.7474 62.1794 26.9313 61.9035 26.9313H44.4358C44.16 26.9313 43.9761 26.7474 43.9761 26.4716V25.0926C43.9761 24.8168 43.7923 24.6329 43.5165 24.6329H37.5406C37.2648 24.6329 37.081 24.449 37.081 24.1732V20.4958C37.081 20.22 37.2648 20.0361 37.5406 20.0361H43.5165C43.7923 20.0361 43.9761 19.8523 43.9761 19.5765V18.1974C43.9761 17.9216 44.16 17.7378 44.4358 17.7378H61.9035C62.1794 17.7378 62.3632 17.9216 62.3632 18.1974ZM34.7826 25.0926H36.1616C36.4374 25.0926 36.6213 25.2765 36.6213 25.5523V26.9313C36.6213 27.2071 36.8052 27.391 37.081 27.391H43.0568C43.3326 27.391 43.5165 27.5749 43.5165 27.8507V29.2297C43.5165 29.5055 43.7003 29.6894 43.9761 29.6894H62.3632C62.639 29.6894 62.8229 29.5055 62.8229 29.2297V27.8507C62.8229 27.5749 63.0068 27.391 63.2826 27.391H69.2584C69.5342 27.391 69.7181 27.2071 69.7181 26.9313V25.5523C69.7181 25.2765 69.9019 25.0926 70.1777 25.0926H71.5568C71.8326 25.0926 72.0165 25.2765 72.0165 25.5523V34.7458C72.0165 35.0216 71.8326 35.2055 71.5568 35.2055H69.7181C69.4423 35.2055 69.2584 35.3894 69.2584 35.6652V37.0442C69.2584 37.32 69.0745 37.5039 68.7987 37.5039H64.6616C64.3858 37.5039 64.2019 37.6878 64.2019 37.9636V39.3426C64.2019 39.6184 64.0181 39.8023 63.7423 39.8023H60.9842C60.7084 39.8023 60.5245 39.6184 60.5245 39.3426V37.9636C60.5245 37.6878 60.3406 37.5039 60.0648 37.5039H55.0084C54.7326 37.5039 54.5487 37.32 54.5487 37.0442V35.6652C54.5487 35.3894 54.3648 35.2055 54.089 35.2055H50.4116C50.1358 35.2055 49.9519 35.3894 49.9519 35.6652V37.0442C49.9519 37.32 49.7681 37.5039 49.4923 37.5039H45.3552C45.0794 37.5039 44.8955 37.6878 44.8955 37.9636V39.3426C44.8955 39.6184 44.7116 39.8023 44.4358 39.8023H41.6777C41.4019 39.8023 41.2181 39.6184 41.2181 39.3426V37.9636C41.2181 37.6878 41.0342 37.5039 40.7584 37.5039H37.5406C37.2648 37.5039 37.081 37.32 37.081 37.0442V35.6652C37.081 35.3894 36.8971 35.2055 36.6213 35.2055H34.7826C34.5068 35.2055 34.3229 35.0216 34.3229 34.7458V25.5523C34.3229 25.2765 34.5987 25.0926 34.7826 25.0926ZM41.2181 88.0684V86.6894C41.2181 86.4136 41.0342 86.2297 40.7584 86.2297H39.3794C39.1035 86.2297 38.9197 86.0458 38.9197 85.77V84.391C38.9197 84.1152 38.7358 83.9313 38.46 83.9313H37.081C36.8052 83.9313 36.6213 83.7474 36.6213 83.4716V77.4958C36.6213 77.22 36.4374 77.0361 36.1616 77.0361H34.7826C34.5068 77.0361 34.3229 76.8523 34.3229 76.5765V60.4878C34.3229 60.2119 34.139 60.0281 33.8632 60.0281H32.4842C32.2084 60.0281 32.0245 59.8442 32.0245 59.5684V58.1894C32.0245 57.9136 31.8406 57.7297 31.5648 57.7297H30.1858C29.91 57.7297 29.7261 57.5458 29.7261 57.27V55.891C29.7261 55.6152 29.5423 55.4313 29.2665 55.4313H27.8874C27.6116 55.4313 27.4277 55.2474 27.4277 54.9716V51.2942C27.4277 51.0184 27.6116 50.8345 27.8874 50.8345H29.2665C29.5423 50.8345 29.7261 50.6507 29.7261 50.3749V48.9958C29.7261 48.72 29.91 48.5361 30.1858 48.5361H31.5648C31.8406 48.5361 32.0245 48.3523 32.0245 48.0765V43.9394C32.0245 43.6636 32.2084 43.4797 32.4842 43.4797H33.8632C34.139 43.4797 34.3229 43.2958 34.3229 43.02V38.4232C34.3229 38.1474 34.5068 37.9636 34.7826 37.9636H36.1616C36.4374 37.9636 36.6213 38.1474 36.6213 38.4232V39.8023C36.6213 40.0781 36.8052 40.2619 37.081 40.2619H40.2987C40.5745 40.2619 40.7584 40.4458 40.7584 40.7216V42.1007C40.7584 42.3765 40.9423 42.5603 41.2181 42.5603H44.8955C45.1713 42.5603 45.3552 42.3765 45.3552 42.1007V40.7216C45.3552 40.4458 45.539 40.2619 45.8148 40.2619H49.9519C50.2277 40.2619 50.4116 40.0781 50.4116 39.8023V38.4232C50.4116 38.1474 50.5955 37.9636 50.8713 37.9636H53.6294C53.9052 37.9636 54.089 38.1474 54.089 38.4232V39.8023C54.089 40.0781 54.2729 40.2619 54.5487 40.2619H59.6052C59.881 40.2619 60.0648 40.4458 60.0648 40.7216V42.1007C60.0648 42.3765 60.2487 42.5603 60.5245 42.5603H64.2019C64.4777 42.5603 64.6616 42.3765 64.6616 42.1007V40.7216C64.6616 40.4458 64.8455 40.2619 65.1213 40.2619H69.2584C69.5342 40.2619 69.7181 40.0781 69.7181 39.8023V38.4232C69.7181 38.1474 69.9019 37.9636 70.1777 37.9636H71.5568C71.8326 37.9636 72.0165 38.1474 72.0165 38.4232V43.02C72.0165 43.2958 72.2003 43.4797 72.4761 43.4797H73.8552C74.131 43.4797 74.3148 43.6636 74.3148 43.9394V48.0765C74.3148 48.3523 74.4987 48.5361 74.7745 48.5361H76.1535C76.4294 48.5361 76.6132 48.72 76.6132 48.9958V50.3749C76.6132 50.6507 76.7971 50.8345 77.0729 50.8345H78.4519C78.7277 50.8345 78.9116 51.0184 78.9116 51.2942V54.9716C78.9116 55.2474 78.7277 55.4313 78.4519 55.4313H77.0729C76.7971 55.4313 76.6132 55.6152 76.6132 55.891V57.27C76.6132 57.5458 76.4294 57.7297 76.1535 57.7297H74.7745C74.4987 57.7297 74.3148 57.9136 74.3148 58.1894V59.5684C74.3148 59.8442 74.131 60.0281 73.8552 60.0281H72.4761C72.2003 60.0281 72.0165 60.2119 72.0165 60.4878V76.5765C72.0165 76.8523 71.8326 77.0361 71.5568 77.0361H70.1777C69.9019 77.0361 69.7181 77.22 69.7181 77.4958V83.4716C69.7181 83.7474 69.5342 83.9313 69.2584 83.9313H67.8794C67.6035 83.9313 67.4197 84.1152 67.4197 84.391V85.77C67.4197 86.0458 67.2358 86.2297 66.96 86.2297H65.581C65.3052 86.2297 65.1213 86.4136 65.1213 86.6894V88.0684C65.1213 88.3442 64.9374 88.5281 64.6616 88.5281H41.6777C41.4939 88.5281 41.2181 88.3442 41.2181 88.0684Z" fill="#292D33"/>
<path d="M17.223 105.076V104.157H40.2069V105.076H17.223ZM14.9246 102.778V101.859H15.844V102.778H14.9246ZM41.5859 102.778V101.859H42.5053V102.778H41.5859ZM12.6262 100.48V99.5604H13.5456V100.48H12.6262ZM43.8843 100.48V99.5604H44.8036V100.48H43.8843ZM10.3278 98.1813V92.6652H11.2472V98.1813H10.3278ZM46.1827 98.1813V92.6652H47.102V98.1813H46.1827ZM8.02944 91.2862V75.6571H8.9488V91.2862H8.02944ZM48.4811 91.2862V75.6571H49.4004V91.2862H48.4811ZM5.73105 74.2781V73.3587H6.65041V74.2781H5.73105ZM50.7795 74.2781V73.3587H51.6988V74.2781H50.7795ZM3.43267 71.9797V71.0603H4.35202V71.9797H3.43267ZM53.0778 71.9797V71.0603H53.9972V71.9797H53.0778ZM1.13428 69.6813V66.0039H2.05363V69.6813H1.13428ZM55.3762 69.6813V66.0039H56.2956V69.6813H55.3762ZM3.43267 64.6249V63.7055H4.35202V64.6249H3.43267ZM53.0778 64.6249V63.7055H53.9972V64.6249H53.0778ZM5.73105 62.3265V58.6491H6.65041V62.3265H5.73105ZM50.7795 62.3265V58.6491H51.6988V62.3265H50.7795ZM8.02944 57.27V37.9636H9.40847C10.144 37.9636 10.7875 37.32 10.7875 36.5845V35.2055H11.7069C12.4423 35.2055 13.0859 34.562 13.0859 33.8265V32.9071H18.602C19.3375 32.9071 19.9811 32.2636 19.9811 31.5281V30.6087H37.4488V31.5281C37.4488 32.2636 38.0924 32.9071 38.8278 32.9071H44.344V33.8265C44.344 34.562 44.9875 35.2055 45.723 35.2055H46.6424V36.5845C46.6424 37.32 47.2859 37.9636 48.0214 37.9636H49.4004V57.27H48.4811V53.1329C48.4811 52.3974 47.8375 51.7539 47.102 51.7539H45.723C44.9875 51.7539 44.344 52.3974 44.344 53.1329V54.0523H41.5859C40.8504 54.0523 40.2069 54.6958 40.2069 55.4313V56.3507H37.4488V55.4313C37.4488 54.6958 36.8053 54.0523 36.0698 54.0523H32.3924V53.1329C32.3924 52.3974 31.7488 51.7539 31.0133 51.7539H28.2553C27.5198 51.7539 26.8762 52.3974 26.8762 53.1329V54.0523H22.2794C21.544 54.0523 20.9004 54.6958 20.9004 55.4313V56.3507H18.1423V55.4313C18.1423 54.6958 17.4988 54.0523 16.7633 54.0523H13.0859V53.1329C13.0859 52.3974 12.4423 51.7539 11.7069 51.7539H10.3278C9.59234 51.7539 8.9488 52.3974 8.9488 53.1329V57.27H8.02944Z" fill="white"/>
<path d="M0.214844 65.0845V70.6007H2.51323V72.8991H4.81162V75.1974H7.11001V92.2055H9.40839V99.1007H11.7068V101.399H14.0052V103.697H16.3036V105.996H41.1261V103.697H43.4245V101.399H45.7229V99.1007H48.0213V92.2055H50.3197V75.1974H52.6181V72.8991H54.9165V70.6007H57.2148V65.0845H54.9165V62.7862H52.6181V57.7297H50.3197V49.9152H44.8036V52.2136H40.6665V54.512H36.989V52.2136H31.9326V49.9152H27.3358V52.2136H21.36V54.512H17.6826V52.2136H12.6261V49.9152H7.11001V57.7297H4.81162V62.7862H2.51323V65.0845H0.214844Z" fill="#C3CAD4"/>
<path d="M0.214844 65.5442V70.141C0.214844 70.4168 0.398715 70.6007 0.674521 70.6007H2.05355C2.32936 70.6007 2.51323 70.7845 2.51323 71.0603V72.4394C2.51323 72.7152 2.6971 72.8991 2.97291 72.8991H4.35194C4.62775 72.8991 4.81162 73.0829 4.81162 73.3587V74.7378C4.81162 75.0136 4.99549 75.1974 5.2713 75.1974H6.65033C6.92613 75.1974 7.11001 75.3813 7.11001 75.6571V91.7458C7.11001 92.0216 7.29388 92.2055 7.56968 92.2055H8.94872C9.22452 92.2055 9.40839 92.3894 9.40839 92.6652V98.641C9.40839 98.9168 9.59226 99.1007 9.86807 99.1007H11.2471C11.5229 99.1007 11.7068 99.2845 11.7068 99.5603V100.939C11.7068 101.215 11.8907 101.399 12.1665 101.399H13.5455C13.8213 101.399 14.0052 101.583 14.0052 101.859V103.238C14.0052 103.514 14.189 103.697 14.4648 103.697H15.8439C16.1197 103.697 16.3036 103.881 16.3036 104.157V105.536C16.3036 105.812 16.4874 105.996 16.7632 105.996H40.6665C40.9423 105.996 41.1261 105.812 41.1261 105.536V104.157C41.1261 103.881 41.31 103.697 41.5858 103.697H42.9648C43.2407 103.697 43.4245 103.514 43.4245 103.238V101.859C43.4245 101.583 43.6084 101.399 43.8842 101.399H45.2632C45.539 101.399 45.7229 101.215 45.7229 100.939V99.5603C45.7229 99.2845 45.9068 99.1007 46.1826 99.1007H47.5616C47.8374 99.1007 48.0213 98.9168 48.0213 98.641V92.6652C48.0213 92.3894 48.2052 92.2055 48.481 92.2055H49.86C50.1358 92.2055 50.3197 92.0216 50.3197 91.7458V75.6571C50.3197 75.3813 50.5036 75.1974 50.7794 75.1974H52.1584C52.4342 75.1974 52.6181 75.0136 52.6181 74.7378V73.3587C52.6181 73.0829 52.8019 72.8991 53.0777 72.8991H54.4568C54.7326 72.8991 54.9165 72.7152 54.9165 72.4394V71.0603C54.9165 70.7845 55.1003 70.6007 55.3761 70.6007H56.7552C57.031 70.6007 57.2148 70.4168 57.2148 70.141V65.5442C57.2148 65.2684 57.031 65.0845 56.7552 65.0845H55.3761C55.1003 65.0845 54.9165 64.9007 54.9165 64.6249V63.2458C54.9165 62.97 54.7326 62.7862 54.4568 62.7862H53.0777C52.8019 62.7862 52.6181 62.6023 52.6181 62.3265V58.1894C52.6181 57.9136 52.4342 57.7297 52.1584 57.7297H50.7794C50.5036 57.7297 50.3197 57.5458 50.3197 57.27V37.5039C50.3197 37.2281 50.1358 37.0442 49.86 37.0442H48.0213C47.7455 37.0442 47.5616 36.8604 47.5616 36.5845V34.7458C47.5616 34.47 47.3777 34.2862 47.1019 34.2862H45.7229C45.4471 34.2862 45.2632 34.1023 45.2632 33.8265V32.4474C45.2632 32.1716 45.0794 31.9878 44.8036 31.9878H38.8277C38.5519 31.9878 38.3681 31.8039 38.3681 31.5281V30.1491C38.3681 29.8733 38.1842 29.6894 37.9084 29.6894H19.5213C19.2455 29.6894 19.0616 29.8733 19.0616 30.1491V31.5281C19.0616 31.8039 18.8777 31.9878 18.6019 31.9878H12.6261C12.3503 31.9878 12.1665 32.1716 12.1665 32.4474V33.8265C12.1665 34.1023 11.9826 34.2862 11.7068 34.2862H10.3277C10.0519 34.2862 9.86807 34.47 9.86807 34.7458V36.5845C9.86807 36.8604 9.6842 37.0442 9.40839 37.0442H7.56968C7.29388 37.0442 7.11001 37.2281 7.11001 37.5039V57.27C7.11001 57.5458 6.92613 57.7297 6.65033 57.7297H5.2713C4.99549 57.7297 4.81162 57.9136 4.81162 58.1894V62.3265C4.81162 62.6023 4.62775 62.7862 4.35194 62.7862H2.97291C2.6971 62.7862 2.51323 62.97 2.51323 63.2458V64.6249C2.51323 64.9007 2.32936 65.0845 2.05355 65.0845H0.674521C0.398715 65.0845 0.214844 65.3603 0.214844 65.5442ZM19.981 32.4474H37.4487C37.7245 32.4474 37.9084 32.6313 37.9084 32.9071V34.2862C37.9084 34.562 38.0923 34.7458 38.3681 34.7458H44.3439C44.6197 34.7458 44.8036 34.9297 44.8036 35.2055V38.8829C44.8036 39.1587 44.6197 39.3426 44.3439 39.3426H38.3681C38.0923 39.3426 37.9084 39.5265 37.9084 39.8023V41.1813C37.9084 41.4571 37.7245 41.641 37.4487 41.641H19.981C19.7052 41.641 19.5213 41.4571 19.5213 41.1813V39.8023C19.5213 39.5265 19.3374 39.3426 19.0616 39.3426H13.0858C12.81 39.3426 12.6261 39.1587 12.6261 38.8829V35.2055C12.6261 34.9297 12.81 34.7458 13.0858 34.7458H19.0616C19.3374 34.7458 19.5213 34.562 19.5213 34.2862V32.9071C19.5213 32.7233 19.7052 32.4474 19.981 32.4474ZM47.5616 40.262V49.4555C47.5616 49.7313 47.3777 49.9152 47.1019 49.9152H45.2632C44.9874 49.9152 44.8036 50.0991 44.8036 50.3749V51.7539C44.8036 52.0297 44.6197 52.2136 44.3439 52.2136H41.1261C40.8503 52.2136 40.6665 52.3974 40.6665 52.6733V54.0523C40.6665 54.3281 40.4826 54.512 40.2068 54.512H37.4487C37.1729 54.512 36.989 54.3281 36.989 54.0523V52.6733C36.989 52.3974 36.8052 52.2136 36.5294 52.2136H32.3923C32.1165 52.2136 31.9326 52.0297 31.9326 51.7539V50.3749C31.9326 50.0991 31.7487 49.9152 31.4729 49.9152H27.7955C27.5197 49.9152 27.3358 50.0991 27.3358 50.3749V51.7539C27.3358 52.0297 27.1519 52.2136 26.8761 52.2136H21.8197C21.5439 52.2136 21.36 52.3974 21.36 52.6733V54.0523C21.36 54.3281 21.1761 54.512 20.9003 54.512H18.1423C17.8665 54.512 17.6826 54.3281 17.6826 54.0523V52.6733C17.6826 52.3974 17.4987 52.2136 17.2229 52.2136H13.0858C12.81 52.2136 12.6261 52.0297 12.6261 51.7539V50.3749C12.6261 50.0991 12.4423 49.9152 12.1665 49.9152H10.3277C10.0519 49.9152 9.86807 49.7313 9.86807 49.4555V40.262C9.86807 39.9862 10.0519 39.8023 10.3277 39.8023H11.7068C11.9826 39.8023 12.1665 39.9862 12.1665 40.262V41.641C12.1665 41.9168 12.3503 42.1007 12.6261 42.1007H18.6019C18.8777 42.1007 19.0616 42.2845 19.0616 42.5603V43.9394C19.0616 44.2152 19.2455 44.3991 19.5213 44.3991H37.9084C38.1842 44.3991 38.3681 44.2152 38.3681 43.9394V42.5603C38.3681 42.2845 38.5519 42.1007 38.8277 42.1007H44.8036C45.0794 42.1007 45.2632 41.9168 45.2632 41.641V40.262C45.2632 39.9862 45.4471 39.8023 45.7229 39.8023H47.1019C47.3777 39.8023 47.5616 40.0781 47.5616 40.262ZM40.2068 103.238H17.2229C16.9471 103.238 16.7632 103.054 16.7632 102.778V101.399C16.7632 101.123 16.5794 100.939 16.3036 100.939H14.9245C14.6487 100.939 14.4648 100.755 14.4648 100.48V99.1007C14.4648 98.8249 14.281 98.641 14.0052 98.641H12.6261C12.3503 98.641 12.1665 98.4571 12.1665 98.1813V92.2055C12.1665 91.9297 11.9826 91.7458 11.7068 91.7458H10.3277C10.0519 91.7458 9.86807 91.562 9.86807 91.2861V75.1974C9.86807 74.9216 9.6842 74.7378 9.40839 74.7378H8.02936C7.75355 74.7378 7.56968 74.5539 7.56968 74.2781V72.8991C7.56968 72.6232 7.38581 72.4394 7.11001 72.4394H5.73097C5.45517 72.4394 5.2713 72.2555 5.2713 71.9797V70.6007C5.2713 70.3249 5.08742 70.141 4.81162 70.141H3.43259C3.15678 70.141 2.97291 69.9571 2.97291 69.6813V66.0039C2.97291 65.7281 3.15678 65.5442 3.43259 65.5442H4.81162C5.08742 65.5442 5.2713 65.3603 5.2713 65.0845V63.7055C5.2713 63.4297 5.45517 63.2458 5.73097 63.2458H7.11001C7.38581 63.2458 7.56968 63.062 7.56968 62.7862V58.6491C7.56968 58.3732 7.75355 58.1894 8.02936 58.1894H9.40839C9.6842 58.1894 9.86807 58.0055 9.86807 57.7297V53.1329C9.86807 52.8571 10.0519 52.6733 10.3277 52.6733H11.7068C11.9826 52.6733 12.1665 52.8571 12.1665 53.1329V54.512C12.1665 54.7878 12.3503 54.9716 12.6261 54.9716H16.7632C17.039 54.9716 17.2229 55.1555 17.2229 55.4313V56.8103C17.2229 57.0862 17.4068 57.27 17.6826 57.27H21.36C21.6358 57.27 21.8197 57.0862 21.8197 56.8103V55.4313C21.8197 55.1555 22.0036 54.9716 22.2794 54.9716H27.3358C27.6116 54.9716 27.7955 54.7878 27.7955 54.512V53.1329C27.7955 52.8571 27.9794 52.6733 28.2552 52.6733H31.0132C31.289 52.6733 31.4729 52.8571 31.4729 53.1329V54.512C31.4729 54.7878 31.6568 54.9716 31.9326 54.9716H36.0697C36.3455 54.9716 36.5294 55.1555 36.5294 55.4313V56.8103C36.5294 57.0862 36.7132 57.27 36.989 57.27H40.6665C40.9423 57.27 41.1261 57.0862 41.1261 56.8103V55.4313C41.1261 55.1555 41.31 54.9716 41.5858 54.9716H44.8036C45.0794 54.9716 45.2632 54.7878 45.2632 54.512V53.1329C45.2632 52.8571 45.4471 52.6733 45.7229 52.6733H47.1019C47.3777 52.6733 47.5616 52.8571 47.5616 53.1329V57.7297C47.5616 58.0055 47.7455 58.1894 48.0213 58.1894H49.4003C49.6761 58.1894 49.86 58.3732 49.86 58.6491V62.7862C49.86 63.062 50.0439 63.2458 50.3197 63.2458H51.6987C51.9745 63.2458 52.1584 63.4297 52.1584 63.7055V65.0845C52.1584 65.3603 52.3423 65.5442 52.6181 65.5442H53.9971C54.2729 65.5442 54.4568 65.7281 54.4568 66.0039V69.6813C54.4568 69.9571 54.2729 70.141 53.9971 70.141H52.6181C52.3423 70.141 52.1584 70.3249 52.1584 70.6007V71.9797C52.1584 72.2555 51.9745 72.4394 51.6987 72.4394H50.3197C50.0439 72.4394 49.86 72.6232 49.86 72.8991V74.2781C49.86 74.5539 49.6761 74.7378 49.4003 74.7378H48.0213C47.7455 74.7378 47.5616 74.9216 47.5616 75.1974V91.2861C47.5616 91.562 47.3777 91.7458 47.1019 91.7458H45.7229C45.4471 91.7458 45.2632 91.9297 45.2632 92.2055V98.1813C45.2632 98.4571 45.0794 98.641 44.8036 98.641H43.4245C43.1487 98.641 42.9648 98.8249 42.9648 99.1007V100.48C42.9648 100.755 42.781 100.939 42.5052 100.939H41.1261C40.8503 100.939 40.6665 101.123 40.6665 101.399V102.778C40.6665 103.054 40.4826 103.238 40.2068 103.238Z" fill="#292D33"/>
<path d="M87.3177 98.3598C87.3591 98.6672 87.12 98.9406 86.8098 98.9406H86.4191H85.7354C85.247 98.9406 84.8563 98.9406 84.3679 98.9406C83.4888 98.9406 82.6098 98.843 81.7307 98.7453C79.9725 98.5499 78.312 98.2569 76.6515 97.8662C73.3305 97.0848 69.9119 95.9127 66.6886 94.1545C63.4652 92.3963 60.4373 90.1498 58.0931 87.2195C55.6512 84.3869 53.893 81.0659 52.8185 77.7449C51.7441 74.424 51.2557 71.103 51.1581 67.9773C51.1581 65.6331 50.9627 63.2889 50.4743 61.14C49.9859 58.9911 49.3022 57.0376 48.1301 55.6701C47.389 54.6596 46.4621 53.8814 45.3173 53.3996C44.3947 53.0114 43.6478 52.1885 43.6623 51.1876L43.7076 48.0601C43.7229 47.0099 44.5502 46.1355 45.5982 46.2042C46.7732 46.2813 47.9608 46.4973 49.1069 46.8793C50.865 47.4654 52.5255 48.4421 53.893 49.5166C56.7256 51.7631 58.5814 54.7911 59.9489 57.7213C61.3164 60.6516 62.1955 63.6796 62.8792 66.6099C63.4652 68.8564 64.2467 70.8099 65.2234 72.4704C67.2746 75.7914 70.1072 77.6473 73.5259 78.5263C75.2841 79.0147 77.1399 79.2101 79.1911 79.2101C80.1679 79.2101 81.1446 79.1124 82.1214 79.0147C82.5448 78.93 82.9681 78.9188 83.3915 78.8537C83.5217 78.8336 83.6534 78.8208 83.7832 78.7983C83.9487 78.7696 84.1334 78.7217 84.2703 78.7217C84.3679 78.7217 84.4656 78.624 84.5633 78.624C84.6192 78.624 84.6665 78.6654 84.674 78.7208L87.3177 98.3598Z" fill="#FAFBFD"/>
<path fill-rule="evenodd" clip-rule="evenodd" d="M45.3287 47.7708C45.2649 47.8349 45.2095 47.9438 45.2075 48.0818L45.1622 51.2094C45.1607 51.3132 45.1946 51.4408 45.3146 51.5925C45.4409 51.7521 45.6442 51.9098 45.8991 52.0171C47.3056 52.6089 48.4294 53.5565 49.3063 54.7377C50.7016 56.3896 51.4407 58.6236 51.937 60.8076C52.4552 63.0876 52.6567 65.5402 52.6581 67.9534C52.7536 70.9508 53.2229 74.1219 54.2457 77.2832C55.2648 80.4331 56.9304 83.5735 59.2292 86.2401L59.2472 86.261L59.2644 86.2825C61.4499 89.0143 64.3023 91.1443 67.4069 92.8377C70.4867 94.5176 73.7732 95.648 76.9951 96.4061C78.5996 96.7836 80.2006 97.0661 81.8963 97.2545C82.7897 97.3537 83.5859 97.4406 84.368 97.4406H85.6805L83.3823 80.3687C83.2425 80.3858 83.109 80.3991 82.995 80.4105C82.9646 80.4135 82.9357 80.4164 82.9083 80.4191C82.7016 80.4402 82.5514 80.4584 82.4156 80.4856L82.3436 80.5L82.2371 80.5106C81.2823 80.6061 80.2429 80.7101 79.1911 80.7101C77.0507 80.7101 75.0575 80.5069 73.1383 79.9755C69.3862 79.0075 66.218 76.9351 63.9472 73.2587L63.9387 73.2449L63.9305 73.231C62.8709 71.4296 62.0419 69.3426 61.4278 66.9885L61.4229 66.9697L61.4184 66.9507C60.7463 64.0702 59.8955 61.1539 58.5896 58.3557C57.268 55.5235 55.5343 52.7337 52.9636 50.6939C51.7037 49.7044 50.1946 48.823 48.6325 48.3023C47.6196 47.9647 46.5596 47.7705 45.5001 47.701C45.439 47.697 45.3852 47.714 45.3287 47.7708ZM42.2078 48.0383C42.2337 46.2549 43.6718 44.5747 45.6964 44.7074C46.9868 44.792 48.302 45.0299 49.5812 45.4563C51.5344 46.1073 53.3452 47.1785 54.8197 48.3371L54.8251 48.3413C57.9181 50.7944 59.8954 54.0596 61.3082 57.087C62.7342 60.1427 63.6407 63.2753 64.3355 66.2497C64.8912 68.3742 65.6205 70.1835 66.5081 71.6959C68.3362 74.6482 70.8251 76.2831 73.8995 77.0736L73.9135 77.0772L73.9274 77.0811C75.5202 77.5235 77.2343 77.7101 79.1911 77.7101C80.0604 77.7101 80.9418 77.6251 81.9051 77.5289C82.1639 77.481 82.4076 77.4546 82.6046 77.4346C82.6426 77.4307 82.6786 77.4271 82.713 77.4236C82.8922 77.4056 83.0266 77.3921 83.1634 77.3711C83.3215 77.3468 83.367 77.3422 83.4002 77.3388C83.4293 77.3359 83.449 77.3339 83.5269 77.3204C83.5478 77.3168 83.5739 77.3117 83.6163 77.3032C83.6529 77.2959 83.7092 77.2845 83.7641 77.2744C83.8043 77.2669 83.8625 77.2563 83.9326 77.2466C83.9425 77.2427 83.9528 77.2388 83.9633 77.2348C84.0809 77.1907 84.2932 77.124 84.5633 77.124C85.3703 77.124 86.0529 77.7209 86.1606 78.5207L88.8043 98.1597C88.9668 99.3669 88.028 100.441 86.8099 100.441H84.368C83.4054 100.441 82.4566 100.335 81.6011 100.24L81.5651 100.236C79.7444 100.034 78.0245 99.7302 76.308 99.3263C72.8879 98.5216 69.3371 97.3078 65.9703 95.4714C62.6359 93.6526 59.4395 91.2961 56.939 88.1781C54.3634 85.1841 52.5186 81.6907 51.3914 78.2067C50.2679 74.7341 49.7603 71.2713 49.6588 68.0242L49.6581 68.0008V67.9773C49.6581 65.7098 49.4685 63.4826 49.0116 61.4724C48.5356 59.378 47.916 57.7252 46.9912 56.6463L46.9542 56.6031L46.9205 56.5572C46.3201 55.7385 45.6008 55.1463 44.7355 54.7822C43.4637 54.247 42.1362 52.9816 42.1625 51.1659L42.2078 48.0383Z" fill="#292D33"/>
<path d="M166.807 100.245C163.29 100.245 159.286 99.6386 155.086 98.4265L158.114 91.067C161.337 92.0194 164.267 92.4523 166.709 92.4523C169.737 92.4523 172.277 91.7596 174.23 90.3743C179.993 86.3915 182.142 75.7419 180.286 61.196C179.505 55.3084 177.258 51.239 174.328 50.5463C173.937 50.4598 173.546 50.3732 173.156 50.3732C170.714 50.3732 167.686 52.1048 165.049 54.962C161.435 58.9448 156.355 61.9752 153.62 63.3606L149.518 56.434C151.765 55.2218 155.672 52.8841 158.211 50.0268C162.607 45.1782 167.881 42.4942 173.156 42.4942C174.425 42.4942 175.598 42.6673 176.77 42.9271C180.677 43.8795 187.416 47.516 189.077 60.2436C190.64 72.6249 190.347 88.989 179.7 96.4351C176.184 99.0326 171.886 100.245 166.807 100.245Z" fill="#FAFBFD"/>
<path fill-rule="evenodd" clip-rule="evenodd" d="M159.327 51.029C157.085 53.5495 153.91 55.6464 151.592 56.9919L154.182 61.365C156.948 59.8355 160.982 57.2111 163.938 53.9541L163.946 53.9446C166.696 50.9653 170.096 48.8732 173.156 48.8732C173.714 48.8732 174.244 48.9911 174.604 49.0712C174.621 49.0748 174.637 49.0784 174.652 49.0819L174.663 49.0841L174.673 49.0866C176.711 49.5684 178.292 51.1631 179.423 53.1927C180.567 55.2446 181.366 57.9297 181.773 60.9986L181.774 61.0061C182.715 68.3814 182.654 74.857 181.584 80.049C180.521 85.2125 178.415 89.3015 175.091 91.603C172.821 93.2098 169.956 93.9523 166.709 93.9523C164.443 93.9523 161.827 93.6047 158.994 92.8683L157.12 97.4242C160.61 98.3094 163.901 98.7447 166.807 98.7447C171.64 98.7447 175.605 97.5952 178.809 95.2286L178.824 95.217L178.84 95.2059C183.719 91.7937 186.322 86.2756 187.492 79.9186C188.661 73.5648 188.361 66.5517 187.589 60.4343C186.791 54.3196 184.795 50.5317 182.656 48.1786C180.519 45.8277 178.149 44.8097 176.429 44.3881C175.334 44.146 174.28 43.9942 173.156 43.9942C168.411 43.9942 163.516 46.4107 159.327 51.029ZM157.1 49.0194C161.701 43.9439 167.353 40.9942 173.156 40.9942C174.566 40.9942 175.851 41.1872 177.094 41.4626L177.11 41.466L177.125 41.4698C179.312 42.0028 182.257 43.2802 184.876 46.1607C187.498 49.0454 189.702 53.4386 190.564 60.0495L190.565 60.0557C191.356 66.3189 191.69 73.6774 190.442 80.4615C189.196 87.2372 186.333 93.6187 180.576 97.6532C176.75 100.473 172.124 101.745 166.807 101.745C163.126 101.745 158.98 101.112 154.67 99.8677L153.062 99.4036L157.241 89.2451L158.539 89.6284C161.65 90.5477 164.436 90.9523 166.709 90.9523C169.515 90.9523 171.726 90.311 173.362 89.1507L173.37 89.1455L173.377 89.1403C175.811 87.458 177.659 84.2332 178.646 79.4436C179.627 74.6795 179.713 68.5587 178.799 61.3898C178.424 58.5727 177.71 56.2806 176.803 54.6534C175.886 53.0088 174.881 52.2223 173.992 52.0083C173.578 51.9167 173.352 51.8732 173.156 51.8732C171.332 51.8732 168.678 53.2428 166.155 55.9749C162.363 60.1512 157.102 63.2785 154.298 64.6987L153.045 65.3333L147.432 55.8551L148.806 55.1139C151.03 53.9136 154.736 51.6784 157.09 49.0303L157.095 49.0248L157.1 49.0194Z" fill="#292D33"/>
<path d="M140.629 114H104.392C103.219 114 102.243 113.023 102.243 111.851V106.284H142.778V111.851C142.778 113.023 141.802 114 140.629 114Z" fill="#292D33"/>
<path d="M158.309 62.6052C156.551 61.0423 154.89 59.3819 153.425 57.6237C150.104 53.5213 149.323 48.0514 150.983 43.0699C151.276 42.1909 150.592 41.2141 149.616 41.2141H95.4054C94.4287 41.2141 93.7449 42.1909 94.038 43.0699C95.7961 48.0514 94.917 53.5213 91.5961 57.6237C90.1309 59.3819 88.4704 61.0423 86.7123 62.6052C70.5957 76.9636 78.1168 103.629 99.2148 107.927C111.229 110.369 133.694 110.369 145.709 107.927C166.904 103.629 174.425 76.9636 158.309 62.6052Z" fill="#FAFBFD"/>
<path fill-rule="evenodd" clip-rule="evenodd" d="M92.6148 43.5443C91.9956 41.6867 93.4123 39.7141 95.4053 39.7141H149.616C151.609 39.7141 153.025 41.6867 152.406 43.5443C150.894 48.0803 151.619 53.0025 154.584 56.6717C155.989 58.357 157.592 59.9613 159.305 61.4841L159.307 61.4852C176.374 76.6912 168.375 104.861 146.007 109.397C139.861 110.646 131.128 111.258 122.462 111.258C113.795 111.258 105.063 110.646 98.9159 109.397L98.9152 109.397C76.6416 104.859 68.6493 76.6885 85.7143 61.4852L85.7156 61.4841C87.4286 59.9614 89.0314 58.357 90.4366 56.6717C93.4153 52.9865 94.2116 48.0694 92.6233 43.5692L92.6189 43.5568L92.6148 43.5443ZM95.5022 42.7141C97.3622 48.1353 96.3877 54.0884 92.7618 58.5675L92.7551 58.5758L92.7482 58.584C91.2251 60.4117 89.5096 62.1254 87.7094 63.7256C72.5421 77.239 79.5917 102.398 99.5134 106.457M95.5022 42.7141H149.521C147.764 48.1066 148.615 54.0658 152.259 58.5675L152.266 58.5758L152.273 58.584C153.796 60.4115 155.511 62.125 157.311 63.7252C172.476 77.2357 165.433 102.397 145.41 106.457L145.41 106.457C139.542 107.649 131.035 108.258 122.462 108.258C113.889 108.258 105.381 107.65 99.514 106.457" fill="#292D33"/>
<path d="M149.03 39.5536C147.955 39.5536 146.881 39.2606 145.904 38.7722C141.704 36.428 136.429 29.786 132.913 24.9022C130.471 21.4835 126.662 19.53 122.657 19.53H122.462C118.457 19.53 114.648 21.4835 112.206 24.9022C108.689 29.786 103.415 36.428 99.2148 38.7722C98.2381 39.3583 97.1636 39.5536 96.0892 39.5536C94.038 39.5536 92.1821 41.1164 91.9868 43.2653C91.7914 45.7072 93.6473 47.8561 95.8938 47.8561H149.323C151.765 47.8561 153.718 45.5119 153.23 42.8746C152.741 40.9211 150.983 39.5536 149.03 39.5536Z" fill="#FAFBFD"/>
<path fill-rule="evenodd" clip-rule="evenodd" d="M110.987 24.0282C113.704 20.2257 117.962 18.03 122.462 18.03H122.657C127.156 18.03 131.414 20.2254 134.132 24.0275C135.874 26.4472 138.037 29.2822 140.272 31.792C142.523 34.32 144.742 36.3969 146.605 37.4455C147.4 37.8381 148.235 38.0536 149.03 38.0536C151.681 38.0536 154.032 39.8989 154.685 42.5108L154.696 42.5558L154.705 42.6015C155.353 46.1017 152.762 49.3561 149.323 49.3561H95.8937C92.6614 49.3561 90.2354 46.3466 90.4914 43.1457L90.4921 43.1376L90.4928 43.1295C90.7622 40.1666 93.3043 38.0536 96.0891 38.0536C96.9847 38.0536 97.7679 37.891 98.443 37.486L98.4631 37.4739L98.4837 37.4624C100.353 36.4193 102.583 34.3336 104.846 31.792C107.081 29.2825 109.244 26.4477 110.987 24.0282ZM122.462 21.03C118.952 21.03 115.593 22.7406 113.426 25.774L113.423 25.7786C111.649 28.2424 109.418 31.1695 107.087 33.7871C104.79 36.3661 102.291 38.7672 99.9657 40.0709C98.6931 40.828 97.3355 41.0536 96.0891 41.0536C94.774 41.0536 93.6065 42.0622 93.4812 43.3932C93.3515 45.072 94.635 46.3561 95.8937 46.3561H149.323C150.755 46.3561 152.06 44.9467 151.763 43.1937C151.424 41.9229 150.271 41.0536 149.03 41.0536C147.685 41.0536 146.383 40.6886 145.233 40.1138L145.203 40.0986L145.173 40.082C142.842 38.7809 140.335 36.3735 138.032 33.7871C135.701 31.1695 133.47 28.2424 131.696 25.7786L131.692 25.774C129.526 22.7406 126.166 21.03 122.657 21.03H122.462Z" fill="#292D33"/>
<path d="M122.852 13.9625C125.392 13.9625 127.443 16.0137 127.443 18.5532V19.4323H118.164V18.5532C118.261 16.0137 120.313 13.9625 122.852 13.9625Z" fill="#292D33"/>
</g>
<defs>
<clipPath id="clip0_2498_34887">
<rect width="191.226" height="114" fill="white"/>
</clipPath>
</defs>
</svg>
