<svg width="106" height="114" viewBox="0 0 106 114" fill="none" xmlns="http://www.w3.org/2000/svg">
<path d="M100.75 1.80952V0.452381C100.75 0.180952 100.569 0 100.297 0H87.1782C86.9068 0 86.7259 0.180952 86.7259 0.452381V1.80952C86.7259 2.08095 86.5449 2.2619 86.2735 2.2619H84.9163H84.464V14.9286C84.464 15.2 84.283 15.381 84.0116 15.381H71.7973C71.5258 15.381 71.3449 15.5619 71.3449 15.8333V17.1905C71.3449 17.4619 71.1639 17.6429 70.8925 17.6429H69.5354C69.2639 17.6429 69.083 17.8238 69.083 18.0952V30.3095C69.083 30.581 68.902 30.7619 68.6306 30.7619H35.6068C35.3354 30.7619 35.1544 30.581 35.1544 30.3095V18.0952C35.1544 17.8238 34.9735 17.6429 34.702 17.6429H33.3449C33.0735 17.6429 32.8925 17.4619 32.8925 17.1905V15.8333C32.8925 15.5619 32.7116 15.381 32.4401 15.381H20.2258C19.9544 15.381 19.7735 15.2 19.7735 14.9286V2.2619H19.3211H17.9639C17.6925 2.2619 17.5115 2.08095 17.5115 1.80952V0.452381C17.5115 0.180952 17.3306 0 17.0592 0H3.94012C3.66869 0 3.48774 0.180952 3.48774 0.452381V1.80952C3.48774 2.08095 3.30678 2.2619 3.03535 2.2619H1.67821C1.40678 2.2619 1.22583 2.44286 1.22583 2.71429V113.548C1.22583 113.819 1.40678 114 1.67821 114H102.559C102.831 114 103.012 113.819 103.012 113.548V2.71429C103.012 2.44286 102.831 2.2619 102.559 2.2619H101.202C100.931 2.2619 100.75 2.08095 100.75 1.80952Z" fill="#FAFBFD"/>
<path d="M22.6474 42.3823H27.8474C28.2473 42.3823 28.5473 41.9226 28.2473 41.6468L21.2474 34.2C21.0474 34.0161 20.6474 34.0161 20.4474 34.2L13.4474 41.6468C13.1474 41.9226 13.3474 42.3823 13.8474 42.3823H19.0474C19.4474 42.3823 19.7474 42.8419 19.4474 43.1177L13.4474 49.4613C13.1474 49.7371 13.3474 50.1968 13.8474 50.1968H19.0474C19.4474 50.1968 19.7474 50.6564 19.4474 50.9323L13.4474 57.2758C13.1474 57.5516 13.3474 58.0113 13.8474 58.0113H19.0474C19.4474 58.0113 19.7474 58.471 19.4474 58.7468L13.4474 65.0903C13.1474 65.3661 13.3474 65.8258 13.8474 65.8258H27.8474C28.2473 65.8258 28.5473 65.3661 28.2473 65.0903L22.2473 58.7468C21.9473 58.471 22.1474 58.0113 22.6474 58.0113H27.8474C28.2473 58.0113 28.5473 57.5516 28.2473 57.2758L22.2473 50.9323C21.9473 50.6564 22.1474 50.1968 22.6474 50.1968H27.8474C28.2473 50.1968 28.5473 49.7371 28.2473 49.4613L22.2473 43.1177C22.0473 42.8419 22.2474 42.3823 22.6474 42.3823Z" fill="#292D33"/>
<path d="M86.923 63.1597V61.7806C86.923 61.5048 87.1069 61.3209 87.3827 61.3209H88.7617C89.0375 61.3209 89.2214 61.1371 89.2214 60.8613V59.4822C89.2214 59.2064 89.4053 59.0226 89.6811 59.0226H91.0601C91.3359 59.0226 91.5198 58.8387 91.5198 58.5629V57.1839C91.5198 56.908 91.7037 56.7242 91.9795 56.7242H93.3585C93.6343 56.7242 93.8182 56.5403 93.8182 56.2645V54.4258C93.8182 54.15 93.6343 53.9661 93.3585 53.9661H91.5198C91.244 53.9661 91.0601 54.15 91.0601 54.4258V55.8048C91.0601 56.0806 90.8762 56.2645 90.6004 56.2645H89.2214C88.9456 56.2645 88.7617 56.4484 88.7617 56.7242V58.1032C88.7617 58.379 88.5778 58.5629 88.302 58.5629H86.923C86.6472 58.5629 86.4633 58.7468 86.4633 59.0226V60.4016C86.4633 60.6774 86.2795 60.8613 86.0037 60.8613H85.0843C84.8085 60.8613 84.6246 60.6774 84.6246 60.4016V59.0226C84.6246 58.7468 84.4407 58.5629 84.1649 58.5629H82.7859C82.5101 58.5629 82.3262 58.379 82.3262 58.1032V56.7242C82.3262 56.4484 82.1424 56.2645 81.8666 56.2645H80.4875C80.2117 56.2645 80.0278 56.0806 80.0278 55.8048V54.4258C80.0278 54.15 79.844 53.9661 79.5682 53.9661H77.7295C77.4536 53.9661 77.2698 54.15 77.2698 54.4258V56.2645C77.2698 56.5403 77.4536 56.7242 77.7295 56.7242H79.1085C79.3843 56.7242 79.5682 56.908 79.5682 57.1839V58.5629C79.5682 58.8387 79.752 59.0226 80.0278 59.0226H81.4069C81.6827 59.0226 81.8666 59.2064 81.8666 59.4822V60.8613C81.8666 61.1371 82.0504 61.3209 82.3262 61.3209H83.7053C83.9811 61.3209 84.1649 61.5048 84.1649 61.7806V63.1597C84.1649 63.4355 84.3488 63.6193 84.6246 63.6193H86.4633C86.7391 63.6193 86.923 63.4355 86.923 63.1597Z" fill="#292D33"/>
<path d="M86.923 53.2306V51.8516C86.923 51.5758 87.1069 51.3919 87.3827 51.3919H88.7617C89.0375 51.3919 89.2214 51.208 89.2214 50.9322V49.5532C89.2214 49.2774 89.4053 49.0935 89.6811 49.0935H91.0601C91.3359 49.0935 91.5198 48.9096 91.5198 48.6338V47.2548C91.5198 46.979 91.7037 46.7951 91.9795 46.7951H93.3585C93.6343 46.7951 93.8182 46.6113 93.8182 46.3354V44.4967C93.8182 44.2209 93.6343 44.0371 93.3585 44.0371H91.5198C91.244 44.0371 91.0601 44.2209 91.0601 44.4967V45.8758C91.0601 46.1516 90.8762 46.3354 90.6004 46.3354H89.2214C88.9456 46.3354 88.7617 46.5193 88.7617 46.7951V48.1742C88.7617 48.45 88.5778 48.6338 88.302 48.6338H86.923C86.6472 48.6338 86.4633 48.8177 86.4633 49.0935V50.4725C86.4633 50.7484 86.2795 50.9322 86.0037 50.9322H85.0843C84.8085 50.9322 84.6246 50.7484 84.6246 50.4725V49.0935C84.6246 48.8177 84.4407 48.6338 84.1649 48.6338H82.7859C82.5101 48.6338 82.3262 48.45 82.3262 48.1742V46.7951C82.3262 46.5193 82.1424 46.3354 81.8666 46.3354H80.4875C80.2117 46.3354 80.0278 46.1516 80.0278 45.8758V44.4967C80.0278 44.2209 79.844 44.0371 79.5682 44.0371H77.7295C77.4536 44.0371 77.2698 44.2209 77.2698 44.4967V46.3354C77.2698 46.6113 77.4536 46.7951 77.7295 46.7951H79.1085C79.3843 46.7951 79.5682 46.979 79.5682 47.2548V48.6338C79.5682 48.9096 79.752 49.0935 80.0278 49.0935H81.4069C81.6827 49.0935 81.8666 49.2774 81.8666 49.5532V50.9322C81.8666 51.208 82.0504 51.3919 82.3262 51.3919H83.7053C83.9811 51.3919 84.1649 51.5758 84.1649 51.8516V53.2306C84.1649 53.5064 84.3488 53.6903 84.6246 53.6903H86.4633C86.7391 53.6903 86.923 53.4145 86.923 53.2306Z" fill="#292D33"/>
<path d="M86.923 43.3016V41.9225C86.923 41.6467 87.1069 41.4629 87.3827 41.4629H88.7617C89.0375 41.4629 89.2214 41.279 89.2214 41.0032V39.6242C89.2214 39.3484 89.4053 39.1645 89.6811 39.1645H91.0601C91.3359 39.1645 91.5198 38.9806 91.5198 38.7048V37.3258C91.5198 37.05 91.7037 36.8661 91.9795 36.8661H93.3585C93.6343 36.8661 93.8182 36.6822 93.8182 36.4064V34.5677C93.8182 34.2919 93.6343 34.108 93.3585 34.108H91.5198C91.244 34.108 91.0601 34.2919 91.0601 34.5677V35.9467C91.0601 36.2225 90.8762 36.4064 90.6004 36.4064H89.2214C88.9456 36.4064 88.7617 36.5903 88.7617 36.8661V38.2451C88.7617 38.5209 88.5778 38.7048 88.302 38.7048H86.923C86.6472 38.7048 86.4633 38.8887 86.4633 39.1645V40.5435C86.4633 40.8193 86.2795 41.0032 86.0037 41.0032H85.0843C84.8085 41.0032 84.6246 40.8193 84.6246 40.5435V39.1645C84.6246 38.8887 84.4407 38.7048 84.1649 38.7048H82.7859C82.5101 38.7048 82.3262 38.5209 82.3262 38.2451V36.8661C82.3262 36.5903 82.1424 36.4064 81.8666 36.4064H80.4875C80.2117 36.4064 80.0278 36.2225 80.0278 35.9467V34.5677C80.0278 34.2919 79.844 34.108 79.5682 34.108H77.7295C77.4536 34.108 77.2698 34.2919 77.2698 34.5677V36.4064C77.2698 36.6822 77.4536 36.8661 77.7295 36.8661H79.1085C79.3843 36.8661 79.5682 37.05 79.5682 37.3258V38.7048C79.5682 38.9806 79.752 39.1645 80.0278 39.1645H81.4069C81.6827 39.1645 81.8666 39.3484 81.8666 39.6242V41.0032C81.8666 41.279 82.0504 41.4629 82.3262 41.4629H83.7053C83.9811 41.4629 84.1649 41.6467 84.1649 41.9225V43.3016C84.1649 43.5774 84.3488 43.7613 84.6246 43.7613H86.4633C86.7391 43.7613 86.923 43.4854 86.923 43.3016Z" fill="#292D33"/>
<path d="M86.4634 65.9177H84.6247C84.3489 65.9177 84.165 65.7338 84.165 65.458V34.5677C84.165 34.2919 84.3489 34.108 84.6247 34.108H86.4634C86.7392 34.108 86.9231 34.2919 86.9231 34.5677V65.458C86.9231 65.7338 86.7392 65.9177 86.4634 65.9177Z" fill="#292D33"/>
<path d="M31.2639 113.548V75.819C31.2639 75.5476 31.4449 75.3666 31.7163 75.3666H33.0734C33.3449 75.3666 33.5258 75.1857 33.5258 74.9143V70.8428C33.5258 70.5714 33.7068 70.3904 33.9782 70.3904H35.3353C35.6068 70.3904 35.7877 70.2095 35.7877 69.9381V65.8666C35.7877 65.5952 35.9687 65.4143 36.2401 65.4143H37.5973C37.8687 65.4143 38.0496 65.2333 38.0496 64.9619V63.6047C38.0496 63.3333 38.2306 63.1524 38.502 63.1524H42.5734C42.8449 63.1524 43.0258 62.9714 43.0258 62.7V61.3428C43.0258 61.0714 43.2068 60.8904 43.4782 60.8904H47.5496C47.8211 60.8904 48.002 60.7095 48.002 60.4381V59.0809C48.002 58.8095 48.183 58.6285 48.4544 58.6285H55.6925C55.9639 58.6285 56.1449 58.8095 56.1449 59.0809V60.4381C56.1449 60.7095 56.3258 60.8904 56.5973 60.8904H60.6687C60.9401 60.8904 61.1211 61.0714 61.1211 61.3428V62.7C61.1211 62.9714 61.302 63.1524 61.5734 63.1524H65.6449C65.9163 63.1524 66.0973 63.3333 66.0973 63.6047V64.9619C66.0973 65.2333 66.2782 65.4143 66.5496 65.4143H67.9068C68.1782 65.4143 68.3592 65.5952 68.3592 65.8666V69.9381C68.3592 70.2095 68.5401 70.3904 68.8115 70.3904H70.1687C70.4401 70.3904 70.6211 70.5714 70.6211 70.8428V74.9143C70.6211 75.1857 70.802 75.3666 71.0734 75.3666H72.4306C72.702 75.3666 72.883 75.5476 72.883 75.819V113.548C72.883 113.819 72.702 114 72.4306 114H31.7163C31.5353 114 31.2639 113.819 31.2639 113.548Z" fill="#292D33"/>
<path d="M33.978 110.833V78.5333C33.978 78.2619 34.159 78.0809 34.4304 78.0809H35.7876C36.059 78.0809 36.2399 77.9 36.2399 77.6286V73.5571C36.2399 73.2857 36.4209 73.1047 36.6923 73.1047H38.0495C38.3209 73.1047 38.5018 72.9238 38.5018 72.6524V68.5809C38.5018 68.3095 38.6828 68.1286 38.9542 68.1286H40.3114C40.5828 68.1286 40.7637 67.9476 40.7637 67.6762V66.319C40.7637 66.0476 40.9447 65.8666 41.2161 65.8666H45.2876C45.559 65.8666 45.7399 65.6857 45.7399 65.4143V64.0571C45.7399 63.7857 45.9209 63.6047 46.1923 63.6047H50.2637C50.5352 63.6047 50.7161 63.4238 50.7161 63.1524V61.7952C50.7161 61.5238 50.8971 61.3428 51.1685 61.3428H52.978C53.2495 61.3428 53.4304 61.5238 53.4304 61.7952V63.1524C53.4304 63.4238 53.6114 63.6047 53.8828 63.6047H57.9542C58.2257 63.6047 58.4066 63.7857 58.4066 64.0571V65.4143C58.4066 65.6857 58.5876 65.8666 58.859 65.8666H62.9304C63.2018 65.8666 63.3828 66.0476 63.3828 66.319V67.6762C63.3828 67.9476 63.5637 68.1286 63.8352 68.1286H65.1923C65.4637 68.1286 65.6447 68.3095 65.6447 68.5809V72.6524C65.6447 72.9238 65.8256 73.1047 66.0971 73.1047H67.4542C67.7257 73.1047 67.9066 73.2857 67.9066 73.5571V77.6286C67.9066 77.9 68.0876 78.0809 68.359 78.0809H69.7161C69.9876 78.0809 70.1685 78.2619 70.1685 78.5333V110.833C70.1685 111.105 69.9876 111.286 69.7161 111.286H34.4304C34.2495 111.286 33.978 111.105 33.978 110.833Z" fill="#C3CAD4"/>
<path d="M100.75 1.80952V0.452381C100.75 0.180952 100.569 0 100.297 0H87.1782C86.9068 0 86.7259 0.180952 86.7259 0.452381V1.80952C86.7259 2.08095 86.5449 2.2619 86.2735 2.2619H85.8357H84.964C84.6878 2.2619 84.464 2.48576 84.464 2.7619V14.9286C84.464 15.2 84.283 15.381 84.0116 15.381H71.7973C71.5258 15.381 71.3449 15.5619 71.3449 15.8333V17.1905C71.3449 17.4619 71.1639 17.6429 70.8925 17.6429H69.5354C69.2639 17.6429 69.083 17.8238 69.083 18.0952V30.3095C69.083 30.581 68.902 30.7619 68.6306 30.7619H35.6068C35.3354 30.7619 35.1544 30.581 35.1544 30.3095V18.0952C35.1544 17.8238 34.9735 17.6429 34.702 17.6429H33.3449C33.0735 17.6429 32.8925 17.4619 32.8925 17.1905V15.8333C32.8925 15.5619 32.7116 15.381 32.4401 15.381H20.2258C19.9544 15.381 19.7735 15.2 19.7735 14.9286V2.7619C19.7735 2.48576 19.5496 2.2619 19.2735 2.2619H18.4017H17.9639C17.6925 2.2619 17.5115 2.08095 17.5115 1.80952V0.452381C17.5115 0.180952 17.3306 0 17.0592 0H3.94012C3.66869 0 3.48774 0.180952 3.48774 0.452381V1.80952C3.48774 2.08095 3.30678 2.2619 3.03535 2.2619H1.67821C1.40678 2.2619 1.22583 2.44286 1.22583 2.71429V113.548C1.22583 113.819 1.40678 114 1.67821 114H102.559C102.831 114 103.012 113.819 103.012 113.548V2.71429C103.012 2.44286 102.831 2.2619 102.559 2.2619H101.202C100.931 2.2619 100.75 2.08095 100.75 1.80952ZM99.8449 111.286H4.3925C4.12107 111.286 3.94012 111.105 3.94012 110.833V3.16667C3.94012 2.89524 4.12107 2.71429 4.3925 2.71429H16.6068C16.8782 2.71429 17.0592 2.89524 17.0592 3.16667V15.381C17.0592 15.6524 17.2401 15.8333 17.5115 15.8333H18.8687C19.1401 15.8333 19.3211 16.0143 19.3211 16.2857V17.6429C19.3211 17.9143 19.502 18.0952 19.7735 18.0952H31.9877C32.2592 18.0952 32.4401 18.2762 32.4401 18.5476V30.7619C32.4401 31.0333 32.6211 31.2143 32.8925 31.2143H34.2496C34.5211 31.2143 34.702 31.3952 34.702 31.6667V33.0238C34.702 33.2952 34.883 33.4762 35.1544 33.4762H69.083C69.3544 33.4762 69.5354 33.2952 69.5354 33.0238V31.6667C69.5354 31.3952 69.7163 31.2143 69.9878 31.2143H71.3449C71.6163 31.2143 71.7973 31.0333 71.7973 30.7619V18.5476C71.7973 18.2762 71.9782 18.0952 72.2497 18.0952H84.464C84.7354 18.0952 84.9163 17.9143 84.9163 17.6429V16.2857C84.9163 16.0143 85.0973 15.8333 85.3687 15.8333H86.7259C86.9973 15.8333 87.1782 15.6524 87.1782 15.381V3.16667C87.1782 2.89524 87.3592 2.71429 87.6306 2.71429H99.8449C100.116 2.71429 100.297 2.89524 100.297 3.16667V110.833C100.297 111.105 100.026 111.286 99.8449 111.286Z" fill="#292D33"/>
</svg>
