<svg width="105" height="114" viewBox="0 0 105 114" fill="none" xmlns="http://www.w3.org/2000/svg">
<g clip-path="url(#clip0_2498_34889)">
<path d="M89.1592 43.8809V41.619H86.8973V36.6429H84.6354V28.9524H79.2068V31.2143H74.2306V33.4762H66.9925V31.2143H59.3021V28.9524H45.7306V31.2143H40.7544V33.4762H33.5163V31.2143H25.8259V28.9524H20.3973V36.6429H18.1354V41.619H15.8735V43.8809H13.6116V52.0238H15.8735V54.2857H18.1354V56.5476H20.3973V91.381H22.6592V107.214H24.9211V109.476H27.183V111.738H29.4449V114H75.5878V111.738H77.8497V109.476H80.1116V107.214H82.3735V91.381H84.6354V56.5476H86.8973V54.2857H89.1592V52.0238H91.4211V43.8809H89.1592Z" fill="#C3CAD4"/>
<path d="M90.9685 43.881H89.6113C89.3399 43.881 89.159 43.7 89.159 43.4286V42.0714C89.159 41.8 88.978 41.619 88.7066 41.619H87.3494C87.078 41.619 86.8971 41.4381 86.8971 41.1667V37.0952C86.8971 36.8238 86.7161 36.6429 86.4447 36.6429H85.0875C84.8161 36.6429 84.6352 36.4619 84.6352 36.1905V7.69048C84.6352 7.41905 84.4542 7.2381 84.1828 7.2381H82.3732C82.1018 7.2381 81.9209 7.05714 81.9209 6.78571V4.97619C81.9209 4.70476 81.7399 4.52381 81.4685 4.52381H80.1113C79.8399 4.52381 79.659 4.34286 79.659 4.07143V2.71429C79.659 2.44286 79.478 2.2619 79.2066 2.2619H69.7066C69.4351 2.2619 69.2542 2.08095 69.2542 1.80952V0.452381C69.2542 0.180952 69.0732 0 68.8018 0H36.2304C35.959 0 35.778 0.180952 35.778 0.452381V1.80952C35.778 2.08095 35.597 2.2619 35.3256 2.2619H25.8256C25.5542 2.2619 25.3732 2.44286 25.3732 2.71429V4.07143C25.3732 4.34286 25.1923 4.52381 24.9209 4.52381H23.5637C23.2923 4.52381 23.1113 4.70476 23.1113 4.97619V6.78571C23.1113 7.05714 22.9304 7.2381 22.6589 7.2381H20.8494C20.578 7.2381 20.397 7.41905 20.397 7.69048V36.1905C20.397 36.4619 20.2161 36.6429 19.9447 36.6429H18.5875C18.3161 36.6429 18.1351 36.8238 18.1351 37.0952V41.1667C18.1351 41.4381 17.9542 41.619 17.6828 41.619H16.3256C16.0542 41.619 15.8732 41.8 15.8732 42.0714V43.4286C15.8732 43.7 15.6923 43.881 15.4209 43.881H14.0637C13.7923 43.881 13.6113 44.0619 13.6113 44.3333V51.5714C13.6113 51.8429 13.7923 52.0238 14.0637 52.0238H15.4209C15.6923 52.0238 15.8732 52.2048 15.8732 52.4762V53.8333C15.8732 54.1048 16.0542 54.2857 16.3256 54.2857H17.6828C17.9542 54.2857 18.1351 54.4667 18.1351 54.7381V56.0952C18.1351 56.3667 18.3161 56.5476 18.5875 56.5476H19.9447C20.2161 56.5476 20.397 56.7286 20.397 57V90.9286C20.397 91.2 20.578 91.381 20.8494 91.381H22.2066C22.478 91.381 22.6589 91.5619 22.6589 91.8333V106.762C22.6589 107.033 22.8399 107.214 23.1113 107.214H24.4685C24.7399 107.214 24.9209 107.395 24.9209 107.667V109.024C24.9209 109.295 25.1018 109.476 25.3732 109.476H26.7304C27.0018 109.476 27.1828 109.657 27.1828 109.929V111.286C27.1828 111.557 27.3637 111.738 27.6351 111.738H28.9923C29.2637 111.738 29.4447 111.919 29.4447 112.19V113.548C29.4447 113.819 29.6256 114 29.897 114H75.1351C75.4066 114 75.5875 113.819 75.5875 113.548V112.19C75.5875 111.919 75.7685 111.738 76.0399 111.738H77.3971C77.6685 111.738 77.8494 111.557 77.8494 111.286V109.929C77.8494 109.657 78.0304 109.476 78.3018 109.476H79.659C79.9304 109.476 80.1113 109.295 80.1113 109.024V107.667C80.1113 107.395 80.2923 107.214 80.5637 107.214H81.9209C82.1923 107.214 82.3732 107.033 82.3732 106.762V91.8333C82.3732 91.5619 82.5542 91.381 82.8256 91.381H84.1828C84.4542 91.381 84.6352 91.2 84.6352 90.9286V57C84.6352 56.7286 84.8161 56.5476 85.0875 56.5476H86.4447C86.7161 56.5476 86.8971 56.3667 86.8971 56.0952V54.7381C86.8971 54.4667 87.078 54.2857 87.3494 54.2857H88.7066C88.978 54.2857 89.159 54.1048 89.159 53.8333V52.4762C89.159 52.2048 89.3399 52.0238 89.6113 52.0238H90.9685C91.2399 52.0238 91.4209 51.8429 91.4209 51.5714V44.3333C91.4209 44.0619 91.2399 43.881 90.9685 43.881ZM29.897 110.833V109.476C29.897 109.205 29.7161 109.024 29.4447 109.024H28.0875C27.8161 109.024 27.6351 108.843 27.6351 108.571V107.214C27.6351 106.943 27.4542 106.762 27.1828 106.762H25.8256C25.5542 106.762 25.3732 106.581 25.3732 106.31V91.381C25.3732 91.1095 25.1923 90.9286 24.9209 90.9286H23.5637C23.2923 90.9286 23.1113 90.7476 23.1113 90.4762V56.5476C23.1113 56.2762 22.9304 56.0952 22.6589 56.0952H21.3018C21.0304 56.0952 20.8494 55.9143 20.8494 55.6429V54.2857C20.8494 54.0143 20.6685 53.8333 20.397 53.8333H19.0399C18.7685 53.8333 18.5875 53.6524 18.5875 53.381V52.0238C18.5875 51.7524 18.4066 51.5714 18.1351 51.5714H16.778C16.5066 51.5714 16.3256 51.3905 16.3256 51.119V44.7857C16.3256 44.5143 16.5066 44.3333 16.778 44.3333H18.1351C18.4066 44.3333 18.5875 44.1524 18.5875 43.881V42.5238C18.5875 42.2524 18.7685 42.0714 19.0399 42.0714H20.397C20.6685 42.0714 20.8494 41.8905 20.8494 41.619V37.5476C20.8494 37.2762 21.0304 37.0952 21.3018 37.0952H22.6589C22.9304 37.0952 23.1113 36.9143 23.1113 36.6429V32.119C23.1113 31.8476 23.2923 31.6667 23.5637 31.6667H24.9209C25.1923 31.6667 25.3732 31.8476 25.3732 32.119V33.4762C25.3732 33.7476 25.5542 33.9286 25.8256 33.9286H32.6113C32.8828 33.9286 33.0637 34.1095 33.0637 34.381V35.7381C33.0637 36.0095 33.2447 36.1905 33.5161 36.1905H40.7542C41.0256 36.1905 41.2066 36.0095 41.2066 35.7381V34.381C41.2066 34.1095 41.3875 33.9286 41.659 33.9286H45.7304C46.0018 33.9286 46.1828 33.7476 46.1828 33.4762V32.119C46.1828 31.8476 46.3637 31.6667 46.6351 31.6667H58.397C58.6685 31.6667 58.8494 31.8476 58.8494 32.119V33.4762C58.8494 33.7476 59.0304 33.9286 59.3018 33.9286H66.0875C66.359 33.9286 66.5399 34.1095 66.5399 34.381V35.7381C66.5399 36.0095 66.7209 36.1905 66.9923 36.1905H74.2304C74.5018 36.1905 74.6828 36.0095 74.6828 35.7381V34.381C74.6828 34.1095 74.8637 33.9286 75.1351 33.9286H79.2066C79.478 33.9286 79.659 33.7476 79.659 33.4762V32.119C79.659 31.8476 79.8399 31.6667 80.1113 31.6667H81.4685C81.7399 31.6667 81.9209 31.8476 81.9209 32.119V36.6429C81.9209 36.9143 82.1018 37.0952 82.3732 37.0952H83.7304C84.0018 37.0952 84.1828 37.2762 84.1828 37.5476V41.619C84.1828 41.8905 84.3637 42.0714 84.6352 42.0714H85.9923C86.2637 42.0714 86.4447 42.2524 86.4447 42.5238V43.881C86.4447 44.1524 86.6256 44.3333 86.8971 44.3333H88.2542C88.5256 44.3333 88.7066 44.5143 88.7066 44.7857V51.119C88.7066 51.3905 88.5256 51.5714 88.2542 51.5714H86.8971C86.6256 51.5714 86.4447 51.7524 86.4447 52.0238V53.381C86.4447 53.6524 86.2637 53.8333 85.9923 53.8333H84.6352C84.3637 53.8333 84.1828 54.0143 84.1828 54.2857V55.6429C84.1828 55.9143 84.0018 56.0952 83.7304 56.0952H82.3732C82.1018 56.0952 81.9209 56.2762 81.9209 56.5476V90.4762C81.9209 90.7476 81.7399 90.9286 81.4685 90.9286H80.1113C79.8399 90.9286 79.659 91.1095 79.659 91.381V106.31C79.659 106.581 79.478 106.762 79.2066 106.762H77.8494C77.578 106.762 77.3971 106.943 77.3971 107.214V108.571C77.3971 108.843 77.2161 109.024 76.9447 109.024H75.5875C75.3161 109.024 75.1351 109.205 75.1351 109.476V110.833C75.1351 111.105 74.9542 111.286 74.6828 111.286H30.3494C30.078 111.286 29.897 111.105 29.897 110.833Z" fill="white"/>
<path d="M90.9687 43.881H89.6116C89.3402 43.881 89.1592 43.7 89.1592 43.4286V42.0714C89.1592 41.8 88.9783 41.619 88.7068 41.619H87.3497C87.0783 41.619 86.8973 41.4381 86.8973 41.1667V37.0952C86.8973 36.8238 86.7163 36.6429 86.4449 36.6429H85.0878C84.8164 36.6429 84.6354 36.4619 84.6354 36.1905V7.69048C84.6354 7.41905 84.4544 7.2381 84.183 7.2381H82.3735C82.1021 7.2381 81.9211 7.05714 81.9211 6.78571V4.97619C81.9211 4.70476 81.7402 4.52381 81.4687 4.52381H80.1116C79.8402 4.52381 79.6592 4.34286 79.6592 4.07143V2.71429C79.6592 2.44286 79.4782 2.2619 79.2068 2.2619H69.7068C69.4354 2.2619 69.2544 2.08095 69.2544 1.80952V0.452381C69.2544 0.180952 69.0735 0 68.8021 0H36.2306C35.9592 0 35.7782 0.180952 35.7782 0.452381V1.80952C35.7782 2.08095 35.5973 2.2619 35.3259 2.2619H25.8259C25.5544 2.2619 25.3735 2.44286 25.3735 2.71429V4.07143C25.3735 4.34286 25.1925 4.52381 24.9211 4.52381H23.564C23.2925 4.52381 23.1116 4.70476 23.1116 4.97619V6.78571C23.1116 7.05714 22.9306 7.2381 22.6592 7.2381H20.8497C20.5782 7.2381 20.3973 7.41905 20.3973 7.69048V36.1905C20.3973 36.4619 20.2163 36.6429 19.9449 36.6429H18.5878C18.3163 36.6429 18.1354 36.8238 18.1354 37.0952V41.1667C18.1354 41.4381 17.9544 41.619 17.683 41.619H16.3259C16.0544 41.619 15.8735 41.8 15.8735 42.0714V43.4286C15.8735 43.7 15.6925 43.881 15.4211 43.881H14.064C13.7925 43.881 13.6116 44.0619 13.6116 44.3333V51.5714C13.6116 51.8429 13.7925 52.0238 14.064 52.0238H15.4211C15.6925 52.0238 15.8735 52.2048 15.8735 52.4762V53.8333C15.8735 54.1048 16.0544 54.2857 16.3259 54.2857H17.683C17.9544 54.2857 18.1354 54.4667 18.1354 54.7381V56.0952C18.1354 56.3667 18.3163 56.5476 18.5878 56.5476H19.9449C20.2163 56.5476 20.3973 56.7286 20.3973 57V90.9286C20.3973 91.2 20.5782 91.381 20.8497 91.381H22.2068C22.4782 91.381 22.6592 91.5619 22.6592 91.8333V106.762C22.6592 107.033 22.8401 107.214 23.1116 107.214H24.4687C24.7401 107.214 24.9211 107.395 24.9211 107.667V109.024C24.9211 109.295 25.1021 109.476 25.3735 109.476H26.7306C27.0021 109.476 27.183 109.657 27.183 109.929V111.286C27.183 111.557 27.364 111.738 27.6354 111.738H28.9925C29.264 111.738 29.4449 111.919 29.4449 112.19V113.548C29.4449 113.819 29.6259 114 29.8973 114H75.1354C75.4068 114 75.5878 113.819 75.5878 113.548V112.19C75.5878 111.919 75.7687 111.738 76.0402 111.738H77.3973C77.6687 111.738 77.8497 111.557 77.8497 111.286V109.929C77.8497 109.657 78.0306 109.476 78.3021 109.476H79.6592C79.9306 109.476 80.1116 109.295 80.1116 109.024V107.667C80.1116 107.395 80.2925 107.214 80.564 107.214H81.9211C82.1925 107.214 82.3735 107.033 82.3735 106.762V91.8333C82.3735 91.5619 82.5544 91.381 82.8259 91.381H84.183C84.4544 91.381 84.6354 91.2 84.6354 90.9286V57C84.6354 56.7286 84.8164 56.5476 85.0878 56.5476H86.4449C86.7163 56.5476 86.8973 56.3667 86.8973 56.0952V54.7381C86.8973 54.4667 87.0783 54.2857 87.3497 54.2857H88.7068C88.9783 54.2857 89.1592 54.1048 89.1592 53.8333V52.4762C89.1592 52.2048 89.3402 52.0238 89.6116 52.0238H90.9687C91.2402 52.0238 91.4211 51.8429 91.4211 51.5714V44.3333C91.4211 44.0619 91.2402 43.881 90.9687 43.881ZM68.8021 3.16667V4.52381C68.8021 4.79524 68.983 4.97619 69.2544 4.97619H78.7544C79.0259 4.97619 79.2068 5.15714 79.2068 5.42857V9.04762C79.2068 9.31905 79.0259 9.5 78.7544 9.5H69.2544C68.983 9.5 68.8021 9.68095 68.8021 9.95238V11.3095C68.8021 11.581 68.6211 11.7619 68.3497 11.7619H36.683C36.4116 11.7619 36.2306 11.581 36.2306 11.3095V9.95238C36.2306 9.68095 36.0497 9.5 35.7782 9.5H26.2782C26.0068 9.5 25.8259 9.31905 25.8259 9.04762V5.42857C25.8259 5.15714 26.0068 4.97619 26.2782 4.97619H35.7782C36.0497 4.97619 36.2306 4.79524 36.2306 4.52381V3.16667C36.2306 2.89524 36.4116 2.71429 36.683 2.71429H68.3497C68.6211 2.71429 68.8021 2.89524 68.8021 3.16667ZM23.564 9.95238H24.9211C25.1925 9.95238 25.3735 10.1333 25.3735 10.4048V11.7619C25.3735 12.0333 25.5544 12.2143 25.8259 12.2143H35.3259C35.5973 12.2143 35.7782 12.3952 35.7782 12.6667V14.0238C35.7782 14.2952 35.9592 14.4762 36.2306 14.4762H68.8021C69.0735 14.4762 69.2544 14.2952 69.2544 14.0238V12.6667C69.2544 12.3952 69.4354 12.2143 69.7068 12.2143H79.2068C79.4782 12.2143 79.6592 12.0333 79.6592 11.7619V10.4048C79.6592 10.1333 79.8402 9.95238 80.1116 9.95238H81.4687C81.7402 9.95238 81.9211 10.1333 81.9211 10.4048V28.5C81.9211 28.7714 81.7402 28.9524 81.4687 28.9524H79.6592C79.3878 28.9524 79.2068 29.1333 79.2068 29.4048V30.7619C79.2068 31.0333 79.0259 31.2143 78.7544 31.2143H74.683C74.4116 31.2143 74.2306 31.3952 74.2306 31.6667V33.0238C74.2306 33.2952 74.0497 33.4762 73.7783 33.4762H67.4449C67.1735 33.4762 66.9925 33.2952 66.9925 33.0238V31.6667C66.9925 31.3952 66.8116 31.2143 66.5402 31.2143H59.7544C59.483 31.2143 59.3021 31.0333 59.3021 30.7619V29.4048C59.3021 29.1333 59.1211 28.9524 58.8497 28.9524H46.183C45.9116 28.9524 45.7306 29.1333 45.7306 29.4048V30.7619C45.7306 31.0333 45.5497 31.2143 45.2782 31.2143H41.2068C40.9354 31.2143 40.7544 31.3952 40.7544 31.6667V33.0238C40.7544 33.2952 40.5735 33.4762 40.3021 33.4762H33.9687C33.6973 33.4762 33.5163 33.2952 33.5163 33.0238V31.6667C33.5163 31.3952 33.3354 31.2143 33.064 31.2143H26.2782C26.0068 31.2143 25.8259 31.0333 25.8259 30.7619V29.4048C25.8259 29.1333 25.6449 28.9524 25.3735 28.9524H23.564C23.2925 28.9524 23.1116 28.7714 23.1116 28.5V10.4048C23.1116 10.1333 23.2925 9.95238 23.564 9.95238ZM29.8973 110.833V109.476C29.8973 109.205 29.7163 109.024 29.4449 109.024H28.0878C27.8163 109.024 27.6354 108.843 27.6354 108.571V107.214C27.6354 106.943 27.4544 106.762 27.183 106.762H25.8259C25.5544 106.762 25.3735 106.581 25.3735 106.31V91.381C25.3735 91.1095 25.1925 90.9286 24.9211 90.9286H23.564C23.2925 90.9286 23.1116 90.7476 23.1116 90.4762V56.5476C23.1116 56.2762 22.9306 56.0952 22.6592 56.0952H21.3021C21.0306 56.0952 20.8497 55.9143 20.8497 55.6429V54.2857C20.8497 54.0143 20.6687 53.8333 20.3973 53.8333H19.0401C18.7687 53.8333 18.5878 53.6524 18.5878 53.381V52.0238C18.5878 51.7524 18.4068 51.5714 18.1354 51.5714H16.7782C16.5068 51.5714 16.3259 51.3905 16.3259 51.119V44.7857C16.3259 44.5143 16.5068 44.3333 16.7782 44.3333H18.1354C18.4068 44.3333 18.5878 44.1524 18.5878 43.881V42.5238C18.5878 42.2524 18.7687 42.0714 19.0401 42.0714H20.3973C20.6687 42.0714 20.8497 41.8905 20.8497 41.619V37.5476C20.8497 37.2762 21.0306 37.0952 21.3021 37.0952H22.6592C22.9306 37.0952 23.1116 36.9143 23.1116 36.6429V32.119C23.1116 31.8476 23.2925 31.6667 23.564 31.6667H24.9211C25.1925 31.6667 25.3735 31.8476 25.3735 32.119V33.4762C25.3735 33.7476 25.5544 33.9286 25.8259 33.9286H32.6116C32.883 33.9286 33.064 34.1095 33.064 34.381V35.7381C33.064 36.0095 33.2449 36.1905 33.5163 36.1905H40.7544C41.0259 36.1905 41.2068 36.0095 41.2068 35.7381V34.381C41.2068 34.1095 41.3878 33.9286 41.6592 33.9286H45.7306C46.0021 33.9286 46.183 33.7476 46.183 33.4762V32.119C46.183 31.8476 46.364 31.6667 46.6354 31.6667H58.3973C58.6687 31.6667 58.8497 31.8476 58.8497 32.119V33.4762C58.8497 33.7476 59.0306 33.9286 59.3021 33.9286H66.0878C66.3592 33.9286 66.5402 34.1095 66.5402 34.381V35.7381C66.5402 36.0095 66.7211 36.1905 66.9925 36.1905H74.2306C74.5021 36.1905 74.683 36.0095 74.683 35.7381V34.381C74.683 34.1095 74.864 33.9286 75.1354 33.9286H79.2068C79.4782 33.9286 79.6592 33.7476 79.6592 33.4762V32.119C79.6592 31.8476 79.8402 31.6667 80.1116 31.6667H81.4687C81.7402 31.6667 81.9211 31.8476 81.9211 32.119V36.6429C81.9211 36.9143 82.1021 37.0952 82.3735 37.0952H83.7306C84.0021 37.0952 84.183 37.2762 84.183 37.5476V41.619C84.183 41.8905 84.364 42.0714 84.6354 42.0714H85.9925C86.264 42.0714 86.4449 42.2524 86.4449 42.5238V43.881C86.4449 44.1524 86.6259 44.3333 86.8973 44.3333H88.2544C88.5259 44.3333 88.7068 44.5143 88.7068 44.7857V51.119C88.7068 51.3905 88.5259 51.5714 88.2544 51.5714H86.8973C86.6259 51.5714 86.4449 51.7524 86.4449 52.0238V53.381C86.4449 53.6524 86.264 53.8333 85.9925 53.8333H84.6354C84.364 53.8333 84.183 54.0143 84.183 54.2857V55.6429C84.183 55.9143 84.0021 56.0952 83.7306 56.0952H82.3735C82.1021 56.0952 81.9211 56.2762 81.9211 56.5476V90.4762C81.9211 90.7476 81.7402 90.9286 81.4687 90.9286H80.1116C79.8402 90.9286 79.6592 91.1095 79.6592 91.381V106.31C79.6592 106.581 79.4782 106.762 79.2068 106.762H77.8497C77.5783 106.762 77.3973 106.943 77.3973 107.214V108.571C77.3973 108.843 77.2163 109.024 76.9449 109.024H75.5878C75.3163 109.024 75.1354 109.205 75.1354 109.476V110.833C75.1354 111.105 74.9544 111.286 74.683 111.286H30.3497C30.0782 111.286 29.8973 111.105 29.8973 110.833Z" fill="#292D33"/>
<path d="M52.5161 94.1536C28.2685 94.1536 7.63993 77.6869 1.93993 72.7108C1.6685 72.4393 1.48755 72.1679 1.48755 71.806C1.48755 71.4441 1.6685 71.1727 1.93993 70.9012C7.73041 65.8346 28.359 49.4584 52.5161 49.4584C76.6733 49.4584 97.3923 65.925 103.092 70.9012C103.364 71.1727 103.545 71.4441 103.545 71.806C103.545 72.1679 103.364 72.4393 103.092 72.7108C97.3923 77.6869 76.7638 94.1536 52.5161 94.1536Z" fill="#292D33"/>
<path d="M52.5164 90.4762C28.2688 90.4762 7.64018 74.0095 1.94017 69.0333C1.66875 68.7619 1.48779 68.4905 1.48779 68.1286C1.48779 67.7667 1.66875 67.4952 1.94017 67.2238C7.73065 62.1571 28.3592 45.7809 52.5164 45.7809C76.6735 45.7809 97.3926 62.2476 103.093 67.2238C103.364 67.4952 103.545 67.7667 103.545 68.1286C103.545 68.4905 103.364 68.7619 103.093 69.0333C97.3926 74.0095 76.764 90.4762 52.5164 90.4762Z" fill="#FAFBFD"/>
<path d="M52.5163 46.9571C76.3116 46.9571 96.6687 63.1524 102.369 68.1286C96.6687 73.1048 76.3116 89.3 52.5163 89.3C28.7211 89.3 8.36391 73.1048 2.66391 68.1286C8.36391 63.1524 28.7211 46.9571 52.5163 46.9571ZM52.5163 44.6048C27.9973 44.6048 7.36867 60.8905 1.12581 66.3191C0.0400946 67.3143 0.0400946 68.8524 1.12581 69.8476C7.36867 75.3667 27.9973 91.5619 52.5163 91.5619C77.0354 91.5619 97.664 75.2762 103.907 69.8476C104.993 68.8524 104.993 67.3143 103.907 66.3191C97.664 60.8905 77.0354 44.6048 52.5163 44.6048Z" fill="#292D33"/>
<path d="M52.5164 81.0667C62.2603 81.0667 70.1593 73.1677 70.1593 63.4238C70.1593 53.6799 62.2603 45.7809 52.5164 45.7809C42.7725 45.7809 34.8735 53.6799 34.8735 63.4238C34.8735 73.1677 42.7725 81.0667 52.5164 81.0667Z" fill="#292D33"/>
<path d="M56.6782 61.6143H54.8687C54.5068 61.6143 54.2353 61.3429 54.2353 60.981V59.2619C54.2353 58.9 53.9639 58.6286 53.6925 58.6286H51.3401C50.9782 58.6286 50.7972 58.9 50.7972 59.2619V60.981C50.7972 61.3429 50.5258 61.6143 50.1639 61.6143H48.3544C47.9925 61.6143 47.8115 61.8857 47.8115 62.2476V64.6C47.8115 64.9619 48.083 65.2333 48.3544 65.2333H50.1639C50.5258 65.2333 50.7972 65.5048 50.7972 65.8667V67.5857C50.7972 67.9476 51.0687 68.219 51.3401 68.219H53.6925C54.0544 68.219 54.2353 67.9476 54.2353 67.5857V65.8667C54.2353 65.5048 54.5068 65.2333 54.8687 65.2333H56.6782C57.0401 65.2333 57.2211 64.9619 57.2211 64.6V62.2476C57.2211 61.8857 56.9496 61.6143 56.6782 61.6143Z" fill="white"/>
</g>
<defs>
<clipPath id="clip0_2498_34889">
<rect width="104.806" height="114" fill="white" transform="translate(0.113037)"/>
</clipPath>
</defs>
</svg>
